<?xml version="1.0" standalone="no"?>
<!DOCTYPE svg PUBLIC "-//W3C//DTD SVG 1.1//EN" "http://www.w3.org/Graphics/SVG/1.1/DTD/svg11.dtd" >
<svg xmlns="http://www.w3.org/2000/svg">
<metadata>
Created by FontPrep 20130207 at Sat Mar 22 03:58:19 2014
 By Todd Ladner
Digitized data copyright (c) 2012-2013, The Mozilla Foundation and Telefonica S.A.
</metadata>
<defs>
<font id="c510735bbb0ba4271879d3ea2bffe0a9" horiz-adv-x='1024' >
  <font-face 
    font-family="FiraSansOTLight"
    font-weight="300"
    font-stretch="normal"
    units-per-em="2048"
    panose-1="2 11 6 3 5 0 0 2 0 4"
    ascent="1638"
    descent="-410"
    x-height="1071"
    cap-height="1403"
    bbox="-1235 -1024 2785 2150"
    underline-thickness="102"
    underline-position="-102"
    unicode-range="U+000D-1F310"
  />
<missing-glyph horiz-adv-x="1363" 
d="M645 98q-31 0 -51 22t-21 53q1 32 21 52q20 21 51 21t51 -20t20 -53q0 -31 -20 -53t-51 -22zM696 354q0 -23 -15 -36t-35 -13t-37 13q-15 13 -15 36v172q110 6 148 40t38 110t-26 112t-92 37q-66 0 -98 -14t-42 -14q-49 0 -49 47q1 39 61 59t130 21q227 0 227 -236
q0 -213 -195 -242v-92zM365 -918h636v2962h-636v-2962zM252 -1024v3174h860v-3174h-860z" />
    <glyph glyph-name="f_i" unicode="fi" horiz-adv-x="1161" 
d="M51 975v96h199v182q0 127 82 198t234 71t300 -76l-43 -90q-135 63 -247 63t-161 -43q-48 -43 -48 -129v-176h579v-1071h-117v975h-462v-975h-117v975h-199z" />
    <glyph glyph-name="f_l" unicode="fl" horiz-adv-x="1171" 
d="M51 975v96h199v182q0 127 83 198t247 71q113 0 241 -41l117 20v-1321q0 -100 84 -100q37 0 76 14l32 -86q-55 -31 -129 -31q-180 0 -180 199v1202q-121 41 -239 41t-166 -43q-49 -43 -49 -129v-176h282l-14 -96h-268v-975h-117v975h-199z" />
    <glyph glyph-name=".notdef" horiz-adv-x="1363" 
d="M645 98q-31 0 -51 22t-21 53q1 32 21 52q20 21 51 21t51 -20t20 -53q0 -31 -20 -53t-51 -22zM696 354q0 -23 -15 -36t-35 -13t-37 13q-15 13 -15 36v172q110 6 148 40t38 110t-26 112t-92 37q-66 0 -98 -14t-42 -14q-49 0 -49 47q1 39 61 59t130 21q227 0 227 -236
q0 -213 -195 -242v-92zM365 -918h636v2962h-636v-2962zM252 -1024v3174h860v-3174h-860z" />
    <glyph glyph-name=".null" horiz-adv-x="0" 
 />
    <glyph glyph-name="nonmarkingreturn" horiz-adv-x="681" 
 />
    <glyph glyph-name="CR" unicode="&#xd;" horiz-adv-x="573" 
 />
    <glyph glyph-name="space" unicode=" " horiz-adv-x="573" 
 />
    <glyph glyph-name="exclam" unicode="!" horiz-adv-x="573" 
d="M188 74q0 40 27 68t72 28t71 -27t27 -69q0 -42 -27 -70q-28 -27 -72 -27t-71 28t-27 69zM336 399h-117v1004h117v-1004z" />
    <glyph glyph-name="quotedbl" unicode="&#x22;" horiz-adv-x="829" 
d="M328 889h-80l-43 514h123v-514zM625 889h-80l-43 514h123v-514z" />
    <glyph glyph-name="numbersign" unicode="#" horiz-adv-x="1024" 
d="M371 915l-60 -448h344l60 448h-344zM999 915h-176l-59 -448h168v-94h-180l-50 -373h-108l49 373h-344l-49 -373h-109l49 373h-165v94h178l59 448h-170v95h182l48 352h108l-47 -352h344l47 352h109l-47 -352h163v-95z" />
    <glyph glyph-name="dollar" unicode="$" horiz-adv-x="1024" 
d="M528 1286q-131 0 -211 -58q-79 -58 -79 -169t68 -166t262 -115q196 -60 298 -147q102 -88 102 -253t-104 -270q-106 -105 -293 -122v-293h-100v291q-260 10 -414 157l70 80q154 -141 377 -141q156 0 249 76t93 210t-75 196t-273 122t-290 147q-91 87 -91 223t98 225
t260 103v310h98v-310q205 -10 359 -137l-72 -80q-139 121 -332 121z" />
    <glyph glyph-name="percent" unicode="%" horiz-adv-x="1740" 
d="M1251 643q139 0 223 -89t82 -243q0 -153 -82 -243t-222 -90t-223 88q-83 90 -83 244t83 243q83 90 222 90zM1251 553q-190 0 -190 -244q0 -98 46 -170t144 -71q190 0 191 243q0 98 -46 170q-47 72 -145 72zM489 1384q139 0 223 -89t83 -243q0 -154 -83 -243
q-82 -90 -222 -90t-223 89t-83 243q0 153 83 243t222 90zM489 1294q-190 0 -190 -243q0 -98 46 -170t144 -72q190 0 191 244q0 98 -46 170q-47 71 -145 71zM1393 1384l-947 -1429l-90 53l947 1430z" />
    <glyph glyph-name="ampersand" unicode="&#x26;" horiz-adv-x="1591" 
d="M408 1127q0 -83 41 -146t155 -170q147 92 202 158q54 65 54 155t-65 149q-66 58 -166 58t-161 -60q-60 -61 -60 -144zM653 80q203 0 361 190l-426 410q-133 -86 -181 -156q-49 -70 -49 -184t81 -188q81 -72 214 -72zM291 1134q0 116 93 204q93 87 250 87t251 -85
q94 -86 94 -202t-67 -204t-230 -195l395 -377q90 144 160 400l115 -43q-70 -248 -189 -432l316 -287h-170l-213 197q-188 -219 -447 -220q-186 -1 -300 99t-113 266q0 127 65 221q66 94 209 189q-119 110 -169 188t-50 194z" />
    <glyph glyph-name="quotesingle" unicode="'" horiz-adv-x="532" 
d="M328 889h-80l-43 514h123v-514z" />
    <glyph glyph-name="parenleft" unicode="(" horiz-adv-x="665" 
d="M113 717q0 309 88 528t258 443l73 -50q-147 -207 -223 -424q-76 -216 -76 -496t76 -498t223 -425l-73 -49q-170 222 -258 442t-88 529z" />
    <glyph glyph-name="parenright" unicode=")" horiz-adv-x="665" 
d="M553 717q0 -309 -88 -529t-258 -442l-74 49q147 207 223 425t76 498t-76 496t-223 424l74 50q170 -222 258 -442t88 -529z" />
    <glyph glyph-name="asterisk" unicode="*" horiz-adv-x="901" 
d="M508 1507l-16 -321l299 114l34 -108l-309 -84l203 -250l-92 -65l-176 266l-177 -266l-92 65l201 250l-307 84l35 108l299 -114l-17 321h115z" />
    <glyph glyph-name="plus" unicode="+" horiz-adv-x="1024" 
d="M569 1006v-316h312v-104h-312v-316h-114v316h-312v104h312v316h114z" />
    <glyph glyph-name="comma" unicode="," horiz-adv-x="573" 
d="M186 66q0 48 28 76t74 28t72 -27t25 -67q0 -40 -33 -113l-127 -272h-84l92 299q-47 27 -47 76z" />
    <glyph glyph-name="hyphen" unicode="-" horiz-adv-x="798" 
d="M664 586h-529v106h529v-106z" />
    <glyph glyph-name="period" unicode="." horiz-adv-x="573" 
d="M188 74q0 40 27 68t72 28t71 -27t27 -69q0 -42 -27 -70q-28 -27 -72 -27t-71 28t-27 69z" />
    <glyph glyph-name="slash" unicode="/" horiz-adv-x="1064" 
d="M246 -195l473 1842l100 -25l-473 -1841z" />
    <glyph glyph-name="zero" unicode="0" horiz-adv-x="1118" 
d="M559 -23q-213 -1 -325 179t-111 526q0 346 111 524q112 178 325 178t325 -179t112 -525t-112 -524t-325 -179zM559 80q162 0 238 143q75 143 75 457t-75 458q-76 144 -238 144q-161 0 -237 -143t-76 -457t76 -458t237 -144z" />
    <glyph glyph-name="one" unicode="1" horiz-adv-x="733" 
d="M518 0h-115v1233l-315 -205l-57 86l389 248h98v-1362z" />
    <glyph glyph-name="two" unicode="2" horiz-adv-x="952" 
d="M63 0v102q207 213 311 326q256 281 311 428q30 80 30 184t-73 174q-73 68 -177 68t-179 -45t-149 -139l-86 61q178 225 412 225q161 0 269 -95t108 -268t-138 -359t-501 -556h659l-16 -106h-781z" />
    <glyph glyph-name="three" unicode="3" horiz-adv-x="985" 
d="M428 764q123 0 208 72t85 192t-72 189q-72 68 -192 67q-168 0 -303 -123l-66 76q162 147 377 147q172 0 275 -98t104 -237q0 -231 -240 -322l8 -4q123 -27 197 -111t74 -244t-122 -275q-122 -116 -319 -116q-233 0 -391 177l82 69q123 -143 309 -143q150 0 233 84t83 221
q0 283 -322 283h-71l14 96h49z" />
    <glyph glyph-name="four" unicode="4" horiz-adv-x="1028" 
d="M795 0h-117v354h-586v95l408 935l98 -41l-383 -884h463l14 397h103v-397h182v-105h-182v-354z" />
    <glyph glyph-name="five" unicode="5" horiz-adv-x="1030" 
d="M297 1260v-455q119 57 235 57q172 0 279 -113q107 -114 107 -313q0 -198 -122 -328t-321 -131q-233 0 -383 173l82 67q121 -139 301 -139q147 0 234 98q86 98 86 263t-79 247t-200 82t-240 -59h-92v653h684l-16 -102h-555z" />
    <glyph glyph-name="six" unicode="6" horiz-adv-x="1062" 
d="M563 788q-176 0 -319 -225q6 -485 303 -485q131 0 206 102t75 274t-71 253t-194 81zM618 1284q-172 0 -267 -162t-103 -436q129 201 332 201q160 0 265 -110q105 -111 105 -323t-116 -344t-287 -133q-115 -1 -199 49t-132 137q-95 172 -93 427q0 379 134 587t357 207
q152 0 269 -92l-56 -82q-94 74 -209 74z" />
    <glyph glyph-name="seven" unicode="7" horiz-adv-x="833" 
d="M20 1257v105h762v-96l-540 -1289l-111 35l533 1245h-644z" />
    <glyph glyph-name="eight" unicode="8" horiz-adv-x="1128" 
d="M565 1288q-123 0 -197 -60t-75 -174t67 -174t261 -128q115 61 165 131q50 69 52 175q0 106 -75 168t-198 62zM238 358q0 -134 87 -206t239 -72t239 74q88 74 88 199q0 126 -81 191t-308 150q-264 -104 -264 -336zM956 1051q0 -109 -59 -189t-186 -143q157 -61 231 -147
t74 -210q0 -170 -127 -278t-331 -107t-325 105t-120 276q0 252 295 375q-233 111 -234 320q0 159 117 245t275 86t274 -82q116 -83 116 -251z" />
    <glyph glyph-name="nine" unicode="9" horiz-adv-x="1062" 
d="M504 614q186 0 315 211q-4 233 -73 345t-212 112t-222 -88t-79 -254q1 -326 271 -326zM481 514q-158 0 -263 114t-105 314t119 322q120 121 294 120q202 0 308 -146t106 -398q0 -382 -184 -576q-96 -100 -224 -168t-321 -129l-29 94q303 90 465 243t174 407h-4
q-119 -197 -336 -197z" />
    <glyph glyph-name="colon" unicode=":" horiz-adv-x="573" 
d="M188 74q0 40 27 68t72 28t71 -27t27 -69q0 -42 -27 -70q-28 -27 -72 -27t-71 28t-27 69zM188 872q0 41 27 69t72 28t71 -27t27 -70q0 -44 -27 -70q-28 -26 -72 -26t-71 28t-27 68z" />
    <glyph glyph-name="semicolon" unicode=";" horiz-adv-x="573" 
d="M186 66q0 48 28 76t74 28t72 -27t25 -71q0 -44 -33 -109l-127 -272h-84l92 299q-47 27 -47 76zM188 872q0 41 27 69t72 28t71 -27t27 -70q0 -44 -27 -70q-28 -26 -72 -26t-71 28t-27 68z" />
    <glyph glyph-name="less" unicode="&#x3c;" horiz-adv-x="1024" 
d="M854 293l-711 338v102l711 338l45 -94l-633 -295l635 -291z" />
    <glyph glyph-name="equal" unicode="=" horiz-adv-x="1024" 
d="M881 406h-738v106h738v-106zM881 762h-738v106h738v-106z" />
    <glyph glyph-name="greater" unicode="&#x3e;" horiz-adv-x="1024" 
d="M881 631l-711 -338l-47 98l635 291l-633 295l45 94l711 -338v-102z" />
    <glyph glyph-name="question" unicode="?" horiz-adv-x="1085" 
d="M352 74q0 40 27 68t72 28t71 -27t27 -69q0 -42 -27 -70q-28 -27 -72 -27t-71 28t-27 69zM506 537v-138h-111v154q0 100 37 173t91 116q53 43 107 81q128 91 128 212q0 84 -66 137t-172 53q-174 0 -307 -151l-80 61q164 190 399 190q164 0 256 -83t92 -187
q1 -178 -132 -277q-56 -42 -110 -83q-132 -100 -132 -258z" />
    <glyph glyph-name="at" unicode="@" horiz-adv-x="2088" 
d="M1090 877q-138 1 -232 -105t-94 -284t70 -263q70 -86 176 -86q106 -1 168 57t86 121v525q-80 35 -174 35zM1085 -420q-411 0 -661 245t-250 671q0 256 112 467t326 337t492 125q196 -1 352 -65q293 -121 407 -427q52 -142 52 -302q0 -293 -101 -448t-266 -154
q-104 0 -170 57t-80 137h-8q-76 -180 -289 -180q-153 0 -253 116t-100 339t132 348t292 125t302 -68v-553q0 -227 172 -227q114 0 182 119q68 120 68 404t-186 482t-506 197q-246 0 -432 -113t-282 -300t-95 -416q0 -367 216 -591t576 -224q211 -1 408 71l33 -96
q-215 -76 -443 -76z" />
    <glyph glyph-name="A" unicode="A" horiz-adv-x="1116" 
d="M555 1294l-258 -813h518l-256 813h-4zM969 0l-121 379h-584l-121 -379h-123l461 1403h154l461 -1403h-127z" />
    <glyph glyph-name="B" unicode="B" horiz-adv-x="1239" 
d="M346 1300v-509h285q139 1 214 69t75 193q0 248 -338 247h-236zM653 690h-307v-588h260q373 0 373 291q0 297 -326 297zM1044 1059q0 -254 -241 -309v-5q131 -20 217 -103t86 -245q0 -203 -143 -300t-385 -97h-353v1403h328q491 0 491 -344z" />
    <glyph glyph-name="C" unicode="C" horiz-adv-x="1138" 
d="M683 1321q-175 0 -294 -152t-119 -463q0 -310 120 -466t304 -156t316 113l67 -84q-149 -135 -389 -135t-392 188q-152 190 -153 535q0 345 156 535t380 189q224 0 376 -125l-74 -83q-123 104 -298 104z" />
    <glyph glyph-name="D" unicode="D" horiz-adv-x="1304" 
d="M346 1300v-1198h180q207 0 347 114q161 130 161 497q0 151 -30 261t-77 171q-46 61 -119 98q-74 37 -140 47t-152 10h-170zM225 0v1403h275q112 0 200 -15q88 -14 178 -60t148 -120q59 -74 97 -200t38 -295q0 -170 -39 -299t-101 -206q-63 -77 -151 -125
q-153 -83 -356 -83h-289z" />
    <glyph glyph-name="E" unicode="E" horiz-adv-x="1052" 
d="M950 0h-725v1403h709l-14 -103h-574v-522h498v-102h-498v-574h604v-102z" />
    <glyph glyph-name="F" unicode="F" horiz-adv-x="1005" 
d="M346 1300v-546h488v-103h-488v-651h-121v1403h699l-15 -103h-563z" />
    <glyph glyph-name="G" unicode="G" horiz-adv-x="1280" 
d="M722 1321q-190 0 -321 -154t-131 -465q0 -312 117 -466t307 -154t324 74v501h-287l-14 103h420v-668q-203 -115 -447 -115q-244 1 -396 187t-151 533q0 347 170 537q171 190 407 191q236 0 392 -139l-74 -76q-126 111 -316 111z" />
    <glyph glyph-name="H" unicode="H" horiz-adv-x="1351" 
d="M1126 0h-120v688h-660v-688h-121v1403h121v-612h660v612h120v-1403z" />
    <glyph glyph-name="I" unicode="I" horiz-adv-x="571" 
d="M225 1403h121v-1403h-121v1403z" />
    <glyph glyph-name="J" unicode="J" horiz-adv-x="589" 
d="M244 168v1235h121v-1231q0 -195 -72 -289t-250 -162l-33 97q131 51 183 130q51 79 51 220z" />
    <glyph glyph-name="K" unicode="K" horiz-adv-x="1116" 
d="M225 1403h121v-1403h-121v1403zM934 1403h147l-581 -643l616 -760h-153l-609 754z" />
    <glyph glyph-name="L" unicode="L" horiz-adv-x="972" 
d="M225 1403h121v-1292h586l-17 -111h-690v1403z" />
    <glyph glyph-name="M" unicode="M" horiz-adv-x="1595" 
d="M1452 0h-117l-71 711q-33 322 -47 561h-5l-356 -1106h-119l-364 1106h-4q-16 -231 -47 -561l-64 -711h-115l133 1403h168l351 -1088h8l344 1088h170z" />
    <glyph glyph-name="N" unicode="N" horiz-adv-x="1376" 
d="M1036 573v830h115v-1403h-162l-661 1268h-4q16 -201 16 -441v-827h-115v1403h160l664 -1270h4q-17 241 -17 440z" />
    <glyph glyph-name="O" unicode="O" horiz-adv-x="1398" 
d="M700 82q199 0 314 157q114 157 114 463t-114 462q-115 157 -314 157q-198 0 -314 -158t-116 -464q0 -305 116 -461t314 -156zM1255 703q-1 -341 -153 -533t-404 -193q-252 1 -404 189t-151 530q0 342 153 536q152 194 404 194t404 -191q151 -191 151 -532z" />
    <glyph glyph-name="P" unicode="P" horiz-adv-x="1165" 
d="M346 1300v-651h213q193 0 295 74t102 260q0 317 -399 317h-211zM549 547h-203v-547h-121v1403h320q266 0 402 -100t136 -318q1 -438 -534 -438z" />
    <glyph glyph-name="Q" unicode="Q" horiz-adv-x="1398" 
d="M700 82q199 0 314 157q114 157 114 463t-114 462q-115 157 -314 157q-198 0 -314 -158t-116 -464q0 -305 116 -461t314 -156zM700 -18q-254 0 -406 186t-151 528q0 342 153 536q152 194 404 194t404 -191q152 -190 151 -535q0 -502 -327 -653l2 -4q268 0 418 -129
l-80 -104q-111 98 -241 135t-327 37z" />
    <glyph glyph-name="R" unicode="R" horiz-adv-x="1198" 
d="M346 1300v-569h242q365 0 364 291q0 147 -90 213t-282 65h-234zM346 631v-631h-121v1403h348q506 0 506 -381q0 -303 -354 -375l422 -647h-146l-401 631h-254z" />
    <glyph glyph-name="S" unicode="S" horiz-adv-x="1112" 
d="M561 1321q-135 0 -219 -60t-84 -169t72 -168t274 -122t309 -153t107 -268t-130 -291t-353 -113q-285 0 -465 170l71 84q166 -150 394 -149q162 0 259 80t97 214t-78 200q-77 66 -285 130t-303 148q-94 84 -94 234t118 244q118 93 306 93q240 1 416 -149l-74 -80
q-143 125 -338 125z" />
    <glyph glyph-name="T" unicode="T" horiz-adv-x="1021" 
d="M575 0h-120v1296h-414v107h950l-14 -107h-402v-1296z" />
    <glyph glyph-name="U" unicode="U" horiz-adv-x="1335" 
d="M205 1403h121v-950q0 -371 342 -371t342 371v950h120v-957q0 -221 -120 -345t-343 -124q-222 0 -342 123t-120 346v957z" />
    <glyph glyph-name="V" unicode="V" horiz-adv-x="1114" 
d="M956 1403h127l-456 -1403h-135l-461 1403h131l395 -1270h4z" />
    <glyph glyph-name="W" unicode="W" horiz-adv-x="1630" 
d="M881 1403l315 -1272h4l264 1272h115l-305 -1403h-152l-307 1249h-4l-307 -1249h-148l-305 1403h121l260 -1272h4l312 1272h133z" />
    <glyph glyph-name="X" unicode="X" horiz-adv-x="1062" 
d="M526 838h4l330 565h135l-395 -643l453 -760h-144l-381 672h-4l-377 -672h-137l445 754l-389 649h143z" />
    <glyph glyph-name="Y" unicode="Y" horiz-adv-x="1058" 
d="M592 0h-121v565l-461 838h137l383 -725h5l385 725h129l-457 -836v-567z" />
    <glyph glyph-name="Z" unicode="Z" horiz-adv-x="1044" 
d="M72 0v100l747 1198h-672v105h805v-100l-745 -1197h731l-14 -106h-852z" />
    <glyph glyph-name="bracketleft" unicode="[" horiz-adv-x="665" 
d="M522 -207h-338v1835h338v-90h-231v-1655h231v-90z" />
    <glyph glyph-name="backslash" unicode="\" horiz-adv-x="1064" 
d="M346 1647l473 -1842l-100 -24l-473 1841z" />
    <glyph glyph-name="bracketright" unicode="]" horiz-adv-x="665" 
d="M143 1628h338v-1835h-338v90h232v1655h-232v90z" />
    <glyph glyph-name="asciicircum" unicode="^" horiz-adv-x="1064" 
d="M483 1704h99l391 -625h-131l-310 510l-309 -510h-131z" />
    <glyph glyph-name="underscore" unicode="_" horiz-adv-x="1064" 
d="M983 -240h-901v107h901v-107z" />
    <glyph glyph-name="grave" unicode="`" horiz-adv-x="561" 
d="M500 1333l-41 -69l-398 178l66 106z" />
    <glyph glyph-name="a" unicode="a" horiz-adv-x="1067" 
d="M745 547h-178q-350 0 -350 -242q1 -111 61 -169t173 -58q196 -1 294 194v275zM92 310q0 156 125 242q125 87 344 87h184v106q0 127 -60 187q-59 60 -195 61q-136 0 -289 -59l-33 92q172 68 338 68q356 0 356 -342v-519q0 -85 25 -121t78 -53l-27 -82q-78 11 -121 53
t-57 128v2q-109 -182 -338 -183q-154 1 -242 89t-88 244z" />
    <glyph glyph-name="b" unicode="b" horiz-adv-x="1187" 
d="M647 993q-178 0 -305 -217v-512q113 -184 281 -184q307 0 307 456t-283 457zM225 0v1507l117 15v-617q127 189 324 189q196 0 292 -144t96 -405q0 -260 -110 -414q-111 -154 -302 -154t-306 168l-8 -145h-103z" />
    <glyph glyph-name="c" unicode="c" horiz-adv-x="980" 
d="M586 993q-148 0 -238 -119t-90 -343q0 -225 89 -339t239 -114t266 94l57 -82q-137 -113 -337 -113q-200 1 -319 149q-120 148 -120 403t124 410q123 155 321 155t331 -111l-61 -80q-114 90 -262 90z" />
    <glyph glyph-name="d" unicode="d" horiz-adv-x="1193" 
d="M569 993q-147 0 -229 -119t-82 -341q0 -221 76 -337t215 -116q182 0 303 207v524q-106 182 -283 182zM969 0h-103l-14 162q-125 -184 -321 -184t-297 146t-101 403t113 412t302 155t304 -152v580l117 -15v-1507z" />
    <glyph glyph-name="e" unicode="e" horiz-adv-x="1101" 
d="M569 993q-139 0 -223 -102t-92 -309h608q-4 199 -79 305t-214 106zM605 78q155 0 280 108l55 -80q-141 -129 -353 -129q-212 1 -333 149t-121 404t117 410q118 154 316 154t306 -140t107 -387q0 -37 -4 -78h-721q10 -205 103 -308t248 -103z" />
    <glyph glyph-name="f" unicode="f" horiz-adv-x="671" 
d="M51 975v96h199v182q0 125 76 197t213 72t256 -58l-39 -90q-100 47 -202 47t-144 -42q-43 -42 -43 -132v-176h282l-14 -96h-268v-975h-117v975h-199z" />
    <glyph glyph-name="g" unicode="g" horiz-adv-x="1040" 
d="M509 467q129 1 199 69t70 196t-67 199q-68 71 -200 71t-204 -74q-71 -74 -71 -197t72 -193t201 -71zM508 -326q336 0 336 209q0 84 -60 130t-166 46h-163q-139 1 -211 59t-72 153t109 165q-164 96 -164 295q0 158 105 260t284 103q305 0 469 71l35 -110q-96 -33 -283 -33
q170 -84 170 -289q0 -162 -105 -260t-282 -98q-76 0 -150 26q-32 -23 -54 -57t-21 -63q0 -115 176 -115h168q162 0 250 -80t88 -195q0 -155 -122 -233t-333 -78q-212 0 -326 64t-114 229l106 2q0 -105 77 -153t253 -48z" />
    <glyph glyph-name="h" unicode="h" horiz-adv-x="1189" 
d="M342 0h-117v1507l117 15v-621q131 193 348 193q150 0 218 -82t67 -244v-768h-117v735q0 139 -46 199t-153 61q-176 0 -317 -233v-762z" />
    <glyph glyph-name="i" unicode="i" horiz-adv-x="546" 
d="M272 1313q-40 1 -64 25t-24 61t25 61t63 25q38 0 64 -25q24 -26 24 -62t-24 -61q-25 -24 -64 -24zM215 1071h117v-1071h-117v1071z" />
    <glyph glyph-name="j" unicode="j" horiz-adv-x="546" 
d="M215 1071h117v-1030q0 -109 -16 -181t-62 -124q-45 -51 -89 -81t-130 -73l-45 90q129 63 177 133t48 232v1034zM272 1313q-40 1 -64 25t-24 61t25 61t63 25q38 0 64 -25q24 -26 24 -62t-24 -61q-25 -24 -64 -24z" />
    <glyph glyph-name="k" unicode="k" horiz-adv-x="989" 
d="M342 0h-117v1507l117 15v-1522zM795 1071h143l-449 -481l500 -590h-145l-490 586z" />
    <glyph glyph-name="l" unicode="l" horiz-adv-x="555" 
d="M322 180q0 -102 84 -102q37 0 75 14l33 -84q-55 -31 -129 -31q-180 0 -180 199v1331l117 15v-1342z" />
    <glyph glyph-name="m" unicode="m" horiz-adv-x="1761" 
d="M944 0h-117v748q0 129 -45 188t-139 59q-158 0 -301 -229v-766h-117v1071h101l8 -182q137 205 347 205t251 -205q139 205 342 205q272 0 272 -326v-768h-116v748q0 129 -46 188t-139 59q-158 0 -301 -229v-766z" />
    <glyph glyph-name="n" unicode="n" horiz-adv-x="1189" 
d="M690 1094q150 0 218 -82t67 -244v-768h-117v748q0 131 -47 189t-152 58q-174 0 -317 -229v-766h-117v1071h101l8 -182q135 205 356 205z" />
    <glyph glyph-name="o" unicode="o" horiz-adv-x="1171" 
d="M585 76q157 0 243 118t85 343t-85 341t-240 117q-156 -1 -243 -117t-87 -341t85 -343t242 -118zM133 535q0 259 123 409t334 150t330 -148q118 -148 118 -407q0 -258 -122 -410t-332 -152t-331 150q-120 150 -120 408z" />
    <glyph glyph-name="p" unicode="p" horiz-adv-x="1187" 
d="M631 80q299 0 299 457t-279 456q-182 0 -309 -217v-512q51 -84 127 -134t162 -50zM667 1094q388 0 388 -553q-1 -258 -107 -411t-299 -153t-307 158v-538l-117 -17v1491h101l8 -176q133 199 333 199z" />
    <glyph glyph-name="q" unicode="q" horiz-adv-x="1193" 
d="M569 993q-145 0 -228 -120t-83 -341q0 -220 77 -336t214 -116q182 0 303 207v524q-106 182 -283 182zM969 1071v-1491l-117 17v565q-125 -184 -321 -184t-297 146t-101 403t113 412t302 155t304 -152l14 129h103z" />
    <glyph glyph-name="r" unicode="r" horiz-adv-x="755" 
d="M629 977q-190 0 -287 -313v-664h-117v1071h101l12 -235q47 135 121 196t186 62q57 0 100 -13l-22 -116q-43 12 -94 12z" />
    <glyph glyph-name="s" unicode="s" horiz-adv-x="937" 
d="M846 275q0 -140 -117 -219t-285 -79q-231 0 -383 132l66 79q139 -113 317 -112q125 0 201 52t76 148t-57 144q-56 48 -222 93q-166 44 -246 115q-80 70 -79 192q0 122 102 198q101 76 277 76t309 -90l-53 -86q-122 78 -252 78t-196 -47q-66 -46 -66 -128t58 -129t219 -88
t246 -115t85 -214z" />
    <glyph glyph-name="t" unicode="t" horiz-adv-x="747" 
d="M367 272q-1 -194 157 -194q80 0 166 49l47 -82q-100 -68 -227 -68t-194 75t-66 212v717h-199v90h199v256l117 14v-270h280l-12 -90h-268v-709z" />
    <glyph glyph-name="u" unicode="u" horiz-adv-x="1177" 
d="M500 -23q-285 0 -285 324v770h117v-756q0 -127 46 -183t142 -56q172 0 316 229v766h116v-1071h-100l-8 182q-135 -205 -344 -205z" />
    <glyph glyph-name="v" unicode="v" horiz-adv-x="958" 
d="M31 1071h127l325 -962h4l318 962h123l-377 -1071h-137z" />
    <glyph glyph-name="w" unicode="w" horiz-adv-x="1433" 
d="M1266 1071h116l-262 -1071h-162l-237 948h-4l-242 -948h-158l-266 1071h121l223 -971h4l256 971h133l248 -969h4z" />
    <glyph glyph-name="x" unicode="x" horiz-adv-x="935" 
d="M469 494h-6l-303 -494h-140l377 571l-327 500h141l256 -422h4l260 422h137l-329 -496l376 -575h-141z" />
    <glyph glyph-name="y" unicode="y" horiz-adv-x="954" 
d="M31 1071h129l329 -977h5l305 977h125l-361 -1075q-61 -188 -159 -288t-285 -128l-17 96q154 29 229 104t122 220h-41z" />
    <glyph glyph-name="z" unicode="z" horiz-adv-x="870" 
d="M61 0v90l601 881h-551v100h688v-90l-598 -881h594l-15 -100h-719z" />
    <glyph glyph-name="braceleft" unicode="{" horiz-adv-x="665" 
d="M354 504v-479q0 -84 40 -113t138 -29v-90q-141 0 -213 50t-71 180v479q0 162 -156 162v104q82 0 119 39t37 129v473q0 129 71 179q72 50 213 50v-90q-98 0 -138 -28t-40 -113v-475q0 -86 -30 -138t-113 -75v-6q143 -35 143 -209z" />
    <glyph glyph-name="bar" unicode="|" horiz-adv-x="778" 
d="M338 -207v1847h102v-1847h-102z" />
    <glyph glyph-name="braceright" unicode="}" horiz-adv-x="665" 
d="M311 25v479q0 174 144 209v6q-84 23 -114 75t-30 138v475q0 84 -40 113t-138 28v90q141 0 213 -50t72 -179v-473q0 -90 37 -129t118 -39v-104q-156 0 -155 -162v-479q0 -129 -72 -179t-213 -51v90q98 0 138 29t40 113z" />
    <glyph glyph-name="asciitilde" unicode="~" horiz-adv-x="1024" 
d="M668 553q-61 0 -170 46t-144 46q-98 0 -155 -90l-76 47q37 70 100 109t131 39t172 -46q106 -46 142 -47q98 0 155 91l78 -54q-77 -141 -233 -141z" />
    <glyph glyph-name="uni00A0" unicode="&#xa0;" horiz-adv-x="573" 
 />
    <glyph glyph-name="exclamdown" unicode="&#xa1;" horiz-adv-x="573" 
d="M385 872q0 -40 -27 -68q-28 -28 -72 -28t-71 27t-27 69t27 70q27 27 72 27t71 -28t27 -69zM240 547h94l20 -950h-135z" />
    <glyph glyph-name="cent" unicode="&#xa2;" horiz-adv-x="1024" 
d="M577 993q-151 1 -237 -117t-86 -342t89 -340t233 -116t262 96l57 -84q-106 -92 -262 -108v-289h-101v287q-190 14 -296 160t-106 389t107 395q108 152 298 168v301h98v-301q156 -17 262 -109l-61 -80q-106 90 -257 90z" />
    <glyph glyph-name="sterling" unicode="&#xa3;" horiz-adv-x="1024" 
d="M360 1047v-271h390v-96h-390v-309q0 -105 -28 -161t-88 -97v-7h626l-14 -106h-756v102q80 46 112 98t32 140v340h-133v96h133v271q0 157 98 247t270 90t306 -149l-80 -64q-106 113 -240 113q-104 0 -171 -60t-67 -177z" />
    <glyph glyph-name="currency" unicode="&#xa4;" horiz-adv-x="1024" 
d="M514 410q125 0 195 78t69 210q0 133 -69 211q-70 78 -195 78t-195 -78q-69 -78 -69 -211t69 -211q70 -77 195 -77zM510 313q-127 0 -223 68l-170 -170l-74 74l170 170q-80 102 -80 243t78 242l-168 170l74 74l170 -170q94 70 222 70t228 -70l168 168l76 -72l-166 -168
q80 -102 80 -244t-82 -247l168 -164l-76 -74l-170 166q-98 -66 -225 -66z" />
    <glyph glyph-name="yen" unicode="&#xa5;" horiz-adv-x="1024" 
d="M184 432h269v180h-269v97h222l-383 653h137l352 -637h6l352 637h131l-385 -653h224v-97h-269v-180h269v-96h-269v-336h-118v336h-269v96z" />
    <glyph glyph-name="brokenbar" unicode="&#xa6;" horiz-adv-x="778" 
d="M338 -207v727h102v-727h-102zM440 911h-102v729h102v-729z" />
    <glyph glyph-name="section" unicode="&#xa7;" horiz-adv-x="1024" 
d="M252 679q0 -99 52 -141t263 -130q21 -8 33 -14t32 -13q20 -8 38 -16q106 78 106 179t-69 151q-70 50 -347 161q-108 -78 -108 -177zM133 659q0 141 160 244q-105 76 -105 196q0 119 100 191t247 72q195 0 348 -109l-66 -79q-125 90 -282 90q-103 0 -165 -44t-62 -121
t47 -112q49 -35 225 -107t246 -139q70 -68 69 -178q0 -143 -158 -246q103 -73 103 -195t-102 -192t-253 -69q-201 0 -356 110l66 80q121 -92 290 -92q106 0 171 42t65 117q0 76 -49 114q-48 38 -230 112t-246 138t-63 177z" />
    <glyph glyph-name="dieresis" unicode="&#xa8;" horiz-adv-x="671" 
d="M446 1368q0 36 23 58t59 22t60 -23q22 -23 22 -57t-22 -58q-22 -22 -60 -22t-60 22t-22 58zM61 1368q0 36 23 58q24 22 60 22t59 -23t23 -57t-24 -58q-22 -22 -59 -22t-59 22t-23 58z" />
    <glyph glyph-name="copyright" unicode="&#xa9;" horiz-adv-x="1638" 
d="M820 301q-249 0 -422 173t-173 421t173 421t421 173t421 -173t173 -421t-172 -421t-421 -173zM1321 894q0 218 -144 366q-143 148 -357 149t-359 -149t-145 -365t144 -363q146 -148 360 -149q214 0 358 147q143 146 143 364zM825 1161q-82 0 -134 -62t-52 -198
q0 -260 192 -260q80 0 158 57l51 -71q-92 -78 -218 -78t-208 92t-82 258t84 258q84 93 204 93t206 -68l-53 -74q-66 53 -148 53z" />
    <glyph glyph-name="ordfeminine" unicode="&#xaa;" horiz-adv-x="1228" 
d="M952 0h-698v106h698v-106zM535 717q160 0 245 153v211h-145q-289 0 -289 -184q0 -86 50 -133t139 -47zM510 629q-131 -1 -207 71t-76 197q1 125 107 196t295 70h151v78q0 101 -50 147t-165 46t-241 -50l-33 82q147 56 300 56q296 1 296 -275v-411q0 -68 16 -97t60 -41
l-23 -69q-66 12 -100 43t-47 96q-94 -139 -283 -139z" />
    <glyph glyph-name="guillemotleft" unicode="&#xab;" horiz-adv-x="1064" 
d="M922 1014l-279 -416l279 -414l-72 -49l-338 422v84l338 422zM553 1014l-279 -416l279 -414l-72 -49l-338 422v84l338 422z" />
    <glyph glyph-name="logicalnot" unicode="&#xac;" horiz-adv-x="1024" 
d="M881 338h-113v248h-625v106h738v-354z" />
    <glyph glyph-name="uni00AD" unicode="&#xad;" horiz-adv-x="798" 
d="M664 586h-529v106h529v-106z" />
    <glyph glyph-name="registered" unicode="&#xae;" horiz-adv-x="1312" 
d="M555 1212v-180h76q135 0 135 90t-148 90h-63zM555 961v-228h-88v553h156q233 0 233 -162q0 -123 -139 -153l188 -238h-114l-173 228h-63zM657 592q174 0 289 119t115 295t-115 298t-289 122q-175 0 -293 -122t-118 -297t118 -295t293 -120zM657 518q-209 0 -351 140
t-142 346t143 351q143 144 350 144t349 -144t143 -350q0 -206 -141 -347q-142 -140 -351 -140z" />
    <glyph glyph-name="macron" unicode="&#xaf;" horiz-adv-x="602" 
d="M541 1462v-96h-480v96h480z" />
    <glyph glyph-name="degree" unicode="&#xb0;" horiz-adv-x="1024" 
d="M443 842q-124 0 -212 78t-88 213t89 214t212 79t208 -80q85 -78 85 -212t-85 -213t-209 -79zM256 1135q0 -91 52 -147t135 -56t132 54t49 148t-47 147q-49 54 -133 54t-136 -54t-52 -146z" />
    <glyph glyph-name="plusminus" unicode="&#xb1;" horiz-adv-x="1024" 
d="M881 0h-738v109h738v-109zM571 1006v-316h310v-104h-310v-275h-118v275h-310v104h310v316h118z" />
    <glyph glyph-name="twosuperior" unicode="&#xb2;" horiz-adv-x="819" 
d="M129 653v74q362 351 417 459q28 56 28 112t-44 96q-43 40 -116 40q-121 0 -221 -107l-72 49q129 145 297 146q118 0 192 -64t74 -169q0 -107 -93 -219t-333 -331h440l-12 -86h-557z" />
    <glyph glyph-name="threesuperior" unicode="&#xb3;" horiz-adv-x="819" 
d="M551 1291q1 143 -185 143q-98 0 -208 -84l-52 61q126 111 266 111t215 -64t75 -141q0 -78 -46 -131t-114 -70v-4q78 -18 130 -76t52 -156t-87 -170t-239 -71q-152 0 -276 119l63 59q94 -94 206 -94t168 46t56 126q0 166 -210 166h-66l16 80h43q74 0 134 41q59 41 59 109z
" />
    <glyph glyph-name="acute" unicode="&#xb4;" horiz-adv-x="561" 
d="M102 1264l-41 69l373 215l66 -106z" />
    <glyph glyph-name="mu" unicode="&#xb5;" horiz-adv-x="1187" 
d="M846 1071h117v-715q0 -172 57 -356l-100 -18q-41 90 -56 223q-137 -227 -338 -228q-150 0 -211 121l-6 -2q25 -119 25 -223v-276l-109 -13v1487h117v-741q0 -254 199 -254q84 0 164 66t141 163v766z" />
    <glyph glyph-name="paragraph" unicode="&#xb6;" horiz-adv-x="1392" 
d="M653 1403h453v-1809l-109 -14v1733h-235v-1719l-109 -14v1073q-233 1 -351 105t-118 269t123 271t346 105z" />
    <glyph glyph-name="periodcentered" unicode="&#xb7;" horiz-adv-x="573" 
d="M188 647q0 41 27 69t72 28t71 -28q26 -26 27 -69q0 -43 -27 -69q-28 -26 -72 -27t-71 27t-27 69z" />
    <glyph glyph-name="cedilla" unicode="&#xb8;" horiz-adv-x="518" 
d="M340 -291q0 49 -41 69t-121 21l17 234h90v-170q172 -18 172 -156q-1 -82 -63 -126t-161 -44t-172 39q8 18 45 80q53 -29 119 -29q115 0 115 82z" />
    <glyph glyph-name="onesuperior" unicode="&#xb9;" horiz-adv-x="819" 
d="M537 653h-109v742l-223 -125l-47 71l295 166h84v-854z" />
    <glyph glyph-name="ordmasculine" unicode="&#xba;" horiz-adv-x="1228" 
d="M963 -6h-699v106h699v-106zM887 1077q0 177 -71 267t-201 90q-129 0 -201 -90t-72 -268q0 -177 70 -268t200 -91t203 92q72 92 72 268zM227 1075q-1 207 105 327t285 120t281 -118t101 -325q0 -207 -104 -329q-105 -122 -283 -121q-178 -1 -282 119t-103 327z" />
    <glyph glyph-name="guillemotright" unicode="&#xbb;" horiz-adv-x="1064" 
d="M512 1014l72 49l338 -422v-84l-338 -422l-72 49l276 414zM143 1014l72 49l338 -422v-84l-338 -422l-72 49l277 414z" />
    <glyph glyph-name="onequarter" unicode="&#xbc;" horiz-adv-x="1843" 
d="M1647 0h-101v209h-397v72l283 593l98 -32l-260 -545h276l10 238h91v-238h112v-88h-112v-209zM1401 1479l-828 -1639l-90 43l830 1639zM537 549h-109v741l-223 -125l-47 72l295 166h84v-854z" />
    <glyph glyph-name="onehalf" unicode="&#xbd;" horiz-adv-x="1843" 
d="M1401 1479l-828 -1639l-90 43l830 1639zM1233 0v74q216 210 303 306q86 97 114 152t28 112q0 56 -44 96q-43 40 -116 40q-121 0 -222 -106l-71 49q129 145 297 145q118 0 192 -63t74 -169t-93 -218t-333 -332h440l-12 -86h-557zM537 549h-109v741l-223 -125l-47 72
l295 166h84v-854z" />
    <glyph glyph-name="threequarters" unicode="&#xbe;" horiz-adv-x="1843" 
d="M1638 0h-100v209h-397v72l282 593l99 -32l-260 -545h276l10 238h90v-238h113v-88h-113v-209zM1417 1479l-827 -1639l-90 43l829 1639zM356 1036q74 0 133 41t59 109t-43 106q-43 37 -141 37t-208 -84l-52 62q125 111 283 110q123 0 198 -63q75 -64 75 -142t-46 -131
q-45 -53 -114 -69v-4q78 -18 130 -76t52 -156t-87 -170t-239 -72t-276 119l63 60q94 -95 206 -95t168 46t56 127q0 166 -211 165h-65l16 80h43z" />
    <glyph glyph-name="questiondown" unicode="&#xbf;" horiz-adv-x="1085" 
d="M731 872q0 -40 -28 -68q-27 -28 -71 -28t-71 27t-27 69t27 70q27 27 71 27t72 -28t27 -69zM580 449v98h110v-115q0 -150 -87 -229t-182 -148t-93 -184q0 -84 66 -137t171 -53q174 0 307 151l80 -61q-162 -190 -399 -191q-164 0 -256 83t-92 204q0 88 39 155q39 66 93 108
t109 82q134 97 134 237z" />
    <glyph glyph-name="Agrave" unicode="&#xc0;" horiz-adv-x="1116" 
d="M752 1620l-41 -70l-387 154l65 106zM555 1294l-258 -813h518l-256 813h-4zM969 0l-121 379h-584l-121 -379h-123l461 1403h154l461 -1403h-127z" />
    <glyph glyph-name="Aacute" unicode="&#xc1;" horiz-adv-x="1116" 
d="M406 1571l-41 69l362 191l66 -107zM555 1294l-258 -813h518l-256 813h-4zM969 0l-121 379h-584l-121 -379h-123l461 1403h154l461 -1403h-127z" />
    <glyph glyph-name="Acircumflex" unicode="&#xc2;" horiz-adv-x="1116" 
d="M559 1708l-242 -154l-55 62l266 201h62l264 -201l-53 -62zM555 1294l-258 -813h518l-256 813h-4zM969 0l-121 379h-584l-121 -379h-123l461 1403h154l461 -1403h-127z" />
    <glyph glyph-name="Atilde" unicode="&#xc3;" horiz-adv-x="1116" 
d="M666 1587q-53 0 -126 46t-98 46q-61 0 -112 -90l-72 35q63 150 188 150q64 0 134 -46t92 -47q59 0 110 88l74 -34q-65 -148 -190 -148zM555 1294l-258 -813h518l-256 813h-4zM969 0l-121 379h-584l-121 -379h-123l461 1403h154l461 -1403h-127z" />
    <glyph glyph-name="Adieresis" unicode="&#xc4;" horiz-adv-x="1116" 
d="M668 1634q0 35 22 58q23 22 60 22q38 0 60 -22t22 -58t-24 -58q-22 -22 -58 -22t-60 22q-22 22 -22 58zM283 1634q0 35 22 58q23 22 60 22t59 -22t22 -58t-22 -58t-60 -22q-36 0 -58 22t-23 58zM555 1294l-258 -813h518l-256 813h-4zM969 0l-121 379h-584l-121 -379h-123
l461 1403h154l461 -1403h-127z" />
    <glyph glyph-name="Aring" unicode="&#xc5;" horiz-adv-x="1116" 
d="M557 1589q51 0 81 32t30 86t-29 85t-81 31t-82 -32t-30 -85t30 -85t81 -32zM557 1520q-88 0 -143 52t-56 134q0 82 56 134t143 52q88 0 143 -52q56 -52 56 -134t-56 -134t-143 -52zM555 1294l-258 -813h518l-256 813h-4zM969 0l-121 379h-584l-121 -379h-123l461 1403
h154l461 -1403h-127z" />
    <glyph glyph-name="AE" unicode="&#xc6;" horiz-adv-x="1591" 
d="M616 1296l-311 -815h520l-204 815h-5zM1372 778v-102h-481l149 -574h469v-102h-561l-96 379h-586l-143 -379h-123l547 1403h864l-14 -103h-670l137 -522h508z" />
    <glyph glyph-name="Ccedilla" unicode="&#xc7;" horiz-adv-x="1138" 
d="M780 -291q0 49 -41 69t-121 21l13 183q-219 25 -353 212q-134 188 -134 520t155 522q156 190 380 189q224 0 376 -125l-74 -83q-123 104 -298 104t-294 -152t-119 -463q0 -310 120 -466t304 -156t316 113l67 -84q-141 -127 -352 -136v-114q172 -18 172 -156
q0 -82 -62 -126q-61 -44 -161 -44t-172 39l45 80q53 -29 119 -29q114 0 114 82z" />
    <glyph glyph-name="Egrave" unicode="&#xc8;" horiz-adv-x="1052" 
d="M791 1620l-41 -70l-388 154l66 106zM950 0h-725v1403h709l-14 -103h-574v-522h498v-102h-498v-574h604v-102z" />
    <glyph glyph-name="Eacute" unicode="&#xc9;" horiz-adv-x="1052" 
d="M424 1550l-41 70l362 190l66 -106zM950 0h-725v1403h709l-14 -103h-574v-522h498v-102h-498v-574h604v-102z" />
    <glyph glyph-name="Ecircumflex" unicode="&#xca;" horiz-adv-x="1052" 
d="M578 1708l-242 -154l-55 62l266 201h61l264 -201l-53 -62zM950 0h-725v1403h709l-14 -103h-574v-522h498v-102h-498v-574h604v-102z" />
    <glyph glyph-name="Edieresis" unicode="&#xcb;" horiz-adv-x="1052" 
d="M688 1634q0 35 23 58q23 22 59 22t60 -22q22 -22 22 -58t-23 -58t-59 -22t-60 22q-22 22 -22 58zM303 1634q0 35 23 58q24 22 60 22t58 -22t23 -58q0 -36 -23 -58q-24 -22 -60 -22t-58 22t-23 58zM950 0h-725v1403h709l-14 -103h-574v-522h498v-102h-498v-574h604v-102z
" />
    <glyph glyph-name="Igrave" unicode="&#xcc;" horiz-adv-x="571" 
d="M500 1620l-41 -70l-387 154l65 106zM225 1403h121v-1403h-121v1403z" />
    <glyph glyph-name="Iacute" unicode="&#xcd;" horiz-adv-x="571" 
d="M113 1550l-41 70l362 190l66 -106zM225 1403h121v-1403h-121v1403z" />
    <glyph glyph-name="Icircumflex" unicode="&#xce;" horiz-adv-x="571" 
d="M287 1708l-242 -154l-55 62l266 201h61l265 -201l-54 -62zM225 1403h121v-1403h-121v1403z" />
    <glyph glyph-name="Idieresis" unicode="&#xcf;" horiz-adv-x="571" 
d="M395 1634q0 35 23 58q24 22 60 22t59 -22t23 -58t-24 -58q-22 -22 -59 -22t-59 22t-23 58zM10 1634q0 35 23 58q23 22 59 22t60 -22q22 -22 22 -58t-22 -58t-60 -22t-60 22t-22 58zM225 1403h121v-1403h-121v1403z" />
    <glyph glyph-name="Eth" unicode="&#xd0;" horiz-adv-x="1304" 
d="M719 674h-373v-572h180q207 0 347 114q161 130 161 497q0 151 -30 261t-77 171q-46 61 -119 98q-74 37 -140 47t-152 10h-170v-528h373v-98zM225 0v674h-178v98h178v631h275q112 0 200 -15q88 -14 178 -60t148 -120q59 -74 97 -200t38 -295q0 -170 -39 -299t-101 -206
q-63 -77 -151 -125q-153 -83 -356 -83h-289z" />
    <glyph glyph-name="Ntilde" unicode="&#xd1;" horiz-adv-x="1376" 
d="M807 1587q-53 0 -126 46t-97 46q-61 0 -113 -90l-72 35q63 150 189 150q63 0 133 -46t92 -47q59 0 111 88l73 -34q-65 -148 -190 -148zM1036 573v830h115v-1403h-162l-661 1268h-4q16 -201 16 -441v-827h-115v1403h160l664 -1270h4q-17 241 -17 440z" />
    <glyph glyph-name="Ograve" unicode="&#xd2;" horiz-adv-x="1398" 
d="M893 1620l-41 -70l-387 154l65 106zM700 82q199 0 314 157q114 157 114 463t-114 462q-115 157 -314 157q-198 0 -314 -158t-116 -464q0 -305 116 -461t314 -156zM1255 703q-1 -341 -153 -533t-404 -193q-252 1 -404 189t-151 530q0 342 153 536q152 194 404 194
t404 -191q151 -191 151 -532z" />
    <glyph glyph-name="Oacute" unicode="&#xd3;" horiz-adv-x="1398" 
d="M547 1550l-41 70l362 190l66 -106zM700 82q199 0 314 157q114 157 114 463t-114 462q-115 157 -314 157q-198 0 -314 -158t-116 -464q0 -305 116 -461t314 -156zM1255 703q-1 -341 -153 -533t-404 -193q-252 1 -404 189t-151 530q0 342 153 536q152 194 404 194t404 -191
q151 -191 151 -532z" />
    <glyph glyph-name="Ocircumflex" unicode="&#xd4;" horiz-adv-x="1398" 
d="M700 1708l-241 -154l-56 62l267 201h61l264 -201l-53 -62zM700 82q199 0 314 157q114 157 114 463t-114 462q-115 157 -314 157q-198 0 -314 -158t-116 -464q0 -305 116 -461t314 -156zM1255 703q-1 -341 -153 -533t-404 -193q-252 1 -404 189t-151 530q0 342 153 536
q152 194 404 194t404 -191q151 -191 151 -532z" />
    <glyph glyph-name="Otilde" unicode="&#xd5;" horiz-adv-x="1398" 
d="M807 1587q-53 0 -126 46t-97 46q-61 0 -113 -90l-72 35q63 150 189 150q63 0 133 -46t92 -47q59 0 111 88l73 -34q-65 -148 -190 -148zM700 82q199 0 314 157q114 157 114 463t-114 462q-115 157 -314 157q-198 0 -314 -158t-116 -464q0 -305 116 -461t314 -156z
M1255 703q-1 -341 -153 -533t-404 -193q-252 1 -404 189t-151 530q0 342 153 536q152 194 404 194t404 -191q151 -191 151 -532z" />
    <glyph glyph-name="Odieresis" unicode="&#xd6;" horiz-adv-x="1398" 
d="M809 1634q0 35 22 58q23 22 60 22t59 -22t23 -58q0 -36 -23 -58q-24 -22 -60 -22t-58 22t-23 58zM424 1634q0 35 22 58q23 22 60 22q38 0 60 -22t22 -58t-23 -58t-59 -22t-60 22q-22 22 -22 58zM700 82q199 0 314 157q114 157 114 463t-114 462q-115 157 -314 157
q-198 0 -314 -158t-116 -464q0 -305 116 -461t314 -156zM1255 703q-1 -341 -153 -533t-404 -193q-252 1 -404 189t-151 530q0 342 153 536q152 194 404 194t404 -191q151 -191 151 -532z" />
    <glyph glyph-name="multiply" unicode="&#xd7;" horiz-adv-x="1024" 
d="M850 872l-262 -264l262 -262l-76 -78l-264 264l-262 -264l-76 78l262 262l-262 264l76 78l262 -264l264 264z" />
    <glyph glyph-name="Oslash" unicode="&#xd8;" horiz-adv-x="1398" 
d="M700 82q199 0 314 157t114 461q0 426 -215 564l-335 -1166q48 -16 122 -16zM700 1321q-198 0 -314 -158t-116 -465q0 -426 215 -559l338 1166q-62 16 -123 16zM1255 700q-1 -338 -153 -530t-402 -193q-84 0 -153 21l-72 -246l-108 29l82 256q-145 78 -226 246
q-80 168 -80 415q0 340 153 534t404 193q70 0 148 -20l74 254l108 -29l-84 -264q145 -78 227 -248t82 -418z" />
    <glyph glyph-name="Ugrave" unicode="&#xd9;" horiz-adv-x="1335" 
d="M860 1620l-41 -70l-387 154l66 106zM205 1403h121v-950q0 -371 342 -371t342 371v950h120v-957q0 -221 -120 -345t-343 -124q-222 0 -342 123t-120 346v957z" />
    <glyph glyph-name="Uacute" unicode="&#xda;" horiz-adv-x="1335" 
d="M514 1550l-41 70l363 190l65 -106zM205 1403h121v-950q0 -371 342 -371t342 371v950h120v-957q0 -221 -120 -345t-343 -124q-222 0 -342 123t-120 346v957z" />
    <glyph glyph-name="Ucircumflex" unicode="&#xdb;" horiz-adv-x="1335" 
d="M668 1708l-242 -154l-55 62l266 201h61l265 -201l-54 -62zM205 1403h121v-950q0 -371 342 -371t342 371v950h120v-957q0 -221 -120 -345t-343 -124q-222 0 -342 123t-120 346v957z" />
    <glyph glyph-name="Udieresis" unicode="&#xdc;" horiz-adv-x="1335" 
d="M778 1634q0 35 23 58q23 22 59 22t60 -22q22 -22 22 -58t-22 -58t-60 -22t-60 22t-22 58zM393 1634q0 35 23 58q24 22 60 22t59 -22t23 -58t-24 -58q-22 -22 -59 -22t-59 22t-23 58zM205 1403h121v-950q0 -371 342 -371t342 371v950h120v-957q0 -221 -120 -345t-343 -124
q-222 0 -342 123t-120 346v957z" />
    <glyph glyph-name="Yacute" unicode="&#xdd;" horiz-adv-x="1058" 
d="M377 1550l-41 70l362 190l66 -106zM592 0h-121v565l-461 838h137l383 -725h5l385 725h129l-457 -836v-567z" />
    <glyph glyph-name="Thorn" unicode="&#xde;" horiz-adv-x="1165" 
d="M346 383h213q193 0 295 77t102 267q0 328 -399 328h-211v-672zM346 1403v-246h199q539 0 538 -428q0 -449 -534 -448h-203v-281h-121v1403h121z" />
    <glyph glyph-name="germandbls" unicode="&#xdf;" horiz-adv-x="1208" 
d="M225 0v1112q-1 203 103 306q104 104 267 104t255 -75t92 -185t-84 -189q-35 -33 -70 -63q-146 -123 -40 -231q43 -44 105 -81q63 -37 125 -82q62 -46 105 -118t43 -164q0 -160 -104 -258t-258 -98t-244 59l45 84q80 -45 190 -45q109 0 179 70t70 200q0 131 -147 225
q-59 39 -121 77q-148 91 -148 226q0 58 37 108t82 81t81 81t37 116q0 66 -60 115q-60 50 -165 50q-260 0 -260 -307v-1118h-115z" />
    <glyph glyph-name="agrave" unicode="&#xe0;" horiz-adv-x="1067" 
d="M737 1333l-41 -69l-397 178l66 106zM745 547h-178q-350 0 -350 -242q1 -111 61 -169t173 -58q196 -1 294 194v275zM92 310q0 156 125 242q125 87 344 87h184v106q0 127 -60 187q-59 60 -195 61q-136 0 -289 -59l-33 92q172 68 338 68q356 0 356 -342v-519q0 -85 25 -121
t78 -53l-27 -82q-78 11 -121 53t-57 128v2q-109 -182 -338 -183q-154 1 -242 89t-88 244z" />
    <glyph glyph-name="aacute" unicode="&#xe1;" horiz-adv-x="1067" 
d="M340 1264l-41 69l373 215l65 -106zM745 547h-178q-350 0 -350 -242q1 -111 61 -169t173 -58q196 -1 294 194v275zM92 310q0 156 125 242q125 87 344 87h184v106q0 127 -60 187q-59 60 -195 61q-136 0 -289 -59l-33 92q172 68 338 68q356 0 356 -342v-519q0 -85 25 -121
t78 -53l-27 -82q-78 11 -121 53t-57 128v2q-109 -182 -338 -183q-154 1 -242 89t-88 244z" />
    <glyph glyph-name="acircumflex" unicode="&#xe2;" horiz-adv-x="1067" 
d="M518 1442l-242 -174l-55 61l266 221h62l264 -221l-53 -61zM745 547h-178q-350 0 -350 -242q1 -111 61 -169t173 -58q196 -1 294 194v275zM92 310q0 156 125 242q125 87 344 87h184v106q0 127 -60 187q-59 60 -195 61q-136 0 -289 -59l-33 92q172 68 338 68
q356 0 356 -342v-519q0 -85 25 -121t78 -53l-27 -82q-78 11 -121 53t-57 128v2q-109 -182 -338 -183q-154 1 -242 89t-88 244z" />
    <glyph glyph-name="atilde" unicode="&#xe3;" horiz-adv-x="1067" 
d="M627 1321q-53 0 -126 46t-98 46q-61 0 -112 -90l-72 35q63 150 189 149q63 0 133 -46t92 -46q59 0 110 88l74 -35q-65 -147 -190 -147zM745 547h-178q-350 0 -350 -242q1 -111 61 -169t173 -58q196 -1 294 194v275zM92 310q0 156 125 242q125 87 344 87h184v106
q0 127 -60 187q-59 60 -195 61q-136 0 -289 -59l-33 92q172 68 338 68q356 0 356 -342v-519q0 -85 25 -121t78 -53l-27 -82q-78 11 -121 53t-57 128v2q-109 -182 -338 -183q-154 1 -242 89t-88 244z" />
    <glyph glyph-name="adieresis" unicode="&#xe4;" horiz-adv-x="1067" 
d="M629 1368q1 36 23 58t59 22t59 -23t23 -57q0 -34 -23 -58q-24 -22 -60 -22t-58 22t-23 58zM244 1368q0 36 22 58t60 22t60 -23t22 -57t-23 -58q-23 -22 -59 -22t-60 22q-22 22 -22 58zM745 547h-178q-350 0 -350 -242q1 -111 61 -169t173 -58q196 -1 294 194v275zM92 310
q0 156 125 242q125 87 344 87h184v106q0 127 -60 187q-59 60 -195 61q-136 0 -289 -59l-33 92q172 68 338 68q356 0 356 -342v-519q0 -85 25 -121t78 -53l-27 -82q-78 11 -121 53t-57 128v2q-109 -182 -338 -183q-154 1 -242 89t-88 244z" />
    <glyph glyph-name="aring" unicode="&#xe5;" horiz-adv-x="1067" 
d="M518 1323q51 0 81 32t30 86t-29 85q-29 30 -81 30t-82 -32q-29 -32 -29 -84q0 -53 30 -85t80 -32zM518 1253q-88 1 -143 53t-56 134t55 134t144 52t144 -52t55 -134q1 -82 -55 -134t-144 -53zM745 547h-178q-350 0 -350 -242q1 -111 61 -169t173 -58q196 -1 294 194v275z
M92 310q0 156 125 242q125 87 344 87h184v106q0 127 -60 187q-59 60 -195 61q-136 0 -289 -59l-33 92q172 68 338 68q356 0 356 -342v-519q0 -85 25 -121t78 -53l-27 -82q-78 11 -121 53t-57 128v2q-109 -182 -338 -183q-154 1 -242 89t-88 244z" />
    <glyph glyph-name="ae" unicode="&#xe6;" horiz-adv-x="1703" 
d="M1178 993q-134 0 -218 -102t-92 -309h596q-5 411 -286 411zM745 530v17h-178q-350 0 -350 -236q1 -111 63 -172t171 -61q206 0 325 219q-31 100 -31 233zM1216 78q154 0 279 108l55 -80q-141 -129 -346 -129q-129 -1 -228 59t-159 163q-80 -121 -175 -171
q-94 -50 -234 -50t-228 88q-88 90 -88 244t124 242q124 87 345 87h184v106q0 248 -256 248q-135 0 -288 -59l-33 92q172 68 338 68q279 0 325 -217q43 100 139 158t208 59q199 0 301 -138t102 -389q0 -37 -4 -78h-709q10 -207 102 -309t246 -102z" />
    <glyph glyph-name="ccedilla" unicode="&#xe7;" horiz-adv-x="980" 
d="M653 -291q0 49 -41 69t-120 21l12 185q-174 27 -273 171q-98 145 -98 387t124 397q123 155 321 155t331 -111l-61 -80q-114 90 -262 90t-238 -119t-90 -343q0 -225 89 -339t239 -114t266 94l57 -82q-127 -106 -311 -113v-114q172 -18 172 -156q0 -82 -62 -126t-162 -44
t-171 39l45 80q53 -29 119 -29q114 0 114 82z" />
    <glyph glyph-name="egrave" unicode="&#xe8;" horiz-adv-x="1101" 
d="M791 1333l-41 -69l-398 178l66 106zM569 993q-139 0 -223 -102t-92 -309h608q-4 199 -79 305t-214 106zM605 78q155 0 280 108l55 -80q-141 -129 -353 -129q-212 1 -333 149t-121 404t117 410q118 154 316 154t306 -140t107 -387q0 -37 -4 -78h-721q10 -205 103 -308
t248 -103z" />
    <glyph glyph-name="eacute" unicode="&#xe9;" horiz-adv-x="1101" 
d="M393 1264l-41 69l373 215l66 -106zM569 993q-139 0 -223 -102t-92 -309h608q-4 199 -79 305t-214 106zM605 78q155 0 280 108l55 -80q-141 -129 -353 -129q-212 1 -333 149t-121 404t117 410q118 154 316 154t306 -140t107 -387q0 -37 -4 -78h-721q10 -205 103 -308
t248 -103z" />
    <glyph glyph-name="ecircumflex" unicode="&#xea;" horiz-adv-x="1101" 
d="M571 1442l-241 -174l-56 61l267 221h61l264 -221l-53 -61zM569 993q-139 0 -223 -102t-92 -309h608q-4 199 -79 305t-214 106zM605 78q155 0 280 108l55 -80q-141 -129 -353 -129q-212 1 -333 149t-121 404t117 410q118 154 316 154t306 -140t107 -387q0 -37 -4 -78h-721
q10 -205 103 -308t248 -103z" />
    <glyph glyph-name="edieresis" unicode="&#xeb;" horiz-adv-x="1101" 
d="M682 1368q0 36 23 58t59 22t60 -23q22 -23 22 -57t-23 -58q-23 -22 -59 -22t-60 22q-22 22 -22 58zM297 1368q1 36 23 58t59 22t59 -23t23 -57q0 -34 -23 -58q-24 -22 -60 -22t-58 22t-23 58zM569 993q-139 0 -223 -102t-92 -309h608q-4 199 -79 305t-214 106zM605 78
q155 0 280 108l55 -80q-141 -129 -353 -129q-212 1 -333 149t-121 404t117 410q118 154 316 154t306 -140t107 -387q0 -37 -4 -78h-721q10 -205 103 -308t248 -103z" />
    <glyph glyph-name="igrave" unicode="&#xec;" horiz-adv-x="546" 
d="M471 1333l-41 -69l-397 178l65 106zM215 1071h117v-1071h-117v1071z" />
    <glyph glyph-name="iacute" unicode="&#xed;" horiz-adv-x="546" 
d="M115 1264l-41 69l372 215l66 -106zM215 1071h117v-1071h-117v1071z" />
    <glyph glyph-name="icircumflex" unicode="&#xee;" horiz-adv-x="546" 
d="M274 1442l-241 -174l-56 61l267 221h61l264 -221l-53 -61zM215 1071h117v-1071h-117v1071z" />
    <glyph glyph-name="idieresis" unicode="&#xef;" horiz-adv-x="546" 
d="M383 1368q0 36 23 58q24 22 60 22t58 -23t23 -57q0 -34 -23 -58q-24 -22 -60 -22t-58 22t-23 58zM-2 1368q0 36 22 58t60 22t60 -23t22 -57t-23 -58q-23 -22 -59 -22t-60 22q-22 22 -22 58zM215 1071h117v-1071h-117v1071z" />
    <glyph glyph-name="eth" unicode="&#xf0;" horiz-adv-x="1142" 
d="M551 838q-131 0 -212 -106t-81 -273t83 -273t229 -106t229 136q82 136 82 384l-2 29q-133 209 -328 209zM999 563q1 -270 -115 -428t-316 -158q-200 1 -317 133q-118 132 -118 343t117 348t282 137q205 0 336 -162q-37 326 -262 498l-151 -156l-86 39l161 170
q-117 66 -260 96l15 99q197 -43 321 -117l142 149l73 -61l-137 -139q315 -238 315 -791z" />
    <glyph glyph-name="ntilde" unicode="&#xf1;" horiz-adv-x="1189" 
d="M702 1321q-54 0 -126 46t-97 46q-61 0 -112 -90l-72 35q63 150 188 149q63 0 133 -46t93 -46q59 0 110 88l74 -35q-66 -147 -191 -147zM690 1094q150 0 218 -82t67 -244v-768h-117v748q0 131 -47 189t-152 58q-174 0 -317 -229v-766h-117v1071h101l8 -182
q135 205 356 205z" />
    <glyph glyph-name="ograve" unicode="&#xf2;" horiz-adv-x="1171" 
d="M784 1333l-41 -69l-397 178l66 106zM585 76q157 0 243 118t85 343t-85 341t-240 117q-156 -1 -243 -117t-87 -341t85 -343t242 -118zM133 535q0 259 123 409t334 150t330 -148q118 -148 118 -407q0 -258 -122 -410t-332 -152t-331 150q-120 150 -120 408z" />
    <glyph glyph-name="oacute" unicode="&#xf3;" horiz-adv-x="1171" 
d="M428 1264l-41 69l373 215l65 -106zM585 76q157 0 243 118t85 343t-85 341t-240 117q-156 -1 -243 -117t-87 -341t85 -343t242 -118zM133 535q0 259 123 409t334 150t330 -148q118 -148 118 -407q0 -258 -122 -410t-332 -152t-331 150q-120 150 -120 408z" />
    <glyph glyph-name="ocircumflex" unicode="&#xf4;" horiz-adv-x="1171" 
d="M586 1442l-242 -174l-55 61l266 221h61l265 -221l-54 -61zM585 76q157 0 243 118t85 343t-85 341t-240 117q-156 -1 -243 -117t-87 -341t85 -343t242 -118zM133 535q0 259 123 409t334 150t330 -148q118 -148 118 -407q0 -258 -122 -410t-332 -152t-331 150
q-120 150 -120 408z" />
    <glyph glyph-name="otilde" unicode="&#xf5;" horiz-adv-x="1171" 
d="M694 1321q-53 0 -126 46t-97 46q-61 0 -113 -90l-71 35q63 150 188 149q63 0 133 -46t92 -46q59 0 111 88l74 -35q-66 -147 -191 -147zM585 76q157 0 243 118t85 343t-85 341t-240 117q-156 -1 -243 -117t-87 -341t85 -343t242 -118zM133 535q0 259 123 409t334 150
t330 -148q118 -148 118 -407q0 -258 -122 -410t-332 -152t-331 150q-120 150 -120 408z" />
    <glyph glyph-name="odieresis" unicode="&#xf6;" horiz-adv-x="1171" 
d="M696 1368q0 36 23 58t59 22t60 -23q22 -23 22 -57t-22 -58q-22 -22 -60 -22t-60 22t-22 58zM311 1368q0 36 23 58q24 22 60 22t59 -23t23 -57t-24 -58q-22 -22 -59 -22t-59 22t-23 58zM585 76q157 0 243 118t85 343t-85 341t-240 117q-156 -1 -243 -117t-87 -341t85 -343
t242 -118zM133 535q0 259 123 409t334 150t330 -148q118 -148 118 -407q0 -258 -122 -410t-332 -152t-331 150q-120 150 -120 408z" />
    <glyph glyph-name="divide" unicode="&#xf7;" horiz-adv-x="1024" 
d="M414 240q0 44 26 70t72 26q45 0 72 -27q26 -27 26 -69t-26 -70q-26 -27 -72 -27q-45 0 -72 27q-26 27 -26 70zM414 1038q0 43 26 70q27 27 72 27t72 -27q26 -27 26 -70q0 -44 -26 -70t-72 -26t-72 26t-26 70zM881 586h-738v106h738v-106z" />
    <glyph glyph-name="oslash" unicode="&#xf8;" horiz-adv-x="1171" 
d="M913 539q0 301 -147 405l-266 -860q35 -8 84 -8q158 0 244 118t85 345zM590 995q-158 -1 -245 -117t-87 -343q0 -313 156 -414l268 862q-43 12 -92 12zM133 535q0 259 123 409t334 150q53 0 117 -15l71 230l101 -31l-78 -236q238 -129 237 -503q0 -258 -122 -410
t-332 -152q-59 0 -111 13l-74 -238l-100 31l78 242q-117 59 -181 191t-63 319z" />
    <glyph glyph-name="ugrave" unicode="&#xf9;" horiz-adv-x="1177" 
d="M807 1333l-41 -69l-397 178l65 106zM500 -23q-285 0 -285 324v770h117v-756q0 -127 46 -183t142 -56q172 0 316 229v766h116v-1071h-100l-8 182q-135 -205 -344 -205z" />
    <glyph glyph-name="uacute" unicode="&#xfa;" horiz-adv-x="1177" 
d="M430 1264l-41 69l373 215l65 -106zM500 -23q-285 0 -285 324v770h117v-756q0 -127 46 -183t142 -56q172 0 316 229v766h116v-1071h-100l-8 182q-135 -205 -344 -205z" />
    <glyph glyph-name="ucircumflex" unicode="&#xfb;" horiz-adv-x="1177" 
d="M590 1442l-242 -174l-55 61l266 221h62l264 -221l-54 -61zM500 -23q-285 0 -285 324v770h117v-756q0 -127 46 -183t142 -56q172 0 316 229v766h116v-1071h-100l-8 182q-135 -205 -344 -205z" />
    <glyph glyph-name="udieresis" unicode="&#xfc;" horiz-adv-x="1177" 
d="M698 1368q0 36 23 58t59 22t60 -23q22 -23 22 -57t-22 -58q-22 -22 -60 -22t-60 22t-22 58zM313 1368q0 36 23 58q24 22 60 22t59 -23t23 -57t-24 -58q-22 -22 -59 -22t-59 22t-23 58zM500 -23q-285 0 -285 324v770h117v-756q0 -127 46 -183t142 -56q172 0 316 229v766
h116v-1071h-100l-8 182q-135 -205 -344 -205z" />
    <glyph glyph-name="yacute" unicode="&#xfd;" horiz-adv-x="954" 
d="M319 1264l-40 69l372 215l66 -106zM31 1071h129l329 -977h5l305 977h125l-361 -1075q-61 -188 -159 -288t-285 -128l-17 96q154 29 229 104t122 220h-41z" />
    <glyph glyph-name="thorn" unicode="&#xfe;" horiz-adv-x="1187" 
d="M647 993q-178 0 -305 -217v-512q113 -184 281 -184q307 0 307 456t-283 457zM643 -23q-190 0 -301 158v-538l-117 -17v1927l117 15v-617q127 189 324 189q196 0 292 -144t96 -405q0 -260 -110 -414q-111 -154 -301 -154z" />
    <glyph glyph-name="ydieresis" unicode="&#xff;" horiz-adv-x="954" 
d="M604 1368q0 36 23 58t59 22t60 -23q22 -23 22 -57t-23 -58q-23 -22 -59 -22t-60 22q-22 22 -22 58zM219 1368q0 36 23 58q24 22 60 22t58 -23t23 -57q0 -34 -23 -58q-24 -22 -60 -22t-58 22t-23 58zM31 1071h129l329 -977h5l305 977h125l-361 -1075q-61 -188 -159 -288
t-285 -128l-17 96q154 29 229 104t122 220h-41z" />
    <glyph glyph-name="Amacron" unicode="&#x100;" horiz-adv-x="1116" 
d="M797 1729v-97h-480v97h480zM555 1294l-258 -813h518l-256 813h-4zM969 0l-121 379h-584l-121 -379h-123l461 1403h154l461 -1403h-127z" />
    <glyph glyph-name="amacron" unicode="&#x101;" horiz-adv-x="1067" 
d="M758 1462v-96h-479v96h479zM745 547h-178q-350 0 -350 -242q1 -111 61 -169t173 -58q196 -1 294 194v275zM92 310q0 156 125 242q125 87 344 87h184v106q0 127 -60 187q-59 60 -195 61q-136 0 -289 -59l-33 92q172 68 338 68q356 0 356 -342v-519q0 -85 25 -121t78 -53
l-27 -82q-78 11 -121 53t-57 128v2q-109 -182 -338 -183q-154 1 -242 89t-88 244z" />
    <glyph glyph-name="Abreve" unicode="&#x102;" horiz-adv-x="1116" 
d="M560 1567q-108 0 -176 60q-67 60 -81 140l78 21q51 -125 176 -125t176 125l78 -21q-15 -82 -79 -141t-172 -59zM555 1294l-258 -813h518l-256 813h-4zM969 0l-121 379h-584l-121 -379h-123l461 1403h154l461 -1403h-127z" />
    <glyph glyph-name="abreve" unicode="&#x103;" horiz-adv-x="1067" 
d="M520 1280q-108 0 -176 65t-80 156l78 21q47 -146 176 -146t176 146l78 -21q-12 -93 -78 -157t-174 -64zM745 547h-178q-350 0 -350 -242q1 -111 61 -169t173 -58q196 -1 294 194v275zM92 310q0 156 125 242q125 87 344 87h184v106q0 127 -60 187q-59 60 -195 61
q-136 0 -289 -59l-33 92q172 68 338 68q356 0 356 -342v-519q0 -85 25 -121t78 -53l-27 -82q-78 11 -121 53t-57 128v2q-109 -182 -338 -183q-154 1 -242 89t-88 244z" />
    <glyph glyph-name="Aogonek" unicode="&#x104;" horiz-adv-x="1116" 
d="M555 1294l-258 -813h518l-256 813h-4zM924 -252q0 -53 32 -87t95 -34q64 0 108 25l35 -78q-74 -37 -172 -37t-157 54q-58 54 -58 143q0 160 162 266l-121 379h-584l-121 -379h-123l461 1403h154l461 -1403q-172 -92 -172 -252z" />
    <glyph glyph-name="aogonek" unicode="&#x105;" horiz-adv-x="1067" 
d="M745 547h-178q-350 0 -350 -242q1 -111 61 -169t173 -58q196 -1 294 194v275zM92 310q0 156 125 242q125 87 344 87h184v106q0 127 -60 187q-59 60 -195 61q-136 0 -289 -59l-33 92q172 68 338 68q356 0 356 -342v-519q0 -85 25 -121t78 -53l-27 -82q-172 -92 -172 -229
q0 -53 32 -87t96 -34t107 25l35 -78q-74 -37 -172 -37t-156 54t-59 143q0 180 201 272q-74 41 -90 154q-109 -182 -338 -183q-154 1 -242 89t-88 244z" />
    <glyph glyph-name="Cacute" unicode="&#x106;" horiz-adv-x="1138" 
d="M508 1550l-41 70l362 190l66 -106zM683 1321q-175 0 -294 -152t-119 -463q0 -310 120 -466t304 -156t316 113l67 -84q-149 -135 -389 -135t-392 188q-152 190 -153 535q0 345 156 535t380 189q224 0 376 -125l-74 -83q-123 104 -298 104z" />
    <glyph glyph-name="cacute" unicode="&#x107;" horiz-adv-x="980" 
d="M393 1264l-41 69l373 215l66 -106zM586 993q-148 0 -238 -119t-90 -343q0 -225 89 -339t239 -114t266 94l57 -82q-137 -113 -337 -113q-200 1 -319 149q-120 148 -120 403t124 410q123 155 321 155t331 -111l-61 -80q-114 90 -262 90z" />
    <glyph glyph-name="Ccircumflex" unicode="&#x108;" horiz-adv-x="1138" 
d="M662 1708l-242 -154l-55 62l266 201h61l264 -201l-53 -62zM683 1321q-175 0 -294 -152t-119 -463q0 -310 120 -466t304 -156t316 113l67 -84q-149 -135 -389 -135t-392 188q-152 190 -153 535q0 345 156 535t380 189q224 0 376 -125l-74 -83q-123 104 -298 104z" />
    <glyph glyph-name="ccircumflex" unicode="&#x109;" horiz-adv-x="980" 
d="M573 1442l-241 -174l-56 61l267 221h61l264 -221l-53 -61zM586 993q-148 0 -238 -119t-90 -343q0 -225 89 -339t239 -114t266 94l57 -82q-137 -113 -337 -113q-200 1 -319 149q-120 148 -120 403t124 410q123 155 321 155t331 -111l-61 -80q-114 90 -262 90z" />
    <glyph glyph-name="Cdotaccent" unicode="&#x10a;" horiz-adv-x="1138" 
d="M575 1665q0 37 24 61t63 23q38 0 62 -24q24 -25 24 -61t-24 -60t-62 -23q-38 -1 -63 23q-24 24 -24 61zM683 1321q-175 0 -294 -152t-119 -463q0 -310 120 -466t304 -156t316 113l67 -84q-149 -135 -389 -135t-392 188q-152 190 -153 535q0 345 156 535t380 189
q224 0 376 -125l-74 -83q-123 104 -298 104z" />
    <glyph glyph-name="cdotaccent" unicode="&#x10b;" horiz-adv-x="980" 
d="M571 1313q-39 1 -63 25t-25 61q0 37 25 61q26 24 64 25q38 0 63 -25q25 -26 25 -62t-25 -61q-25 -24 -64 -24zM586 993q-148 0 -238 -119t-90 -343q0 -225 89 -339t239 -114t266 94l57 -82q-137 -113 -337 -113q-200 1 -319 149q-120 148 -120 403t124 410
q123 155 321 155t331 -111l-61 -80q-114 90 -262 90z" />
    <glyph glyph-name="Ccaron" unicode="&#x10c;" horiz-adv-x="1138" 
d="M420 1817l242 -154l241 154l53 -62l-264 -201h-61l-266 201zM683 1321q-175 0 -294 -152t-119 -463q0 -310 120 -466t304 -156t316 113l67 -84q-149 -135 -389 -135t-392 188q-152 190 -153 535q0 345 156 535t380 189q224 0 376 -125l-74 -83q-123 104 -298 104z" />
    <glyph glyph-name="ccaron" unicode="&#x10d;" horiz-adv-x="980" 
d="M332 1550l241 -174l242 174l53 -61l-264 -221h-61l-267 221zM586 993q-148 0 -238 -119t-90 -343q0 -225 89 -339t239 -114t266 94l57 -82q-137 -113 -337 -113q-200 1 -319 149q-120 148 -120 403t124 410q123 155 321 155t331 -111l-61 -80q-114 90 -262 90z" />
    <glyph glyph-name="Dcaron" unicode="&#x10e;" horiz-adv-x="1304" 
d="M401 1817l242 -154l242 154l53 -62l-264 -201h-62l-266 201zM346 1300v-1198h180q207 0 347 114q161 130 161 497q0 151 -30 261t-77 171q-46 61 -119 98q-74 37 -140 47t-152 10h-170zM225 0v1403h275q112 0 200 -15q88 -14 178 -60t148 -120q59 -74 97 -200t38 -295
q0 -170 -39 -299t-101 -206q-63 -77 -151 -125q-153 -83 -356 -83h-289z" />
    <glyph glyph-name="dcaron" unicode="&#x10f;" horiz-adv-x="1255" 
d="M1118 1560q0 44 26 68t66 25q40 0 63 -24q50 -50 -13 -179l-82 -166h-72l57 207q-45 25 -45 69zM569 993q-147 0 -229 -119t-82 -341q0 -221 76 -337t215 -116q182 0 303 207v524q-106 182 -283 182zM969 0h-103l-14 162q-125 -184 -321 -184t-297 146t-101 403t113 412
t302 155t304 -152v580l117 -15v-1507z" />
    <glyph glyph-name="Dcroat" unicode="&#x110;" horiz-adv-x="1304" 
d="M719 674h-373v-572h180q207 0 347 114q161 130 161 497q0 151 -30 261t-77 171q-46 61 -119 98q-74 37 -140 47t-152 10h-170v-528h373v-98zM225 0v674h-178v98h178v631h275q112 0 200 -15q88 -14 178 -60t148 -120q59 -74 97 -200t38 -295q0 -170 -39 -299t-101 -206
q-63 -77 -151 -125q-153 -83 -356 -83h-289z" />
    <glyph glyph-name="dcroat" unicode="&#x111;" horiz-adv-x="1214" 
d="M569 993q-147 0 -229 -119t-82 -341q0 -221 76 -337t215 -116q182 0 303 207v524q-106 182 -283 182zM852 1346v176l117 -15v-161h157v-99h-157v-1247h-103l-14 162q-125 -184 -321 -184t-297 146t-101 403t113 412t302 155t304 -152v305h-377v99h377z" />
    <glyph glyph-name="Emacron" unicode="&#x112;" horiz-adv-x="1052" 
d="M817 1729v-97h-479v97h479zM950 0h-725v1403h709l-14 -103h-574v-522h498v-102h-498v-574h604v-102z" />
    <glyph glyph-name="emacron" unicode="&#x113;" horiz-adv-x="1101" 
d="M811 1462v-96h-479v96h479zM569 993q-139 0 -223 -102t-92 -309h608q-4 199 -79 305t-214 106zM605 78q155 0 280 108l55 -80q-141 -129 -353 -129q-212 1 -333 149t-121 404t117 410q118 154 316 154t306 -140t107 -387q0 -37 -4 -78h-721q10 -205 103 -308t248 -103z
" />
    <glyph glyph-name="Ebreve" unicode="&#x114;" horiz-adv-x="1052" 
d="M580 1567q-108 0 -176 60q-67 60 -80 140l77 21q51 -125 177 -125t176 125l77 -21q-14 -82 -78 -141q-65 -59 -173 -59zM950 0h-725v1403h709l-14 -103h-574v-522h498v-102h-498v-574h604v-102z" />
    <glyph glyph-name="ebreve" unicode="&#x115;" horiz-adv-x="1101" 
d="M572 1280q-108 0 -175 65q-68 65 -80 156l78 21q47 -146 176 -146t177 146l77 -21q-13 -93 -79 -157t-174 -64zM569 993q-139 0 -223 -102t-92 -309h608q-4 199 -79 305t-214 106zM605 78q155 0 280 108l55 -80q-141 -129 -353 -129q-212 1 -333 149t-121 404t117 410
q118 154 316 154t306 -140t107 -387q0 -37 -4 -78h-721q10 -205 103 -308t248 -103z" />
    <glyph glyph-name="Edotaccent" unicode="&#x116;" horiz-adv-x="1052" 
d="M492 1665q0 37 24 61t62 23q38 0 62 -24q24 -25 24 -61t-24 -60t-62 -23q-38 -1 -62 23t-24 61zM950 0h-725v1403h709l-14 -103h-574v-522h498v-102h-498v-574h604v-102z" />
    <glyph glyph-name="edotaccent" unicode="&#x117;" horiz-adv-x="1101" 
d="M571 1313q-39 1 -63 25t-25 61q0 37 25 61q26 24 64 25q38 0 63 -25q25 -26 25 -62t-25 -61q-25 -24 -64 -24zM569 993q-139 0 -223 -102t-92 -309h608q-4 199 -79 305t-214 106zM605 78q155 0 280 108l55 -80q-141 -129 -353 -129q-212 1 -333 149t-121 404t117 410
q118 154 316 154t306 -140t107 -387q0 -37 -4 -78h-721q10 -205 103 -308t248 -103z" />
    <glyph glyph-name="Eogonek" unicode="&#x118;" horiz-adv-x="1052" 
d="M780 -252q0 -53 32 -87t96 -34t108 25l35 -78q-75 -37 -173 -37t-156 54t-58 143q0 156 167 266h-606v1403h709l-14 -103h-574v-522h498v-102h-498v-574h604v-102q-170 -106 -170 -252z" />
    <glyph glyph-name="eogonek" unicode="&#x119;" horiz-adv-x="1101" 
d="M569 993q-139 0 -223 -102t-92 -309h608q-4 199 -79 305t-214 106zM676 -252q0 -53 32 -87t96 -34t107 25l35 -78q-74 -37 -172 -37t-157 54q-58 54 -58 130q0 75 29 131t58 86q30 30 83 74q-82 -35 -158 -35q-199 0 -319 151q-120 150 -119 404q0 254 117 408
q118 154 316 154t306 -140t107 -387q0 -37 -4 -78h-721q10 -205 103 -308t248 -103t280 108l53 -75q-262 -201 -262 -363z" />
    <glyph glyph-name="Ecaron" unicode="&#x11a;" horiz-adv-x="1052" 
d="M336 1817l242 -154l241 154l53 -62l-264 -201h-61l-266 201zM950 0h-725v1403h709l-14 -103h-574v-522h498v-102h-498v-574h604v-102z" />
    <glyph glyph-name="ecaron" unicode="&#x11b;" horiz-adv-x="1101" 
d="M330 1550l241 -174l242 174l53 -61l-264 -221h-61l-267 221zM569 993q-139 0 -223 -102t-92 -309h608q-4 199 -79 305t-214 106zM605 78q155 0 280 108l55 -80q-141 -129 -353 -129q-212 1 -333 149t-121 404t117 410q118 154 316 154t306 -140t107 -387q0 -37 -4 -78
h-721q10 -205 103 -308t248 -103z" />
    <glyph glyph-name="Gcircumflex" unicode="&#x11c;" horiz-adv-x="1280" 
d="M702 1708l-241 -154l-55 62l266 201h61l264 -201l-53 -62zM722 1321q-190 0 -321 -154t-131 -465q0 -312 117 -466t307 -154t324 74v501h-287l-14 103h420v-668q-203 -115 -447 -115q-244 1 -396 187t-151 533q0 347 170 537q171 190 407 191q236 0 392 -139l-74 -76
q-126 111 -316 111z" />
    <glyph glyph-name="gcircumflex" unicode="&#x11d;" horiz-adv-x="1040" 
d="M522 1442l-241 -174l-56 61l267 221h61l264 -221l-53 -61zM509 467q129 1 199 69t70 196t-67 199q-68 71 -200 71t-204 -74q-71 -74 -71 -197t72 -193t201 -71zM508 -326q336 0 336 209q0 84 -60 130t-166 46h-163q-139 1 -211 59t-72 153t109 165q-164 96 -164 295
q0 158 105 260t284 103q305 0 469 71l35 -110q-96 -33 -283 -33q170 -84 170 -289q0 -162 -105 -260t-282 -98q-76 0 -150 26q-32 -23 -54 -57t-21 -63q0 -115 176 -115h168q162 0 250 -80t88 -195q0 -155 -122 -233t-333 -78q-212 0 -326 64t-114 229l106 2q0 -105 77 -153
t253 -48z" />
    <glyph glyph-name="Gbreve" unicode="&#x11e;" horiz-adv-x="1280" 
d="M702 1567q-108 0 -175 60t-81 140l78 21q51 -125 176 -125t177 125l77 -21q-14 -82 -78 -141q-66 -59 -174 -59zM722 1321q-190 0 -321 -154t-131 -465q0 -312 117 -466t307 -154t324 74v501h-287l-14 103h420v-668q-203 -115 -447 -115q-244 1 -396 187t-151 533
q0 347 170 537q171 190 407 191q236 0 392 -139l-74 -76q-126 111 -316 111z" />
    <glyph glyph-name="gbreve" unicode="&#x11f;" horiz-adv-x="1040" 
d="M526 1280q-108 0 -176 65t-80 156l78 21q47 -146 176 -146t176 146l78 -21q-12 -93 -78 -157t-174 -64zM509 467q129 1 199 69t70 196t-67 199q-68 71 -200 71t-204 -74q-71 -74 -71 -197t72 -193t201 -71zM508 -326q336 0 336 209q0 84 -60 130t-166 46h-163
q-139 1 -211 59t-72 153t109 165q-164 96 -164 295q0 158 105 260t284 103q305 0 469 71l35 -110q-96 -33 -283 -33q170 -84 170 -289q0 -162 -105 -260t-282 -98q-76 0 -150 26q-32 -23 -54 -57t-21 -63q0 -115 176 -115h168q162 0 250 -80t88 -195q0 -155 -122 -233
t-333 -78q-212 0 -326 64t-114 229l106 2q0 -105 77 -153t253 -48z" />
    <glyph glyph-name="Gdotaccent" unicode="&#x120;" horiz-adv-x="1280" 
d="M614 1665q0 37 24 61t62 23q38 0 63 -24q23 -25 23 -61t-24 -60t-62 -23q-38 -1 -62 23t-24 61zM722 1321q-190 0 -321 -154t-131 -465q0 -312 117 -466t307 -154t324 74v501h-287l-14 103h420v-668q-203 -115 -447 -115q-244 1 -396 187t-151 533q0 347 170 537
q171 190 407 191q236 0 392 -139l-74 -76q-126 111 -316 111z" />
    <glyph glyph-name="gdotaccent" unicode="&#x121;" horiz-adv-x="1040" 
d="M522 1313q-40 1 -64 25t-24 61t25 61t63 25q38 0 64 -25q24 -26 24 -62t-24 -61q-25 -24 -64 -24zM509 467q129 1 199 69t70 196t-67 199q-68 71 -200 71t-204 -74q-71 -74 -71 -197t72 -193t201 -71zM508 -326q336 0 336 209q0 84 -60 130t-166 46h-163q-139 1 -211 59
t-72 153t109 165q-164 96 -164 295q0 158 105 260t284 103q305 0 469 71l35 -110q-96 -33 -283 -33q170 -84 170 -289q0 -162 -105 -260t-282 -98q-76 0 -150 26q-32 -23 -54 -57t-21 -63q0 -115 176 -115h168q162 0 250 -80t88 -195q0 -155 -122 -233t-333 -78
q-212 0 -326 64t-114 229l106 2q0 -105 77 -153t253 -48z" />
    <glyph glyph-name="uni0122" unicode="&#x122;" horiz-adv-x="1280" 
d="M618 -273q0 45 26 69t66 24t64 -24t23 -64q0 -40 -37 -115l-82 -166h-72l58 207q-46 25 -46 69zM722 1321q-190 0 -321 -154t-131 -465q0 -312 117 -466t307 -154t324 74v501h-287l-14 103h420v-668q-203 -115 -447 -115q-244 1 -396 187t-151 533q0 347 170 537
q171 190 407 191q236 0 392 -139l-74 -76q-126 111 -316 111z" />
    <glyph glyph-name="uni0123" unicode="&#x123;" horiz-adv-x="1040" 
d="M604 1398q0 -44 -26 -69t-65 -25t-63 24t-24 65t37 114l82 166h71l-57 -207q45 -24 45 -68zM509 467q129 1 199 69t70 196t-67 199q-68 71 -200 71t-204 -74q-71 -74 -71 -197t72 -193t201 -71zM508 -326q336 0 336 209q0 84 -60 130t-166 46h-163q-139 1 -211 59
t-72 153t109 165q-164 96 -164 295q0 158 105 260t284 103q305 0 469 71l35 -110q-96 -33 -283 -33q170 -84 170 -289q0 -162 -105 -260t-282 -98q-76 0 -150 26q-32 -23 -54 -57t-21 -63q0 -115 176 -115h168q162 0 250 -80t88 -195q0 -155 -122 -233t-333 -78
q-212 0 -326 64t-114 229l106 2q0 -105 77 -153t253 -48z" />
    <glyph glyph-name="Hcircumflex" unicode="&#x124;" horiz-adv-x="1351" 
d="M676 1708l-242 -154l-55 62l266 201h62l264 -201l-53 -62zM1126 0h-120v688h-660v-688h-121v1403h121v-612h660v612h120v-1403z" />
    <glyph glyph-name="hcircumflex" unicode="&#x125;" horiz-adv-x="1189" 
d="M606 1749l-241 -154l-56 62l266 201h62l264 -201l-53 -62zM342 0h-117v1507l117 15v-621q131 193 348 193q150 0 218 -82t67 -244v-768h-117v735q0 139 -46 199t-153 61q-176 0 -317 -233v-762z" />
    <glyph glyph-name="Hbar" unicode="&#x126;" horiz-adv-x="1351" 
d="M346 791h660v270h-660v-270zM1126 0h-120v688h-660v-688h-121v1061h-141v90h141v252h121v-252h660v252h120v-252h142v-90h-142v-1061z" />
    <glyph glyph-name="hbar" unicode="&#x127;" horiz-adv-x="1210" 
d="M362 1346h377v-99h-377v-346q131 193 349 193q149 0 217 -82t67 -244v-768h-116v748q1 131 -47 189t-152 58q-176 0 -318 -233v-762h-116v1247h-158v99h158v161l116 15v-176z" />
    <glyph glyph-name="Itilde" unicode="&#x128;" horiz-adv-x="571" 
d="M393 1587q-53 0 -126 46t-97 46q-61 0 -113 -90l-71 35q63 150 188 150q63 0 133 -46t92 -47q59 0 111 88l74 -34q-66 -148 -191 -148zM225 1403h121v-1403h-121v1403z" />
    <glyph glyph-name="itilde" unicode="&#x129;" horiz-adv-x="546" 
d="M381 1321q-53 0 -126 46t-97 46q-61 0 -113 -90l-72 35q63 150 189 149q63 0 133 -46t92 -46q59 0 111 88l73 -35q-65 -147 -190 -147zM215 1071h117v-1071h-117v1071z" />
    <glyph glyph-name="Imacron" unicode="&#x12a;" horiz-adv-x="571" 
d="M524 1729v-97h-479v97h479zM225 1403h121v-1403h-121v1403z" />
    <glyph glyph-name="imacron" unicode="&#x12b;" horiz-adv-x="546" 
d="M512 1462v-96h-479v96h479zM215 1071h117v-1071h-117v1071z" />
    <glyph glyph-name="Ibreve" unicode="&#x12c;" horiz-adv-x="571" 
d="M288 1567q-108 0 -176 60q-67 60 -81 140l78 21q51 -125 176 -125t176 125l78 -21q-15 -82 -79 -141t-172 -59zM225 1403h121v-1403h-121v1403z" />
    <glyph glyph-name="ibreve" unicode="&#x12d;" horiz-adv-x="546" 
d="M274 1280q-108 0 -176 65t-80 156l78 21q47 -146 176 -146t177 146l77 -21q-12 -93 -78 -157t-174 -64zM215 1071h117v-1071h-117v1071z" />
    <glyph glyph-name="Iogonek" unicode="&#x12e;" horiz-adv-x="571" 
d="M225 1403h121v-1403q-170 -106 -170 -252q0 -53 32 -87t96 -34t108 25l34 -78q-74 -37 -172 -37t-156 54t-59 143q0 158 166 266v1403z" />
    <glyph glyph-name="iogonek" unicode="&#x12f;" horiz-adv-x="546" 
d="M272 1313q-40 1 -64 25t-24 61t25 61t63 25q38 0 64 -25q24 -26 24 -62t-24 -61q-25 -24 -64 -24zM215 1071h117v-1071q-170 -106 -170 -252q0 -53 32 -87t96 -34t107 25l35 -78q-74 -37 -172 -37t-157 54q-58 53 -58 137q0 165 170 272v1071z" />
    <glyph glyph-name="Idotaccent" unicode="&#x130;" horiz-adv-x="571" 
d="M199 1665q-1 37 23 61t63 23q39 0 63 -24q24 -25 23 -61q0 -36 -24 -60q-25 -24 -63 -23q-38 -1 -62 23t-23 61zM225 1403h121v-1403h-121v1403z" />
    <glyph glyph-name="dotlessi" unicode="&#x131;" horiz-adv-x="546" 
d="M215 1071h117v-1071h-117v1071z" />
    <glyph glyph-name="IJ" unicode="&#x132;" horiz-adv-x="1161" 
d="M815 168v1235h121v-1231q0 -195 -72 -289t-250 -162l-32 97q131 51 182 130t51 220zM225 1403h121v-1403h-121v1403z" />
    <glyph glyph-name="ij" unicode="&#x133;" horiz-adv-x="1093" 
d="M762 1071h117v-1030q-1 -109 -17 -181t-61 -124q-45 -51 -89 -81t-130 -73l-45 90q129 63 177 133t48 232v1034zM819 1313q-39 1 -63 25t-25 61q0 37 25 61q26 24 64 25q38 0 63 -25q25 -26 25 -62t-25 -61q-25 -24 -64 -24zM272 1313q-40 1 -64 25t-24 61t25 61t63 25
q38 0 64 -25q24 -26 24 -62t-24 -61q-25 -24 -64 -24zM215 1071h117v-1071h-117v1071z" />
    <glyph glyph-name="Jcircumflex" unicode="&#x134;" horiz-adv-x="589" 
d="M305 1708l-242 -154l-55 62l266 201h62l264 -201l-53 -62zM244 168v1235h121v-1231q0 -195 -72 -289t-250 -162l-33 97q131 51 183 130q51 79 51 220z" />
    <glyph glyph-name="jcircumflex" unicode="&#x135;" horiz-adv-x="546" 
d="M274 1442l-241 -174l-56 61l267 221h61l264 -221l-53 -61zM215 1071h117v-1030q0 -109 -16 -181t-62 -124q-45 -51 -89 -81t-130 -73l-45 90q129 63 177 133t48 232v1034z" />
    <glyph glyph-name="uni0136" unicode="&#x136;" horiz-adv-x="1116" 
d="M506 -259q0 44 25 69q26 24 66 24q39 0 63 -24t24 -64q0 -41 -37 -115l-82 -166h-71l57 207q-45 25 -45 69zM225 1403h121v-1403h-121v1403zM934 1403h147l-581 -643l616 -760h-153l-609 754z" />
    <glyph glyph-name="uni0137" unicode="&#x137;" horiz-adv-x="989" 
d="M453 -273q-1 45 25 69t66 24t64 -24t23 -64q0 -40 -37 -115l-82 -166h-72l58 207q-45 25 -45 69zM342 0h-117v1507l117 15v-1522zM795 1071h143l-449 -481l500 -590h-145l-490 586z" />
    <glyph glyph-name="kgreenlandic" unicode="&#x138;" horiz-adv-x="989" 
d="M795 1071h143l-449 -496l500 -575h-145l-490 571zM225 1071h117v-1071h-117v1071z" />
    <glyph glyph-name="Lacute" unicode="&#x139;" horiz-adv-x="972" 
d="M205 1550l-41 70l362 190l66 -106zM225 1403h121v-1292h586l-17 -111h-690v1403z" />
    <glyph glyph-name="lacute" unicode="&#x13a;" horiz-adv-x="555" 
d="M96 1591l-41 70l363 190l65 -106zM322 180q0 -102 84 -102q37 0 75 14l33 -84q-55 -31 -129 -31q-180 0 -180 199v1331l117 15v-1342z" />
    <glyph glyph-name="uni013B" unicode="&#x13b;" horiz-adv-x="972" 
d="M465 -259q0 44 25 69q26 24 66 24t64 -24q51 -50 -14 -179l-82 -166h-71l57 207q-45 25 -45 69zM225 1403h121v-1292h586l-17 -111h-690v1403z" />
    <glyph glyph-name="uni013C" unicode="&#x13c;" horiz-adv-x="555" 
d="M256 -273q0 45 26 69t66 24t63 -24q50 -50 -14 -179l-82 -166h-71l57 207q-45 25 -45 69zM322 180q0 -102 84 -102q37 0 75 14l33 -84q-55 -31 -129 -31q-180 0 -180 199v1331l117 15v-1342z" />
    <glyph glyph-name="Lcaron" unicode="&#x13d;" horiz-adv-x="972" 
d="M557 1314q0 44 26 68q25 24 65 25q40 0 64 -24q50 -50 -14 -179l-82 -166h-71l57 207q-45 25 -45 69zM225 1403h121v-1292h586l-17 -111h-690v1403z" />
    <glyph glyph-name="lcaron" unicode="&#x13e;" horiz-adv-x="555" 
d="M471 1560q0 44 26 68q25 24 65 25q40 0 64 -24q50 -50 -14 -179l-82 -166h-71l57 207q-45 25 -45 69zM322 180q0 -102 84 -102q37 0 75 14l33 -84q-55 -31 -129 -31q-180 0 -180 199v1331l117 15v-1342z" />
    <glyph glyph-name="Ldot" unicode="&#x13f;" horiz-adv-x="972" 
d="M721 657q-39 0 -64 25q-25 26 -25 62t25 61t64 25t63 -26q24 -24 25 -61q-1 -37 -25 -61t-63 -25zM225 1403h121v-1292h586l-17 -111h-690v1403z" />
    <glyph glyph-name="ldot" unicode="&#x140;" horiz-adv-x="555" 
d="M537 657q-39 0 -64 25q-25 26 -25 62t25 61t64 25t63 -26q24 -24 25 -61q-1 -37 -25 -61t-63 -25zM322 180q0 -102 84 -102q37 0 75 14l33 -84q-55 -31 -129 -31q-180 0 -180 199v1331l117 15v-1342z" />
    <glyph glyph-name="Lslash" unicode="&#x141;" horiz-adv-x="972" 
d="M225 1403h121v-633l373 229l53 -81l-426 -263v-549h586l-17 -106h-690v580l-131 -80l-53 82l184 112v709z" />
    <glyph glyph-name="lslash" unicode="&#x142;" horiz-adv-x="595" 
d="M342 180q0 -102 84 -102q37 0 76 14l33 -84q-55 -31 -129 -31q-180 0 -181 199v473l-108 -65l-51 80l159 98v745l117 15v-688l193 118l51 -80l-244 -151v-541z" />
    <glyph glyph-name="Nacute" unicode="&#x143;" horiz-adv-x="1376" 
d="M535 1550l-41 70l362 190l66 -106zM1036 573v830h115v-1403h-162l-661 1268h-4q16 -201 16 -441v-827h-115v1403h160l664 -1270h4q-17 241 -17 440z" />
    <glyph glyph-name="nacute" unicode="&#x144;" horiz-adv-x="1189" 
d="M416 1264l-41 69l373 215l65 -106zM690 1094q150 0 218 -82t67 -244v-768h-117v748q0 131 -47 189t-152 58q-174 0 -317 -229v-766h-117v1071h101l8 -182q135 205 356 205z" />
    <glyph glyph-name="uni0145" unicode="&#x145;" horiz-adv-x="1376" 
d="M604 -259q0 44 26 69q26 24 66 24t63 -24q51 -50 -14 -179l-81 -166h-72l57 207q-45 25 -45 69zM1036 573v830h115v-1403h-162l-661 1268h-4q16 -201 16 -441v-827h-115v1403h160l664 -1270h4q-17 241 -17 440z" />
    <glyph glyph-name="uni0146" unicode="&#x146;" horiz-adv-x="1189" 
d="M512 -273q0 45 26 69t66 24t63 -24q50 -50 -14 -179l-82 -166h-71l57 207q-45 25 -45 69zM690 1094q150 0 218 -82t67 -244v-768h-117v748q0 131 -47 189t-152 58q-174 0 -317 -229v-766h-117v1071h101l8 -182q135 205 356 205z" />
    <glyph glyph-name="Ncaron" unicode="&#x147;" horiz-adv-x="1376" 
d="M446 1817l242 -154l242 154l53 -62l-264 -201h-62l-266 201zM1036 573v830h115v-1403h-162l-661 1268h-4q16 -201 16 -441v-827h-115v1403h160l664 -1270h4q-17 241 -17 440z" />
    <glyph glyph-name="ncaron" unicode="&#x148;" horiz-adv-x="1189" 
d="M354 1550l242 -174l242 174l53 -61l-264 -221h-62l-266 221zM690 1094q150 0 218 -82t67 -244v-768h-117v748q0 131 -47 189t-152 58q-174 0 -317 -229v-766h-117v1071h101l8 -182q135 205 356 205z" />
    <glyph glyph-name="napostrophe" unicode="&#x149;" horiz-adv-x="1189" 
d="M143 1580q0 44 26 69q25 25 65 25t64 -24t24 -65t-37 -115l-82 -165h-72l57 206q-45 25 -45 69zM690 1094q150 0 218 -82t67 -244v-768h-117v748q0 131 -47 189t-152 58q-174 0 -317 -229v-766h-117v1071h101l8 -182q135 205 356 205z" />
    <glyph glyph-name="Eng" unicode="&#x14a;" horiz-adv-x="1376" 
d="M1036 573v830h115v-1403q0 -176 -73 -264t-249 -156l-30 90q141 61 190 126t51 204h-51l-661 1268h-4q16 -201 16 -441v-827h-115v1403h160l664 -1270h4q-17 241 -17 440z" />
    <glyph glyph-name="eng" unicode="&#x14b;" horiz-adv-x="1189" 
d="M858 37v698q0 139 -46 199t-153 61q-174 0 -317 -229v-766h-117v1071h101l8 -182q135 205 356 205q150 0 218 -82t67 -244v-727q-1 -109 -17 -181t-61 -124q-45 -51 -89 -81t-130 -73l-45 90q129 63 177 133t48 232z" />
    <glyph glyph-name="Omacron" unicode="&#x14c;" horiz-adv-x="1398" 
d="M938 1729v-97h-479v97h479zM700 82q199 0 314 157q114 157 114 463t-114 462q-115 157 -314 157q-198 0 -314 -158t-116 -464q0 -305 116 -461t314 -156zM1255 703q-1 -341 -153 -533t-404 -193q-252 1 -404 189t-151 530q0 342 153 536q152 194 404 194t404 -191
q151 -191 151 -532z" />
    <glyph glyph-name="omacron" unicode="&#x14d;" horiz-adv-x="1171" 
d="M825 1462v-96h-479v96h479zM585 76q157 0 243 118t85 343t-85 341t-240 117q-156 -1 -243 -117t-87 -341t85 -343t242 -118zM133 535q0 259 123 409t334 150t330 -148q118 -148 118 -407q0 -258 -122 -410t-332 -152t-331 150q-120 150 -120 408z" />
    <glyph glyph-name="Obreve" unicode="&#x14e;" horiz-adv-x="1398" 
d="M700 1567q-108 0 -175 60t-81 140l78 21q51 -125 176 -125t176 125l78 -21q-14 -82 -78 -141q-66 -59 -174 -59zM700 82q199 0 314 157q114 157 114 463t-114 462q-115 157 -314 157q-198 0 -314 -158t-116 -464q0 -305 116 -461t314 -156zM1255 703q-1 -341 -153 -533
t-404 -193q-252 1 -404 189t-151 530q0 342 153 536q152 194 404 194t404 -191q151 -191 151 -532z" />
    <glyph glyph-name="obreve" unicode="&#x14f;" horiz-adv-x="1171" 
d="M588 1280q-108 0 -176 65t-80 156l78 21q47 -146 176 -146t176 146l78 -21q-12 -93 -78 -157t-174 -64zM585 76q157 0 243 118t85 343t-85 341t-240 117q-156 -1 -243 -117t-87 -341t85 -343t242 -118zM133 535q0 259 123 409t334 150t330 -148q118 -148 118 -407
q0 -258 -122 -410t-332 -152t-331 150q-120 150 -120 408z" />
    <glyph glyph-name="Ohungarumlaut" unicode="&#x150;" horiz-adv-x="1398" 
d="M852 1567l-70 41l164 305l103 -60zM588 1571l-74 37l145 305l107 -53zM700 82q199 0 314 157q114 157 114 463t-114 462q-115 157 -314 157q-198 0 -314 -158t-116 -464q0 -305 116 -461t314 -156zM1255 703q-1 -341 -153 -533t-404 -193q-252 1 -404 189t-151 530
q0 342 153 536q152 194 404 194t404 -191q151 -191 151 -532z" />
    <glyph glyph-name="ohungarumlaut" unicode="&#x151;" horiz-adv-x="1171" 
d="M733 1280l-69 41l172 321l104 -59zM469 1284l-74 37l154 321l108 -53zM585 76q157 0 243 118t85 343t-85 341t-240 117q-156 -1 -243 -117t-87 -341t85 -343t242 -118zM133 535q0 259 123 409t334 150t330 -148q118 -148 118 -407q0 -258 -122 -410t-332 -152t-331 150
q-120 150 -120 408z" />
    <glyph glyph-name="OE" unicode="&#x152;" horiz-adv-x="1804" 
d="M691 1319q-193 0 -307 -157t-114 -463q0 -307 116 -461t306 -154t293 156q102 156 102 462t-102 462q-102 155 -294 155zM1593 778v-102h-391q-6 -393 -198 -574h698v-102h-850q-74 -23 -152 -23q-254 1 -406 189t-151 530q0 342 153 536t404 193q80 0 154 -22h832
l-15 -103h-663q176 -160 192 -522h393z" />
    <glyph glyph-name="oe" unicode="&#x153;" horiz-adv-x="1871" 
d="M1346 993q-136 0 -218 -102t-90 -309h594q-5 411 -286 411zM913 539q-1 227 -85 339t-240 113q-156 -1 -243 -115t-87 -339t85 -341t242 -116t243 116t85 343zM133 535q0 259 123 409t334 150q276 0 387 -265q109 264 369 265q199 0 301 -138t102 -389q0 -37 -4 -78h-707
q10 -207 102 -308t246 -101q152 0 277 108l55 -82q-141 -129 -346 -129q-287 0 -399 275q-113 -274 -389 -275q-211 0 -331 150t-120 408z" />
    <glyph glyph-name="Racute" unicode="&#x154;" horiz-adv-x="1198" 
d="M457 1550l-41 70l362 190l66 -106zM346 1300v-569h242q365 0 364 291q0 147 -90 213t-282 65h-234zM346 631v-631h-121v1403h348q506 0 506 -381q0 -303 -354 -375l422 -647h-146l-401 631h-254z" />
    <glyph glyph-name="racute" unicode="&#x155;" horiz-adv-x="755" 
d="M260 1264l-41 69l373 215l65 -106zM629 977q-190 0 -287 -313v-664h-117v1071h101l12 -235q47 135 121 196t186 62q57 0 100 -13l-22 -116q-43 12 -94 12z" />
    <glyph glyph-name="uni0156" unicode="&#x156;" horiz-adv-x="1198" 
d="M547 -259q0 44 25 69q26 24 66 24t64 -24t23 -64q0 -41 -37 -115l-82 -166h-71l57 207q-45 25 -45 69zM346 1300v-569h242q365 0 364 291q0 147 -90 213t-282 65h-234zM346 631v-631h-121v1403h348q506 0 506 -381q0 -303 -354 -375l422 -647h-146l-401 631h-254z" />
    <glyph glyph-name="uni0157" unicode="&#x157;" horiz-adv-x="755" 
d="M201 -273q-1 45 25 69t66 24t64 -24t23 -64q0 -40 -37 -115l-82 -166h-72l58 207q-45 25 -45 69zM629 977q-190 0 -287 -313v-664h-117v1071h101l12 -235q47 135 121 196t186 62q57 0 100 -13l-22 -116q-43 12 -94 12z" />
    <glyph glyph-name="Rcaron" unicode="&#x158;" horiz-adv-x="1198" 
d="M389 1817l242 -154l241 154l54 -62l-264 -201h-62l-266 201zM346 1300v-569h242q365 0 364 291q0 147 -90 213t-282 65h-234zM346 631v-631h-121v1403h348q506 0 506 -381q0 -303 -354 -375l422 -647h-146l-401 631h-254z" />
    <glyph glyph-name="rcaron" unicode="&#x159;" horiz-adv-x="755" 
d="M199 1550l241 -174l242 174l53 -61l-264 -221h-61l-267 221zM629 977q-190 0 -287 -313v-664h-117v1071h101l12 -235q47 135 121 196t186 62q57 0 100 -13l-22 -116q-43 12 -94 12z" />
    <glyph glyph-name="Sacute" unicode="&#x15a;" horiz-adv-x="1112" 
d="M403 1550l-41 70l363 190l66 -106zM561 1321q-135 0 -219 -60t-84 -169t72 -168t274 -122t309 -153t107 -268t-130 -291t-353 -113q-285 0 -465 170l71 84q166 -150 394 -149q162 0 259 80t97 214t-78 200q-77 66 -285 130t-303 148q-94 84 -94 234t118 244
q118 93 306 93q240 1 416 -149l-74 -80q-143 125 -338 125z" />
    <glyph glyph-name="sacute" unicode="&#x15b;" horiz-adv-x="937" 
d="M291 1264l-41 69l373 215l65 -106zM846 275q0 -140 -117 -219t-285 -79q-231 0 -383 132l66 79q139 -113 317 -112q125 0 201 52t76 148t-57 144q-56 48 -222 93q-166 44 -246 115q-80 70 -79 192q0 122 102 198q101 76 277 76t309 -90l-53 -86q-122 78 -252 78t-196 -47
q-66 -46 -66 -128t58 -129t219 -88t246 -115t85 -214z" />
    <glyph glyph-name="Scircumflex" unicode="&#x15c;" horiz-adv-x="1112" 
d="M578 1708l-242 -154l-55 62l266 201h61l264 -201l-53 -62zM561 1321q-135 0 -219 -60t-84 -169t72 -168t274 -122t309 -153t107 -268t-130 -291t-353 -113q-285 0 -465 170l71 84q166 -150 394 -149q162 0 259 80t97 214t-78 200q-77 66 -285 130t-303 148
q-94 84 -94 234t118 244q118 93 306 93q240 1 416 -149l-74 -80q-143 125 -338 125z" />
    <glyph glyph-name="scircumflex" unicode="&#x15d;" horiz-adv-x="937" 
d="M469 1442l-242 -174l-55 61l266 221h62l264 -221l-53 -61zM846 275q0 -140 -117 -219t-285 -79q-231 0 -383 132l66 79q139 -113 317 -112q125 0 201 52t76 148t-57 144q-56 48 -222 93q-166 44 -246 115q-80 70 -79 192q0 122 102 198q101 76 277 76t309 -90l-53 -86
q-122 78 -252 78t-196 -47q-66 -46 -66 -128t58 -129t219 -88t246 -115t85 -214z" />
    <glyph glyph-name="Scedilla" unicode="&#x15e;" horiz-adv-x="1112" 
d="M647 -291q0 49 -41 69t-121 21l13 181q-264 12 -426 167l71 84q166 -150 394 -149q162 0 259 80t97 214t-78 200q-77 66 -285 130t-303 148q-94 84 -94 234t118 244q118 93 306 93q240 0 416 -149l-74 -80q-143 125 -338 125q-135 0 -219 -60t-84 -169t72 -168t274 -122
t309 -153t107 -262t-114 -283t-314 -124v-117q172 -18 172 -156q0 -82 -62 -126t-162 -44q-99 0 -171 39l45 80q53 -29 118 -29q115 0 115 82z" />
    <glyph glyph-name="scedilla" unicode="&#x15f;" horiz-adv-x="937" 
d="M549 -291q0 49 -41 69t-121 21l12 181q-207 12 -338 129l66 79q139 -113 317 -112q125 0 201 52t76 147t-58 145q-59 50 -223 93q-164 44 -244 115q-80 72 -79 192q0 120 102 197t277 77t309 -90l-53 -86q-122 78 -252 78t-196 -47q-66 -46 -66 -127t59 -128t220 -89
q161 -41 245 -113t84 -208t-100 -214t-252 -90v-117q172 -18 172 -156q0 -82 -62 -126t-162 -44t-172 39l45 80q53 -29 119 -29q115 0 115 82z" />
    <glyph glyph-name="Scaron" unicode="&#x160;" horiz-adv-x="1112" 
d="M336 1817l242 -154l241 154l53 -62l-264 -201h-61l-266 201zM561 1321q-135 0 -219 -60t-84 -169t72 -168t274 -122t309 -153t107 -268t-130 -291t-353 -113q-285 0 -465 170l71 84q166 -150 394 -149q162 0 259 80t97 214t-78 200q-77 66 -285 130t-303 148
q-94 84 -94 234t118 244q118 93 306 93q240 1 416 -149l-74 -80q-143 125 -338 125z" />
    <glyph glyph-name="scaron" unicode="&#x161;" horiz-adv-x="937" 
d="M227 1550l242 -174l242 174l53 -61l-264 -221h-62l-266 221zM846 275q0 -140 -117 -219t-285 -79q-231 0 -383 132l66 79q139 -113 317 -112q125 0 201 52t76 148t-57 144q-56 48 -222 93q-166 44 -246 115q-80 70 -79 192q0 122 102 198q101 76 277 76t309 -90l-53 -86
q-122 78 -252 78t-196 -47q-66 -46 -66 -128t58 -129t219 -88t246 -115t85 -214z" />
    <glyph glyph-name="uni0162" unicode="&#x162;" horiz-adv-x="1021" 
d="M631 -291q0 49 -41 69t-121 21l14 201h-28v1296h-414v107h950l-14 -107h-402v-1433q172 -18 173 -156q0 -82 -62 -126t-162 -44t-172 39l45 80q53 -29 119 -29q115 0 115 82z" />
    <glyph glyph-name="uni0163" unicode="&#x163;" horiz-adv-x="747" 
d="M367 272q-1 -194 157 -194q80 0 166 49l47 -82q-90 -61 -202 -68v-114q172 -18 172 -156q-1 -82 -63 -126t-162 -44t-171 39l45 80q53 -29 119 -29q115 0 115 82q0 49 -41 69t-121 21l12 187q-190 37 -190 278v717h-199v90h199v256l117 14v-270h280l-12 -90h-268v-709z
" />
    <glyph glyph-name="Tcaron" unicode="&#x164;" horiz-adv-x="1021" 
d="M270 1817l242 -154l242 154l53 -62l-264 -201h-62l-266 201zM575 0h-120v1296h-414v107h950l-14 -107h-402v-1296z" />
    <glyph glyph-name="tcaron" unicode="&#x165;" horiz-adv-x="747" 
d="M526 1560q0 44 26 68t66 25q40 0 63 -24q24 -25 24 -65t-37 -114l-82 -166h-72l57 207q-45 25 -45 69zM367 272q-1 -194 157 -194q80 0 166 49l47 -82q-100 -68 -227 -68t-194 75t-66 212v717h-199v90h199v256l117 14v-270h280l-12 -90h-268v-709z" />
    <glyph glyph-name="Tbar" unicode="&#x166;" horiz-adv-x="1021" 
d="M575 0h-120v766h-254v98h254v432h-414v107h950l-14 -107h-402v-432h254v-98h-254v-766z" />
    <glyph glyph-name="tbar" unicode="&#x167;" horiz-adv-x="747" 
d="M367 272q-1 -194 157 -194q80 0 166 49l47 -82q-100 -68 -227 -68t-194 75t-66 212v350h-189v91h189v276h-199v90h199v256l117 14v-270h280l-12 -90h-268v-276h264v-91h-264v-342z" />
    <glyph glyph-name="Utilde" unicode="&#x168;" horiz-adv-x="1335" 
d="M776 1587q-53 0 -126 46t-97 46q-61 0 -113 -90l-71 35q63 150 188 150q63 0 133 -46t92 -47q59 0 111 88l74 -34q-66 -148 -191 -148zM205 1403h121v-950q0 -371 342 -371t342 371v950h120v-957q0 -221 -120 -345t-343 -124q-222 0 -342 123t-120 346v957z" />
    <glyph glyph-name="utilde" unicode="&#x169;" horiz-adv-x="1177" 
d="M696 1321q-53 0 -126 46t-97 46q-61 0 -113 -90l-71 35q63 150 188 149q63 0 133 -46t92 -46q59 0 111 88l74 -35q-66 -147 -191 -147zM500 -23q-285 0 -285 324v770h117v-756q0 -127 46 -183t142 -56q172 0 316 229v766h116v-1071h-100l-8 182q-135 -205 -344 -205z" />
    <glyph glyph-name="Umacron" unicode="&#x16a;" horiz-adv-x="1335" 
d="M907 1729v-97h-479v97h479zM205 1403h121v-950q0 -371 342 -371t342 371v950h120v-957q0 -221 -120 -345t-343 -124q-222 0 -342 123t-120 346v957z" />
    <glyph glyph-name="umacron" unicode="&#x16b;" horiz-adv-x="1177" 
d="M827 1462v-96h-479v96h479zM500 -23q-285 0 -285 324v770h117v-756q0 -127 46 -183t142 -56q172 0 316 229v766h116v-1071h-100l-8 182q-135 -205 -344 -205z" />
    <glyph glyph-name="Ubreve" unicode="&#x16c;" horiz-adv-x="1335" 
d="M670 1567q-108 0 -175 60t-81 140l78 21q51 -125 176 -125t176 125l78 -21q-14 -82 -78 -141q-66 -59 -174 -59zM205 1403h121v-950q0 -371 342 -371t342 371v950h120v-957q0 -221 -120 -345t-343 -124q-222 0 -342 123t-120 346v957z" />
    <glyph glyph-name="ubreve" unicode="&#x16d;" horiz-adv-x="1177" 
d="M590 1280q-108 0 -176 65t-80 156l78 21q47 -146 176 -146t176 146l78 -21q-12 -93 -78 -157t-174 -64zM500 -23q-285 0 -285 324v770h117v-756q0 -127 46 -183t142 -56q172 0 316 229v766h116v-1071h-100l-8 182q-135 -205 -344 -205z" />
    <glyph glyph-name="Uring" unicode="&#x16e;" horiz-adv-x="1335" 
d="M668 1589q51 0 81 32q29 32 29 86t-28 85q-29 31 -81 31t-82 -32t-30 -85t30 -85t81 -32zM668 1520q-88 0 -144 52q-55 52 -55 134t55 134q56 52 144 52t143 -52t55 -134t-55 -134t-143 -52zM205 1403h121v-950q0 -371 342 -371t342 371v950h120v-957q0 -221 -120 -345
t-343 -124q-222 0 -342 123t-120 346v957z" />
    <glyph glyph-name="uring" unicode="&#x16f;" horiz-adv-x="1177" 
d="M588 1323q51 0 81 32q29 32 29 86t-28 85q-29 30 -81 30t-82 -32t-30 -84q0 -53 30 -85t81 -32zM588 1253q-88 1 -144 53t-55 134q0 82 55 134q56 52 144 52t143 -52t55 -134t-55 -134t-143 -53zM500 -23q-285 0 -285 324v770h117v-756q0 -127 46 -183t142 -56
q172 0 316 229v766h116v-1071h-100l-8 182q-135 -205 -344 -205z" />
    <glyph glyph-name="Uhungarumlaut" unicode="&#x170;" horiz-adv-x="1335" 
d="M799 1567l-70 41l164 305l102 -60zM535 1571l-74 37l145 305l107 -53zM205 1403h121v-950q0 -371 342 -371t342 371v950h120v-957q0 -221 -120 -345t-343 -124q-222 0 -342 123t-120 346v957z" />
    <glyph glyph-name="uhungarumlaut" unicode="&#x171;" horiz-adv-x="1177" 
d="M715 1280l-70 41l172 321l105 -59zM451 1284l-74 37l153 321l109 -53zM500 -23q-285 0 -285 324v770h117v-756q0 -127 46 -183t142 -56q172 0 316 229v766h116v-1071h-100l-8 182q-135 -205 -344 -205z" />
    <glyph glyph-name="Uogonek" unicode="&#x172;" horiz-adv-x="1335" 
d="M205 1403h121v-950q0 -371 342 -371t342 371v950h120v-957q0 -305 -231 -423q-209 -104 -209 -275q0 -53 32 -87t96 -34t108 25l35 -78q-75 -37 -173 -37t-156 54t-59 143q0 139 142 248q-25 -4 -47 -5q-223 0 -343 123t-120 346v957z" />
    <glyph glyph-name="uogonek" unicode="&#x173;" horiz-adv-x="1177" 
d="M836 1071h116v-1071q-170 -106 -170 -252q0 -53 32 -87t96 -34t108 25l35 -78q-75 -37 -173 -37t-156 54q-58 55 -58 139t51 158t135 122l-8 172q-135 -205 -344 -205q-285 0 -285 324v770h117v-741q0 -134 46 -194t142 -60q173 0 316 229v766z" />
    <glyph glyph-name="Wcircumflex" unicode="&#x174;" horiz-adv-x="1630" 
d="M815 1708l-242 -154l-55 62l266 201h62l264 -201l-53 -62zM881 1403l315 -1272h4l264 1272h115l-305 -1403h-152l-307 1249h-4l-307 -1249h-148l-305 1403h121l260 -1272h4l312 1272h133z" />
    <glyph glyph-name="wcircumflex" unicode="&#x175;" horiz-adv-x="1433" 
d="M717 1442l-242 -174l-55 61l266 221h62l264 -221l-54 -61zM1266 1071h116l-262 -1071h-162l-237 948h-4l-242 -948h-158l-266 1071h121l223 -971h4l256 971h133l248 -969h4z" />
    <glyph glyph-name="Ycircumflex" unicode="&#x176;" horiz-adv-x="1058" 
d="M532 1708l-241 -154l-55 62l266 201h61l264 -201l-53 -62zM592 0h-121v565l-461 838h137l383 -725h5l385 725h129l-457 -836v-567z" />
    <glyph glyph-name="ycircumflex" unicode="&#x177;" horiz-adv-x="954" 
d="M496 1442l-242 -174l-55 61l266 221h61l265 -221l-54 -61zM31 1071h129l329 -977h5l305 977h125l-361 -1075q-61 -188 -159 -288t-285 -128l-17 96q154 29 229 104t122 220h-41z" />
    <glyph glyph-name="Ydieresis" unicode="&#x178;" horiz-adv-x="1058" 
d="M641 1634q0 35 23 58q24 22 60 22t58 -22t23 -58q0 -36 -23 -58q-24 -22 -60 -22t-58 22t-23 58zM256 1634q0 35 23 58q23 22 59 22t60 -22q22 -22 22 -58t-23 -58t-59 -22t-60 22q-22 22 -22 58zM592 0h-121v565l-461 838h137l383 -725h5l385 725h129l-457 -836v-567z
" />
    <glyph glyph-name="Zacute" unicode="&#x179;" horiz-adv-x="1044" 
d="M369 1550l-41 70l362 190l66 -106zM72 0v100l747 1198h-672v105h805v-100l-745 -1197h731l-14 -106h-852z" />
    <glyph glyph-name="zacute" unicode="&#x17a;" horiz-adv-x="870" 
d="M276 1264l-40 69l372 215l66 -106zM61 0v90l601 881h-551v100h688v-90l-598 -881h594l-15 -100h-719z" />
    <glyph glyph-name="Zdotaccent" unicode="&#x17b;" horiz-adv-x="1044" 
d="M457 1665q-1 37 23 61t63 23q39 0 63 -24q24 -25 23 -61q0 -36 -24 -60q-25 -24 -63 -23q-38 -1 -62 23t-23 61zM72 0v100l747 1198h-672v105h805v-100l-745 -1197h731l-14 -106h-852z" />
    <glyph glyph-name="zdotaccent" unicode="&#x17c;" horiz-adv-x="870" 
d="M455 1313q-39 1 -64 25t-24 61t25 61t63 25q39 0 63 -25q24 -26 25 -62q-1 -36 -25 -60t-63 -25zM61 0v90l601 881h-551v100h688v-90l-598 -881h594l-15 -100h-719z" />
    <glyph glyph-name="Zcaron" unicode="&#x17d;" horiz-adv-x="1044" 
d="M301 1817l242 -154l241 154l54 -62l-265 -201h-61l-266 201zM72 0v100l747 1198h-672v105h805v-100l-745 -1197h731l-14 -106h-852z" />
    <glyph glyph-name="zcaron" unicode="&#x17e;" horiz-adv-x="870" 
d="M215 1550l242 -174l241 174l54 -61l-265 -221h-61l-266 221zM61 0v90l601 881h-551v100h688v-90l-598 -881h594l-15 -100h-719z" />
    <glyph glyph-name="florin" unicode="&#x192;" horiz-adv-x="671" 
d="M248 37v938h-199v96h199v170q0 127 78 204t212 77t257 -60l-41 -90q-104 49 -202 49t-143 -44q-44 -44 -44 -138v-168h282l-14 -96h-268v-934q0 -251 -132 -358q-57 -47 -165 -101l-45 88q127 61 176 133t49 234z" />
    <glyph glyph-name="AEacute" unicode="&#x1fc;" horiz-adv-x="1591" 
d="M766 1550l-41 70l362 190l66 -106zM616 1296l-311 -815h520l-204 815h-5zM1372 778v-102h-481l149 -574h469v-102h-561l-96 379h-586l-143 -379h-123l547 1403h864l-14 -103h-670l137 -522h508z" />
    <glyph glyph-name="aeacute" unicode="&#x1fd;" horiz-adv-x="1703" 
d="M725 1264l-41 69l373 215l65 -106zM1178 993q-134 0 -218 -102t-92 -309h596q-5 411 -286 411zM745 530v17h-178q-350 0 -350 -236q1 -111 63 -172t171 -61q206 0 325 219q-31 100 -31 233zM1216 78q154 0 279 108l55 -80q-141 -129 -346 -129q-129 -1 -228 59t-159 163
q-80 -121 -175 -171q-94 -50 -234 -50t-228 88q-88 90 -88 244t124 242q124 87 345 87h184v106q0 248 -256 248q-135 0 -288 -59l-33 92q172 68 338 68q279 0 325 -217q43 100 139 158t208 59q199 0 301 -138t102 -389q0 -37 -4 -78h-709q10 -207 102 -309t246 -102z" />
    <glyph glyph-name="Oslashacute" unicode="&#x1fe;" horiz-adv-x="1398" 
d="M485 1591l-41 70l363 190l65 -106zM700 82q199 0 314 157t114 461q0 426 -215 564l-335 -1166q48 -16 122 -16zM700 1321q-198 0 -314 -158t-116 -465q0 -426 215 -559l338 1166q-62 16 -123 16zM1255 700q-1 -338 -153 -530t-402 -193q-84 0 -153 21l-72 -246l-108 29
l82 256q-145 78 -226 246q-80 168 -80 415q0 340 153 534t404 193q70 0 148 -20l74 254l108 -29l-84 -264q145 -78 227 -248t82 -418z" />
    <glyph glyph-name="oslashacute" unicode="&#x1ff;" horiz-adv-x="1171" 
d="M393 1274l-41 69l373 216l66 -107zM913 539q0 301 -147 405l-266 -860q35 -8 84 -8q158 0 244 118t85 345zM590 995q-158 -1 -245 -117t-87 -343q0 -313 156 -414l268 862q-43 12 -92 12zM133 535q0 259 123 409t334 150q53 0 117 -15l71 230l101 -31l-78 -236
q238 -129 237 -503q0 -258 -122 -410t-332 -152q-59 0 -111 13l-74 -238l-100 31l78 242q-117 59 -181 191t-63 319z" />
    <glyph glyph-name="uni0218" unicode="&#x218;" horiz-adv-x="1112" 
d="M473 -273q0 45 26 69q25 24 65 24t64 -24q50 -50 -14 -179l-82 -166h-71l57 207q-45 25 -45 69zM561 1321q-135 0 -219 -60t-84 -169t72 -168t274 -122t309 -153t107 -268t-130 -291t-353 -113q-285 0 -465 170l71 84q166 -150 394 -149q162 0 259 80t97 214t-78 200
q-77 66 -285 130t-303 148q-94 84 -94 234t118 244q118 93 306 93q240 1 416 -149l-74 -80q-143 125 -338 125z" />
    <glyph glyph-name="uni0219" unicode="&#x219;" horiz-adv-x="937" 
d="M385 -273q0 45 26 69q25 24 65 24t64 -24q50 -50 -14 -179l-82 -166h-71l57 207q-45 25 -45 69zM846 275q0 -140 -117 -219t-285 -79q-231 0 -383 132l66 79q139 -113 317 -112q125 0 201 52t76 148t-57 144q-56 48 -222 93q-166 44 -246 115q-80 70 -79 192
q0 122 102 198q101 76 277 76t309 -90l-53 -86q-122 78 -252 78t-196 -47q-66 -46 -66 -128t58 -129t219 -88t246 -115t85 -214z" />
    <glyph glyph-name="uni021A" unicode="&#x21a;" horiz-adv-x="1021" 
d="M428 -259q0 44 26 69q26 24 66 24t63 -24q51 -50 -14 -179l-82 -166h-71l57 207q-45 25 -45 69zM575 0h-120v1296h-414v107h950l-14 -107h-402v-1296z" />
    <glyph glyph-name="uni021B" unicode="&#x21b;" horiz-adv-x="747" 
d="M373 -273q-1 45 25 69t66 24t64 -24t23 -64q0 -40 -37 -115l-82 -166h-72l58 207q-45 25 -45 69zM367 272q-1 -194 157 -194q80 0 166 49l47 -82q-100 -68 -227 -68t-194 75t-66 212v717h-199v90h199v256l117 14v-270h280l-12 -90h-268v-709z" />
    <glyph glyph-name="dotlessj" unicode="&#x237;" horiz-adv-x="546" 
d="M215 1071h117v-1030q0 -109 -16 -181t-62 -124q-45 -51 -89 -81t-130 -73l-45 90q129 63 177 133t48 232v1034z" />
    <glyph glyph-name="circumflex" unicode="&#x2c6;" horiz-adv-x="714" 
d="M358 1438l-241 -170l-56 61l267 221h61l264 -221l-53 -61z" />
    <glyph glyph-name="caron" unicode="&#x2c7;" horiz-adv-x="714" 
d="M356 1380l242 170l55 -61l-266 -221h-61l-265 221l54 61z" />
    <glyph glyph-name="uni02C9" unicode="&#x2c9;" horiz-adv-x="602" 
d="M541 1462v-96h-480v96h480z" />
    <glyph glyph-name="breve" unicode="&#x2d8;" horiz-adv-x="630" 
d="M316 1280q-108 0 -175 65q-68 65 -80 156l78 21q47 -146 176 -146t177 146l77 -21q-13 -93 -79 -157t-174 -64z" />
    <glyph glyph-name="dotaccent" unicode="&#x2d9;" horiz-adv-x="294" 
d="M61 1399q0 37 24 61q25 24 63 23q38 0 62 -24q24 -25 24 -61t-24 -60t-63 -24t-63 24t-23 61z" />
    <glyph glyph-name="ring" unicode="&#x2da;" horiz-adv-x="520" 
d="M260 1323q51 0 81 32t30 86t-29 85q-29 30 -81 30t-82 -32q-29 -32 -29 -84q0 -53 30 -85t80 -32zM260 1253q-88 1 -143 53t-56 134t55 134t144 52t143 -52t55 -134t-54 -134q-56 -52 -144 -53z" />
    <glyph glyph-name="ogonek" unicode="&#x2db;" horiz-adv-x="509" 
d="M178 -238q0 -136 125 -135q66 0 111 25l35 -78q-75 -37 -173 -37t-156 54q-58 55 -58 149t77 182q78 88 195 129h112q-140 -61 -204 -141t-64 -148z" />
    <glyph glyph-name="tilde" unicode="&#x2dc;" horiz-adv-x="720" 
d="M469 1321q-53 0 -126 46t-97 46q-61 0 -113 -90l-72 35q63 150 189 149q63 0 133 -46t92 -46q59 0 111 88l73 -35q-65 -147 -190 -147z" />
    <glyph glyph-name="hungarumlaut" unicode="&#x2dd;" horiz-adv-x="667" 
d="M403 1280l-73 41l170 321l106 -59zM139 1284l-78 37l152 321l111 -53z" />
    <glyph glyph-name="gravecomb" unicode="&#x300;" horiz-adv-x="0" 
d="M-354 1333l-41 -69l-398 178l66 106z" />
    <glyph glyph-name="acutecomb" unicode="&#x301;" horiz-adv-x="0" 
d="M-752 1264l-41 69l373 215l66 -106z" />
    <glyph glyph-name="uni0302" unicode="&#x302;" horiz-adv-x="0" 
d="M-657 1442l-242 -174l-55 61l266 221h61l265 -221l-54 -61z" />
    <glyph glyph-name="tildecomb" unicode="&#x303;" horiz-adv-x="0" 
d="M-479 1321q-53 0 -126 46t-97 46q-61 0 -113 -90l-72 35q63 150 189 149q63 0 133 -46t92 -46q59 0 111 88l73 -35q-65 -147 -190 -147z" />
    <glyph glyph-name="uni0304" unicode="&#x304;" horiz-adv-x="0" 
d="M-340 1462v-96h-479v96h479z" />
    <glyph glyph-name="uni0306" unicode="&#x306;" horiz-adv-x="0" 
d="M-584 1280q-108 0 -176 65t-80 156l78 21q47 -146 176 -146t176 146l78 -21q-12 -93 -78 -157t-174 -64z" />
    <glyph glyph-name="uni0307" unicode="&#x307;" horiz-adv-x="0" 
d="M-598 1313q-39 1 -64 25t-24 61q0 37 24 61t64 25q40 0 64 -25q24 -26 24 -62t-24 -60t-64 -25z" />
    <glyph glyph-name="uni0308" unicode="&#x308;" horiz-adv-x="0" 
d="M-461 1368q0 36 23 58q24 22 60 22t59 -23t23 -57t-24 -58q-22 -22 -59 -22t-59 22t-23 58zM-846 1368q0 36 23 58t59 22t60 -23q22 -23 22 -57t-23 -58q-23 -22 -59 -22t-60 22q-22 22 -22 58z" />
    <glyph glyph-name="uni030A" unicode="&#x30a;" horiz-adv-x="0" 
d="M-584 1323q51 0 81 32t30 86t-29 85q-29 30 -81 30t-82 -32q-29 -32 -29 -84q0 -53 30 -85t80 -32zM-584 1253q-88 1 -143 53t-55 134t55 134t143 52t144 -52t55 -134q1 -82 -55 -134t-144 -53z" />
    <glyph glyph-name="uni030B" unicode="&#x30b;" horiz-adv-x="0" 
d="M-451 1280l-69 41l172 321l104 -59zM-715 1284l-73 37l153 321l109 -53z" />
    <glyph glyph-name="uni030C" unicode="&#x30c;" horiz-adv-x="0" 
d="M-829 1550l241 -174l242 174l53 -61l-264 -221h-61l-267 221z" />
    <glyph glyph-name="uni0312" unicode="&#x312;" horiz-adv-x="0" 
d="M-514 1398q0 -44 -26 -69t-66 -25t-63 24q-51 50 14 179l82 166h71l-57 -207q45 -24 45 -68z" />
    <glyph glyph-name="uni0313" unicode="&#x313;" horiz-adv-x="0" 
d="M-680 1580q0 44 26 69t66 25t63 -24q51 -50 -14 -180l-82 -165h-71l57 206q-45 25 -45 69z" />
    <glyph glyph-name="uni0326" unicode="&#x326;" horiz-adv-x="0" 
d="M-674 -273q0 45 26 69t66 24t63 -24q50 -50 -13 -179l-82 -166h-72l57 207q-45 25 -45 69z" />
    <glyph glyph-name="uni0327" unicode="&#x327;" horiz-adv-x="0" 
d="M-518 -291q0 49 -41 69t-121 21l16 234h91v-170q172 -18 172 -156q-1 -82 -63 -126t-162 -44t-171 39l45 80q53 -29 119 -29q115 0 115 82z" />
    <glyph glyph-name="uni0328" unicode="&#x328;" horiz-adv-x="0" 
d="M-633 -238q0 -136 125 -135q66 0 111 25l35 -78q-74 -37 -172 -37t-157 54q-59 55 -59 149t78 182t195 129h112q-141 -61 -205 -141t-63 -148z" />
    <glyph glyph-name="uni0335" unicode="&#x335;" horiz-adv-x="0" 
d="M-4 590h-672v98h672v-98z" />
    <glyph glyph-name="uni0336" unicode="&#x336;" horiz-adv-x="0" 
d="M-51 590h-1184v98h1184v-98z" />
    <glyph glyph-name="tonos" unicode="&#x384;" horiz-adv-x="0" 
d="M-111 1227l-79 16l73 334l123 -23z" />
    <glyph glyph-name="dieresistonos" unicode="&#x385;" horiz-adv-x="0" 
d="M-526 1423l-80 17l63 303l123 -23zM-449 1327q0 35 23 57q24 22 60 23q36 0 59 -23q23 -24 23 -58t-24 -56q-22 -22 -59 -23q-37 1 -59 23t-23 57zM-860 1327q0 35 22 57t60 23q38 0 60 -23q22 -24 22 -58t-23 -56t-59 -23q-36 1 -60 23q-22 22 -22 57z" />
    <glyph glyph-name="Alphatonos" unicode="&#x386;" horiz-adv-x="1116" 
d="M215 1081l-82 15l82 315l135 -22zM555 1294l-258 -813h518l-256 813h-4zM969 0l-121 379h-584l-121 -379h-123l461 1403h154l461 -1403h-127z" />
    <glyph glyph-name="Epsilontonos" unicode="&#x388;" horiz-adv-x="1054" 
d="M20 1081l-81 15l81 315l136 -22zM952 0h-725v1403h709l-14 -103h-574v-522h498v-102h-498v-574h604v-102z" />
    <glyph glyph-name="Etatonos" unicode="&#x389;" horiz-adv-x="1353" 
d="M20 1081l-81 15l81 315l136 -22zM1128 0h-120v688h-660v-688h-121v1403h121v-612h660v612h120v-1403z" />
    <glyph glyph-name="Iotatonos" unicode="&#x38a;" horiz-adv-x="573" 
d="M20 1081l-81 15l81 315l136 -22zM227 1403h121v-1403h-121v1403z" />
    <glyph glyph-name="Omicrontonos" unicode="&#x38c;" horiz-adv-x="1423" 
d="M123 1081l-82 15l82 315l135 -22zM725 82q199 0 313 157t115 463q0 306 -115 462q-116 157 -314 157t-314 -158t-115 -464q-1 -305 115 -461t315 -156zM1280 703q0 -341 -153 -533t-405 -193q-252 1 -403 189t-151 530t153 536t405 194t402 -192q152 -190 152 -531z" />
    <glyph glyph-name="Upsilontonos" unicode="&#x38e;" horiz-adv-x="1202" 
d="M-20 1081l-82 15l82 315l135 -22zM735 0h-121v565l-460 838h137l383 -725h4l385 725h129l-457 -836v-567z" />
    <glyph glyph-name="Omegatonos" unicode="&#x38f;" horiz-adv-x="1466" 
d="M123 1081l-82 15l82 315l135 -22zM1176 711q0 305 -115 457t-318 153q-203 0 -315 -151t-113 -459q0 -424 316 -609v-102h-412v109h264v6q-295 182 -295 596q0 338 153 526t405 188t404 -188q153 -188 153 -526q0 -229 -80 -369t-222 -227v-6h271v-109h-412v102
q144 84 230 224t86 385z" />
    <glyph glyph-name="iotadieresistonos" unicode="&#x390;" horiz-adv-x="550" 
d="M322 1423l-80 17l63 303l123 -23zM399 1327q0 35 23 57q24 22 60 23q36 0 59 -23q23 -24 23 -58t-24 -56q-22 -22 -59 -23q-37 1 -59 23t-23 57zM-12 1327q0 35 22 57t60 23q38 0 60 -23q22 -24 22 -58t-23 -56t-59 -23q-36 1 -60 23q-22 22 -22 57zM215 1071h117v-809
q0 -80 22 -116t74 -64l-41 -98q-92 37 -132 96t-40 170v821z" />
    <glyph glyph-name="Alpha" unicode="&#x391;" horiz-adv-x="1116" 
d="M555 1294l-258 -813h518l-256 813h-4zM969 0l-121 379h-584l-121 -379h-123l461 1403h154l461 -1403h-127z" />
    <glyph glyph-name="Beta" unicode="&#x392;" horiz-adv-x="1239" 
d="M346 1300v-509h285q139 1 214 69t75 193q0 248 -338 247h-236zM653 690h-307v-588h260q373 0 373 291q0 297 -326 297zM1044 1059q0 -254 -241 -309v-5q131 -20 217 -103t86 -245q0 -203 -143 -300t-385 -97h-353v1403h328q491 0 491 -344z" />
    <glyph glyph-name="Gamma" unicode="&#x393;" horiz-adv-x="976" 
d="M346 0h-121v1403h721l-14 -109h-586v-1294z" />
    <glyph glyph-name="uni0394" unicode="&#x394;" horiz-adv-x="1116" 
d="M555 1296l-379 -1192h760l-377 1192h-4zM1096 0h-1076l461 1403h154z" />
    <glyph glyph-name="Epsilon" unicode="&#x395;" horiz-adv-x="1052" 
d="M950 0h-725v1403h709l-14 -103h-574v-522h498v-102h-498v-574h604v-102z" />
    <glyph glyph-name="Zeta" unicode="&#x396;" horiz-adv-x="1044" 
d="M72 0v100l747 1198h-672v105h805v-100l-745 -1197h731l-14 -106h-852z" />
    <glyph glyph-name="Eta" unicode="&#x397;" horiz-adv-x="1351" 
d="M1126 0h-120v688h-660v-688h-121v1403h121v-612h660v612h120v-1403z" />
    <glyph glyph-name="Theta" unicode="&#x398;" horiz-adv-x="1398" 
d="M700 82q199 0 314 157q114 157 114 463t-114 462q-115 157 -314 157q-198 0 -314 -158t-116 -464q0 -305 116 -461t314 -156zM1255 703q-1 -341 -153 -533t-404 -193q-252 1 -404 189t-151 530q0 342 153 536q152 194 404 194t404 -191q151 -191 151 -532zM979 666h-559
v98h559v-98z" />
    <glyph glyph-name="Iota" unicode="&#x399;" horiz-adv-x="571" 
d="M225 1403h121v-1403h-121v1403z" />
    <glyph glyph-name="Kappa" unicode="&#x39a;" horiz-adv-x="1116" 
d="M225 1403h121v-1403h-121v1403zM934 1403h147l-581 -643l616 -760h-153l-609 754z" />
    <glyph glyph-name="Lambda" unicode="&#x39b;" horiz-adv-x="1095" 
d="M545 1294l-402 -1294h-123l451 1403h154l450 -1403h-127l-399 1294h-4z" />
    <glyph glyph-name="Mu" unicode="&#x39c;" horiz-adv-x="1595" 
d="M1452 0h-117l-71 711q-33 322 -47 561h-5l-356 -1106h-119l-364 1106h-4q-16 -231 -47 -561l-64 -711h-115l133 1403h168l351 -1088h8l344 1088h170z" />
    <glyph glyph-name="Nu" unicode="&#x39d;" horiz-adv-x="1376" 
d="M1036 573v830h115v-1403h-162l-661 1268h-4q16 -201 16 -441v-827h-115v1403h160l664 -1270h4q-17 241 -17 440z" />
    <glyph glyph-name="Xi" unicode="&#x39e;" horiz-adv-x="985" 
d="M225 672v112h539v-112h-539zM102 1403h791l-14 -113h-777v113zM889 0h-787v115h787v-115z" />
    <glyph glyph-name="Omicron" unicode="&#x39f;" horiz-adv-x="1398" 
d="M700 82q199 0 314 157q114 157 114 463t-114 462q-115 157 -314 157q-198 0 -314 -158t-116 -464q0 -305 116 -461t314 -156zM1255 703q-1 -341 -153 -533t-404 -193q-252 1 -404 189t-151 530q0 342 153 536q152 194 404 194t404 -191q151 -191 151 -532z" />
    <glyph glyph-name="Pi" unicode="&#x3a0;" horiz-adv-x="1351" 
d="M1126 0h-120v1296h-660v-1296h-121v1403h901v-1403z" />
    <glyph glyph-name="Rho" unicode="&#x3a1;" horiz-adv-x="1165" 
d="M346 1300v-651h213q193 0 295 74t102 260q0 317 -399 317h-211zM549 547h-203v-547h-121v1403h320q266 0 402 -100t136 -318q1 -438 -534 -438z" />
    <glyph glyph-name="Sigma" unicode="&#x3a3;" horiz-adv-x="927" 
d="M897 104v-104h-836v88l480 610l-480 617v88h836v-103h-688l442 -567v-67l-440 -562h686z" />
    <glyph glyph-name="Tau" unicode="&#x3a4;" horiz-adv-x="1021" 
d="M575 0h-120v1296h-414v107h950l-14 -107h-402v-1296z" />
    <glyph glyph-name="Upsilon" unicode="&#x3a5;" horiz-adv-x="1058" 
d="M592 0h-121v565l-461 838h137l383 -725h5l385 725h129l-457 -836v-567z" />
    <glyph glyph-name="Phi" unicode="&#x3a6;" horiz-adv-x="1622" 
d="M1393 709q0 265 -161 365q-140 87 -362 91v-917q523 12 523 461zM229 705q0 -266 161 -366q140 -87 362 -91v917q-523 -11 -523 -460zM752 1403h118v-143q649 -18 650 -551q0 -283 -176 -416t-474 -141v-152h-118v152q-649 23 -650 553q0 283 176 415t474 142v141z" />
    <glyph glyph-name="Chi" unicode="&#x3a7;" horiz-adv-x="1062" 
d="M526 838h4l330 565h135l-395 -643l453 -760h-144l-381 672h-4l-377 -672h-137l445 754l-389 649h143z" />
    <glyph glyph-name="Psi" unicode="&#x3a8;" horiz-adv-x="1376" 
d="M82 1403h121v-490q0 -369 426 -393v883h119v-883q426 25 426 393v490h120v-496q0 -215 -140 -344t-406 -143v-420h-119v420q-266 14 -407 142q-140 128 -140 345v496z" />
    <glyph glyph-name="uni03A9" unicode="&#x3a9;" horiz-adv-x="1441" 
d="M1151 711q-1 305 -115 457t-317 153q-203 0 -316 -151t-112 -459q0 -424 315 -609v-102h-411v109h264v6q-295 182 -295 596q0 338 152 526q153 188 405 188q253 0 405 -188t152 -526q0 -229 -80 -369t-221 -227v-6h270v-109h-411v102q145 84 230 224t85 385z" />
    <glyph glyph-name="Iotadieresis" unicode="&#x3aa;" horiz-adv-x="571" 
d="M395 1634q0 35 23 58q24 22 60 22t59 -22t23 -58t-24 -58q-22 -22 -59 -22t-59 22t-23 58zM10 1634q0 35 23 58q23 22 59 22t60 -22q22 -22 22 -58t-22 -58t-60 -22t-60 22t-22 58zM225 1403h121v-1403h-121v1403z" />
    <glyph glyph-name="Upsilondieresis" unicode="&#x3ab;" horiz-adv-x="1058" 
d="M639 1634q0 35 23 58q24 22 60 22t58 -22t23 -58q0 -36 -23 -58q-24 -22 -60 -22t-58 22t-23 58zM254 1634q0 35 22 58q23 22 60 22q38 0 60 -22t22 -58t-23 -58t-59 -22t-60 22q-22 22 -22 58zM592 0h-121v565l-461 838h137l383 -725h5l385 725h129l-457 -836v-567z" />
    <glyph glyph-name="alphatonos" unicode="&#x3ac;" horiz-adv-x="1179" 
d="M598 1227l-80 16l74 334l123 -23zM518 993q-118 1 -190 -117t-72 -342t67 -340t179 -116t190 99t131 360q-53 248 -121 352t-184 104zM133 530q0 260 99 412q100 152 270 152t252 -102t123 -318h4l92 385l119 -35l-162 -485l94 -340q23 -78 84 -103l-47 -112
q-49 10 -79 39t-48 100l-62 258h-4q-59 -221 -146 -312q-86 -91 -242 -91t-252 146t-95 406z" />
    <glyph glyph-name="epsilontonos" unicode="&#x3ad;" horiz-adv-x="974" 
d="M537 1227l-80 16l73 334l123 -23zM299 806q0 -89 71 -143t187 -55h111l-15 -94h-106q-131 0 -211 -52t-80 -162t75 -168t204 -58q180 0 325 108l64 -76q-164 -129 -394 -129q-174 0 -286 84t-111 236q0 111 70 179t186 89v4q-213 66 -213 244q0 133 104 207t280 74
q174 0 319 -101l-64 -75q-129 80 -258 80t-193 -52q-64 -51 -65 -140z" />
    <glyph glyph-name="etatonos" unicode="&#x3ae;" horiz-adv-x="1196" 
d="M627 1227l-80 16l74 334l122 -23zM231 0v682q0 209 -47 379l113 16q31 -92 41 -190q137 207 358 207q150 0 218 -82t67 -244v-1171l-115 -17v1168q0 131 -48 189t-152 58q-174 0 -318 -229v-766h-117z" />
    <glyph glyph-name="iotatonos" unicode="&#x3af;" horiz-adv-x="550" 
d="M303 1227l-80 16l74 334l123 -23zM215 1071h117v-809q0 -80 22 -116t74 -64l-41 -98q-92 37 -132 96t-40 170v821z" />
    <glyph glyph-name="upsilondieresistonos" unicode="&#x3b0;" horiz-adv-x="1157" 
d="M625 1423l-80 17l63 303l123 -23zM702 1327q0 35 23 57t59 23q36 0 60 -23q22 -24 22 -58t-22 -56t-60 -23q-38 1 -60 23t-22 57zM291 1327q1 35 23 57t59 23q37 0 59 -23q22 -24 23 -58q0 -34 -23 -56q-24 -22 -60 -23q-36 1 -58 23t-23 57zM993 592q0 -213 -41 -328
q-40 -115 -110 -174q-133 -113 -292 -113q-159 -1 -247 91t-88 268v735h117v-721q0 -274 219 -274q147 0 235 114t88 356t-57 525h119q57 -266 57 -479z" />
    <glyph glyph-name="alpha" unicode="&#x3b1;" horiz-adv-x="1179" 
d="M518 993q-118 1 -190 -117t-72 -342t67 -340t179 -116t190 99t131 360q-53 248 -121 352t-184 104zM133 530q0 260 99 412q100 152 270 152t252 -102t123 -318h4l92 385l119 -35l-162 -485l94 -340q23 -78 84 -103l-47 -112q-49 10 -79 39t-48 100l-62 258h-4
q-59 -221 -146 -312q-86 -91 -242 -91t-252 146t-95 406z" />
    <glyph glyph-name="beta" unicode="&#x3b2;" horiz-adv-x="1173" 
d="M682 1427q-168 0 -281 -145t-129 -483q352 137 469 232t117 222q0 78 -47 126t-129 48zM608 76q150 0 239 98t89 275q0 360 -315 360q-129 0 -351 -107v-18q0 -304 81 -456t257 -152zM154 732q0 388 152 589q153 201 382 201q137 0 214 -75t77 -195t-81 -206t-257 -155
v-6q420 0 420 -432q0 -209 -127 -342t-326 -134q-240 -1 -347 183t-107 572z" />
    <glyph glyph-name="gamma" unicode="&#x3b3;" horiz-adv-x="942" 
d="M483 -174q0 -102 29 -234l-94 -12q-43 134 -43 234t33 225q-90 381 -181 603q-90 222 -227 411l113 41q233 -299 364 -922h4l330 915l121 -24l-406 -1024q-43 -111 -43 -213z" />
    <glyph glyph-name="delta" unicode="&#x3b4;" horiz-adv-x="1161" 
d="M905 476q0 194 -76 286q-76 94 -278 184q-303 -125 -303 -450q0 -201 86 -311q86 -109 242 -109t242 103q87 103 87 297zM1028 476q0 -224 -122 -362q-122 -136 -333 -136t-331 140t-119 378q0 348 342 489q-129 63 -178 121t-49 145q0 119 99 195t276 76t315 -111
l-68 -74q-115 90 -244 90q-130 0 -194 -50t-64 -122q0 -73 51 -115t209 -110q218 -94 314 -212t96 -342z" />
    <glyph glyph-name="epsilon" unicode="&#x3b5;" horiz-adv-x="974" 
d="M299 806q0 -89 71 -143t187 -55h111l-15 -94h-106q-131 0 -211 -52t-80 -162t75 -168t204 -58q180 0 325 108l64 -76q-164 -129 -394 -129q-174 0 -286 84t-111 236q0 111 70 179t186 89v4q-213 66 -213 244q0 133 104 207t280 74q174 0 319 -101l-64 -75
q-129 80 -258 80t-193 -52q-64 -51 -65 -140z" />
    <glyph glyph-name="zeta" unicode="&#x3b6;" horiz-adv-x="786" 
d="M807 -113q0 -193 -283 -331l-49 77q97 55 151 109t54 128q0 73 -51 116t-172 86q-186 68 -266 166q-79 98 -79 288t132 397q131 208 358 386l-2 4q-57 -27 -125 -27q-213 0 -317 178l84 52q51 -76 108 -110t150 -34q131 0 268 109l59 -66q-297 -274 -444 -485t-147 -412
q0 -147 62 -223t216 -134t224 -114t69 -160z" />
    <glyph glyph-name="eta" unicode="&#x3b7;" horiz-adv-x="1196" 
d="M231 0v682q0 209 -47 379l113 16q31 -92 41 -190q137 207 358 207q150 0 218 -82t67 -244v-1171l-115 -17v1168q0 131 -48 189t-152 58q-174 0 -318 -229v-766h-117z" />
    <glyph glyph-name="theta" unicode="&#x3b8;" horiz-adv-x="1150" 
d="M578 1423q-162 -1 -240 -151t-84 -469h643q-5 319 -81 469t-238 151zM575 76q162 0 240 154t82 481h-643q4 -323 82 -479t239 -156zM133 752q0 374 114 572t334 198q221 0 329 -200t108 -566q0 -778 -445 -779q-440 1 -440 775z" />
    <glyph glyph-name="iota" unicode="&#x3b9;" horiz-adv-x="550" 
d="M215 1071h117v-809q0 -80 22 -116t74 -64l-41 -98q-92 37 -132 96t-40 170v821z" />
    <glyph glyph-name="kappa" unicode="&#x3ba;" horiz-adv-x="1003" 
d="M342 1061v-1061h-117v1065q0 274 -51 442l115 15q53 -158 53 -461zM817 1094l101 -45l-429 -465l379 -418q63 -70 115 -84l-47 -100q-39 8 -70 30t-90 92l-422 478z" />
    <glyph glyph-name="lambda" unicode="&#x3bb;" horiz-adv-x="976" 
d="M170 -23l-119 25l381 1102h43q-45 156 -117 222t-235 99l16 97q211 -41 311 -134t146 -319q92 -457 171 -684t189 -369l-118 -39q-109 145 -184 369t-152 655h-4z" />
    <glyph glyph-name="uni03BC" unicode="&#x3bc;" horiz-adv-x="1187" 
d="M846 1071h117v-715q0 -172 57 -356l-100 -18q-41 90 -56 223q-137 -227 -338 -228q-150 0 -211 121l-6 -2q25 -119 25 -223v-276l-109 -13v1487h117v-741q0 -254 199 -254q84 0 164 66t141 163v766z" />
    <glyph glyph-name="nu" unicode="&#x3bd;" horiz-adv-x="944" 
d="M0 1057l115 37q115 -140 205 -404t141 -581h4l336 985l112 -25l-389 -1069h-135q-84 397 -174 650t-215 407z" />
    <glyph glyph-name="xi" unicode="&#x3be;" horiz-adv-x="868" 
d="M572 1522q173 0 319 -101l-64 -75q-129 80 -257 80t-192 -66q-64 -64 -65 -170q0 -106 68 -172t184 -66h121l-14 -94h-117q-133 0 -227 -81t-94 -231t85 -232q87 -82 263 -144q176 -60 246 -118t71 -165q0 -193 -283 -331l-49 77q97 55 151 109t54 128q0 73 -51 116
t-167 85q-116 41 -188 77t-134 90q-122 106 -119 307q0 143 78 236q79 93 212 128v4q-211 78 -210 283q0 142 103 234t276 92z" />
    <glyph glyph-name="omicron" unicode="&#x3bf;" horiz-adv-x="1171" 
d="M585 76q157 0 243 118t85 343t-85 341t-240 117q-156 -1 -243 -117t-87 -341t85 -343t242 -118zM133 535q0 259 123 409t334 150t330 -148q118 -148 118 -407q0 -258 -122 -410t-332 -152t-331 150q-120 150 -120 408z" />
    <glyph glyph-name="pi" unicode="&#x3c0;" horiz-adv-x="1232" 
d="M113 1071h823q113 0 213 23l12 -97q-80 -23 -190 -24v-711q-1 -80 21 -116t75 -64l-41 -98q-92 37 -132 96t-40 170v723h-444v-973h-117v973h-180v98z" />
    <glyph glyph-name="rho" unicode="&#x3c1;" horiz-adv-x="1157" 
d="M311 532v-268q51 -84 127 -134t162 -50q299 0 299 458t-299 457q-289 0 -289 -463zM195 551q0 258 100 400q100 143 308 143q209 0 315 -144t106 -405q0 -262 -106 -415t-300 -153t-307 158v-538l-116 -17v971z" />
    <glyph glyph-name="sigma1" unicode="&#x3c2;" horiz-adv-x="940" 
d="M133 578q0 223 125 369q126 147 322 147t329 -111l-61 -80q-114 90 -262 90q-148 -1 -238 -111t-90 -296t71 -277q71 -90 227 -146q156 -55 224 -115t68 -163q0 -190 -283 -329l-49 77q98 55 152 109t53 127q0 72 -46 115t-175 90q-182 66 -275 173q-92 108 -92 331z" />
    <glyph glyph-name="sigma" unicode="&#x3c3;" horiz-adv-x="1185" 
d="M585 76q157 0 243 118t85 345q0 163 -54 283t-144 175q-244 -1 -350 -109q-107 -108 -107 -342t85 -352t242 -118zM133 536q0 259 130 404t383 145t437 31l21 -94q-96 -20 -270 -21q205 -143 204 -462q0 -258 -122 -410t-332 -152t-331 150q-120 150 -120 409z" />
    <glyph glyph-name="tau" unicode="&#x3c4;" horiz-adv-x="897" 
d="M674 971h-182v-709q0 -80 22 -116t74 -64l-41 -98q-92 37 -132 96t-40 170v721h-365v100h660q115 0 215 23l12 -99q-88 -24 -223 -24z" />
    <glyph glyph-name="upsilon" unicode="&#x3c5;" horiz-adv-x="1157" 
d="M993 592q0 -213 -41 -328q-40 -115 -110 -174q-133 -113 -292 -113q-159 -1 -247 91t-88 268v735h117v-721q0 -274 219 -274q147 0 235 114t88 356t-57 525h119q57 -266 57 -479z" />
    <glyph glyph-name="phi" unicode="&#x3c6;" horiz-adv-x="1509" 
d="M803 676v-604q240 12 342 127t102 353t-56 343q-56 106 -172 106q-116 -1 -166 -79t-50 -246zM283 524q0 -236 94 -338q94 -104 313 -114v622q0 399 326 400q178 0 264 -131t86 -418q0 -541 -563 -565v-383l-113 -17v400q-282 10 -404 137t-122 401t110 553h117
q-108 -311 -108 -547z" />
    <glyph glyph-name="chi" unicode="&#x3c7;" horiz-adv-x="907" 
d="M463 467h4l297 627l113 -23l-349 -686l359 -768l-113 -37l-309 703h-4l-314 -703l-112 27l362 766q-69 186 -179 372t-218 306l113 43q209 -246 350 -627z" />
    <glyph glyph-name="psi" unicode="&#x3c8;" horiz-adv-x="1531" 
d="M205 408v663h117v-649q0 -170 97 -253t302 -93v989q0 274 -51 442l108 15q55 -164 56 -461v-985q217 12 316 124t99 350t-57 521h119q57 -266 57 -533q0 -268 -137 -406t-397 -152v-383l-113 -17v400q-248 10 -382 120t-134 308z" />
    <glyph glyph-name="omega" unicode="&#x3c9;" horiz-adv-x="1632" 
d="M1468 502q0 -290 -98 -408q-98 -117 -250 -117q-248 0 -305 246h-4q-57 -246 -309 -246q-147 0 -243 117q-95 118 -95 408t110 569h119q-111 -317 -111 -555t59 -338q57 -102 167 -102t180 79t70 257v315l116 16v-331q0 -178 66 -257t176 -79t172 99t62 339t-111 557h119
q110 -279 110 -569z" />
    <glyph glyph-name="iotadieresis" unicode="&#x3ca;" horiz-adv-x="550" 
d="M385 1368q0 36 23 58q24 22 60 22t58 -23t23 -57q0 -34 -23 -58q-24 -22 -60 -22t-58 22t-23 58zM0 1368q0 36 23 58t59 22t60 -23q22 -23 22 -57t-23 -58q-23 -22 -59 -22t-60 22q-22 22 -22 58zM215 1071h117v-809q0 -80 22 -116t74 -64l-41 -98q-92 37 -132 96
t-40 170v821z" />
    <glyph glyph-name="upsilondieresis" unicode="&#x3cb;" horiz-adv-x="1157" 
d="M688 1368q0 36 23 58t59 22t60 -23q22 -23 22 -57t-23 -58q-23 -22 -59 -22t-60 22q-22 22 -22 58zM303 1368q0 36 23 58q24 22 60 22t58 -23t23 -57q0 -34 -23 -58q-24 -22 -60 -22t-58 22t-23 58zM993 592q0 -213 -41 -328q-40 -115 -110 -174q-133 -113 -292 -113
q-159 -1 -247 91t-88 268v735h117v-721q0 -274 219 -274q147 0 235 114t88 356t-57 525h119q57 -266 57 -479z" />
    <glyph glyph-name="omicrontonos" unicode="&#x3cc;" horiz-adv-x="1171" 
d="M614 1227l-79 16l73 334l123 -23zM585 76q157 0 243 118t85 343t-85 341t-240 117q-156 -1 -243 -117t-87 -341t85 -343t242 -118zM133 535q0 259 123 409t334 150t330 -148q118 -148 118 -407q0 -258 -122 -410t-332 -152t-331 150q-120 150 -120 408z" />
    <glyph glyph-name="upsilontonos" unicode="&#x3cd;" horiz-adv-x="1157" 
d="M606 1227l-80 16l74 334l123 -23zM993 592q0 -213 -41 -328q-40 -115 -110 -174q-133 -113 -292 -113q-159 -1 -247 91t-88 268v735h117v-721q0 -274 219 -274q147 0 235 114t88 356t-57 525h119q57 -266 57 -479z" />
    <glyph glyph-name="omegatonos" unicode="&#x3ce;" horiz-adv-x="1632" 
d="M844 1227l-80 16l74 334l123 -23zM1468 502q0 -290 -98 -408q-98 -117 -250 -117q-248 0 -305 246h-4q-57 -246 -309 -246q-147 0 -243 117q-95 118 -95 408t110 569h119q-111 -317 -111 -555t59 -338q57 -102 167 -102t180 79t70 257v315l116 16v-331q0 -178 66 -257
t176 -79t172 99t62 339t-111 557h119q110 -279 110 -569z" />
    <glyph glyph-name="uni0401" unicode="&#x401;" horiz-adv-x="1052" 
d="M690 1634q0 35 23 58q23 22 59 22t60 -22q22 -22 22 -58t-23 -58t-59 -22t-60 22q-22 22 -22 58zM305 1634q0 35 23 58q24 22 60 22t58 -22t23 -58q0 -36 -23 -58q-24 -22 -60 -22t-58 22t-23 58zM950 0h-725v1403h709l-14 -103h-574v-522h498v-102h-498v-574h604v-102z
" />
    <glyph glyph-name="uni0402" unicode="&#x402;" horiz-adv-x="1452" 
d="M1219 457q0 309 -295 309q-106 0 -200 -37t-149 -92v-637h-120v1296h-414v107h950l-14 -107h-402v-551q152 125 373 125q391 0 391 -407v-293q1 -195 -71 -289t-250 -162l-33 97q131 51 182 130t52 220v291z" />
    <glyph glyph-name="uni0403" unicode="&#x403;" horiz-adv-x="976" 
d="M426 1550l-41 70l363 190l65 -106zM346 0h-121v1403h721l-14 -109h-586v-1294z" />
    <glyph glyph-name="uni0404" unicode="&#x404;" horiz-adv-x="1138" 
d="M827 670h-559q6 -292 126 -440t302 -148t314 113l67 -82q-149 -135 -389 -135t-392 188q-152 190 -153 535q0 345 156 535t380 189q224 0 376 -125l-72 -79q-127 102 -296 102t-287 -136t-132 -415h559v-102z" />
    <glyph glyph-name="uni0405" unicode="&#x405;" horiz-adv-x="1112" 
d="M561 1321q-135 0 -219 -60t-84 -169t72 -168t274 -122t309 -153t107 -268t-130 -291t-353 -113q-285 0 -465 170l71 84q166 -150 394 -149q162 0 259 80t97 214t-78 200q-77 66 -285 130t-303 148q-94 84 -94 234t118 244q118 93 306 93q240 1 416 -149l-74 -80
q-143 125 -338 125z" />
    <glyph glyph-name="uni0406" unicode="&#x406;" horiz-adv-x="571" 
d="M225 1403h121v-1403h-121v1403z" />
    <glyph glyph-name="uni0407" unicode="&#x407;" horiz-adv-x="571" 
d="M395 1634q0 35 23 58q24 22 60 22t59 -22t23 -58t-24 -58q-22 -22 -59 -22t-59 22t-23 58zM10 1634q0 35 23 58q23 22 59 22t60 -22q22 -22 22 -58t-22 -58t-60 -22t-60 22t-22 58zM225 1403h121v-1403h-121v1403z" />
    <glyph glyph-name="uni0408" unicode="&#x408;" horiz-adv-x="589" 
d="M244 168v1235h121v-1231q0 -195 -72 -289t-250 -162l-33 97q131 51 183 130q51 79 51 220z" />
    <glyph glyph-name="uni0409" unicode="&#x409;" horiz-adv-x="1839" 
d="M1051 754v-652h209q192 0 286 77t94 254t-100 249t-287 72h-202zM1051 1403v-547h192q524 0 524 -420q0 -436 -528 -436h-309v1296h-457l-51 -419q-43 -348 -82 -513t-91 -242t-163 -145l-55 97q80 55 120 122q78 131 148 683l66 524h686z" />
    <glyph glyph-name="uni040A" unicode="&#x40a;" horiz-adv-x="1894" 
d="M1106 721v-619h209q193 0 287 72t94 244t-100 238t-287 65h-203zM1106 823h192q254 0 390 -93t135 -312q0 -218 -135 -318t-394 -100h-309v721h-639v-721h-121v1403h121v-580h639v580h121v-580z" />
    <glyph glyph-name="uni040B" unicode="&#x40b;" horiz-adv-x="1452" 
d="M575 0h-120v1296h-414v107h950l-14 -107h-402v-551q154 127 373 127q391 0 391 -407v-465h-120v459q0 309 -295 309q-106 0 -200 -37t-149 -94v-637z" />
    <glyph glyph-name="uni040C" unicode="&#x40c;" horiz-adv-x="1116" 
d="M467 1550l-41 70l362 190l66 -106zM225 1403h121v-612h148l454 612h133l-481 -643l516 -760h-139l-469 688h-162v-688h-121v1403z" />
    <glyph glyph-name="uni040E" unicode="&#x40e;" horiz-adv-x="1067" 
d="M546 1567q-108 0 -176 60q-67 60 -81 140l78 21q51 -125 176 -125t176 125l78 -21q-15 -82 -79 -141t-172 -59zM20 1403h134l411 -922h4l365 922h123l-414 -1014q-86 -213 -172 -293t-291 -119l-16 95q160 35 228 95t140 226h-47z" />
    <glyph glyph-name="uni040F" unicode="&#x40f;" horiz-adv-x="1343" 
d="M225 1403h121v-1299h651v1299h121v-1403h-383v-297h-92l-27 297h-391v1403z" />
    <glyph glyph-name="uni0410" unicode="&#x410;" horiz-adv-x="1116" 
d="M555 1294l-258 -813h518l-256 813h-4zM969 0l-121 379h-584l-121 -379h-123l461 1403h154l461 -1403h-127z" />
    <glyph glyph-name="uni0411" unicode="&#x411;" horiz-adv-x="1165" 
d="M346 733v-631h219q195 0 293 77t98 247t-103 239t-294 68h-213zM346 836h203q535 0 534 -410q0 -426 -538 -426h-320v1403h721l-14 -107h-586v-460z" />
    <glyph glyph-name="uni0412" unicode="&#x412;" horiz-adv-x="1239" 
d="M346 1300v-509h285q139 1 214 69t75 193q0 248 -338 247h-236zM653 690h-307v-588h260q373 0 373 291q0 297 -326 297zM1044 1059q0 -254 -241 -309v-5q131 -20 217 -103t86 -245q0 -203 -143 -300t-385 -97h-353v1403h328q491 0 491 -344z" />
    <glyph glyph-name="uni0413" unicode="&#x413;" horiz-adv-x="976" 
d="M346 0h-121v1403h721l-14 -109h-586v-1294z" />
    <glyph glyph-name="uni0414" unicode="&#x414;" horiz-adv-x="1255" 
d="M909 104v1194h-436l-51 -421q-49 -397 -94 -550t-131 -223h712zM0 104h70q90 72 134 216t95 559l66 524h665v-1299h86v-401h-92l-27 297h-878l-27 -297h-92v401z" />
    <glyph glyph-name="uni0415" unicode="&#x415;" horiz-adv-x="1052" 
d="M950 0h-725v1403h709l-14 -103h-574v-522h498v-102h-498v-574h604v-102z" />
    <glyph glyph-name="uni0416" unicode="&#x416;" horiz-adv-x="1529" 
d="M709 1403h112v-612h154l379 612h121l-394 -643l428 -760h-131l-389 688h-168v-688h-112v688h-168l-391 -688h-130l429 760l-394 643h127l373 -612h154v612z" />
    <glyph glyph-name="uni0417" unicode="&#x417;" horiz-adv-x="1089" 
d="M473 807q133 1 229 65t96 186t-79 192q-80 70 -215 71q-188 0 -344 -137l-68 78q180 164 418 163q186 0 301 -98q115 -97 115 -241t-72 -213t-197 -103v-4q133 -18 221 -114t89 -274q0 -180 -134 -290t-352 -111q-127 -1 -241 49t-189 144l80 70q141 -158 352 -158
q162 0 258 82q97 82 97 232t-89 232q-89 83 -257 83h-125l14 96h92z" />
    <glyph glyph-name="uni0418" unicode="&#x418;" horiz-adv-x="1366" 
d="M346 1403v-727q0 -301 -16 -543h4l649 1270h158v-1403h-121v725q0 342 16 543h-4l-645 -1268h-162v1403h121z" />
    <glyph glyph-name="uni0419" unicode="&#x419;" horiz-adv-x="1366" 
d="M683 1567q-105 0 -171 50t-84 120l78 20q57 -94 176 -94t176 94l78 -20q-18 -72 -83 -121t-170 -49zM346 1403v-727q0 -301 -16 -543h4l649 1270h158v-1403h-121v725q0 342 16 543h-4l-645 -1268h-162v1403h121z" />
    <glyph glyph-name="uni041A" unicode="&#x41a;" horiz-adv-x="1116" 
d="M225 1403h121v-612h148l454 612h133l-481 -643l516 -760h-139l-469 688h-162v-688h-121v1403z" />
    <glyph glyph-name="uni041B" unicode="&#x41b;" horiz-adv-x="1296" 
d="M1071 1403v-1403h-121v1296h-477l-51 -419q-43 -348 -82 -513t-91 -242t-163 -145l-55 97q80 55 120 122q78 131 148 683l66 524h706z" />
    <glyph glyph-name="uni041C" unicode="&#x41c;" horiz-adv-x="1595" 
d="M1452 0h-117l-71 711q-33 322 -47 561h-5l-356 -1106h-119l-364 1106h-4q-16 -231 -47 -561l-64 -711h-115l133 1403h168l351 -1088h8l344 1088h170z" />
    <glyph glyph-name="uni041D" unicode="&#x41d;" horiz-adv-x="1351" 
d="M1126 0h-120v688h-660v-688h-121v1403h121v-612h660v612h120v-1403z" />
    <glyph glyph-name="uni041E" unicode="&#x41e;" horiz-adv-x="1398" 
d="M700 82q199 0 314 157q114 157 114 463t-114 462q-115 157 -314 157q-198 0 -314 -158t-116 -464q0 -305 116 -461t314 -156zM1255 703q-1 -341 -153 -533t-404 -193q-252 1 -404 189t-151 530q0 342 153 536q152 194 404 194t404 -191q151 -191 151 -532z" />
    <glyph glyph-name="uni041F" unicode="&#x41f;" horiz-adv-x="1351" 
d="M1126 0h-120v1296h-660v-1296h-121v1403h901v-1403z" />
    <glyph glyph-name="uni0420" unicode="&#x420;" horiz-adv-x="1165" 
d="M346 1300v-651h213q193 0 295 74t102 260q0 317 -399 317h-211zM549 547h-203v-547h-121v1403h320q266 0 402 -100t136 -318q1 -438 -534 -438z" />
    <glyph glyph-name="uni0421" unicode="&#x421;" horiz-adv-x="1138" 
d="M683 1321q-175 0 -294 -152t-119 -463q0 -310 120 -466t304 -156t316 113l67 -84q-149 -135 -389 -135t-392 188q-152 190 -153 535q0 345 156 535t380 189q224 0 376 -125l-74 -83q-123 104 -298 104z" />
    <glyph glyph-name="uni0422" unicode="&#x422;" horiz-adv-x="1021" 
d="M575 0h-120v1296h-414v107h950l-14 -107h-402v-1296z" />
    <glyph glyph-name="uni0423" unicode="&#x423;" horiz-adv-x="1067" 
d="M20 1403h134l411 -922h4l365 922h123l-414 -1014q-86 -213 -172 -293t-291 -119l-16 95q160 35 228 95t140 226h-47z" />
    <glyph glyph-name="uni0424" unicode="&#x424;" horiz-adv-x="1642" 
d="M240 705q0 -277 136 -397t386 -130v1059q-522 -14 -522 -532zM1403 709q0 276 -137 399t-385 129v-1059q522 25 522 531zM762 1458h119v-125q301 -9 475 -159t174 -465t-175 -465t-474 -164v-125h-119v125q-649 33 -649 625q0 315 176 467t473 161v125z" />
    <glyph glyph-name="uni0425" unicode="&#x425;" horiz-adv-x="1062" 
d="M526 838h4l330 565h135l-395 -643l453 -760h-144l-381 672h-4l-377 -672h-137l445 754l-389 649h143z" />
    <glyph glyph-name="uni0426" unicode="&#x426;" horiz-adv-x="1343" 
d="M225 1403h121v-1299h651v1299h121v-1299h109v-401h-92l-27 297h-883v1403z" />
    <glyph glyph-name="uni0427" unicode="&#x427;" horiz-adv-x="1191" 
d="M846 1403h121v-1403h-121v639q-150 -127 -355 -127t-307 104t-102 304v483h121v-477q0 -309 301 -310q106 0 197 36t145 93v658z" />
    <glyph glyph-name="uni0428" unicode="&#x428;" horiz-adv-x="1873" 
d="M225 1403h121v-1299h535v1299h114v-1299h533v1299h121v-1403h-1424v1403z" />
    <glyph glyph-name="uni0429" unicode="&#x429;" horiz-adv-x="1873" 
d="M225 1403h121v-1299h535v1299h114v-1299h533v1299h121v-1299h108v-401h-92l-27 297h-1413v1403z" />
    <glyph glyph-name="uni042A" unicode="&#x42a;" horiz-adv-x="1269" 
d="M461 754v-652h219q197 0 294 78t97 254t-103 248t-294 72h-213zM461 856h203q535 0 534 -420q0 -436 -539 -436h-319v1296h-330v107h451v-547z" />
    <glyph glyph-name="uni042B" unicode="&#x42b;" horiz-adv-x="1615" 
d="M1270 1403h121v-1403h-121v1403zM346 754v-652h209q193 0 287 77t94 254t-100 249t-287 72h-203zM346 856h193q524 0 524 -420q0 -436 -528 -436h-310v1403h121v-547z" />
    <glyph glyph-name="uni042C" unicode="&#x42c;" horiz-adv-x="1155" 
d="M346 754v-652h219q197 0 294 78t97 254t-103 248t-294 72h-213zM346 856h203q535 0 534 -420q0 -436 -538 -436h-320v1403h121v-547z" />
    <glyph glyph-name="uni042D" unicode="&#x42d;" horiz-adv-x="1122" 
d="M490 1425q238 0 363 -176q126 -175 126 -539t-134 -548t-382 -184t-391 147l67 84q141 -127 324 -127q379 0 391 588h-555v102h553q-8 291 -104 421t-276 130t-312 -115l-74 78q166 139 404 139z" />
    <glyph glyph-name="uni042E" unicode="&#x42e;" horiz-adv-x="1800" 
d="M1122 82q192 0 300 156t108 464t-106 463q-106 156 -302 156q-194 0 -302 -157t-108 -465q0 -309 109 -463q108 -154 301 -154zM1132 1425q238 1 382 -189t143 -533t-145 -534t-391 -191t-390 184t-145 526h-240v-688h-121v1403h121v-612h242q20 299 162 467
q144 168 382 167z" />
    <glyph glyph-name="uni042F" unicode="&#x42f;" horiz-adv-x="1239" 
d="M893 690v610h-234q-201 0 -297 -74t-96 -236q0 -164 100 -232t285 -68h242zM893 590h-371l-309 -590h-141l338 621q-133 45 -202 132t-69 238q0 412 527 412h348v-1403h-121v590z" />
    <glyph glyph-name="uni0430" unicode="&#x430;" horiz-adv-x="1067" 
d="M745 547h-178q-350 0 -350 -242q1 -111 61 -169t173 -58q196 -1 294 194v275zM92 310q0 156 125 242q125 87 344 87h184v106q0 127 -60 187q-59 60 -195 61q-136 0 -289 -59l-33 92q172 68 338 68q356 0 356 -342v-519q0 -85 25 -121t78 -53l-27 -82q-78 11 -121 53
t-57 128v2q-109 -182 -338 -183q-154 1 -242 89t-88 244z" />
    <glyph glyph-name="uni0431" unicode="&#x431;" horiz-adv-x="1210" 
d="M647 932q-156 0 -257 -104t-107 -291v-21q0 -204 88 -322t243 -118t238 83q98 96 96 361q0 412 -301 412zM666 1028q192 0 302 -139t109 -367q0 -272 -124 -408q-125 -136 -335 -136t-332 154q-122 155 -122 443q0 162 13 278t51 221q75 208 298 281t373 171l49 -82
q-82 -57 -156 -92t-212 -79q-138 -43 -206 -143t-87 -323h4q104 221 375 221z" />
    <glyph glyph-name="uni0432" unicode="&#x432;" horiz-adv-x="1126" 
d="M342 621h248q233 0 233 189t-254 189q-127 0 -227 -18v-360zM610 526h-268v-430h211q156 0 241 47t85 164q-1 219 -269 219zM225 0v1057q174 37 344 37q171 0 275 -68t104 -209q0 -178 -184 -233v-4q240 -43 240 -271q0 -309 -474 -309h-305z" />
    <glyph glyph-name="uni0433" unicode="&#x433;" horiz-adv-x="860" 
d="M342 971v-971h-117v1071h635l-14 -100h-504z" />
    <glyph glyph-name="uni0434" unicode="&#x434;" horiz-adv-x="1167" 
d="M825 975h-413l-25 -295q-25 -287 -67 -406t-117 -176h622v877zM20 98h62q86 61 125 174t63 414l33 385h639v-973h94v-374h-86l-26 276h-791l-27 -276h-86v374z" />
    <glyph glyph-name="uni0435" unicode="&#x435;" horiz-adv-x="1101" 
d="M569 993q-139 0 -223 -102t-92 -309h608q-4 199 -79 305t-214 106zM605 78q155 0 280 108l55 -80q-141 -129 -353 -129q-212 1 -333 149t-121 404t117 410q118 154 316 154t306 -140t107 -387q0 -37 -4 -78h-721q10 -205 103 -308t248 -103z" />
    <glyph glyph-name="uni0436" unicode="&#x436;" horiz-adv-x="1304" 
d="M598 1071h109v-457h141l260 457h125l-289 -496l340 -575h-125l-309 524h-143v-524h-109v524h-145l-308 -524h-125l340 575l-288 496h125l260 -457h141v457z" />
    <glyph glyph-name="uni0437" unicode="&#x437;" horiz-adv-x="974" 
d="M400 76q320 0 319 223q0 215 -281 215h-125l11 94h94q124 0 190 54t66 143q0 90 -68 141t-207 51t-266 -86l-55 78q144 105 322 105t288 -74t109 -209q0 -180 -201 -240v-4q246 -43 246 -270q0 -152 -121 -236t-303 -84q-230 0 -367 119l62 78q127 -98 287 -98z" />
    <glyph glyph-name="uni0438" unicode="&#x438;" horiz-adv-x="1232" 
d="M1008 1071v-1071h-117v668q0 193 8 288l-539 -956h-135v1071h117v-598q0 -207 -10 -326l520 924h156z" />
    <glyph glyph-name="uni0439" unicode="&#x439;" horiz-adv-x="1232" 
d="M618 1280q-108 0 -176 65t-80 156l78 21q47 -146 176 -146t177 146l77 -21q-12 -94 -78 -158q-66 -63 -174 -63zM1008 1071v-1071h-117v668q0 193 8 288l-539 -956h-135v1071h117v-598q0 -207 -10 -326l520 924h156z" />
    <glyph glyph-name="uni043A" unicode="&#x43a;" horiz-adv-x="989" 
d="M342 522v-522h-117v1071h117v-455h121l342 455h133l-377 -496l428 -575h-139l-385 522h-123z" />
    <glyph glyph-name="uni043B" unicode="&#x43b;" horiz-adv-x="1171" 
d="M946 1071v-1071h-117v973h-436l-24 -293q-31 -379 -99 -515q-36 -75 -72 -111t-102 -77l-55 82q67 45 101 101q78 128 110 526l33 385h661z" />
    <glyph glyph-name="uni043C" unicode="&#x43c;" horiz-adv-x="1351" 
d="M1219 0h-117l-45 504q-18 197 -37 436h-4l-285 -807h-110l-293 803h-4q-8 -137 -25 -307l-51 -629h-115l96 1071h158l289 -801h4l281 801h157z" />
    <glyph glyph-name="uni043D" unicode="&#x43d;" horiz-adv-x="1230" 
d="M1006 0h-117v506h-547v-506h-117v1071h117v-469h547v469h117v-1071z" />
    <glyph glyph-name="uni043E" unicode="&#x43e;" horiz-adv-x="1171" 
d="M585 76q157 0 243 118t85 343t-85 341t-240 117q-156 -1 -243 -117t-87 -341t85 -343t242 -118zM133 535q0 259 123 409t334 150t330 -148q118 -148 118 -407q0 -258 -122 -410t-332 -152t-331 150q-120 150 -120 408z" />
    <glyph glyph-name="uni043F" unicode="&#x43f;" horiz-adv-x="1230" 
d="M1006 0h-117v973h-547v-973h-117v1071h781v-1071z" />
    <glyph glyph-name="uni0440" unicode="&#x440;" horiz-adv-x="1187" 
d="M631 80q299 0 299 457t-279 456q-182 0 -309 -217v-512q51 -84 127 -134t162 -50zM667 1094q388 0 388 -553q-1 -258 -107 -411t-299 -153t-307 158v-538l-117 -17v1491h101l8 -176q133 199 333 199z" />
    <glyph glyph-name="uni0441" unicode="&#x441;" horiz-adv-x="980" 
d="M586 993q-148 0 -238 -119t-90 -343q0 -225 89 -339t239 -114t266 94l57 -82q-137 -113 -337 -113q-200 1 -319 149q-120 148 -120 403t124 410q123 155 321 155t331 -111l-61 -80q-114 90 -262 90z" />
    <glyph glyph-name="uni0442" unicode="&#x442;" horiz-adv-x="868" 
d="M496 0h-117v971h-369v100h858l-12 -100h-360v-971z" />
    <glyph glyph-name="uni0443" unicode="&#x443;" horiz-adv-x="954" 
d="M31 1071h129l329 -977h5l305 977h125l-361 -1075q-61 -188 -159 -288t-285 -128l-17 96q154 29 229 104t122 220h-41z" />
    <glyph glyph-name="uni0444" unicode="&#x444;" horiz-adv-x="1662" 
d="M518 995q-124 -1 -192 -115t-68 -339q0 -465 250 -465q159 0 268 160v595q-102 164 -258 164zM1155 76q250 0 250 460t-240 459q-176 0 -278 -164v-595q108 -160 268 -160zM1530 541q0 -260 -92 -412t-267 -152t-284 140v-520l-111 -17v537q-109 -139 -284 -139t-267 151
q-92 152 -92 417t93 406q94 142 274 142t276 -148v576l111 -15v-561q102 147 297 148q346 0 346 -553z" />
    <glyph glyph-name="uni0445" unicode="&#x445;" horiz-adv-x="935" 
d="M469 494h-6l-303 -494h-140l377 571l-327 500h141l256 -422h4l260 422h137l-329 -496l376 -575h-141z" />
    <glyph glyph-name="uni0446" unicode="&#x446;" horiz-adv-x="1204" 
d="M205 1071h117v-973h540v973h117v-973h102v-374h-86l-26 276h-764v1071z" />
    <glyph glyph-name="uni0447" unicode="&#x447;" horiz-adv-x="1085" 
d="M743 1071h117v-1071h-117v485q-143 -129 -325 -129q-143 0 -219 83t-76 241v391h117v-377q0 -240 194 -239q170 0 309 135v481z" />
    <glyph glyph-name="uni0448" unicode="&#x448;" horiz-adv-x="1710" 
d="M225 1071h117v-973h457v973h112v-973h457v973h117v-1071h-1260v1071z" />
    <glyph glyph-name="uni0449" unicode="&#x449;" horiz-adv-x="1710" 
d="M225 1071h117v-973h457v973h112v-973h457v973h117v-973h102v-374h-86l-26 276h-1250v1071z" />
    <glyph glyph-name="uni044A" unicode="&#x44a;" horiz-adv-x="1071" 
d="M373 96h192q147 0 223 58t76 195t-77 193t-232 56h-182v-502zM547 0h-291v971h-266v100h383v-377h172q444 0 444 -340q0 -354 -442 -354z" />
    <glyph glyph-name="uni044B" unicode="&#x44b;" horiz-adv-x="1452" 
d="M1110 1071h117v-1071h-117v1071zM342 96h182q141 0 215 58t74 195t-74 193t-225 56h-172v-502zM506 0h-281v1071h117v-377h162q434 0 434 -340q0 -354 -432 -354z" />
    <glyph glyph-name="uni044C" unicode="&#x44c;" horiz-adv-x="1040" 
d="M342 96h193q147 0 223 58t76 195t-77 193t-233 56h-182v-502zM516 0h-291v1071h117v-377h172q444 0 444 -340q0 -354 -442 -354z" />
    <glyph glyph-name="uni044D" unicode="&#x44d;" horiz-adv-x="991" 
d="M432 76q289 0 301 422h-493v92h493q-14 406 -301 405q-154 0 -282 -104l-58 80q150 123 350 123t309 -146q107 -146 107 -407q0 -262 -110 -413t-311 -151q-202 0 -345 121l62 78q121 -100 278 -100z" />
    <glyph glyph-name="uni044E" unicode="&#x44e;" horiz-adv-x="1538" 
d="M1280 538q0 230 -80 344t-225 113q-145 1 -227 -113t-82 -345t79 -347q81 -114 227 -114t227 116t81 346zM1405 539q-1 -262 -117 -412t-315 -150q-199 -1 -313 139t-119 390h-199v-506h-117v1071h117v-471h201q14 234 130 364q115 130 309 130t308 -146t115 -409z" />
    <glyph glyph-name="uni044F" unicode="&#x44f;" horiz-adv-x="1116" 
d="M774 537v444q-113 16 -207 16q-291 0 -291 -239q0 -221 277 -221h221zM154 758q0 152 108 244t316 92q139 0 313 -37v-1057h-117v442h-282l-242 -442h-137l260 467q-219 70 -219 291z" />
    <glyph glyph-name="uni0451" unicode="&#x451;" horiz-adv-x="1101" 
d="M662 1368q0 36 22 58t60 22q36 0 59 -23t23 -57t-24 -58q-22 -22 -59 -22t-59 22t-22 58zM276 1368q0 36 23 58t59 22t60 -23q22 -23 22 -57t-22 -58q-22 -22 -60 -22t-60 22t-22 58zM569 993q-139 0 -223 -102t-92 -309h608q-4 199 -79 305t-214 106zM605 78
q155 0 280 108l55 -80q-141 -129 -353 -129q-212 1 -333 149t-121 404t117 410q118 154 316 154t306 -140t107 -387q0 -37 -4 -78h-721q10 -205 103 -308t248 -103z" />
    <glyph glyph-name="uni0452" unicode="&#x452;" horiz-adv-x="1210" 
d="M362 1346h377v-99h-377v-346q131 193 349 193q149 0 217 -82t67 -244v-768h-2q-2 -96 -20 -161q-19 -65 -63 -113t-87 -74q-43 -27 -125 -70l-45 90q86 43 128 77q94 76 98 269v730q1 131 -47 189t-152 58q-176 0 -318 -233v-762h-116v1247h-158v99h158v161l116 15v-176z
" />
    <glyph glyph-name="uni0453" unicode="&#x453;" horiz-adv-x="860" 
d="M365 1264l-41 69l372 215l66 -106zM342 971v-971h-117v1071h635l-14 -100h-504z" />
    <glyph glyph-name="uni0454" unicode="&#x454;" horiz-adv-x="980" 
d="M756 498h-500q6 -207 96 -315q90 -107 236 -107t264 94l57 -80q-137 -113 -337 -113q-200 1 -319 149q-120 148 -120 403t124 410q123 155 321 155t331 -111l-61 -78q-113 90 -256 90q-142 0 -232 -104t-102 -301h498v-92z" />
    <glyph glyph-name="uni0455" unicode="&#x455;" horiz-adv-x="937" 
d="M846 275q0 -140 -117 -219t-285 -79q-231 0 -383 132l66 79q139 -113 317 -112q125 0 201 52t76 148t-57 144q-56 48 -222 93q-166 44 -246 115q-80 70 -79 192q0 122 102 198q101 76 277 76t309 -90l-53 -86q-122 78 -252 78t-196 -47q-66 -46 -66 -128t58 -129t219 -88
t246 -115t85 -214z" />
    <glyph glyph-name="uni0456" unicode="&#x456;" horiz-adv-x="546" 
d="M272 1313q-40 1 -64 25t-24 61t25 61t63 25q38 0 64 -25q24 -26 24 -62t-24 -61q-25 -24 -64 -24zM215 1071h117v-1071h-117v1071z" />
    <glyph glyph-name="uni0457" unicode="&#x457;" horiz-adv-x="546" 
d="M383 1368q0 36 23 58q24 22 60 22t58 -23t23 -57q0 -34 -23 -58q-24 -22 -60 -22t-58 22t-23 58zM-2 1368q0 36 22 58t60 22t60 -23t22 -57t-23 -58q-23 -22 -59 -22t-60 22q-22 22 -22 58zM215 1071h117v-1071h-117v1071z" />
    <glyph glyph-name="uni0458" unicode="&#x458;" horiz-adv-x="546" 
d="M215 1071h117v-1030q0 -109 -16 -181t-62 -124q-45 -51 -89 -81t-130 -73l-45 90q129 63 177 133t48 232v1034zM272 1313q-40 1 -64 25t-24 61t25 61t63 25q38 0 64 -25q24 -26 24 -62t-24 -61q-25 -24 -64 -24z" />
    <glyph glyph-name="uni0459" unicode="&#x459;" horiz-adv-x="1603" 
d="M926 96h182q141 0 215 58t74 195t-74 193t-225 56h-172v-502zM1090 0h-281v973h-416l-24 -293q-31 -379 -99 -515q-36 -75 -72 -111t-102 -77l-55 82q67 45 101 101q78 128 110 526l33 385h641v-377h161q434 0 435 -340q0 -354 -432 -354z" />
    <glyph glyph-name="uni045A" unicode="&#x45a;" horiz-adv-x="1662" 
d="M985 96h182q143 0 216 50t73 172t-73 170q-73 46 -226 47h-172v-439zM1149 0h-281v535h-526v-535h-117v1071h117v-440h526v440h117v-440h162q434 0 434 -307q0 -324 -432 -324z" />
    <glyph glyph-name="uni045B" unicode="&#x45b;" horiz-adv-x="1210" 
d="M362 1346h377v-99h-377v-346q131 193 349 193q149 0 217 -82t67 -244v-768h-116v748q1 131 -47 189t-152 58q-176 0 -318 -233v-762h-116v1247h-158v99h158v161l116 15v-176z" />
    <glyph glyph-name="uni045C" unicode="&#x45c;" horiz-adv-x="989" 
d="M391 1264l-41 69l373 215l65 -106zM342 522v-522h-117v1071h117v-455h121l342 455h133l-377 -496l428 -575h-139l-385 522h-123z" />
    <glyph glyph-name="uni045E" unicode="&#x45e;" horiz-adv-x="954" 
d="M488 1280q-108 0 -175 65q-68 65 -80 156l78 21q47 -146 176 -146t177 146l77 -21q-12 -94 -78 -158q-67 -63 -175 -63zM31 1071h129l329 -977h5l305 977h125l-361 -1075q-61 -188 -159 -288t-285 -128l-17 96q154 29 229 104t122 220h-41z" />
    <glyph glyph-name="uni045F" unicode="&#x45f;" horiz-adv-x="1224" 
d="M225 1071h117v-973h541v973h116v-1071h-329v-276h-86l-27 276h-332v1071z" />
    <glyph glyph-name="uni0462" unicode="&#x462;" horiz-adv-x="1394" 
d="M788 733h-213v-631h220q195 0 293 77t98 247t-104 238t-294 69zM455 0v1296h-414v107h950l-14 -107h-402v-460h203q535 0 535 -410q0 -426 -539 -426h-319z" />
    <glyph glyph-name="uni0463" unicode="&#x463;" horiz-adv-x="1071" 
d="M362 96h193q147 0 223 58t76 195t-77 193t-232 56h-183v-502zM537 0h-291v926h-158v94h158v248l116 14v-262h287l-16 -94h-271v-232h173q444 0 444 -340q0 -354 -442 -354z" />
    <glyph glyph-name="uni0472" unicode="&#x472;" horiz-adv-x="1398" 
d="M699 1321q-187 0 -301 -141t-128 -416h856q-12 274 -126 416t-301 141zM700 82q193 0 307 147t121 437h-858q6 -292 122 -438t308 -146zM1255 703q-1 -341 -153 -533t-404 -193q-252 1 -404 189t-151 530q0 342 153 536q152 194 404 194t404 -191q151 -191 151 -532z" />
    <glyph glyph-name="uni0473" unicode="&#x473;" horiz-adv-x="1171" 
d="M589 995q-145 0 -233 -104t-98 -305h653q-8 201 -92 305t-230 104zM584 76q150 0 234 106t93 314h-653q8 -204 92 -312t234 -108zM133 535q0 259 123 409t334 150t330 -148q118 -148 118 -407q0 -258 -122 -410t-332 -152t-331 150q-120 150 -120 408z" />
    <glyph glyph-name="uni0474" unicode="&#x474;" horiz-adv-x="1130" 
d="M997 1421l123 -22q-70 -100 -116 -244l-377 -1155h-135l-461 1403h131l395 -1270h4l332 1063q43 139 104 225z" />
    <glyph glyph-name="uni0475" unicode="&#x475;" horiz-adv-x="968" 
d="M31 1071h127l325 -962h4l246 741q53 154 107 229l118 -16q-72 -106 -116 -236l-289 -827h-139z" />
    <glyph glyph-name="uni0490" unicode="&#x490;" horiz-adv-x="976" 
d="M346 0h-121v1403h613v258h108v-258l-14 -109h-586v-1294z" />
    <glyph glyph-name="uni0491" unicode="&#x491;" horiz-adv-x="860" 
d="M342 971v-971h-117v1071h529v229h106v-229l-14 -100h-504z" />
    <glyph glyph-name="uni0492" unicode="&#x492;" horiz-adv-x="997" 
d="M367 0h-121v766h-201v98h201v539h721l-15 -109h-585v-430h340v-98h-340v-766z" />
    <glyph glyph-name="uni0493" unicode="&#x493;" horiz-adv-x="880" 
d="M362 971v-344h254v-95h-254v-532h-116v532h-142v95h142v444h635l-15 -100h-504z" />
    <glyph glyph-name="uni0496" unicode="&#x496;" horiz-adv-x="1542" 
d="M709 1403h112v-612h154l379 612h121l-394 -643l369 -656h92v-401h-92l-27 297h-45l-389 688h-168v-688h-112v688h-168l-391 -688h-130l429 760l-394 643h127l373 -612h154v612z" />
    <glyph glyph-name="uni0497" unicode="&#x497;" horiz-adv-x="1316" 
d="M598 1071h109v-457h141l260 457h125l-289 -496l281 -477h92v-374h-86l-27 276h-45l-309 524h-143v-524h-109v524h-145l-308 -524h-125l340 575l-288 496h125l260 -457h141v457z" />
    <glyph glyph-name="uni0498" unicode="&#x498;" horiz-adv-x="1089" 
d="M606 -291q0 49 -41 69t-121 21l13 178q-260 10 -406 193l80 70q141 -158 352 -158q162 0 258 82q97 82 97 232t-89 232q-89 83 -257 83h-125l14 96h92q133 1 229 65t96 186t-79 192q-80 70 -215 71q-188 0 -344 -137l-68 78q180 164 418 163q186 0 301 -98
q115 -97 115 -241t-72 -213t-197 -103v-4q133 -18 221 -114t89 -266q0 -171 -114 -280t-302 -124v-119q172 -18 172 -156q-1 -82 -63 -126t-161 -44t-171 39l45 80q53 -29 119 -29q114 0 114 82z" />
    <glyph glyph-name="uni0499" unicode="&#x499;" horiz-adv-x="974" 
d="M535 -291q0 49 -41 69t-121 21l12 181q-209 6 -334 116l62 78q127 -98 287 -98q320 0 319 223q0 215 -281 215h-125l11 94h94q124 0 190 54t66 143q0 90 -68 141t-207 51t-266 -86l-55 78q144 105 322 105t288 -74t109 -209q0 -180 -201 -240v-4q246 -43 246 -270
q0 -137 -102 -220t-261 -95v-119q172 -18 172 -156q0 -82 -62 -126q-61 -44 -161 -44t-172 39l45 80q53 -29 119 -29q115 0 115 82z" />
    <glyph glyph-name="uni049A" unicode="&#x49a;" horiz-adv-x="1116" 
d="M225 1403h121v-612h148l454 612h133l-481 -643l444 -656h103v-401h-92l-27 297h-51l-469 688h-162v-688h-121v1403z" />
    <glyph glyph-name="uni049B" unicode="&#x49b;" horiz-adv-x="989" 
d="M1010 98v-374h-86l-27 276h-47l-385 522h-123v-522h-117v1071h117v-455h121l342 455h133l-377 -496l354 -477h95z" />
    <glyph glyph-name="uni049C" unicode="&#x49c;" horiz-adv-x="1136" 
d="M524 317h-88v373h-92v-690h-119v1403h119v-615h92v369h88v-369h41l389 615h127l-415 -643l450 -760h-135l-401 690h-56v-373z" />
    <glyph glyph-name="uni049D" unicode="&#x49d;" horiz-adv-x="1009" 
d="M508 236h-78v286h-90v-522h-115v1071h115v-457h90v236h78v-236h51l256 457h123l-281 -496l332 -575h-127l-299 522h-55v-286z" />
    <glyph glyph-name="uni04A0" unicode="&#x4a0;" horiz-adv-x="1230" 
d="M461 688v-688h-121v1296h-330v107h451v-612h147l455 612h133l-481 -643l516 -760h-139l-469 688h-162z" />
    <glyph glyph-name="uni04A1" unicode="&#x4a1;" horiz-adv-x="1019" 
d="M373 522v-522h-117v971h-266v100h383v-455h121l342 455h133l-377 -496l428 -575h-139l-385 522h-123z" />
    <glyph glyph-name="uni04A2" unicode="&#x4a2;" horiz-adv-x="1351" 
d="M1126 1403v-1299h109v-401h-92l-27 297h-110v688h-660v-688h-121v1403h121v-612h660v612h120z" />
    <glyph glyph-name="uni04A3" unicode="&#x4a3;" horiz-adv-x="1230" 
d="M1006 1071v-973h102v-374h-86l-27 276h-106v506h-547v-506h-117v1071h117v-469h547v469h117z" />
    <glyph glyph-name="uni04AA" unicode="&#x4aa;" horiz-adv-x="1138" 
d="M683 1321q-175 0 -294 -152t-119 -463q0 -310 120 -466t304 -156t316 113l67 -84q-70 -63 -153 -95q-201 -109 -201 -270q0 -53 32 -87q31 -34 95 -34t108 25l35 -78q-74 -37 -172 -37t-156 54t-59 143q0 135 154 248q-41 -4 -66 -5q-246 -1 -398 189t-153 535
q0 345 156 535t380 189q224 0 376 -125l-74 -83q-123 104 -298 104z" />
    <glyph glyph-name="uni04AB" unicode="&#x4ab;" horiz-adv-x="980" 
d="M586 993q-148 0 -238 -119t-90 -343q0 -225 89 -339t239 -114t266 94l57 -82q-78 -63 -172 -90q-170 -106 -170 -252q0 -53 32 -87q31 -34 95 -34t109 25l35 -78q-74 -37 -172 -37t-157 54q-58 54 -58 143q0 139 135 243h-4q-209 1 -329 149t-120 403t124 410
q123 155 321 155t331 -111l-61 -80q-114 90 -262 90z" />
    <glyph glyph-name="uni04AE" unicode="&#x4ae;" horiz-adv-x="1058" 
d="M592 0h-121v565l-461 838h137l383 -725h5l385 725h129l-457 -836v-567z" />
    <glyph glyph-name="uni04AF" unicode="&#x4af;" horiz-adv-x="958" 
d="M31 1071h129l323 -917h4l318 917h123l-387 -1046v-428l-113 -17v440z" />
    <glyph glyph-name="uni04B0" unicode="&#x4b0;" horiz-adv-x="1058" 
d="M864 553h-272v-553h-121v553h-278v98h231l-414 752h137l383 -725h5l385 725h129l-412 -752h227v-98z" />
    <glyph glyph-name="uni04B1" unicode="&#x4b1;" horiz-adv-x="958" 
d="M766 111v-91h-225v-423l-113 -17v440h-219v91h184l-362 960h129l323 -917h4l318 917h123l-357 -960h195z" />
    <glyph glyph-name="uni04B2" unicode="&#x4b2;" horiz-adv-x="1062" 
d="M1090 104v-401h-93l-26 297h-62l-381 672h-4l-377 -672h-137l445 754l-389 649h143l317 -565h4l330 565h135l-395 -643l389 -656h101z" />
    <glyph glyph-name="uni04B3" unicode="&#x4b3;" horiz-adv-x="935" 
d="M942 98v-374h-86l-27 276h-55l-305 494h-6l-303 -494h-140l377 571l-327 500h141l256 -422h4l260 422h137l-329 -496l311 -477h92z" />
    <glyph glyph-name="uni04B8" unicode="&#x4b8;" horiz-adv-x="1191" 
d="M559 297h-88v215q-190 2 -290 106q-99 104 -99 302v483h121v-477q0 -291 268 -310v521h88v-519q182 18 287 127v658h121v-1403h-121v639q-121 -104 -287 -123v-219z" />
    <glyph glyph-name="uni04B9" unicode="&#x4b9;" horiz-adv-x="1085" 
d="M512 184h-82v172q-307 0 -307 324v391h117v-377q0 -240 190 -239v323h82v-315q125 25 231 127v481h117v-1071h-117v485q-111 -100 -231 -120v-181z" />
    <glyph glyph-name="uni04BA" unicode="&#x4ba;" horiz-adv-x="1222" 
d="M346 0h-121v1403h121v-658q154 127 373 127q391 0 391 -407v-465h-121v459q0 309 -295 309q-106 0 -200 -37t-148 -94v-637z" />
    <glyph glyph-name="uni04BB" unicode="&#x4bb;" horiz-adv-x="1169" 
d="M342 0h-117v1507l117 15v-789q131 193 348 193q150 0 218 -82t67 -244v-600h-117v567q0 139 -46 199t-153 61q-176 0 -317 -233v-594z" />
    <glyph glyph-name="uni04C0" unicode="&#x4c0;" horiz-adv-x="571" 
d="M225 1403h121v-1403h-121v1403z" />
    <glyph glyph-name="uni04CB" unicode="&#x4cb;" horiz-adv-x="1191" 
d="M846 1403h121v-1299h108v-401h-92l-27 297h-110v639q-150 -127 -355 -127t-307 104t-102 304v483h121v-477q0 -309 301 -310q106 0 197 36t145 93v658z" />
    <glyph glyph-name="uni04CC" unicode="&#x4cc;" horiz-adv-x="1085" 
d="M743 1071h117v-973h103v-374h-86l-27 276h-107v485q-143 -129 -325 -129q-143 0 -219 83t-76 241v391h117v-377q0 -240 194 -239q170 0 309 135v481z" />
    <glyph glyph-name="uni04CF" unicode="&#x4cf;" horiz-adv-x="555" 
d="M322 180q0 -102 84 -102q37 0 75 14l33 -84q-55 -31 -129 -31q-180 0 -180 199v1331l117 15v-1342z" />
    <glyph glyph-name="uni04D8" unicode="&#x4d8;" horiz-adv-x="1349" 
d="M662 78q190 0 301 142t118 439h-835q4 -295 114 -438q112 -143 302 -143zM123 676q0 37 4 78h952q-8 301 -111 436t-302 135t-357 -127l-67 80q174 147 434 147q530 0 530 -723q0 -354 -143 -539t-397 -185t-398 178q-144 180 -145 520z" />
    <glyph glyph-name="uni04D9" unicode="&#x4d9;" horiz-adv-x="1101" 
d="M539 76q293 0 309 413h-608q4 -199 80 -306t219 -107zM532 1094q213 0 325 -146t112 -408q0 -261 -116 -412q-117 -151 -315 -151q-198 1 -307 141t-108 386q0 37 4 78h721q-20 413 -335 413q-155 0 -280 -108l-55 78q141 129 354 129z" />
    <glyph glyph-name="uni04E2" unicode="&#x4e2;" horiz-adv-x="1366" 
d="M930 1729v-97h-479v97h479zM346 1403v-727q0 -301 -16 -543h4l649 1270h158v-1403h-121v725q0 342 16 543h-4l-645 -1268h-162v1403h121z" />
    <glyph glyph-name="uni04E3" unicode="&#x4e3;" horiz-adv-x="1232" 
d="M856 1462v-96h-479v96h479zM1008 1071v-1071h-117v668q0 193 8 288l-539 -956h-135v1071h117v-598q0 -207 -10 -326l520 924h156z" />
    <glyph glyph-name="uni04E8" unicode="&#x4e8;" horiz-adv-x="1398" 
d="M699 1321q-187 0 -301 -141t-128 -416h856q-12 274 -126 416t-301 141zM700 82q193 0 307 147t121 437h-858q6 -292 122 -438t308 -146zM1255 703q-1 -341 -153 -533t-404 -193q-252 1 -404 189t-151 530q0 342 153 536q152 194 404 194t404 -191q151 -191 151 -532z" />
    <glyph glyph-name="uni04E9" unicode="&#x4e9;" horiz-adv-x="1171" 
d="M589 995q-145 0 -233 -104t-98 -305h653q-8 201 -92 305t-230 104zM584 76q150 0 234 106t93 314h-653q8 -204 92 -312t234 -108zM133 535q0 259 123 409t334 150t330 -148q118 -148 118 -407q0 -258 -122 -410t-332 -152t-331 150q-120 150 -120 408z" />
    <glyph glyph-name="uni04EE" unicode="&#x4ee;" horiz-adv-x="1067" 
d="M782 1729v-97h-479v97h479zM20 1403h134l411 -922h4l365 922h123l-414 -1014q-86 -213 -172 -293t-291 -119l-16 95q160 35 228 95t140 226h-47z" />
    <glyph glyph-name="uni04EF" unicode="&#x4ef;" horiz-adv-x="954" 
d="M727 1462v-96h-479v96h479zM31 1071h129l329 -977h5l305 977h125l-361 -1075q-61 -188 -159 -288t-285 -128l-17 96q154 29 229 104t122 220h-41z" />
    <glyph glyph-name="uni2007" unicode="&#x2007;" horiz-adv-x="1118" 
 />
    <glyph glyph-name="uni2008" unicode="&#x2008;" horiz-adv-x="573" 
 />
    <glyph glyph-name="uni200B" unicode="&#x200b;" horiz-adv-x="0" 
 />
    <glyph glyph-name="figuredash" unicode="&#x2012;" 
d="M1085 606h-1024v107h1024v-107z" />
    <glyph glyph-name="endash" unicode="&#x2013;" horiz-adv-x="1064" 
d="M983 586h-901v106h901v-106z" />
    <glyph glyph-name="emdash" unicode="&#x2014;" horiz-adv-x="1556" 
d="M1475 586h-1393v106h1393v-106z" />
    <glyph glyph-name="afii00208" unicode="&#x2015;" horiz-adv-x="1064" 
d="M983 586h-901v106h901v-106z" />
    <glyph glyph-name="quoteleft" unicode="&#x2018;" horiz-adv-x="552" 
d="M332 1187q0 -44 -27 -70q-27 -25 -69 -25t-68 26q-25 26 -25 61q0 36 29 99l119 258h78l-74 -283q37 -22 37 -66z" />
    <glyph glyph-name="quoteright" unicode="&#x2019;" horiz-adv-x="552" 
d="M201 1441q1 43 27 69t69 26t68 -26t25 -62t-30 -98l-118 -258h-78l74 282q-37 23 -37 67z" />
    <glyph glyph-name="quotesinglbase" unicode="&#x201a;" horiz-adv-x="552" 
d="M201 56q0 44 26 70q27 26 70 26t68 -26t25 -62t-30 -99l-118 -258h-78l74 283q-37 22 -37 66z" />
    <glyph glyph-name="quotedblleft" unicode="&#x201c;" horiz-adv-x="870" 
d="M670 1187q0 -44 -27 -70q-27 -25 -70 -25t-67 26t-25 61q0 36 29 99l119 258h78l-74 -283q37 -22 37 -66zM352 1187q0 -44 -26 -70q-26 -25 -70 -25q-43 0 -68 26q-24 26 -24 61q0 36 29 99l118 258h78l-74 -283q37 -22 37 -66z" />
    <glyph glyph-name="quotedblright" unicode="&#x201d;" horiz-adv-x="870" 
d="M518 1441q0 43 27 69t69 26t68 -26q25 -26 25 -62t-29 -98l-119 -258h-78l74 282q-37 23 -37 67zM201 1441q1 43 27 69t69 26t68 -26t25 -62t-30 -98l-118 -258h-78l74 282q-37 23 -37 67z" />
    <glyph glyph-name="quotedblbase" unicode="&#x201e;" horiz-adv-x="870" 
d="M518 56q0 44 27 70t69 26t68 -26q25 -26 25 -62t-29 -99l-119 -258h-78l74 283q-37 22 -37 66zM201 56q0 44 26 70q27 26 70 26t68 -26t25 -62t-30 -99l-118 -258h-78l74 283q-37 22 -37 66z" />
    <glyph glyph-name="dagger" unicode="&#x2020;" horiz-adv-x="1024" 
d="M928 928h-361v-928h-114v928h-359v104h359v330h114v-330h361v-104z" />
    <glyph glyph-name="daggerdbl" unicode="&#x2021;" horiz-adv-x="1024" 
d="M928 354h-361v-354h-114v354h-359v105h359v469h-359v104h359v330h114v-330h361v-104h-361v-469h361v-105z" />
    <glyph glyph-name="bullet" unicode="&#x2022;" horiz-adv-x="819" 
d="M410 487q-90 -1 -152 61t-63 152q0 90 62 150q63 60 153 61q90 0 152 -61q62 -62 62 -152t-62 -150t-152 -61z" />
    <glyph glyph-name="ellipsis" unicode="&#x2026;" horiz-adv-x="1720" 
d="M1335 74q0 40 27 68t72 28q46 0 72 -27t26 -69t-27 -70q-27 -27 -71 -27t-72 28q-27 28 -27 69zM188 74q0 40 27 68t72 28t71 -27t27 -69q0 -42 -27 -70q-28 -27 -72 -27t-71 28t-27 69zM762 74q0 40 26 68t72 28q45 0 72 -27q26 -27 26 -69t-26 -70q-26 -27 -72 -27
q-45 0 -72 28q-26 28 -26 69z" />
    <glyph glyph-name="perthousand" unicode="&#x2030;" horiz-adv-x="2355" 
d="M1251 643q139 0 223 -89t82 -243q0 -153 -82 -243t-222 -90t-223 88q-83 90 -83 244t83 243q83 90 222 90zM1251 553q-190 0 -190 -244q0 -98 46 -170t144 -71q190 0 191 243q0 98 -46 170q-47 72 -145 72zM489 1384q139 0 223 -89t83 -243q0 -154 -83 -243
q-82 -90 -222 -90t-223 89t-83 243q0 153 83 243t222 90zM489 1294q-190 0 -190 -243q0 -98 46 -170t144 -72q190 0 191 244q0 98 -46 170q-47 71 -145 71zM1393 1384l-947 -1429l-90 53l947 1430zM1968 643q139 0 222 -89t83 -243q0 -153 -83 -243t-222 -90t-222 88
q-83 90 -83 244t83 243q83 90 222 90zM1968 553q-190 0 -190 -244q0 -98 46 -170t144 -71q190 0 191 243q0 98 -46 170q-47 72 -145 72z" />
    <glyph glyph-name="guilsinglleft" unicode="&#x2039;" horiz-adv-x="696" 
d="M553 1014l-279 -416l279 -414l-72 -49l-338 422v84l338 422z" />
    <glyph glyph-name="guilsinglright" unicode="&#x203a;" horiz-adv-x="696" 
d="M143 1014l72 49l338 -422v-84l-338 -422l-72 49l277 414z" />
    <glyph glyph-name="fraction" unicode="&#x2044;" horiz-adv-x="102" 
d="M510 1479l-827 -1639l-91 43l830 1639z" />
    <glyph glyph-name="uni2070" unicode="&#x2070;" horiz-adv-x="819" 
d="M598 1081q0 181 -46 267t-143 86t-143 -85t-45 -269q0 -184 45 -270q45 -87 142 -87q190 0 190 358zM707 1080q0 -214 -77 -328t-220 -113q-143 0 -222 115q-78 114 -78 326t78 327t220 115t221 -114q78 -114 78 -328z" />
    <glyph glyph-name="uni2074" unicode="&#x2074;" horiz-adv-x="819" 
d="M602 653h-100v209h-398v72l283 594l98 -33l-260 -545h277l10 238h90v-238h113v-88h-113v-209z" />
    <glyph glyph-name="uni2075" unicode="&#x2075;" horiz-adv-x="819" 
d="M279 1419v-243q68 25 143 24q121 0 198 -74q76 -74 76 -196t-86 -207q-86 -84 -232 -84t-255 104l63 58q84 -78 190 -78t159 57q53 58 53 154t-49 142t-129 46t-156 -37h-80v422h479l-10 -88h-364z" />
    <glyph glyph-name="uni2076" unicode="&#x2076;" horiz-adv-x="819" 
d="M436 1135q-117 0 -209 -117q1 -137 53 -216t143 -79t138 60q47 61 47 159t-47 146t-125 47zM459 1434q-88 0 -154 -92t-80 -250q101 125 223 125t196 -71t73 -202q0 -131 -81 -218q-80 -87 -222 -87t-218 112t-77 297q0 185 92 329t256 145q106 0 209 -68l-51 -72
q-78 52 -166 52z" />
    <glyph glyph-name="uni2077" unicode="&#x2077;" horiz-adv-x="819" 
d="M125 1417v90h571v-75l-401 -799l-100 37l389 747h-459z" />
    <glyph glyph-name="uni2078" unicode="&#x2078;" horiz-adv-x="819" 
d="M242 1308q0 -62 43 -98t164 -73q133 76 133 166q0 63 -46 98t-125 35t-124 -33t-45 -95zM618 879q0 71 -54 109t-193 83q-170 -68 -170 -188q0 -76 56 -118q55 -42 151 -42t153 42t57 114zM688 1309q0 -131 -168 -199q207 -74 207 -227q0 -106 -87 -175t-232 -69t-231 69
q-85 69 -85 175q0 74 60 135t145 86q-162 72 -162 203q0 100 81 157q81 58 196 58q116 0 196 -54t80 -159z" />
    <glyph glyph-name="uni2079" unicode="&#x2079;" horiz-adv-x="819" 
d="M371 967q-123 -1 -201 73t-78 197t89 204t221 81t211 -100t79 -257q0 -401 -512 -534l-22 80q385 106 432 370l-4 2q-91 -116 -215 -116zM377 1051q129 0 209 108q-4 125 -54 200t-138 75q-89 0 -140 -52t-51 -143q0 -90 49 -139t125 -49z" />
    <glyph glyph-name="uni207A" unicode="&#x207a;" horiz-adv-x="819" 
d="M457 1305v-187h202v-86h-202v-186h-101v186h-198v86h198v187h101z" />
    <glyph glyph-name="uni207B" unicode="&#x207b;" horiz-adv-x="819" 
d="M659 1030h-501v88h501v-88z" />
    <glyph glyph-name="uni207C" unicode="&#x207c;" horiz-adv-x="819" 
d="M659 926h-501v86h501v-86zM659 1137h-501v86h501v-86z" />
    <glyph glyph-name="uni207D" unicode="&#x207d;" horiz-adv-x="819" 
d="M258 1075q0 309 234 586l69 -41q-197 -248 -197 -540t197 -550l-69 -38q-113 133 -174 269q-60 136 -60 314z" />
    <glyph glyph-name="uni207E" unicode="&#x207e;" horiz-adv-x="819" 
d="M561 1075q0 -178 -60 -314t-173 -269l-70 38q197 258 197 550t-197 540l70 41q233 -277 233 -586z" />
    <glyph glyph-name="uni2080" unicode="&#x2080;" horiz-adv-x="819" 
d="M598 25q0 182 -46 267t-143 85t-143 -85t-45 -268q0 -182 45 -270t142 -88q190 1 190 359zM408 465q142 1 221 -113q78 -114 78 -328t-77 -328t-220 -114t-222 115q-78 115 -78 327t78 326t220 115z" />
    <glyph glyph-name="uni2081" unicode="&#x2081;" horiz-adv-x="819" 
d="M537 -403h-109v741l-223 -125l-47 72l295 166h84v-854z" />
    <glyph glyph-name="uni2082" unicode="&#x2082;" horiz-adv-x="819" 
d="M129 -406v74q362 351 417 459q28 55 28 111t-44 97q-43 40 -116 40q-121 0 -221 -107l-72 49q129 145 297 146q118 1 192 -63t74 -170t-93 -218t-333 -331h440l-12 -87h-557z" />
    <glyph glyph-name="uni2083" unicode="&#x2083;" horiz-adv-x="819" 
d="M551 234q1 142 -185 143q-98 0 -208 -84l-52 61q126 111 266 111q140 1 215 -63t75 -142t-46 -131t-114 -70v-4q78 -18 130 -75t52 -156q0 -98 -87 -170t-239 -72t-276 119l63 59q94 -94 206 -94t168 46t56 126q0 166 -210 166h-66l16 80h43q74 0 134 41q59 41 59 109z
" />
    <glyph glyph-name="uni2084" unicode="&#x2084;" horiz-adv-x="819" 
d="M602 -403h-100v208h-398v72l283 594l98 -33l-260 -544h277l10 237h90v-237h113v-89h-113v-208z" />
    <glyph glyph-name="uni2085" unicode="&#x2085;" horiz-adv-x="819" 
d="M279 362v-243q68 25 143 24q121 1 198 -73q76 -74 76 -197t-86 -207t-232 -84t-255 105l63 57q84 -78 190 -78t158 58q54 58 54 153q0 96 -49 142q-49 47 -129 47t-156 -37h-80v422h479l-10 -89h-364z" />
    <glyph glyph-name="uni2086" unicode="&#x2086;" horiz-adv-x="819" 
d="M436 78q-117 0 -209 -117q1 -137 53 -216t143 -79t138 60t47 159q0 97 -47 145t-125 48zM460 377q-89 0 -155 -91t-80 -251q101 125 223 125t196 -71t73 -201q0 -130 -81 -218q-80 -88 -222 -88t-218 112t-77 297q0 185 92 329t256 145q106 0 209 -68l-51 -71
q-76 51 -165 51z" />
    <glyph glyph-name="uni2087" unicode="&#x2087;" horiz-adv-x="819" 
d="M125 360v91h571v-76l-401 -799l-100 37l389 747h-459z" />
    <glyph glyph-name="uni2088" unicode="&#x2088;" horiz-adv-x="819" 
d="M242 251q0 -62 43 -97t164 -74q133 76 133 166q0 63 -46 98t-125 35t-124 -33t-45 -95zM618 -178q0 72 -54 110t-193 82q-170 -68 -170 -188q0 -76 56 -118q55 -42 151 -42t153 42t57 114zM688 252q0 -131 -168 -199q207 -74 207 -227q0 -106 -87 -175t-232 -69t-231 69
q-85 69 -85 175q0 74 60 135t145 86q-162 72 -162 203q0 100 81 158t196 57q116 1 196 -53t80 -160z" />
    <glyph glyph-name="uni2089" unicode="&#x2089;" horiz-adv-x="819" 
d="M371 -90q-123 0 -201 74t-78 196t89 204q89 81 221 81t211 -100t79 -256q0 -401 -512 -535l-22 80q385 106 432 371l-4 2q-91 -117 -215 -117zM377 -6q129 0 209 108q-4 125 -54 200t-138 75q-89 0 -140 -52q-51 -53 -51 -143t49 -139t125 -49z" />
    <glyph glyph-name="uni208A" unicode="&#x208a;" horiz-adv-x="819" 
d="M457 248v-187h202v-86h-202v-186h-101v186h-198v86h198v187h101z" />
    <glyph glyph-name="uni208B" unicode="&#x208b;" horiz-adv-x="819" 
d="M659 -27h-501v88h501v-88z" />
    <glyph glyph-name="uni208C" unicode="&#x208c;" horiz-adv-x="819" 
d="M659 -131h-501v86h501v-86zM659 80h-501v86h501v-86z" />
    <glyph glyph-name="uni208D" unicode="&#x208d;" horiz-adv-x="819" 
d="M258 18q0 309 234 586l69 -41q-197 -248 -197 -540t197 -549l-69 -39q-113 133 -174 269q-60 136 -60 314z" />
    <glyph glyph-name="uni208E" unicode="&#x208e;" horiz-adv-x="819" 
d="M561 18q0 -178 -60 -314t-173 -269l-70 39q197 258 197 550t-197 539l70 41q233 -277 233 -586z" />
    <glyph glyph-name="Euro" unicode="&#x20ac;" horiz-adv-x="1024" 
d="M184 600v193h-151l24 100h140q35 242 153 367q119 124 297 124t301 -77l-53 -84q-104 61 -229 61q-295 0 -351 -391h519l-25 -100h-502v-193h465l-22 -100h-439q21 -218 103 -320t234 -102t282 106v-121q-119 -86 -301 -86q-182 1 -296 133t-143 390h-157l24 100h127z
" />
    <glyph glyph-name="uni2116" unicode="&#x2116;" horiz-adv-x="2181" 
d="M1038 676v727h113v-1403h-162l-661 1268h-4q16 -201 16 -543v-725h-115v1403h160l666 -1270h4q-17 242 -17 543zM2032 0h-678v98h678v-98zM1966 977q0 176 -70 266t-201 90q-130 0 -202 -90t-72 -267t70 -268q70 -92 201 -92q130 0 202 92t72 269zM1307 975
q0 207 105 327q104 120 284 120t281 -118t101 -325t-104 -329t-282 -122t-282 120q-103 120 -103 327z" />
    <glyph glyph-name="trademark" unicode="&#x2122;" horiz-adv-x="1843" 
d="M1575 623h-94l-21 391q-4 86 -4 264l-211 -565h-88l-217 567q0 -166 -4 -266l-18 -391h-93l39 778h117l221 -580l215 580h119zM500 623h-97v694h-260v84h623l-16 -84h-250v-694z" />
    <glyph glyph-name="Omega" unicode="&#x2126;" horiz-adv-x="1441" 
d="M1151 711q-1 305 -115 457t-317 153q-203 0 -316 -151t-112 -459q0 -424 315 -609v-102h-411v109h264v6q-295 182 -295 596q0 338 152 526q153 188 405 188q253 0 405 -188t152 -526q0 -229 -80 -369t-221 -227v-6h270v-109h-411v102q145 84 230 224t85 385z" />
    <glyph glyph-name="estimated" unicode="&#x212e;" horiz-adv-x="1935" 
d="M1479 764v391q-188 203 -522 203t-500 -203v-391h1022zM1776 684h-1319v-434q59 -90 209 -142t302 -52t297 50q146 51 226 146h117q-238 -276 -641 -277q-346 0 -577 205q-230 205 -230 519t235 527q236 212 570 212q335 0 573 -213t238 -541z" />
    <glyph glyph-name="onethird" unicode="&#x2153;" horiz-adv-x="1843" 
d="M1663 638q1 142 -185 142q-98 0 -208 -84l-51 62q127 111 282 110q123 0 198 -63t75 -141t-45 -132q-45 -53 -115 -69v-4q78 -17 130 -75t52 -156t-87 -171q-87 -71 -239 -71t-276 118l63 60q94 -94 206 -94t168 46t57 126q0 166 -211 166h-66l16 79h43q74 0 134 41
q59 42 59 110zM1401 1479l-828 -1639l-90 43l830 1639zM537 549h-109v741l-223 -125l-47 72l295 166h84v-854z" />
    <glyph glyph-name="twothirds" unicode="&#x2154;" horiz-adv-x="1843" 
d="M1450 487q74 0 133 41q59 42 59 110t-44 105t-123 37q-115 0 -226 -84l-51 62q125 111 283 110q123 0 197 -63t75 -141q0 -78 -45 -132q-45 -53 -115 -69v-4q78 -17 130 -75q53 -58 53 -156t-87 -171q-87 -71 -240 -71t-275 118l63 60q93 -94 205 -94t169 46
q56 46 56 126q0 166 -211 166h-65l16 79h43zM1401 1479l-828 -1639l-90 43l830 1639zM125 549v74q363 352 417 458q28 55 28 112t-44 97q-43 40 -116 39q-121 0 -222 -106l-71 49q129 145 297 145q118 0 192 -63t74 -169q0 -107 -93 -219t-333 -331h440l-12 -86h-557z" />
    <glyph glyph-name="uni2155" unicode="&#x2155;" horiz-adv-x="1843" 
d="M1354 766v-244q68 25 143 25q121 0 198 -74q77 -75 77 -197t-86 -206t-233 -84t-255 104l64 57q84 -77 189 -77t159 57q53 57 53 153t-49 143q-49 46 -128 46t-157 -37h-80v422h480l-11 -88h-364zM1370 1479l-827 -1639l-90 43l829 1639zM537 549h-109v741l-223 -125
l-47 72l295 166h84v-854z" />
    <glyph glyph-name="uni2156" unicode="&#x2156;" horiz-adv-x="1843" 
d="M1343 766v-244q68 25 144 25q121 0 197 -74q76 -75 77 -197q0 -122 -86 -206q-87 -84 -233 -84t-254 104l63 57q83 -77 189 -77t159 57t53 153t-48 143q-48 46 -128 46t-157 -37h-80v422h479l-10 -88h-365zM1421 1479l-827 -1639l-90 43l829 1639zM125 549v74
q363 352 417 458q28 55 28 112t-44 97q-43 40 -116 39q-121 0 -222 -106l-71 49q129 145 297 145q118 0 192 -63t74 -169q0 -107 -93 -219t-333 -331h440l-12 -86h-557z" />
    <glyph glyph-name="uni2157" unicode="&#x2157;" horiz-adv-x="1843" 
d="M1323 766v-244q68 25 143 25q121 0 198 -74q77 -75 77 -197t-86 -206t-233 -84t-255 104l64 57q84 -77 189 -77t159 57q53 57 53 153t-49 143q-49 46 -128 46t-157 -37h-79v422h479l-10 -88h-365zM1380 1479l-827 -1639l-90 43l829 1639zM356 1036q74 0 133 41t59 109
t-43 106q-43 37 -141 37t-208 -84l-52 62q125 111 283 110q123 0 198 -63q75 -64 75 -142t-46 -131q-45 -53 -114 -69v-4q78 -18 130 -76t52 -156t-87 -170t-239 -72t-276 119l63 60q94 -95 206 -95t168 46t56 127q0 166 -211 165h-65l16 80h43z" />
    <glyph glyph-name="uni2158" unicode="&#x2158;" horiz-adv-x="1843" 
d="M1323 766v-244q68 25 143 25q121 0 198 -74q77 -75 77 -197t-86 -206t-233 -84t-255 104l64 57q84 -77 189 -77t159 57q53 57 53 153t-49 143q-49 46 -128 46t-157 -37h-79v422h479l-10 -88h-365zM1391 1479l-828 -1639l-90 43l830 1639zM602 549h-100v209h-398v71
l283 594l98 -32l-260 -545h277l10 237h90v-237h113v-88h-113v-209z" />
    <glyph glyph-name="uni2159" unicode="&#x2159;" horiz-adv-x="1843" 
d="M1491 481q-117 0 -209 -116q2 -137 53 -217t143 -78q92 0 138 60q47 60 47 158t-47 146q-47 47 -125 47zM1514 780q-88 0 -154 -91t-80 -251q102 125 223 125q121 -1 195 -71t74 -201t-81 -218t-223 -87t-218 112t-76 296q0 186 92 330t256 144q106 0 209 -67l-52 -72
q-77 51 -165 51zM1370 1479l-827 -1639l-90 43l829 1639zM537 549h-109v741l-223 -125l-47 72l295 166h84v-854z" />
    <glyph glyph-name="uni215A" unicode="&#x215a;" horiz-adv-x="1843" 
d="M1452 481q-117 0 -209 -116q2 -137 53 -217q50 -80 142 -78q92 0 139 60t47 158t-47 146q-47 47 -125 47zM1476 780q-89 0 -155 -91t-80 -251q102 125 223 125q121 -1 195 -71t74 -201t-81 -218q-80 -87 -222 -87t-219 112t-77 296q0 186 93 330q92 144 256 144
q106 0 209 -67l-52 -72q-75 51 -164 51zM1380 1479l-827 -1639l-90 43l829 1639zM279 1315v-244q68 25 143 25q121 0 198 -74q76 -74 76 -197t-86 -207t-232 -84t-255 105l63 57q84 -78 190 -78t158 58q54 58 54 153q0 97 -49 143t-129 46t-156 -37h-80v422h479l-10 -88
h-364z" />
    <glyph glyph-name="oneeighth" unicode="&#x215b;" horiz-adv-x="1843" 
d="M1636 649q0 63 -46 99t-125 34q-79 0 -124 -33t-45 -95t43 -97t164 -74q133 76 133 166zM1673 225q0 72 -54 110t-194 83q-170 -68 -170 -189q1 -75 57 -117t151 -42t153 42t57 113zM1743 655q0 -131 -168 -198q207 -74 207 -228q0 -106 -87 -175q-87 -68 -233 -68
t-230 68q-85 68 -85 175q0 73 59 135t146 87q-162 72 -162 202q0 99 81 157t195 58t196 -54q81 -54 81 -159zM1370 1479l-827 -1639l-90 43l829 1639zM537 549h-109v741l-223 -125l-47 72l295 166h84v-854z" />
    <glyph glyph-name="threeeighths" unicode="&#x215c;" horiz-adv-x="1843" 
d="M1624 649q0 63 -46 99t-125 34q-79 0 -124 -33t-45 -95t43 -97t164 -74q133 76 133 166zM1661 225q0 72 -54 110t-194 83q-170 -68 -170 -189q0 -75 56 -117q55 -42 151 -42t154 42t57 113zM1731 655q0 -131 -168 -198q207 -74 206 -228q0 -106 -87 -175
q-87 -68 -232 -68t-230 68t-85 175q0 73 59 135t145 87q-162 72 -161 202q0 100 80 158q81 57 196 57t196 -54t81 -159zM1380 1479l-827 -1639l-90 43l829 1639zM356 1036q74 0 133 41t59 109t-43 106q-43 37 -141 37t-208 -84l-52 62q125 111 283 110q123 0 198 -63
q75 -64 75 -142t-46 -131q-45 -53 -114 -69v-4q78 -18 130 -76t52 -156t-87 -170t-239 -72t-276 119l63 60q94 -95 206 -95t168 46t56 127q0 166 -211 165h-65l16 80h43z" />
    <glyph glyph-name="fiveeighths" unicode="&#x215d;" horiz-adv-x="1843" 
d="M1307 654q0 -62 43 -97t163 -74q133 76 134 166q0 63 -46 99t-125 34q-79 0 -124 -33t-45 -95zM1683 225q0 72 -54 110t-193 83q-170 -68 -170 -189q0 -75 56 -117t152 -42t152 42q57 42 57 113zM1753 655q0 -131 -168 -198q207 -74 207 -228q0 -106 -87 -175
q-87 -68 -232 -68t-231 68q-85 69 -85 175q-1 73 59 135t146 87q-162 72 -162 202q0 99 81 157t196 58t195 -54t81 -159zM1391 1479l-828 -1639l-90 43l830 1639zM279 1315v-244q68 25 143 25q121 0 198 -74q76 -74 76 -197t-86 -207t-232 -84t-255 105l63 57
q84 -78 190 -78t158 58q54 58 54 153q0 97 -49 143t-129 46t-156 -37h-80v422h479l-10 -88h-364z" />
    <glyph glyph-name="seveneighths" unicode="&#x215e;" horiz-adv-x="1843" 
d="M1507 649q0 63 -46 99t-125 34q-79 0 -124 -33t-45 -95t43 -97t164 -74q133 76 133 166zM1544 225q0 72 -54 110t-194 83q-170 -68 -170 -189q0 -75 56 -117t152 -42q94 0 152 42t58 113zM1614 655q0 -131 -168 -198q207 -74 207 -228q0 -106 -87 -175q-86 -68 -232 -68
t-231 68t-85 175q0 73 59 135t146 87q-162 72 -162 202q0 99 81 157q82 58 196 58t195 -54t81 -159zM1237 1479l-827 -1639l-91 43l830 1639zM125 1313v90h571v-76l-401 -799l-100 37l389 748h-459z" />
    <glyph glyph-name="uni215F" unicode="&#x215f;" horiz-adv-x="1843" 
d="M1401 1479l-828 -1639l-90 43l830 1639zM537 549h-109v741l-223 -125l-47 72l295 166h84v-854z" />
    <glyph glyph-name="arrowleft" unicode="&#x2190;" horiz-adv-x="1843" 
d="M1556 725v-102h-1087l-2 -7q63 -47 145 -135l289 -323l-84 -74l-530 590l530 590l84 -74l-289 -324q-82 -88 -145 -135l2 -6h1087z" />
    <glyph glyph-name="arrowup" unicode="&#x2191;" horiz-adv-x="1843" 
d="M977 0h-111v1128l-6 2q-41 -55 -133 -141l-324 -289l-75 78l594 533l594 -533l-76 -78l-324 289q-80 68 -133 141l-6 -2v-1128z" />
    <glyph glyph-name="arrowright" unicode="&#x2192;" horiz-adv-x="1843" 
d="M287 623v102h1087l2 6q-63 47 -145 135l-289 324l84 74l530 -590l-530 -590l-84 74l289 323q82 88 145 135l-2 7h-1087z" />
    <glyph glyph-name="arrowdown" unicode="&#x2193;" horiz-adv-x="1843" 
d="M866 1270h111v-1129l6 -2q57 72 133 142l324 288l76 -77l-594 -533l-594 533l75 77l324 -288q92 -86 133 -142l6 2v1129z" />
    <glyph glyph-name="arrowboth" unicode="&#x2194;" horiz-adv-x="2621" 
d="M446 731l3 -6h1724l2 6q-63 47 -145 135l-289 324l84 74l530 -590l-530 -590l-84 74l289 323q80 88 145 137l-2 7h-1724l-3 -7q66 -49 146 -137l289 -323l-84 -74l-531 590l531 590l84 -74l-289 -324q-83 -88 -146 -135z" />
    <glyph glyph-name="arrowupdn" unicode="&#x2195;" horiz-adv-x="1843" 
d="M977 1559v-1725l6 -2q57 72 133 141l324 289l76 -78l-594 -532l-594 532l75 78l324 -289q98 -92 135 -141l6 2v1725l-6 2q-37 -49 -135 -142l-324 -289l-75 78l594 533l594 -533l-76 -78l-324 289q-80 68 -133 142z" />
    <glyph glyph-name="uni2196" unicode="&#x2196;" horiz-adv-x="1843" 
d="M1423 272l-75 -75l-793 794l-6 -4q14 -106 8 -194l-25 -435l-112 9l41 790l792 41l9 -102l-435 -25q-80 -6 -198 6l-2 -6z" />
    <glyph glyph-name="uni2197" unicode="&#x2197;" horiz-adv-x="1843" 
d="M496 197l-76 75l797 799l-3 6q-98 -12 -198 -6l-434 25l8 102l792 -41l41 -790l-112 -9l-25 435q-6 78 8 194l-6 4z" />
    <glyph glyph-name="uni2198" unicode="&#x2198;" horiz-adv-x="1843" 
d="M451 1026l81 82l734 -731l6 2q-14 92 -8 196l20 375l107 -6l-43 -735l-732 -39l-6 98l373 21q80 6 203 -6l4 6z" />
    <glyph glyph-name="uni2199" unicode="&#x2199;" horiz-adv-x="1843" 
d="M1309 1108l82 -82l-740 -737l4 -6q98 12 203 6l373 -21l-6 -98l-731 39l-43 735l106 6l21 -375q6 -80 -9 -196l6 -2z" />
    <glyph glyph-name="uni21E6" unicode="&#x21e6;" horiz-adv-x="2048" 
d="M1794 477v328h-1194v227l-387 -391l387 -391v227h1194zM1884 793v-304q0 -47 -29 -75t-73 -27h-1090v-360l-610 614l610 614v-360h1090q46 1 74 -27t28 -75z" />
    <glyph glyph-name="uni21E7" unicode="&#x21e7;" horiz-adv-x="1474" 
d="M565 66h344v1120h219l-391 387l-391 -387h219v-1120zM903 -25h-332q-47 0 -75 29t-27 74v1016h-346l614 610l615 -610h-346v-1016q0 -45 -28 -74t-75 -29z" />
    <glyph glyph-name="uni21E8" unicode="&#x21e8;" horiz-adv-x="2048" 
d="M254 805v-328h1194v-227l387 391l-387 391v-227h-1194zM164 489v304q0 47 29 75t73 27h1090v360l610 -614l-610 -614v360h-1090q-46 -1 -74 27t-28 75z" />
    <glyph glyph-name="uni21E9" unicode="&#x21e9;" horiz-adv-x="1474" 
d="M909 1446h-344v-1120h-219l391 -387l391 387h-219v1120zM571 1536h332q47 0 75 -29t28 -73v-1016h346l-615 -611l-614 611h346v1016q-1 46 27 74t75 28z" />
    <glyph glyph-name="uni21EA" unicode="&#x21ea;" horiz-adv-x="1474" 
d="M909 231h-344v-165h344v165zM565 608h344v578h219l-391 387l-391 -387h219v-578zM469 317h537v-239q0 -45 -28 -74t-75 -29h-332q-47 0 -75 29t-27 74v239zM1006 522h-537v572h-346l614 610l615 -610h-346v-572z" />
    <glyph glyph-name="partialdiff" unicode="&#x2202;" horiz-adv-x="1064" 
d="M537 76q287 0 297 438q-133 213 -308 213q-120 0 -198 -81q-78 -80 -78 -238t79 -245t208 -87zM129 404q0 198 110 310t265 111q194 0 327 -186q-23 526 -589 651l28 94q367 -78 526 -284t158 -578q0 -248 -110 -396t-295 -148q-184 0 -302 113q-118 114 -118 313z" />
    <glyph glyph-name="Delta" unicode="&#x2206;" horiz-adv-x="1116" 
d="M555 1296l-379 -1192h760l-377 1192h-4zM1096 0h-1076l461 1403h154z" />
    <glyph glyph-name="product" unicode="&#x220f;" horiz-adv-x="1372" 
d="M915 1266h-458v-1672l-111 -14v1686h-182v96h1044v-96h-182v-1672l-111 -14v1686z" />
    <glyph glyph-name="summation" unicode="&#x2211;" horiz-adv-x="1064" 
d="M913 104v-104h-763v88l454 590l-454 596v88h763v-102h-620l420 -545v-68l-418 -543h618z" />
    <glyph glyph-name="minus" unicode="&#x2212;" horiz-adv-x="1024" 
d="M881 586h-738v106h738v-106z" />
    <glyph glyph-name="uni2215" unicode="&#x2215;" horiz-adv-x="102" 
d="M510 1479l-827 -1639l-91 43l830 1639z" />
    <glyph glyph-name="uni2219" unicode="&#x2219;" horiz-adv-x="573" 
d="M188 647q0 41 27 69t72 28t71 -28q26 -26 27 -69q0 -43 -27 -69q-28 -26 -72 -27t-71 27t-27 69z" />
    <glyph glyph-name="radical" unicode="&#x221a;" horiz-adv-x="1064" 
d="M1249 1673h-295l-465 -1673h-131l-348 961l105 34l303 -862h4l446 1643h381v-103z" />
    <glyph glyph-name="infinity" unicode="&#x221e;" horiz-adv-x="1843" 
d="M533 915q-93 1 -155 -69t-63 -198q1 -128 61 -200t173 -71q113 0 187 75t126 212q-41 74 -74 120q-34 46 -98 88q-64 43 -157 43zM1312 377q94 -1 156 69t62 198t-60 200t-174 72q-112 0 -186 -76q-74 -74 -127 -211q41 -74 74 -120t97 -89t158 -43zM1300 270
q-252 0 -378 271q-129 -270 -383 -271q-156 0 -250 102t-94 274t98 274t250 102q252 0 379 -272q129 272 383 272q155 0 249 -102t94 -274t-98 -274t-250 -102z" />
    <glyph glyph-name="integral" unicode="&#x222b;" horiz-adv-x="593" 
d="M332 1487v-1649q0 -122 -67 -190t-187 -68t-221 55l39 91q84 -45 168 -45q84 1 116 39t33 118v1649q0 123 71 191t203 67q132 0 250 -57l-39 -91q-100 47 -202 48q-164 0 -164 -158z" />
    <glyph glyph-name="approxequal" unicode="&#x2248;" horiz-adv-x="1024" 
d="M668 383q-61 0 -170 46t-144 46q-98 0 -155 -90l-76 47q37 70 100 109t131 39t172 -46q106 -46 142 -47q98 0 155 91l78 -54q-77 -141 -233 -141zM668 737q-61 0 -170 46t-144 46q-98 0 -155 -90l-76 47q37 70 100 109t131 39t172 -46q106 -46 142 -46q98 0 155 90
l78 -53q-77 -142 -233 -142z" />
    <glyph glyph-name="notequal" unicode="&#x2260;" horiz-adv-x="1024" 
d="M881 406h-461l-150 -250l-75 43l124 207h-176v106h240l152 250h-392v106h457l150 248l75 -37l-127 -211h183v-106h-246l-152 -250h398v-106z" />
    <glyph glyph-name="lessequal" unicode="&#x2264;" horiz-adv-x="1024" 
d="M854 293l-711 338v102l711 338l45 -94l-633 -295l635 -291zM881 0h-738v109h738v-109z" />
    <glyph glyph-name="greaterequal" unicode="&#x2265;" horiz-adv-x="1024" 
d="M881 631l-711 -338l-47 98l635 291l-633 295l45 94l711 -338v-102zM881 0h-738v109h738v-109z" />
    <glyph glyph-name="dotmath" unicode="&#x22c5;" horiz-adv-x="573" 
d="M188 647q0 41 27 69t72 28t71 -28q26 -26 27 -69q0 -43 -27 -69q-28 -26 -72 -27t-71 27t-27 69z" />
    <glyph glyph-name="uni2326" unicode="&#x2326;" horiz-adv-x="2867" 
d="M307 -25q-45 0 -74 29t-28 74v1280q0 47 28 75q29 28 74 27h1700l778 -739l-778 -746h-1700zM1030 727l-315 -315l137 -138l315 316l316 -316l137 138l-315 315l315 313l-137 142l-316 -318l-315 318l-137 -142z" />
    <glyph glyph-name="uni2327" unicode="&#x2327;" horiz-adv-x="2539" 
d="M2232 -25h-1925q-45 0 -74 29t-28 74v1280q0 47 28 75q29 28 74 27h1925q45 0 74 -28t29 -74v-1280q0 -45 -29 -74t-74 -29zM1133 727l-316 -315l137 -138l316 316l315 -316l137 138l-315 315l315 313l-137 142l-315 -318l-316 318l-137 -142z" />
    <glyph glyph-name="uni2328" unicode="&#x2328;" horiz-adv-x="2990" 
d="M2128 324h-1258q-16 0 -28 -12t-13 -29v-152q1 -17 13 -29t28 -12h1258q16 0 29 12q12 12 12 29v152q-1 17 -13 29t-28 12zM2210 662h-152q-16 0 -28 -12t-13 -29v-152q1 -17 13 -29t28 -12h152q16 0 28 12t13 29v152q-1 17 -13 29t-28 12zM1841 662h-151q-16 0 -28 -12
t-13 -29v-152q0 -17 12 -29t29 -12h151q16 0 29 12q12 12 12 29v152q0 17 -12 29t-29 12zM1473 662h-152q-17 0 -29 -12t-12 -29v-152q0 -17 12 -29t29 -12h152q16 0 28 12t12 29v152q0 17 -12 29t-28 12zM1104 662h-152q-16 0 -28 -12t-13 -29v-152q1 -17 13 -29t28 -12
h152q16 0 29 12q12 12 12 29v152q-1 17 -13 29t-28 12zM735 662h-151q-16 0 -28 -12t-13 -29v-152q0 -17 12 -29t29 -12h151q16 0 29 12q12 12 12 29v152q0 17 -12 29t-29 12zM2128 1010h-152q-16 0 -28 -12t-13 -29v-152q1 -17 13 -29t28 -12h152q16 0 29 12q12 12 12 29
v152q-1 17 -13 29t-28 12zM1759 1010h-151q-16 0 -28 -12t-13 -29v-152q0 -17 12 -29t29 -12h151q16 0 29 12q12 12 12 29v152q0 17 -12 29t-29 12zM1391 1010h-152q-17 0 -29 -12t-12 -29v-152q0 -17 12 -29t29 -12h152q16 0 28 12t13 29v152q0 17 -12 29t-29 12z
M1022 1010h-152q-16 0 -28 -12t-13 -29v-152q1 -17 13 -29t28 -12h152q16 0 29 12q12 12 12 29v152q-1 17 -13 29t-28 12zM653 1010h-151q-16 0 -28 -12t-13 -29v-152q0 -17 12 -29t29 -12h151q16 0 29 12q12 12 12 29v152q0 17 -12 29t-29 12zM2386 735v-266q0 -17 12 -29
t29 -12h110q16 0 29 12q12 12 12 29v500q0 16 -12 28t-29 13h-192q-17 0 -29 -12t-12 -29v-152q0 -17 12 -29t28 -12t30 -12q12 -13 12 -29zM2537 1348h-274q-17 0 -29 -12t-12 -29v-152q0 -17 12 -29t29 -12h274q16 0 29 12q12 12 12 29v152q0 17 -12 29t-29 12zM2046 1348
h-152q-16 0 -28 -12t-13 -29v-152q1 -17 13 -29t28 -12h152q16 0 29 12q12 12 12 29v152q-1 17 -13 29t-28 12zM1677 1348h-151q-16 0 -28 -12t-13 -29v-152q0 -17 12 -29t29 -12h151q16 0 29 12q12 12 12 29v152q0 17 -12 29t-29 12zM1309 1348h-152q-17 0 -29 -12t-12 -29
v-152q0 -17 12 -29t29 -12h152q16 0 28 12t13 29v152q0 17 -12 29t-29 12zM940 1348h-152q-16 0 -28 -12t-12 -29v-152q0 -17 12 -29t28 -12h152q16 0 29 12q12 12 12 29v152q-1 17 -13 29t-28 12zM571 1348h-151q-16 0 -28 -12t-13 -29v-152q0 -17 12 -29t29 -12h151
q16 0 29 12q12 12 12 29v152q0 17 -12 29t-29 12zM2642 -25h-2294q-45 0 -74 29t-28 74v1280q0 47 28 75q29 28 74 27h2294q45 0 74 -28t28 -74v-1280q0 -45 -28 -74t-74 -29z" />
    <glyph glyph-name="uni232B" unicode="&#x232b;" horiz-adv-x="2867" 
d="M2560 -25h-1700l-778 746l778 739h1700q45 0 74 -28t28 -74v-1280q0 -45 -28 -74t-74 -29zM2152 412l-315 315l315 313l-137 142l-315 -318l-316 318l-137 -142l316 -313l-316 -315l137 -138l316 316l315 -316z" />
    <glyph glyph-name="uni23CE" unicode="&#x23ce;" horiz-adv-x="2048" 
d="M1313 897v537q-1 46 27 74t75 28h326q45 0 74 -29t28 -73v-945q-1 -47 -29 -75t-73 -27h-1049v-356l-610 610l610 612v-356h621z" />
    <glyph glyph-name="uni25AF" unicode="&#x25af;" horiz-adv-x="1206" 
d="M389 1223v-1035h436v1035h-436zM1014 0h-813v1411h813v-1411z" />
    <glyph glyph-name="lozenge" unicode="&#x25ca;" horiz-adv-x="1024" 
d="M516 109l309 571l-309 569h-8l-309 -569l309 -571h8zM950 682l-389 -682h-98l-389 682l389 680h98z" />
    <glyph glyph-name="uni27A1" unicode="&#x27a1;" horiz-adv-x="2048" 
d="M164 489v304q0 47 29 75t73 27h1090v360l610 -614l-610 -614v360h-1090q-46 -1 -74 27t-28 75z" />
    <glyph glyph-name="uni2B05" unicode="&#x2b05;" horiz-adv-x="2048" 
d="M1884 793v-304q0 -47 -29 -75t-73 -27h-1090v-360l-610 614l610 614v-360h1090q46 1 74 -27t28 -75z" />
    <glyph glyph-name="uni2B06" unicode="&#x2b06;" horiz-adv-x="1474" 
d="M903 -25h-332q-47 0 -75 29t-27 74v1016h-346l614 610l615 -610h-346v-1016q0 -45 -28 -74t-75 -29z" />
    <glyph glyph-name="uni2B07" unicode="&#x2b07;" horiz-adv-x="1474" 
d="M571 1536h332q47 0 75 -29t28 -73v-1016h346l-615 -611l-614 611h346v1016q-1 46 27 74t75 28z" />
    <glyph glyph-name="uniE000" unicode="&#xe000;" horiz-adv-x="0" 
d="M1653 1004q-70 0 -158 71l37 2l108 -41l82 -6l-10 -16q-25 -10 -59 -10zM1026 1160q0 -50 6 -77h-12q-78 55 -78 129q-42 -14 -74 -49l-12 -10l-8 8q51 178 237 178l82 -10l-10 -14l-104 -53q-27 -52 -27 -102zM1233 1120v4l-55 70l2 8q94 -31 161 -102l-2 -8
q-10 -2 -82 -15v-8l56 -100l-6 -6q-86 18 -152 18l-162 -12l-12 6q66 57 176 78v6l-63 35l2 8q94 18 137 18zM2349 664q-1 100 -31 100q-14 0 -14 -22t4 -64h-12q-64 74 -64 101t30 59t30 49q-6 9 -38 28t-60 28q-27 9 -50 17t-38 15q-15 6 -43 15q-205 66 -347 186l-8 -2
l90 -109l-4 -10q-137 0 -215 37t-78 91t90 77l4 8q-3 4 -39 4t-75 -22t-39 -70t41 -97h-25q-30 16 -52 47t-30 54l-6 22l-158 27l5 10q297 117 391 117q51 0 78 -17h10q-35 59 -92 60q-92 0 -340 -88l-13 2q6 39 47 72l-2 8q-129 47 -227 47q-185 0 -308 -121
q-100 -98 -130 -156l4 -6q66 18 117 25l2 -10q-127 -92 -127 -267q0 -57 14 -102l-8 -8q-31 23 -62 108h-4q-8 -29 -14 -80l-10 -2l-21 33q-8 -4 -8 -43q0 -98 57 -194q11 -16 63 -84t52 -102t-28 -81t-27 -75l6 -31q100 2 141 8l8 -8q-25 -37 -239 -137l12 -11l176 39
l6 -10l-131 -78q115 -96 274 -149t267 -54v5q-45 49 -86 135l8 8l125 -82q18 31 31 57q-41 31 -86 86t-56 90l9 7q31 -25 90 -55t84 -29q14 41 14 88l35 53q0 2 -1 2h-11q-11 0 -53 -19t-66 -40l-12 2q0 80 133 157v11l-80 32q-23 12 -76 89t-53 137l20 -7
q127 -147 299 -169q35 2 160 32t143 37q50 -27 150 -63t135 -43q40 5 96 41q-37 29 -77 39q-142 35 -244 73q-168 59 -215 140h-6q-2 -6 -2 -16q0 -46 49 -85q4 -4 17 -15t15 -14l-2 -8q-78 7 -123 27q-147 65 -147 217q0 72 29 164h10l10 -113l39 -65q37 49 37 90t-37 78
l-108 122l6 7l102 -43q154 -127 330 -241t284 -142t222 -39l39 -4q18 41 18 82zM1589 1491q113 0 167 -71t54 -134l-6 -47q61 -70 185 -123q57 -26 145 -58t134 -49t88 -45t51 -57t11 -81q3 -52 6 -76t10 -60t7 -54t-48 -126t-73 -117q-12 -6 -43 -6t-43 6q-41 -33 -101 -67
q-59 -34 -109 -35t-163 31t-151 32q-62 0 -141 -42t-123 -76q-45 -34 -75 -134q-9 -34 -25 -122t-41 -125q20 -49 20 -78q-57 -8 -129 -8q-378 0 -660 247q-73 63 -106 105l-33 41l107 57q-49 2 -70 4l-4 15q20 27 105 81q-70 -23 -160 -67l-8 16q23 80 82 148l-154 -107
l-8 15q41 123 153 227l-239 -123l-6 16q57 131 196 256q0 7 -248 -114l-6 16q43 74 118 142t124 94q-268 -100 -287 -107l-6 14q90 117 352 310l-301 -76l-2 16q270 270 573 451q182 110 357 108q59 0 201 -46t153 -46q96 29 170 29z" />
    <glyph glyph-name="uniE001" unicode="&#xe001;" horiz-adv-x="0" 
d="M1722 1030l-82 6l-108 41l-37 -2q88 -72 158 -71q35 0 59 10zM1026 1160q0 50 27 102l104 53l10 14q-33 10 -82 10q-186 0 -237 -178l8 -8q43 45 86 59q0 -74 78 -129h12q-6 27 -6 77zM993 969q72 12 142 12t147 -14l25 -4l6 6l-56 100v8q72 12 82 15l2 8q-67 71 -137 92
l-24 10l-2 -8l55 -70v-4l-137 -18l-2 -8l63 -35v-6q-110 -21 -176 -78zM2304 742q0 22 14 22t22 -30t9 -64q0 -34 -18 -88q-143 14 -256 43t-289 143t-330 240l-102 43l-6 -7l108 -122q37 -37 37 -78t-37 -90l-39 65l-10 113h-10q-29 -92 -29 -140t4 -68q18 -95 116 -159
l44 -22q59 -14 106 -19l2 8q-4 2 -13 12t-14 13q-54 43 -54 90q0 8 2 15h6q63 -107 356 -186q63 -17 102 -25t78 -41q-57 -37 -96 -41q-35 6 -135 43t-150 63q-18 -8 -143 -38t-160 -31q-172 23 -299 169l-20 7q0 -58 53 -136t76 -90l80 -32v-11q-133 -78 -133 -157l12 -2
q24 20 66 40t52 19h12q1 0 1 -2l-35 -53q0 -47 -14 -88q-25 0 -84 30t-90 54l-9 -7q9 -35 55 -90t87 -86l-31 -57q-86 53 -125 82l-8 -8q41 -86 86 -135v-5q-109 0 -267 54t-274 149l131 78l-6 10l-176 -39l-12 11q215 100 239 137l-8 8l-141 -8q-6 4 -6 32q-1 28 27 74
t28 83q0 36 -86 144q-86 109 -86 234q0 12 4 41l4 2l21 -33l10 2q6 51 14 80h4q31 -86 62 -108l8 8q-14 45 -14 102q0 174 127 267l-2 10q-53 -6 -117 -25l-4 6q30 58 130 156q123 121 309 121q98 0 226 -47l2 -8q-41 -33 -47 -72l13 -2q248 88 340 88q57 0 92 -60h-10
q-27 16 -78 17q-94 0 -391 -117l-5 -10l158 -27q23 -84 88 -123h25q-41 47 -41 97t39 70q39 22 75 22t39 -4l-4 -8q-90 -23 -90 -77t78 -91t215 -37l4 10l-90 109l8 2q133 -114 347 -186q28 -10 43 -15q15 -6 38 -14q122 -42 148 -74q0 -18 -30 -49t-30 -59t64 -101h12
q-4 42 -4 64z" />
    <glyph glyph-name="uniE002" unicode="&#xe002;" horiz-adv-x="0" 
d="M1669 1106q-10 0 -31 4q27 10 27 39v12q23 -20 43 -51q-29 -4 -39 -4zM1931 588q0 6 8 14q23 -4 39 -16l-45 -49q-2 45 -2 51zM1577 1149q0 -6 4 -14q-31 25 -35 63q39 0 62 -6q-31 -12 -31 -43zM1860 633q39 0 45 -21l-50 -47q1 52 5 68zM2177 519q0 17 12 18
q25 0 41 -9q0 -8 -18 -27t-29 -24q-6 25 -6 42zM2011 575l53 -10q-31 -49 -55 -55q2 57 2 65zM2093 555q31 -4 57 -10q-8 -29 -49 -62zM2294 524q14 0 14 -16t-31 -49l-10 -13l-6 78h33zM1769 638q0 20 13 34q33 0 51 -25l-61 -45q-3 16 -3 36z" />
    <glyph glyph-name="uniE003" unicode="&#xe003;" horiz-adv-x="2527" 
d="M1665 1149q0 -29 -27 -39q20 -4 30 -4t40 4q-20 31 -43 51v-12zM1577 1149q0 31 31 43q-23 6 -62 6q4 -39 35 -63q-4 8 -4 14zM1931 586l2 -49q33 33 45 49q-16 12 -39 16q-8 -8 -8 -16zM1860 633l-5 -68q39 37 50 47q-6 21 -45 21zM2177 519q0 -17 6 -42q11 3 29 23
t18 28q-16 8 -41 9q-12 -1 -12 -18zM2011 575l-2 -65q21 4 55 55q-26 6 -53 10zM2308 510q0 14 -14 14h-33l6 -78q41 50 41 64zM2093 555q4 -49 8 -72q41 33 49 62zM1769 631l3 -29l61 45q-18 25 -51 25q-13 -14 -13 -41zM1653 1004q-70 0 -158 71l37 2l108 -41l82 -6
l-10 -16q-25 -10 -59 -10zM1026 1160q0 -50 6 -77h-12q-78 55 -78 129q-42 -14 -74 -49l-12 -10l-8 8q51 178 237 178l82 -10l-10 -14l-104 -53q-27 -52 -27 -102zM1233 1120v4l-55 70l2 8q94 -31 161 -102l-2 -8q-10 -2 -82 -15v-8l56 -100l-6 -6q-86 18 -152 18l-162 -12
l-12 6q66 57 176 78v6l-63 35l2 8q94 18 137 18zM2349 664q-1 100 -31 100q-14 0 -14 -22t4 -64h-12q-64 74 -64 101t30 59t30 49q-6 9 -38 28t-60 28q-27 9 -50 17t-38 15q-15 6 -43 15q-205 66 -347 186l-8 -2l90 -109l-4 -10q-137 0 -215 37t-78 91t90 77l4 8q-3 4 -39 4
t-75 -22t-39 -70t41 -97h-25q-30 16 -52 47t-30 54l-6 22l-158 27l5 10q297 117 391 117q51 0 78 -17h10q-35 59 -92 60q-92 0 -340 -88l-13 2q6 39 47 72l-2 8q-129 47 -227 47q-185 0 -308 -121q-100 -98 -130 -156l4 -6q66 18 117 25l2 -10q-127 -92 -127 -267
q0 -57 14 -102l-8 -8q-31 23 -62 108h-4q-8 -29 -14 -80l-10 -2l-21 33q-8 -4 -8 -43q0 -98 57 -194q11 -16 63 -84t52 -102t-28 -81t-27 -75l6 -31q100 2 141 8l8 -8q-25 -37 -239 -137l12 -11l176 39l6 -10l-131 -78q115 -96 274 -149t267 -54v5q-45 49 -86 135l8 8
l125 -82q18 31 31 57q-41 31 -86 86t-56 90l9 7q31 -25 90 -55t84 -29q14 41 14 88l35 53q0 2 -1 2h-11q-11 0 -53 -19t-66 -40l-12 2q0 80 133 157v11l-80 32q-23 12 -76 89t-53 137l20 -7q127 -147 299 -169q35 2 160 32t143 37q50 -27 150 -63t135 -43q40 5 96 41
q-37 29 -77 39q-142 35 -244 73q-168 59 -215 140h-6q-2 -6 -2 -16q0 -46 49 -85q4 -4 17 -15t15 -14l-2 -8q-78 7 -123 27q-147 65 -147 217q0 72 29 164h10l10 -113l39 -65q37 49 37 90t-37 78l-108 122l6 7l102 -43q154 -127 330 -241t284 -142t222 -39l39 -4
q18 41 18 82zM1589 1491q113 0 167 -71t54 -134l-6 -47q61 -70 185 -123q57 -26 145 -58t134 -49t88 -45t51 -57t11 -81q3 -52 6 -76t10 -60t7 -54t-48 -126t-73 -117q-12 -6 -43 -6t-43 6q-41 -33 -101 -67q-59 -34 -109 -35t-163 31t-151 32q-62 0 -141 -42t-123 -76
q-45 -34 -75 -134q-9 -34 -25 -122t-41 -125q20 -49 20 -78q-57 -8 -129 -8q-378 0 -660 247q-73 63 -106 105l-33 41l107 57q-49 2 -70 4l-4 15q20 27 105 81q-70 -23 -160 -67l-8 16q23 80 82 148l-154 -107l-8 15q41 123 153 227l-239 -123l-6 16q57 131 196 256
q0 7 -248 -114l-6 16q43 74 118 142t124 94q-268 -100 -287 -107l-6 14q90 117 352 310l-301 -76l-2 16q270 270 573 451q182 110 357 108q59 0 201 -46t153 -46q96 29 170 29z" />
    <glyph glyph-name="fi" unicode="&#xfb01;" horiz-adv-x="1161" 
d="M51 975v96h199v182q0 127 82 198t234 71t300 -76l-43 -90q-135 63 -247 63t-161 -43q-48 -43 -48 -129v-176h579v-1071h-117v975h-462v-975h-117v975h-199z" />
    <glyph glyph-name="fl" unicode="&#xfb02;" horiz-adv-x="1171" 
d="M51 975v96h199v182q0 127 83 198t247 71q113 0 241 -41l117 20v-1321q0 -100 84 -100q37 0 76 14l32 -86q-55 -31 -129 -31q-180 0 -180 199v1202q-121 41 -239 41t-166 -43q-49 -43 -49 -129v-176h282l-14 -96h-268v-975h-117v975h-199z" />
    <glyph glyph-name="uniFEFF" unicode="&#xfeff;" horiz-adv-x="0" 
 />
    <glyph glyph-name="u1F310" unicode="&#x1f310;" horiz-adv-x="2457" 
d="M1884 1329q-182 207 -448 273q156 -168 239 -373q117 39 209 100zM571 168q184 -207 451 -270q-152 162 -240 372q-129 -47 -211 -102zM1436 -102q266 66 448 270q-80 55 -209 102q-83 -204 -239 -372zM1022 1602q-268 -66 -451 -273q96 -61 211 -100q88 211 240 373z
M1149 -123q16 0 27 -2v471q-156 -6 -306 -49q97 -225 279 -420zM1176 1624q-10 -2 -27 -2q-184 -197 -279 -422q164 -43 306 -49v473zM1278 -125q10 2 31 2q186 203 276 420q-150 43 -307 49v-471zM1309 1622q-20 0 -31 2v-473q143 6 307 49q-88 217 -276 422zM1176 702
h-394q7 -163 58 -325q174 49 336 55v270zM1176 797v268q-174 10 -336 55q-51 -158 -58 -323h394zM1278 702v-270q172 -6 338 -55q51 152 57 325h-395zM1278 797h395q-6 176 -57 323q-178 -49 -338 -55v-268zM1939 238q147 207 162 464h-334q-6 -182 -63 -352
q137 -49 235 -112zM356 702q12 -256 160 -464q100 63 236 112q-57 180 -64 352h-332zM2101 797q-16 260 -162 463q-102 -63 -235 -111q57 -170 63 -352h334zM516 1260q-147 -205 -160 -463h332q6 172 64 352q-132 48 -236 111zM2200 750q0 -404 -284 -690t-687 -286
t-687 286t-284 690t284 689t687 285t687 -286t284 -688z" />
    <glyph glyph-name="i.latn_TRK" horiz-adv-x="546" 
d="M272 1313q-40 1 -64 25t-24 61t25 61t63 25q38 0 64 -25q24 -26 24 -62t-24 -61q-25 -24 -64 -24zM215 1071h117v-1071h-117v1071z" />
    <glyph glyph-name="Ldot.latn_CAT" horiz-adv-x="972" 
d="M721 657q-39 0 -64 25q-25 26 -25 62t25 61t64 25t63 -26q24 -24 25 -61q-1 -37 -25 -61t-63 -25zM225 1403h121v-1292h586l-17 -111h-690v1403z" />
    <glyph glyph-name="ldot.latn_CAT" horiz-adv-x="555" 
d="M537 657q-39 0 -64 25q-25 26 -25 62t25 61t64 25t63 -26q24 -24 25 -61q-1 -37 -25 -61t-63 -25zM322 180q0 -102 84 -102q37 0 75 14l33 -84q-55 -31 -129 -31q-180 0 -180 199v1331l117 15v-1342z" />
    <glyph glyph-name="parenleft.numr" horiz-adv-x="819" 
d="M258 971q0 309 234 585l69 -40q-197 -248 -197 -540t197 -550l-69 -39q-114 133 -174 269t-60 315z" />
    <glyph glyph-name="parenright.numr" horiz-adv-x="819" 
d="M561 971q0 -179 -60 -315t-173 -269l-70 39q197 258 197 550t-197 540l70 40q233 -276 233 -585z" />
    <glyph glyph-name="plus.numr" horiz-adv-x="819" 
d="M457 1200v-186h202v-86h-202v-187h-101v187h-198v86h198v186h101z" />
    <glyph glyph-name="zero.numr" horiz-adv-x="819" 
d="M598 977q0 182 -46 267t-143 85t-143 -85t-45 -268q0 -183 45 -270t142 -88q190 1 190 359zM707 976q0 -214 -77 -328t-220 -114t-222 115q-78 115 -78 327t78 327t220 115t221 -114q78 -114 78 -328z" />
    <glyph glyph-name="one.numr" horiz-adv-x="819" 
d="M537 549h-109v741l-223 -125l-47 72l295 166h84v-854z" />
    <glyph glyph-name="two.numr" horiz-adv-x="819" 
d="M129 549v74q363 352 417 458q28 55 28 112t-44 97q-43 40 -116 39q-121 0 -221 -106l-72 49q129 145 297 145q118 0 192 -63t74 -169q0 -107 -93 -219t-333 -331h440l-12 -86h-557z" />
    <glyph glyph-name="three.numr" horiz-adv-x="819" 
d="M551 1186q1 142 -185 143q-98 0 -208 -84l-52 62q125 111 283 110q123 0 198 -63q75 -64 75 -142t-46 -131t-114 -69v-4q78 -18 130 -76t52 -156t-87 -170t-239 -72t-276 119l63 60q94 -95 206 -95t168 46t56 127q0 166 -210 165h-66l16 80h43q74 0 134 41q59 41 59 109z
" />
    <glyph glyph-name="four.numr" horiz-adv-x="819" 
d="M602 549h-100v209h-398v71l283 594l98 -32l-260 -545h277l10 237h90v-237h113v-88h-113v-209z" />
    <glyph glyph-name="five.numr" horiz-adv-x="819" 
d="M279 1315v-244q68 25 143 25q121 0 198 -74q76 -74 76 -197t-86 -207t-232 -84t-255 105l63 57q84 -78 190 -78t158 58q54 58 54 153q0 97 -49 143t-129 46t-156 -37h-80v422h479l-10 -88h-364z" />
    <glyph glyph-name="six.numr" horiz-adv-x="819" 
d="M436 1030q-117 0 -209 -117q1 -137 53 -216t143 -79t138 60t47 160q0 98 -47 145t-125 47zM459 1329q-88 0 -154 -91t-80 -251q101 125 223 125t196 -71t73 -201q0 -130 -81 -218q-80 -87 -222 -87q-142 -1 -218 111t-77 298q0 186 92 329q92 144 256 144q106 0 209 -67
l-51 -72q-78 51 -166 51z" />
    <glyph glyph-name="seven.numr" horiz-adv-x="819" 
d="M125 1313v90h571v-76l-401 -799l-100 37l389 748h-459z" />
    <glyph glyph-name="eight.numr" horiz-adv-x="819" 
d="M242 1203q0 -62 43 -97t164 -74q133 76 133 166q0 63 -46 98t-125 35t-124 -33t-45 -95zM618 774q0 72 -54 110t-193 83q-170 -68 -170 -189q0 -76 56 -118q55 -42 151 -42t153 42t57 114zM688 1204q0 -131 -168 -198q207 -74 207 -228q0 -106 -87 -175t-232 -69t-231 69
q-85 69 -85 175q0 74 60 135t145 86q-162 72 -162 203q0 100 81 158t196 57q116 1 196 -53t80 -160z" />
    <glyph glyph-name="nine.numr" horiz-adv-x="819" 
d="M371 862q-123 0 -201 74t-78 196t89 204q89 81 221 81t211 -100t79 -256q0 -401 -512 -535l-22 80q385 106 432 371l-4 2q-91 -117 -215 -117zM377 946q129 0 209 109q-4 125 -54 199t-138 75q-89 0 -140 -52t-51 -142q0 -89 49 -139t125 -50z" />
    <glyph glyph-name="equal.numr" horiz-adv-x="819" 
d="M659 821h-501v86h501v-86zM659 1032h-501v86h501v-86z" />
    <glyph glyph-name="minus.numr" horiz-adv-x="819" 
d="M659 926h-501v88h501v-88z" />
    <glyph glyph-name="parenleft.dnom" horiz-adv-x="819" 
d="M258 422q0 309 234 586l69 -41q-197 -248 -197 -540t197 -550l-69 -39q-114 134 -174 270t-60 314z" />
    <glyph glyph-name="parenright.dnom" horiz-adv-x="819" 
d="M561 422q0 -178 -60 -314t-173 -270l-70 39q197 258 197 550t-197 540l70 41q233 -277 233 -586z" />
    <glyph glyph-name="plus.dnom" horiz-adv-x="819" 
d="M457 651v-186h202v-86h-202v-186h-101v186h-198v86h198v186h101z" />
    <glyph glyph-name="zero.dnom" horiz-adv-x="819" 
d="M598 428q0 182 -46 267t-143 85t-143 -85t-45 -268q0 -183 45 -270t142 -87q190 0 190 358zM707 427q0 -214 -77 -328q-77 -113 -220 -113t-222 114q-78 115 -78 327t78 327q78 114 220 114t221 -114q78 -114 78 -327z" />
    <glyph glyph-name="one.dnom" horiz-adv-x="819" 
d="M537 0h-109v741l-223 -125l-47 72l295 166h84v-854z" />
    <glyph glyph-name="two.dnom" horiz-adv-x="819" 
d="M129 0v74q363 352 417 458q28 55 28 112q0 56 -44 96q-43 40 -116 40q-121 0 -221 -106l-72 49q129 145 297 145q118 0 192 -63t74 -169t-93 -218t-333 -332h440l-12 -86h-557z" />
    <glyph glyph-name="three.dnom" horiz-adv-x="819" 
d="M551 638q1 142 -185 142q-98 0 -208 -84l-52 62q125 111 283 110q123 0 198 -63t75 -141t-46 -132q-46 -53 -114 -69v-4q78 -17 130 -75t52 -156t-87 -171q-87 -71 -239 -71t-276 118l63 60q94 -94 206 -94t168 46t56 126q0 166 -210 166h-66l16 79h43q74 0 134 41
q59 42 59 110z" />
    <glyph glyph-name="four.dnom" horiz-adv-x="819" 
d="M602 0h-100v209h-398v72l283 593l98 -32l-260 -545h277l10 238h90v-238h113v-88h-113v-209z" />
    <glyph glyph-name="five.dnom" horiz-adv-x="819" 
d="M279 766v-244q68 25 143 25q121 0 198 -74q76 -75 76 -197t-86 -206t-232 -84t-255 104l63 57q84 -77 190 -77t159 57t53 153t-49 143q-49 46 -129 46t-156 -37h-80v422h479l-10 -88h-364z" />
    <glyph glyph-name="six.dnom" horiz-adv-x="819" 
d="M436 481q-117 0 -209 -116q1 -137 53 -217t143 -78q91 0 138 60t47 158t-47 146q-47 47 -125 47zM459 780q-88 0 -154 -91t-80 -251q101 125 223 125q122 -1 196 -71t73 -201q0 -131 -81 -218q-80 -87 -222 -87t-218 112t-77 296q0 186 92 330t256 144q106 0 209 -67
l-51 -72q-78 51 -166 51z" />
    <glyph glyph-name="seven.dnom" horiz-adv-x="819" 
d="M125 764v90h571v-76l-401 -798l-100 36l389 748h-459z" />
    <glyph glyph-name="eight.dnom" horiz-adv-x="819" 
d="M582 649q0 63 -46 99t-125 34q-79 0 -124 -33t-45 -95t43 -97t164 -74q133 76 133 166zM618 225q0 72 -54 110t-193 83q-170 -68 -170 -189q0 -75 56 -117q55 -42 151 -42t153 42t57 113zM688 655q0 -131 -168 -198q207 -74 207 -228q0 -106 -87 -175q-87 -68 -232 -68
t-231 68q-85 69 -85 175q0 73 60 135t145 87q-162 72 -162 202q0 99 81 157t196 58q116 0 196 -54t80 -159z" />
    <glyph glyph-name="nine.dnom" horiz-adv-x="819" 
d="M371 313q-123 0 -201 74t-78 197q0 124 89 204t221 80t211 -100t79 -256q0 -401 -512 -535l-22 80q385 106 432 371l-4 2q-91 -117 -215 -117zM377 397q129 0 209 109q-4 125 -54 200q-50 74 -138 74q-89 0 -140 -52t-51 -142t49 -140t125 -49z" />
    <glyph glyph-name="equal.dnom" horiz-adv-x="819" 
d="M659 272h-501v86h501v-86zM659 483h-501v86h501v-86z" />
    <glyph glyph-name="minus.dnom" horiz-adv-x="819" 
d="M659 377h-501v88h501v-88z" />
    <glyph glyph-name="space.frac" horiz-adv-x="81" 
 />
    <glyph glyph-name="numbersign.osf" horiz-adv-x="1024" 
d="M371 915l-60 -448h344l60 448h-344zM999 915h-176l-59 -448h168v-94h-180l-50 -373h-108l49 373h-344l-49 -373h-109l49 373h-165v94h178l59 448h-170v95h182l48 352h108l-47 -352h344l47 352h109l-47 -352h163v-95z" />
    <glyph glyph-name="dollar.osf" horiz-adv-x="1024" 
d="M528 1286q-131 0 -211 -58q-79 -58 -79 -169t68 -166t262 -115q196 -60 298 -147q102 -88 102 -253t-104 -270q-106 -105 -293 -122v-293h-100v291q-260 10 -414 157l70 80q154 -141 377 -141q156 0 249 76t93 210t-75 196t-273 122t-290 147q-91 87 -91 223t98 225
t260 103v310h98v-310q205 -10 359 -137l-72 -80q-139 121 -332 121z" />
    <glyph glyph-name="percent.osf" horiz-adv-x="1740" 
d="M1251 643q139 0 223 -89t82 -243q0 -153 -82 -243t-222 -90t-223 88q-83 90 -83 244t83 243q83 90 222 90zM1251 553q-190 0 -190 -244q0 -98 46 -170t144 -71q190 0 191 243q0 98 -46 170q-47 72 -145 72zM489 1384q139 0 223 -89t83 -243q0 -154 -83 -243
q-82 -90 -222 -90t-223 89t-83 243q0 153 83 243t222 90zM489 1294q-190 0 -190 -243q0 -98 46 -170t144 -72q190 0 191 244q0 98 -46 170q-47 71 -145 71zM1393 1384l-947 -1429l-90 53l947 1430z" />
    <glyph glyph-name="plus.osf" horiz-adv-x="1024" 
d="M569 1006v-316h312v-104h-312v-316h-114v316h-312v104h312v316h114z" />
    <glyph glyph-name="zero.osf" horiz-adv-x="1200" 
d="M600 -23q-223 0 -371 158q-147 158 -147 433q0 276 147 438t371 162t372 -158q146 -158 146 -434t-148 -437q-148 -162 -370 -162zM598 80q174 0 286 130t112 368t-110 362q-110 125 -284 125t-286 -130t-112 -368q0 -239 110 -363t284 -124z" />
    <glyph glyph-name="one.osf" horiz-adv-x="733" 
d="M518 0h-115v1022l-315 -205l-57 86l389 248h98v-1151z" />
    <glyph glyph-name="two.osf" horiz-adv-x="952" 
d="M63 0v102q293 219 427 340t180 200q45 78 45 182t-67 172t-176 69q-109 0 -185 -45t-150 -139l-86 61q178 225 420 225q160 0 264 -96t105 -252q0 -109 -47 -195t-177 -203q-130 -116 -399 -315h653l-16 -106h-791z" />
    <glyph glyph-name="three.osf" horiz-adv-x="985" 
d="M584 508q278 -60 278 -356q0 -160 -122 -276t-316 -116q-236 0 -393 177l82 69q123 -143 311 -143q147 0 230 84t83 221q0 283 -321 283h-72l14 96h50q122 -1 210 71t88 193t-73 189q-74 68 -197 67q-170 0 -305 -123l-65 76q162 147 378 147q176 0 280 -98
q104 -97 105 -227t-69 -212t-176 -118v-4z" />
    <glyph glyph-name="four.osf" horiz-adv-x="1028" 
d="M819 -223h-117v334h-610v94l418 962l100 -41l-393 -911h485l15 397h102v-397h168v-104h-168v-334z" />
    <glyph glyph-name="five.osf" horiz-adv-x="1030" 
d="M297 1049v-455q119 57 235 57q172 0 279 -115q107 -116 107 -316t-122 -330t-321 -130q-231 0 -383 172l82 68q124 -139 286 -139t249 99q86 99 86 265t-79 249t-200 83t-240 -59h-92v653h684l-16 -102h-555z" />
    <glyph glyph-name="six.osf" horiz-adv-x="1062" 
d="M563 788q-176 0 -319 -225q6 -485 303 -485q131 0 206 102t75 274t-71 253t-194 81zM618 1284q-172 0 -267 -162t-103 -436q129 201 332 201q160 0 265 -110q105 -111 105 -323t-116 -344t-287 -133q-115 -1 -199 49t-132 137q-95 172 -93 427q0 379 134 587t357 207
q152 0 269 -92l-56 -82q-94 74 -209 74z" />
    <glyph glyph-name="seven.osf" horiz-adv-x="833" 
d="M0 1047v104h762v-96l-522 -1295l-111 35l514 1252h-643z" />
    <glyph glyph-name="eight.osf" horiz-adv-x="1128" 
d="M565 1288q-123 0 -197 -60t-75 -174t67 -174t261 -128q115 61 165 131q50 69 52 175q0 106 -75 168t-198 62zM238 358q0 -134 87 -206t239 -72t239 74q88 74 88 199q0 126 -81 191t-308 150q-264 -104 -264 -336zM956 1051q0 -109 -59 -189t-186 -143q157 -61 231 -147
t74 -210q0 -170 -127 -278t-331 -107t-325 105t-120 276q0 252 295 375q-233 111 -234 320q0 159 117 245t275 86t274 -82q116 -83 116 -251z" />
    <glyph glyph-name="nine.osf" horiz-adv-x="1062" 
d="M504 397q186 0 315 211q-4 233 -73 345t-212 112t-222 -88t-79 -254q1 -326 271 -326zM481 297q-158 0 -263 114q-105 115 -105 315t119 321q120 121 294 120q202 0 308 -146t106 -398q0 -193 -43 -332t-139 -239t-224 -169q-128 -68 -323 -129l-29 94q307 90 467 240
t172 406h-4q-119 -197 -336 -197z" />
    <glyph glyph-name="less.osf" horiz-adv-x="1024" 
d="M854 293l-711 338v102l711 338l45 -94l-633 -295l635 -291z" />
    <glyph glyph-name="equal.osf" horiz-adv-x="1024" 
d="M881 406h-738v106h738v-106zM881 762h-738v106h738v-106z" />
    <glyph glyph-name="greater.osf" horiz-adv-x="1024" 
d="M881 631l-711 -338l-47 98l635 291l-633 295l45 94l711 -338v-102z" />
    <glyph glyph-name="asciitilde.osf" horiz-adv-x="1024" 
d="M668 553q-61 0 -170 46t-144 46q-98 0 -155 -90l-76 47q37 70 100 109t131 39t172 -46q106 -46 142 -47q98 0 155 91l78 -54q-77 -141 -233 -141z" />
    <glyph glyph-name="cent.osf" horiz-adv-x="1024" 
d="M577 993q-151 1 -237 -117t-86 -342t89 -340t233 -116t262 96l57 -84q-106 -92 -262 -108v-289h-101v287q-190 14 -296 160t-106 389t107 395q108 152 298 168v301h98v-301q156 -17 262 -109l-61 -80q-106 90 -257 90z" />
    <glyph glyph-name="sterling.osf" horiz-adv-x="1024" 
d="M360 1047v-271h390v-96h-390v-309q0 -105 -28 -161t-88 -97v-7h626l-14 -106h-756v102q80 46 112 98t32 140v340h-133v96h133v271q0 157 98 247t270 90t306 -149l-80 -64q-106 113 -240 113q-104 0 -171 -60t-67 -177z" />
    <glyph glyph-name="currency.osf" horiz-adv-x="1024" 
d="M514 410q125 0 195 78t69 210q0 133 -69 211q-70 78 -195 78t-195 -78q-69 -78 -69 -211t69 -211q70 -77 195 -77zM510 313q-127 0 -223 68l-170 -170l-74 74l170 170q-80 102 -80 243t78 242l-168 170l74 74l170 -170q94 70 222 70t228 -70l168 168l76 -72l-166 -168
q80 -102 80 -244t-82 -247l168 -164l-76 -74l-170 166q-98 -66 -225 -66z" />
    <glyph glyph-name="yen.osf" horiz-adv-x="1024" 
d="M184 432h269v180h-269v97h222l-383 653h137l352 -637h6l352 637h131l-385 -653h224v-97h-269v-180h269v-96h-269v-336h-118v336h-269v96z" />
    <glyph glyph-name="section.osf" horiz-adv-x="1024" 
d="M252 679q0 -99 52 -141t263 -130q21 -8 33 -14t32 -13q20 -8 38 -16q106 78 106 179t-69 151q-70 50 -347 161q-108 -78 -108 -177zM133 659q0 141 160 244q-105 76 -105 196q0 119 100 191t247 72q195 0 348 -109l-66 -79q-125 90 -282 90q-103 0 -165 -44t-62 -121
t47 -112q49 -35 225 -107t246 -139q70 -68 69 -178q0 -143 -158 -246q103 -73 103 -195t-102 -192t-253 -69q-201 0 -356 110l66 80q121 -92 290 -92q106 0 171 42t65 117q0 76 -49 114q-48 38 -230 112t-246 138t-63 177z" />
    <glyph glyph-name="logicalnot.osf" horiz-adv-x="1024" 
d="M881 338h-113v248h-625v106h738v-354z" />
    <glyph glyph-name="degree.osf" horiz-adv-x="1024" 
d="M443 842q-124 0 -212 78t-88 213t89 214t212 79t208 -80q85 -78 85 -212t-85 -213t-209 -79zM256 1135q0 -91 52 -147t135 -56t132 54t49 148t-47 147q-49 54 -133 54t-136 -54t-52 -146z" />
    <glyph glyph-name="plusminus.osf" horiz-adv-x="1024" 
d="M881 0h-738v109h738v-109zM571 1006v-316h310v-104h-310v-275h-118v275h-310v104h310v316h118z" />
    <glyph glyph-name="multiply.osf" horiz-adv-x="1024" 
d="M850 872l-262 -264l262 -262l-76 -78l-264 264l-262 -264l-76 78l262 262l-262 264l76 78l262 -264l264 264z" />
    <glyph glyph-name="divide.osf" horiz-adv-x="1024" 
d="M414 240q0 44 26 70t72 26q45 0 72 -27q26 -27 26 -69t-26 -70q-26 -27 -72 -27q-45 0 -72 27q-26 27 -26 70zM414 1038q0 43 26 70q27 27 72 27t72 -27q26 -27 26 -70q0 -44 -26 -70t-72 -26t-72 26t-26 70zM881 586h-738v106h738v-106z" />
    <glyph glyph-name="figuredash.osf" 
d="M1085 606h-1024v107h1024v-107z" />
    <glyph glyph-name="dagger.osf" horiz-adv-x="1024" 
d="M928 928h-361v-928h-114v928h-359v104h359v330h114v-330h361v-104z" />
    <glyph glyph-name="daggerdbl.osf" horiz-adv-x="1024" 
d="M928 354h-361v-354h-114v354h-359v105h359v469h-359v104h359v330h114v-330h361v-104h-361v-469h361v-105z" />
    <glyph glyph-name="perthousand.osf" horiz-adv-x="2355" 
d="M1251 643q139 0 223 -89t82 -243q0 -153 -82 -243t-222 -90t-223 88q-83 90 -83 244t83 243q83 90 222 90zM1251 553q-190 0 -190 -244q0 -98 46 -170t144 -71q190 0 191 243q0 98 -46 170q-47 72 -145 72zM489 1384q139 0 223 -89t83 -243q0 -154 -83 -243
q-82 -90 -222 -90t-223 89t-83 243q0 153 83 243t222 90zM489 1294q-190 0 -190 -243q0 -98 46 -170t144 -72q190 0 191 244q0 98 -46 170q-47 71 -145 71zM1393 1384l-947 -1429l-90 53l947 1430zM1968 643q139 0 222 -89t83 -243q0 -153 -83 -243t-222 -90t-222 88
q-83 90 -83 244t83 243q83 90 222 90zM1968 553q-190 0 -190 -244q0 -98 46 -170t144 -71q190 0 191 243q0 98 -46 170q-47 72 -145 72z" />
    <glyph glyph-name="Euro.osf" horiz-adv-x="1024" 
d="M184 600v193h-151l24 100h140q35 242 153 367q119 124 297 124t301 -77l-53 -84q-104 61 -229 61q-295 0 -351 -391h519l-25 -100h-502v-193h465l-22 -100h-439q21 -218 103 -320t234 -102t282 106v-121q-119 -86 -301 -86q-182 1 -296 133t-143 390h-157l24 100h127z
" />
    <glyph glyph-name="partialdiff.osf" horiz-adv-x="1064" 
d="M537 76q287 0 297 438q-133 213 -308 213q-120 0 -198 -81q-78 -80 -78 -238t79 -245t208 -87zM129 404q0 198 110 310t265 111q194 0 327 -186q-23 526 -589 651l28 94q367 -78 526 -284t158 -578q0 -248 -110 -396t-295 -148q-184 0 -302 113q-118 114 -118 313z" />
    <glyph glyph-name="product.osf" horiz-adv-x="1372" 
d="M915 1266h-458v-1672l-111 -14v1686h-182v96h1044v-96h-182v-1672l-111 -14v1686z" />
    <glyph glyph-name="summation.osf" horiz-adv-x="1064" 
d="M913 104v-104h-763v88l454 590l-454 596v88h763v-102h-620l420 -545v-68l-418 -543h618z" />
    <glyph glyph-name="minus.osf" horiz-adv-x="1024" 
d="M881 586h-738v106h738v-106z" />
    <glyph glyph-name="radical.osf" horiz-adv-x="1064" 
d="M1249 1673h-295l-465 -1673h-131l-348 961l105 34l303 -862h4l446 1643h381v-103z" />
    </font>
</defs>
</svg>
