<?xml version="1.0" standalone="no"?>
<!DOCTYPE svg PUBLIC "-//W3C//DTD SVG 1.1//EN" "http://www.w3.org/Graphics/SVG/1.1/DTD/svg11.dtd" >
<svg xmlns="http://www.w3.org/2000/svg">
<metadata>
Created by FontPrep 20130207 at Sat Mar 22 03:58:25 2014
 By Todd Ladner
Digitized data copyright (c) 2012-2013, The Mozilla Foundation and Telefonica S.A.
</metadata>
<defs>
<font id="84df436a5cc2ce5d353e501ebefa7d78" horiz-adv-x='1024' >
  <font-face 
    font-family="FiraSansOTMedium-Italic"
    font-weight="500"
    font-style="italic"
    font-stretch="normal"
    units-per-em="2048"
    panose-1="2 11 6 3 5 0 0 2 0 4"
    ascent="1638"
    descent="-410"
    x-height="1083"
    cap-height="1415"
    bbox="-1403 -1024 2785 2150"
    underline-thickness="102"
    underline-position="-102"
    slope="-8"
    unicode-range="U+000D-1F310"
  />
<missing-glyph horiz-adv-x="1363" 
d="M645 98q-31 0 -51 22t-21 53q1 32 21 52q20 21 51 21t51 -20t20 -53q0 -31 -20 -53t-51 -22zM696 354q0 -23 -15 -36t-35 -13t-37 13q-15 13 -15 36v172q110 6 148 40t38 110t-26 112t-92 37q-66 0 -98 -14t-42 -14q-49 0 -49 47q1 39 61 59t130 21q227 0 227 -236
q0 -213 -195 -242v-92zM365 -918h636v2962h-636v-2962zM252 -1024v3174h860v-3174h-860z" />
    <glyph glyph-name="f_i" unicode="fi" horiz-adv-x="1196" 
d="M694 1546q192 0 353 -88l-95 -172q-117 62 -221 62t-146 -37t-55 -127l-14 -101h604l-153 -1083h-260l124 895h-342l-112 -795q-35 -233 -139 -353t-316 -191l-69 190q125 48 182 120t80 226l112 803h-170l29 188h168l14 107q25 184 129 270q105 86 297 86z" />
    <glyph glyph-name="f_l" unicode="fl" horiz-adv-x="1241" 
d="M717 1350q-92 0 -133 -36t-54 -130l-14 -101h225l-55 -188h-197l-112 -795q-35 -233 -139 -353t-316 -191l-69 190q125 49 182 121t80 225l112 803h-170l29 188h168l14 107q25 184 129 270t299 86q119 0 256 -41l246 31l-178 -1262q-14 -94 49 -94q31 0 61 10l31 -182
q-88 -39 -182 -39q-223 0 -223 232q0 39 6 88l143 1024q-96 37 -188 37z" />
    <glyph glyph-name=".notdef" horiz-adv-x="1363" 
d="M645 98q-31 0 -51 22t-21 53q1 32 21 52q20 21 51 21t51 -20t20 -53q0 -31 -20 -53t-51 -22zM696 354q0 -23 -15 -36t-35 -13t-37 13q-15 13 -15 36v172q110 6 148 40t38 110t-26 112t-92 37q-66 0 -98 -14t-42 -14q-49 0 -49 47q1 39 61 59t130 21q227 0 227 -236
q0 -213 -195 -242v-92zM365 -918h636v2962h-636v-2962zM252 -1024v3174h860v-3174h-860z" />
    <glyph glyph-name=".null" horiz-adv-x="0" 
 />
    <glyph glyph-name="nonmarkingreturn" horiz-adv-x="681" 
 />
    <glyph glyph-name="CR" unicode="&#xd;" horiz-adv-x="512" 
 />
    <glyph glyph-name="space" unicode=" " horiz-adv-x="512" 
 />
    <glyph glyph-name="exclam" unicode="!" horiz-adv-x="524" 
d="M45 136q0 69 48 117t118 48t118 -48t48 -117t-48 -118t-118 -49t-118 49t-48 118zM360 504l-221 -37l76 948h293z" />
    <glyph glyph-name="quotedbl" unicode="&#x22;" horiz-adv-x="995" 
d="M831 860h-184l-2 555h252zM438 860h-184l-2 555h252z" />
    <glyph glyph-name="numbersign" unicode="#" horiz-adv-x="1079" 
d="M485 891l-100 -393h238l102 393h-240zM1104 891h-162l-100 -393h141l-22 -181h-168l-78 -317h-219l79 317h-237l-80 -317h-217l80 317h-139l22 181h162l102 393h-145l20 182h170l78 305h219l-78 -305h238l78 305h219l-80 -305h137z" />
    <glyph glyph-name="dollar" unicode="$" horiz-adv-x="1103" 
d="M770 382q0 85 -50 133t-192 95q-217 72 -305 166t-88 242t114 252t310 121l33 305h201l-35 -312q199 -31 342 -157l-144 -160q-137 123 -323 123q-105 0 -159 -41t-54 -112t52 -117t234 -110q182 -63 265 -158q84 -96 85 -256t-128 -283t-348 -140l-35 -297h-203l37 306
q-238 37 -383 192l158 156q164 -145 352 -146q116 0 190 56t74 142z" />
    <glyph glyph-name="percent" unicode="%" horiz-adv-x="1761" 
d="M1260 -31q-162 0 -256 87t-95 231q1 187 101 293t258 106t252 -90t96 -227q0 -172 -97 -286t-259 -114zM1411 358q1 164 -141 164q-70 0 -115 -62t-45 -154q0 -174 137 -173q80 -1 122 59t42 166zM518 686q-162 0 -257 87q-93 87 -93 231q0 188 100 293t258 105t252 -90
t96 -227q0 -171 -97 -285t-259 -114zM670 1075q0 164 -142 164q-70 0 -114 -60q-45 -61 -45 -153q0 -176 135 -176q80 0 123 59t43 166zM1538 1356l-1124 -1428l-160 107l1122 1427z" />
    <glyph glyph-name="ampersand" unicode="&#x26;" horiz-adv-x="1839" 
d="M709 1083q-123 0 -225 -115q-101 -116 -130 -317q477 41 477 314q1 118 -122 118zM72 510q0 174 56 322q105 278 359 401q117 55 240 55q177 0 279 -83t102 -224q0 -203 -201 -341t-561 -167q8 -157 87 -227t245 -70q260 0 455 163t276 458h-199l23 194h649l-24 -194
h-211q-91 -359 -359 -593t-639 -235q-283 0 -430 136t-147 405z" />
    <glyph glyph-name="quotesingle" unicode="'" horiz-adv-x="602" 
d="M438 860h-184l-2 555h252z" />
    <glyph glyph-name="parenleft" unicode="(" horiz-adv-x="665" 
d="M319 512q0 -377 195 -707l-184 -114q-145 246 -209 429q-63 183 -64 412q0 367 140 658q139 291 376 553l158 -119q-412 -489 -412 -1112z" />
    <glyph glyph-name="parenright" unicode=")" horiz-adv-x="665" 
d="M373 924q0 381 -193 706l187 113q145 -246 207 -429t63 -413q0 -365 -140 -655t-380 -555l-154 119q410 485 410 1114z" />
    <glyph glyph-name="asterisk" unicode="*" horiz-adv-x="905" 
d="M948 1122l-291 -55l211 -213l-190 -141l-148 262l-143 -264l-190 135l204 221l-292 55l71 219l269 -122l-37 299h235l-39 -301l271 124z" />
    <glyph glyph-name="plus" unicode="+" horiz-adv-x="1044" 
d="M692 1063l-39 -315h305l-26 -207h-305l-37 -314h-225l36 314h-303l27 207h303l39 315h225z" />
    <glyph glyph-name="comma" unicode="," horiz-adv-x="524" 
d="M31 130q0 77 49 124t121 47q73 0 117 -45q44 -46 44 -116t-67 -187l-178 -305h-158l135 358q-63 47 -63 124z" />
    <glyph glyph-name="hyphen" unicode="-" horiz-adv-x="833" 
d="M719 537h-621l31 208h619z" />
    <glyph glyph-name="period" unicode="." horiz-adv-x="524" 
d="M35 136q0 69 48 117t118 48q69 0 117 -48t48 -117t-48 -118t-118 -49t-117 49q-48 49 -48 118z" />
    <glyph glyph-name="slash" unicode="/" horiz-adv-x="1064" 
d="M1051 1604l-807 -1837l-215 79l809 1835z" />
    <glyph glyph-name="zero" unicode="0" horiz-adv-x="1175" 
d="M528 -31q-210 1 -322 143t-112 406q0 432 162 658t418 227q200 0 316 -135t116 -385q0 -332 -126 -604q-65 -139 -181 -225q-117 -85 -271 -85zM543 168q139 0 218 196t79 506q0 183 -45 258q-19 31 -55 54t-85 22q-137 0 -216 -196t-79 -496q1 -344 183 -344z" />
    <glyph glyph-name="one" unicode="1" horiz-adv-x="870" 
d="M625 0h-254l133 1106l-318 -182l-100 184l479 270h230z" />
    <glyph glyph-name="two" unicode="2" horiz-adv-x="1050" 
d="M981 1063q0 -101 -43 -203t-97 -179q-55 -77 -157 -175t-167 -152t-185 -147h577l-53 -207h-852l25 193q424 375 552 529t128 298q0 86 -46 131t-126 45q-137 0 -283 -147l-152 133q209 221 488 221q180 0 286 -93t105 -247z" />
    <glyph glyph-name="three" unicode="3" horiz-adv-x="1048" 
d="M582 1403q176 0 284 -87q108 -86 107 -218q0 -132 -79 -230t-224 -135l-2 -8q120 -20 194 -104t76 -203q0 -197 -139 -323t-365 -126q-143 -1 -270 57t-201 158l174 133q121 -143 289 -143q114 0 178 67t64 187q0 197 -230 197h-94l55 188h54q117 -1 187 63t71 152
q0 88 -47 131t-129 43q-133 0 -295 -123l-113 150q219 174 455 174z" />
    <glyph glyph-name="four" unicode="4" horiz-adv-x="1116" 
d="M1028 315h-166l-39 -315h-256l39 315h-573l18 181l502 917l213 -92l-432 -805h297l82 346h215l-43 -346h168z" />
    <glyph glyph-name="five" unicode="5" horiz-adv-x="1089" 
d="M461 -31q-139 0 -267 51t-204 146l168 137q117 -131 295 -131q127 0 197 84t69 212q0 128 -49 182q-48 54 -134 54t-188 -49h-188l92 723h797l-54 -194h-518l-45 -340q111 49 215 49q154 -1 248 -103t96 -284q0 -236 -142 -386t-388 -151z" />
    <glyph glyph-name="six" unicode="6" horiz-adv-x="1128" 
d="M621 727q-135 0 -261 -158q-4 -39 -4 -102q0 -164 42 -234q42 -69 142 -69t171 98q70 98 69 266q0 102 -44 150t-115 49zM723 1208q-111 0 -208 -120t-134 -336q147 166 328 166q143 0 239 -102t96 -277q0 -256 -146 -413t-363 -157q-444 0 -445 514q0 426 179 673
t464 247q188 0 305 -90l-120 -164q-84 59 -195 59z" />
    <glyph glyph-name="seven" unicode="7" horiz-adv-x="933" 
d="M963 1194l-635 -1221l-232 80l590 1123h-577l26 202h852z" />
    <glyph glyph-name="eight" unicode="8" horiz-adv-x="1169" 
d="M648 1219q-90 1 -148 -55t-58 -139t50 -132t167 -88q176 96 177 254q0 74 -48 117t-140 43zM315 350q-1 -84 59 -135t170 -51t184 68t73 160q1 92 -61 146t-224 107q-201 -102 -201 -295zM1090 1085q0 -233 -267 -350q244 -106 244 -329q0 -182 -146 -310t-380 -127
q-234 -1 -365 105t-131 260q0 268 317 383q-176 99 -176 283t126 294t336 109q210 1 326 -89t116 -229z" />
    <glyph glyph-name="nine" unicode="9" horiz-adv-x="1126" 
d="M545 678q139 0 250 139q12 75 12 175t-52 158t-150 58q-97 0 -163 -82t-66 -208t47 -184q46 -56 122 -56zM111 883q0 233 142 377q141 144 361 143q220 0 340 -119t121 -319q0 -430 -227 -677t-692 -339l-35 190q545 138 647 482l-6 4q-128 -137 -290 -137t-262 104
q-100 106 -99 291z" />
    <glyph glyph-name="colon" unicode=":" horiz-adv-x="524" 
d="M305 705q-70 1 -118 49t-48 117t48 117t118 48t118 -48t48 -117t-48 -117t-118 -49zM35 136q0 69 48 117t118 48q69 0 117 -48t48 -117t-48 -118t-118 -49t-117 49q-48 49 -48 118z" />
    <glyph glyph-name="semicolon" unicode=";" horiz-adv-x="524" 
d="M33 129q0 78 48 125t120 47q73 0 117 -45q44 -46 44 -116t-67 -187l-176 -305h-160l137 358q-63 45 -63 123zM303 705q-70 1 -118 49t-48 117t48 117t118 48t118 -48t48 -117t-48 -117t-118 -49z" />
    <glyph glyph-name="less" unicode="&#x3c;" horiz-adv-x="1044" 
d="M129 813l819 350l68 -200l-684 -279l610 -278l-113 -191l-731 354z" />
    <glyph glyph-name="equal" unicode="=" horiz-adv-x="1044" 
d="M1010 748h-836l27 208h835zM958 332h-835l24 209h836z" />
    <glyph glyph-name="greater" unicode="&#x3e;" horiz-adv-x="1044" 
d="M940 565l-817 -350l-68 201l684 276l-610 281l111 190l731 -354z" />
    <glyph glyph-name="question" unicode="?" horiz-adv-x="1030" 
d="M223 136q0 69 48 117t118 48t118 -48t48 -117t-48 -118t-118 -49t-118 49t-48 118zM598 1446q188 0 296 -86t108 -206t-51 -199q-50 -79 -121 -119q-70 -40 -142 -75q-172 -82 -172 -208q0 -25 6 -51l-229 -37q-18 55 -19 100q0 100 46 172t114 112q66 40 132 75
q158 83 159 190q0 59 -42 91t-116 32q-143 0 -274 -137l-158 139q207 207 463 207z" />
    <glyph glyph-name="at" unicode="@" horiz-adv-x="2088" 
d="M1100 846q-119 0 -191 -114t-71 -335q0 -102 36 -151t93 -49q117 0 192 135l62 487q-58 27 -121 27zM948 -446q-391 0 -621 216t-231 582q0 482 295 788t772 306q377 0 598 -200t221 -508t-139 -517t-360 -209q-100 0 -169 56t-73 151l-8 2q-49 -94 -135 -146t-185 -52
q-147 0 -232 98t-85 276q0 297 146 460t380 163q178 0 338 -88l-69 -574q-20 -170 94 -170q100 0 176 148t76 394q0 245 -152 381t-430 136q-373 1 -592 -243t-219 -637q0 -287 158 -450t454 -163q225 0 426 70l43 -186q-238 -84 -477 -84z" />
    <glyph glyph-name="A" unicode="A" horiz-adv-x="1193" 
d="M670 1190l-262 -658h370l-100 658h-8zM854 0l-49 328h-473l-131 -328h-289l620 1415h334l271 -1415h-283z" />
    <glyph glyph-name="B" unicode="B" horiz-adv-x="1265" 
d="M1165 444q-1 -208 -155 -326t-453 -118h-463l172 1415h420q244 0 369 -87t125 -241q0 -115 -78 -209t-209 -124l-2 -9q129 -27 202 -107q72 -81 72 -194zM647 836q123 0 190 60t66 169q0 152 -231 152h-158l-47 -381h180zM578 205q305 0 305 246q0 195 -238 194h-201
l-55 -440h189z" />
    <glyph glyph-name="C" unicode="C" horiz-adv-x="1167" 
d="M797 1237q-180 0 -297 -186t-117 -476q0 -387 287 -387q152 0 309 121l117 -174q-195 -166 -450 -166t-401 156t-147 448q0 379 197 626t498 247q257 0 417 -162l-153 -149q-115 102 -260 102z" />
    <glyph glyph-name="D" unicode="D" horiz-adv-x="1339" 
d="M1272 852q0 -400 -201 -626t-563 -226h-414l172 1415h369q299 -1 468 -145t169 -418zM530 203q205 0 332 164t127 481q0 365 -358 364h-117l-125 -1009h141z" />
    <glyph glyph-name="E" unicode="E" horiz-adv-x="1079" 
d="M1034 1214h-520l-49 -395h455l-25 -201h-455l-51 -415h557l-22 -203h-830l172 1415h824z" />
    <glyph glyph-name="F" unicode="F" horiz-adv-x="1007" 
d="M1014 1214h-500l-53 -423h436l-25 -201h-436l-71 -590h-271l172 1415h803z" />
    <glyph glyph-name="G" unicode="G" horiz-adv-x="1306" 
d="M652 -31q-269 0 -411 153t-143 456q0 408 204 638t498 230t464 -164l-160 -156q-123 115 -298 115t-300 -174t-125 -500q0 -205 76 -298t206 -93t236 60l45 360h-221l-8 201h516l-84 -684q-226 -144 -495 -144z" />
    <glyph glyph-name="H" unicode="H" horiz-adv-x="1361" 
d="M1126 0h-272l78 633h-490l-77 -633h-271l172 1415h273l-70 -567h489l70 567h270z" />
    <glyph glyph-name="I" unicode="I" horiz-adv-x="600" 
d="M365 0h-271l172 1415h273z" />
    <glyph glyph-name="J" unicode="J" horiz-adv-x="608" 
d="M-70 -319l-53 208q135 47 191 120q55 73 71 220l146 1186h272l-147 -1194q-28 -227 -136 -349t-344 -191z" />
    <glyph glyph-name="K" unicode="K" horiz-adv-x="1241" 
d="M889 0l-420 758l565 657h297l-569 -655l436 -760h-309zM539 1415l-174 -1415h-271l172 1415h273z" />
    <glyph glyph-name="L" unicode="L" horiz-adv-x="1026" 
d="M901 0h-807l172 1415h273l-148 -1194h565z" />
    <glyph glyph-name="M" unicode="M" horiz-adv-x="1613" 
d="M471 1157h-8q-8 -203 -68 -526l-116 -631h-265l287 1415h344l133 -997h8l371 997h359l-62 -1415h-266l33 631q14 297 53 526h-8l-385 -1010h-260z" />
    <glyph glyph-name="N" unicode="N" horiz-adv-x="1370" 
d="M958 270l-2 62q0 236 35 514l70 569h246l-172 -1415h-349l-335 1141h-9q8 -238 -30 -561l-72 -580h-246l172 1415h340l344 -1145h8z" />
    <glyph glyph-name="O" unicode="O" horiz-adv-x="1411" 
d="M653 176q117 0 202 69q142 115 186 405q17 112 18 229q0 360 -273 360q-306 0 -387 -474q-18 -112 -18 -226q0 -363 272 -363zM649 -31q-254 0 -402 155q-149 155 -149 433t109 510t324 328q118 51 260 51q254 0 402 -156t148 -435q0 -280 -108 -509t-326 -326
q-117 -51 -258 -51z" />
    <glyph glyph-name="P" unicode="P" horiz-adv-x="1210" 
d="M1206 1016q0 -240 -158 -381t-427 -141h-195l-61 -494h-271l172 1415h396q266 1 405 -105t139 -294zM616 696q141 0 226 82q84 82 84 232q0 207 -283 207h-129l-63 -521h165z" />
    <glyph glyph-name="Q" unicode="Q" horiz-adv-x="1411" 
d="M653 176q117 0 202 69q142 115 186 405q17 112 18 229q0 360 -273 360q-306 0 -387 -474q-18 -112 -18 -226q0 -363 272 -363zM1341 850q0 -557 -387 -758l-2 -8q246 -6 398 -123l-195 -219q-102 119 -220 175t-290 58q-252 0 -399 153q-148 153 -148 430t109 509
t324 328q118 51 260 51q254 0 402 -156t148 -440z" />
    <glyph glyph-name="R" unicode="R" horiz-adv-x="1239" 
d="M631 762q139 0 214 70t75 200q0 186 -271 187h-135l-57 -457h174zM666 1415q268 1 403 -97t135 -266t-95 -284t-257 -162l309 -606h-293l-266 567h-168l-69 -567h-271l172 1415h400z" />
    <glyph glyph-name="S" unicode="S" horiz-adv-x="1124" 
d="M1051 426q0 -193 -151 -325t-400 -132q-154 -1 -291 57t-221 148l159 160q166 -150 351 -150q114 0 190 62t76 152t-50 139t-226 107t-265 156q-88 97 -88 258q0 160 137 274t361 114q283 0 471 -168l-146 -160q-141 123 -321 123q-101 0 -159 -48t-58 -126t51 -122
q51 -43 229 -105t265 -162q86 -100 86 -252z" />
    <glyph glyph-name="T" unicode="T" horiz-adv-x="1071" 
d="M1116 1200h-366l-146 -1200h-272l145 1200h-385l27 215h1052z" />
    <glyph glyph-name="U" unicode="U" horiz-adv-x="1341" 
d="M621 -31q-240 0 -367 115t-127 328q0 47 6 96l113 907h272l-115 -919q-6 -45 -6 -86q1 -119 57 -174q56 -56 175 -56t191 75t89 216l117 944h274l-116 -942q-31 -240 -177 -372t-386 -132z" />
    <glyph glyph-name="V" unicode="V" horiz-adv-x="1196" 
d="M389 1415l162 -1165h8l453 1165h284l-606 -1415h-321l-260 1415h280z" />
    <glyph glyph-name="W" unicode="W" horiz-adv-x="1708" 
d="M1782 1415l-432 -1415h-355l-80 1094h-8l-350 -1094h-344l-84 1415h262l35 -1184h8l373 1184h287l82 -1179h6l338 1179h262z" />
    <glyph glyph-name="X" unicode="X" horiz-adv-x="1167" 
d="M430 754l-303 661h287l188 -481h8l314 481h301l-473 -651l340 -764h-289l-221 569h-9l-352 -569h-301z" />
    <glyph glyph-name="Y" unicode="Y" horiz-adv-x="1161" 
d="M1274 1415l-563 -878l-66 -537h-272l65 535l-348 880h287l215 -649h8l375 649h299z" />
    <glyph glyph-name="Z" unicode="Z" horiz-adv-x="1075" 
d="M1081 1206l-774 -985h660l-56 -221h-944l25 207l784 993h-596l27 215h901z" />
    <glyph glyph-name="bracketleft" unicode="[" horiz-adv-x="665" 
d="M483 -246h-487l235 1925h490l-27 -204h-239l-187 -1518h240z" />
    <glyph glyph-name="backslash" unicode="\" horiz-adv-x="1071" 
d="M766 -227l-705 1843l222 65l706 -1841z" />
    <glyph glyph-name="bracketright" unicode="]" horiz-adv-x="665" 
d="M213 1679h489l-237 -1925h-488l25 203h240l186 1520h-240z" />
    <glyph glyph-name="asciicircum" unicode="^" horiz-adv-x="1099" 
d="M592 1724h237l295 -645h-256l-182 439l-299 -439h-274z" />
    <glyph glyph-name="underscore" unicode="_" horiz-adv-x="1064" 
d="M911 -324h-1009l26 211h1012z" />
    <glyph glyph-name="grave" unicode="`" horiz-adv-x="671" 
d="M610 1403l-65 -139l-484 202l101 213z" />
    <glyph glyph-name="a" unicode="a" horiz-adv-x="1181" 
d="M494 168q53 0 116 51t117 139l82 531q-72 29 -143 29q-136 0 -232 -132t-96 -374q0 -244 156 -244zM410 -31q-160 0 -252 111t-92 330q0 315 172 510t428 194q210 0 421 -106l-104 -715q-10 -67 1 -97t50 -46l-78 -179q-195 18 -225 185q-67 -88 -151 -138t-170 -49z" />
    <glyph glyph-name="b" unicode="b" horiz-adv-x="1202" 
d="M721 905q-147 0 -303 -287l-60 -417q78 -35 162 -35q129 0 225 146t97 395q0 198 -121 198zM809 1114q141 0 223 -98t82 -303q0 -332 -170 -538t-430 -206q-225 0 -436 88l205 1461l266 28l-92 -651q74 103 169 161t183 58z" />
    <glyph glyph-name="c" unicode="c" horiz-adv-x="956" 
d="M545 180q102 0 231 82l90 -174q-168 -119 -364 -119t-316 125q-121 125 -120 348q0 303 164 488q165 184 401 184q195 0 346 -121l-119 -164q-96 78 -218 78t-211 -124t-89 -341q0 -262 205 -262z" />
    <glyph glyph-name="d" unicode="d" horiz-adv-x="1200" 
d="M617 918q-115 0 -197 -130t-82 -374q0 -246 166 -246q57 0 124 54t126 147l63 450q-86 99 -200 99zM563 1114q164 0 279 -117l78 549l260 -28l-215 -1518h-232l2 152q-145 -182 -310 -182t-262 116q-97 117 -97 334q0 310 149 502t348 192z" />
    <glyph glyph-name="e" unicode="e" horiz-adv-x="1067" 
d="M639 928q-104 0 -188 -95t-109 -260q232 21 326 81t94 165q0 51 -33 80t-90 29zM1032 827q0 -171 -169 -281t-529 -138q6 -118 58 -176t138 -58q133 0 273 92l104 -164q-176 -133 -391 -133t-333 122t-117 347q0 303 166 490q167 186 423 186q177 0 277 -77t100 -210z
" />
    <glyph glyph-name="f" unicode="f" horiz-adv-x="684" 
d="M651 1546q168 0 314 -90l-95 -168q-100 60 -180 60t-114 -36t-46 -128l-14 -101h260l-55 -188h-232l-112 -795q-33 -227 -135 -349t-320 -195l-69 190q127 48 185 122t77 224l112 803h-170l29 188h168l14 107q25 182 120 269t263 87z" />
    <glyph glyph-name="g" unicode="g" horiz-adv-x="1196" 
d="M498 201q61 0 130 49t122 137l73 500q-72 31 -149 31q-136 0 -234 -124t-98 -358t156 -235zM421 0q-159 0 -256 116t-97 330q0 292 176 480t432 188q219 0 426 -106l-133 -947q-72 -508 -547 -507q-203 0 -399 112l92 182q160 -86 299 -86q247 1 286 273l19 129
q-139 -164 -298 -164z" />
    <glyph glyph-name="h" unicode="h" horiz-adv-x="1177" 
d="M819 1114q115 0 179 -68t65 -206q0 -41 -6 -86l-105 -754h-262l96 709q17 135 -10 163t-71 27q-133 0 -285 -283l-88 -616h-262l213 1518l266 28l-92 -653q162 221 362 221z" />
    <glyph glyph-name="i" unicode="i" horiz-adv-x="555" 
d="M563 1470q0 -68 -46 -114t-119 -45q-72 0 -118 46q-46 45 -46 113t46 113t118 45t119 -45q46 -45 46 -113zM326 0h-263l152 1083h262z" />
    <glyph glyph-name="j" unicode="j" horiz-adv-x="555" 
d="M76 92l139 991h262l-139 -983q-33 -233 -138 -353t-319 -191l-69 192q127 48 184 120t80 224zM563 1470q0 -68 -46 -114t-119 -45q-72 0 -118 46q-46 45 -46 113t46 113t118 45t119 -45q46 -45 46 -113z" />
    <glyph glyph-name="k" unicode="k" horiz-adv-x="1153" 
d="M838 1114q122 0 200 -70t78 -178q0 -272 -317 -385l225 -481h-287l-225 526q180 53 258 124t78 172t-105 102q-82 0 -168 -74t-153 -217l-90 -633h-262l213 1518l266 28l-90 -641q160 209 379 209z" />
    <glyph glyph-name="l" unicode="l" horiz-adv-x="577" 
d="M307 -31q-101 1 -162 61t-61 179q0 31 6 72l174 1237l268 28l-182 -1280q-6 -47 6 -65t46 -18t57 10l39 -185q-90 -39 -191 -39z" />
    <glyph glyph-name="m" unicode="m" horiz-adv-x="1736" 
d="M766 803q0 96 -70 96q-127 0 -278 -285l-86 -614h-262l153 1083h228l-17 -215q166 246 369 246q94 0 154 -55t71 -164q160 219 361 219q106 0 170 -65q63 -66 63 -197q0 -41 -6 -88l-109 -764h-262l101 713q6 55 6 99q0 89 -70 87q-55 0 -128 -69t-148 -212l-86 -618
h-261l99 713q8 49 8 90z" />
    <glyph glyph-name="n" unicode="n" horiz-adv-x="1177" 
d="M817 1114q115 0 181 -68t65 -202q0 -41 -6 -90l-105 -754h-262l96 709q17 135 -10 163t-71 27q-133 0 -287 -285l-86 -614h-262l153 1083h228l-17 -215q168 246 383 246z" />
    <glyph glyph-name="o" unicode="o" horiz-adv-x="1179" 
d="M635 915q-135 0 -216 -141t-81 -360q0 -246 188 -246q78 0 137 46q104 83 142 283q16 85 16 173q0 245 -186 245zM645 1114q211 0 330 -125t119 -338q0 -295 -156 -489t-420 -193q-211 0 -332 123t-120 338q0 284 152 484t427 200z" />
    <glyph glyph-name="p" unicode="p" horiz-adv-x="1202" 
d="M558 166q108 0 197 151q87 152 87 396q0 96 -35 144t-88 48q-145 0 -299 -282l-51 -353q81 -104 189 -104zM623 -31q-164 0 -279 125l-72 -512l-264 -28l215 1529h228l-17 -215q74 117 175 182t200 64q141 0 223 -98t82 -297q0 -330 -145 -540t-346 -210z" />
    <glyph glyph-name="q" unicode="q" horiz-adv-x="1193" 
d="M338 426q0 -136 45 -196t111 -60t132 51q67 51 122 141l73 525q-76 31 -151 31q-136 0 -234 -130t-98 -362zM416 -31q-158 0 -254 116t-96 337q0 305 175 499t433 193q217 0 428 -106l-203 -1426l-266 -28l82 577q-141 -162 -299 -162z" />
    <glyph glyph-name="r" unicode="r" horiz-adv-x="790" 
d="M762 1114q59 0 104 -14l-84 -275q-41 14 -88 15q-174 -4 -291 -336l-71 -504h-262l153 1083h228l-23 -264q68 151 155 223t179 72z" />
    <glyph glyph-name="s" unicode="s" horiz-adv-x="972" 
d="M420 166q86 0 135 36t49 95t-42 95t-169 79q-295 98 -295 320q0 145 112 233t324 88t375 -131l-118 -158q-129 96 -269 97q-76 0 -114 -31t-39 -80q0 -49 40 -80q41 -31 185 -83t214 -129t69 -191q0 -160 -120 -258t-341 -99q-127 0 -245 48t-194 122l140 152
q139 -125 303 -125z" />
    <glyph glyph-name="t" unicode="t" horiz-adv-x="761" 
d="M432 -31q-296 0 -295 289q0 41 6 88l78 551h-168l27 186h170l74 246l223 25l-37 -271h262l-55 -186h-234l-82 -571q-10 -80 12 -111t80 -31t138 41l76 -176q-129 -80 -275 -80z" />
    <glyph glyph-name="u" unicode="u" horiz-adv-x="1165" 
d="M367 278q0 -98 100 -98q57 0 127 52t125 147l100 704h262l-151 -1083h-228l5 170q-145 -201 -338 -201q-266 0 -267 285q0 41 7 94l104 735h262l-104 -733q-4 -22 -4 -72z" />
    <glyph glyph-name="v" unicode="v" horiz-adv-x="1015" 
d="M270 0l-204 1083h274l109 -868h8l358 868h275l-510 -1083h-310z" />
    <glyph glyph-name="w" unicode="w" horiz-adv-x="1501" 
d="M1556 1083l-389 -1083h-327l-49 836h-9l-288 -836h-322l-86 1083h258l23 -878h8l315 878h268l54 -874h8l278 874h258z" />
    <glyph glyph-name="x" unicode="x" horiz-adv-x="995" 
d="M479 420h-8l-276 -420h-299l440 573l-250 510h287l129 -360h8l229 360h297l-387 -505l283 -578h-293z" />
    <glyph glyph-name="y" unicode="y" horiz-adv-x="1013" 
d="M264 0l-196 1083h270l113 -893h8l348 893h278l-479 -1079q-94 -210 -242 -322t-395 -128l-8 196q164 20 250 78t141 172h-88z" />
    <glyph glyph-name="z" unicode="z" horiz-adv-x="905" 
d="M897 893l-600 -688h512l-53 -205h-809l26 190l607 689h-465l30 204h781z" />
    <glyph glyph-name="braceleft" unicode="{" horiz-adv-x="665" 
d="M252 721l-2 -4v-4q176 -49 151 -258l-49 -418q-10 -72 28 -102t138 -29l-24 -189q-213 1 -301 65t-89 200q0 37 7 79l47 390q10 91 -14 125t-105 34l27 213q82 0 114 35t43 123l45 360q27 215 122 295t349 80l-24 -188q-99 0 -143 -29t-52 -102l-35 -289
q-27 -207 -71 -288t-162 -99z" />
    <glyph glyph-name="bar" unicode="|" horiz-adv-x="794" 
d="M178 -213l230 1870h241l-229 -1870h-242z" />
    <glyph glyph-name="braceright" unicode="}" horiz-adv-x="665" 
d="M592 1452q0 -37 -6 -80l-47 -389q-11 -90 13 -125t105 -35l-26 -213q-82 0 -114 -35t-44 -122l-45 -361q-27 -215 -122 -295t-349 -80l25 189q100 0 143 28t51 103l35 289q27 207 71 288t162 99l2 4v4q-176 49 -151 258l49 418q10 71 -28 101t-138 30l25 188
q213 -2 301 -65t88 -199z" />
    <glyph glyph-name="asciitilde" unicode="~" horiz-adv-x="1044" 
d="M678 492q-74 0 -136 30t-110 59q-48 30 -84 29q-80 0 -145 -106l-144 80q139 225 322 225q76 0 138 -30q61 -31 109 -59t85 -28q78 0 143 105l143 -82q-133 -223 -321 -223z" />
    <glyph glyph-name="uni00A0" unicode="&#xa0;" horiz-adv-x="512" 
 />
    <glyph glyph-name="exclamdown" unicode="&#xa1;" horiz-adv-x="524" 
d="M457 871q0 -69 -48 -117t-118 -47q-70 0 -118 48q-48 49 -48 117t48 116t118 48t118 -48t48 -117zM143 504l217 37l-73 -959h-295z" />
    <glyph glyph-name="cent" unicode="&#xa2;" horiz-adv-x="991" 
d="M555 180q102 0 231 82l91 -174q-125 -88 -267 -111l-37 -301h-202l37 304q-154 30 -243 150t-89 312q0 272 135 450t338 214l37 303h200l-34 -305q127 -25 235 -111l-119 -164q-96 78 -218 78t-211 -124t-89 -341q0 -262 205 -262z" />
    <glyph glyph-name="sterling" unicode="&#xa3;" horiz-adv-x="1085" 
d="M715 1200q-84 0 -127 -47t-56 -154l-26 -213h393l-18 -145h-394l-20 -170q-25 -195 -150 -258l-2 -8h660l-55 -205h-936l22 195q111 33 149 91t52 171l22 184h-157l18 145h158l26 213q49 403 428 404q258 0 406 -197l-178 -121q-88 115 -215 115z" />
    <glyph glyph-name="currency" unicode="&#xa4;" horiz-adv-x="1200" 
d="M618 444q111 0 168 68q58 68 58 188t-58 188q-58 66 -168 66q-112 0 -168 -66t-56 -188q0 -120 56 -188q57 -68 168 -68zM1067 700q0 -139 -72 -251l170 -168l-131 -131l-172 169q-100 -61 -242 -61t-247 61l-172 -172l-131 132l170 172q-68 106 -68 247t66 250l-168 172
l131 131l172 -174q102 63 245 63t244 -63l172 172l131 -131l-168 -170q70 -109 70 -248z" />
    <glyph glyph-name="yen" unicode="&#xa5;" horiz-adv-x="1105" 
d="M1210 1378l-452 -663h223l-16 -148h-283l-18 -161h280l-16 -148h-283l-31 -258h-264l31 258h-279l17 148h280l21 161h-281l19 148h219l-285 663h270l207 -587h9l350 587h282z" />
    <glyph glyph-name="brokenbar" unicode="&#xa6;" horiz-adv-x="794" 
d="M178 -213l92 739h242l-92 -739h-242zM317 918l91 739h241l-90 -739h-242z" />
    <glyph glyph-name="section" unicode="&#xa7;" horiz-adv-x="1064" 
d="M969 639q0 -166 -195 -281q90 -82 90 -212t-108 -219q-109 -87 -310 -87q-104 0 -216 34t-187 93l123 156q132 -92 284 -92t152 114q0 49 -41 83t-185 83t-210 122t-66 179q0 166 191 262q-84 82 -84 215t109 222q110 88 323 88t371 -123l-125 -154q-127 86 -271 86
t-145 -110q0 -53 43 -88q44 -35 188 -84t206 -117t63 -170zM346 654q0 -66 54 -106t237 -106q88 78 88 144t-53 102q-53 37 -246 105q-80 -73 -80 -139z" />
    <glyph glyph-name="dieresis" unicode="&#xa8;" horiz-adv-x="849" 
d="M208 1315q-60 0 -104 41q-43 41 -43 100t43 100q44 41 104 41t102 -41t42 -100t-42 -100t-102 -41zM644 1315q-60 0 -103 41t-43 100t43 100t103 41t102 -41t42 -100t-42 -100t-102 -41z" />
    <glyph glyph-name="copyright" unicode="&#xa9;" horiz-adv-x="1644" 
d="M824 223q-280 0 -476 194q-196 193 -194 471q0 278 196 472t474 192q280 0 474 -194t193 -470q1 -277 -193 -471t-474 -194zM824 362q218 0 364 152q145 152 145 373t-145 375q-146 154 -364 154t-364 -154t-146 -375t146 -373t364 -152zM840 647q90 0 168 68l82 -121
q-117 -102 -271 -102t-249 104t-95 290t99 294q98 106 246 106t259 -94l-88 -115q-73 55 -149 55t-122 -58q-46 -60 -46 -185q0 -242 166 -242z" />
    <glyph glyph-name="ordfeminine" unicode="&#xaa;" horiz-adv-x="1228" 
d="M469 907q0 -116 105 -116t190 104l22 158h-96q-121 0 -171 -36t-50 -110zM952 0h-831l24 211h832zM496 627q-127 -1 -202 71t-75 189q0 147 121 229t360 82h107l6 55q6 66 -28 94q-35 27 -125 27t-250 -53l-37 162q190 63 351 63t237 -57t75 -182q0 -45 -4 -70l-47 -352
q-6 -49 3 -69t40 -30l-24 -163q-193 6 -222 135q-57 -61 -136 -96t-150 -35z" />
    <glyph glyph-name="guillemotleft" unicode="&#xab;" horiz-adv-x="1210" 
d="M852 594l209 -424l-170 -107l-318 447l23 172l440 440l144 -116zM360 594l207 -424l-168 -107l-319 447l24 172l439 440l143 -116z" />
    <glyph glyph-name="logicalnot" unicode="&#xac;" horiz-adv-x="1044" 
d="M958 752l-63 -514h-223l37 305h-613l27 209h835z" />
    <glyph glyph-name="uni00AD" unicode="&#xad;" horiz-adv-x="833" 
d="M721 537h-619l15 208h618z" />
    <glyph glyph-name="registered" unicode="&#xae;" horiz-adv-x="1314" 
d="M750 1124q0 74 -119 74h-51v-156h55q115 0 115 82zM887 1122q0 -117 -127 -159l166 -242h-156l-139 215h-51v-215h-134v579h177q264 0 264 -178zM658 1423q-176 0 -292 -123t-116 -302t116 -301t292 -122q175 0 291 122t116 301t-116 302t-291 123zM658 455
q-230 1 -389 157t-158 385q0 229 158 387q159 158 389 158t388 -158t156 -387q0 -229 -156 -386q-158 -156 -388 -156z" />
    <glyph glyph-name="macron" unicode="&#xaf;" horiz-adv-x="741" 
d="M680 1548l-25 -186h-594l25 186h594z" />
    <glyph glyph-name="degree" unicode="&#xb0;" horiz-adv-x="1038" 
d="M870 1120q0 -150 -101 -248q-101 -100 -255 -100t-254 89q-98 89 -98 220q0 169 103 267t257 98t251 -88t97 -238zM356 1103q0 -83 42 -126t112 -43q72 0 119 51t47 133t-42 125t-112 43t-118 -50t-48 -133z" />
    <glyph glyph-name="plusminus" unicode="&#xb1;" horiz-adv-x="1044" 
d="M866 0h-835l24 207h836zM694 1077l-39 -315h306l-27 -205h-303l-29 -227h-227l28 227h-305l27 205h303l39 315h227z" />
    <glyph glyph-name="twosuperior" unicode="&#xb2;" horiz-adv-x="819" 
d="M508 1532q124 0 194 -64t70 -159t-68 -191t-139 -157q-72 -61 -196 -156h370l-41 -156h-598l17 137q274 224 360 324t86 176q0 41 -25 65q-26 24 -69 23q-90 0 -178 -90l-117 98q145 150 334 150z" />
    <glyph glyph-name="threesuperior" unicode="&#xb3;" horiz-adv-x="819" 
d="M471 1532q149 0 222 -57t73 -135t-49 -138q-49 -59 -135 -82l-2 -8q74 -14 120 -68t45 -124q0 -119 -99 -202t-255 -83q-217 0 -321 133l127 102q78 -84 186 -84q74 0 116 38t42 104q0 106 -140 106h-77l43 144h51q68 0 106 32t37 84q1 86 -99 86t-204 -75l-88 110
q152 117 301 117z" />
    <glyph glyph-name="acute" unicode="&#xb4;" horiz-adv-x="671" 
d="M127 1260l-66 139l449 276l100 -213z" />
    <glyph glyph-name="mu" unicode="&#xb5;" horiz-adv-x="1175" 
d="M975 176q0 -86 14 -176l-244 -31q-33 70 -28 195q-63 -90 -141 -139t-160 -49q-80 0 -133 67l-7 -4q25 -53 25 -117t-10 -143l-29 -197l-254 -24l215 1525h262l-104 -733q-4 -22 -4 -72q0 -98 100 -98q57 0 127 52t123 145l102 706h263l-105 -725q-12 -96 -12 -182z" />
    <glyph glyph-name="paragraph" unicode="&#xb6;" horiz-adv-x="1562" 
d="M201 992q1 194 151 308t434 115h639l-225 -1837l-235 -22l204 1667h-200l-144 -1184q-31 -256 -135 -388t-309 -202l-70 193q133 53 196 132t81 224l67 563q-211 6 -333 122q-122 115 -121 309z" />
    <glyph glyph-name="periodcentered" unicode="&#xb7;" horiz-adv-x="524" 
d="M268 516q-70 0 -117 48t-47 117t48 117t116 48q70 0 119 -48t49 -117t-49 -117t-119 -48z" />
    <glyph glyph-name="cedilla" unicode="&#xb8;" horiz-adv-x="647" 
d="M287 -365q98 0 98 80q0 35 -38 53t-136 17l68 248h145l-21 -139q87 -10 135 -60t48 -135q0 -86 -79 -152q-79 -65 -209 -65t-237 63l84 129q68 -39 142 -39z" />
    <glyph glyph-name="onesuperior" unicode="&#xb9;" horiz-adv-x="819" 
d="M588 649h-199l82 660l-199 -103l-79 137l333 175h168z" />
    <glyph glyph-name="ordmasculine" unicode="&#xba;" horiz-adv-x="1228" 
d="M920 0h-832l25 211h831zM666 1372q-111 0 -167 -96t-57 -268q0 -205 162 -205q111 0 169 100t58 268q-1 101 -47 151t-118 50zM674 1546q176 0 284 -103t107 -280q0 -238 -125 -385t-344 -147q-178 0 -285 100q-106 100 -106 281q0 244 128 389t341 145z" />
    <glyph glyph-name="guillemotright" unicode="&#xbb;" horiz-adv-x="1210" 
d="M358 594l-206 422l167 106l320 -446l-25 -172l-438 -441l-143 119zM852 594l-209 422l170 106l317 -446l-22 -172l-440 -441l-144 119z" />
    <glyph glyph-name="onequarter" unicode="&#xbc;" horiz-adv-x="1839" 
d="M1706 184h-102l-21 -184h-194l22 184h-373l17 131l321 574l162 -62l-266 -491h160l53 205h164l-25 -205h102zM602 569h-199l82 660l-198 -103l-80 138l334 174h168zM1544 1466l-1057 -1640l-161 86l1058 1640z" />
    <glyph glyph-name="onehalf" unicode="&#xbd;" horiz-adv-x="1839" 
d="M1772 660q0 -95 -68 -191t-139 -158q-72 -61 -197 -155h371l-41 -156h-598l16 137q274 223 360 323t87 177q0 41 -26 65t-69 23q-90 0 -178 -90l-116 98q145 150 333 150q123 0 194 -64t71 -159zM602 569h-199l82 660l-198 -103l-80 138l334 174h168zM1544 1466
l-1057 -1640l-161 86l1058 1640z" />
    <glyph glyph-name="threequarters" unicode="&#xbe;" horiz-adv-x="1839" 
d="M473 1452q131 0 204 -57t73 -135t-50 -138q-50 -59 -135 -82l-2 -8q74 -14 120 -67t46 -125q0 -119 -99 -202t-255 -83q-217 0 -322 133l127 103q78 -84 187 -84q73 -1 115 37t42 104q0 106 -139 106h-78l43 144h51q68 0 106 32t38 84q1 86 -99 86t-204 -75l-88 110
q150 117 319 117zM1706 184h-102l-21 -184h-194l22 184h-373l17 131l321 574l162 -62l-266 -491h160l53 205h164l-25 -205h102zM1544 1466l-1057 -1640l-161 86l1058 1640z" />
    <glyph glyph-name="questiondown" unicode="&#xbf;" horiz-adv-x="1030" 
d="M754 871q0 -69 -48 -117t-118 -49q-70 0 -118 49q-48 50 -48 118t48 116t118 48t118 -48t48 -117zM471 446q0 20 -6 52l229 37q50 -153 -27 -273q-46 -72 -113 -112q-68 -40 -134 -72q-158 -79 -158 -182q0 -62 42 -98t116 -36q143 1 274 138l158 -140
q-207 -207 -463 -206q-186 0 -295 91q-108 91 -108 209t50 194t121 116q71 39 143 74q172 84 171 208z" />
    <glyph glyph-name="Agrave" unicode="&#xc0;" horiz-adv-x="1193" 
d="M1008 1683l-66 -141l-481 187l100 217zM670 1190l-262 -658h370l-100 658h-8zM854 0l-49 328h-473l-131 -328h-289l620 1415h334l271 -1415h-283z" />
    <glyph glyph-name="Aacute" unicode="&#xc1;" horiz-adv-x="1193" 
d="M524 1544l-65 142l446 262l101 -217zM670 1190l-262 -658h370l-100 658h-8zM854 0l-49 328h-473l-131 -328h-289l620 1415h334l271 -1415h-283z" />
    <glyph glyph-name="Acircumflex" unicode="&#xc2;" horiz-adv-x="1193" 
d="M735 1714l-282 -172l-97 121l314 242h164l258 -248l-113 -115zM670 1190l-262 -658h370l-100 658h-8zM854 0l-49 328h-473l-131 -328h-289l620 1415h334l271 -1415h-283z" />
    <glyph glyph-name="Atilde" unicode="&#xc3;" horiz-adv-x="1193" 
d="M840 1583q-70 0 -137 46t-97 46t-52 -20q-24 -20 -56 -68l-133 66q111 213 266 213q77 0 174 -70q31 -22 55 -22q55 0 115 88l133 -66q-114 -213 -268 -213zM670 1190l-262 -658h370l-100 658h-8zM854 0l-49 328h-473l-131 -328h-289l620 1415h334l271 -1415h-283z" />
    <glyph glyph-name="Adieresis" unicode="&#xc4;" horiz-adv-x="1193" 
d="M963 1561q-61 0 -105 41q-43 41 -43 101t43 101q44 41 104 41t103 -41t43 -101t-42 -101t-103 -41zM508 1561q-61 0 -104 41q-42 41 -42 101t44 101t103 41q60 0 102 -41t42 -101t-42 -101t-103 -41zM670 1190l-262 -658h370l-100 658h-8zM854 0l-49 328h-473l-131 -328
h-289l620 1415h334l271 -1415h-283z" />
    <glyph glyph-name="Aring" unicode="&#xc5;" horiz-adv-x="1193" 
d="M727 1511q-117 0 -185 65q-68 64 -67 170q0 106 79 182t195 75q117 0 185 -65t68 -169t-80 -181q-78 -77 -195 -77zM637 1749q-1 -49 25 -75t72 -25q46 -1 76 33t30 84t-26 74q-26 26 -70 26t-76 -34q-31 -34 -31 -83zM670 1190l-262 -658h370l-100 658h-8zM854 0
l-49 328h-473l-131 -328h-289l620 1415h334l271 -1415h-283z" />
    <glyph glyph-name="AE" unicode="&#xc6;" horiz-adv-x="1671" 
d="M754 1192l-320 -660h379l-49 660h-10zM856 0l-31 328h-483l-158 -328h-293l736 1415h1011l-55 -201h-588l37 -395h514l-24 -203h-471l43 -413h467l-23 -203h-682z" />
    <glyph glyph-name="Ccedilla" unicode="&#xc7;" horiz-adv-x="1167" 
d="M541 -365q98 0 98 80q0 35 -38 53t-136 17l53 197q-196 36 -308 186t-112 405q0 379 197 626t498 247q258 0 417 -162l-153 -149q-115 102 -260 102q-180 0 -297 -186t-117 -476q0 -387 287 -387q152 0 309 121l117 -174q-180 -156 -428 -164l-11 -77q87 -10 135 -60
t48 -135q0 -86 -79 -152q-79 -65 -211 -65t-235 63l84 129q68 -39 142 -39z" />
    <glyph glyph-name="Egrave" unicode="&#xc8;" horiz-adv-x="1079" 
d="M995 1683l-65 -141l-481 187l100 217zM1034 1214h-520l-49 -395h455l-25 -201h-455l-51 -415h557l-22 -203h-830l172 1415h824z" />
    <glyph glyph-name="Eacute" unicode="&#xc9;" horiz-adv-x="1079" 
d="M522 1542l-65 141l446 263l101 -217zM1034 1214h-520l-49 -395h455l-25 -201h-455l-51 -415h557l-22 -203h-830l172 1415h824z" />
    <glyph glyph-name="Ecircumflex" unicode="&#xca;" horiz-adv-x="1079" 
d="M713 1714l-283 -172l-96 121l313 242h164l258 -248l-113 -115zM1034 1214h-520l-49 -395h455l-25 -201h-455l-51 -415h557l-22 -203h-830l172 1415h824z" />
    <glyph glyph-name="Edieresis" unicode="&#xcb;" horiz-adv-x="1079" 
d="M938 1561q-61 0 -104 41t-43 101t43 101t103 41t103 -41t43 -101t-42 -101t-103 -41zM483 1561q-61 0 -103 41t-42 101t43 101t103 41t102 -41t43 -101q-1 -60 -43 -101t-103 -41zM1034 1214h-520l-49 -395h455l-25 -201h-455l-51 -415h557l-22 -203h-830l172 1415h824z
" />
    <glyph glyph-name="Igrave" unicode="&#xcc;" horiz-adv-x="600" 
d="M717 1683l-66 -141l-481 187l100 217zM365 0h-271l172 1415h273z" />
    <glyph glyph-name="Iacute" unicode="&#xcd;" horiz-adv-x="600" 
d="M227 1542l-65 141l446 263l101 -217zM365 0h-271l172 1415h273z" />
    <glyph glyph-name="Icircumflex" unicode="&#xce;" horiz-adv-x="600" 
d="M440 1714l-282 -172l-97 121l314 242h164l258 -248l-113 -115zM365 0h-271l172 1415h273z" />
    <glyph glyph-name="Idieresis" unicode="&#xcf;" horiz-adv-x="600" 
d="M668 1561q-61 0 -105 41q-43 41 -43 101t43 101t103 41t104 -41q43 -41 43 -101t-42 -101t-103 -41zM213 1561q-61 0 -103 41t-42 101t43 101t103 41t102 -41t42 -101t-42 -101t-103 -41zM365 0h-271l172 1415h273z" />
    <glyph glyph-name="Eth" unicode="&#xd0;" horiz-adv-x="1343" 
d="M535 203q205 0 333 164t127 481q0 365 -360 364h-117l-49 -401h315l-22 -176h-316l-53 -432h142zM1276 852q0 -400 -201 -626t-563 -226h-414l78 635h-145l20 176h146l73 604h371q299 -1 467 -145t168 -418z" />
    <glyph glyph-name="Ntilde" unicode="&#xd1;" horiz-adv-x="1370" 
d="M926 1583q-70 0 -136 46t-97 46q-29 0 -53 -20t-56 -68l-133 66q111 213 266 213q73 0 139 -46t90 -46q55 0 115 88l133 -66q-114 -213 -268 -213zM958 270l-2 62q0 236 35 514l70 569h246l-172 -1415h-349l-335 1141h-9q8 -238 -30 -561l-72 -580h-246l172 1415h340
l344 -1145h8z" />
    <glyph glyph-name="Ograve" unicode="&#xd2;" horiz-adv-x="1411" 
d="M1118 1683l-65 -141l-482 187l101 217zM653 176q117 0 202 69q142 115 186 405q17 112 18 229q0 360 -273 360q-306 0 -387 -474q-18 -112 -18 -226q0 -363 272 -363zM649 -31q-254 0 -402 155q-149 155 -149 433t109 510t324 328q118 51 260 51q254 0 402 -156t148 -435
q0 -280 -108 -509t-326 -326q-117 -51 -258 -51z" />
    <glyph glyph-name="Oacute" unicode="&#xd3;" horiz-adv-x="1411" 
d="M641 1542l-66 141l447 263l100 -217zM653 176q117 0 202 69q142 115 186 405q17 112 18 229q0 360 -273 360q-306 0 -387 -474q-18 -112 -18 -226q0 -363 272 -363zM649 -31q-254 0 -402 155q-149 155 -149 433t109 510t324 328q118 51 260 51q254 0 402 -156t148 -435
q0 -280 -108 -509t-326 -326q-117 -51 -258 -51z" />
    <glyph glyph-name="Ocircumflex" unicode="&#xd4;" horiz-adv-x="1411" 
d="M846 1714l-283 -172l-96 121l313 242h164l258 -248l-112 -115zM653 176q117 0 202 69q142 115 186 405q17 112 18 229q0 360 -273 360q-306 0 -387 -474q-18 -112 -18 -226q0 -363 272 -363zM649 -31q-254 0 -402 155q-149 155 -149 433t109 510t324 328q118 51 260 51
q254 0 402 -156t148 -435q0 -280 -108 -509t-326 -326q-117 -51 -258 -51z" />
    <glyph glyph-name="Otilde" unicode="&#xd5;" horiz-adv-x="1411" 
d="M950 1583q-70 0 -136 46t-96 46t-54 -20t-56 -68l-133 66q111 213 266 213q74 0 140 -46t90 -46q55 0 114 88l134 -66q-115 -213 -269 -213zM653 176q117 0 202 69q142 115 186 405q17 112 18 229q0 360 -273 360q-306 0 -387 -474q-18 -112 -18 -226q0 -363 272 -363z
M649 -31q-254 0 -402 155q-149 155 -149 433t109 510t324 328q118 51 260 51q254 0 402 -156t148 -435q0 -280 -108 -509t-326 -326q-117 -51 -258 -51z" />
    <glyph glyph-name="Odieresis" unicode="&#xd6;" horiz-adv-x="1411" 
d="M1071 1561q-61 0 -104 41t-43 101t43 101t103 41t104 -41t43 -101t-43 -101t-103 -41zM616 1561q-61 0 -103 41t-42 101t43 101t103 41q61 0 103 -41t42 -101t-42 -101t-104 -41zM653 176q117 0 202 69q142 115 186 405q17 112 18 229q0 360 -273 360q-306 0 -387 -474
q-18 -112 -18 -226q0 -363 272 -363zM649 -31q-254 0 -402 155q-149 155 -149 433t109 510t324 328q118 51 260 51q254 0 402 -156t148 -435q0 -280 -108 -509t-326 -326q-117 -51 -258 -51z" />
    <glyph glyph-name="multiply" unicode="&#xd7;" horiz-adv-x="1044" 
d="M334 1004l207 -238l264 240l137 -160l-264 -236l207 -233l-168 -150l-207 234l-268 -240l-138 158l269 237l-207 236z" />
    <glyph glyph-name="Oslash" unicode="&#xd8;" horiz-adv-x="1411" 
d="M653 176q94 0 169 47t119 120t83 203t39 325q0 194 -80 278l-401 -967q36 -6 71 -6zM375 539q0 -188 80 -275l403 967q-31 8 -72 8q-307 0 -392 -474q-19 -111 -19 -226zM1341 850q0 -275 -108 -504t-326 -326q-117 -51 -258 -51q-57 0 -125 15l-108 -258l-209 57
l121 272q-229 152 -230 508q0 273 109 504q109 232 324 328q118 51 260 51q63 0 124 -12l107 254l209 -58l-119 -272q229 -154 229 -508z" />
    <glyph glyph-name="Ugrave" unicode="&#xd9;" horiz-adv-x="1341" 
d="M1073 1683l-65 -141l-482 187l101 217zM621 -31q-240 0 -367 115t-127 328q0 47 6 96l113 907h272l-115 -919q-6 -45 -6 -86q1 -119 57 -174q56 -56 175 -56t191 75t89 216l117 944h274l-116 -942q-31 -240 -177 -372t-386 -132z" />
    <glyph glyph-name="Uacute" unicode="&#xda;" horiz-adv-x="1341" 
d="M610 1542l-65 141l446 263l101 -217zM621 -31q-240 0 -367 115t-127 328q0 47 6 96l113 907h272l-115 -919q-6 -45 -6 -86q1 -119 57 -174q56 -56 175 -56t191 75t89 216l117 944h274l-116 -942q-31 -240 -177 -372t-386 -132z" />
    <glyph glyph-name="Ucircumflex" unicode="&#xdb;" horiz-adv-x="1341" 
d="M811 1714l-283 -172l-96 121l313 242h164l258 -248l-112 -115zM621 -31q-240 0 -367 115t-127 328q0 47 6 96l113 907h272l-115 -919q-6 -45 -6 -86q1 -119 57 -174q56 -56 175 -56t191 75t89 216l117 944h274l-116 -942q-31 -240 -177 -372t-386 -132z" />
    <glyph glyph-name="Udieresis" unicode="&#xdc;" horiz-adv-x="1341" 
d="M1036 1561q-61 0 -104 41t-43 101t43 101t103 41q59 0 103 -41t44 -101t-42 -101t-104 -41zM582 1561q-61 0 -104 41q-42 41 -42 101t43 101t103 41t103 -41q42 -41 42 -101t-42 -101t-103 -41zM621 -31q-240 0 -367 115t-127 328q0 47 6 96l113 907h272l-115 -919
q-6 -45 -6 -86q1 -119 57 -174q56 -56 175 -56t191 75t89 216l117 944h274l-116 -942q-31 -240 -177 -372t-386 -132z" />
    <glyph glyph-name="Yacute" unicode="&#xdd;" horiz-adv-x="1161" 
d="M520 1542l-65 141l446 263l100 -217zM1274 1415l-563 -878l-66 -537h-272l65 535l-348 880h287l215 -649h8l375 649h299z" />
    <glyph glyph-name="Thorn" unicode="&#xde;" horiz-adv-x="1187" 
d="M588 451q141 -1 224 81t83 232q0 207 -283 207h-129l-63 -520h168zM1178 770q0 -242 -159 -382t-429 -140h-195l-30 -248h-271l172 1415h273l-31 -246h125q265 1 405 -105t140 -294z" />
    <glyph glyph-name="germandbls" unicode="&#xdf;" horiz-adv-x="1204" 
d="M827 864q1 -45 51 -98t109 -101q59 -49 109 -135t51 -184q0 -166 -112 -271t-289 -105t-302 98l113 168q80 -62 156 -62t120 43t44 118q1 75 -47 135t-103 99t-102 104t-47 132q0 127 67 189q46 44 119 102q74 58 76 145q0 51 -35 82t-113 31q-171 0 -205 -252l-139 -981
q-35 -248 -140 -371t-319 -194l-67 190q124 48 182 120t78 226l135 963q37 262 157 377t347 114q174 0 276 -80t103 -202q0 -80 -43 -142t-93 -95q-50 -32 -94 -75t-43 -88z" />
    <glyph glyph-name="agrave" unicode="&#xe0;" horiz-adv-x="1181" 
d="M985 1403l-65 -139l-484 202l101 213zM494 168q53 0 116 51t117 139l82 531q-72 29 -143 29q-136 0 -232 -132t-96 -374q0 -244 156 -244zM410 -31q-160 0 -252 111t-92 330q0 315 172 510t428 194q210 0 421 -106l-104 -715q-10 -67 1 -97t50 -46l-78 -179
q-195 18 -225 185q-67 -88 -151 -138t-170 -49z" />
    <glyph glyph-name="aacute" unicode="&#xe1;" horiz-adv-x="1181" 
d="M483 1260l-65 139l448 276l101 -213zM494 168q53 0 116 51t117 139l82 531q-72 29 -143 29q-136 0 -232 -132t-96 -374q0 -244 156 -244zM410 -31q-160 0 -252 111t-92 330q0 315 172 510t428 194q210 0 421 -106l-104 -715q-10 -67 1 -97t50 -46l-78 -179
q-195 18 -225 185q-67 -88 -151 -138t-170 -49z" />
    <glyph glyph-name="acircumflex" unicode="&#xe2;" horiz-adv-x="1181" 
d="M719 1458l-293 -192l-92 116l323 267h164l248 -269l-117 -114zM494 168q53 0 116 51t117 139l82 531q-72 29 -143 29q-136 0 -232 -132t-96 -374q0 -244 156 -244zM410 -31q-160 0 -252 111t-92 330q0 315 172 510t428 194q210 0 421 -106l-104 -715q-10 -67 1 -97
t50 -46l-78 -179q-195 18 -225 185q-67 -88 -151 -138t-170 -49z" />
    <glyph glyph-name="atilde" unicode="&#xe3;" horiz-adv-x="1181" 
d="M807 1313q-69 0 -135 46t-94 46q-28 1 -53 -19q-24 -20 -58 -69l-135 67q115 211 274 211q72 0 135 -46t92 -46q29 1 54 21t59 67l133 -65q-116 -213 -272 -213zM494 168q53 0 116 51t117 139l82 531q-72 29 -143 29q-136 0 -232 -132t-96 -374q0 -244 156 -244zM410 -31
q-160 0 -252 111t-92 330q0 315 172 510t428 194q210 0 421 -106l-104 -715q-10 -67 1 -97t50 -46l-78 -179q-195 18 -225 185q-67 -88 -151 -138t-170 -49z" />
    <glyph glyph-name="adieresis" unicode="&#xe4;" horiz-adv-x="1181" 
d="M495 1315q-60 0 -104 41q-43 41 -43 100t43 100t103 41t103 -41q42 -41 42 -100t-42 -100t-102 -41zM931 1315q-60 0 -104 41q-43 41 -43 100t43 100t103 41t103 -41q42 -41 42 -100t-42 -100t-102 -41zM494 168q53 0 116 51t117 139l82 531q-72 29 -143 29
q-136 0 -232 -132t-96 -374q0 -244 156 -244zM410 -31q-160 0 -252 111t-92 330q0 315 172 510t428 194q210 0 421 -106l-104 -715q-10 -67 1 -97t50 -46l-78 -179q-195 18 -225 185q-67 -88 -151 -138t-170 -49z" />
    <glyph glyph-name="aring" unicode="&#xe5;" horiz-adv-x="1181" 
d="M704 1245q-118 0 -184 65q-66 64 -66 170t78 182t195 75q117 0 185 -65q68 -64 69 -168q0 -104 -80 -182t-197 -77zM713 1384q45 0 75 33t31 82q0 49 -25 75q-26 26 -71 26t-77 -34t-32 -83t27 -74t72 -25zM494 168q53 0 116 51t117 139l82 531q-72 29 -143 29
q-136 0 -232 -132t-96 -374q0 -244 156 -244zM410 -31q-160 0 -252 111t-92 330q0 315 172 510t428 194q210 0 421 -106l-104 -715q-10 -67 1 -97t50 -46l-78 -179q-195 18 -225 185q-67 -88 -151 -138t-170 -49z" />
    <glyph glyph-name="ae" unicode="&#xe6;" horiz-adv-x="1669" 
d="M606 479q-164 0 -236 -50t-73 -150q0 -119 143 -119q74 0 150 51q75 51 110 125q-4 82 5 143h-99zM1241 928q-102 0 -187 -96t-110 -259q226 19 324 79t98 167q0 51 -33 80t-92 29zM1634 827q0 -364 -698 -419q6 -118 58 -176t141 -58q131 0 270 92l104 -164
q-176 -133 -387 -133q-260 0 -372 193q-141 -193 -398 -193q-172 0 -253 80t-81 215q0 182 146 278t420 95h137l10 94q10 96 -33 139q-42 43 -164 43t-286 -55l-39 180q215 76 379 76q266 0 315 -174q135 174 369 174q170 0 266 -77t96 -210z" />
    <glyph glyph-name="ccedilla" unicode="&#xe7;" horiz-adv-x="956" 
d="M408 -365q98 0 98 80q0 35 -38 53t-136 17l55 199q-149 34 -235 152t-86 306q0 303 164 488q165 184 401 184q195 0 346 -121l-119 -164q-96 78 -218 78t-211 -124t-89 -341q0 -262 205 -262q102 0 231 82l90 -174q-152 -106 -331 -117l-11 -77q86 -10 134 -60t48 -135
q0 -86 -78 -152q-79 -65 -211 -65t-235 63l82 129q72 -39 144 -39z" />
    <glyph glyph-name="egrave" unicode="&#xe8;" horiz-adv-x="1067" 
d="M961 1403l-66 -139l-483 202l100 213zM639 928q-104 0 -188 -95t-109 -260q232 21 326 81t94 165q0 51 -33 80t-90 29zM1032 827q0 -171 -169 -281t-529 -138q6 -118 58 -176t138 -58q133 0 273 92l104 -164q-176 -133 -391 -133t-333 122t-117 347q0 303 166 490
q167 186 423 186q177 0 277 -77t100 -210z" />
    <glyph glyph-name="eacute" unicode="&#xe9;" horiz-adv-x="1067" 
d="M473 1260l-65 139l448 276l100 -213zM639 928q-104 0 -188 -95t-109 -260q232 21 326 81t94 165q0 51 -33 80t-90 29zM1032 827q0 -171 -169 -281t-529 -138q6 -118 58 -176t138 -58q133 0 273 92l104 -164q-176 -133 -391 -133t-333 122t-117 347q0 303 166 490
q167 186 423 186q177 0 277 -77t100 -210z" />
    <glyph glyph-name="ecircumflex" unicode="&#xea;" horiz-adv-x="1067" 
d="M688 1458l-293 -192l-92 116l324 267h164l247 -269l-116 -114zM639 928q-104 0 -188 -95t-109 -260q232 21 326 81t94 165q0 51 -33 80t-90 29zM1032 827q0 -171 -169 -281t-529 -138q6 -118 58 -176t138 -58q133 0 273 92l104 -164q-176 -133 -391 -133t-333 122
t-117 347q0 303 166 490q167 186 423 186q177 0 277 -77t100 -210z" />
    <glyph glyph-name="edieresis" unicode="&#xeb;" horiz-adv-x="1067" 
d="M474 1597q60 0 102 -41t42 -100t-42 -100t-102 -41t-103 41t-43 100t43 100t103 41zM1055 1456q-1 -59 -43 -100t-102 -41t-103 41t-43 100t43 100t103 41t102 -41t43 -100zM639 928q-104 0 -188 -95t-109 -260q232 21 326 81t94 165q0 51 -33 80t-90 29zM1032 827
q0 -171 -169 -281t-529 -138q6 -118 58 -176t138 -58q133 0 273 92l104 -164q-176 -133 -391 -133t-333 122t-117 347q0 303 166 490q167 186 423 186q177 0 277 -77t100 -210z" />
    <glyph glyph-name="igrave" unicode="&#xec;" horiz-adv-x="555" 
d="M684 1403l-66 -139l-483 202l101 213zM326 0h-263l152 1083h262z" />
    <glyph glyph-name="iacute" unicode="&#xed;" horiz-adv-x="555" 
d="M193 1260l-66 139l448 276l101 -213zM326 0h-263l152 1083h262z" />
    <glyph glyph-name="icircumflex" unicode="&#xee;" horiz-adv-x="555" 
d="M326 0h-263l152 1083h262zM406 1458l-293 -192l-93 116l324 267h164l248 -269l-117 -114z" />
    <glyph glyph-name="idieresis" unicode="&#xef;" horiz-adv-x="555" 
d="M326 0h-263l152 1083h262zM332 1456q0 -59 -42 -100t-103 -41q-60 0 -103 41t-43 100t43 100t103 41q61 0 103 -41t42 -100zM624 1315q-60 0 -104 41q-43 41 -43 100t43 100q44 41 104 41t102 -41t42 -100t-42 -100t-102 -41z" />
    <glyph glyph-name="eth" unicode="&#xf0;" horiz-adv-x="1169" 
d="M520 164q117 0 196 121t99 364q-84 145 -235 146q-104 -1 -176 -99t-70 -274q0 -126 51 -192t135 -66zM1096 842q0 -31 -4 -97q-29 -371 -180 -573t-408 -203q-199 0 -319 123q-119 122 -119 346t133 386t311 161q119 0 196 -37t144 -137l6 4q12 287 -180 420l-172 -154
l-160 80l164 152q-96 33 -180 51l80 182q172 -39 270 -80l160 148l125 -123l-121 -109q254 -180 254 -540z" />
    <glyph glyph-name="ntilde" unicode="&#xf1;" horiz-adv-x="1177" 
d="M817 1313q-69 0 -135 46t-94 46q-28 1 -52 -19t-59 -69l-135 67q115 211 274 211q72 0 136 -46t92 -46q30 1 54 21t58 67l134 -65q-117 -213 -273 -213zM817 1114q115 0 181 -68t65 -202q0 -41 -6 -90l-105 -754h-262l96 709q17 135 -10 163t-71 27q-133 0 -287 -285
l-86 -614h-262l153 1083h228l-17 -215q168 246 383 246z" />
    <glyph glyph-name="ograve" unicode="&#xf2;" horiz-adv-x="1179" 
d="M979 1403l-66 -139l-483 202l100 213zM635 915q-135 0 -216 -141t-81 -360q0 -246 188 -246q78 0 137 46q104 83 142 283q16 85 16 173q0 245 -186 245zM645 1114q211 0 330 -125t119 -338q0 -295 -156 -489t-420 -193q-211 0 -332 123t-120 338q0 284 152 484t427 200z
" />
    <glyph glyph-name="oacute" unicode="&#xf3;" horiz-adv-x="1179" 
d="M498 1260l-66 139l449 276l100 -213zM635 915q-135 0 -216 -141t-81 -360q0 -246 188 -246q78 0 137 46q104 83 142 283q16 85 16 173q0 245 -186 245zM645 1114q211 0 330 -125t119 -338q0 -295 -156 -489t-420 -193q-211 0 -332 123t-120 338q0 284 152 484t427 200z
" />
    <glyph glyph-name="ocircumflex" unicode="&#xf4;" horiz-adv-x="1179" 
d="M709 1458l-293 -192l-92 116l323 267h164l248 -269l-117 -114zM635 915q-135 0 -216 -141t-81 -360q0 -246 188 -246q78 0 137 46q104 83 142 283q16 85 16 173q0 245 -186 245zM645 1114q211 0 330 -125t119 -338q0 -295 -156 -489t-420 -193q-211 0 -332 123t-120 338
q0 284 152 484t427 200z" />
    <glyph glyph-name="otilde" unicode="&#xf5;" horiz-adv-x="1179" 
d="M807 1313q-69 0 -135 46t-94 46q-28 1 -53 -19q-24 -20 -58 -69l-135 67q115 211 274 211q72 0 135 -46t92 -46q29 1 54 21t59 67l133 -65q-116 -213 -272 -213zM635 915q-135 0 -216 -141t-81 -360q0 -246 188 -246q78 0 137 46q104 83 142 283q16 85 16 173
q0 245 -186 245zM645 1114q211 0 330 -125t119 -338q0 -295 -156 -489t-420 -193q-211 0 -332 123t-120 338q0 284 152 484t427 200z" />
    <glyph glyph-name="odieresis" unicode="&#xf6;" horiz-adv-x="1179" 
d="M493 1315q-60 0 -104 41q-43 41 -43 100t43 100t103 41t103 -41q42 -41 42 -100t-42 -100t-102 -41zM929 1315q-60 0 -104 41q-43 41 -43 100t43 100t103 41t103 -41q42 -41 42 -100t-42 -100t-102 -41zM635 915q-135 0 -216 -141t-81 -360q0 -246 188 -246q78 0 137 46
q104 83 142 283q16 85 16 173q0 245 -186 245zM645 1114q211 0 330 -125t119 -338q0 -295 -156 -489t-420 -193q-211 0 -332 123t-120 338q0 284 152 484t427 200z" />
    <glyph glyph-name="divide" unicode="&#xf7;" horiz-adv-x="1044" 
d="M416 1070q0 69 48 117t118 48t118 -48t48 -117t-48 -117t-118 -48t-118 48t-48 117zM313 222q0 69 48 118t118 49t118 -49t48 -118t-48 -117t-118 -48t-118 48t-48 117zM934 543h-836l27 209h836z" />
    <glyph glyph-name="oslash" unicode="&#xf8;" horiz-adv-x="1183" 
d="M829 670q0 104 -41 157l-299 -655q18 -4 46 -4q137 0 216 158q78 158 78 344zM637 915q-139 0 -221 -140t-82 -361q0 -113 45 -168l305 663q-20 6 -47 6zM647 1114q57 0 94 -10l113 246l193 -58l-121 -258q172 -122 172 -400t-156 -472t-422 -193q-35 0 -92 8l-113 -251
l-194 57l121 264q-176 119 -176 393t154 474t427 200z" />
    <glyph glyph-name="ugrave" unicode="&#xf9;" horiz-adv-x="1165" 
d="M958 1403l-65 -139l-483 202l100 213zM367 278q0 -98 100 -98q57 0 127 52t125 147l100 704h262l-151 -1083h-228l5 170q-145 -201 -338 -201q-266 0 -267 285q0 41 7 94l104 735h262l-104 -733q-4 -22 -4 -72z" />
    <glyph glyph-name="uacute" unicode="&#xfa;" horiz-adv-x="1165" 
d="M504 1260l-66 139l449 276l100 -213zM367 278q0 -98 100 -98q57 0 127 52t125 147l100 704h262l-151 -1083h-228l5 170q-145 -201 -338 -201q-266 0 -267 285q0 41 7 94l104 735h262l-104 -733q-4 -22 -4 -72z" />
    <glyph glyph-name="ucircumflex" unicode="&#xfb;" horiz-adv-x="1165" 
d="M696 1458l-293 -192l-92 116l324 267h164l248 -269l-117 -114zM367 278q0 -98 100 -98q57 0 127 52t125 147l100 704h262l-151 -1083h-228l5 170q-145 -201 -338 -201q-266 0 -267 285q0 41 7 94l104 735h262l-104 -733q-4 -22 -4 -72z" />
    <glyph glyph-name="udieresis" unicode="&#xfc;" horiz-adv-x="1165" 
d="M623 1456q-1 -59 -43 -100t-102 -41t-103 41t-43 100t43 100t103 41t102 -41t43 -100zM1059 1456q-1 -59 -43 -100t-102 -41t-103 41t-43 100t43 100t103 41t102 -41t43 -100zM367 278q0 -98 100 -98q57 0 127 52t125 147l100 704h262l-151 -1083h-228l5 170
q-145 -201 -338 -201q-266 0 -267 285q0 41 7 94l104 735h262l-104 -733q-4 -22 -4 -72z" />
    <glyph glyph-name="yacute" unicode="&#xfd;" horiz-adv-x="1013" 
d="M440 1260l-65 139l448 276l101 -213zM264 0l-196 1083h270l113 -893h8l348 893h278l-479 -1079q-94 -210 -242 -322t-395 -128l-8 196q164 20 250 78t141 172h-88z" />
    <glyph glyph-name="thorn" unicode="&#xfe;" horiz-adv-x="1202" 
d="M558 166q108 0 197 151q87 152 87 396q0 96 -35 144t-88 48q-145 0 -301 -280l-49 -355q81 -104 189 -104zM809 1114q141 0 223 -98t82 -297q0 -330 -144 -540t-347 -210q-164 0 -279 125l-72 -512l-264 -28l275 1964l266 28l-92 -651q72 103 167 161t185 58z" />
    <glyph glyph-name="ydieresis" unicode="&#xff;" horiz-adv-x="1013" 
d="M409 1315q-60 0 -104 41q-43 41 -43 100t43 100t103 41t103 -41q42 -41 42 -100t-42 -100t-102 -41zM845 1315q-60 0 -104 41q-43 41 -43 100t43 100t103 41t103 -41q42 -41 42 -100t-42 -100t-102 -41zM264 0l-196 1083h270l113 -893h8l348 893h278l-479 -1079
q-94 -210 -242 -322t-395 -128l-8 196q164 20 250 78t141 172h-88z" />
    <glyph glyph-name="Amacron" unicode="&#x100;" horiz-adv-x="1193" 
d="M1044 1804l-22 -188h-596l25 188h593zM670 1190l-262 -658h370l-100 658h-8zM854 0l-49 328h-473l-131 -328h-289l620 1415h334l271 -1415h-283z" />
    <glyph glyph-name="amacron" unicode="&#x101;" horiz-adv-x="1181" 
d="M1016 1548l-25 -186h-594l25 186h594zM494 168q53 0 116 51t117 139l82 531q-72 29 -143 29q-136 0 -232 -132t-96 -374q0 -244 156 -244zM410 -31q-160 0 -252 111t-92 330q0 315 172 510t428 194q210 0 421 -106l-104 -715q-10 -67 1 -97t50 -46l-78 -179
q-195 18 -225 185q-67 -88 -151 -138t-170 -49z" />
    <glyph glyph-name="Abreve" unicode="&#x102;" horiz-adv-x="1193" 
d="M728 1546q-142 0 -225 89t-83 218l158 29q20 -147 158 -147t198 147l151 -29q-33 -133 -124 -220t-233 -87zM670 1190l-262 -658h370l-100 658h-8zM854 0l-49 328h-473l-131 -328h-289l620 1415h334l271 -1415h-283z" />
    <glyph glyph-name="abreve" unicode="&#x103;" horiz-adv-x="1181" 
d="M692 1268q-145 0 -220 97t-75 228l158 29q19 -168 155 -168t203 168l150 -29q-33 -133 -129 -229t-242 -96zM494 168q53 0 116 51t117 139l82 531q-72 29 -143 29q-136 0 -232 -132t-96 -374q0 -244 156 -244zM410 -31q-160 0 -252 111t-92 330q0 315 172 510t428 194
q210 0 421 -106l-104 -715q-10 -67 1 -97t50 -46l-78 -179q-195 18 -225 185q-67 -88 -151 -138t-170 -49z" />
    <glyph glyph-name="Aogonek" unicode="&#x104;" horiz-adv-x="1193" 
d="M670 1190l-262 -658h370l-100 658h-8zM920 -270q0 -86 106 -86q76 0 133 30l47 -137q-112 -49 -230 -49t-186 55t-67 147q0 92 61 172q61 81 179 138h-109l-49 328h-473l-131 -328h-289l620 1415h334l271 -1415q-217 -117 -217 -270z" />
    <glyph glyph-name="aogonek" unicode="&#x105;" horiz-adv-x="1181" 
d="M494 168q53 0 116 51t117 139l82 531q-72 29 -143 29q-136 0 -232 -132t-96 -374q0 -244 156 -244zM786 -270q0 -86 107 -86q76 0 133 30l47 -137q-111 -49 -229 -49t-187 55q-67 55 -67 147t64 176q65 83 184 140q-88 43 -107 150q-67 -88 -151 -138t-170 -49
q-160 0 -252 111t-92 330q0 315 172 510t428 194q210 0 421 -106l-104 -715q-10 -67 1 -97t50 -46l-78 -179q-170 -109 -170 -241z" />
    <glyph glyph-name="Cacute" unicode="&#x106;" horiz-adv-x="1167" 
d="M616 1542l-65 141l446 263l101 -217zM797 1237q-180 0 -297 -186t-117 -476q0 -387 287 -387q152 0 309 121l117 -174q-195 -166 -450 -166t-401 156t-147 448q0 379 197 626t498 247q257 0 417 -162l-153 -149q-115 102 -260 102z" />
    <glyph glyph-name="cacute" unicode="&#x107;" horiz-adv-x="956" 
d="M455 1260l-66 139l449 276l100 -213zM545 180q102 0 231 82l90 -174q-168 -119 -364 -119t-316 125q-121 125 -120 348q0 303 164 488q165 184 401 184q195 0 346 -121l-119 -164q-96 78 -218 78t-211 -124t-89 -341q0 -262 205 -262z" />
    <glyph glyph-name="Ccircumflex" unicode="&#x108;" horiz-adv-x="1167" 
d="M827 1714l-282 -172l-96 121l313 242h164l258 -248l-113 -115zM797 1237q-180 0 -297 -186t-117 -476q0 -387 287 -387q152 0 309 121l117 -174q-195 -166 -450 -166t-401 156t-147 448q0 379 197 626t498 247q257 0 417 -162l-153 -149q-115 102 -260 102z" />
    <glyph glyph-name="ccircumflex" unicode="&#x109;" horiz-adv-x="956" 
d="M676 1458l-293 -192l-92 116l323 267h164l248 -269l-117 -114zM545 180q102 0 231 82l90 -174q-168 -119 -364 -119t-316 125q-121 125 -120 348q0 303 164 488q165 184 401 184q195 0 346 -121l-119 -164q-96 78 -218 78t-211 -124t-89 -341q0 -262 205 -262z" />
    <glyph glyph-name="Cdotaccent" unicode="&#x10a;" horiz-adv-x="1167" 
d="M991 1724q0 -68 -46 -114t-119 -45q-74 0 -118 45q-44 46 -44 114t45 113t117 45t119 -45q46 -45 46 -113zM797 1237q-180 0 -297 -186t-117 -476q0 -387 287 -387q152 0 309 121l117 -174q-195 -166 -450 -166t-401 156t-147 448q0 379 197 626t498 247q257 0 417 -162
l-153 -149q-115 102 -260 102z" />
    <glyph glyph-name="cdotaccent" unicode="&#x10b;" horiz-adv-x="956" 
d="M840 1470q0 -68 -46 -114t-119 -45q-73 0 -119 46q-46 45 -46 113t46 113t119 45t119 -45t46 -113zM545 180q102 0 231 82l90 -174q-168 -119 -364 -119t-316 125q-121 125 -120 348q0 303 164 488q165 184 401 184q195 0 346 -121l-119 -164q-96 78 -218 78t-211 -124
t-89 -341q0 -262 205 -262z" />
    <glyph glyph-name="Ccaron" unicode="&#x10c;" horiz-adv-x="1167" 
d="M821 1739l283 170l94 -121l-311 -242h-164l-258 248l113 115zM797 1237q-180 0 -297 -186t-117 -476q0 -387 287 -387q152 0 309 121l117 -174q-195 -166 -450 -166t-401 156t-147 448q0 379 197 626t498 247q257 0 417 -162l-153 -149q-115 102 -260 102z" />
    <glyph glyph-name="ccaron" unicode="&#x10d;" horiz-adv-x="956" 
d="M676 1458l293 191l88 -117l-322 -266h-166l-247 270l118 113zM545 180q102 0 231 82l90 -174q-168 -119 -364 -119t-316 125q-121 125 -120 348q0 303 164 488q165 184 401 184q195 0 346 -121l-119 -164q-96 78 -218 78t-211 -124t-89 -341q0 -262 205 -262z" />
    <glyph glyph-name="Dcaron" unicode="&#x10e;" horiz-adv-x="1339" 
d="M741 1739l283 170l94 -121l-311 -242h-164l-258 248l113 115zM1272 852q0 -400 -201 -626t-563 -226h-414l172 1415h369q299 -1 468 -145t169 -418zM530 203q205 0 332 164t127 481q0 365 -358 364h-117l-125 -1009h141z" />
    <glyph glyph-name="dcaron" unicode="&#x10f;" horiz-adv-x="1320" 
d="M1268 1545q0 65 41 105t102 40t100 -37t39 -99t-49 -143l-127 -213h-137l88 240q-57 41 -57 107zM617 918q-115 0 -197 -130t-82 -374q0 -246 166 -246q57 0 124 54t126 147l63 450q-86 99 -200 99zM563 1114q164 0 279 -117l78 549l260 -28l-215 -1518h-232l2 152
q-145 -182 -310 -182t-262 116q-97 117 -97 334q0 310 149 502t348 192z" />
    <glyph glyph-name="Dcroat" unicode="&#x110;" horiz-adv-x="1343" 
d="M535 203q205 0 333 164t127 481q0 365 -360 364h-117l-49 -401h315l-22 -176h-316l-53 -432h142zM1276 852q0 -400 -201 -626t-563 -226h-414l78 635h-145l20 176h146l73 604h371q299 -1 467 -145t168 -418z" />
    <glyph glyph-name="dcroat" unicode="&#x111;" horiz-adv-x="1220" 
d="M617 918q-115 0 -197 -130t-82 -374q0 -246 166 -246q57 0 124 54t126 147l63 450q-86 99 -200 99zM66 420q0 311 149 503q150 191 348 191q164 0 279 -117l30 222h-297l25 167h297l23 160l260 -28l-19 -132h156l-25 -167h-155l-172 -1219h-232l2 152
q-145 -182 -310 -182t-262 116q-97 117 -97 334z" />
    <glyph glyph-name="Emacron" unicode="&#x112;" horiz-adv-x="1079" 
d="M1020 1804l-23 -188h-596l25 188h594zM1034 1214h-520l-49 -395h455l-25 -201h-455l-51 -415h557l-22 -203h-830l172 1415h824z" />
    <glyph glyph-name="emacron" unicode="&#x113;" horiz-adv-x="1067" 
d="M991 1548l-24 -186h-594l24 186h594zM639 928q-104 0 -188 -95t-109 -260q232 21 326 81t94 165q0 51 -33 80t-90 29zM1032 827q0 -171 -169 -281t-529 -138q6 -118 58 -176t138 -58q133 0 273 92l104 -164q-176 -133 -391 -133t-333 122t-117 347q0 303 166 490
q167 186 423 186q177 0 277 -77t100 -210z" />
    <glyph glyph-name="Ebreve" unicode="&#x114;" horiz-adv-x="1079" 
d="M704 1546q-142 0 -226 89q-83 89 -83 218l158 29q23 -147 160 -147t196 147l152 -29q-33 -133 -124 -220t-233 -87zM1034 1214h-520l-49 -395h455l-25 -201h-455l-51 -415h557l-22 -203h-830l172 1415h824z" />
    <glyph glyph-name="ebreve" unicode="&#x115;" horiz-adv-x="1067" 
d="M668 1268q-145 0 -221 97q-75 97 -74 228l157 29q20 -168 156 -168t203 168l149 -29q-33 -133 -129 -229t-241 -96zM639 928q-104 0 -188 -95t-109 -260q232 21 326 81t94 165q0 51 -33 80t-90 29zM1032 827q0 -171 -169 -281t-529 -138q6 -118 58 -176t138 -58
q133 0 273 92l104 -164q-176 -133 -391 -133t-333 122t-117 347q0 303 166 490q167 186 423 186q177 0 277 -77t100 -210z" />
    <glyph glyph-name="Edotaccent" unicode="&#x116;" horiz-adv-x="1079" 
d="M872 1724q0 -68 -46 -114t-118 -45q-73 0 -118 45q-45 46 -45 114t45 113t118 45q72 0 118 -45t46 -113zM1034 1214h-520l-49 -395h455l-25 -201h-455l-51 -415h557l-22 -203h-830l172 1415h824z" />
    <glyph glyph-name="edotaccent" unicode="&#x117;" horiz-adv-x="1067" 
d="M850 1470q0 -68 -46 -114t-119 -45q-73 0 -119 46q-46 45 -46 113t46 113t119 45t119 -45t46 -113zM639 928q-104 0 -188 -95t-109 -260q232 21 326 81t94 165q0 51 -33 80t-90 29zM1032 827q0 -171 -169 -281t-529 -138q6 -118 58 -176t138 -58q133 0 273 92l104 -164
q-176 -133 -391 -133t-333 122t-117 347q0 303 166 490q167 186 423 186q177 0 277 -77t100 -210z" />
    <glyph glyph-name="Eogonek" unicode="&#x118;" horiz-adv-x="1079" 
d="M705 -270q0 -86 108 -86q72 0 133 30l45 -137q-106 -49 -226 -49q-119 0 -187 55t-68 147t61 172q61 81 177 138h-654l172 1415h824l-56 -201h-520l-49 -395h455l-25 -201h-455l-51 -415h557l-22 -203q-219 -119 -219 -270z" />
    <glyph glyph-name="eogonek" unicode="&#x119;" horiz-adv-x="1067" 
d="M639 928q-104 0 -188 -95t-109 -260q232 21 326 81t94 165q0 51 -33 80t-90 29zM1032 827q0 -171 -169 -281t-529 -138q6 -118 58 -176t138 -58q133 0 273 92l104 -164q-94 -70 -200 -102q-217 -119 -218 -270q0 -86 109 -86q76 0 133 30l47 -137q-112 -49 -230 -49
t-186 55t-67 150q0 160 190 278q-207 10 -313 131t-106 336q0 303 166 490q167 186 423 186q177 0 277 -77t100 -210z" />
    <glyph glyph-name="Ecaron" unicode="&#x11a;" horiz-adv-x="1079" 
d="M707 1739l282 170l94 -121l-311 -242h-164l-258 248l113 115zM1034 1214h-520l-49 -395h455l-25 -201h-455l-51 -415h557l-22 -203h-830l172 1415h824z" />
    <glyph glyph-name="ecaron" unicode="&#x11b;" horiz-adv-x="1067" 
d="M682 1458l293 191l88 -117l-322 -266h-166l-247 270l118 113zM639 928q-104 0 -188 -95t-109 -260q232 21 326 81t94 165q0 51 -33 80t-90 29zM1032 827q0 -171 -169 -281t-529 -138q6 -118 58 -176t138 -58q133 0 273 92l104 -164q-176 -133 -391 -133t-333 122
t-117 347q0 303 166 490q167 186 423 186q177 0 277 -77t100 -210z" />
    <glyph glyph-name="Gcircumflex" unicode="&#x11c;" horiz-adv-x="1306" 
d="M854 1714l-283 -172l-96 121l313 242h164l258 -248l-112 -115zM652 -31q-269 0 -411 153t-143 456q0 408 204 638t498 230t464 -164l-160 -156q-123 115 -298 115t-300 -174t-125 -500q0 -205 76 -298t206 -93t236 60l45 360h-221l-8 201h516l-84 -684
q-226 -144 -495 -144z" />
    <glyph glyph-name="gcircumflex" unicode="&#x11d;" horiz-adv-x="1196" 
d="M717 1458l-293 -192l-92 116l323 267h164l248 -269l-117 -114zM498 201q61 0 130 49t122 137l73 500q-72 31 -149 31q-136 0 -234 -124t-98 -358t156 -235zM421 0q-159 0 -256 116t-97 330q0 292 176 480t432 188q219 0 426 -106l-133 -947q-72 -508 -547 -507
q-203 0 -399 112l92 182q160 -86 299 -86q247 1 286 273l19 129q-139 -164 -298 -164z" />
    <glyph glyph-name="Gbreve" unicode="&#x11e;" horiz-adv-x="1306" 
d="M843 1546q-142 0 -226 89q-83 89 -82 218l157 29q23 -147 160 -147t197 147l151 -29q-33 -133 -124 -220t-233 -87zM652 -31q-269 0 -411 153t-143 456q0 408 204 638t498 230t464 -164l-160 -156q-123 115 -298 115t-300 -174t-125 -500q0 -205 76 -298t206 -93t236 60
l45 360h-221l-8 201h516l-84 -684q-226 -144 -495 -144z" />
    <glyph glyph-name="gbreve" unicode="&#x11f;" horiz-adv-x="1196" 
d="M684 1262q-145 0 -220 97t-75 228l158 29q20 -168 155 -168t203 168l150 -29q-33 -133 -129 -229t-242 -96zM498 201q61 0 130 49t122 137l73 500q-72 31 -149 31q-136 0 -234 -124t-98 -358t156 -235zM421 0q-159 0 -256 116t-97 330q0 292 176 480t432 188
q219 0 426 -106l-133 -947q-72 -508 -547 -507q-203 0 -399 112l92 182q160 -86 299 -86q247 1 286 273l19 129q-139 -164 -298 -164z" />
    <glyph glyph-name="Gdotaccent" unicode="&#x120;" horiz-adv-x="1306" 
d="M850 1565q-72 0 -118 45q-46 46 -46 114t45 113t118 45t119 -45t46 -113t-46 -114t-118 -45zM652 -31q-269 0 -411 153t-143 456q0 408 204 638t498 230t464 -164l-160 -156q-123 115 -298 115t-300 -174t-125 -500q0 -205 76 -298t206 -93t236 60l45 360h-221l-8 201
h516l-84 -684q-226 -144 -495 -144z" />
    <glyph glyph-name="gdotaccent" unicode="&#x121;" horiz-adv-x="1196" 
d="M885 1464q0 -68 -46 -114t-119 -45q-73 0 -119 46q-46 45 -46 113t46 113t119 45t119 -45t46 -113zM498 201q61 0 130 49t122 137l73 500q-72 31 -149 31q-136 0 -234 -124t-98 -358t156 -235zM421 0q-159 0 -256 116t-97 330q0 292 176 480t432 188q219 0 426 -106
l-133 -947q-72 -508 -547 -507q-203 0 -399 112l92 182q160 -86 299 -86q247 1 286 273l19 129q-139 -164 -298 -164z" />
    <glyph glyph-name="uni0122" unicode="&#x122;" horiz-adv-x="1306" 
d="M584 -137q60 0 101 -37q40 -37 40 -96t-49 -144l-129 -213h-137l90 238q-60 47 -60 111t42 102q42 39 102 39zM652 -31q-269 0 -411 153t-143 456q0 408 204 638t498 230t464 -164l-160 -156q-123 115 -298 115t-300 -174t-125 -500q0 -205 76 -298t206 -93t236 60
l45 360h-221l-8 201h516l-84 -684q-226 -144 -495 -144z" />
    <glyph glyph-name="uni0123" unicode="&#x123;" horiz-adv-x="1196" 
d="M696 1282q-60 0 -101 37q-40 37 -40 96t49 144l129 213h137l-90 -238q60 -46 60 -110t-42 -103t-102 -39zM498 201q61 0 130 49t122 137l73 500q-72 31 -149 31q-136 0 -234 -124t-98 -358t156 -235zM421 0q-159 0 -256 116t-97 330q0 292 176 480t432 188
q219 0 426 -106l-133 -947q-72 -508 -547 -507q-203 0 -399 112l92 182q160 -86 299 -86q247 1 286 273l19 129q-139 -164 -298 -164z" />
    <glyph glyph-name="Hcircumflex" unicode="&#x124;" horiz-adv-x="1361" 
d="M821 1714l-282 -172l-97 121l314 242h164l258 -248l-113 -115zM1126 0h-272l78 633h-490l-77 -633h-271l172 1415h273l-70 -567h489l70 567h270z" />
    <glyph glyph-name="hcircumflex" unicode="&#x125;" horiz-adv-x="1177" 
d="M715 1778l-283 -172l-96 120l313 242h164l258 -248l-113 -114zM819 1114q115 0 179 -68t65 -206q0 -41 -6 -86l-105 -754h-262l96 709q17 135 -10 163t-71 27q-133 0 -285 -283l-88 -616h-262l213 1518l266 28l-92 -653q162 221 362 221z" />
    <glyph glyph-name="Hbar" unicode="&#x126;" horiz-adv-x="1392" 
d="M483 848h490l22 184h-489zM1143 0h-273l76 633h-489l-78 -633h-270l124 1032h-139l21 166h139l27 217h272l-29 -217h492l26 217h273l-27 -217h139l-20 -166h-139z" />
    <glyph glyph-name="hbar" unicode="&#x127;" horiz-adv-x="1189" 
d="M834 1114q114 0 178 -68t63 -202q0 -41 -6 -90l-104 -754h-263l99 709q6 45 6 93q0 98 -88 97q-135 0 -287 -283l-86 -616h-262l170 1219h-143l22 167h143l19 132l268 28l-24 -160h311l-23 -167h-311l-45 -326q162 221 363 221z" />
    <glyph glyph-name="Itilde" unicode="&#x128;" horiz-adv-x="600" 
d="M545 1583q-71 0 -137 46t-96 46t-54 -20t-55 -68l-133 66q111 213 266 213q74 0 140 -46t89 -46q55 0 115 88l133 -66q-114 -213 -268 -213zM365 0h-271l172 1415h273z" />
    <glyph glyph-name="itilde" unicode="&#x129;" horiz-adv-x="555" 
d="M504 1313q-70 0 -136 46t-94 46q-28 1 -52 -19t-58 -69l-135 67q115 211 274 211q72 0 135 -46t92 -46q29 1 54 21t59 67l133 -65q-116 -213 -272 -213zM326 0h-263l152 1083h262z" />
    <glyph glyph-name="Imacron" unicode="&#x12a;" horiz-adv-x="600" 
d="M745 1804l-22 -188h-596l25 188h593zM365 0h-271l172 1415h273z" />
    <glyph glyph-name="imacron" unicode="&#x12b;" horiz-adv-x="555" 
d="M326 0h-263l152 1083h262zM709 1548l-25 -186h-594l25 186h594z" />
    <glyph glyph-name="Ibreve" unicode="&#x12c;" horiz-adv-x="600" 
d="M433 1546q-142 0 -225 89t-83 218l158 29q20 -147 158 -147t198 147l152 -29q-33 -133 -125 -220t-233 -87zM365 0h-271l172 1415h273z" />
    <glyph glyph-name="ibreve" unicode="&#x12d;" horiz-adv-x="555" 
d="M326 0h-263l152 1083h262zM389 1268q-145 0 -220 97t-75 228l158 29q20 -168 156 -168t202 168l150 -29q-34 -133 -130 -229t-241 -96z" />
    <glyph glyph-name="Iogonek" unicode="&#x12e;" horiz-adv-x="600" 
d="M254 -356q76 0 133 30l47 -137q-112 -49 -230 -49t-186 55t-68 147t62 172q61 81 176 138h-94l172 1415h273l-174 -1415q-217 -117 -218 -270q0 -86 107 -86z" />
    <glyph glyph-name="iogonek" unicode="&#x12f;" horiz-adv-x="555" 
d="M563 1470q0 -68 -46 -114t-119 -45q-72 0 -118 46q-46 45 -46 113t46 113t118 45t119 -45q46 -45 46 -113zM215 -356q76 0 133 30l47 -137q-111 -49 -229 -49t-186 55t-68 147t61 172q61 81 177 138h-87l152 1083h262l-151 -1083q-219 -119 -220 -270q0 -86 109 -86z" />
    <glyph glyph-name="Idotaccent" unicode="&#x130;" horiz-adv-x="600" 
d="M440 1565q-72 0 -118 45q-46 46 -46 114t46 113t118 45t118 -45t46 -113t-46 -114t-118 -45zM365 0h-271l172 1415h273z" />
    <glyph glyph-name="dotlessi" unicode="&#x131;" horiz-adv-x="555" 
d="M326 0h-263l152 1083h262z" />
    <glyph glyph-name="IJ" unicode="&#x132;" horiz-adv-x="1206" 
d="M526 -319l-53 208q135 47 191 120q55 73 71 220l146 1186h272l-147 -1194q-28 -227 -136 -349t-344 -191zM365 0h-271l172 1415h273z" />
    <glyph glyph-name="ij" unicode="&#x133;" horiz-adv-x="1099" 
d="M621 92l139 991h262l-139 -983q-33 -233 -139 -353t-318 -191l-70 192q126 48 184 120t81 224zM1108 1470q0 -68 -46 -114t-119 -45q-73 0 -119 46q-46 45 -46 113t46 113t119 45t119 -45t46 -113zM563 1470q0 -68 -46 -114t-119 -45q-72 0 -118 46q-46 45 -46 113
t46 113t118 45t119 -45q46 -45 46 -113zM326 0h-263l152 1083h262z" />
    <glyph glyph-name="Jcircumflex" unicode="&#x134;" horiz-adv-x="608" 
d="M453 1714l-283 -172l-96 121l313 242h164l258 -248l-113 -115zM-70 -319l-53 208q135 47 191 120q55 73 71 220l146 1186h272l-147 -1194q-28 -227 -136 -349t-344 -191z" />
    <glyph glyph-name="jcircumflex" unicode="&#x135;" horiz-adv-x="555" 
d="M76 92l139 991h262l-139 -983q-33 -233 -138 -353t-319 -191l-69 192q127 48 184 120t80 224zM408 1458l-293 -192l-92 116l323 267h164l248 -269l-117 -114z" />
    <glyph glyph-name="uni0136" unicode="&#x136;" horiz-adv-x="1241" 
d="M534 -137q62 0 101 -37q39 -38 39 -100t-49 -140l-127 -213h-138l89 238q-57 45 -57 109t40 104q40 39 102 39zM889 0l-420 758l565 657h297l-569 -655l436 -760h-309zM539 1415l-174 -1415h-271l172 1415h273z" />
    <glyph glyph-name="uni0137" unicode="&#x137;" horiz-adv-x="1153" 
d="M454 -137q60 0 100 -37t40 -96t-49 -144l-129 -213h-137l90 238q-59 47 -59 111t41 102q43 39 103 39zM838 1114q122 0 200 -70t78 -178q0 -272 -317 -385l225 -481h-287l-225 526q180 53 258 124t78 172t-105 102q-82 0 -168 -74t-153 -217l-90 -633h-262l213 1518
l266 28l-90 -641q160 209 379 209z" />
    <glyph glyph-name="kgreenlandic" unicode="&#x138;" horiz-adv-x="1087" 
d="M332 0h-262l153 1083h262zM700 580l316 -580h-293l-299 573l434 510h279z" />
    <glyph glyph-name="Lacute" unicode="&#x139;" horiz-adv-x="1026" 
d="M279 1542l-66 141l446 263l101 -217zM901 0h-807l172 1415h273l-148 -1194h565z" />
    <glyph glyph-name="lacute" unicode="&#x13a;" horiz-adv-x="565" 
d="M180 1599l-65 142l446 262l101 -217zM294 -31q-100 1 -161 61t-61 179q0 31 6 72l174 1237l268 28l-182 -1280q-6 -47 6 -65t46 -18t56 10l39 -185q-91 -39 -191 -39z" />
    <glyph glyph-name="uni013B" unicode="&#x13b;" horiz-adv-x="1026" 
d="M299 -280q0 64 41 104q41 39 102 39q60 0 100 -37q40 -38 40 -100t-50 -140l-126 -213h-138l88 238q-57 45 -57 109zM901 0h-807l172 1415h273l-148 -1194h565z" />
    <glyph glyph-name="uni013C" unicode="&#x13c;" horiz-adv-x="565" 
d="M204 -137q60 0 100 -37t40 -96t-49 -144l-129 -213h-137l90 238q-59 47 -59 111t41 102q43 39 103 39zM294 -31q-100 1 -161 61t-61 179q0 31 6 72l174 1237l268 28l-182 -1280q-6 -47 6 -65t46 -18t56 10l39 -185q-91 -39 -191 -39z" />
    <glyph glyph-name="Lcaron" unicode="&#x13d;" horiz-adv-x="1026" 
d="M876 1434q62 0 101 -37t39 -99t-49 -143l-127 -213h-138l89 240q-57 41 -57 107q0 65 40 105t102 40zM901 0h-807l172 1415h273l-148 -1194h565z" />
    <glyph glyph-name="lcaron" unicode="&#x13e;" horiz-adv-x="737" 
d="M790 1692q62 0 101 -37t39 -99t-49 -143l-127 -213h-138l89 240q-57 41 -57 107q0 65 40 105t102 40zM318 -31q-100 1 -162 61q-61 60 -62 179q0 31 6 72l174 1237l269 28l-183 -1280q-6 -47 6 -65t46 -18t57 10l39 -185q-90 -39 -190 -39z" />
    <glyph glyph-name="Ldot" unicode="&#x13f;" horiz-adv-x="1026" 
d="M810 598q-73 0 -119 46t-46 114t46 112t119 45q73 0 119 -45q46 -44 46 -112t-46 -114t-119 -46zM901 0h-807l172 1415h273l-148 -1194h565z" />
    <glyph glyph-name="ldot" unicode="&#x140;" horiz-adv-x="782" 
d="M846 745q0 -67 -46 -113t-119 -46t-119 46t-46 114t46 112q46 45 119 45t119 -45t46 -113zM307 -31q-101 1 -162 61t-61 179q0 31 6 72l174 1237l268 28l-182 -1280q-6 -47 6 -65t46 -18t57 10l39 -185q-90 -39 -191 -39z" />
    <glyph glyph-name="Lslash" unicode="&#x141;" horiz-adv-x="1058" 
d="M934 0h-807l59 500l-106 -62l-76 152l209 121l86 704h272l-65 -538l287 167l77 -151l-391 -225l-55 -449h565z" />
    <glyph glyph-name="lslash" unicode="&#x142;" horiz-adv-x="643" 
d="M347 -31q-100 1 -161 59t-61 177q0 35 6 76l39 286l-96 -55l-76 154l203 114l104 738l266 28l-86 -606l144 80l76 -152l-250 -141l-64 -461q-6 -47 6 -65t45 -18t56 10l39 -185q-90 -39 -190 -39z" />
    <glyph glyph-name="Nacute" unicode="&#x143;" horiz-adv-x="1370" 
d="M647 1542l-65 141l446 263l100 -217zM958 270l-2 62q0 236 35 514l70 569h246l-172 -1415h-349l-335 1141h-9q8 -238 -30 -561l-72 -580h-246l172 1415h340l344 -1145h8z" />
    <glyph glyph-name="nacute" unicode="&#x144;" horiz-adv-x="1177" 
d="M524 1260l-65 139l448 276l101 -213zM817 1114q115 0 181 -68t65 -202q0 -41 -6 -90l-105 -754h-262l96 709q17 135 -10 163t-71 27q-133 0 -287 -285l-86 -614h-262l153 1083h228l-17 -215q168 246 383 246z" />
    <glyph glyph-name="uni0145" unicode="&#x145;" horiz-adv-x="1370" 
d="M584 -137q62 0 100 -37q39 -38 39 -100t-49 -140l-127 -213h-137l88 238q-58 45 -58 109t41 104q41 39 103 39zM958 270l-2 62q0 236 35 514l70 569h246l-172 -1415h-349l-335 1141h-9q8 -238 -30 -561l-72 -580h-246l172 1415h340l344 -1145h8z" />
    <glyph glyph-name="uni0146" unicode="&#x146;" horiz-adv-x="1177" 
d="M460 -137q60 0 100 -37t40 -96t-49 -144l-129 -213h-137l90 238q-59 47 -59 111t41 102q43 39 103 39zM817 1114q115 0 181 -68t65 -202q0 -41 -6 -90l-105 -754h-262l96 709q17 135 -10 163t-71 27q-133 0 -287 -285l-86 -614h-262l153 1083h228l-17 -215
q168 246 383 246z" />
    <glyph glyph-name="Ncaron" unicode="&#x147;" horiz-adv-x="1370" 
d="M813 1739l283 170l94 -121l-311 -242h-164l-258 248l112 115zM958 270l-2 62q0 236 35 514l70 569h246l-172 -1415h-349l-335 1141h-9q8 -238 -30 -561l-72 -580h-246l172 1415h340l344 -1145h8z" />
    <glyph glyph-name="ncaron" unicode="&#x148;" horiz-adv-x="1177" 
d="M715 1458l293 191l88 -117l-322 -266h-166l-248 270l119 113zM817 1114q115 0 181 -68t65 -202q0 -41 -6 -90l-105 -754h-262l96 709q17 135 -10 163t-71 27q-133 0 -287 -285l-86 -614h-262l153 1083h228l-17 -215q168 246 383 246z" />
    <glyph glyph-name="napostrophe" unicode="&#x149;" horiz-adv-x="1177" 
d="M150 1640q0 66 40 105t102 39t101 -37t39 -99t-49 -143l-127 -213h-137l88 240q-57 42 -57 108zM817 1114q115 0 181 -68t65 -202q0 -41 -6 -90l-105 -754h-262l96 709q17 135 -10 163t-71 27q-133 0 -287 -285l-86 -614h-262l153 1083h228l-17 -215q168 246 383 246z
" />
    <glyph glyph-name="Eng" unicode="&#x14a;" horiz-adv-x="1370" 
d="M958 270l-2 62q0 236 35 514l70 569h246l-160 -1319q-27 -229 -139 -352q-113 -122 -342 -190l-54 204q111 38 168 94t84 148h-78l-335 1141h-9q8 -238 -30 -561l-72 -580h-246l172 1415h340l344 -1145h8z" />
    <glyph glyph-name="eng" unicode="&#x14b;" horiz-adv-x="1177" 
d="M817 1114q115 0 181 -68t65 -202q0 -41 -6 -90l-82 -564q-43 -294 -139 -424t-328 -210l-68 192q125 49 183 121q57 72 77 223l86 617q17 135 -10 163t-71 27q-133 0 -287 -285l-86 -614h-262l153 1083h228l-17 -215q168 246 383 246z" />
    <glyph glyph-name="Omacron" unicode="&#x14c;" horiz-adv-x="1411" 
d="M1151 1804l-23 -188h-596l25 188h594zM653 176q117 0 202 69q142 115 186 405q17 112 18 229q0 360 -273 360q-306 0 -387 -474q-18 -112 -18 -226q0 -363 272 -363zM649 -31q-254 0 -402 155q-149 155 -149 433t109 510t324 328q118 51 260 51q254 0 402 -156t148 -435
q0 -280 -108 -509t-326 -326q-117 -51 -258 -51z" />
    <glyph glyph-name="omacron" unicode="&#x14d;" horiz-adv-x="1179" 
d="M1014 1548l-25 -186h-594l25 186h594zM635 915q-135 0 -216 -141t-81 -360q0 -246 188 -246q78 0 137 46q104 83 142 283q16 85 16 173q0 245 -186 245zM645 1114q211 0 330 -125t119 -338q0 -295 -156 -489t-420 -193q-211 0 -332 123t-120 338q0 284 152 484t427 200z
" />
    <glyph glyph-name="Obreve" unicode="&#x14e;" horiz-adv-x="1411" 
d="M837 1546q-142 0 -226 89q-83 89 -83 218l158 29q23 -147 160 -147t196 147l152 -29q-33 -133 -124 -220t-233 -87zM653 176q117 0 202 69q142 115 186 405q17 112 18 229q0 360 -273 360q-306 0 -387 -474q-18 -112 -18 -226q0 -363 272 -363zM649 -31q-254 0 -402 155
q-149 155 -149 433t109 510t324 328q118 51 260 51q254 0 402 -156t148 -435q0 -280 -108 -509t-326 -326q-117 -51 -258 -51z" />
    <glyph glyph-name="obreve" unicode="&#x14f;" horiz-adv-x="1179" 
d="M688 1268q-145 0 -220 97t-75 228l158 29q19 -168 155 -168t203 168l150 -29q-33 -133 -129 -229t-242 -96zM635 915q-135 0 -216 -141t-81 -360q0 -246 188 -246q78 0 137 46q104 83 142 283q16 85 16 173q0 245 -186 245zM645 1114q211 0 330 -125t119 -338
q0 -295 -156 -489t-420 -193q-211 0 -332 123t-120 338q0 284 152 484t427 200z" />
    <glyph glyph-name="Ohungarumlaut" unicode="&#x150;" horiz-adv-x="1411" 
d="M664 1569l-140 69l234 383l182 -94zM1004 1569l-140 67l242 385l182 -94zM653 176q117 0 202 69q142 115 186 405q17 112 18 229q0 360 -273 360q-306 0 -387 -474q-18 -112 -18 -226q0 -363 272 -363zM649 -31q-254 0 -402 155q-149 155 -149 433t109 510t324 328
q118 51 260 51q254 0 402 -156t148 -435q0 -280 -108 -509t-326 -326q-117 -51 -258 -51z" />
    <glyph glyph-name="ohungarumlaut" unicode="&#x151;" horiz-adv-x="1179" 
d="M522 1290l-137 70l233 385l183 -94zM831 1290l-137 68l242 387l180 -94zM635 915q-135 0 -216 -141t-81 -360q0 -246 188 -246q78 0 137 46q104 83 142 283q16 85 16 173q0 245 -186 245zM645 1114q211 0 330 -125t119 -338q0 -295 -156 -489t-420 -193q-211 0 -332 123
t-120 338q0 284 152 484t427 200z" />
    <glyph glyph-name="OE" unicode="&#x152;" horiz-adv-x="1882" 
d="M640 176q118 0 198 69q129 112 177 405q17 112 17 229q0 360 -250 360q-291 0 -368 -474q-18 -112 -19 -226q0 -363 245 -363zM643 -31q-246 0 -387 155t-141 439q0 337 159 599q78 128 211 206t301 78q98 0 183 -31h921l-53 -201h-631q96 -139 97 -397h417l-22 -201
h-416q-41 -254 -178 -415h645l-23 -201h-841q-125 -31 -242 -31z" />
    <glyph glyph-name="oe" unicode="&#x153;" horiz-adv-x="1783" 
d="M1354 928q-104 0 -188 -95t-109 -260q227 19 324 79t98 167q0 51 -33 80t-92 29zM633 915q-133 0 -214 -141t-81 -360q0 -246 186 -246q82 0 144 50q104 85 139 290q14 82 14 162q0 245 -188 245zM1747 827q0 -364 -698 -419q6 -114 58 -174t138 -60q135 0 273 92
l106 -164q-176 -133 -395 -133t-336 191q-147 -190 -367 -190t-341 122q-120 123 -119 338q0 284 150 484t421 200q236 0 354 -192q160 193 389 192q172 0 270 -77t97 -210z" />
    <glyph glyph-name="Racute" unicode="&#x154;" horiz-adv-x="1239" 
d="M559 1542l-65 141l446 263l100 -217zM631 762q139 0 214 70t75 200q0 186 -271 187h-135l-57 -457h174zM666 1415q268 1 403 -97t135 -266t-95 -284t-257 -162l309 -606h-293l-266 567h-168l-69 -567h-271l172 1415h400z" />
    <glyph glyph-name="racute" unicode="&#x155;" horiz-adv-x="790" 
d="M350 1260l-65 139l448 276l101 -213zM762 1114q59 0 104 -14l-84 -275q-41 14 -88 15q-174 -4 -291 -336l-71 -504h-262l153 1083h228l-23 -264q68 151 155 223t179 72z" />
    <glyph glyph-name="uni0156" unicode="&#x156;" horiz-adv-x="1239" 
d="M379 -280q0 64 41 104q41 39 102 39q60 0 100 -37q40 -38 40 -100t-50 -140l-127 -213h-137l88 238q-57 45 -57 109zM631 762q139 0 214 70t75 200q0 186 -271 187h-135l-57 -457h174zM666 1415q268 1 403 -97t135 -266t-95 -284t-257 -162l309 -606h-293l-266 567h-168
l-69 -567h-271l172 1415h400z" />
    <glyph glyph-name="uni0157" unicode="&#x157;" horiz-adv-x="790" 
d="M164 -137q60 0 101 -37q40 -37 40 -96t-49 -144l-129 -213h-137l90 238q-60 47 -60 111t42 102q42 39 102 39zM762 1114q59 0 104 -14l-84 -275q-41 14 -88 15q-174 -4 -291 -336l-71 -504h-262l153 1083h228l-23 -264q68 151 155 223t179 72z" />
    <glyph glyph-name="Rcaron" unicode="&#x158;" horiz-adv-x="1239" 
d="M745 1739l283 170l94 -121l-311 -242h-164l-258 248l113 115zM631 762q139 0 214 70t75 200q0 186 -271 187h-135l-57 -457h174zM666 1415q268 1 403 -97t135 -266t-95 -284t-257 -162l309 -606h-293l-266 567h-168l-69 -567h-271l172 1415h400z" />
    <glyph glyph-name="rcaron" unicode="&#x159;" horiz-adv-x="790" 
d="M543 1458l293 191l88 -117l-322 -266h-166l-248 270l119 113zM762 1114q59 0 104 -14l-84 -275q-41 14 -88 15q-174 -4 -291 -336l-71 -504h-262l153 1083h228l-23 -264q68 151 155 223t179 72z" />
    <glyph glyph-name="Sacute" unicode="&#x15a;" horiz-adv-x="1124" 
d="M492 1542l-66 141l446 263l101 -217zM1051 426q0 -193 -151 -325t-400 -132q-154 -1 -291 57t-221 148l159 160q166 -150 351 -150q114 0 190 62t76 152t-50 139t-226 107t-265 156q-88 97 -88 258q0 160 137 274t361 114q283 0 471 -168l-146 -160q-141 123 -321 123
q-101 0 -159 -48t-58 -126t51 -122q51 -43 229 -105t265 -162q86 -100 86 -252z" />
    <glyph glyph-name="sacute" unicode="&#x15b;" horiz-adv-x="972" 
d="M387 1260l-65 139l448 276l100 -213zM420 166q86 0 135 36t49 95t-42 95t-169 79q-295 98 -295 320q0 145 112 233t324 88t375 -131l-118 -158q-129 96 -269 97q-76 0 -114 -31t-39 -80q0 -49 40 -80q41 -31 185 -83t214 -129t69 -191q0 -160 -120 -258t-341 -99
q-127 0 -245 48t-194 122l140 152q139 -125 303 -125z" />
    <glyph glyph-name="Scircumflex" unicode="&#x15c;" horiz-adv-x="1124" 
d="M713 1714l-283 -172l-96 121l313 242h164l258 -248l-113 -115zM1051 426q0 -193 -151 -325t-400 -132q-154 -1 -291 57t-221 148l159 160q166 -150 351 -150q114 0 190 62t76 152t-50 139t-226 107t-265 156q-88 97 -88 258q0 160 137 274t361 114q283 0 471 -168
l-146 -160q-141 123 -321 123q-101 0 -159 -48t-58 -126t51 -122q51 -43 229 -105t265 -162q86 -100 86 -252z" />
    <glyph glyph-name="scircumflex" unicode="&#x15d;" horiz-adv-x="972" 
d="M604 1458l-293 -192l-92 116l324 267h164l247 -269l-116 -114zM420 166q86 0 135 36t49 95t-42 95t-169 79q-295 98 -295 320q0 145 112 233t324 88t375 -131l-118 -158q-129 96 -269 97q-76 0 -114 -31t-39 -80q0 -49 40 -80q41 -31 185 -83t214 -129t69 -191
q0 -160 -120 -258t-341 -99q-127 0 -245 48t-194 122l140 152q139 -125 303 -125z" />
    <glyph glyph-name="Scedilla" unicode="&#x15e;" horiz-adv-x="1124" 
d="M432 -365q98 0 98 80q0 35 -37 53q-38 17 -137 17l54 190q-264 33 -422 199l159 160q166 -150 351 -150q114 0 190 62t76 152t-50 139t-226 107t-265 156q-88 97 -88 258q0 160 137 274t361 114q283 0 471 -168l-146 -160q-141 123 -321 123q-101 0 -159 -48t-58 -126
t51 -122q51 -43 229 -105t265 -162q86 -100 86 -266t-133 -294t-357 -145l-12 -79q86 -10 134 -60t48 -135q0 -86 -79 -152q-79 -65 -209 -65t-236 63l84 129q67 -39 141 -39z" />
    <glyph glyph-name="scedilla" unicode="&#x15f;" horiz-adv-x="972" 
d="M360 -365q96 0 97 80q0 35 -38 53t-134 17l51 190q-219 29 -359 164l140 152q139 -125 303 -125q86 0 135 36t49 95t-42 95t-169 79q-295 98 -295 320q0 145 112 233t324 88t375 -131l-118 -158q-129 96 -269 97q-76 0 -114 -31t-39 -80q0 -49 40 -80q41 -31 185 -83
t214 -129t69 -207t-101 -226t-289 -111l-12 -79q86 -10 135 -60t49 -135q1 -86 -79 -152q-80 -65 -211 -65t-234 63l82 129q67 -39 143 -39z" />
    <glyph glyph-name="Scaron" unicode="&#x160;" horiz-adv-x="1124" 
d="M707 1739l282 170l94 -121l-311 -242h-164l-258 248l113 115zM1051 426q0 -193 -151 -325t-400 -132q-154 -1 -291 57t-221 148l159 160q166 -150 351 -150q114 0 190 62t76 152t-50 139t-226 107t-265 156q-88 97 -88 258q0 160 137 274t361 114q283 0 471 -168
l-146 -160q-141 123 -321 123q-101 0 -159 -48t-58 -126t51 -122q51 -43 229 -105t265 -162q86 -100 86 -252z" />
    <glyph glyph-name="scaron" unicode="&#x161;" horiz-adv-x="972" 
d="M598 1458l293 191l88 -117l-322 -266h-165l-248 270l118 113zM420 166q86 0 135 36t49 95t-42 95t-169 79q-295 98 -295 320q0 145 112 233t324 88t375 -131l-118 -158q-129 96 -269 97q-76 0 -114 -31t-39 -80q0 -49 40 -80q41 -31 185 -83t214 -129t69 -191
q0 -160 -120 -258t-341 -99q-127 0 -245 48t-194 122l140 152q139 -125 303 -125z" />
    <glyph glyph-name="uni0162" unicode="&#x162;" horiz-adv-x="1071" 
d="M471 -365q98 0 98 80q0 35 -38 53t-134 17l60 215h-125l145 1200h-385l27 215h1052l-55 -215h-366l-158 -1306q82 -10 130 -60t48 -135q0 -86 -79 -152q-79 -65 -211 -65t-234 63l82 129q71 -39 143 -39z" />
    <glyph glyph-name="uni0163" unicode="&#x163;" horiz-adv-x="761" 
d="M493 184q58 0 138 41l76 -176q-117 -74 -277 -78l-12 -77q86 -10 134 -60t48 -135q0 -86 -79 -152q-79 -65 -209 -65t-236 63l84 129q68 -39 141 -39q98 0 98 80q0 35 -38 53t-136 17l58 211q-143 59 -144 264q0 43 6 88l76 549h-168l27 186h170l74 246l223 25l-37 -271
h262l-55 -186h-234l-82 -571q-10 -80 12 -111t80 -31z" />
    <glyph glyph-name="Tcaron" unicode="&#x164;" horiz-adv-x="1071" 
d="M670 1739l282 170l95 -121l-312 -242h-164l-258 248l113 115zM1116 1200h-366l-146 -1200h-272l145 1200h-385l27 215h1052z" />
    <glyph glyph-name="tcaron" unicode="&#x165;" horiz-adv-x="800" 
d="M688 1568q0 66 41 105t103 39t100 -37q39 -37 39 -99t-49 -142l-127 -213h-138l88 239q-57 42 -57 108zM432 -31q-296 0 -295 289q0 41 6 88l78 551h-168l27 186h170l74 246l223 25l-37 -271h262l-55 -186h-234l-82 -571q-10 -80 12 -111t80 -31t138 41l76 -176
q-129 -80 -275 -80z" />
    <glyph glyph-name="Tbar" unicode="&#x166;" horiz-adv-x="1071" 
d="M954 858l-22 -170h-246l-82 -688h-272l84 688h-244l23 170h241l41 342h-385l27 215h1052l-55 -215h-366l-41 -342h245z" />
    <glyph glyph-name="tbar" unicode="&#x167;" horiz-adv-x="761" 
d="M432 -31q-296 0 -295 289q0 41 6 88l31 211h-156l25 174h154l24 166h-168l27 186h170l74 246l223 25l-37 -271h262l-55 -186h-234l-24 -166h237l-22 -174h-240l-33 -231q-10 -80 12 -111t80 -31t138 41l76 -176q-129 -80 -275 -80z" />
    <glyph glyph-name="Utilde" unicode="&#x168;" horiz-adv-x="1341" 
d="M915 1583q-71 0 -137 46t-96 46t-52 -20q-24 -20 -57 -68l-133 66q111 213 267 213q71 0 139 -46t90 -46q55 0 115 88l133 -66q-115 -213 -269 -213zM621 -31q-240 0 -367 115t-127 328q0 47 6 96l113 907h272l-115 -919q-6 -45 -6 -86q1 -119 57 -174q56 -56 175 -56
t191 75t89 216l117 944h274l-116 -942q-31 -240 -177 -372t-386 -132z" />
    <glyph glyph-name="utilde" unicode="&#x169;" horiz-adv-x="1165" 
d="M793 1313q-70 0 -136 46q-67 46 -95 46q-28 1 -52 -19t-57 -69l-136 67q115 211 275 211q72 0 135 -46t92 -46q29 1 53 21t60 67l133 -65q-116 -213 -272 -213zM367 278q0 -98 100 -98q57 0 127 52t125 147l100 704h262l-151 -1083h-228l5 170q-145 -201 -338 -201
q-266 0 -267 285q0 41 7 94l104 735h262l-104 -733q-4 -22 -4 -72z" />
    <glyph glyph-name="Umacron" unicode="&#x16a;" horiz-adv-x="1341" 
d="M1118 1804l-22 -188h-596l24 188h594zM621 -31q-240 0 -367 115t-127 328q0 47 6 96l113 907h272l-115 -919q-6 -45 -6 -86q1 -119 57 -174q56 -56 175 -56t191 75t89 216l117 944h274l-116 -942q-31 -240 -177 -372t-386 -132z" />
    <glyph glyph-name="umacron" unicode="&#x16b;" horiz-adv-x="1165" 
d="M999 1548l-24 -186h-594l25 186h593zM367 278q0 -98 100 -98q57 0 127 52t125 147l100 704h262l-151 -1083h-228l5 170q-145 -201 -338 -201q-266 0 -267 285q0 41 7 94l104 735h262l-104 -733q-4 -22 -4 -72z" />
    <glyph glyph-name="Ubreve" unicode="&#x16c;" horiz-adv-x="1341" 
d="M802 1546q-142 0 -225 89t-83 218l157 29q21 -147 159 -147t198 147l151 -29q-33 -133 -124 -220t-233 -87zM621 -31q-240 0 -367 115t-127 328q0 47 6 96l113 907h272l-115 -919q-6 -45 -6 -86q1 -119 57 -174q56 -56 175 -56t191 75t89 216l117 944h274l-116 -942
q-31 -240 -177 -372t-386 -132z" />
    <glyph glyph-name="ubreve" unicode="&#x16d;" horiz-adv-x="1165" 
d="M676 1268q-145 0 -220 97t-75 228l158 29q20 -168 155 -168t203 168l150 -29q-33 -133 -129 -229t-242 -96zM367 278q0 -98 100 -98q57 0 127 52t125 147l100 704h262l-151 -1083h-228l5 170q-145 -201 -338 -201q-266 0 -267 285q0 41 7 94l104 735h262l-104 -733
q-4 -22 -4 -72z" />
    <glyph glyph-name="Uring" unicode="&#x16e;" horiz-adv-x="1341" 
d="M803 1511q-117 0 -185 65q-68 64 -68 170t80 182q78 76 194 75q116 0 185 -65t69 -169t-80 -181q-78 -77 -195 -77zM819 1866q-45 0 -76 -34t-31 -83q1 -100 98 -100q46 -1 76 33t30 84t-26 74q-26 26 -71 26zM621 -31q-240 0 -367 115t-127 328q0 47 6 96l113 907h272
l-115 -919q-6 -45 -6 -86q1 -119 57 -174q56 -56 175 -56t191 75t89 216l117 944h274l-116 -942q-31 -240 -177 -372t-386 -132z" />
    <glyph glyph-name="uring" unicode="&#x16f;" horiz-adv-x="1165" 
d="M680 1245q-118 0 -184 65q-66 64 -66 170t78 182t195 75q117 0 185 -65q68 -64 68 -168t-80 -182t-196 -77zM590 1483q0 -49 26 -74t72 -25q45 0 76 33t31 82t-26 75t-71 26q-44 0 -76 -34t-32 -83zM367 278q0 -98 100 -98q57 0 127 52t125 147l100 704h262l-151 -1083
h-228l5 170q-145 -201 -338 -201q-266 0 -267 285q0 41 7 94l104 735h262l-104 -733q-4 -22 -4 -72z" />
    <glyph glyph-name="Uhungarumlaut" unicode="&#x170;" horiz-adv-x="1341" 
d="M598 1569l-139 69l233 383l182 -94zM938 1569l-139 67l241 385l183 -94zM621 -31q-240 0 -367 115t-127 328q0 47 6 96l113 907h272l-115 -919q-6 -45 -6 -86q1 -119 57 -174q56 -56 175 -56t191 75t89 216l117 944h274l-116 -942q-31 -240 -177 -372t-386 -132z" />
    <glyph glyph-name="uhungarumlaut" unicode="&#x171;" horiz-adv-x="1165" 
d="M535 1290l-138 70l234 385l182 -94zM844 1290l-137 68l241 387l180 -94zM367 278q0 -98 100 -98q57 0 127 52t125 147l100 704h262l-151 -1083h-228l5 170q-145 -201 -338 -201q-266 0 -267 285q0 41 7 94l104 735h262l-104 -733q-4 -22 -4 -72z" />
    <glyph glyph-name="Uogonek" unicode="&#x172;" horiz-adv-x="1341" 
d="M606 -270q0 -86 109 -86q72 0 133 30l47 -137q-111 -49 -229 -49t-187 55q-68 55 -67 150q0 162 184 276q-229 6 -349 121t-120 322q0 47 6 96l113 907h272l-115 -919q-6 -45 -6 -86q1 -119 57 -174q56 -56 175 -56t191 75t89 216l117 944h274l-116 -942
q-23 -184 -117 -306t-248 -169q-213 -119 -213 -268z" />
    <glyph glyph-name="uogonek" unicode="&#x173;" horiz-adv-x="1165" 
d="M367 278q0 -98 100 -98q57 0 127 52t125 147l100 704h262l-151 -1083q-219 -119 -219 -270q0 -86 106 -86q74 0 135 30l45 -137q-109 -49 -229 -49t-186 55t-66 147t62 172q62 81 176 138h-52l5 170q-145 -201 -338 -201q-266 0 -267 285q1 41 7 94l104 735h262
l-104 -733q-4 -22 -4 -72z" />
    <glyph glyph-name="Wcircumflex" unicode="&#x174;" horiz-adv-x="1708" 
d="M993 1714l-282 -172l-97 121l314 242h164l258 -248l-113 -115zM1782 1415l-432 -1415h-355l-80 1094h-8l-350 -1094h-344l-84 1415h262l35 -1184h8l373 1184h287l82 -1179h6l338 1179h262z" />
    <glyph glyph-name="wcircumflex" unicode="&#x175;" horiz-adv-x="1501" 
d="M870 1458l-292 -192l-93 116l324 267h164l248 -269l-117 -114zM1556 1083l-389 -1083h-327l-49 836h-9l-288 -836h-322l-86 1083h258l23 -878h8l315 878h268l54 -874h8l278 874h258z" />
    <glyph glyph-name="Ycircumflex" unicode="&#x176;" horiz-adv-x="1161" 
d="M723 1714l-283 -172l-96 121l313 242h164l258 -248l-112 -115zM1274 1415l-563 -878l-66 -537h-272l65 535l-348 880h287l215 -649h8l375 649h299z" />
    <glyph glyph-name="ycircumflex" unicode="&#x177;" horiz-adv-x="1013" 
d="M635 1458l-293 -192l-92 116l323 267h164l248 -269l-117 -114zM264 0l-196 1083h270l113 -893h8l348 893h278l-479 -1079q-94 -210 -242 -322t-395 -128l-8 196q164 20 250 78t141 172h-88z" />
    <glyph glyph-name="Ydieresis" unicode="&#x178;" horiz-adv-x="1161" 
d="M948 1561q-61 0 -104 41t-43 101t43 101t103 41q59 0 103 -41t44 -101t-42 -101t-104 -41zM494 1561q-61 0 -104 41q-42 41 -42 101t43 101t103 41t103 -41q42 -41 42 -101t-42 -101t-103 -41zM1274 1415l-563 -878l-66 -537h-272l65 535l-348 880h287l215 -649h8
l375 649h299z" />
    <glyph glyph-name="Zacute" unicode="&#x179;" horiz-adv-x="1075" 
d="M512 1542l-66 141l447 263l100 -217zM1081 1206l-774 -985h660l-56 -221h-944l25 207l784 993h-596l27 215h901z" />
    <glyph glyph-name="zacute" unicode="&#x17a;" horiz-adv-x="905" 
d="M367 1260l-66 139l449 276l100 -213zM897 893l-600 -688h512l-53 -205h-809l26 190l607 689h-465l30 204h781z" />
    <glyph glyph-name="Zdotaccent" unicode="&#x17b;" horiz-adv-x="1075" 
d="M698 1565q-72 0 -118 45q-46 46 -45 114q0 68 45 113q46 45 118 45t118 -45t46 -113t-46 -114t-118 -45zM1081 1206l-774 -985h660l-56 -221h-944l25 207l784 993h-596l27 215h901z" />
    <glyph glyph-name="zdotaccent" unicode="&#x17c;" horiz-adv-x="905" 
d="M743 1470q1 -68 -45 -114t-119 -45q-73 0 -119 46q-46 45 -46 113t46 113t119 45t119 -45t45 -113zM897 893l-600 -688h512l-53 -205h-809l26 190l607 689h-465l30 204h781z" />
    <glyph glyph-name="Zcaron" unicode="&#x17d;" horiz-adv-x="1075" 
d="M694 1739l283 170l94 -121l-311 -242h-164l-258 248l113 115zM1081 1206l-774 -985h660l-56 -221h-944l25 207l784 993h-596l27 215h901z" />
    <glyph glyph-name="zcaron" unicode="&#x17e;" horiz-adv-x="905" 
d="M575 1458l293 191l88 -117l-321 -266h-166l-248 270l119 113zM897 893l-600 -688h512l-53 -205h-809l26 190l607 689h-465l30 204h781z" />
    <glyph glyph-name="florin" unicode="&#x192;" horiz-adv-x="714" 
d="M649 1546q158 0 307 -90l-90 -168q-100 60 -181 60t-115 -36t-44 -128l-12 -101h260l-53 -188h-229l-101 -795q-31 -233 -132 -353t-310 -191l-72 190q123 48 179 120t73 226l100 803h-170l23 188h170l12 107q45 356 385 356z" />
    <glyph glyph-name="AEacute" unicode="&#x1fc;" horiz-adv-x="1671" 
d="M936 1540l-66 141l447 263l100 -218zM754 1192l-320 -660h379l-49 660h-10zM856 0l-31 328h-483l-158 -328h-293l736 1415h1011l-55 -201h-588l37 -395h514l-24 -203h-471l43 -413h467l-23 -203h-682z" />
    <glyph glyph-name="aeacute" unicode="&#x1fd;" horiz-adv-x="1669" 
d="M829 1260l-65 139l448 276l101 -213zM606 479q-164 0 -236 -50t-73 -150q0 -119 143 -119q74 0 150 51q75 51 110 125q-4 82 5 143h-99zM1241 928q-102 0 -187 -96t-110 -259q226 19 324 79t98 167q0 51 -33 80t-92 29zM1634 827q0 -364 -698 -419q6 -118 58 -176
t141 -58q131 0 270 92l104 -164q-176 -133 -387 -133q-260 0 -372 193q-141 -193 -398 -193q-172 0 -253 80t-81 215q0 182 146 278t420 95h137l10 94q10 96 -33 139q-42 43 -164 43t-286 -55l-39 180q215 76 379 76q266 0 315 -174q135 174 369 174q170 0 266 -77t96 -210z
" />
    <glyph glyph-name="Oslashacute" unicode="&#x1fe;" horiz-adv-x="1411" 
d="M580 1593l-66 142l447 262l100 -217zM653 176q94 0 169 47t119 120t83 203t39 325q0 194 -80 278l-401 -967q36 -6 71 -6zM375 539q0 -188 80 -275l403 967q-31 8 -72 8q-307 0 -392 -474q-19 -111 -19 -226zM1341 850q0 -275 -108 -504t-326 -326q-117 -51 -258 -51
q-57 0 -125 15l-108 -258l-209 57l121 272q-229 152 -230 508q0 273 109 504q109 232 324 328q118 51 260 51q63 0 124 -12l107 254l209 -58l-119 -272q229 -154 229 -508z" />
    <glyph glyph-name="oslashacute" unicode="&#x1ff;" horiz-adv-x="1183" 
d="M461 1268l-66 139l449 276l100 -213zM829 670q0 104 -41 157l-299 -655q18 -4 46 -4q137 0 216 158q78 158 78 344zM637 915q-139 0 -221 -140t-82 -361q0 -113 45 -168l305 663q-20 6 -47 6zM647 1114q57 0 94 -10l113 246l193 -58l-121 -258q172 -122 172 -400
t-156 -472t-422 -193q-35 0 -92 8l-113 -251l-194 57l121 264q-176 119 -176 393t154 474t427 200z" />
    <glyph glyph-name="uni0218" unicode="&#x218;" horiz-adv-x="1124" 
d="M299 -278q0 64 42 102q42 39 102 39q61 0 101 -37t40 -96t-49 -144l-129 -213h-138l90 238q-59 47 -59 111zM1051 426q0 -193 -151 -325t-400 -132q-154 -1 -291 57t-221 148l159 160q166 -150 351 -150q114 0 190 62t76 152t-50 139t-226 107t-265 156q-88 97 -88 258
q0 160 137 274t361 114q283 0 471 -168l-146 -160q-141 123 -321 123q-101 0 -159 -48t-58 -126t51 -122q51 -43 229 -105t265 -162q86 -100 86 -252z" />
    <glyph glyph-name="uni0219" unicode="&#x219;" horiz-adv-x="972" 
d="M368 -137q60 0 100 -37t40 -96t-49 -144l-129 -213h-137l90 238q-59 47 -59 111t41 102q43 39 103 39zM420 166q86 0 135 36t49 95t-42 95t-169 79q-295 98 -295 320q0 145 112 233t324 88t375 -131l-118 -158q-129 96 -269 97q-76 0 -114 -31t-39 -80q0 -49 40 -80
q41 -31 185 -83t214 -129t69 -191q0 -160 -120 -258t-341 -99q-127 0 -245 48t-194 122l140 152q139 -125 303 -125z" />
    <glyph glyph-name="uni021A" unicode="&#x21a;" horiz-adv-x="1071" 
d="M289 -280q0 64 41 104q41 39 102 39t100 -37q39 -38 39 -100t-49 -140l-127 -213h-137l88 238q-57 45 -57 109zM1116 1200h-366l-146 -1200h-272l145 1200h-385l27 215h1052z" />
    <glyph glyph-name="uni021B" unicode="&#x21b;" horiz-adv-x="761" 
d="M326 -137q60 0 101 -37q40 -37 40 -96t-49 -144l-129 -213h-137l90 238q-60 47 -60 111t42 102q42 39 102 39zM432 -31q-296 0 -295 289q0 41 6 88l78 551h-168l27 186h170l74 246l223 25l-37 -271h262l-55 -186h-234l-82 -571q-10 -80 12 -111t80 -31t138 41l76 -176
q-129 -80 -275 -80z" />
    <glyph glyph-name="dotlessj" unicode="&#x237;" horiz-adv-x="555" 
d="M76 92l139 991h262l-139 -983q-33 -233 -138 -353t-319 -191l-69 192q127 48 184 120t80 224z" />
    <glyph glyph-name="circumflex" unicode="&#x2c6;" horiz-adv-x="858" 
d="M446 1458l-292 -192l-93 116l324 267h164l248 -269l-117 -114z" />
    <glyph glyph-name="caron" unicode="&#x2c7;" horiz-adv-x="858" 
d="M416 1458l293 191l88 -117l-322 -266h-166l-248 270l119 113z" />
    <glyph glyph-name="uni02C9" unicode="&#x2c9;" horiz-adv-x="729" 
d="M668 1571l-13 -187h-594l13 187h594z" />
    <glyph glyph-name="breve" unicode="&#x2d8;" horiz-adv-x="788" 
d="M356 1268q-145 0 -220 97t-75 228l158 29q19 -168 155 -168t204 168l149 -29q-33 -133 -129 -229t-242 -96z" />
    <glyph glyph-name="dotaccent" unicode="&#x2d9;" horiz-adv-x="452" 
d="M391 1470q0 -68 -46 -114t-119 -45q-72 0 -118 46q-46 45 -46 113t46 113t118 45t119 -45q46 -45 46 -113z" />
    <glyph glyph-name="ring" unicode="&#x2da;" horiz-adv-x="649" 
d="M311 1245q-117 0 -183 65q-66 64 -67 170q0 106 78 182t195 75q118 0 186 -65q68 -64 68 -168t-80 -182t-197 -77zM221 1483q1 -49 27 -74t71 -25t76 33t31 82t-26 75t-70 26t-77 -34q-32 -34 -32 -83z" />
    <glyph glyph-name="ogonek" unicode="&#x2db;" horiz-adv-x="606" 
d="M256 -270q0 -86 109 -86q76 0 133 30l47 -137q-111 -49 -230 -49t-187 55t-67 159t101 203t280 150l33 -55q-219 -119 -219 -270z" />
    <glyph glyph-name="tilde" unicode="&#x2dc;" horiz-adv-x="870" 
d="M537 1313q-70 0 -136 46q-67 46 -95 46q-28 1 -52 -19t-57 -69l-136 67q115 211 275 211q72 0 135 -46t92 -46q29 1 53 21t60 67l133 -65q-116 -213 -272 -213z" />
    <glyph glyph-name="hungarumlaut" unicode="&#x2dd;" horiz-adv-x="854" 
d="M199 1290l-138 70l234 385l182 -94zM508 1290l-137 68l241 387l181 -94z" />
    <glyph glyph-name="gravecomb" unicode="&#x300;" horiz-adv-x="0" 
d="M-98 1403l-66 -139l-483 202l100 213z" />
    <glyph glyph-name="acutecomb" unicode="&#x301;" horiz-adv-x="0" 
d="M-582 1260l-65 139l448 276l101 -213z" />
    <glyph glyph-name="uni0302" unicode="&#x302;" horiz-adv-x="0" 
d="M-434 1458l-293 -192l-92 116l323 267h164l248 -269l-117 -114z" />
    <glyph glyph-name="tildecomb" unicode="&#x303;" horiz-adv-x="0" 
d="M-324 1313q-70 0 -136 46t-94 46q-28 1 -52 -19t-58 -69l-135 67q115 211 275 211q72 0 135 -46t92 -46q29 1 53 21t60 67l133 -65q-117 -213 -273 -213z" />
    <glyph glyph-name="uni0304" unicode="&#x304;" horiz-adv-x="0" 
d="M-78 1548l-24 -186h-594l24 186h594z" />
    <glyph glyph-name="uni0306" unicode="&#x306;" horiz-adv-x="0" 
d="M-430 1268q-145 0 -220 97t-75 228l158 29q20 -168 155 -168t203 168l150 -29q-33 -133 -129 -229t-242 -96z" />
    <glyph glyph-name="uni0307" unicode="&#x307;" horiz-adv-x="0" 
d="M-188 1470q0 -68 -46 -114t-119 -45q-73 0 -119 46q-46 45 -46 113t46 113t119 45t119 -45t46 -113z" />
    <glyph glyph-name="uni0308" unicode="&#x308;" horiz-adv-x="0" 
d="M-642 1315q-60 0 -103 41t-43 100t43 100t103 41t102 -41t42 -100t-42 -100t-102 -41zM-61 1456q-1 -59 -43 -100t-102 -41t-103 41t-43 100t43 100t103 41t102 -41t43 -100z" />
    <glyph glyph-name="uni030A" unicode="&#x30a;" horiz-adv-x="0" 
d="M-412 1245q-118 0 -184 65q-66 64 -66 170t78 182t195 75q117 0 185 -65q68 -64 69 -168q0 -104 -80 -182t-197 -77zM-502 1483q0 -49 26 -74t72 -25q45 0 76 33t31 82t-26 75q-27 26 -71 26t-76 -34t-32 -83z" />
    <glyph glyph-name="uni030B" unicode="&#x30b;" horiz-adv-x="0" 
d="M-586 1290l-137 70l234 385l182 -94zM-276 1290l-138 68l242 387l180 -94z" />
    <glyph glyph-name="uni030C" unicode="&#x30c;" horiz-adv-x="0" 
d="M-430 1458l293 191l88 -117l-322 -266h-166l-247 270l118 113z" />
    <glyph glyph-name="uni0312" unicode="&#x312;" horiz-adv-x="0" 
d="M-338 1430q0 -64 -42 -103t-102 -39t-101 37q-40 37 -40 96t50 144l129 213h137l-90 -238q59 -46 59 -110z" />
    <glyph glyph-name="uni0313" unicode="&#x313;" horiz-adv-x="0" 
d="M-442 1784q62 0 100 -37q39 -37 39 -99t-49 -143l-127 -213h-137l88 240q-58 42 -58 108t41 105t103 39z" />
    <glyph glyph-name="uni0326" unicode="&#x326;" horiz-adv-x="2" 
d="M-950 -278q0 64 42 102q42 39 102 39t100 -37t40 -96t-49 -144l-129 -213h-137l90 238q-59 47 -59 111z" />
    <glyph glyph-name="uni0327" unicode="&#x327;" horiz-adv-x="0" 
d="M-676 -365q98 0 98 80q0 35 -37 53q-38 17 -137 17l68 248h145l-20 -139q86 -10 134 -60t48 -135q0 -86 -79 -152q-79 -65 -209 -65t-236 63l84 129q67 -39 141 -39z" />
    <glyph glyph-name="uni0328" unicode="&#x328;" horiz-adv-x="0" 
d="M-655 -270q0 -86 108 -86q76 0 133 30l47 -137q-111 -49 -229 -49t-186 55t-68 159t100 203q101 99 281 150l33 -55q-219 -119 -219 -270z" />
    <glyph glyph-name="uni0335" unicode="&#x335;" horiz-adv-x="0" 
d="M0 743l-20 -170h-766l20 170h766z" />
    <glyph glyph-name="uni0336" unicode="&#x336;" horiz-adv-x="0" 
d="M-31 743l-22 -170h-1350l23 170h1349z" />
    <glyph glyph-name="tonos" unicode="&#x384;" horiz-adv-x="0" 
d="M-129 1202l-184 31l143 475l270 -51z" />
    <glyph glyph-name="dieresistonos" unicode="&#x385;" horiz-adv-x="0" 
d="M-253 1243q-58 0 -100 40t-42 97q0 58 42 98t100 40t99 -40t41 -98t-41 -97q-41 -40 -99 -40zM-418 1503l-176 35l150 404l251 -44zM-736 1243q-58 0 -101 40q-42 40 -42 97q0 58 42 98q43 40 101 40t99 -40t41 -98t-41 -97q-41 -40 -99 -40z" />
    <glyph glyph-name="Alphatonos" unicode="&#x386;" horiz-adv-x="1245" 
d="M260 991l-186 37l157 428l269 -45zM723 1190l-262 -658h370l-100 658h-8zM907 0l-49 328h-473l-131 -328h-289l621 1415h334l270 -1415h-283z" />
    <glyph glyph-name="Epsilontonos" unicode="&#x388;" horiz-adv-x="1292" 
d="M186 991l-186 37l158 428l268 -45zM1247 1214h-520l-49 -395h455l-25 -201h-455l-51 -415h557l-22 -203h-830l172 1415h824z" />
    <glyph glyph-name="Etatonos" unicode="&#x389;" horiz-adv-x="1574" 
d="M186 991l-186 37l158 428l268 -45zM1339 0h-272l78 633h-490l-77 -633h-271l172 1415h273l-70 -567h489l70 567h270z" />
    <glyph glyph-name="Iotatonos" unicode="&#x38a;" horiz-adv-x="813" 
d="M186 991l-186 37l158 428l268 -45zM575 0h-270l172 1415h273z" />
    <glyph glyph-name="Omicrontonos" unicode="&#x38c;" horiz-adv-x="1533" 
d="M195 991l-187 37l158 428l268 -45zM776 176q117 0 202 69q142 115 186 405q17 112 18 229q0 360 -273 360q-306 0 -387 -474q-18 -112 -18 -226q0 -363 272 -363zM772 -31q-254 0 -402 155t-148 433t108 510q109 232 324 328q118 51 259 51q255 0 403 -156t148 -435
q0 -280 -108 -509t-326 -326q-117 -51 -258 -51z" />
    <glyph glyph-name="Upsilontonos" unicode="&#x38e;" horiz-adv-x="1501" 
d="M158 991l-187 37l158 428l268 -45zM1614 1415l-563 -878l-66 -537h-272l65 535l-348 880h287l215 -649h8l375 649h299z" />
    <glyph glyph-name="Omegatonos" unicode="&#x38f;" horiz-adv-x="1554" 
d="M199 991l-187 37l158 428l268 -45zM238 652q0 136 44 276q101 319 343 446q135 72 301 72q250 0 400 -154t151 -424q1 -229 -95 -407t-247 -248l-2 -8h225l-23 -205h-479l25 193q135 43 223 218t88 457q0 201 -69 286t-205 85t-230 -101q-172 -181 -172 -563
q0 -141 47 -242t133 -140l-24 -193h-479l24 205h242l2 8q-99 67 -161 185t-62 254z" />
    <glyph glyph-name="iotadieresistonos" unicode="&#x390;" horiz-adv-x="555" 
d="M471 1380q0 58 42 98t100 40q57 0 99 -40t42 -98t-42 -97q-42 -40 -99 -40q-58 0 -100 40t-42 97zM449 1503l-177 35l150 404l252 -44zM130 1243q-58 0 -100 40t-42 97q0 58 42 98t100 40t99 -40t41 -98t-41 -97q-41 -40 -99 -40zM365 278q0 -38 17 -61t62 -39l-53 -209
q-159 25 -227 93t-68 190q0 39 6 88l105 743h266l-102 -721q-6 -46 -6 -84z" />
    <glyph glyph-name="Alpha" unicode="&#x391;" horiz-adv-x="1193" 
d="M670 1190l-262 -658h370l-100 658h-8zM854 0l-49 328h-473l-131 -328h-289l620 1415h334l271 -1415h-283z" />
    <glyph glyph-name="Beta" unicode="&#x392;" horiz-adv-x="1265" 
d="M1165 444q-1 -208 -155 -326t-453 -118h-463l172 1415h420q244 0 369 -87t125 -241q0 -115 -78 -209t-209 -124l-2 -9q129 -27 202 -107q72 -81 72 -194zM647 836q123 0 190 60t66 169q0 152 -231 152h-158l-47 -381h180zM578 205q305 0 305 246q0 195 -238 194h-201
l-55 -440h189z" />
    <glyph glyph-name="Gamma" unicode="&#x393;" horiz-adv-x="1017" 
d="M266 1415h852l-53 -219h-553l-147 -1196h-271z" />
    <glyph glyph-name="uni0394" unicode="&#x394;" horiz-adv-x="1193" 
d="M1137 0h-1225l620 1415h334zM678 1190h-8l-396 -983h553z" />
    <glyph glyph-name="Epsilon" unicode="&#x395;" horiz-adv-x="1079" 
d="M1034 1214h-520l-49 -395h455l-25 -201h-455l-51 -415h557l-22 -203h-830l172 1415h824z" />
    <glyph glyph-name="Zeta" unicode="&#x396;" horiz-adv-x="1075" 
d="M1081 1206l-774 -985h660l-56 -221h-944l25 207l784 993h-596l27 215h901z" />
    <glyph glyph-name="Eta" unicode="&#x397;" horiz-adv-x="1361" 
d="M1126 0h-272l78 633h-490l-77 -633h-271l172 1415h273l-70 -567h489l70 567h270z" />
    <glyph glyph-name="Theta" unicode="&#x398;" horiz-adv-x="1411" 
d="M653 176q315 0 396 474q18 112 18 229q0 360 -281 360q-96 0 -171 -47t-119 -120q-124 -207 -123 -533q-1 -363 280 -363zM649 -31q-254 0 -402 155q-149 155 -149 433t109 510t324 328q118 51 260 51q254 0 402 -156t148 -435q0 -280 -108 -509t-326 -326
q-117 -51 -258 -51zM954 807l-20 -168h-449l21 168h448z" />
    <glyph glyph-name="Iota" unicode="&#x399;" horiz-adv-x="600" 
d="M365 0h-271l172 1415h273z" />
    <glyph glyph-name="Kappa" unicode="&#x39a;" horiz-adv-x="1241" 
d="M889 0l-420 758l565 657h297l-569 -655l436 -760h-309zM539 1415l-174 -1415h-271l172 1415h273z" />
    <glyph glyph-name="Lambda" unicode="&#x39b;" horiz-adv-x="1185" 
d="M848 0l-172 1190h-10l-465 -1190h-289l616 1415h334l268 -1415h-282z" />
    <glyph glyph-name="Mu" unicode="&#x39c;" horiz-adv-x="1613" 
d="M471 1157h-8q-8 -203 -68 -526l-116 -631h-265l287 1415h344l133 -997h8l371 997h359l-62 -1415h-266l33 631q14 297 53 526h-8l-385 -1010h-260z" />
    <glyph glyph-name="Nu" unicode="&#x39d;" horiz-adv-x="1370" 
d="M958 270l-2 62q0 236 35 514l70 569h246l-172 -1415h-349l-335 1141h-9q8 -238 -30 -561l-72 -580h-246l172 1415h340l344 -1145h8z" />
    <glyph glyph-name="Xi" unicode="&#x39e;" horiz-adv-x="1093" 
d="M252 827h659l-28 -217h-658zM203 1415h905l-59 -225h-873zM928 0h-897l26 231h899z" />
    <glyph glyph-name="Omicron" unicode="&#x39f;" horiz-adv-x="1411" 
d="M653 176q117 0 202 69q142 115 186 405q17 112 18 229q0 360 -273 360q-306 0 -387 -474q-18 -112 -18 -226q0 -363 272 -363zM649 -31q-254 0 -402 155q-149 155 -149 433t109 510t324 328q118 51 260 51q254 0 402 -156t148 -435q0 -280 -108 -509t-326 -326
q-117 -51 -258 -51z" />
    <glyph glyph-name="Pi" unicode="&#x3a0;" horiz-adv-x="1376" 
d="M1133 0h-273l148 1200h-490l-147 -1200h-271l172 1415h1033z" />
    <glyph glyph-name="Rho" unicode="&#x3a1;" horiz-adv-x="1210" 
d="M1206 1016q0 -240 -158 -381t-427 -141h-195l-61 -494h-271l172 1415h396q266 1 405 -105t139 -294zM616 696q141 0 226 82q84 82 84 232q0 207 -283 207h-129l-63 -521h165z" />
    <glyph glyph-name="Sigma" unicode="&#x3a3;" horiz-adv-x="1064" 
d="M774 760l-16 -129l-430 -422h610l-25 -209h-907l25 205l504 506l-381 499l24 205h907l-24 -205h-625z" />
    <glyph glyph-name="Tau" unicode="&#x3a4;" horiz-adv-x="1071" 
d="M1116 1200h-366l-146 -1200h-272l145 1200h-385l27 215h1052z" />
    <glyph glyph-name="Upsilon" unicode="&#x3a5;" horiz-adv-x="1161" 
d="M1274 1415l-563 -878l-66 -537h-272l65 535l-348 880h287l215 -649h8l375 649h299z" />
    <glyph glyph-name="Phi" unicode="&#x3a6;" horiz-adv-x="1699" 
d="M1391 776q0 303 -357 320l-94 -770q217 8 334 126t117 324zM340 651q0 -145 91 -231t265 -96l92 768q-448 -13 -448 -441zM61 645q1 275 189 443t551 182l20 145h264l-20 -147q289 -16 447 -142t157 -348q-1 -280 -197 -448t-542 -178l-19 -152h-264l17 152
q-289 10 -446 139t-157 354z" />
    <glyph glyph-name="Chi" unicode="&#x3a7;" horiz-adv-x="1167" 
d="M430 754l-303 661h287l188 -481h8l314 481h301l-473 -651l340 -764h-289l-221 569h-9l-352 -569h-301z" />
    <glyph glyph-name="Psi" unicode="&#x3a8;" horiz-adv-x="1482" 
d="M803 0h-266l49 403q-487 53 -488 463q0 45 6 95l56 454h262l-57 -469q-6 -47 -7 -84q0 -121 60 -183t198 -77l101 813h254l-103 -813q164 20 240 94t92 222l62 497h262l-60 -495q-57 -475 -612 -521z" />
    <glyph glyph-name="uni03A9" unicode="&#x3a9;" horiz-adv-x="1439" 
d="M123 652q0 136 44 276q101 319 343 446q135 72 301 72q251 0 401 -154t150 -424q0 -229 -95 -407t-247 -248l-2 -8h225l-22 -205h-480l25 193q135 43 223 218t88 457q0 201 -68 286q-69 85 -205 85t-232 -101q-172 -181 -171 -563q-1 -141 47 -242t134 -140l-25 -193
h-479l24 205h242l2 8q-100 67 -162 185t-61 254z" />
    <glyph glyph-name="Iotadieresis" unicode="&#x3aa;" horiz-adv-x="600" 
d="M668 1561q-61 0 -105 41q-43 41 -43 101t43 101t103 41t104 -41q43 -41 43 -101t-42 -101t-103 -41zM213 1561q-61 0 -103 41t-42 101t43 101t103 41t102 -41t42 -101t-42 -101t-103 -41zM365 0h-271l172 1415h273z" />
    <glyph glyph-name="Upsilondieresis" unicode="&#x3ab;" horiz-adv-x="1161" 
d="M948 1561q-61 0 -104 41t-43 101t43 101t103 41q59 0 103 -41t44 -101t-42 -101t-104 -41zM494 1561q-61 0 -104 41q-42 41 -42 101t43 101t103 41t103 -41q42 -41 42 -101t-42 -101t-103 -41zM1274 1415l-563 -878l-66 -537h-272l65 535l-348 880h287l215 -649h8
l375 649h299z" />
    <glyph glyph-name="alphatonos" unicode="&#x3ac;" horiz-adv-x="1208" 
d="M725 1202l-184 31l143 475l270 -51zM338 420q0 -126 39 -190t109 -64t138 82q67 82 136 299q-6 371 -174 371q-98 0 -173 -134t-75 -364zM418 -31q-160 0 -254 116t-94 333q0 316 146 506t351 190q272 0 332 -297l8 -2l99 279l217 -60l-252 -477l55 -272q10 -49 28 -72
t62 -37l-88 -207q-88 17 -135 67t-62 144l-16 113l-6 2q-57 -154 -163 -240t-228 -86z" />
    <glyph glyph-name="epsilontonos" unicode="&#x3ad;" horiz-adv-x="970" 
d="M535 471q-109 0 -166 -45t-58 -121q0 -135 183 -135q158 0 313 115l104 -160q-217 -156 -439 -156t-332 85t-109 233q0 111 82 189t231 99l2 7q-94 33 -145 96t-51 139q0 135 104 216t297 81q246 0 418 -145l-131 -138q-125 94 -263 95q-162 0 -161 -127q0 -147 190 -148
h103l-56 -180h-116zM682 1202l-184 31l143 475l270 -51z" />
    <glyph glyph-name="etatonos" unicode="&#x3ae;" horiz-adv-x="1189" 
d="M741 1202l-184 31l143 475l271 -51zM825 1114q115 0 181 -68t65 -202q0 -41 -6 -90l-166 -1172l-264 -28l160 1155q6 49 6 97q0 95 -88 93q-133 0 -287 -285l-86 -614h-262l88 635q16 127 16 215t-22 227l254 31q10 -37 17 -117t1 -139q166 262 393 262z" />
    <glyph glyph-name="iotatonos" unicode="&#x3af;" horiz-adv-x="555" 
d="M414 1202l-185 31l144 475l270 -51zM365 278q0 -38 17 -61t62 -39l-53 -209q-159 25 -227 93t-68 190q0 39 6 88l105 743h266l-102 -721q-6 -46 -6 -84z" />
    <glyph glyph-name="upsilondieresistonos" unicode="&#x3b0;" horiz-adv-x="1155" 
d="M764 1380q0 58 42 98t100 40t100 -40t41 -98q1 -58 -41 -97q-42 -40 -100 -40t-100 40t-42 97zM741 1503l-176 35l150 404l252 -44zM423 1243q-58 0 -100 40t-42 97q0 58 42 98t100 40t99 -40t41 -98t-41 -97q-41 -40 -99 -40zM1073 887q0 -483 -146 -701t-448 -217
q-182 0 -281 87t-100 243q0 35 6 72l101 712h262l-96 -688q-6 -43 -6 -99q1 -56 33 -92t102 -36q311 0 311 723q0 83 -10 192h264q8 -84 8 -196z" />
    <glyph glyph-name="alpha" unicode="&#x3b1;" horiz-adv-x="1208" 
d="M338 420q0 -126 39 -190t109 -64t138 82q67 82 136 299q-6 371 -174 371q-98 0 -173 -134t-75 -364zM418 -31q-160 0 -254 116t-94 333q0 316 146 506t351 190q272 0 332 -297l8 -2l99 279l217 -60l-252 -477l55 -272q10 -49 28 -72t62 -37l-88 -207q-88 17 -135 67
t-62 144l-16 113l-6 2q-57 -154 -163 -240t-228 -86z" />
    <glyph glyph-name="beta" unicode="&#x3b2;" horiz-adv-x="1142" 
d="M731 1356q-102 0 -195 -120t-141 -355q221 84 330 169t109 210q-1 96 -103 96zM594 768q-78 0 -227 -72q-16 -119 -17 -256q0 -272 168 -272q125 0 193 102t67 289q0 209 -184 209zM86 492q0 379 169 704q81 156 214 252t294 96t239 -72t79 -184q0 -260 -344 -385l-2 -8
q154 -12 237 -103t83 -241q-1 -244 -143 -413t-396 -169q-210 -1 -320 135t-110 388z" />
    <glyph glyph-name="gamma" unicode="&#x3b3;" horiz-adv-x="1064" 
d="M492 -266q0 -80 16 -152l-236 -26q-29 74 -28 170q0 158 82 307q-78 725 -279 987l268 92q156 -252 166 -821l8 -2l379 825l260 -59l-540 -994q-96 -174 -96 -327z" />
    <glyph glyph-name="delta" unicode="&#x3b4;" horiz-adv-x="1175" 
d="M535 168q135 0 209 116t73 248q0 134 -46 208t-167 143q-270 -117 -270 -467q0 -248 201 -248zM1090 555q0 -242 -159 -414t-405 -172q-211 0 -337 124t-126 331t109 354t301 199l2 6q-102 61 -145 128t-43 157q0 126 99 202t290 76q109 0 215 -42t182 -111l-137 -144
q-125 106 -250 107q-66 0 -102 -29t-35 -76q0 -47 37 -85t139 -99q201 -121 283 -242t82 -270z" />
    <glyph glyph-name="epsilon" unicode="&#x3b5;" horiz-adv-x="970" 
d="M535 471q-109 0 -166 -45t-58 -121q0 -135 183 -135q158 0 313 115l104 -160q-217 -156 -439 -156t-332 85t-109 233q0 111 82 189t231 99l2 7q-94 33 -145 96t-51 139q0 135 104 216t297 81q246 0 418 -145l-131 -138q-125 94 -263 95q-162 0 -161 -127q0 -147 190 -148
h103l-56 -180h-116z" />
    <glyph glyph-name="zeta" unicode="&#x3b6;" horiz-adv-x="847" 
d="M51 444q0 186 153 400t464 409l-4 9q-74 -33 -164 -33t-162 60t-107 169l185 88q35 -78 84 -114t135 -37q121 0 278 118l109 -135q-385 -307 -541 -522t-155 -395q0 -82 49 -136q49 -55 179 -109t179 -110t49 -141q0 -256 -411 -424l-74 166q102 51 155 98q52 47 52 97
t-26 76t-107 61q-182 76 -251 165t-69 240z" />
    <glyph glyph-name="eta" unicode="&#x3b7;" horiz-adv-x="1189" 
d="M825 1114q115 0 181 -68t65 -202q0 -41 -6 -90l-166 -1172l-264 -28l160 1155q6 49 6 97q0 95 -88 93q-133 0 -287 -285l-86 -614h-262l88 635q16 127 16 215t-22 227l254 31q10 -37 17 -117t1 -139q166 262 393 262z" />
    <glyph glyph-name="theta" unicode="&#x3b8;" horiz-adv-x="1165" 
d="M684 1348q-236 0 -315 -508h491q10 123 10 248q0 260 -186 260zM522 166q233 0 316 506h-490q-8 -98 -8 -234q0 -272 182 -272zM702 1546q203 0 312 -139t108 -412q0 -385 -136 -687q-68 -153 -192 -246t-284 -93q-206 -1 -314 145t-108 422t74 515q43 141 108 247
q66 106 178 177t254 71z" />
    <glyph glyph-name="iota" unicode="&#x3b9;" horiz-adv-x="561" 
d="M367 278q0 -38 17 -61t62 -39l-53 -209q-159 25 -227 93t-68 190q0 39 6 88l105 743h266l-102 -721q-6 -46 -6 -84z" />
    <glyph glyph-name="kappa" unicode="&#x3ba;" horiz-adv-x="1075" 
d="M467 961l-135 -961h-262l139 995q46 318 2 518l268 33q41 -217 -12 -585zM668 178l-246 402l469 536l180 -133l-366 -399l163 -262q39 -60 69 -88t81 -50l-100 -215q-92 29 -148 77q-55 48 -102 132z" />
    <glyph glyph-name="lambda" unicode="&#x3bb;" horiz-adv-x="1054" 
d="M193 -27l-246 84l493 1047l99 -25q-27 135 -92 195t-218 84l56 190q241 -34 361 -158t140 -364q37 -412 81 -610t128 -312l-229 -135q-90 141 -134 345t-59 585h-8z" />
    <glyph glyph-name="uni03BC" unicode="&#x3bc;" horiz-adv-x="1175" 
d="M975 176q0 -86 14 -176l-244 -31q-33 70 -28 195q-63 -90 -141 -139t-160 -49q-80 0 -133 67l-7 -4q25 -53 25 -117t-10 -143l-29 -197l-254 -24l215 1525h262l-104 -733q-4 -22 -4 -72q0 -98 100 -98q57 0 127 52t123 145l102 706h263l-105 -725q-12 -96 -12 -182z" />
    <glyph glyph-name="nu" unicode="&#x3bd;" horiz-adv-x="1064" 
d="M580 0h-304q-35 432 -85 669t-150 357l250 86q156 -207 174 -897h8l385 899l246 -76z" />
    <glyph glyph-name="xi" unicode="&#x3be;" horiz-adv-x="915" 
d="M678 1546q209 0 375 -137l-138 -139q-107 88 -213 88t-154 -51t-48 -140q0 -176 182 -176h102l-53 -190h-69q-152 0 -238 -81q-86 -80 -86 -188t64 -177t220 -131q154 -62 203 -118t49 -141q0 -141 -109 -243q-110 -101 -302 -181l-76 166q102 51 156 98q53 47 53 97
t-28 78q-28 26 -105 59q-217 90 -309 202q-92 111 -92 265t104 264t289 135l2 8q-223 82 -224 283q0 156 118 253t327 97z" />
    <glyph glyph-name="omicron" unicode="&#x3bf;" horiz-adv-x="1179" 
d="M635 915q-135 0 -216 -141t-81 -360q0 -246 188 -246q78 0 137 46q104 83 142 283q16 85 16 173q0 245 -186 245zM645 1114q211 0 330 -125t119 -338q0 -295 -156 -489t-420 -193q-211 0 -332 123t-120 338q0 284 152 484t427 200z" />
    <glyph glyph-name="pi" unicode="&#x3c0;" horiz-adv-x="1251" 
d="M924 1083q195 0 329 45l33 -206q-84 -29 -205 -39l-73 -521q-8 -66 -8 -94q-1 -64 81 -82l-53 -217q-160 19 -228 83t-67 196q0 59 8 114l74 519h-303l-121 -881h-262l121 881h-152l29 202h797z" />
    <glyph glyph-name="rho" unicode="&#x3c1;" horiz-adv-x="1189" 
d="M540 166q114 0 202 146t87 378q0 230 -165 230q-104 0 -174 -92t-101 -312l-35 -250q72 -100 186 -100zM608 -31q-166 0 -280 119l-72 -506l-264 -28l133 944q47 332 183 474t376 142q188 0 304 -117t116 -315q0 -297 -150 -505t-346 -208z" />
    <glyph glyph-name="sigma1" unicode="&#x3c2;" horiz-adv-x="946" 
d="M638 907q-118 -1 -206 -111t-88 -280q0 -108 49 -176t183 -123t181 -111q48 -56 48 -141q0 -141 -110 -243t-302 -181l-76 166q100 51 155 98q54 47 54 95t-26 74t-107 59q-172 75 -250 187t-77 282q0 256 163 434q164 178 402 178q195 0 342 -121l-119 -164
q-98 78 -216 78z" />
    <glyph glyph-name="sigma" unicode="&#x3c3;" horiz-adv-x="1193" 
d="M823 610q0 192 -96 312q-387 -6 -387 -508q0 -246 190 -246q135 0 214 125t79 317zM1092 560q0 -235 -160 -413t-414 -178q-211 0 -331 122t-119 337q0 306 180 490t475 184l221 -6q121 0 238 41l28 -187q-86 -30 -150 -30t-130 16l-2 -6q164 -135 164 -370z" />
    <glyph glyph-name="tau" unicode="&#x3c4;" horiz-adv-x="974" 
d="M666 881h-23l-72 -519q-8 -66 -8 -94q0 -64 82 -82l-53 -217q-160 19 -228 83t-67 196q0 59 8 114l74 519h-328l29 202h520q248 0 397 45l33 -204q-135 -43 -364 -43z" />
    <glyph glyph-name="upsilon" unicode="&#x3c5;" horiz-adv-x="1155" 
d="M1073 887q0 -483 -146 -701t-448 -217q-182 0 -281 87t-100 243q0 35 6 72l101 712h262l-96 -688q-6 -43 -6 -99q1 -56 33 -92t102 -36q311 0 311 723q0 83 -10 192h264q8 -84 8 -196z" />
    <glyph glyph-name="phi" unicode="&#x3c6;" horiz-adv-x="1566" 
d="M1094 928q-78 0 -121 -66t-72 -256l-61 -438q188 23 286 165t99 392q0 203 -131 203zM334 434q0 -131 60 -192t198 -76l59 418q39 282 152 406t297 124t283 -103t100 -300q0 -327 -169 -519t-501 -217l-53 -393l-250 -28l57 423q-251 25 -371 136t-120 287t64 358
q64 184 155 325h250q-109 -213 -160 -365t-51 -284z" />
    <glyph glyph-name="chi" unicode="&#x3c7;" horiz-adv-x="1003" 
d="M451 184h-9l-327 -628l-236 96l453 719q-98 444 -287 651l262 90q133 -209 187 -565h8l305 567l233 -92l-424 -657l261 -727l-252 -84z" />
    <glyph glyph-name="psi" unicode="&#x3c8;" horiz-adv-x="1581" 
d="M106 385q0 59 9 111l84 587h258l-88 -614q-6 -47 -7 -84q0 -103 58 -155t194 -62l113 811q27 180 27 310t-21 227l256 30q40 -216 -14 -604l-111 -770q211 22 295 188t84 523q0 100 -12 200h262q6 -92 6 -186q0 -475 -146 -687t-515 -237l-56 -391l-254 -28l60 423
q-250 21 -366 121t-116 287z" />
    <glyph glyph-name="omega" unicode="&#x3c9;" horiz-adv-x="1568" 
d="M883 314q0 -146 129 -146q92 0 153 121t61 337t-50 457h251q59 -207 60 -407q0 -356 -125 -532t-346 -175q-135 0 -206 71t-69 200h-8q-41 -129 -129 -200t-198 -71q-160 -1 -250 101t-90 292q0 358 215 721h258q-207 -420 -207 -708q0 -207 133 -207q145 0 186 297
l37 262l246 33l-41 -295q-10 -81 -10 -151z" />
    <glyph glyph-name="iotadieresis" unicode="&#x3ca;" horiz-adv-x="555" 
d="M322 1456q0 -59 -42 -100t-103 -41q-60 0 -103 41t-43 100t43 100t103 41q61 0 103 -41t42 -100zM758 1456q0 -59 -42 -100t-103 -41q-60 0 -103 41t-43 100t43 100t103 41q61 0 103 -41t42 -100zM365 278q0 -38 17 -61t62 -39l-53 -209q-159 25 -227 93t-68 190
q0 39 6 88l105 743h266l-102 -721q-6 -46 -6 -84z" />
    <glyph glyph-name="upsilondieresis" unicode="&#x3cb;" horiz-adv-x="1155" 
d="M1073 887q0 -483 -146 -701t-448 -217q-182 0 -281 87t-100 243q0 35 6 72l101 712h262l-96 -688q-6 -43 -6 -99q1 -56 33 -92t102 -36q311 0 311 723q0 83 -10 192h264q8 -84 8 -196zM621 1456q-1 -59 -43 -100t-102 -41t-103 41t-43 100t43 100t103 41t102 -41t43 -100
zM1057 1456q-1 -59 -43 -100t-102 -41t-103 41t-43 100t43 100t103 41t102 -41t43 -100z" />
    <glyph glyph-name="omicrontonos" unicode="&#x3cc;" horiz-adv-x="1179" 
d="M772 1202l-184 31l143 475l270 -51zM635 915q-135 0 -216 -141t-81 -360q0 -246 188 -246q78 0 137 46q104 83 142 283q16 85 16 173q0 245 -186 245zM645 1114q211 0 330 -125t119 -338q0 -295 -156 -489t-420 -193q-211 0 -332 123t-120 338q0 284 152 484t427 200z
" />
    <glyph glyph-name="upsilontonos" unicode="&#x3cd;" horiz-adv-x="1155" 
d="M1073 887q0 -483 -146 -701t-448 -217q-182 0 -281 87t-100 243q0 35 6 72l101 712h262l-96 -688q-6 -43 -6 -99q1 -56 33 -92t102 -36q311 0 311 723q0 83 -10 192h264q8 -84 8 -196zM719 1202l-184 31l143 475l270 -51z" />
    <glyph glyph-name="omegatonos" unicode="&#x3ce;" horiz-adv-x="1568" 
d="M940 1202l-184 31l143 475l270 -51zM883 314q0 -146 129 -146q92 0 153 121t61 337t-50 457h251q59 -207 60 -407q0 -356 -125 -532t-346 -175q-135 0 -206 71t-69 200h-8q-41 -129 -129 -200t-198 -71q-160 -1 -250 101t-90 292q0 358 215 721h258q-207 -420 -207 -708
q0 -207 133 -207q145 0 186 297l37 262l246 33l-41 -295q-10 -81 -10 -151z" />
    <glyph glyph-name="uni0401" unicode="&#x401;" horiz-adv-x="1079" 
d="M938 1561q-61 0 -104 41t-43 101t43 101t103 41t103 -41t43 -101t-42 -101t-103 -41zM483 1561q-61 0 -103 41t-42 101t43 101t103 41t102 -41t43 -101q-1 -60 -43 -101t-103 -41zM1034 1214h-520l-49 -395h455l-25 -201h-455l-51 -415h557l-22 -203h-830l172 1415h824z
" />
    <glyph glyph-name="uni0402" unicode="&#x402;" horiz-adv-x="1511" 
d="M1159 526q0 115 -49 162t-149 47q-143 0 -283 -114l-76 -621h-270l147 1202h-387l27 213h1052l-55 -213h-368l-48 -393q178 137 351 137q381 0 381 -387q0 -66 -9 -123l-28 -215q-31 -233 -141 -353t-336 -187l-46 208q129 49 184 123q54 74 70 217l27 201q6 53 6 96z
" />
    <glyph glyph-name="uni0403" unicode="&#x403;" horiz-adv-x="1017" 
d="M539 1542l-66 141l447 263l100 -217zM266 1415h852l-53 -219h-553l-147 -1196h-271z" />
    <glyph glyph-name="uni0404" unicode="&#x404;" horiz-adv-x="1173" 
d="M798 1237q-144 0 -248 -105q-105 -105 -147 -305h545l-24 -202h-549q-16 -434 291 -435q154 0 309 119l117 -170q-190 -170 -469 -170q-240 0 -383 159t-144 443q0 391 201 633t496 242q253 0 421 -158l-155 -153q-117 102 -261 102z" />
    <glyph glyph-name="uni0405" unicode="&#x405;" horiz-adv-x="1124" 
d="M1051 426q0 -193 -151 -325t-400 -132q-154 -1 -291 57t-221 148l159 160q166 -150 351 -150q114 0 190 62t76 152t-50 139t-226 107t-265 156q-88 97 -88 258q0 160 137 274t361 114q283 0 471 -168l-146 -160q-141 123 -321 123q-101 0 -159 -48t-58 -126t51 -122
q51 -43 229 -105t265 -162q86 -100 86 -252z" />
    <glyph glyph-name="uni0406" unicode="&#x406;" horiz-adv-x="600" 
d="M365 0h-271l172 1415h273z" />
    <glyph glyph-name="uni0407" unicode="&#x407;" horiz-adv-x="600" 
d="M668 1561q-61 0 -105 41q-43 41 -43 101t43 101t103 41t104 -41q43 -41 43 -101t-42 -101t-103 -41zM213 1561q-61 0 -103 41t-42 101t43 101t103 41t102 -41t42 -101t-42 -101t-103 -41zM365 0h-271l172 1415h273z" />
    <glyph glyph-name="uni0408" unicode="&#x408;" horiz-adv-x="608" 
d="M-70 -319l-53 208q135 47 191 120q55 73 71 220l146 1186h272l-147 -1194q-28 -227 -136 -349t-344 -191z" />
    <glyph glyph-name="uni0409" unicode="&#x409;" horiz-adv-x="1873" 
d="M1270 719h-119l-64 -512h152q299 0 299 295q0 102 -70 160t-198 57zM1288 924q258 0 398 -108t139 -308q0 -238 -156 -373t-440 -135h-436l145 1204h-317l-56 -241q-87 -383 -155 -565t-148 -267q-80 -86 -239 -164l-93 191q74 45 114 85t84 134t81 225t100 385l105 428
h823l-61 -491h112z" />
    <glyph glyph-name="uni040A" unicode="&#x40a;" horiz-adv-x="1929" 
d="M1325 688h-133l-62 -481h164q143 0 222 71q78 71 77 209q0 201 -268 201zM1341 891q541 0 541 -413q0 -214 -157 -346t-441 -132h-450l84 688h-469l-84 -688h-271l172 1415h273l-66 -524h469l66 524h270l-61 -524h124z" />
    <glyph glyph-name="uni040B" unicode="&#x40b;" horiz-adv-x="1509" 
d="M1051 946q381 0 381 -391q0 -61 -9 -119l-53 -436h-268l51 430q6 53 6 92q0 117 -49 165t-149 48q-143 0 -283 -114l-76 -621h-270l147 1202h-387l27 213h1052l-55 -213h-368l-48 -393q178 137 351 137z" />
    <glyph glyph-name="uni040C" unicode="&#x40c;" horiz-adv-x="1249" 
d="M614 1542l-65 141l446 263l101 -217zM1081 1112l-270 -350l373 -762h-293l-305 637h-144l-77 -637h-271l172 1415h273l-70 -571h123l278 364q86 113 157 161t194 77l69 -189q-72 -20 -116 -51t-93 -94z" />
    <glyph glyph-name="uni040E" unicode="&#x40e;" horiz-adv-x="1161" 
d="M722 1542q-148 0 -226 78q-80 78 -82 195l155 28q27 -121 171 -121t200 121l152 -28q-26 -115 -124 -194t-246 -79zM420 381l-318 1034h271l223 -868h8l402 868h284l-518 -1012q-117 -229 -248 -321t-374 -113l-13 201q166 22 244 64t131 147h-92z" />
    <glyph glyph-name="uni040F" unicode="&#x40f;" horiz-adv-x="1355" 
d="M1020 1415h272l-172 -1415h-407l-39 -326h-197l6 326h-389l172 1415h273l-148 -1200h481z" />
    <glyph glyph-name="uni0410" unicode="&#x410;" horiz-adv-x="1193" 
d="M670 1190l-262 -658h370l-100 658h-8zM854 0l-49 328h-473l-131 -328h-289l620 1415h334l271 -1415h-283z" />
    <glyph glyph-name="uni0411" unicode="&#x411;" horiz-adv-x="1206" 
d="M582 688h-133l-60 -481h168q299 0 299 280q0 97 -70 149t-204 52zM606 891q258 1 398 -103t139 -294q0 -226 -157 -360t-439 -134h-453l172 1415h852l-51 -209h-555l-39 -315h133z" />
    <glyph glyph-name="uni0412" unicode="&#x412;" horiz-adv-x="1265" 
d="M1165 444q-1 -208 -155 -326t-453 -118h-463l172 1415h420q244 0 369 -87t125 -241q0 -115 -78 -209t-209 -124l-2 -9q129 -27 202 -107q72 -81 72 -194zM647 836q123 0 190 60t66 169q0 152 -231 152h-158l-47 -381h180zM578 205q305 0 305 246q0 195 -238 194h-201
l-55 -440h189z" />
    <glyph glyph-name="uni0413" unicode="&#x413;" horiz-adv-x="1017" 
d="M266 1415h852l-53 -219h-553l-147 -1196h-271z" />
    <glyph glyph-name="uni0414" unicode="&#x414;" horiz-adv-x="1339" 
d="M1272 852q0 -400 -201 -626t-563 -226h-414l172 1415h369q299 -1 468 -145t169 -418zM530 203q205 0 332 164t127 481q0 365 -358 364h-117l-125 -1009h141z" />
    <glyph glyph-name="uni0415" unicode="&#x415;" horiz-adv-x="1079" 
d="M1034 1214h-520l-49 -395h455l-25 -201h-455l-51 -415h557l-22 -203h-830l172 1415h824z" />
    <glyph glyph-name="uni0416" unicode="&#x416;" horiz-adv-x="1851" 
d="M1622 1044l-203 -286l334 -758h-285l-266 639h-137l-76 -639h-256l78 639h-127l-418 -639h-297l518 768l-159 328q-35 72 -76 104t-121 53l70 193q143 -31 218 -87t124 -165l159 -352h134l69 573h256l-69 -573h114l221 317q100 145 172 199t205 88l68 -191
q-76 -20 -125 -60t-125 -151z" />
    <glyph glyph-name="uni0417" unicode="&#x417;" horiz-adv-x="1114" 
d="M614 1446q201 0 315 -89q113 -89 113 -229t-86 -239q-86 -100 -235 -129l-2 -8q129 -27 208 -115t79 -209q0 -199 -144 -329t-389 -130q-141 -1 -272 57t-213 158l162 138q129 -141 307 -142q121 0 191 68t71 188q0 215 -260 215h-142l56 205h119q124 0 196 62t72 150
q0 173 -197 173q-149 0 -307 -119l-121 152q213 172 479 172z" />
    <glyph glyph-name="uni0418" unicode="&#x418;" horiz-adv-x="1361" 
d="M1034 1145l-588 -1145h-352l172 1415h269l-43 -346q-27 -219 -74 -476t-68 -325h8l594 1147h346l-172 -1415h-268l41 340q25 209 72 466t71 339h-8z" />
    <glyph glyph-name="uni0419" unicode="&#x419;" horiz-adv-x="1361" 
d="M808 1542q-148 0 -226 78q-80 78 -82 195l155 28q27 -121 171 -121t200 121l152 -28q-26 -115 -124 -194t-246 -79zM1034 1145l-588 -1145h-352l172 1415h269l-43 -346q-27 -219 -74 -476t-68 -325h8l594 1147h346l-172 -1415h-268l41 340q25 209 72 466t71 339h-8z" />
    <glyph glyph-name="uni041A" unicode="&#x41a;" horiz-adv-x="1249" 
d="M1081 1112l-270 -350l373 -762h-293l-305 637h-144l-77 -637h-271l172 1415h273l-70 -571h123l278 364q86 113 157 161t194 77l69 -189q-72 -20 -116 -51t-93 -94z" />
    <glyph glyph-name="uni041B" unicode="&#x41b;" horiz-adv-x="1314" 
d="M23 -33l-93 191q74 45 114 85t84 134t81 225t100 385l105 428h839l-174 -1415h-270l147 1204h-335l-56 -241q-65 -289 -113 -449q-96 -322 -242 -435q-66 -53 -187 -112z" />
    <glyph glyph-name="uni041C" unicode="&#x41c;" horiz-adv-x="1613" 
d="M471 1157h-8q-8 -203 -68 -526l-116 -631h-265l287 1415h344l133 -997h8l371 997h359l-62 -1415h-266l33 631q14 297 53 526h-8l-385 -1010h-260z" />
    <glyph glyph-name="uni041D" unicode="&#x41d;" horiz-adv-x="1361" 
d="M1126 0h-272l78 633h-490l-77 -633h-271l172 1415h273l-70 -567h489l70 567h270z" />
    <glyph glyph-name="uni041E" unicode="&#x41e;" horiz-adv-x="1411" 
d="M653 176q117 0 202 69q142 115 186 405q17 112 18 229q0 360 -273 360q-306 0 -387 -474q-18 -112 -18 -226q0 -363 272 -363zM649 -31q-254 0 -402 155q-149 155 -149 433t109 510t324 328q118 51 260 51q254 0 402 -156t148 -435q0 -280 -108 -509t-326 -326
q-117 -51 -258 -51z" />
    <glyph glyph-name="uni041F" unicode="&#x41f;" horiz-adv-x="1361" 
d="M1126 0h-272l147 1200h-489l-147 -1200h-271l172 1415h1032z" />
    <glyph glyph-name="uni0420" unicode="&#x420;" horiz-adv-x="1210" 
d="M1206 1016q0 -240 -158 -381t-427 -141h-195l-61 -494h-271l172 1415h396q266 1 405 -105t139 -294zM616 696q141 0 226 82q84 82 84 232q0 207 -283 207h-129l-63 -521h165z" />
    <glyph glyph-name="uni0421" unicode="&#x421;" horiz-adv-x="1167" 
d="M797 1237q-180 0 -297 -186t-117 -476q0 -387 287 -387q152 0 309 121l117 -174q-195 -166 -450 -166t-401 156t-147 448q0 379 197 626t498 247q257 0 417 -162l-153 -149q-115 102 -260 102z" />
    <glyph glyph-name="uni0422" unicode="&#x422;" horiz-adv-x="1071" 
d="M1116 1200h-366l-146 -1200h-272l145 1200h-385l27 215h1052z" />
    <glyph glyph-name="uni0423" unicode="&#x423;" horiz-adv-x="1161" 
d="M420 381l-318 1034h271l223 -868h8l402 868h284l-518 -1012q-117 -229 -248 -321t-374 -113l-13 201q166 22 244 64t131 147h-92z" />
    <glyph glyph-name="uni0424" unicode="&#x424;" horiz-adv-x="1720" 
d="M1403 805q0 170 -91 261t-257 101l-115 -917q227 6 345 148t118 407zM350 621q0 -161 89 -259t257 -112l113 919q-459 -7 -459 -548zM647 -72l17 142q-276 16 -435 163q-158 147 -157 388q0 332 191 523t560 206l17 135h264l-17 -137q275 -16 435 -160t159 -381
q1 -334 -199 -532t-554 -205l-17 -142h-264z" />
    <glyph glyph-name="uni0425" unicode="&#x425;" horiz-adv-x="1167" 
d="M430 754l-303 661h287l188 -481h8l314 481h301l-473 -651l340 -764h-289l-221 569h-9l-352 -569h-301z" />
    <glyph glyph-name="uni0426" unicode="&#x426;" horiz-adv-x="1368" 
d="M1288 1415l-147 -1200h164l-66 -541h-197l7 326h-955l172 1415h273l-148 -1200h479l148 1200h270z" />
    <glyph glyph-name="uni0427" unicode="&#x427;" horiz-adv-x="1269" 
d="M111 850q0 47 6 102l57 463h272l-57 -457q-6 -45 -6 -86q0 -112 51 -158t179 -46t243 94l80 653h272l-174 -1415h-272l69 567q-158 -111 -335 -111t-281 99q-104 98 -104 295z" />
    <glyph glyph-name="uni0428" unicode="&#x428;" horiz-adv-x="1902" 
d="M266 1415h266l-147 -1200h393l148 1200h254l-148 -1200h393l148 1200h266l-172 -1415h-1573z" />
    <glyph glyph-name="uni0429" unicode="&#x429;" horiz-adv-x="1921" 
d="M94 0l172 1415h266l-147 -1200h393l148 1200h254l-148 -1200h393l148 1200h266l-147 -1200h163l-65 -541h-197l6 326h-1505z" />
    <glyph glyph-name="uni042A" unicode="&#x42a;" horiz-adv-x="1370" 
d="M762 719h-133l-62 -512h166q301 0 301 297q0 102 -69 159q-70 56 -203 56zM782 924q260 0 400 -108t141 -306q0 -238 -157 -374t-443 -136h-453l146 1202h-344l26 213h617l-62 -491h129z" />
    <glyph glyph-name="uni042B" unicode="&#x42b;" horiz-adv-x="1710" 
d="M571 719h-118l-64 -512h152q299 0 299 295q0 102 -71 160t-198 57zM590 924q258 0 397 -108t139 -308q0 -238 -156 -373t-440 -135h-436l172 1415h273l-62 -491h113zM1475 0h-271l172 1415h273z" />
    <glyph glyph-name="uni042C" unicode="&#x42c;" horiz-adv-x="1193" 
d="M586 719h-133l-64 -512h168q301 0 301 297q0 102 -70 158t-202 57zM606 924q260 0 400 -108t141 -306q0 -236 -158 -373t-442 -137h-453l172 1415h273l-62 -491h129z" />
    <glyph glyph-name="uni042D" unicode="&#x42d;" 
d="M549 1241q-137 0 -297 -119l-117 156q207 168 443 168t369 -144q132 -144 132 -415q0 -436 -187 -677t-480 -241q-258 0 -422 178l147 150q125 -119 267 -119t243 112q100 112 135 335h-534l24 202h533l2 80q0 334 -258 334z" />
    <glyph glyph-name="uni042E" unicode="&#x42e;" horiz-adv-x="1896" 
d="M1159 176q90 0 160 47q125 84 180 290q45 162 45 366q0 360 -252 360q-291 0 -368 -472q-18 -112 -19 -226q0 -365 254 -365zM1827 850q0 -343 -165 -600q-81 -127 -212 -204t-295 -77q-254 0 -389 166t-135 426q0 47 2 72h-195l-76 -633h-268l172 1415h269l-70 -569h192
q59 262 221 431t412 169t394 -156t143 -440z" />
    <glyph glyph-name="uni042F" unicode="&#x42f;" horiz-adv-x="1273" 
d="M735 1219q-299 0 -299 -273q0 -217 238 -217h180l59 490h-178zM152 940q0 232 154 353q155 122 452 122h452l-172 -1415h-272l63 535h-233l-330 -535h-307l395 596q-202 112 -202 344z" />
    <glyph glyph-name="uni0430" unicode="&#x430;" horiz-adv-x="1181" 
d="M494 168q53 0 116 51t117 139l82 531q-72 29 -143 29q-136 0 -232 -132t-96 -374q0 -244 156 -244zM410 -31q-160 0 -252 111t-92 330q0 315 172 510t428 194q210 0 421 -106l-104 -715q-10 -67 1 -97t50 -46l-78 -179q-195 18 -225 185q-67 -88 -151 -138t-170 -49z" />
    <glyph glyph-name="uni0431" unicode="&#x431;" horiz-adv-x="1153" 
d="M664 836q-86 0 -167 -66t-143 -178q-14 -82 -14 -158q0 -268 186 -268q115 0 199 120t84 335t-145 215zM1077 629q1 -295 -157 -477t-384 -182q-450 -1 -450 524q0 428 154 656t405 273q101 18 161 44t140 79l109 -166q-90 -63 -165 -94q-75 -32 -204 -56t-212 -121
t-136 -323l6 -2q78 117 188 182q110 64 235 64q124 0 217 -104t93 -297z" />
    <glyph glyph-name="uni0432" unicode="&#x432;" horiz-adv-x="1101" 
d="M668 934q-115 0 -200 -84t-118 -229q174 10 274 43q100 34 129 72q30 38 29 93q1 105 -114 105zM328 440q0 -132 60 -204t160 -72t154 51q52 51 52 147t-119 154q-145 -27 -305 -39q-2 -20 -2 -37zM546 -31q-220 0 -350 126t-130 339q0 308 178 494t440 186
q164 0 255 -71t91 -175q0 -213 -237 -272l-2 -8q106 -20 168 -88t63 -158q0 -156 -128 -264t-348 -109z" />
    <glyph glyph-name="uni0433" unicode="&#x433;" horiz-adv-x="952" 
d="M455 172q152 0 299 104l123 -155q-193 -152 -457 -152q-190 0 -305 88q-115 87 -115 225t89 222t310 141q154 41 204 80t50 100q0 97 -141 97t-287 -86l-92 161q186 117 416 117q180 0 277 -77q98 -77 98 -203t-89 -216q-89 -92 -275 -140t-236 -84t-50 -96t48 -93
t133 -33z" />
    <glyph glyph-name="uni0434" unicode="&#x434;" horiz-adv-x="1140" 
d="M504 166q119 0 202 129t105 395q-82 141 -236 141q-104 0 -177 -105t-72 -308q0 -124 47 -188t131 -64zM492 -31q-199 0 -316 119t-117 330q-1 268 139 438t339 170t305 -160l6 4q2 27 2 76q0 226 -106 320t-386 98l45 182q351 -12 519 -151t168 -431t-73 -526
q-41 -135 -105 -236t-173 -167t-247 -66z" />
    <glyph glyph-name="uni0435" unicode="&#x435;" horiz-adv-x="1067" 
d="M639 928q-104 0 -188 -95t-109 -260q232 21 326 81t94 165q0 51 -33 80t-90 29zM1032 827q0 -171 -169 -281t-529 -138q6 -118 58 -176t138 -58q133 0 273 92l104 -164q-176 -133 -391 -133t-333 122t-117 347q0 303 166 490q167 186 423 186q177 0 277 -77t100 -210z
" />
    <glyph glyph-name="uni0436" unicode="&#x436;" horiz-adv-x="1474" 
d="M776 0h-239l67 481h-121l-301 -481h-264l381 588l-90 217q-23 55 -54 83q-32 28 -96 50l72 176q125 -37 181 -84t94 -143l90 -232h133l61 428h238l-62 -428h115l131 213q76 119 136 167t177 79l74 -178q-80 -29 -124 -69t-101 -132l-96 -160l219 -575h-250l-176 481h-129
z" />
    <glyph glyph-name="uni0437" unicode="&#x437;" horiz-adv-x="964" 
d="M406 651q100 0 152 42t52 116q0 117 -144 117t-280 -97l-106 152q190 133 426 133q174 0 275 -74t101 -182t-64 -181q-65 -73 -175 -97l-2 -7q106 -25 166 -92q59 -68 59 -159q0 -150 -126 -251t-341 -102q-260 0 -436 172l143 142q131 -119 287 -119q92 0 146 46
q53 46 53 122q0 139 -193 139h-143l43 180h107z" />
    <glyph glyph-name="uni0438" unicode="&#x438;" horiz-adv-x="1165" 
d="M367 278q0 -98 100 -98q57 0 127 52t125 147l100 704h262l-151 -1083h-228l5 170q-145 -201 -338 -201q-266 0 -267 285q0 41 7 94l104 735h262l-104 -733q-4 -22 -4 -72z" />
    <glyph glyph-name="uni0439" unicode="&#x439;" horiz-adv-x="1165" 
d="M677 1268q-140 0 -226 77t-86 199l157 31q27 -127 168 -127t205 127l149 -31q-31 -124 -129 -200t-238 -76zM367 278q0 -98 100 -98q57 0 127 52t125 147l100 704h262l-151 -1083h-228l5 170q-145 -201 -338 -201q-266 0 -267 285q0 41 7 94l104 735h262l-104 -733
q-4 -22 -4 -72z" />
    <glyph glyph-name="uni043A" unicode="&#x43a;" horiz-adv-x="1071" 
d="M332 0h-262l153 1083h262l-61 -428h104l207 267q74 94 122 128t167 64l70 -180q-58 -18 -96 -47t-93 -96l-172 -209l273 -582h-273l-223 481h-111z" />
    <glyph glyph-name="uni043B" unicode="&#x43b;" horiz-adv-x="1181" 
d="M33 -33l-90 176q109 67 166 175t120 401l82 364h787l-152 -1083h-264l125 887h-289l-35 -156q-61 -273 -117 -415t-128 -215t-205 -134z" />
    <glyph glyph-name="uni043C" unicode="&#x43c;" horiz-adv-x="1415" 
d="M995 0l23 358q14 238 55 467h-8l-303 -710h-227l-121 710h-8q-25 -250 -56 -401l-88 -424h-254l248 1083h315l107 -714h8l289 714h330l-58 -1083h-252z" />
    <glyph glyph-name="uni043D" unicode="&#x43d;" horiz-adv-x="1196" 
d="M961 0h-263l64 453h-367l-63 -453h-262l153 1083h262l-61 -432h367l61 432h262z" />
    <glyph glyph-name="uni043E" unicode="&#x43e;" horiz-adv-x="1179" 
d="M635 915q-135 0 -216 -141t-81 -360q0 -246 188 -246q78 0 137 46q104 83 142 283q16 85 16 173q0 245 -186 245zM645 1114q211 0 330 -125t119 -338q0 -295 -156 -489t-420 -193q-211 0 -332 123t-120 338q0 284 152 484t427 200z" />
    <glyph glyph-name="uni043F" unicode="&#x43f;" horiz-adv-x="1177" 
d="M817 1114q115 0 181 -68t65 -202q0 -41 -6 -90l-105 -754h-262l96 709q17 135 -10 163t-71 27q-133 0 -287 -285l-86 -614h-262l153 1083h228l-17 -215q168 246 383 246z" />
    <glyph glyph-name="uni0440" unicode="&#x440;" horiz-adv-x="1202" 
d="M558 166q108 0 197 151q87 152 87 396q0 96 -35 144t-88 48q-145 0 -299 -282l-51 -353q81 -104 189 -104zM623 -31q-164 0 -279 125l-72 -512l-264 -28l215 1529h228l-17 -215q74 117 175 182t200 64q141 0 223 -98t82 -297q0 -330 -145 -540t-346 -210z" />
    <glyph glyph-name="uni0441" unicode="&#x441;" horiz-adv-x="956" 
d="M545 180q102 0 231 82l90 -174q-168 -119 -364 -119t-316 125q-121 125 -120 348q0 303 164 488q165 184 401 184q195 0 346 -121l-119 -164q-96 78 -218 78t-211 -124t-89 -341q0 -262 205 -262z" />
    <glyph glyph-name="uni0442" unicode="&#x442;" horiz-adv-x="1736" 
d="M766 803q0 96 -70 96q-127 0 -278 -285l-86 -614h-262l153 1083h228l-17 -215q166 246 369 246q94 0 154 -55t71 -164q160 219 361 219q106 0 170 -65q63 -66 63 -197q0 -41 -6 -88l-109 -764h-262l101 713q6 55 6 99q0 89 -70 87q-55 0 -128 -69t-148 -212l-86 -618
h-261l99 713q8 49 8 90z" />
    <glyph glyph-name="uni0443" unicode="&#x443;" horiz-adv-x="1013" 
d="M264 0l-196 1083h270l113 -893h8l348 893h278l-479 -1079q-94 -210 -242 -322t-395 -128l-8 196q164 20 250 78t141 172h-88z" />
    <glyph glyph-name="uni0444" unicode="&#x444;" horiz-adv-x="1742" 
d="M621 918q-113 0 -200 -142t-87 -366q0 -113 46 -172t114 -60q98 0 200 109l76 540q-65 91 -149 91zM1110 170q106 0 193 148q86 148 86 399q0 188 -121 188q-127 0 -264 -168l-68 -481q68 -86 174 -86zM1350 1114q305 0 305 -399q1 -326 -145 -536t-349 -210
q-145 0 -250 111l-69 -498l-250 -28l72 518q-124 -102 -268 -102t-237 112q-93 113 -93 330q0 306 152 504t349 198q135 0 230 -104l71 508l250 28l-82 -579q147 147 314 147z" />
    <glyph glyph-name="uni0445" unicode="&#x445;" horiz-adv-x="995" 
d="M479 420h-8l-276 -420h-299l440 573l-250 510h287l129 -360h8l229 360h297l-387 -505l283 -578h-293z" />
    <glyph glyph-name="uni0446" unicode="&#x446;" horiz-adv-x="1187" 
d="M967 246q0 -32 17 -47q17 -16 63 -21h32l-71 -483h-181l9 303q-125 29 -109 190l-6 2q-150 -221 -352 -221q-266 0 -267 285q0 41 7 94l104 735h262l-104 -733q-4 -22 -4 -72q0 -98 100 -98q57 0 127 52t125 147l100 704h262l-108 -768q-6 -37 -6 -69z" />
    <glyph glyph-name="uni0447" unicode="&#x447;" horiz-adv-x="1105" 
d="M352 607q0 -101 103 -99q57 0 127 53t125 146l53 376h262l-152 -1083h-262l66 471q-141 -172 -318 -172q-268 0 -268 283q0 41 6 94l58 407h262l-58 -403q-4 -23 -4 -73z" />
    <glyph glyph-name="uni0448" unicode="&#x448;" horiz-adv-x="1732" 
d="M952 285q0 -104 90 -105q51 0 118 52t124 141l102 710h263l-152 -1083h-227l4 170q-150 -201 -326 -201q-223 0 -254 209q-72 -98 -160 -153t-174 -56q-258 0 -258 283q0 43 7 96l104 735h262l-104 -733q-4 -26 -4 -74q0 -96 90 -96q51 0 119 54t124 145l99 704h262
l-103 -733q-6 -37 -6 -65z" />
    <glyph glyph-name="uni0449" unicode="&#x449;" horiz-adv-x="1755" 
d="M367 276q0 -96 90 -96q51 0 119 54t124 145l99 704h262l-103 -733q-6 -37 -6 -65q0 -104 90 -105q51 0 119 53t123 142l102 708h263l-109 -768q-6 -37 -6 -69t19 -49q19 -16 69 -19h25l-72 -483h-180l8 303q-125 31 -109 190l-6 2q-152 -221 -340 -221q-223 0 -254 209
q-72 -98 -160 -153t-174 -56q-258 0 -258 283q0 43 7 96l104 735h262l-104 -733q-4 -26 -4 -74z" />
    <glyph glyph-name="uni044A" unicode="&#x44a;" horiz-adv-x="1157" 
d="M612 563h-82l-53 -379q55 -14 115 -14q227 0 227 227q0 166 -207 166zM565 -20q-193 0 -372 49l122 862h-282l28 192h543l-47 -340h76q225 0 342 -86t117 -241q0 -204 -134 -320t-393 -116z" />
    <glyph glyph-name="uni044B" unicode="&#x44b;" horiz-adv-x="1527" 
d="M494 567h-82l-56 -387q57 -14 115 -14q104 0 161 60q56 60 56 158q0 184 -194 183zM446 -20q-190 0 -372 49l149 1054h262l-49 -340h78q217 0 331 -85t113 -242q0 -204 -132 -320t-380 -116zM1292 0h-262l152 1083h262z" />
    <glyph glyph-name="uni044C" unicode="&#x44c;" horiz-adv-x="1036" 
d="M494 563h-84l-54 -379q57 -14 115 -14q227 0 227 227q1 166 -204 166zM444 -20q-188 0 -370 49l147 1054h262l-47 -340h78q223 0 340 -86t117 -241q0 -205 -134 -321q-135 -115 -393 -115z" />
    <glyph glyph-name="uni044D" unicode="&#x44d;" horiz-adv-x="999" 
d="M484 1114q196 0 312 -123t115 -332q-1 -307 -155 -498t-383 -191t-383 153l133 147q111 -102 221 -102t183 78t100 225h-422l22 166h418q4 160 -45 222q-50 63 -158 63t-241 -88l-92 151q179 129 375 129z" />
    <glyph glyph-name="uni044E" unicode="&#x44e;" horiz-adv-x="1603" 
d="M1073 915q-129 0 -205 -139t-75 -356q0 -252 172 -252q78 0 136 49t88 130q56 151 56 323q0 245 -172 245zM1078 1114q206 0 322 -125t116 -338q0 -295 -152 -489t-408 -193q-206 0 -320 129t-108 359h-133l-63 -457h-262l153 1083h262l-63 -438h129q49 207 185 338
t342 131z" />
    <glyph glyph-name="uni044F" unicode="&#x44f;" horiz-adv-x="1132" 
d="M627 934q-111 0 -169 -53t-59 -152q0 -162 193 -162h129l49 351q-77 16 -143 16zM129 732q0 178 130 280t388 102q197 0 402 -47l-150 -1067h-258l57 399h-178l-270 -399h-295l324 459q-150 96 -150 273z" />
    <glyph glyph-name="uni0451" unicode="&#x451;" horiz-adv-x="1067" 
d="M472 1315q-60 0 -103 41t-43 100t43 100t103 41t102 -41t42 -100t-42 -100t-102 -41zM1053 1456q-1 -59 -43 -100t-102 -41t-103 41t-43 100t43 100t103 41t102 -41t43 -100zM639 928q-104 0 -188 -95t-109 -260q232 21 326 81t94 165q0 51 -33 80t-90 29zM1032 827
q0 -171 -169 -281t-529 -138q6 -118 58 -176t138 -58q133 0 273 92l104 -164q-176 -133 -391 -133t-333 122t-117 347q0 303 166 490q167 186 423 186q177 0 277 -77t100 -210z" />
    <glyph glyph-name="uni0452" unicode="&#x452;" horiz-adv-x="1191" 
d="M834 1114q114 0 178 -68t63 -202q0 -41 -6 -90l-90 -654q-31 -225 -135 -348t-322 -196l-69 192q127 49 184 121t78 223l86 617q6 45 6 93q0 98 -88 97q-135 0 -287 -283l-86 -616h-262l170 1219h-143l22 167h143l19 132l268 28l-24 -160h311l-23 -167h-311l-45 -326
q162 221 363 221z" />
    <glyph glyph-name="uni0453" unicode="&#x453;" horiz-adv-x="952" 
d="M406 1260l-66 139l448 276l101 -213zM455 172q152 0 299 104l123 -155q-193 -152 -457 -152q-190 0 -305 88q-115 87 -115 225t89 222t310 141q154 41 204 80t50 100q0 97 -141 97t-287 -86l-92 161q186 117 416 117q180 0 277 -77q98 -77 98 -203t-89 -216
q-89 -92 -275 -140t-236 -84t-50 -96t48 -93t133 -33z" />
    <glyph glyph-name="uni0454" unicode="&#x454;" horiz-adv-x="970" 
d="M547 176q102 0 231 82l88 -170q-168 -119 -364 -119t-316 125q-121 125 -120 348q0 307 161 490q162 182 404 182q195 0 346 -121l-117 -162q-96 80 -208 80q-112 1 -188 -69t-106 -205h418l-22 -166h-416q-8 -295 209 -295z" />
    <glyph glyph-name="uni0455" unicode="&#x455;" horiz-adv-x="972" 
d="M420 166q86 0 135 36t49 95t-42 95t-169 79q-295 98 -295 320q0 145 112 233t324 88t375 -131l-118 -158q-129 96 -269 97q-76 0 -114 -31t-39 -80q0 -49 40 -80q41 -31 185 -83t214 -129t69 -191q0 -160 -120 -258t-341 -99q-127 0 -245 48t-194 122l140 152
q139 -125 303 -125z" />
    <glyph glyph-name="uni0456" unicode="&#x456;" horiz-adv-x="555" 
d="M563 1470q0 -68 -46 -114t-119 -45q-72 0 -118 46q-46 45 -46 113t46 113t118 45t119 -45q46 -45 46 -113zM326 0h-263l152 1083h262z" />
    <glyph glyph-name="uni0457" unicode="&#x457;" horiz-adv-x="555" 
d="M326 0h-263l152 1083h262zM332 1456q0 -59 -42 -100t-103 -41q-60 0 -103 41t-43 100t43 100t103 41q61 0 103 -41t42 -100zM624 1315q-60 0 -104 41q-43 41 -43 100t43 100q44 41 104 41t102 -41t42 -100t-42 -100t-102 -41z" />
    <glyph glyph-name="uni0458" unicode="&#x458;" horiz-adv-x="555" 
d="M76 92l139 991h262l-139 -983q-33 -233 -138 -353t-319 -191l-69 192q127 48 184 120t80 224zM563 1470q0 -68 -46 -114t-119 -45q-72 0 -118 46q-46 45 -46 113t46 113t118 45t119 -45q46 -45 46 -113z" />
    <glyph glyph-name="uni0459" unicode="&#x459;" horiz-adv-x="1619" 
d="M1092 567h-84l-56 -387q57 -14 115 -14q104 0 162 60q57 60 57 158q0 184 -194 183zM1110 743q217 0 331 -85t113 -242q0 -205 -132 -321t-380 -115q-190 0 -372 49l121 858h-273l-35 -156q-61 -273 -117 -415t-128 -215t-205 -134l-90 176q109 67 166 175t120 401
l82 364h770l-47 -340h76z" />
    <glyph glyph-name="uni045A" unicode="&#x45a;" horiz-adv-x="1658" 
d="M1122 508h-82l-47 -328q57 -14 115 -14q217 0 217 201q0 141 -203 141zM1083 -20q-195 0 -372 49l65 477h-366l-70 -506h-260l151 1083h263l-58 -399h367l57 399h262l-57 -399h76q455 0 454 -299q0 -189 -131 -297t-381 -108z" />
    <glyph glyph-name="uni045B" unicode="&#x45b;" horiz-adv-x="1189" 
d="M834 1114q114 0 178 -68t63 -202q0 -41 -6 -90l-104 -754h-263l99 709q6 45 6 93q0 98 -88 97q-135 0 -287 -283l-86 -616h-262l170 1219h-143l22 167h143l19 132l268 28l-24 -160h311l-23 -167h-311l-45 -326q162 221 363 221z" />
    <glyph glyph-name="uni045C" unicode="&#x45c;" horiz-adv-x="1071" 
d="M506 1260l-66 139l449 276l100 -213zM332 0h-262l153 1083h262l-61 -428h104l207 267q74 94 122 128t167 64l70 -180q-58 -18 -96 -47t-93 -96l-172 -209l273 -582h-273l-223 481h-111z" />
    <glyph glyph-name="uni045E" unicode="&#x45e;" horiz-adv-x="1013" 
d="M611 1268q-140 0 -226 77t-86 199l158 31q27 -127 168 -127t204 127l150 -31q-31 -124 -129 -200t-239 -76zM264 0l-196 1083h270l113 -893h8l348 893h278l-479 -1079q-94 -210 -242 -322t-395 -128l-8 196q164 20 250 78t141 172h-88z" />
    <glyph glyph-name="uni045F" unicode="&#x45f;" horiz-adv-x="1200" 
d="M414 0h-344l153 1083h262l-127 -886h371l125 886h262l-151 -1083h-336l-43 -305h-183z" />
    <glyph glyph-name="uni0462" unicode="&#x462;" horiz-adv-x="1445" 
d="M821 688h-133l-59 -481h168q297 0 297 280q0 97 -70 149t-203 52zM846 891q258 1 397 -103t139 -294q0 -225 -156 -360q-157 -134 -440 -134h-452l145 1200h-387l27 215h1052l-55 -215h-364l-39 -309h133z" />
    <glyph glyph-name="uni0463" unicode="&#x463;" horiz-adv-x="1048" 
d="M504 563h-82l-55 -379q57 -14 114 -14q229 0 230 227q0 166 -207 166zM457 -20q-190 0 -373 49l129 905h-152l25 168h150l32 233l267 29l-37 -262h272l-49 -168h-246l-26 -191h75q225 0 342 -86t117 -241q0 -208 -135 -322t-391 -114z" />
    <glyph glyph-name="uni0472" unicode="&#x472;" horiz-adv-x="1411" 
d="M786 1239q-160 0 -252 -121t-128 -307h651q2 23 2 68q-1 360 -273 360zM653 176q170 0 262 132t123 335h-653q-4 -41 -4 -104q0 -363 272 -363zM649 -31q-254 0 -402 155q-149 155 -149 433t109 510t324 328q118 51 260 51q254 0 402 -156t148 -435q0 -280 -108 -509
t-326 -326q-117 -51 -258 -51z" />
    <glyph glyph-name="uni0473" unicode="&#x473;" horiz-adv-x="1179" 
d="M635 915q-100 -1 -173 -75t-102 -213h459q2 25 2 43q0 245 -186 245zM529 168q103 0 172 82t98 213h-461q-6 -159 41 -227t150 -68zM645 1114q211 0 330 -125t119 -338q0 -295 -156 -489t-420 -193q-211 0 -332 123t-120 338q0 284 152 484t427 200z" />
    <glyph glyph-name="uni0474" unicode="&#x474;" horiz-adv-x="1198" 
d="M387 1415l164 -1171h8l313 819q113 295 177 381l266 -49q-70 -88 -189 -369l-432 -1026h-325l-260 1415h278z" />
    <glyph glyph-name="uni0475" unicode="&#x475;" horiz-adv-x="1036" 
d="M283 0l-209 1083h276l109 -868h8l248 629q76 193 149 268l258 -37q-96 -121 -170 -287l-356 -788h-313z" />
    <glyph glyph-name="uni0490" unicode="&#x490;" horiz-adv-x="1017" 
d="M266 1415h598l37 309h256l-39 -309l-53 -219h-553l-147 -1196h-271z" />
    <glyph glyph-name="uni0491" unicode="&#x491;" horiz-adv-x="886" 
d="M457 883l-125 -883h-262l153 1083h484l41 297h245l-41 -297l-59 -200h-436z" />
    <glyph glyph-name="uni0492" unicode="&#x492;" horiz-adv-x="1026" 
d="M272 1415h854l-55 -219h-553l-37 -309h301l-20 -176h-303l-86 -711h-273l86 711h-178l21 176h180z" />
    <glyph glyph-name="uni0493" unicode="&#x493;" horiz-adv-x="1024" 
d="M500 168q160 0 305 106l115 -151q-195 -154 -459 -154q-180 0 -297 81t-117 204q0 188 182 258l-2 6l-239 12l30 134l363 -46l119 44q127 44 165 80q37 36 37 84q-1 97 -124 98q-147 0 -304 -88l-86 159q186 119 426 119q170 0 262 -74t93 -188q0 -199 -254 -272l2 -7
l254 -10l-31 -133l-399 49q-129 -39 -174 -84t-45 -104t47 -91t131 -32z" />
    <glyph glyph-name="uni0496" unicode="&#x496;" horiz-adv-x="1871" 
d="M1622 1044l-203 -286l240 -543h147l-65 -541h-197l6 326h-82l-266 639h-137l-76 -639h-256l78 639h-127l-418 -639h-297l518 768l-159 328q-35 72 -76 104t-121 53l70 193q143 -31 218 -87t124 -165l159 -352h134l69 573h256l-69 -573h114l221 317q100 145 172 199
t205 88l68 -191q-76 -20 -125 -60t-125 -151z" />
    <glyph glyph-name="uni0497" unicode="&#x497;" horiz-adv-x="1486" 
d="M1442 170h12l-70 -475h-180l10 293q-44 24 -72 64t-61 126l-114 303h-125l-66 -481h-239l67 481h-121l-301 -481h-264l381 588l-90 217q-23 55 -54 83q-32 28 -96 50l72 176q125 -37 181 -84t94 -143l90 -232h133l61 428h238l-62 -428h113l133 213q74 119 135 167t178 79
l74 -178q-80 -29 -124 -69t-101 -132l-96 -160l102 -266q29 -75 66 -107t96 -32z" />
    <glyph glyph-name="uni0498" unicode="&#x498;" horiz-adv-x="1114" 
d="M397 -365q96 0 97 80q0 37 -37 53t-135 17l51 192q-246 37 -385 207l162 138q129 -141 307 -142q121 0 191 68t71 188q0 215 -260 215h-142l56 205h119q124 0 196 62t72 150q0 173 -197 173q-150 0 -307 -119l-121 152q213 172 479 172q201 0 315 -89q113 -89 113 -229
t-86 -239q-86 -100 -235 -129l-2 -8q129 -27 208 -115t79 -209q0 -188 -129 -315t-353 -142l-12 -77q88 -10 136 -60t48 -135q0 -86 -80 -152q-80 -65 -210 -65t-234 63l82 129q71 -39 143 -39z" />
    <glyph glyph-name="uni0499" unicode="&#x499;" horiz-adv-x="964" 
d="M328 -365q96 0 96 80q0 35 -38 53t-134 17l51 192q-203 27 -340 164l143 142q131 -119 287 -119q92 0 146 46q53 46 53 122q0 139 -193 139h-143l43 180h107q100 0 152 42t52 116q0 117 -144 117t-280 -97l-106 152q190 133 426 133q174 0 275 -74t101 -182t-64 -181
q-65 -73 -175 -97l-2 -7q106 -25 166 -92q59 -68 59 -159q0 -139 -109 -238q-110 -98 -302 -113l-13 -77q86 -10 136 -60t49 -135q0 -86 -80 -152q-80 -65 -211 -65t-234 63l82 129q68 -39 144 -39z" />
    <glyph glyph-name="uni049A" unicode="&#x49a;" horiz-adv-x="1269" 
d="M1081 1112l-270 -350l272 -547h154l-66 -541h-196l6 326h-90l-305 637h-144l-77 -637h-271l172 1415h273l-70 -571h123l278 364q86 113 157 161t194 77l69 -189q-72 -20 -116 -51t-93 -94z" />
    <glyph glyph-name="uni049B" unicode="&#x49b;" horiz-adv-x="1085" 
d="M1040 170h13l-70 -475h-180l10 297q-98 33 -164 182l-141 307h-109l-67 -481h-262l153 1083h262l-61 -428h102l209 267q74 94 122 128t167 64l70 -180q-58 -18 -96 -47t-93 -96l-172 -209l135 -273q39 -79 75 -109t97 -30z" />
    <glyph glyph-name="uni049C" unicode="&#x49c;" horiz-adv-x="1277" 
d="M586 303h-119l41 340h-72l-78 -643h-264l172 1415h266l-73 -577h71l41 333h119l-41 -333h35l184 299q88 145 166 209t230 100l69 -193q-88 -23 -136 -63t-110 -135l-190 -295l293 -760h-297l-223 643h-43z" />
    <glyph glyph-name="uni049D" unicode="&#x49d;" horiz-adv-x="1110" 
d="M322 0h-252l153 1083h250l-61 -438h63l35 240h98l-35 -240h23l170 260q66 100 117 139t168 70l75 -182q-102 -29 -180 -144l-145 -208l219 -580h-268l-170 492h-31l-35 -250h-96l33 250h-64z" />
    <glyph glyph-name="uni04A0" unicode="&#x4a0;" horiz-adv-x="1425" 
d="M1257 1112l-270 -350l373 -762h-293l-305 637h-144l-77 -637h-271l146 1202h-344l26 213h617l-70 -571h123l281 364q86 113 155 161q70 48 193 77l71 -189q-72 -20 -117 -51t-94 -94z" />
    <glyph glyph-name="uni04A1" unicode="&#x4a1;" horiz-adv-x="1191" 
d="M453 0h-263l125 891h-282l28 192h543l-61 -428h106l207 267q74 94 122 128t167 64l69 -180q-59 -18 -96 -47t-92 -96l-172 -209l272 -582h-272l-223 481h-111z" />
    <glyph glyph-name="uni04A2" unicode="&#x4a2;" horiz-adv-x="1378" 
d="M1298 1415l-147 -1200h164l-66 -541h-196l6 326h-205l78 633h-490l-77 -633h-271l172 1415h273l-70 -567h489l70 567h270z" />
    <glyph glyph-name="uni04A3" unicode="&#x4a3;" horiz-adv-x="1220" 
d="M729 168q0 16 4 65l29 220h-367l-63 -453h-262l153 1083h262l-61 -432h367l61 432h262l-108 -776q-15 -95 8 -115q24 -20 73 -22h25l-70 -475h-182l8 293q-139 23 -139 180z" />
    <glyph glyph-name="uni04AA" unicode="&#x4aa;" horiz-adv-x="1167" 
d="M797 1237q-180 0 -297 -186t-117 -476q0 -387 287 -387q152 0 309 121l117 -174q-113 -96 -252 -137q-215 -119 -215 -268q0 -86 106 -86q76 0 133 30l47 -137q-106 -49 -227 -49q-122 0 -188 55t-66 150q0 164 184 278q-240 6 -380 161t-140 441q0 379 197 626t498 247
q257 0 417 -162l-153 -149q-115 102 -260 102z" />
    <glyph glyph-name="uni04AB" unicode="&#x4ab;" horiz-adv-x="956" 
d="M545 180q102 0 231 82l90 -174q-86 -61 -176 -88q-217 -119 -217 -270q0 -86 109 -86q72 0 133 30l47 -137q-112 -49 -230 -49t-186 55t-67 150q0 164 184 278q-180 12 -289 135t-108 336q0 303 164 488q165 184 401 184q195 0 346 -121l-119 -164q-96 78 -218 78
t-211 -124t-89 -341q0 -262 205 -262z" />
    <glyph glyph-name="uni04AE" unicode="&#x4ae;" horiz-adv-x="1161" 
d="M1274 1415l-563 -878l-66 -537h-272l65 535l-348 880h287l215 -649h8l375 649h299z" />
    <glyph glyph-name="uni04AF" unicode="&#x4af;" horiz-adv-x="1015" 
d="M494 -418l-261 -28l66 466l-233 1063h274l117 -804h8l348 804h277l-533 -1058z" />
    <glyph glyph-name="uni04B0" unicode="&#x4b0;" horiz-adv-x="1161" 
d="M1274 1415l-492 -766h191l-21 -168h-247l-60 -481h-272l59 481h-250l23 168h186l-301 766h287l215 -649h8l375 649h299z" />
    <glyph glyph-name="uni04B1" unicode="&#x4b1;" horiz-adv-x="1015" 
d="M494 -418l-261 -28l66 464h-203l23 164h143l-196 901h274l117 -804h8l348 804h277l-453 -901h145l-22 -164h-205z" />
    <glyph glyph-name="uni04B2" unicode="&#x4b2;" horiz-adv-x="1187" 
d="M430 754l-303 661h287l188 -481h8l314 481h301l-473 -651l247 -549h175l-66 -541h-197l7 326h-115l-221 569h-9l-352 -569h-301z" />
    <glyph glyph-name="uni04B3" unicode="&#x4b3;" horiz-adv-x="1009" 
d="M958 170h29l-72 -475h-182l10 297q-61 10 -97 54t-81 157l-86 217h-8l-276 -420h-299l440 573l-250 510h287l129 -360h8l229 360h297l-387 -505l121 -246q47 -98 86 -130t102 -32z" />
    <glyph glyph-name="uni04B8" unicode="&#x4b8;" horiz-adv-x="1269" 
d="M111 848q0 49 6 104l57 463h272l-57 -457q-6 -49 -6 -88q0 -174 143 -198l60 485h127l-60 -487q111 16 203 92l80 653h272l-174 -1415h-272l69 567q-98 -72 -202 -96l-23 -182h-125l19 168q-389 10 -389 391z" />
    <glyph glyph-name="uni04B9" unicode="&#x4b9;" horiz-adv-x="1105" 
d="M350 616q0 -102 92 -108l43 299h107l-37 -260q88 53 152 160l53 376h262l-152 -1083h-262l66 471q-68 -86 -148 -123l-24 -182h-107l19 141q-25 -8 -58 -8q-268 0 -268 283q0 41 6 94l58 407h262l-58 -403q-6 -37 -6 -64z" />
    <glyph glyph-name="uni04BA" unicode="&#x4ba;" horiz-adv-x="1273" 
d="M821 946q175 0 275 -97t100 -300q0 -31 -8 -113l-53 -436h-273l51 430q6 51 7 94q0 115 -48 163t-147 48q-145 0 -285 -114l-75 -621h-271l172 1415h273l-76 -606q182 137 358 137z" />
    <glyph glyph-name="uni04BB" unicode="&#x4bb;" horiz-adv-x="1165" 
d="M801 965q242 0 241 -256q0 -25 -8 -95l-84 -614h-262l78 563q8 66 8 84q0 109 -88 109q-133 0 -289 -289l-65 -467h-262l213 1516l266 30l-113 -798q164 217 365 217z" />
    <glyph glyph-name="uni04C0" unicode="&#x4c0;" horiz-adv-x="600" 
d="M365 0h-271l172 1415h273z" />
    <glyph glyph-name="uni04CB" unicode="&#x4cb;" horiz-adv-x="1288" 
d="M111 850q0 47 6 102l57 463h272l-57 -457q-6 -45 -6 -86q0 -112 51 -158t179 -46t243 94l80 653h272l-147 -1200h164l-68 -541h-196l6 326h-205l69 567q-158 -111 -335 -111t-281 99q-104 98 -104 295z" />
    <glyph glyph-name="uni04CC" unicode="&#x4cc;" horiz-adv-x="1128" 
d="M907 238q-1 -32 19 -50q20 -16 69 -18h25l-70 -475h-182l8 293q-139 23 -139 176q0 33 6 69l33 240q-139 -174 -320 -174q-268 0 -268 283q0 41 6 94l58 407h262l-58 -403q-4 -23 -4 -73q0 -101 103 -99q57 0 129 54t125 149l51 372h262l-109 -776q-6 -37 -6 -69z" />
    <glyph glyph-name="uni04CF" unicode="&#x4cf;" horiz-adv-x="552" 
d="M294 -31q-100 1 -161 61t-61 179q0 31 6 72l174 1237l268 28l-182 -1280q-6 -47 6 -65t46 -18t56 10l39 -185q-91 -39 -191 -39z" />
    <glyph glyph-name="uni04D8" unicode="&#x4d8;" horiz-adv-x="1345" 
d="M350 498q0 -160 70 -241t201 -81t227 106t131 328h-621q-8 -55 -8 -112zM610 -31q-256 0 -391 152t-135 426q0 127 27 260h890q2 25 3 76q0 358 -281 358q-91 0 -191 -36t-176 -91l-112 162q236 170 518 170q236 0 377 -150t141 -419q0 -428 -190 -668t-480 -240z" />
    <glyph glyph-name="uni04D9" unicode="&#x4d9;" horiz-adv-x="1122" 
d="M459 156q111 0 195 92t116 260q-266 -8 -361 -64t-96 -159q0 -61 39 -95t107 -34zM436 -31q-182 1 -286 87t-103 215q-1 129 61 207t229 131q167 52 447 63q8 131 -38 189q-46 59 -170 59t-289 -97l-88 166q207 125 440 125q174 0 290 -117t115 -323q0 -319 -173 -512
t-435 -193z" />
    <glyph glyph-name="uni04E2" unicode="&#x4e2;" horiz-adv-x="1361" 
d="M1126 1804l-22 -188h-596l24 188h594zM1034 1145l-588 -1145h-352l172 1415h269l-43 -346q-27 -219 -74 -476t-68 -325h8l594 1147h346l-172 -1415h-268l41 340q25 209 72 466t71 339h-8z" />
    <glyph glyph-name="uni04E3" unicode="&#x4e3;" horiz-adv-x="1165" 
d="M993 1548l-24 -186h-594l24 186h594zM367 278q0 -98 100 -98q57 0 127 52t125 147l100 704h262l-151 -1083h-228l5 170q-145 -201 -338 -201q-266 0 -267 285q0 41 7 94l104 735h262l-104 -733q-4 -22 -4 -72z" />
    <glyph glyph-name="uni04E8" unicode="&#x4e8;" horiz-adv-x="1411" 
d="M786 1239q-160 0 -252 -121t-128 -307h651q2 23 2 68q-1 360 -273 360zM653 176q170 0 262 132t123 335h-653q-4 -41 -4 -104q0 -363 272 -363zM649 -31q-254 0 -402 155q-149 155 -149 433t109 510t324 328q118 51 260 51q254 0 402 -156t148 -435q0 -280 -108 -509
t-326 -326q-117 -51 -258 -51z" />
    <glyph glyph-name="uni04E9" unicode="&#x4e9;" horiz-adv-x="1179" 
d="M635 915q-100 -1 -173 -75t-102 -213h459q2 25 2 43q0 245 -186 245zM529 168q103 0 172 82t98 213h-461q-6 -159 41 -227t150 -68zM645 1114q211 0 330 -125t119 -338q0 -295 -156 -489t-420 -193q-211 0 -332 123t-120 338q0 284 152 484t427 200z" />
    <glyph glyph-name="uni04EE" unicode="&#x4ee;" horiz-adv-x="1161" 
d="M1038 1804l-22 -188h-596l24 188h594zM420 381l-318 1034h271l223 -868h8l402 868h284l-518 -1012q-117 -229 -248 -321t-374 -113l-13 201q166 22 244 64t131 147h-92z" />
    <glyph glyph-name="uni04EF" unicode="&#x4ef;" horiz-adv-x="1013" 
d="M934 1548l-25 -186h-594l25 186h594zM264 0l-196 1083h270l113 -893h8l348 893h278l-479 -1079q-94 -210 -242 -322t-395 -128l-8 196q164 20 250 78t141 172h-88z" />
    <glyph glyph-name="uni2007" unicode="&#x2007;" horiz-adv-x="1175" 
 />
    <glyph glyph-name="uni2008" unicode="&#x2008;" horiz-adv-x="524" 
 />
    <glyph glyph-name="uni200B" unicode="&#x200b;" horiz-adv-x="0" 
 />
    <glyph glyph-name="figuredash" unicode="&#x2012;" 
d="M1114 555h-1091l26 211h1092z" />
    <glyph glyph-name="endash" unicode="&#x2013;" horiz-adv-x="1064" 
d="M1004 537h-957l29 208h956z" />
    <glyph glyph-name="emdash" unicode="&#x2014;" horiz-adv-x="1626" 
d="M1563 537h-1516l29 208h1517z" />
    <glyph glyph-name="afii00208" unicode="&#x2015;" horiz-adv-x="1064" 
d="M1004 537h-957l29 208h956z" />
    <glyph glyph-name="quoteleft" unicode="&#x2018;" horiz-adv-x="503" 
d="M477 1141q0 -71 -45 -113q-44 -42 -110 -43q-66 0 -109 41t-43 112t66 175l157 258h144l-119 -320q59 -39 59 -110z" />
    <glyph glyph-name="quoteright" unicode="&#x2019;" horiz-adv-x="501" 
d="M205 1424q0 70 46 113q45 42 111 42t108 -41t42 -112t-66 -175l-157 -258h-142l119 320q-61 41 -61 111z" />
    <glyph glyph-name="quotesinglbase" unicode="&#x201a;" horiz-adv-x="501" 
d="M27 104q0 70 46 112q45 42 111 42t109 -41t43 -112t-66 -175l-159 -258h-142l119 320q-61 42 -61 112z" />
    <glyph glyph-name="quotedblleft" unicode="&#x201c;" horiz-adv-x="903" 
d="M721 985q-66 0 -109 41t-43 112t66 175l160 258h141l-119 -320q61 -41 61 -111t-45 -112q-46 -42 -112 -43zM479 1140q0 -70 -46 -112q-45 -42 -111 -43q-66 0 -109 41t-43 112t66 175l159 258h142l-119 -320q61 -41 61 -111z" />
    <glyph glyph-name="quotedblright" unicode="&#x201d;" horiz-adv-x="903" 
d="M758 1579q66 0 108 -41t42 -112t-66 -175l-158 -258h-141l119 320q-62 41 -62 111t46 113q46 42 112 42zM201 1424q0 70 46 113q45 42 111 42t108 -41t42 -112t-66 -175l-157 -258h-142l119 320q-61 41 -61 111z" />
    <glyph glyph-name="quotedblbase" unicode="&#x201e;" horiz-adv-x="899" 
d="M426 104q0 70 46 112t112 42t108 -41t44 -112q0 -71 -66 -175l-160 -258h-141l118 320q-61 42 -61 112zM27 104q0 70 46 112q45 42 111 42t109 -41t43 -112t-66 -175l-159 -258h-142l119 320q-61 42 -61 112z" />
    <glyph glyph-name="dagger" unicode="&#x2020;" horiz-adv-x="1052" 
d="M1026 870h-342l-106 -870h-248l108 870h-342l25 213h342l39 306h248l-39 -306h342z" />
    <glyph glyph-name="daggerdbl" unicode="&#x2021;" horiz-adv-x="1052" 
d="M641 524h342l-25 -215h-342l-38 -309h-248l39 309h-342l26 215h340l43 336h-342l27 215h340l41 314h248l-41 -314h342l-25 -215h-342z" />
    <glyph glyph-name="bullet" unicode="&#x2022;" horiz-adv-x="790" 
d="M412 426q-119 0 -197 79t-78 197t78 194q78 77 197 77q118 0 196 -78t78 -197q0 -120 -78 -196t-196 -76z" />
    <glyph glyph-name="ellipsis" unicode="&#x2026;" horiz-adv-x="1574" 
d="M1249 -31q-70 0 -118 49t-48 118q1 69 49 117t118 48t117 -48q48 -48 48 -117t-48 -118t-118 -49zM35 136q0 69 48 117t118 48q69 0 117 -48t48 -117t-48 -118t-118 -49t-117 49q-48 49 -48 118zM559 136q0 69 48 117t118 48t118 -48t48 -117t-48 -118t-118 -49t-118 49
t-48 118z" />
    <glyph glyph-name="perthousand" unicode="&#x2030;" horiz-adv-x="2480" 
d="M2027 -31q-163 0 -257 87q-93 87 -93 231q1 187 101 293t258 106t252 -90t96 -227q0 -172 -97 -286t-260 -114zM2179 358q1 164 -141 164q-70 0 -115 -62t-45 -154q0 -174 137 -173q80 -1 122 59t42 166zM1260 -31q-162 0 -256 87t-95 231q1 187 101 293t258 106t252 -90
t96 -227q0 -172 -97 -286t-259 -114zM1411 358q1 164 -141 164q-70 0 -115 -62t-45 -154q0 -174 137 -173q80 -1 122 59t42 166zM518 686q-162 0 -257 87q-93 87 -93 231q0 188 100 293t258 105t252 -90t96 -227q0 -171 -97 -285t-259 -114zM670 1075q0 164 -142 164
q-70 0 -114 -60q-45 -61 -45 -153q0 -176 135 -176q80 0 123 59t43 166zM1538 1356l-1124 -1428l-160 107l1122 1427z" />
    <glyph glyph-name="guilsinglleft" unicode="&#x2039;" horiz-adv-x="718" 
d="M360 594l207 -424l-168 -107l-319 447l24 172l439 440l143 -116z" />
    <glyph glyph-name="guilsinglright" unicode="&#x203a;" horiz-adv-x="722" 
d="M358 594l-206 422l167 106l320 -446l-25 -172l-438 -441l-143 119z" />
    <glyph glyph-name="fraction" unicode="&#x2044;" horiz-adv-x="200" 
d="M725 1466l-1057 -1640l-162 86l1059 1640z" />
    <glyph glyph-name="uni2070" unicode="&#x2070;" horiz-adv-x="819" 
d="M797 1196q-1 -258 -99 -410t-280 -151q-141 0 -218 85t-77 251q0 273 102 417t281 144q139 0 215 -84t76 -252zM426 784q51 0 95 59t67 258q6 62 6 120q0 162 -98 161q-70 0 -118 -104t-48 -299t96 -195z" />
    <glyph glyph-name="uni2074" unicode="&#x2074;" horiz-adv-x="819" 
d="M762 831h-103l-20 -184h-195l23 184h-373l17 132l321 573l162 -61l-266 -492h159l54 205h164l-25 -205h102z" />
    <glyph glyph-name="uni2075" unicode="&#x2075;" horiz-adv-x="819" 
d="M752 977q0 -150 -98 -246t-257 -96q-201 0 -307 131l131 102q74 -80 158 -80t124 48t40 116q0 129 -103 127q-43 0 -108 -30h-146l58 469h536l-37 -146h-321l-25 -182q61 31 125 31q106 -1 168 -67t62 -177z" />
    <glyph glyph-name="uni2076" unicode="&#x2076;" horiz-adv-x="819" 
d="M440 782q62 0 100 50t38 156q0 104 -89 104q-88 0 -159 -88q-2 -53 0 -91q12 -131 110 -131zM542 1233q110 0 176 -67q65 -67 64 -181q0 -156 -98 -253t-244 -97t-231 92q-84 92 -84 254q0 247 122 399t322 152q129 -1 213 -64l-96 -116q-53 35 -121 34q-172 0 -223 -251
q90 98 200 98z" />
    <glyph glyph-name="uni2077" unicode="&#x2077;" horiz-adv-x="819" 
d="M797 1393l-432 -764l-175 65l383 670h-383l19 154h602z" />
    <glyph glyph-name="uni2078" unicode="&#x2078;" horiz-adv-x="819" 
d="M496 1393q-117 0 -117 -101q0 -76 115 -114q102 57 102 135q0 37 -26 59t-74 21zM430 782q64 0 105 35t41 85t-38 80t-120 58q-119 -61 -119 -157q0 -47 34 -74q33 -27 97 -27zM178 1284q0 116 85 182t231 66t223 -58q78 -58 78 -139q-1 -82 -49 -136t-132 -79
q166 -70 166 -200t-96 -208t-258 -77t-248 65t-86 155q0 185 211 247q-125 66 -125 182z" />
    <glyph glyph-name="uni2079" unicode="&#x2079;" horiz-adv-x="819" 
d="M438 1098q86 0 150 69q6 55 6 88q0 131 -111 131q-61 0 -101 -46t-40 -130q0 -112 96 -112zM377 956q-110 0 -175 68t-65 178q-1 146 99 238t250 92t231 -79q80 -79 80 -216q0 -256 -156 -403t-465 -216l-26 146q326 70 423 272l-4 4q-82 -84 -192 -84z" />
    <glyph glyph-name="uni207A" unicode="&#x207a;" horiz-adv-x="819" 
d="M578 1292l-23 -184h178l-20 -156h-178l-23 -182h-176l22 182h-178l19 156h178l24 184h177z" />
    <glyph glyph-name="uni207B" unicode="&#x207b;" horiz-adv-x="819" 
d="M713 950h-533l19 156h534z" />
    <glyph glyph-name="uni207C" unicode="&#x207c;" horiz-adv-x="819" 
d="M694 821h-534l18 156h535zM727 1083h-534l18 156h534z" />
    <glyph glyph-name="uni207D" unicode="&#x207d;" horiz-adv-x="819" 
d="M455 858q0 -225 108 -424l-133 -78q-82 139 -125 260t-43 275q0 250 85 424t247 362l115 -82q-254 -322 -254 -737z" />
    <glyph glyph-name="uni207E" unicode="&#x207e;" horiz-adv-x="819" 
d="M453 1176q0 225 -109 423l133 78q84 -143 126 -262t42 -272q0 -251 -86 -427t-246 -360l-114 80q254 322 254 740z" />
    <glyph glyph-name="uni2080" unicode="&#x2080;" horiz-adv-x="819" 
d="M772 135q0 -257 -98 -409t-281 -152q-141 0 -218 85t-77 251q0 272 102 416t281 145q139 0 215 -84t76 -252zM401 -276q131 0 162 316q6 62 6 120q0 162 -98 162q-70 0 -118 -104t-48 -300q0 -194 96 -194z" />
    <glyph glyph-name="uni2081" unicode="&#x2081;" horiz-adv-x="819" 
d="M563 -412h-198l81 660l-198 -103l-80 138l334 174h168z" />
    <glyph glyph-name="uni2082" unicode="&#x2082;" horiz-adv-x="819" 
d="M748 249q0 -95 -68 -191t-140 -158q-72 -61 -196 -156h371l-41 -156h-598l16 138q274 223 361 323q86 100 86 176q0 41 -26 65t-69 23q-90 0 -178 -90l-116 99q145 150 333 149q123 1 194 -63t71 -159z" />
    <glyph glyph-name="uni2083" unicode="&#x2083;" horiz-adv-x="819" 
d="M448 471q150 0 223 -57q73 -58 73 -136t-50 -137q-49 -59 -135 -82l-2 -8q74 -14 120 -67t46 -125q0 -119 -99 -202t-255 -83q-217 0 -322 133l127 103q78 -84 186 -84q74 0 116 38t42 103q0 106 -139 106h-78l43 144h51q68 -1 106 31t38 85q1 87 -99 87t-204 -76
l-89 110q151 117 301 117z" />
    <glyph glyph-name="uni2084" unicode="&#x2084;" horiz-adv-x="819" 
d="M737 -227h-102l-21 -185h-194l22 185h-372l16 131l322 573l161 -61l-266 -492h160l53 205h164l-25 -205h103z" />
    <glyph glyph-name="uni2085" unicode="&#x2085;" horiz-adv-x="819" 
d="M729 -84q0 -150 -97 -246t-257 -96q-201 0 -307 131l131 102q74 -80 172 -79q69 0 109 48t40 116q0 129 -102 126q-43 0 -109 -30h-145l57 469h537l-37 -146h-322l-24 -182q61 31 125 31q106 0 168 -66t61 -178z" />
    <glyph glyph-name="uni2086" unicode="&#x2086;" horiz-adv-x="819" 
d="M555 -84q0 115 -88 115t-160 -88q-2 -53 0 -90q12 -131 111 -132q61 1 99 51t38 144zM543 326q-172 0 -224 -252q91 98 201 98t175 -67t65 -181q0 -156 -98 -253t-244 -97t-232 92q-84 92 -84 254q0 248 122 400t323 151q129 0 213 -63l-96 -117q-53 35 -121 35z" />
    <glyph glyph-name="uni2087" unicode="&#x2087;" horiz-adv-x="819" 
d="M774 332l-432 -764l-174 65l383 670h-383l18 154h602z" />
    <glyph glyph-name="uni2088" unicode="&#x2088;" horiz-adv-x="819" 
d="M471 332q-117 0 -117 -101q0 -76 115 -114q102 57 102 135q-1 36 -27 58t-73 22zM406 -279q64 0 104 35q41 35 41 85t-38 80t-120 59q-119 -61 -119 -158q0 -47 34 -74t98 -27zM154 222q0 116 85 182t230 67t223 -57t78 -140t-48 -136t-132 -79q166 -70 166 -200
q0 -129 -96 -207t-259 -78q-161 0 -247 65t-86 155q0 184 211 247q-125 65 -125 181z" />
    <glyph glyph-name="uni2089" unicode="&#x2089;" horiz-adv-x="819" 
d="M414 37q86 0 149 69q6 55 6 89q0 131 -110 131q-61 0 -101 -46t-41 -130q1 -113 97 -113zM352 -104q-110 0 -175 68t-64 177q0 147 99 239q100 92 250 91q150 0 230 -79t80 -216q0 -256 -156 -403t-464 -215l-27 145q326 70 424 272l-4 5q-83 -84 -193 -84z" />
    <glyph glyph-name="uni208A" unicode="&#x208a;" horiz-adv-x="819" 
d="M555 258l-23 -184h179l-21 -156h-178l-23 -182h-176l23 182h-178l18 156h178l25 184h176z" />
    <glyph glyph-name="uni208B" unicode="&#x208b;" horiz-adv-x="819" 
d="M690 -82h-532l18 156h535z" />
    <glyph glyph-name="uni208C" unicode="&#x208c;" horiz-adv-x="819" 
d="M674 -213h-535l19 156h534zM707 49h-535l18 156h535z" />
    <glyph glyph-name="uni208D" unicode="&#x208d;" horiz-adv-x="819" 
d="M432 -176q0 -225 109 -424l-133 -78q-82 139 -125 260t-43 275q0 250 85 424t246 362l115 -82q-254 -322 -254 -737z" />
    <glyph glyph-name="uni208E" unicode="&#x208e;" horiz-adv-x="819" 
d="M428 141q0 225 -109 424l134 78q84 -143 126 -262t42 -272q0 -251 -86 -427t-246 -360l-115 80q254 322 254 739z" />
    <glyph glyph-name="Euro" unicode="&#x20ac;" horiz-adv-x="1181" 
d="M862 1403q186 0 346 -103l-116 -172q-104 78 -230 78q-244 0 -336 -284h494l-55 -150h-473q-12 -66 -17 -164h434l-55 -147h-375q25 -291 269 -291q152 0 299 102l-29 -223q-156 -80 -313 -80q-213 0 -345 131q-131 131 -149 361h-191l58 147h133q4 84 18 164h-168
l58 150h145q70 221 219 351q150 130 379 130z" />
    <glyph glyph-name="uni2116" unicode="&#x2116;" horiz-adv-x="2390" 
d="M958 270l-2 62q0 236 35 514l70 569h246l-172 -1415h-349l-335 1141h-9q8 -238 -30 -561l-72 -580h-246l172 1415h340l344 -1145h8zM2120 0h-820l25 211h819zM1860 1270q-111 0 -168 -98t-58 -267q0 -205 164 -205q109 0 167 100t58 269q1 101 -45 151t-118 50z
M1866 1444q176 0 284 -104t107 -279q0 -238 -124 -385t-343 -148q-178 0 -286 100t-107 281q0 243 128 389t341 146z" />
    <glyph glyph-name="trademark" unicode="&#x2122;" horiz-adv-x="1839" 
d="M1016 1231h-8q10 -125 8 -221l-15 -402h-186l33 807h262l156 -512h8l137 512h275l28 -807h-192l-15 400q-2 104 9 223h-9l-155 -539h-164zM512 1253v-645h-203v645h-246v162h711l-29 -162h-233z" />
    <glyph glyph-name="Omega" unicode="&#x2126;" horiz-adv-x="1439" 
d="M123 652q0 136 44 276q101 319 343 446q135 72 301 72q251 0 401 -154t150 -424q0 -229 -95 -407t-247 -248l-2 -8h225l-22 -205h-480l25 193q135 43 223 218t88 457q0 201 -68 286q-69 85 -205 85t-232 -101q-172 -181 -171 -563q-1 -141 47 -242t134 -140l-25 -193
h-479l24 205h242l2 8q-100 67 -162 185t-61 254z" />
    <glyph glyph-name="estimated" unicode="&#x212e;" horiz-adv-x="1935" 
d="M1479 764v391q-188 203 -522 203t-500 -203v-391h1022zM1776 684h-1319v-434q59 -90 209 -142t302 -52t297 50q146 51 226 146h117q-238 -276 -641 -277q-346 0 -577 205q-230 205 -230 519t235 527q236 212 570 212q335 0 573 -213t238 -541z" />
    <glyph glyph-name="onethird" unicode="&#x2153;" horiz-adv-x="1839" 
d="M1501 883q131 1 204 -57t73 -136t-49 -137t-136 -82l-2 -8q74 -13 120 -67t46 -126q0 -120 -99 -202t-255 -82q-217 0 -322 133l127 102q78 -84 187 -84q73 0 115 38t42 104q0 106 -139 106h-78l43 143h52q68 0 106 32t37 85q1 86 -99 86t-204 -76l-88 111
q150 117 319 117zM602 569h-199l82 660l-198 -103l-80 138l334 174h168zM1544 1466l-1057 -1640l-161 86l1058 1640z" />
    <glyph glyph-name="twothirds" unicode="&#x2154;" horiz-adv-x="1839" 
d="M1464 883q150 1 223 -57t73 -136t-50 -137q-49 -59 -135 -82l-2 -8q74 -13 120 -67t46 -126q1 -120 -99 -202t-256 -82q-217 0 -321 133l127 102q78 -84 186 -84q74 0 116 38t42 104q0 106 -139 106h-78l43 143h51q68 0 106 32t37 85q0 86 -100 86t-203 -76l-88 111
q151 117 301 117zM731 1230q1 -96 -67 -192t-140 -157t-196 -156h370l-41 -156h-598l17 138q274 223 360 323t86 176q0 41 -25 65q-26 24 -69 23q-90 0 -178 -90l-117 99q145 150 334 149q123 0 193 -64t71 -158zM1544 1466l-1057 -1640l-161 86l1058 1640z" />
    <glyph glyph-name="uni2155" unicode="&#x2155;" horiz-adv-x="1839" 
d="M1745 328q0 -150 -97 -246t-257 -96q-201 0 -308 131l131 102q74 -80 158 -80t124 48q40 47 40 115q0 128 -102 128q-43 0 -109 -31h-145l57 469h537l-37 -145h-322l-24 -182q61 31 125 30q106 0 168 -66t61 -177zM602 569h-199l82 660l-198 -103l-80 138l334 174h168z
M1544 1466l-1057 -1640l-161 86l1058 1640z" />
    <glyph glyph-name="uni2156" unicode="&#x2156;" horiz-adv-x="1839" 
d="M1745 328q0 -150 -97 -246t-257 -96q-201 0 -308 131l131 102q74 -80 158 -80t124 48q40 47 40 115q0 128 -102 128q-43 0 -109 -31h-145l57 469h537l-37 -145h-322l-24 -182q61 31 125 30q106 0 168 -66t61 -177zM745 1230q1 -96 -67 -192t-140 -157t-196 -156h371
l-41 -156h-598l16 138q274 223 361 323q86 100 86 176q0 41 -26 65t-69 23q-90 0 -178 -90l-117 99q145 150 334 149q123 0 194 -63q70 -64 70 -159zM1544 1466l-1057 -1640l-161 86l1058 1640z" />
    <glyph glyph-name="uni2157" unicode="&#x2157;" horiz-adv-x="1839" 
d="M473 1452q131 0 204 -57t73 -135t-50 -138q-50 -59 -135 -82l-2 -8q74 -14 120 -67t46 -125q0 -119 -99 -202t-255 -83q-217 0 -322 133l127 103q78 -84 187 -84q73 -1 115 37t42 104q0 106 -139 106h-78l43 144h51q68 0 106 32t38 84q1 86 -99 86t-204 -75l-88 110
q150 117 319 117zM1745 328q0 -150 -97 -246t-257 -96q-201 0 -308 131l131 102q74 -80 158 -80t124 48q40 47 40 115q0 128 -102 128q-43 0 -109 -31h-145l57 469h537l-37 -145h-322l-24 -182q61 31 125 30q106 0 168 -66t61 -177zM1544 1466l-1057 -1640l-161 86
l1058 1640z" />
    <glyph glyph-name="uni2158" unicode="&#x2158;" horiz-adv-x="1839" 
d="M762 752h-103l-20 -185h-195l23 185h-373l17 131l321 573l162 -61l-266 -492h159l54 205h164l-25 -205h102zM1704 328q0 -150 -97 -246t-257 -96q-201 0 -308 131l132 102q74 -80 158 -80t124 48q40 47 39 115q0 128 -102 128q-43 0 -109 -31h-145l57 469h537l-37 -145
h-322l-24 -182q61 31 125 30q105 0 167 -66t62 -177zM1544 1466l-1057 -1640l-161 86l1058 1640z" />
    <glyph glyph-name="uni2159" unicode="&#x2159;" horiz-adv-x="1839" 
d="M1540 338q0 104 -88 104t-160 -88q-2 -53 0 -90q12 -131 111 -131q61 0 99 50q38 51 38 155zM1528 737q-172 0 -223 -252q91 99 201 99t174 -67t65 -181q0 -156 -98 -253q-99 -97 -245 -97t-231 92q-84 92 -84 254q0 248 122 400t323 151q129 -1 213 -64l-96 -117
q-53 35 -121 35zM602 569h-199l82 660l-198 -103l-80 138l334 174h168zM1544 1466l-1057 -1640l-161 86l1058 1640z" />
    <glyph glyph-name="uni215A" unicode="&#x215a;" horiz-adv-x="1839" 
d="M756 897q0 -150 -98 -246t-257 -96q-201 0 -307 131l131 102q74 -80 172 -79q70 0 110 48q40 47 40 115q0 129 -103 127q-43 0 -108 -30h-146l58 469h536l-36 -146h-322l-25 -182q61 31 125 31q106 -1 168 -67t62 -177zM1528 338q0 104 -88 104t-160 -88q-2 -53 0 -90
q12 -131 111 -131q61 0 99 50q38 51 38 155zM1516 737q-172 0 -224 -252q90 99 200 99t176 -67q65 -67 65 -181q-1 -156 -99 -253t-244 -97t-231 92q-84 92 -84 254q0 248 122 400t323 151q129 -1 213 -64l-97 -117q-53 35 -120 35zM1544 1466l-1057 -1640l-161 86
l1058 1640z" />
    <glyph glyph-name="oneeighth" unicode="&#x215b;" horiz-adv-x="1839" 
d="M1485 743q-117 0 -117 -100q0 -76 115 -115q102 57 102 136q0 37 -26 58q-27 21 -74 21zM1288 233q0 -47 34 -73t98 -27q64 0 104 34q41 34 41 85t-38 81t-120 58q-119 -61 -119 -158zM1167 634q0 116 85 182q84 66 230 67t224 -57t78 -140t-48 -136t-132 -79
q166 -70 165 -209q0 -121 -96 -199q-96 -77 -258 -77t-248 64t-86 156q0 182 211 247q-125 65 -125 181zM602 569h-199l82 660l-198 -103l-80 138l334 174h168zM1544 1466l-1057 -1640l-161 86l1058 1640z" />
    <glyph glyph-name="threeeighths" unicode="&#x215c;" horiz-adv-x="1839" 
d="M473 1452q131 0 204 -57t73 -135t-50 -138q-50 -59 -135 -82l-2 -8q74 -14 120 -67t46 -125q0 -119 -99 -202t-255 -83q-217 0 -322 133l127 103q78 -84 187 -84q73 -1 115 37t42 104q0 106 -139 106h-78l43 144h51q68 0 106 32t38 84q1 86 -99 86t-204 -75l-88 110
q150 117 319 117zM1485 743q-117 0 -117 -100q0 -76 115 -115q102 57 102 136q0 37 -26 58q-27 21 -74 21zM1288 233q0 -47 34 -73t98 -27q64 0 104 34q41 34 41 85t-38 81t-120 58q-119 -61 -119 -158zM1167 634q0 116 85 182q84 66 230 67t224 -57t78 -140t-48 -136
t-132 -79q166 -70 165 -209q0 -121 -96 -199q-96 -77 -258 -77t-248 64t-86 156q0 182 211 247q-125 65 -125 181zM1544 1466l-1057 -1640l-161 86l1058 1640z" />
    <glyph glyph-name="fiveeighths" unicode="&#x215d;" horiz-adv-x="1839" 
d="M1446 743q-117 0 -117 -100q0 -76 115 -115q102 57 102 136q0 37 -26 58q-27 21 -74 21zM1249 233q0 -47 34 -73q33 -26 97 -27q64 0 105 34t41 85t-38 81t-120 58q-119 -61 -119 -158zM1128 634q0 116 85 182t231 67t223 -57q78 -58 78 -140t-48 -136t-132 -79
q166 -70 166 -200q-1 -130 -97 -208q-96 -77 -258 -77t-248 64t-86 156q0 182 211 247q-125 65 -125 181zM756 897q0 -150 -98 -246t-257 -96q-201 0 -307 131l131 102q74 -80 172 -79q70 0 110 48q40 47 40 115q0 129 -103 127q-43 0 -108 -30h-146l58 469h536l-36 -146
h-322l-25 -182q61 31 125 31q106 -1 168 -67t62 -177zM1544 1466l-1057 -1640l-161 86l1058 1640z" />
    <glyph glyph-name="seveneighths" unicode="&#x215e;" horiz-adv-x="1839" 
d="M829 1313l-432 -764l-174 65l383 670h-383l19 154h602zM1446 743q-117 0 -117 -100q0 -76 115 -115q102 57 102 136q0 37 -26 58q-27 21 -74 21zM1249 233q0 -47 34 -73q33 -26 97 -27q64 0 105 34t41 85t-38 81t-120 58q-119 -61 -119 -158zM1128 634q0 116 85 182
t231 67t223 -57q78 -58 78 -140t-48 -136t-132 -79q166 -70 166 -200q-1 -130 -97 -208q-96 -77 -258 -77t-248 64t-86 156q0 182 211 247q-125 65 -125 181zM1544 1466l-1057 -1640l-161 86l1058 1640z" />
    <glyph glyph-name="uni215F" unicode="&#x215f;" horiz-adv-x="1839" 
d="M602 569h-199l82 660l-198 -103l-80 138l334 174h168zM1544 1466l-1057 -1640l-161 86l1058 1640z" />
    <glyph glyph-name="arrowleft" unicode="&#x2190;" horiz-adv-x="1843" 
d="M1642 565h-1056l-2 -6q84 -59 221 -211l172 -188l-178 -152l-598 666l598 665l178 -151l-172 -189q-137 -152 -221 -211l2 -6h1056v-217z" />
    <glyph glyph-name="arrowup" unicode="&#x2191;" horiz-adv-x="1843" 
d="M1047 0h-250v1053l-6 2q-55 -82 -207 -224l-181 -163l-153 166l672 606l671 -606l-153 -166l-254 233q-72 66 -133 154l-6 -2v-1053z" />
    <glyph glyph-name="arrowright" unicode="&#x2192;" horiz-adv-x="1843" 
d="M201 565v217h1056l3 6q-72 49 -228 220l-166 180l178 151l598 -665l-598 -666l-178 152l236 256q96 104 158 143l-3 6h-1056z" />
    <glyph glyph-name="arrowdown" unicode="&#x2193;" horiz-adv-x="1843" 
d="M1047 1376v-1050l6 -2q51 84 200 215l187 170l153 -166l-671 -604l-672 604l153 166l254 -232q86 -82 134 -153l6 2v1050h250z" />
    <glyph glyph-name="arrowboth" unicode="&#x2194;" horiz-adv-x="2621" 
d="M2050 565h-1479l-2 -6q70 -49 222 -211l174 -188l-179 -152l-600 666l600 665l179 -151l-238 -256q-88 -98 -158 -144l2 -6h1479l2 2v4q-66 45 -223 211l-172 189l178 151l600 -665l-600 -666l-178 152l237 256q88 98 158 143v2z" />
    <glyph glyph-name="arrowupdn" unicode="&#x2195;" horiz-adv-x="1843" 
d="M1047 1423v-1466l6 -2q47 78 200 219l187 170l153 -168l-671 -604l-672 604l153 168l187 -170q158 -147 203 -219l6 2v1466l-6 2q-53 -80 -203 -219l-187 -170l-153 168l672 604l671 -604l-153 -168l-187 170q-141 127 -200 219z" />
    <glyph glyph-name="uni2196" unicode="&#x2196;" horiz-adv-x="1843" 
d="M598 694q0 -60 -4 -155l-12 -248l-240 12l45 909l909 48l17 -222l-342 -16q-25 -2 -93 -2t-126 12l-2 -6l751 -756l-168 -168l-747 752l-6 -2q18 -98 18 -158z" />
    <glyph glyph-name="uni2197" unicode="&#x2197;" horiz-adv-x="1843" 
d="M960 1020q-79 0 -116 2l-314 16l17 222l909 -48l45 -909l-239 -12l-17 291q-6 109 19 270l-7 2l-747 -752l-168 168l752 756l-2 6q-53 -12 -132 -12z" />
    <glyph glyph-name="uni2198" unicode="&#x2198;" horiz-adv-x="1843" 
d="M966 295q66 0 126 -12l2 6l-752 755l168 168l747 -753l7 2q-20 85 -20 153t5 160l13 250l239 -14l-45 -910l-909 -45l-17 221l342 17q28 2 94 2z" />
    <glyph glyph-name="uni2199" unicode="&#x2199;" horiz-adv-x="1843" 
d="M598 686l2 -65q0 -74 -20 -160l6 -2l747 753l168 -168l-751 -755l2 -6q68 12 133 12l174 -6l254 -13l-17 -221l-909 45l-45 910l240 14z" />
    <glyph glyph-name="uni21E6" unicode="&#x21e6;" horiz-adv-x="2048" 
d="M1794 477v328h-1194v227l-387 -391l387 -391v227h1194zM1884 793v-304q0 -47 -29 -75t-73 -27h-1090v-360l-610 614l610 614v-360h1090q46 1 74 -27t28 -75z" />
    <glyph glyph-name="uni21E7" unicode="&#x21e7;" horiz-adv-x="1474" 
d="M565 66h344v1120h219l-391 387l-391 -387h219v-1120zM903 -25h-332q-47 0 -75 29t-27 74v1016h-346l614 610l615 -610h-346v-1016q0 -45 -28 -74t-75 -29z" />
    <glyph glyph-name="uni21E8" unicode="&#x21e8;" horiz-adv-x="2048" 
d="M254 805v-328h1194v-227l387 391l-387 391v-227h-1194zM164 489v304q0 47 29 75t73 27h1090v360l610 -614l-610 -614v360h-1090q-46 -1 -74 27t-28 75z" />
    <glyph glyph-name="uni21E9" unicode="&#x21e9;" horiz-adv-x="1474" 
d="M909 1446h-344v-1120h-219l391 -387l391 387h-219v1120zM571 1536h332q47 0 75 -29t28 -73v-1016h346l-615 -611l-614 611h346v1016q-1 46 27 74t75 28z" />
    <glyph glyph-name="uni21EA" unicode="&#x21ea;" horiz-adv-x="1474" 
d="M909 231h-344v-165h344v165zM565 608h344v578h219l-391 387l-391 -387h219v-578zM469 317h537v-239q0 -45 -28 -74t-75 -29h-332q-47 0 -75 29t-27 74v239zM1006 522h-537v572h-346l614 610l615 -610h-346v-572z" />
    <glyph glyph-name="partialdiff" unicode="&#x2202;" horiz-adv-x="1132" 
d="M508 164q221 0 252 385q-82 143 -225 143q-93 0 -151 -80t-58 -206t51 -184t131 -58zM483 889q205 0 310 -172l6 2q-33 244 -139 346t-377 166l79 188q350 -76 514 -245q163 -170 162 -465q0 -350 -144 -545t-402 -195q-195 0 -314 113q-119 114 -119 320t123 346
t301 141z" />
    <glyph glyph-name="Delta" unicode="&#x2206;" horiz-adv-x="1193" 
d="M1137 0h-1225l620 1415h334zM678 1190h-8l-396 -983h553z" />
    <glyph glyph-name="product" unicode="&#x220f;" horiz-adv-x="1331" 
d="M997 -418l-254 -28l181 1620h-361l-174 -1592l-258 -28l180 1620h-161l24 204h1186l-25 -204h-161z" />
    <glyph glyph-name="summation" unicode="&#x2211;" horiz-adv-x="1079" 
d="M762 754l-17 -133l-411 -416h584l-25 -205h-887l25 201l495 501l-374 476l24 200h887l-27 -207h-604z" />
    <glyph glyph-name="minus" unicode="&#x2212;" horiz-adv-x="1044" 
d="M934 543h-836l27 209h836z" />
    <glyph glyph-name="uni2215" unicode="&#x2215;" horiz-adv-x="200" 
d="M643 1466l-907 -1640l-168 86l909 1640z" />
    <glyph glyph-name="uni2219" unicode="&#x2219;" horiz-adv-x="524" 
d="M268 516q-70 0 -117 48t-47 117t48 117t116 48q70 0 119 -48t49 -117t-49 -117t-119 -48z" />
    <glyph glyph-name="radical" unicode="&#x221a;" horiz-adv-x="1093" 
d="M1104 1577l-615 -1577h-296l-240 944l242 66l157 -760h8l574 1534h579l-26 -207h-383z" />
    <glyph glyph-name="infinity" unicode="&#x221e;" horiz-adv-x="1843" 
d="M563 889q-101 0 -159 -75q-58 -76 -58 -184t52 -167t132 -60q172 0 304 271q-95 215 -271 215zM1292 403q104 0 162 76q57 75 57 183t-53 167t-133 60q-168 0 -303 -271q98 -215 270 -215zM1292 199q-131 -1 -235 67t-158 180q-176 -248 -407 -247q-184 1 -295 113
t-111 278q0 225 124 364t355 140q129 0 233 -69t158 -181q176 250 410 250q184 0 293 -113t108 -279q0 -225 -123 -364t-352 -139z" />
    <glyph glyph-name="integral" unicode="&#x222b;" horiz-adv-x="782" 
d="M6 -446q-160 0 -295 75l90 168q88 -45 163 -45t110 37t45 129l178 1477q45 360 385 360q158 0 297 -80l-92 -168q-92 49 -171 49t-114 -36t-47 -127l-178 -1477q-45 -362 -371 -362z" />
    <glyph glyph-name="approxequal" unicode="&#x2248;" horiz-adv-x="1044" 
d="M653 287q-96 0 -194 59t-135 60q-78 0 -148 -107l-141 80q139 225 321 225q74 0 136 -30t111 -58q48 -28 85 -29q78 0 143 105l144 -82q-138 -223 -322 -223zM702 696q-74 0 -136 30t-109 60t-89 29q-42 0 -75 -28t-68 -80l-143 79q139 225 324 226q108 0 247 -88
q47 -30 89 -29q42 0 72 26t69 80l141 -81q-138 -224 -322 -224z" />
    <glyph glyph-name="notequal" unicode="&#x2260;" horiz-adv-x="1044" 
d="M907 332h-510l-211 -293l-131 80l152 213h-135l24 209h260l152 209h-385l27 206h507l209 291l133 -78l-153 -213h139l-27 -206h-262l-151 -209h387z" />
    <glyph glyph-name="lessequal" unicode="&#x2264;" horiz-adv-x="1044" 
d="M866 0h-835l26 207h836zM846 334l-737 328l28 243l819 338l66 -196l-684 -269l618 -250z" />
    <glyph glyph-name="greaterequal" unicode="&#x2265;" horiz-adv-x="1044" 
d="M246 1241l735 -338l-29 -244l-817 -327l-65 196l684 260l-619 259zM866 0h-835l26 207h836z" />
    <glyph glyph-name="dotmath" unicode="&#x22c5;" horiz-adv-x="524" 
d="M268 516q-70 0 -117 48t-47 117t48 117t116 48q70 0 119 -48t49 -117t-49 -117t-119 -48z" />
    <glyph glyph-name="uni2326" unicode="&#x2326;" horiz-adv-x="2867" 
d="M307 -25q-45 0 -74 29t-28 74v1280q0 47 28 75q29 28 74 27h1700l778 -739l-778 -746h-1700zM1030 727l-315 -315l137 -138l315 316l316 -316l137 138l-315 315l315 313l-137 142l-316 -318l-315 318l-137 -142z" />
    <glyph glyph-name="uni2327" unicode="&#x2327;" horiz-adv-x="2539" 
d="M2232 -25h-1925q-45 0 -74 29t-28 74v1280q0 47 28 75q29 28 74 27h1925q45 0 74 -28t29 -74v-1280q0 -45 -29 -74t-74 -29zM1133 727l-316 -315l137 -138l316 316l315 -316l137 138l-315 315l315 313l-137 142l-315 -318l-316 318l-137 -142z" />
    <glyph glyph-name="uni2328" unicode="&#x2328;" horiz-adv-x="2990" 
d="M2128 324h-1258q-16 0 -28 -12t-13 -29v-152q1 -17 13 -29t28 -12h1258q16 0 29 12q12 12 12 29v152q-1 17 -13 29t-28 12zM2210 662h-152q-16 0 -28 -12t-13 -29v-152q1 -17 13 -29t28 -12h152q16 0 28 12t13 29v152q-1 17 -13 29t-28 12zM1841 662h-151q-16 0 -28 -12
t-13 -29v-152q0 -17 12 -29t29 -12h151q16 0 29 12q12 12 12 29v152q0 17 -12 29t-29 12zM1473 662h-152q-17 0 -29 -12t-12 -29v-152q0 -17 12 -29t29 -12h152q16 0 28 12t12 29v152q0 17 -12 29t-28 12zM1104 662h-152q-16 0 -28 -12t-13 -29v-152q1 -17 13 -29t28 -12
h152q16 0 29 12q12 12 12 29v152q-1 17 -13 29t-28 12zM735 662h-151q-16 0 -28 -12t-13 -29v-152q0 -17 12 -29t29 -12h151q16 0 29 12q12 12 12 29v152q0 17 -12 29t-29 12zM2128 1010h-152q-16 0 -28 -12t-13 -29v-152q1 -17 13 -29t28 -12h152q16 0 29 12q12 12 12 29
v152q-1 17 -13 29t-28 12zM1759 1010h-151q-16 0 -28 -12t-13 -29v-152q0 -17 12 -29t29 -12h151q16 0 29 12q12 12 12 29v152q0 17 -12 29t-29 12zM1391 1010h-152q-17 0 -29 -12t-12 -29v-152q0 -17 12 -29t29 -12h152q16 0 28 12t13 29v152q0 17 -12 29t-29 12z
M1022 1010h-152q-16 0 -28 -12t-13 -29v-152q1 -17 13 -29t28 -12h152q16 0 29 12q12 12 12 29v152q-1 17 -13 29t-28 12zM653 1010h-151q-16 0 -28 -12t-13 -29v-152q0 -17 12 -29t29 -12h151q16 0 29 12q12 12 12 29v152q0 17 -12 29t-29 12zM2386 735v-266q0 -17 12 -29
t29 -12h110q16 0 29 12q12 12 12 29v500q0 16 -12 28t-29 13h-192q-17 0 -29 -12t-12 -29v-152q0 -17 12 -29t28 -12t30 -12q12 -13 12 -29zM2537 1348h-274q-17 0 -29 -12t-12 -29v-152q0 -17 12 -29t29 -12h274q16 0 29 12q12 12 12 29v152q0 17 -12 29t-29 12zM2046 1348
h-152q-16 0 -28 -12t-13 -29v-152q1 -17 13 -29t28 -12h152q16 0 29 12q12 12 12 29v152q-1 17 -13 29t-28 12zM1677 1348h-151q-16 0 -28 -12t-13 -29v-152q0 -17 12 -29t29 -12h151q16 0 29 12q12 12 12 29v152q0 17 -12 29t-29 12zM1309 1348h-152q-17 0 -29 -12t-12 -29
v-152q0 -17 12 -29t29 -12h152q16 0 28 12t13 29v152q0 17 -12 29t-29 12zM940 1348h-152q-16 0 -28 -12t-12 -29v-152q0 -17 12 -29t28 -12h152q16 0 29 12q12 12 12 29v152q-1 17 -13 29t-28 12zM571 1348h-151q-16 0 -28 -12t-13 -29v-152q0 -17 12 -29t29 -12h151
q16 0 29 12q12 12 12 29v152q0 17 -12 29t-29 12zM2642 -25h-2294q-45 0 -74 29t-28 74v1280q0 47 28 75q29 28 74 27h2294q45 0 74 -28t28 -74v-1280q0 -45 -28 -74t-74 -29z" />
    <glyph glyph-name="uni232B" unicode="&#x232b;" horiz-adv-x="2867" 
d="M2560 -25h-1700l-778 746l778 739h1700q45 0 74 -28t28 -74v-1280q0 -45 -28 -74t-74 -29zM2152 412l-315 315l315 313l-137 142l-315 -318l-316 318l-137 -142l316 -313l-316 -315l137 -138l316 316l315 -316z" />
    <glyph glyph-name="uni23CE" unicode="&#x23ce;" horiz-adv-x="2048" 
d="M1749 477v969h-344v-641h-805v227l-387 -391l387 -391v227h1149zM1313 897v537q-1 46 27 74t75 28h326q45 0 74 -29t28 -73v-945q-1 -47 -29 -75t-73 -27h-1049v-356l-610 610l610 612v-356h621z" />
    <glyph glyph-name="uni25AF" unicode="&#x25af;" horiz-adv-x="1206" 
d="M389 1223v-1035h436v1035h-436zM1014 0h-813v1411h813v-1411z" />
    <glyph glyph-name="lozenge" unicode="&#x25ca;" horiz-adv-x="1138" 
d="M358 0l-295 692l451 686h293l295 -686l-451 -692h-293zM647 1184h-8l-309 -492l184 -499h8l314 499z" />
    <glyph glyph-name="uni27A1" unicode="&#x27a1;" horiz-adv-x="2048" 
d="M164 489v304q0 47 29 75t73 27h1090v360l610 -614l-610 -614v360h-1090q-46 -1 -74 27t-28 75z" />
    <glyph glyph-name="uni2B05" unicode="&#x2b05;" horiz-adv-x="2048" 
d="M1884 793v-304q0 -47 -29 -75t-73 -27h-1090v-360l-610 614l610 614v-360h1090q46 1 74 -27t28 -75z" />
    <glyph glyph-name="uni2B06" unicode="&#x2b06;" horiz-adv-x="1474" 
d="M903 -25h-332q-47 0 -75 29t-27 74v1016h-346l614 610l615 -610h-346v-1016q0 -45 -28 -74t-75 -29z" />
    <glyph glyph-name="uni2B07" unicode="&#x2b07;" horiz-adv-x="1474" 
d="M571 1536h332q47 0 75 -29t28 -73v-1016h346l-615 -611l-614 611h346v1016q-1 46 27 74t75 28z" />
    <glyph glyph-name="uniE000" unicode="&#xe000;" horiz-adv-x="0" 
d="M1653 1004q-70 0 -158 71l37 2l108 -41l82 -6l-10 -16q-25 -10 -59 -10zM1026 1160q0 -50 6 -77h-12q-78 55 -78 129q-42 -14 -74 -49l-12 -10l-8 8q51 178 237 178l82 -10l-10 -14l-104 -53q-27 -52 -27 -102zM1233 1120v4l-55 70l2 8q94 -31 161 -102l-2 -8
q-10 -2 -82 -15v-8l56 -100l-6 -6q-86 18 -152 18l-162 -12l-12 6q66 57 176 78v6l-63 35l2 8q94 18 137 18zM2349 664q-1 100 -31 100q-14 0 -14 -22t4 -64h-12q-64 74 -64 101t30 59t30 49q-6 9 -38 28t-60 28q-27 9 -50 17t-38 15q-15 6 -43 15q-205 66 -347 186l-8 -2
l90 -109l-4 -10q-137 0 -215 37t-78 91t90 77l4 8q-3 4 -39 4t-75 -22t-39 -70t41 -97h-25q-30 16 -52 47t-30 54l-6 22l-158 27l5 10q297 117 391 117q51 0 78 -17h10q-35 59 -92 60q-92 0 -340 -88l-13 2q6 39 47 72l-2 8q-129 47 -227 47q-185 0 -308 -121
q-100 -98 -130 -156l4 -6q66 18 117 25l2 -10q-127 -92 -127 -267q0 -57 14 -102l-8 -8q-31 23 -62 108h-4q-8 -29 -14 -80l-10 -2l-21 33q-8 -4 -8 -43q0 -98 57 -194q11 -16 63 -84t52 -102t-28 -81t-27 -75l6 -31q100 2 141 8l8 -8q-25 -37 -239 -137l12 -11l176 39
l6 -10l-131 -78q115 -96 274 -149t267 -54v5q-45 49 -86 135l8 8l125 -82q18 31 31 57q-41 31 -86 86t-56 90l9 7q31 -25 90 -55t84 -29q14 41 14 88l35 53q0 2 -1 2h-11q-11 0 -53 -19t-66 -40l-12 2q0 80 133 157v11l-80 32q-23 12 -76 89t-53 137l20 -7
q127 -147 299 -169q35 2 160 32t143 37q50 -27 150 -63t135 -43q40 5 96 41q-37 29 -77 39q-142 35 -244 73q-168 59 -215 140h-6q-2 -6 -2 -16q0 -46 49 -85q4 -4 17 -15t15 -14l-2 -8q-78 7 -123 27q-147 65 -147 217q0 72 29 164h10l10 -113l39 -65q37 49 37 90t-37 78
l-108 122l6 7l102 -43q154 -127 330 -241t284 -142t222 -39l39 -4q18 41 18 82zM1589 1491q113 0 167 -71t54 -134l-6 -47q61 -70 185 -123q57 -26 145 -58t134 -49t88 -45t51 -57t11 -81q3 -52 6 -76t10 -60t7 -54t-48 -126t-73 -117q-12 -6 -43 -6t-43 6q-41 -33 -101 -67
q-59 -34 -109 -35t-163 31t-151 32q-62 0 -141 -42t-123 -76q-45 -34 -75 -134q-9 -34 -25 -122t-41 -125q20 -49 20 -78q-57 -8 -129 -8q-378 0 -660 247q-73 63 -106 105l-33 41l107 57q-49 2 -70 4l-4 15q20 27 105 81q-70 -23 -160 -67l-8 16q23 80 82 148l-154 -107
l-8 15q41 123 153 227l-239 -123l-6 16q57 131 196 256q0 7 -248 -114l-6 16q43 74 118 142t124 94q-268 -100 -287 -107l-6 14q90 117 352 310l-301 -76l-2 16q270 270 573 451q182 110 357 108q59 0 201 -46t153 -46q96 29 170 29z" />
    <glyph glyph-name="uniE001" unicode="&#xe001;" horiz-adv-x="0" 
d="M1722 1030l-82 6l-108 41l-37 -2q88 -72 158 -71q35 0 59 10zM1026 1160q0 50 27 102l104 53l10 14q-33 10 -82 10q-186 0 -237 -178l8 -8q43 45 86 59q0 -74 78 -129h12q-6 27 -6 77zM993 969q72 12 142 12t147 -14l25 -4l6 6l-56 100v8q72 12 82 15l2 8q-67 71 -137 92
l-24 10l-2 -8l55 -70v-4l-137 -18l-2 -8l63 -35v-6q-110 -21 -176 -78zM2304 742q0 22 14 22t22 -30t9 -64q0 -34 -18 -88q-143 14 -256 43t-289 143t-330 240l-102 43l-6 -7l108 -122q37 -37 37 -78t-37 -90l-39 65l-10 113h-10q-29 -92 -29 -140t4 -68q18 -95 116 -159
l44 -22q59 -14 106 -19l2 8q-4 2 -13 12t-14 13q-54 43 -54 90q0 8 2 15h6q63 -107 356 -186q63 -17 102 -25t78 -41q-57 -37 -96 -41q-35 6 -135 43t-150 63q-18 -8 -143 -38t-160 -31q-172 23 -299 169l-20 7q0 -58 53 -136t76 -90l80 -32v-11q-133 -78 -133 -157l12 -2
q24 20 66 40t52 19h12q1 0 1 -2l-35 -53q0 -47 -14 -88q-25 0 -84 30t-90 54l-9 -7q9 -35 55 -90t87 -86l-31 -57q-86 53 -125 82l-8 -8q41 -86 86 -135v-5q-109 0 -267 54t-274 149l131 78l-6 10l-176 -39l-12 11q215 100 239 137l-8 8l-141 -8q-6 4 -6 32q-1 28 27 74
t28 83q0 36 -86 144q-86 109 -86 234q0 12 4 41l4 2l21 -33l10 2q6 51 14 80h4q31 -86 62 -108l8 8q-14 45 -14 102q0 174 127 267l-2 10q-53 -6 -117 -25l-4 6q30 58 130 156q123 121 309 121q98 0 226 -47l2 -8q-41 -33 -47 -72l13 -2q248 88 340 88q57 0 92 -60h-10
q-27 16 -78 17q-94 0 -391 -117l-5 -10l158 -27q23 -84 88 -123h25q-41 47 -41 97t39 70q39 22 75 22t39 -4l-4 -8q-90 -23 -90 -77t78 -91t215 -37l4 10l-90 109l8 2q133 -114 347 -186q28 -10 43 -15q15 -6 38 -14q122 -42 148 -74q0 -18 -30 -49t-30 -59t64 -101h12
q-4 42 -4 64z" />
    <glyph glyph-name="uniE002" unicode="&#xe002;" horiz-adv-x="0" 
d="M1669 1106q-10 0 -31 4q27 10 27 39v12q23 -20 43 -51q-29 -4 -39 -4zM1931 588q0 6 8 14q23 -4 39 -16l-45 -49q-2 45 -2 51zM1577 1149q0 -6 4 -14q-31 25 -35 63q39 0 62 -6q-31 -12 -31 -43zM1860 633q39 0 45 -21l-50 -47q1 52 5 68zM2177 519q0 17 12 18
q25 0 41 -9q0 -8 -18 -27t-29 -24q-6 25 -6 42zM2011 575l53 -10q-31 -49 -55 -55q2 57 2 65zM2093 555q31 -4 57 -10q-8 -29 -49 -62zM2294 524q14 0 14 -16t-31 -49l-10 -13l-6 78h33zM1769 638q0 20 13 34q33 0 51 -25l-61 -45q-3 16 -3 36z" />
    <glyph glyph-name="uniE003" unicode="&#xe003;" horiz-adv-x="2527" 
d="M1665 1149q0 -29 -27 -39q20 -4 30 -4t40 4q-20 31 -43 51v-12zM1931 586l2 -49q33 33 45 49q-16 12 -39 16q-8 -8 -8 -16zM1577 1149q0 31 31 43q-23 6 -62 6q4 -39 35 -63q-4 8 -4 14zM1860 633l-5 -68q39 37 50 47q-6 21 -45 21zM2177 519q0 -17 6 -42q11 3 29 23
t18 28q-16 8 -41 9q-12 -1 -12 -18zM2011 575l-2 -65q21 4 55 55q-26 6 -53 10zM2093 555q4 -49 8 -72q41 33 49 62zM2308 510q0 14 -14 14h-33l6 -78q41 50 41 64zM1769 631l3 -29l61 45q-18 25 -51 25q-13 -14 -13 -41zM1653 1004q-70 0 -158 71l37 2l108 -41l82 -6
l-10 -16q-25 -10 -59 -10zM1026 1160q0 -50 6 -77h-12q-78 55 -78 129q-42 -14 -74 -49l-12 -10l-8 8q51 178 237 178l82 -10l-10 -14l-104 -53q-27 -52 -27 -102zM1233 1120v4l-55 70l2 8q94 -31 161 -102l-2 -8q-10 -2 -82 -15v-8l56 -100l-6 -6q-86 18 -152 18l-162 -12
l-12 6q66 57 176 78v6l-63 35l2 8q94 18 137 18zM2349 664q-1 100 -31 100q-14 0 -14 -22t4 -64h-12q-64 74 -64 101t30 59t30 49q-6 9 -38 28t-60 28q-27 9 -50 17t-38 15q-15 6 -43 15q-205 66 -347 186l-8 -2l90 -109l-4 -10q-137 0 -215 37t-78 91t90 77l4 8q-3 4 -39 4
t-75 -22t-39 -70t41 -97h-25q-30 16 -52 47t-30 54l-6 22l-158 27l5 10q297 117 391 117q51 0 78 -17h10q-35 59 -92 60q-92 0 -340 -88l-13 2q6 39 47 72l-2 8q-129 47 -227 47q-185 0 -308 -121q-100 -98 -130 -156l4 -6q66 18 117 25l2 -10q-127 -92 -127 -267
q0 -57 14 -102l-8 -8q-31 23 -62 108h-4q-8 -29 -14 -80l-10 -2l-21 33q-8 -4 -8 -43q0 -98 57 -194q11 -16 63 -84t52 -102t-28 -81t-27 -75l6 -31q100 2 141 8l8 -8q-25 -37 -239 -137l12 -11l176 39l6 -10l-131 -78q115 -96 274 -149t267 -54v5q-45 49 -86 135l8 8
l125 -82q18 31 31 57q-41 31 -86 86t-56 90l9 7q31 -25 90 -55t84 -29q14 41 14 88l35 53q0 2 -1 2h-11q-11 0 -53 -19t-66 -40l-12 2q0 80 133 157v11l-80 32q-23 12 -76 89t-53 137l20 -7q127 -147 299 -169q35 2 160 32t143 37q50 -27 150 -63t135 -43q40 5 96 41
q-37 29 -77 39q-142 35 -244 73q-168 59 -215 140h-6q-2 -6 -2 -16q0 -46 49 -85q4 -4 17 -15t15 -14l-2 -8q-78 7 -123 27q-147 65 -147 217q0 72 29 164h10l10 -113l39 -65q37 49 37 90t-37 78l-108 122l6 7l102 -43q154 -127 330 -241t284 -142t222 -39l39 -4
q18 41 18 82zM1589 1491q113 0 167 -71t54 -134l-6 -47q61 -70 185 -123q57 -26 145 -58t134 -49t88 -45t51 -57t11 -81q3 -52 6 -76t10 -60t7 -54t-48 -126t-73 -117q-12 -6 -43 -6t-43 6q-41 -33 -101 -67q-59 -34 -109 -35t-163 31t-151 32q-62 0 -141 -42t-123 -76
q-45 -34 -75 -134q-9 -34 -25 -122t-41 -125q20 -49 20 -78q-57 -8 -129 -8q-378 0 -660 247q-73 63 -106 105l-33 41l107 57q-49 2 -70 4l-4 15q20 27 105 81q-70 -23 -160 -67l-8 16q23 80 82 148l-154 -107l-8 15q41 123 153 227l-239 -123l-6 16q57 131 196 256
q0 7 -248 -114l-6 16q43 74 118 142t124 94q-268 -100 -287 -107l-6 14q90 117 352 310l-301 -76l-2 16q270 270 573 451q182 110 357 108q59 0 201 -46t153 -46q96 29 170 29z" />
    <glyph glyph-name="fi" unicode="&#xfb01;" horiz-adv-x="1196" 
d="M694 1546q192 0 353 -88l-95 -172q-117 62 -221 62t-146 -37t-55 -127l-14 -101h604l-153 -1083h-260l124 895h-342l-112 -795q-35 -233 -139 -353t-316 -191l-69 190q125 48 182 120t80 226l112 803h-170l29 188h168l14 107q25 184 129 270q105 86 297 86z" />
    <glyph glyph-name="fl" unicode="&#xfb02;" horiz-adv-x="1241" 
d="M717 1350q-92 0 -133 -36t-54 -130l-14 -101h225l-55 -188h-197l-112 -795q-35 -233 -139 -353t-316 -191l-69 190q125 49 182 121t80 225l112 803h-170l29 188h168l14 107q25 184 129 270t299 86q119 0 256 -41l246 31l-178 -1262q-14 -94 49 -94q31 0 61 10l31 -182
q-88 -39 -182 -39q-223 0 -223 232q0 39 6 88l143 1024q-96 37 -188 37z" />
    <glyph glyph-name="uniFEFF" unicode="&#xfeff;" horiz-adv-x="0" 
 />
    <glyph glyph-name="u1F310" unicode="&#x1f310;" horiz-adv-x="2457" 
d="M1884 1329q-182 207 -448 273q156 -168 239 -373q117 39 209 100zM571 168q184 -207 451 -270q-152 162 -240 372q-129 -47 -211 -102zM1436 -102q266 66 448 270q-80 55 -209 102q-83 -204 -239 -372zM1022 1602q-268 -66 -451 -273q96 -61 211 -100q88 211 240 373z
M1149 -123q16 0 27 -2v471q-156 -6 -306 -49q97 -225 279 -420zM1176 1624q-10 -2 -27 -2q-184 -197 -279 -422q164 -43 306 -49v473zM1278 -125q10 2 31 2q186 203 276 420q-150 43 -307 49v-471zM1309 1622q-20 0 -31 2v-473q143 6 307 49q-88 217 -276 422zM1176 702
h-394q7 -163 58 -325q174 49 336 55v270zM1176 797v268q-174 10 -336 55q-51 -158 -58 -323h394zM1278 702v-270q172 -6 338 -55q51 152 57 325h-395zM1278 797h395q-6 176 -57 323q-178 -49 -338 -55v-268zM1939 238q147 207 162 464h-334q-6 -182 -63 -352
q137 -49 235 -112zM356 702q12 -256 160 -464q100 63 236 112q-57 180 -64 352h-332zM2101 797q-16 260 -162 463q-102 -63 -235 -111q57 -170 63 -352h334zM516 1260q-147 -205 -160 -463h332q6 172 64 352q-132 48 -236 111zM2200 750q0 -404 -284 -690t-687 -286
t-687 286t-284 690t284 689t687 285t687 -286t284 -688z" />
    <glyph glyph-name="i.latn_TRK" horiz-adv-x="555" 
d="M563 1470q0 -68 -46 -114t-119 -45q-72 0 -118 46q-46 45 -46 113t46 113t118 45t119 -45q46 -45 46 -113zM326 0h-263l152 1083h262z" />
    <glyph glyph-name="Ldot.latn_CAT" horiz-adv-x="1026" 
d="M810 598q-73 0 -119 46t-46 114t46 112t119 45q73 0 119 -45q46 -44 46 -112t-46 -114t-119 -46zM901 0h-807l172 1415h273l-148 -1194h565z" />
    <glyph glyph-name="ldot.latn_CAT" horiz-adv-x="782" 
d="M846 745q0 -67 -46 -113t-119 -46t-119 46t-46 114t46 112q46 45 119 45t119 -45t46 -113zM307 -31q-101 1 -162 61t-61 179q0 31 6 72l174 1237l268 28l-182 -1280q-6 -47 6 -65t46 -18t57 10l39 -185q-90 -39 -191 -39z" />
    <glyph glyph-name="parenleft.numr" horiz-adv-x="819" 
d="M455 805q0 -225 108 -424l-133 -78q-82 139 -125 260t-43 275q0 250 85 424t247 362l115 -82q-254 -322 -254 -737z" />
    <glyph glyph-name="parenright.numr" horiz-adv-x="819" 
d="M453 1122q0 225 -109 424l133 78q84 -143 126 -262t42 -272q0 -252 -86 -428t-246 -359l-114 80q254 322 254 739z" />
    <glyph glyph-name="plus.numr" horiz-adv-x="819" 
d="M578 1239l-23 -184h178l-20 -156h-178l-23 -182h-176l22 182h-178l19 156h178l24 184h177z" />
    <glyph glyph-name="zero.numr" horiz-adv-x="819" 
d="M797 1116q-1 -258 -99 -410t-280 -151q-141 0 -218 85t-77 251q0 273 102 417t281 144q139 0 215 -84t76 -252zM426 705q51 0 88 49q36 49 58 161t22 226q0 162 -98 162q-70 -1 -118 -105t-48 -298t96 -195z" />
    <glyph glyph-name="one.numr" horiz-adv-x="821" 
d="M588 569h-199l82 660l-199 -103l-79 138l333 174h168z" />
    <glyph glyph-name="two.numr" horiz-adv-x="819" 
d="M772 1230q0 -96 -68 -192t-139 -157q-72 -61 -196 -156h370l-41 -156h-598l17 138q274 223 360 323t86 176q0 41 -25 65q-26 24 -69 23q-90 0 -178 -90l-117 99q145 150 334 149q124 0 194 -64t70 -158z" />
    <glyph glyph-name="three.numr" horiz-adv-x="819" 
d="M471 1452q149 0 222 -57t73 -135t-49 -138q-49 -59 -135 -82l-2 -8q74 -14 120 -67t45 -125q0 -119 -99 -202t-255 -83q-217 0 -321 133l127 103q78 -84 186 -84q74 -1 116 37t42 104q0 106 -140 106h-77l43 144h51q68 0 106 32t37 84q1 86 -99 86t-204 -75l-88 110
q152 117 301 117z" />
    <glyph glyph-name="four.numr" horiz-adv-x="819" 
d="M762 752h-103l-20 -185h-195l23 185h-373l17 131l321 573l162 -61l-266 -492h159l54 205h164l-25 -205h102z" />
    <glyph glyph-name="five.numr" horiz-adv-x="819" 
d="M752 897q0 -150 -98 -246t-257 -96q-201 0 -307 131l131 102q74 -80 172 -79q70 0 110 48q40 47 40 115q0 129 -103 127q-43 0 -108 -30h-146l58 469h536l-37 -146h-321l-25 -182q61 31 125 31q106 -1 168 -67t62 -177z" />
    <glyph glyph-name="six.numr" horiz-adv-x="819" 
d="M489 1012q-88 0 -159 -88q-2 -53 0 -90q12 -131 110 -132q62 0 100 50t38 156q0 104 -89 104zM565 1307q-172 0 -223 -252q90 98 200 98t176 -67q65 -67 64 -181q0 -156 -98 -253t-244 -97t-231 92q-84 92 -84 254q0 247 122 399t322 152q129 0 213 -63l-96 -117
q-53 35 -121 35z" />
    <glyph glyph-name="seven.numr" horiz-adv-x="819" 
d="M797 1313l-432 -764l-175 65l383 670h-383l19 154h602z" />
    <glyph glyph-name="eight.numr" horiz-adv-x="819" 
d="M496 1313q-117 0 -117 -101q0 -76 115 -114q102 57 102 135q0 37 -26 59t-74 21zM430 702q64 0 105 34t41 85t-38 81t-120 59q-119 -61 -119 -158q0 -47 34 -74q33 -27 97 -27zM178 1204q0 116 85 182t231 66t223 -58q78 -58 78 -139q-1 -82 -49 -136t-132 -79
q166 -70 166 -200t-96 -208t-258 -77q-162 0 -248 65q-86 66 -86 156q0 184 211 246q-125 66 -125 182z" />
    <glyph glyph-name="nine.numr" horiz-adv-x="819" 
d="M438 1018q86 0 150 69q6 55 6 89q0 131 -111 131q-61 0 -101 -46t-40 -131q0 -112 96 -112zM377 877q-110 -1 -175 67t-65 178q-1 146 99 238t250 92t231 -79q80 -79 80 -216q0 -256 -156 -403t-465 -215l-26 145q326 70 423 272l-4 5q-82 -84 -192 -84z" />
    <glyph glyph-name="equal.numr" horiz-adv-x="819" 
d="M694 768h-534l18 156h535zM727 1030h-534l18 156h534z" />
    <glyph glyph-name="minus.numr" horiz-adv-x="819" 
d="M713 897h-533l19 156h534z" />
    <glyph glyph-name="parenleft.dnom" horiz-adv-x="819" 
d="M432 236q0 -225 109 -424l-133 -78q-82 139 -125 260t-43 274q0 250 85 424t246 363l115 -82q-254 -322 -254 -737z" />
    <glyph glyph-name="parenright.dnom" horiz-adv-x="819" 
d="M428 553q0 225 -109 424l134 78q84 -143 126 -262t42 -273q0 -252 -86 -427t-246 -359l-115 80q254 322 254 739z" />
    <glyph glyph-name="plus.dnom" horiz-adv-x="819" 
d="M555 670l-23 -185h179l-21 -155h-178l-23 -183h-176l23 183h-178l18 155h178l25 185h176z" />
    <glyph glyph-name="zero.dnom" horiz-adv-x="819" 
d="M727 547q0 -258 -98 -410t-281 -151q-141 0 -218 85t-77 251q1 272 103 416t280 145q139 0 215 -84t76 -252zM356 135q132 0 162 317q6 62 6 119q0 162 -98 162q-70 0 -118 -104t-48 -299t96 -195z" />
    <glyph glyph-name="one.dnom" horiz-adv-x="821" 
d="M518 0h-199l82 659l-198 -102l-80 137l334 174h168z" />
    <glyph glyph-name="two.dnom" horiz-adv-x="819" 
d="M438 883q124 0 194 -64t70 -159t-68 -191t-138 -158q-72 -61 -197 -155h371l-41 -156h-598l16 137q275 223 361 323t86 177q0 41 -26 65t-69 23q-90 0 -178 -90l-117 98q145 150 334 150z" />
    </font>
</defs>
</svg>
