<?xml version="1.0" standalone="no"?>
<!DOCTYPE svg PUBLIC "-//W3C//DTD SVG 1.1//EN" "http://www.w3.org/Graphics/SVG/1.1/DTD/svg11.dtd" >
<svg xmlns="http://www.w3.org/2000/svg">
<metadata>
Created by FontPrep 20130207 at Sat Mar 22 03:58:21 2014
 By Todd Ladner
Digitized data copyright (c) 2012-2013, The Mozilla Foundation and Telefonica S.A.
</metadata>
<defs>
<font id="8d8e0921b6d07ad9c7e7f17ba0bd3726" horiz-adv-x='1024' >
  <font-face 
    font-family="FiraSansOTLight-Italic"
    font-weight="300"
    font-style="italic"
    font-stretch="normal"
    units-per-em="2048"
    panose-1="2 11 6 3 5 0 0 2 0 4"
    ascent="1638"
    descent="-410"
    x-height="1071"
    cap-height="1403"
    bbox="-1233 -1024 2785 2150"
    underline-thickness="102"
    underline-position="-102"
    slope="-8"
    unicode-range="U+000D-1F310"
  />
<missing-glyph horiz-adv-x="1363" 
d="M645 98q-31 0 -51 22t-21 53q1 32 21 52q20 21 51 21t51 -20t20 -53q0 -31 -20 -53t-51 -22zM696 354q0 -23 -15 -36t-35 -13t-37 13q-15 13 -15 36v172q110 6 148 40t38 110t-26 112t-92 37q-66 0 -98 -14t-42 -14q-49 0 -49 47q1 39 61 59t130 21q227 0 227 -236
q0 -213 -195 -242v-92zM365 -918h636v2962h-636v-2962zM252 -1024v3174h860v-3174h-860z" />
    <glyph glyph-name="f_i" unicode="fi" horiz-adv-x="1159" 
d="M670 1522q154 0 301 -72l-47 -90q-118 61 -238 61t-170 -46t-65 -158l-21 -146h580l-150 -1071h-117l136 975h-463l-127 -916q-29 -207 -101 -299t-260 -178l-34 94q145 68 200 146t78 235l127 918h-199l15 96h198l23 152q24 155 102 227t232 72z" />
    <glyph glyph-name="f_l" unicode="fl" horiz-adv-x="1161" 
d="M664 1522q146 0 278 -52l121 21l-186 -1311q-8 -57 8 -80q29 -42 135 -8l24 -84q-57 -31 -133 -31q-180 0 -149 211l166 1180q-124 53 -242 53t-170 -46t-65 -158l-21 -146h283l-29 -96h-268l-127 -916q-29 -207 -101 -299t-260 -178l-34 94q145 68 200 146t78 235
l127 918h-199l15 96h198l23 152q22 159 102 229t226 70z" />
    <glyph glyph-name=".notdef" horiz-adv-x="1363" 
d="M645 98q-31 0 -51 22t-21 53q1 32 21 52q20 21 51 21t51 -20t20 -53q0 -31 -20 -53t-51 -22zM696 354q0 -23 -15 -36t-35 -13t-37 13q-15 13 -15 36v172q110 6 148 40t38 110t-26 112t-92 37q-66 0 -98 -14t-42 -14q-49 0 -49 47q1 39 61 59t130 21q227 0 227 -236
q0 -213 -195 -242v-92zM365 -918h636v2962h-636v-2962zM252 -1024v3174h860v-3174h-860z" />
    <glyph glyph-name=".null" horiz-adv-x="0" 
 />
    <glyph glyph-name="nonmarkingreturn" horiz-adv-x="681" 
 />
    <glyph glyph-name="CR" unicode="&#xd;" horiz-adv-x="573" 
 />
    <glyph glyph-name="space" unicode=" " horiz-adv-x="573" 
 />
    <glyph glyph-name="exclam" unicode="!" horiz-adv-x="573" 
d="M125 74q0 40 28 68q27 28 71 28t71 -27t27 -69t-27 -70q-27 -27 -71 -27t-72 28t-27 69zM313 420l-118 -21l124 1004h117z" />
    <glyph glyph-name="quotedbl" unicode="&#x22;" horiz-adv-x="829" 
d="M365 889h-80l20 514h123zM662 889h-80l20 514h123z" />
    <glyph glyph-name="numbersign" unicode="#" horiz-adv-x="1024" 
d="M410 915l-115 -448h344l115 448h-344zM1038 915h-176l-114 -448h167l-10 -94h-180l-94 -373h-109l94 373h-344l-94 -373h-108l94 373h-166l10 94h178l115 448h-170l12 95h183l90 352h108l-90 -352h344l90 352h109l-90 -352h164z" />
    <glyph glyph-name="dollar" unicode="$" horiz-adv-x="1024" 
d="M608 1284q-147 0 -231 -62t-84 -160t61 -154q60 -58 244 -130t267 -166t83 -223q0 -178 -128 -294t-324 -118l-35 -284h-101l37 291q-236 29 -374 172l81 84q74 -70 178 -114t207 -44q154 0 243 83t89 218q0 98 -66 167q-67 68 -247 138t-262 155q-80 85 -80 217t107 223
q108 91 298 99l39 310h99l-39 -312q209 -20 344 -139l-72 -84q-139 127 -334 127z" />
    <glyph glyph-name="percent" unicode="%" horiz-adv-x="1740" 
d="M907 288q0 152 96 254q97 102 235 101q138 0 214 -75q76 -76 76 -230t-96 -257t-236 -103t-214 78q-75 80 -75 232zM1411 352q0 201 -175 201q-88 0 -150 -74q-62 -75 -62 -191q0 -220 164 -220q98 0 161 74q62 75 62 210zM566 1384q138 0 214 -74t76 -230
q0 -154 -96 -258t-236 -103q-140 0 -214 79q-75 79 -74 212q0 172 96 273t234 101zM739 1094q0 200 -175 200q-87 0 -149 -74q-63 -74 -63 -190t44 -168t131 -53q87 0 150 75q62 75 62 210zM1493 1382l-1122 -1429l-88 57l1122 1430z" />
    <glyph glyph-name="ampersand" unicode="&#x26;" horiz-adv-x="1738" 
d="M700 1163q-158 1 -284 -157t-150 -400q307 12 465 126t158 263q-1 168 -189 168zM684 -23q-274 1 -408 135t-135 392q0 334 168 547t400 213q139 0 222 -71t83 -198q0 -186 -188 -320t-564 -151q0 -236 104 -341t321 -105q218 0 425 168t336 579h-240l13 103h559
l-13 -103h-204q-127 -426 -366 -637t-513 -211z" />
    <glyph glyph-name="quotesingle" unicode="'" horiz-adv-x="532" 
d="M365 889h-80l20 514h123z" />
    <glyph glyph-name="parenleft" unicode="(" horiz-adv-x="665" 
d="M113 514q0 653 481 1174l68 -50q-428 -498 -429 -1124q0 -375 201 -719l-80 -49q-117 184 -179 362t-62 406z" />
    <glyph glyph-name="parenright" unicode=")" horiz-adv-x="665" 
d="M582 920q0 -653 -482 -1174l-67 49q428 498 428 1125q0 375 -201 718l80 50q118 -184 180 -362t62 -406z" />
    <glyph glyph-name="asterisk" unicode="*" horiz-adv-x="901" 
d="M592 1507l-17 -321l299 114l35 -108l-309 -84l203 -250l-92 -65l-176 266l-177 -266l-92 65l201 250l-307 84l35 108l299 -114l-17 321h115z" />
    <glyph glyph-name="plus" unicode="+" horiz-adv-x="1024" 
d="M621 1006l-39 -316h311l-12 -104h-312l-39 -316h-114l39 316h-312l13 104h311l39 316h115z" />
    <glyph glyph-name="comma" unicode="," horiz-adv-x="573" 
d="M111 64q1 50 29 78t72 28t71 -25q59 -54 -19 -182l-166 -272h-84l140 299q-43 25 -43 74z" />
    <glyph glyph-name="hyphen" unicode="-" horiz-adv-x="798" 
d="M664 586h-529l15 106h528z" />
    <glyph glyph-name="period" unicode="." horiz-adv-x="573" 
d="M117 74q-1 40 27 68t72 28t71 -27t27 -69t-28 -70q-26 -27 -70 -27t-72 28q-27 28 -27 69z" />
    <glyph glyph-name="slash" unicode="/" horiz-adv-x="1064" 
d="M90 -145l791 1792l94 -33l-795 -1794z" />
    <glyph glyph-name="zero" unicode="0" horiz-adv-x="1118" 
d="M483 -23q-362 0 -362 502q0 92 12 203q88 702 518 702q181 0 275 -128t94 -375q0 -76 -14 -201q-40 -346 -174 -524t-349 -179zM496 80q162 0 255 143t132 457q16 135 16 223q0 195 -63 287t-193 92q-162 0 -255 -143t-132 -457q-16 -135 -16 -223q0 -195 64 -287
t192 -92z" />
    <glyph glyph-name="one" unicode="1" horiz-adv-x="733" 
d="M446 0h-114l149 1231l-338 -207l-51 92l422 246h98z" />
    <glyph glyph-name="two" unicode="2" horiz-adv-x="952" 
d="M770 1083q0 99 -55 149t-158 50q-174 0 -362 -172l-78 70q223 205 450 204q152 0 241 -78t89 -214q0 -199 -159 -403t-580 -583h643l-29 -106h-780l12 102q462 420 614 610t152 371z" />
    <glyph glyph-name="three" unicode="3" horiz-adv-x="985" 
d="M449 764q153 0 241 88t88 225q0 99 -57 153t-162 54q-162 0 -336 -127l-57 78q197 150 401 149q154 0 244 -82t90 -213t-79 -225t-199 -137l-2 -6q113 -31 177 -117t64 -196q0 -193 -122 -312t-326 -119q-119 -1 -229 49t-181 136l90 69q127 -152 324 -151q145 0 231 87
t86 236q0 264 -297 265h-63l24 96h50z" />
    <glyph glyph-name="four" unicode="4" horiz-adv-x="1028" 
d="M723 0h-117l43 354h-586l11 95l524 935l96 -43l-489 -882h457l63 397h102l-49 -397h183l-13 -105h-182z" />
    <glyph glyph-name="five" unicode="5" horiz-adv-x="1030" 
d="M580 864q128 0 226 -94t97 -260q0 -246 -125 -389t-336 -144q-252 0 -407 168l88 72q137 -139 326 -139q147 0 239 112t92 316q0 128 -68 196t-180 68t-241 -61h-92l80 653h684l-29 -102h-555l-55 -455q128 59 256 59z" />
    <glyph glyph-name="six" unicode="6" horiz-adv-x="1062" 
d="M594 788q-90 0 -184 -61t-174 -168q-4 -41 -5 -127q0 -182 70 -268q71 -86 197 -86t222 119q95 119 95 331q0 260 -221 260zM690 1284q-154 0 -280 -160t-164 -456q80 106 182 162t199 57q137 0 225 -89t88 -259q0 -254 -130 -408t-314 -154t-284 119q-99 119 -99 355
q0 438 167 686t418 247q152 0 269 -84l-62 -86q-96 70 -215 70z" />
    <glyph glyph-name="seven" unicode="7" horiz-adv-x="833" 
d="M193 -23l-113 35l653 1245h-631l13 105h762l-13 -96z" />
    <glyph glyph-name="eight" unicode="8" horiz-adv-x="1128" 
d="M893 1087q1 89 -67 145t-196 56t-206 -70t-78 -176t65 -168t230 -122q252 127 252 335zM514 80q148 0 249 85t101 220q0 94 -71 162q-72 68 -279 147q-307 -117 -307 -377q0 -111 80 -174q79 -63 227 -63zM1012 1096q0 -238 -285 -381q262 -119 262 -326
q0 -182 -136 -297t-342 -115q-207 -1 -319 95t-112 240t90 253t260 172q-203 100 -203 291q0 156 116 256t288 100q173 0 277 -80t104 -208z" />
    <glyph glyph-name="nine" unicode="9" horiz-adv-x="1062" 
d="M506 614q188 0 342 211q8 66 8 136q0 322 -256 321q-146 0 -238 -103t-92 -296q0 -131 62 -200t174 -69zM471 514q-139 0 -230 101t-91 270q0 231 130 365t311 134t285 -109q103 -110 103 -314q0 -417 -201 -647t-614 -347l-19 94q307 88 479 240q171 152 214 410l-4 2
q-141 -199 -363 -199z" />
    <glyph glyph-name="colon" unicode=":" horiz-adv-x="573" 
d="M117 74q-1 40 27 68t72 28t71 -27t27 -69t-28 -70q-26 -27 -70 -27t-72 28q-27 28 -27 69zM227 872q0 41 28 69t72 28q45 0 71 -27t26 -70q0 -44 -27 -70t-71 -26t-71 28q-28 28 -28 68z" />
    <glyph glyph-name="semicolon" unicode=";" horiz-adv-x="573" 
d="M111 64q1 50 29 78t72 28t71 -25q59 -54 -19 -182l-166 -272h-84l140 299q-43 25 -43 74zM227 872q0 41 28 69t72 28q45 0 71 -27t26 -70q0 -44 -27 -70t-71 -26t-71 28q-28 28 -28 68z" />
    <glyph glyph-name="less" unicode="&#x3c;" horiz-adv-x="1024" 
d="M817 293l-670 338l13 102l753 338l35 -98l-674 -297l600 -291z" />
    <glyph glyph-name="equal" unicode="=" horiz-adv-x="1024" 
d="M858 406h-737l12 106h737zM901 762h-737l14 106h737z" />
    <glyph glyph-name="greater" unicode="&#x3e;" horiz-adv-x="1024" 
d="M227 1071l670 -338l-12 -102l-754 -338l-35 98l674 297l-600 291z" />
    <glyph glyph-name="question" unicode="?" horiz-adv-x="1085" 
d="M485 74q1 -41 -27 -69t-72 -28t-71 27t-26 70q1 44 27 70t70 26t72 -28t27 -68zM473 559q0 -37 10 -82l-100 -18q-16 51 -16 133t47 153q46 70 114 108t136 73q161 83 161 237q0 78 -54 120t-155 42q-180 0 -331 -151l-72 65q174 186 414 186q141 -1 232 -73t91 -178
t-49 -177q-49 -73 -120 -113t-141 -79q-168 -94 -167 -246z" />
    <glyph glyph-name="at" unicode="@" horiz-adv-x="2088" 
d="M1096 883q-148 0 -248 -126t-100 -358q0 -129 58 -195t156 -65q98 -1 168 57q68 58 101 121l63 517q-98 49 -198 49zM961 -420q-371 0 -590 204t-219 564q0 496 275 787t726 290q352 -1 562 -193t210 -506t-125 -504q-125 -189 -307 -189q-96 0 -165 53t-75 137l-8 2
q-45 -84 -128 -133t-183 -49q-133 0 -218 95t-85 261q0 274 132 426t343 152q158 0 307 -82l-70 -545q-14 -111 27 -167t119 -56q129 0 222 159t93 435t-177 437t-476 161q-397 0 -637 -263t-240 -691q0 -315 190 -499t511 -183q198 -1 399 69l21 -96q-223 -76 -434 -76z
" />
    <glyph glyph-name="A" unicode="A" horiz-adv-x="1107" 
d="M643 1294l-358 -813h520l-158 813h-4zM899 0l-74 379h-585l-166 -379h-129l633 1403h153l289 -1403h-121z" />
    <glyph glyph-name="B" unicode="B" horiz-adv-x="1224" 
d="M637 791q162 1 248 79t86 201t-80 176t-252 53h-215l-62 -509h275zM657 690h-307l-71 -588h274q195 0 296 87t101 247q0 122 -76 188t-217 66zM1096 1085q0 -123 -74 -213t-213 -124l-2 -7q129 -27 200 -107t70 -198q0 -208 -141 -322t-424 -114h-367l172 1403h322
q457 -1 457 -318z" />
    <glyph glyph-name="C" unicode="C" horiz-adv-x="1128" 
d="M780 1321q-212 0 -362 -198t-150 -552q0 -247 104 -367t274 -120q171 0 317 117l57 -84q-168 -139 -388 -139t-356 150q-135 151 -135 447q1 399 187 625t448 225q216 0 357 -131l-80 -77q-127 104 -273 104z" />
    <glyph glyph-name="D" unicode="D" horiz-adv-x="1290" 
d="M442 102q291 0 450 194t159 552q0 233 -122 343t-366 109h-139l-145 -1198h163zM582 1403q292 0 444 -138t152 -415q0 -402 -193 -626t-553 -224h-287l172 1403h265z" />
    <glyph glyph-name="E" unicode="E" horiz-adv-x="1040" 
d="M870 0h-725l172 1403h709l-29 -103h-573l-64 -522h498l-12 -102h-498l-69 -574h604z" />
    <glyph glyph-name="F" unicode="F" horiz-adv-x="993" 
d="M1016 1403l-29 -103h-563l-66 -546h488l-12 -103h-488l-80 -651h-121l172 1403h699z" />
    <glyph glyph-name="G" unicode="G" horiz-adv-x="1267" 
d="M805 1321q-219 0 -378 -203t-159 -561q0 -231 106 -353t280 -122q173 0 304 76l62 499h-287l-2 103h420l-82 -666q-207 -117 -429 -117q-222 1 -360 149t-139 429q0 410 194 640t476 230q223 0 375 -139l-78 -76q-125 111 -303 111z" />
    <glyph glyph-name="H" unicode="H" horiz-adv-x="1335" 
d="M1047 0h-121l84 688h-660l-84 -688h-121l172 1403h121l-76 -612h660l76 612h121z" />
    <glyph glyph-name="I" unicode="I" horiz-adv-x="555" 
d="M317 1403h121l-172 -1403h-121z" />
    <glyph glyph-name="J" unicode="J" horiz-adv-x="577" 
d="M-68 -279l-18 97q137 51 198 130q60 79 76 220l152 1235h121l-152 -1231q-25 -195 -108 -289t-269 -162z" />
    <glyph glyph-name="K" unicode="K" horiz-adv-x="1103" 
d="M317 1403h121l-172 -1403h-121zM1028 1403h146l-664 -651l526 -752h-143l-526 760z" />
    <glyph glyph-name="L" unicode="L" horiz-adv-x="960" 
d="M317 1403h121l-159 -1292h585l-28 -111h-691z" />
    <glyph glyph-name="M" unicode="M" horiz-adv-x="1583" 
d="M1374 0h-110l10 535q8 420 20 737h-4l-493 -1106h-119l-227 1106h-5q-53 -283 -163 -811l-97 -461h-120l305 1403h161l216 -1088h8l481 1088h172z" />
    <glyph glyph-name="N" unicode="N" horiz-adv-x="1359" 
d="M1243 1403l-172 -1403h-151l-517 1274h-4q-8 -180 -65 -660l-74 -614h-115l172 1403h150l516 -1276h4q16 256 80 772l61 504h115z" />
    <glyph glyph-name="O" unicode="O" horiz-adv-x="1388" 
d="M635 82q219 0 365 201t147 577q0 236 -99 348t-266 113q-221 0 -367 -202t-147 -578q0 -229 98 -344t269 -115zM1274 854q0 -385 -176 -631t-465 -246q-231 1 -361 147t-131 423q1 410 183 644t460 234q221 0 356 -148q134 -149 134 -423z" />
    <glyph glyph-name="P" unicode="P" horiz-adv-x="1153" 
d="M578 649q424 0 423 393q0 258 -366 258h-211l-80 -651h234zM555 547h-223l-66 -547h-121l172 1403h320q492 0 491 -356q0 -233 -147 -367t-426 -133z" />
    <glyph glyph-name="Q" unicode="Q" horiz-adv-x="1388" 
d="M635 82q219 0 365 201t147 577q0 236 -99 348t-266 113q-221 0 -367 -202t-147 -578q0 -229 98 -344t269 -115zM1274 840q0 -288 -111 -496q-111 -209 -307 -295l2 -6q270 0 402 -129l-93 -104q-96 94 -217 132t-305 40h-24q-221 0 -351 144q-129 144 -129 421
q1 410 183 644t460 234q221 0 356 -148q134 -149 134 -437z" />
    <glyph glyph-name="R" unicode="R" horiz-adv-x="1185" 
d="M596 731q406 0 405 334q0 236 -344 235h-233l-70 -569h242zM666 1403q226 0 344 -86t118 -252t-103 -278t-302 -140l344 -647h-137l-324 631h-264l-76 -631h-121l172 1403h349z" />
    <glyph glyph-name="S" unicode="S" horiz-adv-x="1103" 
d="M629 1321q-147 0 -231 -68t-85 -169q1 -101 61 -156t256 -132t281 -167q84 -90 84 -219q0 -195 -130 -314t-351 -119q-141 1 -266 51t-203 132l82 84q162 -162 383 -162q166 0 262 89t96 232q0 101 -63 163t-260 136t-278 160t-81 228t121 238q121 97 324 97
q253 0 409 -145l-71 -84q-127 125 -340 125z" />
    <glyph glyph-name="T" unicode="T" horiz-adv-x="1013" 
d="M500 0h-121l158 1296h-414l14 107h950l-28 -107h-402z" />
    <glyph glyph-name="U" unicode="U" horiz-adv-x="1323" 
d="M299 375q0 -293 299 -293q344 0 389 371l117 950h121l-119 -957q-57 -469 -510 -469q-198 1 -310 101t-112 287q0 39 6 81l119 957h121l-117 -950q-4 -27 -4 -78z" />
    <glyph glyph-name="V" unicode="V" horiz-adv-x="1105" 
d="M1051 1403h129l-629 -1403h-135l-289 1403h129l238 -1270h4z" />
    <glyph glyph-name="W" unicode="W" horiz-adv-x="1622" 
d="M971 1403l162 -1272h4l422 1272h116l-477 -1403h-149l-158 1249h-4l-457 -1249h-149l-134 1403h119l103 -1272h4l465 1272h133z" />
    <glyph glyph-name="X" unicode="X" horiz-adv-x="1054" 
d="M547 838h4l399 565h142l-476 -643l361 -760h-137l-299 672h-4l-459 -672h-144l537 754l-309 649h137z" />
    <glyph glyph-name="Y" unicode="Y" horiz-adv-x="1050" 
d="M1010 1403h135l-559 -836l-70 -567h-121l68 565l-357 838h132l292 -725h5z" />
    <glyph glyph-name="Z" unicode="Z" horiz-adv-x="1036" 
d="M874 106l-26 -106h-852l12 100l891 1198h-670l15 105h805l-13 -100l-891 -1197h729z" />
    <glyph glyph-name="bracketleft" unicode="[" horiz-adv-x="665" 
d="M430 -166h-338l215 1763h338l-10 -90h-232l-194 -1583h231z" />
    <glyph glyph-name="backslash" unicode="\" horiz-adv-x="1064" 
d="M223 1647l688 -1790l-90 -31l-690 1792z" />
    <glyph glyph-name="bracketright" unicode="]" horiz-adv-x="665" 
d="M266 1597h338l-215 -1763h-338l10 90h232l194 1583h-231z" />
    <glyph glyph-name="asciicircum" unicode="^" horiz-adv-x="1064" 
d="M637 1704h98l307 -625h-127l-237 510l-381 -510h-135z" />
    <glyph glyph-name="underscore" unicode="_" horiz-adv-x="1064" 
d="M866 -240h-901l15 107h901z" />
    <glyph glyph-name="grave" unicode="`" horiz-adv-x="575" 
d="M514 1333l-31 -69l-422 178l50 106z" />
    <glyph glyph-name="a" unicode="a" horiz-adv-x="1169" 
d="M452 80q91 0 183 77t166 224l78 561q-96 51 -215 51q-174 0 -302 -163t-126 -435q0 -159 62 -237t154 -78zM780 150q0 31 6 71q-162 -244 -362 -244q-139 0 -226 109t-87 309q0 317 161 508q162 190 398 191q172 0 334 -90l-107 -771q-4 -23 -4 -67t18 -70q18 -25 60 -37
l-33 -82q-158 27 -158 173z" />
    <glyph glyph-name="b" unicode="b" horiz-adv-x="1179" 
d="M756 995q-197 0 -416 -381l-68 -487q131 -47 234 -47q174 0 298 174t124 479q0 133 -49 197t-123 65zM1053 731q0 -346 -157 -550t-400 -204q-164 0 -355 70l205 1460l119 15l-103 -736q195 307 416 308q125 0 200 -89t75 -274z" />
    <glyph glyph-name="c" unicode="c" horiz-adv-x="970" 
d="M641 993q-168 -1 -287 -151t-118 -410q0 -172 78 -263t209 -91q132 0 263 94l50 -84q-156 -111 -332 -111t-285 120t-108 335q0 299 155 480q156 181 377 182q164 -1 303 -105l-61 -84q-106 88 -244 88z" />
    <glyph glyph-name="d" unicode="d" horiz-adv-x="1181" 
d="M453 80q94 0 192 81t174 236l62 430q-95 166 -257 166q-162 1 -276 -155t-112 -443q0 -159 62 -237t155 -78zM111 395q0 323 145 511q144 188 334 188t307 -146l82 574l115 -15l-211 -1507h-103l17 219q-160 -242 -371 -242q-141 1 -228 105t-87 313z" />
    <glyph glyph-name="e" unicode="e" horiz-adv-x="1085" 
d="M664 993q-158 0 -281 -130t-147 -341q319 12 471 100t151 224q0 70 -50 108t-144 39zM231 440q5 -362 303 -362q144 0 283 106l49 -80q-162 -127 -347 -127t-297 117t-111 326q0 297 164 485q165 188 397 189q137 0 224 -70t87 -178q0 -168 -181 -279t-571 -127z" />
    <glyph glyph-name="f" unicode="f" horiz-adv-x="661" 
d="M647 1522q119 0 250 -72l-47 -86q-109 57 -202 57t-137 -44t-58 -140l-23 -166h283l-29 -96h-268l-127 -916q-29 -207 -101 -299t-260 -178l-34 94q145 68 200 146t78 235l127 918h-199l15 96h198l25 172q41 279 309 279z" />
    <glyph glyph-name="g" unicode="g" horiz-adv-x="1183" 
d="M238 408q0 -154 64 -231t157 -77q94 0 192 84t176 242l72 512q-98 55 -221 55q-176 0 -308 -162t-132 -423zM450 -420q-178 0 -370 101l45 90q166 -90 317 -90q281 0 330 352l29 213q-160 -248 -367 -248q-137 0 -229 106t-92 304q0 309 168 497t401 189q180 -1 342 -95
l-135 -966q-31 -221 -146 -337t-293 -116z" />
    <glyph glyph-name="h" unicode="h" horiz-adv-x="1171" 
d="M997 852q0 -37 -6 -84l-106 -768h-117l104 748q6 49 7 88q0 160 -127 159q-197 0 -416 -385l-84 -610h-117l211 1507l119 15l-105 -740q193 311 418 312q219 0 219 -242z" />
    <glyph glyph-name="i" unicode="i" horiz-adv-x="534" 
d="M379 1313q-39 1 -64 25t-24 61t25 61t63 25q39 0 63 -25q24 -26 25 -62q-1 -36 -25 -60t-63 -25zM276 1071h117l-149 -1071h-117z" />
    <glyph glyph-name="j" unicode="j" horiz-adv-x="536" 
d="M381 1313q-39 1 -64 25t-24 61t25 61t63 25q39 0 63 -25q24 -26 25 -62q-1 -36 -25 -60t-63 -25zM279 1071h116l-143 -1012q-28 -207 -100 -299t-261 -178l-34 94q145 68 200 142t76 219z" />
    <glyph glyph-name="k" unicode="k" horiz-adv-x="1048" 
d="M793 1094q103 0 167 -60t64 -176q0 -117 -93 -221t-263 -160l231 -477h-135l-244 506q379 102 379 352q0 137 -139 137q-119 0 -248 -132t-184 -312l-76 -551h-117l211 1507l119 15l-107 -750q174 322 435 322z" />
    <glyph glyph-name="l" unicode="l" horiz-adv-x="544" 
d="M293 -23q-180 0 -150 211l185 1319l118 15l-188 -1342q-8 -57 8 -80q30 -43 135 -8l25 -84q-57 -31 -133 -31z" />
    <glyph glyph-name="m" unicode="m" horiz-adv-x="1744" 
d="M772 1094q195 0 195 -232q0 -49 -4 -78q190 309 411 310q197 0 197 -230q0 -27 -8 -96l-107 -768h-117l105 748q8 60 8 124q0 126 -102 123q-195 0 -412 -385l-84 -610h-117l105 748q8 60 8 124q0 126 -102 123q-197 0 -414 -391l-82 -604h-117l150 1071h100l-33 -299
q190 322 420 322z" />
    <glyph glyph-name="n" unicode="n" horiz-adv-x="1173" 
d="M778 1094q219 0 219 -240q0 -39 -6 -86l-106 -768h-117l104 748q6 49 7 88q0 160 -127 159q-199 0 -418 -391l-82 -604h-117l150 1071h100l-33 -299q193 322 426 322z" />
    <glyph glyph-name="o" unicode="o" horiz-adv-x="1157" 
d="M639 995q-174 -1 -290 -153t-116 -432q0 -162 71 -248t200 -86q174 0 289 154t114 438q-1 160 -71 244t-197 83zM111 414q0 261 122 459q61 99 167 159t241 62q185 0 287 -114t102 -318q0 -308 -145 -496t-383 -189q-184 0 -288 116q-103 116 -103 321z" />
    <glyph glyph-name="p" unicode="p" horiz-adv-x="1179" 
d="M756 993q-199 0 -420 -383l-49 -360q94 -172 257 -172q164 0 274 172t110 481q0 133 -49 197t-123 65zM778 1094q123 0 199 -88t76 -273q-1 -346 -143 -551t-330 -205t-310 156l-75 -536l-119 -17l209 1491h100l-31 -299q197 322 424 322z" />
    <glyph glyph-name="q" unicode="q" horiz-adv-x="1181" 
d="M236 395q0 -159 62 -237t157 -78q94 0 191 82t175 237l76 539q-98 55 -221 55q-176 0 -308 -165t-132 -433zM430 -23q-143 0 -231 108t-88 310q0 311 165 505q166 194 404 194q180 0 342 -95l-197 -1402l-118 -17l90 641q-160 -244 -367 -244z" />
    <glyph glyph-name="r" unicode="r" horiz-adv-x="743" 
d="M725 1094q49 0 90 -11l-37 -114q-37 8 -65 8q-93 0 -185 -93t-198 -321l-78 -563h-117l150 1071h100l-37 -338q90 193 182 277t195 84z" />
    <glyph glyph-name="s" unicode="s" horiz-adv-x="929" 
d="M485 995q-102 0 -161 -47q-60 -47 -60 -121q0 -75 46 -121t201 -104t223 -134q68 -75 69 -179q1 -143 -99 -227t-286 -85q-110 -1 -222 45t-176 107l76 80q60 -55 150 -94t194 -39t172 57q66 57 66 143t-54 137q-54 52 -203 107t-215 127q-66 71 -67 183q0 112 93 188
t266 76t331 -109l-65 -86q-129 96 -279 96z" />
    <glyph glyph-name="t" unicode="t" horiz-adv-x="739" 
d="M313 213q0 -135 131 -135q74 0 170 53l43 -86q-109 -68 -225 -68q-236 0 -235 238q0 37 6 80l98 686h-199l13 90h198l66 260l90 10l-39 -270h281l-25 -90h-268l-101 -709q-4 -23 -4 -59z" />
    <glyph glyph-name="u" unicode="u" horiz-adv-x="1157" 
d="M387 -23q-105 0 -167 66t-62 193q0 37 6 79l106 756h117l-104 -741q-6 -49 -7 -86q0 -168 136 -168q215 0 385 325l94 670h117l-150 -1071h-100l24 248q-84 -137 -187 -204t-208 -67z" />
    <glyph glyph-name="v" unicode="v" horiz-adv-x="950" 
d="M94 1071h123l191 -962h4l452 962h127l-526 -1071h-137z" />
    <glyph glyph-name="w" unicode="w" horiz-adv-x="1425" 
d="M1329 1071h117l-412 -1071h-162l-104 948h-4l-375 -948h-156l-118 1071h118l89 -971h2l393 971h133l113 -969h6z" />
    <glyph glyph-name="x" unicode="x" horiz-adv-x="927" 
d="M457 494h-6l-367 -494h-150l457 573l-258 498h135l199 -422h4l317 422h144l-400 -496l297 -575h-135z" />
    <glyph glyph-name="y" unicode="y" horiz-adv-x="946" 
d="M94 1071h125l193 -977h4l442 977h129l-510 -1075q-88 -186 -199 -287q-112 -100 -305 -129l-4 96q145 27 239 106q93 79 161 218h-43z" />
    <glyph glyph-name="z" unicode="z" horiz-adv-x="862" 
d="M721 100l-27 -100h-719l13 90l721 881h-549l14 100h688l-12 -90l-721 -881h592z" />
    <glyph glyph-name="braceleft" unicode="{" horiz-adv-x="665" 
d="M287 31q0 -61 38 -84t126 -23l-11 -90q-128 0 -194 41t-66 143q0 29 2 45l56 439q2 12 2 33q0 129 -140 129l15 104q82 0 124 39t52 129l53 432q16 131 89 180t222 49l-10 -90q-98 1 -142 -29t-54 -112l-54 -434q-10 -86 -46 -138t-122 -75l-2 -6q121 -31 121 -164
q0 -29 -2 -45l-55 -438q-2 -12 -2 -35z" />
    <glyph glyph-name="bar" unicode="|" horiz-adv-x="778" 
d="M244 -176l221 1796h102l-221 -1796h-102z" />
    <glyph glyph-name="braceright" unicode="}" horiz-adv-x="665" 
d="M348 879q0 16 4 53l54 434q2 12 2 35q0 61 -37 84t-125 22l10 90q129 0 195 -41t65 -143q0 -29 -2 -45l-53 -432q-2 -14 -2 -41q0 -67 33 -97t104 -30l-14 -104q-154 0 -174 -162l-56 -439q-16 -129 -90 -179t-221 -50l10 90q98 0 142 29q43 29 53 113l55 438
q23 174 168 209l2 6q-123 35 -123 160z" />
    <glyph glyph-name="asciitilde" unicode="~" horiz-adv-x="1024" 
d="M664 553q-60 0 -166 46t-142 46q-94 0 -161 -90l-70 47q45 70 113 109t135 39t169 -46t138 -47q94 0 162 91l71 -54q-95 -141 -249 -141z" />
    <glyph glyph-name="uni00A0" unicode="&#xa0;" horiz-adv-x="573" 
 />
    <glyph glyph-name="exclamdown" unicode="&#xa1;" horiz-adv-x="573" 
d="M410 870q0 -44 -27 -70t-72 -26t-71 27t-27 69q0 42 27 70q28 27 72 27t71 -27t27 -70zM221 524l119 21l-119 -948h-117z" />
    <glyph glyph-name="cent" unicode="&#xa2;" horiz-adv-x="1024" 
d="M641 993q-168 -1 -287 -151t-118 -410q0 -172 78 -263t209 -91q132 0 263 94l50 -84q-131 -92 -281 -108l-33 -287h-100l35 289q-160 16 -253 134t-93 316q0 283 139 461t346 199l37 301h98l-37 -301q133 -15 252 -103l-61 -84q-106 88 -244 88z" />
    <glyph glyph-name="sterling" unicode="&#xa3;" horiz-adv-x="1024" 
d="M649 1284q-107 0 -163 -55t-70 -182l-33 -271h389l-12 -96h-389l-35 -289q-25 -201 -150 -278l-2 -7h627l-27 -106h-755l12 102q154 84 174 258l39 320h-133l12 96h133l33 271q41 338 350 337q93 0 189 -43t155 -116l-88 -64q-106 123 -256 123z" />
    <glyph glyph-name="currency" unicode="&#xa4;" horiz-adv-x="1024" 
d="M539 410q125 0 195 78t69 210q0 133 -70 211q-71 78 -195 78t-194 -78t-70 -211q0 -132 70 -210t195 -78zM535 313q-127 0 -224 68l-170 -170l-73 74l170 170q-80 102 -80 243t78 242l-168 170l73 74l170 -170q95 70 223 70t228 -70l168 168l76 -72l-166 -168
q80 -102 80 -244t-82 -247l168 -164l-76 -74l-170 166q-98 -66 -225 -66z" />
    <glyph glyph-name="yen" unicode="&#xa5;" horiz-adv-x="1024" 
d="M164 432h268l23 180h-269l13 97h227l-309 653h131l272 -643h6l432 643h138l-471 -653h229l-12 -97h-269l-22 -180h268l-10 -96h-268l-41 -336h-119l41 336h-268z" />
    <glyph glyph-name="brokenbar" unicode="&#xa6;" horiz-adv-x="778" 
d="M244 -176l86 708h102l-86 -708h-102zM479 911h-102l88 709h102z" />
    <glyph glyph-name="section" unicode="&#xa7;" horiz-adv-x="1024" 
d="M258 647q0 -135 215 -213q107 -39 162 -72q137 82 137 209q0 138 -216 218q-106 39 -161 71q-137 -84 -137 -213zM895 575q0 -156 -197 -258q84 -77 84 -191t-94 -190t-272 -75q-178 0 -336 112l65 86q135 -100 293 -100q106 0 164 46q57 46 57 118t-45 116
q-44 44 -194 102t-218 130t-67 172q0 162 197 262q-84 78 -84 195q0 118 87 190t262 72t333 -109l-66 -86q-129 96 -286 97q-98 0 -152 -45t-55 -116q0 -71 45 -117q44 -46 194 -104t218 -132t67 -175z" />
    <glyph glyph-name="dieresis" unicode="&#xa8;" horiz-adv-x="671" 
d="M446 1368q0 36 23 58t59 22t60 -23q22 -23 22 -57t-22 -58q-22 -22 -60 -22t-60 22t-22 58zM61 1368q0 36 23 58q24 22 60 22t59 -23t23 -57t-24 -58q-22 -22 -59 -22t-59 22t-23 58z" />
    <glyph glyph-name="copyright" unicode="&#xa9;" horiz-adv-x="1638" 
d="M820 301q-249 0 -422 173t-173 421t173 421t421 173t421 -173t173 -421t-172 -421t-421 -173zM1321 894q0 218 -144 366q-143 148 -357 149t-359 -149t-145 -365t144 -363q146 -148 360 -149q214 0 358 147q143 146 143 364zM825 1161q-82 0 -134 -62t-52 -198
q0 -260 192 -260q80 0 158 57l51 -71q-92 -78 -218 -78t-208 92t-82 258t84 258q84 93 204 93t206 -68l-53 -74q-66 53 -148 53z" />
    <glyph glyph-name="ordfeminine" unicode="&#xaa;" horiz-adv-x="1228" 
d="M870 0h-698l14 106h699zM553 717q158 0 268 153l29 211h-131q-332 0 -332 -213q0 -74 44 -112t122 -39zM516 629q-110 0 -180 65t-70 187t114 202t345 80h137l10 78q14 102 -29 148q-44 45 -158 45t-249 -50l-20 82q156 56 300 56t214 -72t51 -203l-59 -411
q-6 -43 -7 -68q0 -57 52 -66l-11 -73q-74 8 -104 41t-33 98q-115 -139 -303 -139z" />
    <glyph glyph-name="guillemotleft" unicode="&#xab;" horiz-adv-x="1064" 
d="M981 1014l-338 -422l221 -408l-78 -49l-278 422l10 84l400 424zM612 1014l-338 -422l222 -408l-78 -49l-279 422l11 84l399 424z" />
    <glyph glyph-name="logicalnot" unicode="&#xac;" horiz-adv-x="1024" 
d="M850 338h-113l31 248h-625l13 106h737z" />
    <glyph glyph-name="uni00AD" unicode="&#xad;" horiz-adv-x="798" 
d="M664 586h-529l15 106h528z" />
    <glyph glyph-name="registered" unicode="&#xae;" horiz-adv-x="1312" 
d="M555 1212v-180h76q135 0 135 90t-148 90h-63zM555 961v-228h-88v553h156q233 0 233 -162q0 -123 -139 -153l188 -238h-114l-173 228h-63zM657 592q174 0 289 119t115 295t-115 298t-289 122q-175 0 -293 -122t-118 -297t118 -295t293 -120zM657 518q-209 0 -351 140
t-142 346t143 351q143 144 350 144t349 -144t143 -350q0 -206 -141 -347q-142 -140 -351 -140z" />
    <glyph glyph-name="macron" unicode="&#xaf;" horiz-adv-x="616" 
d="M555 1462l-14 -96h-480l15 96h479z" />
    <glyph glyph-name="degree" unicode="&#xb0;" horiz-adv-x="1024" 
d="M520 1425q130 1 208 -71t77 -201q1 -129 -91 -220t-223 -91t-207 70t-75 199q0 128 91 221q90 93 220 93zM692 1152q0 182 -168 183q-80 0 -142 -62q-60 -63 -60 -157t46 -139t127 -45q82 0 140 63q57 63 57 157z" />
    <glyph glyph-name="plusminus" unicode="&#xb1;" horiz-adv-x="1024" 
d="M621 1006l-39 -316h311l-12 -104h-312l-34 -275h-115l35 275h-312l13 104h311l39 316h115zM809 0h-737l12 109h737z" />
    <glyph glyph-name="twosuperior" unicode="&#xb2;" horiz-adv-x="819" 
d="M647 1323q0 49 -35 80t-94 31q-129 0 -242 -109l-65 55q141 141 321 142q100 0 164 -54t64 -156q0 -104 -109 -230t-370 -343h421l-22 -86h-557l8 74q313 266 415 386q101 120 101 210z" />
    <glyph glyph-name="threesuperior" unicode="&#xb3;" horiz-adv-x="819" 
d="M420 1141q98 0 151 46t54 126q0 121 -152 121q-100 0 -227 -88l-51 65q137 111 294 111q115 0 182 -52t67 -133q0 -80 -52 -141q-51 -61 -133 -80l-2 -6q70 -16 115 -68t45 -124q0 -123 -85 -201t-231 -78q-88 0 -168 33t-129 88l72 59q86 -96 221 -96q100 0 156 51
q55 51 55 141q0 145 -186 146h-60l21 80h43z" />
    <glyph glyph-name="acute" unicode="&#xb4;" horiz-adv-x="575" 
d="M92 1264l-31 69l404 215l49 -106z" />
    <glyph glyph-name="mu" unicode="&#xb5;" horiz-adv-x="1173" 
d="M438 -23q-88 0 -132 27t-73 92l-6 -2q4 -36 4 -108t-26 -258l-19 -131l-110 -13l209 1487h116l-104 -741q-6 -43 -6 -80q0 -174 149 -174q186 0 371 321l94 674h117l-90 -643q-20 -150 -20 -243t18 -185l-103 -18q-31 112 -20 286q-70 -127 -175 -209q-106 -82 -194 -82z
" />
    <glyph glyph-name="paragraph" unicode="&#xb6;" horiz-adv-x="1392" 
d="M233 1023q1 171 141 275t400 105h432l-223 -1809l-111 -14l213 1733h-235l-162 -1315q-28 -217 -112 -333t-234 -171l-35 94q236 102 271 385l84 680q-213 3 -321 101t-108 269z" />
    <glyph glyph-name="periodcentered" unicode="&#xb7;" horiz-adv-x="573" 
d="M197 647q0 41 26 69q27 28 72 28t72 -28q27 -26 27 -69t-28 -69q-26 -26 -71 -27t-71 27t-27 69z" />
    <glyph glyph-name="cedilla" unicode="&#xb8;" horiz-adv-x="528" 
d="M234 -373q117 0 114 94q0 76 -151 78l57 234h86l-29 -170q156 -18 156 -139q0 -82 -61 -134q-62 -52 -164 -53q-102 0 -181 47l54 78q59 -35 119 -35z" />
    <glyph glyph-name="onesuperior" unicode="&#xb9;" horiz-adv-x="819" 
d="M530 653h-108l92 740l-238 -127l-40 77l317 164h84z" />
    <glyph glyph-name="ordmasculine" unicode="&#xba;" horiz-adv-x="1228" 
d="M881 0h-699l15 106h698zM731 1434q-151 0 -239 -122t-89 -335q-1 -127 59 -194t173 -66q141 0 234 118t94 334q1 129 -61 197t-171 68zM291 985q0 240 121 388t321 149q154 0 248 -94t94 -259q0 -241 -125 -391t-317 -149q-160 0 -251 95t-91 261z" />
    <glyph glyph-name="guillemotright" unicode="&#xbb;" horiz-adv-x="1064" 
d="M86 184l338 422l-221 408l78 49l278 -422l-10 -84l-399 -424zM455 184l338 422l-222 408l78 49l279 -422l-10 -84l-400 -424z" />
    <glyph glyph-name="onequarter" unicode="&#xbc;" horiz-adv-x="1843" 
d="M1575 0h-100l26 209h-397l8 72l354 593l99 -34l-326 -543h272l39 238h90l-28 -238h112l-10 -88h-112zM1511 1477l-1026 -1639l-88 47l1028 1639zM530 571h-108l92 740l-238 -127l-40 78l317 163h84z" />
    <glyph glyph-name="onehalf" unicode="&#xbd;" horiz-adv-x="1843" 
d="M1511 1477l-1026 -1639l-88 47l1028 1639zM1571 868q99 0 163 -53t64 -141q0 -119 -108 -245t-371 -343h422l-23 -86h-557l8 74q313 266 415 386q101 120 102 210q0 49 -35 80t-95 30q-129 0 -241 -108l-66 55q141 141 322 141zM530 571h-108l92 740l-238 -127l-40 78
l317 163h84z" />
    <glyph glyph-name="threequarters" unicode="&#xbe;" horiz-adv-x="1843" 
d="M1567 0h-101l27 209h-397l8 72l354 593l98 -34l-325 -543h272l39 238h90l-28 -238h112l-10 -88h-113zM1528 1477l-1026 -1639l-88 47l1028 1639zM418 1059q98 0 151 46t54 126q0 121 -152 121q-100 0 -227 -88l-51 65q139 111 294 111q115 0 182 -52t67 -132t-52 -142
q-51 -61 -133 -80l-2 -6q70 -16 115 -68t45 -124q0 -123 -85 -201t-231 -78q-88 0 -168 33t-129 88l72 59q86 -96 221 -96q100 0 156 51q55 51 55 142q0 145 -186 145h-60l21 80h43z" />
    <glyph glyph-name="questiondown" unicode="&#xbf;" horiz-adv-x="1085" 
d="M569 872q0 41 27 69t72 28q46 0 72 -27t26 -70q0 -44 -27 -70t-71 -26t-72 28q-27 28 -27 68zM592 446q0 37 -10 82l100 19q16 -51 16 -134t-47 -153t-115 -108t-135 -72q-161 -83 -161 -238q0 -78 54 -120t155 -41q180 0 331 151l72 -65q-174 -186 -414 -187
q-141 0 -232 73t-91 178t49 177t119 113q71 41 141 80q168 93 168 245z" />
    <glyph glyph-name="Agrave" unicode="&#xc0;" horiz-adv-x="1107" 
d="M891 1620l-31 -70l-407 154l53 106zM643 1294l-358 -813h520l-158 813h-4zM899 0l-74 379h-585l-166 -379h-129l633 1403h153l289 -1403h-121z" />
    <glyph glyph-name="Aacute" unicode="&#xc1;" horiz-adv-x="1107" 
d="M518 1571l-31 69l385 191l54 -107zM643 1294l-358 -813h520l-158 813h-4zM899 0l-74 379h-585l-166 -379h-129l633 1403h153l289 -1403h-121z" />
    <glyph glyph-name="Acircumflex" unicode="&#xc2;" horiz-adv-x="1107" 
d="M694 1708l-262 -154l-51 64l289 199h61l244 -201l-60 -62zM643 1294l-358 -813h520l-158 813h-4zM899 0l-74 379h-585l-166 -379h-129l633 1403h153l289 -1403h-121z" />
    <glyph glyph-name="Atilde" unicode="&#xc3;" horiz-adv-x="1107" 
d="M784 1587q-52 0 -120 46t-93 46q-61 0 -122 -90l-68 35q82 150 207 150q62 0 126 -46t87 -47q59 0 123 88l67 -34q-82 -148 -207 -148zM643 1294l-358 -813h520l-158 813h-4zM899 0l-74 379h-585l-166 -379h-129l633 1403h153l289 -1403h-121z" />
    <glyph glyph-name="Adieresis" unicode="&#xc4;" horiz-adv-x="1107" 
d="M791 1634q0 35 22 58q23 22 59 22t60 -22q22 -22 22 -58t-22 -58t-60 -22q-37 0 -59 22t-22 58zM406 1634q0 35 22 58q24 22 60 22t59 -22t23 -58t-24 -58q-22 -22 -59 -22t-59 22t-22 58zM643 1294l-358 -813h520l-158 813h-4zM899 0l-74 379h-585l-166 -379h-129
l633 1403h153l289 -1403h-121z" />
    <glyph glyph-name="Aring" unicode="&#xc5;" horiz-adv-x="1107" 
d="M801 1718q0 105 -106 105q-50 0 -84 -36q-33 -36 -33 -90t28 -81t80 -27q51 0 83 37t32 92zM696 1892q90 0 142 -46t53 -129t-57 -140t-150 -57t-143 45t-51 130t58 141t148 56zM643 1294l-358 -813h520l-158 813h-4zM899 0l-74 379h-585l-166 -379h-129l633 1403h153
l289 -1403h-121z" />
    <glyph glyph-name="AE" unicode="&#xc6;" horiz-adv-x="1583" 
d="M705 1303l-412 -822h522l-106 822h-4zM879 0l-50 379h-587l-189 -379h-129l719 1403h864l-28 -103h-670l74 -522h508l-13 -102h-481l80 -574h469l-12 -102h-555z" />
    <glyph glyph-name="Ccedilla" unicode="&#xc7;" horiz-adv-x="1128" 
d="M552 -373q116 0 116 94q0 76 -152 78l45 183q-193 22 -307 172t-113 421q1 399 187 625t448 225q215 0 357 -131l-80 -77q-127 104 -273 104q-212 0 -362 -198t-150 -552q0 -247 104 -367t274 -120q171 0 317 117l57 -84q-156 -131 -371 -140l-18 -114q156 -18 155 -139
q0 -82 -61 -134t-163 -53q-102 0 -181 47l53 78q58 -35 118 -35z" />
    <glyph glyph-name="Egrave" unicode="&#xc8;" horiz-adv-x="1040" 
d="M926 1620l-31 -70l-408 154l54 106zM870 0h-725l172 1403h709l-29 -103h-573l-64 -522h498l-12 -102h-498l-69 -574h604z" />
    <glyph glyph-name="Eacute" unicode="&#xc9;" horiz-adv-x="1040" 
d="M532 1550l-30 70l385 190l53 -106zM870 0h-725l172 1403h709l-29 -103h-573l-64 -522h498l-12 -102h-498l-69 -574h604z" />
    <glyph glyph-name="Ecircumflex" unicode="&#xca;" horiz-adv-x="1040" 
d="M709 1708l-263 -154l-51 64l289 199h61l244 -201l-59 -62zM870 0h-725l172 1403h709l-29 -103h-573l-64 -522h498l-12 -102h-498l-69 -574h604z" />
    <glyph glyph-name="Edieresis" unicode="&#xcb;" horiz-adv-x="1040" 
d="M807 1634q0 35 22 58q23 22 60 22t59 -22t23 -58q0 -36 -23 -58q-24 -22 -60 -22t-58 22t-23 58zM422 1634q0 35 22 58q23 22 60 22q38 0 60 -22t22 -58t-23 -58t-59 -22t-60 22q-22 22 -22 58zM870 0h-725l172 1403h709l-29 -103h-573l-64 -522h498l-12 -102h-498
l-69 -574h604z" />
    <glyph glyph-name="Igrave" unicode="&#xcc;" horiz-adv-x="555" 
d="M635 1620l-31 -70l-407 154l53 106zM317 1403h121l-172 -1403h-121z" />
    <glyph glyph-name="Iacute" unicode="&#xcd;" horiz-adv-x="555" 
d="M221 1550l-31 70l385 190l54 -106zM317 1403h121l-172 -1403h-121z" />
    <glyph glyph-name="Icircumflex" unicode="&#xce;" horiz-adv-x="555" 
d="M418 1708l-262 -154l-52 64l289 199h62l243 -201l-59 -62zM317 1403h121l-172 -1403h-121z" />
    <glyph glyph-name="Idieresis" unicode="&#xcf;" horiz-adv-x="555" 
d="M514 1634q0 35 23 58q23 22 59 22t60 -22q22 -22 22 -58t-23 -58t-59 -22t-60 22q-22 22 -22 58zM129 1634q0 35 23 58q24 22 60 22t58 -22t23 -58q0 -36 -23 -58q-24 -22 -60 -22t-58 22t-23 58zM317 1403h121l-172 -1403h-121z" />
    <glyph glyph-name="Eth" unicode="&#xd0;" horiz-adv-x="1294" 
d="M446 102q291 0 450 194t159 552q0 233 -122 343t-366 109h-139l-63 -528h372l-12 -98h-373l-69 -572h163zM586 1403q292 0 444 -138t152 -415q0 -402 -193 -626t-553 -224h-286l81 674h-178l13 98h178l78 631h264z" />
    <glyph glyph-name="Ntilde" unicode="&#xd1;" horiz-adv-x="1359" 
d="M922 1587q-53 0 -121 46t-92 46q-61 0 -123 -90l-68 35q82 150 207 150q63 0 127 -46t86 -47q59 0 123 88l67 -34q-81 -148 -206 -148zM1243 1403l-172 -1403h-151l-517 1274h-4q-8 -180 -65 -660l-74 -614h-115l172 1403h150l516 -1276h4q16 256 80 772l61 504h115z" />
    <glyph glyph-name="Ograve" unicode="&#xd2;" horiz-adv-x="1388" 
d="M1032 1620l-31 -70l-407 154l53 106zM635 82q219 0 365 201t147 577q0 236 -99 348t-266 113q-221 0 -367 -202t-147 -578q0 -229 98 -344t269 -115zM1274 854q0 -385 -176 -631t-465 -246q-231 1 -361 147t-131 423q1 410 183 644t460 234q221 0 356 -148
q134 -149 134 -423z" />
    <glyph glyph-name="Oacute" unicode="&#xd3;" horiz-adv-x="1388" 
d="M659 1550l-30 70l385 190l53 -106zM635 82q219 0 365 201t147 577q0 236 -99 348t-266 113q-221 0 -367 -202t-147 -578q0 -229 98 -344t269 -115zM1274 854q0 -385 -176 -631t-465 -246q-231 1 -361 147t-131 423q1 410 183 644t460 234q221 0 356 -148
q134 -149 134 -423z" />
    <glyph glyph-name="Ocircumflex" unicode="&#xd4;" horiz-adv-x="1388" 
d="M836 1708l-263 -154l-51 64l289 199h61l244 -201l-59 -62zM635 82q219 0 365 201t147 577q0 236 -99 348t-266 113q-221 0 -367 -202t-147 -578q0 -229 98 -344t269 -115zM1274 854q0 -385 -176 -631t-465 -246q-231 1 -361 147t-131 423q1 410 183 644t460 234
q221 0 356 -148q134 -149 134 -423z" />
    <glyph glyph-name="Otilde" unicode="&#xd5;" horiz-adv-x="1388" 
d="M926 1587q-53 0 -121 46t-92 46q-61 0 -123 -90l-68 35q82 150 207 150q63 0 127 -46t86 -47q59 0 123 88l68 -34q-82 -148 -207 -148zM635 82q219 0 365 201t147 577q0 236 -99 348t-266 113q-221 0 -367 -202t-147 -578q0 -229 98 -344t269 -115zM1274 854
q0 -385 -176 -631t-465 -246q-231 1 -361 147t-131 423q1 410 183 644t460 234q221 0 356 -148q134 -149 134 -423z" />
    <glyph glyph-name="Odieresis" unicode="&#xd6;" horiz-adv-x="1388" 
d="M932 1634q0 35 22 58q23 22 60 22q38 0 60 -22t22 -58t-23 -58t-59 -22t-60 22q-22 22 -22 58zM547 1634q0 35 22 58q23 22 60 22t59 -22t23 -58q0 -36 -23 -58q-24 -22 -60 -22t-58 22t-23 58zM635 82q219 0 365 201t147 577q0 236 -99 348t-266 113q-221 0 -367 -202
t-147 -578q0 -229 98 -344t269 -115zM1274 854q0 -385 -176 -631t-465 -246q-231 1 -361 147t-131 423q1 410 183 644t460 234q221 0 356 -148q134 -149 134 -423z" />
    <glyph glyph-name="multiply" unicode="&#xd7;" horiz-adv-x="1024" 
d="M885 870l-295 -264l229 -260l-84 -78l-229 262l-297 -264l-70 82l295 264l-227 260l84 78l227 -262l297 264z" />
    <glyph glyph-name="Oslash" unicode="&#xd8;" horiz-adv-x="1388" 
d="M268 541q0 -289 156 -400l479 1162q-55 18 -121 18q-222 1 -368 -201t-146 -579zM635 82q219 0 365 201t147 577q0 291 -160 402l-477 -1164q49 -16 125 -16zM1274 847q0 -378 -176 -624t-465 -246q-86 0 -166 23l-100 -248l-107 29l115 258q-233 131 -234 508
q1 410 183 644t460 234q78 0 156 -22l107 256l104 -29l-117 -268q240 -137 240 -515z" />
    <glyph glyph-name="Ugrave" unicode="&#xd9;" horiz-adv-x="1323" 
d="M997 1620l-30 -70l-408 154l53 106zM299 375q0 -293 299 -293q344 0 389 371l117 950h121l-119 -957q-57 -469 -510 -469q-198 1 -310 101t-112 287q0 39 6 81l119 957h121l-117 -950q-4 -27 -4 -78z" />
    <glyph glyph-name="Uacute" unicode="&#xda;" horiz-adv-x="1323" 
d="M625 1550l-31 70l385 190l53 -106zM299 375q0 -293 299 -293q344 0 389 371l117 950h121l-119 -957q-57 -469 -510 -469q-198 1 -310 101t-112 287q0 39 6 81l119 957h121l-117 -950q-4 -27 -4 -78z" />
    <glyph glyph-name="Ucircumflex" unicode="&#xdb;" horiz-adv-x="1323" 
d="M801 1708l-262 -154l-52 64l289 199h62l243 -201l-59 -62zM299 375q0 -293 299 -293q344 0 389 371l117 950h121l-119 -957q-57 -469 -510 -469q-198 1 -310 101t-112 287q0 39 6 81l119 957h121l-117 -950q-4 -27 -4 -78z" />
    <glyph glyph-name="Udieresis" unicode="&#xdc;" horiz-adv-x="1323" 
d="M899 1634q0 35 23 58q24 22 60 22t58 -22t23 -58q0 -36 -23 -58q-24 -22 -60 -22t-58 22t-23 58zM514 1634q0 35 23 58q23 22 59 22t60 -22q22 -22 22 -58t-23 -58t-59 -22t-60 22q-22 22 -22 58zM299 375q0 -293 299 -293q344 0 389 371l117 950h121l-119 -957
q-57 -469 -510 -469q-198 1 -310 101t-112 287q0 39 6 81l119 957h121l-117 -950q-4 -27 -4 -78z" />
    <glyph glyph-name="Yacute" unicode="&#xdd;" horiz-adv-x="1050" 
d="M489 1550l-30 70l385 190l53 -106zM1010 1403h135l-559 -836l-70 -567h-121l68 565l-357 838h132l292 -725h5z" />
    <glyph glyph-name="Thorn" unicode="&#xde;" horiz-adv-x="1120" 
d="M602 1055h-207l-82 -652h232q424 0 424 394q0 258 -367 258zM522 301h-221l-35 -301h-121l172 1403h121l-30 -246h196q492 0 492 -356q0 -233 -148 -367t-426 -133z" />
    <glyph glyph-name="germandbls" unicode="&#xdf;" horiz-adv-x="1200" 
d="M711 1522q143 0 231 -68t88 -183t-104 -202q-43 -35 -86 -65q-105 -72 -105 -153q0 -82 176 -217q66 -50 121 -133t55 -175q0 -156 -93 -252q-92 -96 -252 -96t-291 94l59 84q121 -78 228 -78t166 62q58 62 58 174t-121 222q-50 44 -101 88q-122 107 -122 216
q0 70 31 122t74 82l86 60q106 71 104 170q0 66 -54 108t-150 43q-262 0 -303 -307l-148 -1059q-28 -207 -100 -299t-260 -178l-35 94q145 68 201 142t75 219l152 1075q57 410 420 410z" />
    <glyph glyph-name="agrave" unicode="&#xe0;" horiz-adv-x="1169" 
d="M911 1333l-30 -69l-422 178l49 106zM452 80q91 0 183 77t166 224l78 561q-96 51 -215 51q-174 0 -302 -163t-126 -435q0 -159 62 -237t154 -78zM780 150q0 31 6 71q-162 -244 -362 -244q-139 0 -226 109t-87 309q0 317 161 508q162 190 398 191q172 0 334 -90l-107 -771
q-4 -23 -4 -67t18 -70q18 -25 60 -37l-33 -82q-158 27 -158 173z" />
    <glyph glyph-name="aacute" unicode="&#xe1;" horiz-adv-x="1169" 
d="M494 1264l-31 69l403 215l49 -106zM452 80q91 0 183 77t166 224l78 561q-96 51 -215 51q-174 0 -302 -163t-126 -435q0 -159 62 -237t154 -78zM780 150q0 31 6 71q-162 -244 -362 -244q-139 0 -226 109t-87 309q0 317 161 508q162 190 398 191q172 0 334 -90l-107 -771
q-4 -23 -4 -67t18 -70q18 -25 60 -37l-33 -82q-158 27 -158 173z" />
    <glyph glyph-name="acircumflex" unicode="&#xe2;" horiz-adv-x="1169" 
d="M698 1442l-268 -174l-45 63l291 219h61l240 -221l-64 -61zM452 80q91 0 183 77t166 224l78 561q-96 51 -215 51q-174 0 -302 -163t-126 -435q0 -159 62 -237t154 -78zM780 150q0 31 6 71q-162 -244 -362 -244q-139 0 -226 109t-87 309q0 317 161 508q162 190 398 191
q172 0 334 -90l-107 -771q-4 -23 -4 -67t18 -70q18 -25 60 -37l-33 -82q-158 27 -158 173z" />
    <glyph glyph-name="atilde" unicode="&#xe3;" horiz-adv-x="1169" 
d="M788 1321q-52 0 -120 46t-93 46q-59 0 -122 -90l-66 35q82 150 209 149q63 0 128 -46t87 -46q57 0 121 88l67 -35q-84 -147 -211 -147zM452 80q91 0 183 77t166 224l78 561q-96 51 -215 51q-174 0 -302 -163t-126 -435q0 -159 62 -237t154 -78zM780 150q0 31 6 71
q-162 -244 -362 -244q-139 0 -226 109t-87 309q0 317 161 508q162 190 398 191q172 0 334 -90l-107 -771q-4 -23 -4 -67t18 -70q18 -25 60 -37l-33 -82q-158 27 -158 173z" />
    <glyph glyph-name="adieresis" unicode="&#xe4;" horiz-adv-x="1169" 
d="M797 1368q1 36 23 58t59 22t59 -23t23 -57q0 -34 -23 -58q-24 -22 -60 -22t-58 22t-23 58zM412 1368q0 36 22 58t60 22t60 -23t22 -57t-24 -58q-22 -22 -58 -22t-60 22q-22 22 -22 58zM452 80q91 0 183 77t166 224l78 561q-96 51 -215 51q-174 0 -302 -163t-126 -435
q0 -159 62 -237t154 -78zM780 150q0 31 6 71q-162 -244 -362 -244q-139 0 -226 109t-87 309q0 317 161 508q162 190 398 191q172 0 334 -90l-107 -771q-4 -23 -4 -67t18 -70q18 -25 60 -37l-33 -82q-158 27 -158 173z" />
    <glyph glyph-name="aring" unicode="&#xe5;" horiz-adv-x="1169" 
d="M809 1452q1 106 -105 104q-50 0 -84 -36t-34 -90q0 -108 108 -107q51 0 83 37t32 92zM899 1451q1 -83 -57 -141t-150 -57q-92 0 -143 45t-51 130q0 86 58 142t148 56t143 -46q52 -46 52 -129zM452 80q91 0 183 77t166 224l78 561q-96 51 -215 51q-174 0 -302 -163
t-126 -435q0 -159 62 -237t154 -78zM780 150q0 31 6 71q-162 -244 -362 -244q-139 0 -226 109t-87 309q0 317 161 508q162 190 398 191q172 0 334 -90l-107 -771q-4 -23 -4 -67t18 -70q18 -25 60 -37l-33 -82q-158 27 -158 173z" />
    <glyph glyph-name="ae" unicode="&#xe6;" horiz-adv-x="1695" 
d="M1274 993q-158 0 -281 -130t-147 -341q319 12 471 100t151 224q0 70 -50 108t-144 39zM375 78q205 0 356 219q-10 61 -10 121t10 129h-174q-387 0 -387 -277q0 -90 54 -141t151 -51zM554 1094q148 0 226 -60t88 -155q158 215 414 215q137 0 224 -70t87 -178
q0 -168 -181 -279t-570 -127q0 -182 79 -272t223 -90t283 106l50 -80q-162 -127 -344 -127q-131 1 -225 61t-134 171q-102 -127 -194 -179t-232 -52t-222 77q-83 78 -83 209q0 172 135 274t385 101h185l16 106q39 248 -221 248q-135 0 -297 -59l-21 92q181 68 329 68z" />
    <glyph glyph-name="ccedilla" unicode="&#xe7;" horiz-adv-x="970" 
d="M428 -373q116 0 115 94q0 76 -152 78l45 185q-152 24 -238 140t-87 308q0 299 155 480q156 181 377 182q164 0 303 -105l-61 -84q-106 88 -244 88q-168 -1 -287 -151t-118 -410q0 -172 78 -263t209 -91q132 0 263 94l50 -84q-150 -104 -312 -111l-18 -114
q156 -18 156 -139q0 -82 -62 -134t-164 -53q-102 0 -180 47l53 78q59 -35 119 -35z" />
    <glyph glyph-name="egrave" unicode="&#xe8;" horiz-adv-x="1085" 
d="M899 1333l-31 -69l-422 178l50 106zM664 993q-158 0 -281 -130t-147 -341q319 12 471 100t151 224q0 70 -50 108t-144 39zM231 440q5 -362 303 -362q144 0 283 106l49 -80q-162 -127 -347 -127t-297 117t-111 326q0 297 164 485q165 188 397 189q137 0 224 -70t87 -178
q0 -168 -181 -279t-571 -127z" />
    <glyph glyph-name="eacute" unicode="&#xe9;" horiz-adv-x="1085" 
d="M481 1264l-30 69l403 215l49 -106zM664 993q-158 0 -281 -130t-147 -341q319 12 471 100t151 224q0 70 -50 108t-144 39zM231 440q5 -362 303 -362q144 0 283 106l49 -80q-162 -127 -347 -127t-297 117t-111 326q0 297 164 485q165 188 397 189q137 0 224 -70t87 -178
q0 -168 -181 -279t-571 -127z" />
    <glyph glyph-name="ecircumflex" unicode="&#xea;" horiz-adv-x="1085" 
d="M686 1442l-268 -174l-45 63l291 219h61l240 -221l-64 -61zM664 993q-158 0 -281 -130t-147 -341q319 12 471 100t151 224q0 70 -50 108t-144 39zM231 440q5 -362 303 -362q144 0 283 106l49 -80q-162 -127 -347 -127t-297 117t-111 326q0 297 164 485q165 188 397 189
q137 0 224 -70t87 -178q0 -168 -181 -279t-571 -127z" />
    <glyph glyph-name="edieresis" unicode="&#xeb;" horiz-adv-x="1085" 
d="M784 1368q0 36 23 58t59 22t60 -23q22 -23 22 -57t-22 -58q-22 -22 -60 -22t-60 22t-22 58zM399 1368q0 36 23 58q24 22 60 22t59 -23t23 -57t-24 -58q-22 -22 -59 -22t-59 22t-23 58zM664 993q-158 0 -281 -130t-147 -341q319 12 471 100t151 224q0 70 -50 108t-144 39z
M231 440q5 -362 303 -362q144 0 283 106l49 -80q-162 -127 -347 -127t-297 117t-111 326q0 297 164 485q165 188 397 189q137 0 224 -70t87 -178q0 -168 -181 -279t-571 -127z" />
    <glyph glyph-name="igrave" unicode="&#xec;" horiz-adv-x="534" 
d="M578 1333l-31 -69l-422 178l49 106zM276 1071h117l-149 -1071h-117z" />
    <glyph glyph-name="iacute" unicode="&#xed;" horiz-adv-x="534" 
d="M201 1264l-31 69l403 215l50 -106zM276 1071h117l-149 -1071h-117z" />
    <glyph glyph-name="icircumflex" unicode="&#xee;" horiz-adv-x="534" 
d="M387 1442l-268 -174l-45 63l291 219h61l240 -221l-64 -61zM276 1071h117l-149 -1071h-117z" />
    <glyph glyph-name="idieresis" unicode="&#xef;" horiz-adv-x="534" 
d="M485 1368q0 36 23 58q24 22 60 22t59 -23t23 -57t-24 -58q-22 -22 -59 -22t-59 22t-23 58zM100 1368q0 36 23 58t59 22t60 -23q22 -23 22 -57t-22 -58q-22 -22 -60 -22t-60 22t-22 58zM276 1071h117l-149 -1071h-117z" />
    <glyph glyph-name="eth" unicode="&#xf0;" horiz-adv-x="1130" 
d="M510 76q131 0 232 138t128 419q-49 98 -132 152t-179 55q-137 0 -235 -114t-99 -329q0 -149 77 -235t208 -86zM489 -23q-172 0 -278 113t-107 309q0 247 132 393t305 146q100 0 192 -47t146 -127l6 2q4 45 4 59q0 301 -197 445l-170 -152l-80 39l174 160q-102 51 -233 84
l41 96q162 -39 276 -104l177 161l65 -61l-168 -150q233 -172 234 -522q0 -416 -140 -630t-379 -214z" />
    <glyph glyph-name="ntilde" unicode="&#xf1;" horiz-adv-x="1173" 
d="M795 1321q-53 0 -121 46t-92 46q-59 0 -123 -90l-66 35q82 150 209 149q63 0 128 -46t87 -46q57 0 121 88l68 -35q-84 -147 -211 -147zM778 1094q219 0 219 -240q0 -39 -6 -86l-106 -768h-117l104 748q6 49 7 88q0 160 -127 159q-199 0 -418 -391l-82 -604h-117l150 1071
h100l-33 -299q193 322 426 322z" />
    <glyph glyph-name="ograve" unicode="&#xf2;" horiz-adv-x="1157" 
d="M889 1333l-31 -69l-422 178l49 106zM639 995q-174 -1 -290 -153t-116 -432q0 -162 71 -248t200 -86q174 0 289 154t114 438q-1 160 -71 244t-197 83zM111 414q0 261 122 459q61 99 167 159t241 62q185 0 287 -114t102 -318q0 -308 -145 -496t-383 -189q-184 0 -288 116
q-103 116 -103 321z" />
    <glyph glyph-name="oacute" unicode="&#xf3;" horiz-adv-x="1157" 
d="M512 1264l-31 69l404 215l49 -106zM639 995q-174 -1 -290 -153t-116 -432q0 -162 71 -248t200 -86q174 0 289 154t114 438q-1 160 -71 244t-197 83zM111 414q0 261 122 459q61 99 167 159t241 62q185 0 287 -114t102 -318q0 -308 -145 -496t-383 -189q-184 0 -288 116
q-103 116 -103 321z" />
    <glyph glyph-name="ocircumflex" unicode="&#xf4;" horiz-adv-x="1157" 
d="M696 1442l-268 -174l-45 63l291 219h61l240 -221l-64 -61zM639 995q-174 -1 -290 -153t-116 -432q0 -162 71 -248t200 -86q174 0 289 154t114 438q-1 160 -71 244t-197 83zM111 414q0 261 122 459q61 99 167 159t241 62q185 0 287 -114t102 -318q0 -308 -145 -496
t-383 -189q-184 0 -288 116q-103 116 -103 321z" />
    <glyph glyph-name="otilde" unicode="&#xf5;" horiz-adv-x="1157" 
d="M786 1321q-52 0 -120 46t-93 46q-59 0 -122 -90l-66 35q82 150 209 149q63 0 128 -46t87 -46q57 0 121 88l67 -35q-84 -147 -211 -147zM639 995q-174 -1 -290 -153t-116 -432q0 -162 71 -248t200 -86q174 0 289 154t114 438q-1 160 -71 244t-197 83zM111 414
q0 261 122 459q61 99 167 159t241 62q185 0 287 -114t102 -318q0 -308 -145 -496t-383 -189q-184 0 -288 116q-103 116 -103 321z" />
    <glyph glyph-name="odieresis" unicode="&#xf6;" horiz-adv-x="1157" 
d="M795 1368q1 36 23 58t59 22t59 -23t22 -57t-22 -58q-22 -22 -60 -22q-36 0 -58 22t-23 58zM410 1368q0 36 22 58t60 22t60 -23t22 -57t-24 -58q-22 -22 -58 -22t-60 22q-22 22 -22 58zM639 995q-174 -1 -290 -153t-116 -432q0 -162 71 -248t200 -86q174 0 289 154
t114 438q-1 160 -71 244t-197 83zM111 414q0 261 122 459q61 99 167 159t241 62q185 0 287 -114t102 -318q0 -308 -145 -496t-383 -189q-184 0 -288 116q-103 116 -103 321z" />
    <glyph glyph-name="divide" unicode="&#xf7;" horiz-adv-x="1024" 
d="M414 240q0 44 26 70t72 26q45 0 72 -27q26 -27 26 -69t-26 -70q-26 -27 -72 -27q-45 0 -72 27q-26 27 -26 70zM469 1038q0 43 28 70q27 27 71 27t71 -27t27 -70q0 -44 -27 -70t-71 -26t-72 26t-27 70zM881 586h-738l13 106h737z" />
    <glyph glyph-name="oslash" unicode="&#xf8;" horiz-adv-x="1157" 
d="M907 668q0 190 -98 272l-391 -854q45 -10 86 -10q174 0 289 154q114 155 114 438zM639 995q-174 -1 -290 -153t-116 -432q0 -201 109 -285l389 856q-41 14 -92 14zM1030 662q0 -308 -145 -496t-383 -189q-55 0 -119 15l-109 -240l-94 31l113 246q-182 109 -182 377
t122 467q61 99 167 159t241 62q66 0 127 -17l104 232l97 -31l-113 -240q174 -104 174 -376z" />
    <glyph glyph-name="ugrave" unicode="&#xf9;" horiz-adv-x="1157" 
d="M907 1333l-30 -69l-422 178l49 106zM387 -23q-105 0 -167 66t-62 193q0 37 6 79l106 756h117l-104 -741q-6 -49 -7 -86q0 -168 136 -168q215 0 385 325l94 670h117l-150 -1071h-100l24 248q-84 -137 -187 -204t-208 -67z" />
    <glyph glyph-name="uacute" unicode="&#xfa;" horiz-adv-x="1157" 
d="M510 1264l-31 69l404 215l49 -106zM387 -23q-105 0 -167 66t-62 193q0 37 6 79l106 756h117l-104 -741q-6 -49 -7 -86q0 -168 136 -168q215 0 385 325l94 670h117l-150 -1071h-100l24 248q-84 -137 -187 -204t-208 -67z" />
    <glyph glyph-name="ucircumflex" unicode="&#xfb;" horiz-adv-x="1157" 
d="M696 1442l-268 -174l-45 63l291 219h61l240 -221l-64 -61zM387 -23q-105 0 -167 66t-62 193q0 37 6 79l106 756h117l-104 -741q-6 -49 -7 -86q0 -168 136 -168q215 0 385 325l94 670h117l-150 -1071h-100l24 248q-84 -137 -187 -204t-208 -67z" />
    <glyph glyph-name="udieresis" unicode="&#xfc;" horiz-adv-x="1157" 
d="M793 1368q1 36 23 58t58 22t60 -23q22 -23 22 -57t-22 -58q-22 -22 -60 -22q-37 0 -59 22t-22 58zM408 1368q0 36 22 58t60 22q36 0 59 -23t23 -57t-24 -58q-22 -22 -59 -22t-59 22t-22 58zM387 -23q-105 0 -167 66t-62 193q0 37 6 79l106 756h117l-104 -741
q-6 -49 -7 -86q0 -168 136 -168q215 0 385 325l94 670h117l-150 -1071h-100l24 248q-84 -137 -187 -204t-208 -67z" />
    <glyph glyph-name="yacute" unicode="&#xfd;" horiz-adv-x="946" 
d="M408 1264l-31 69l403 215l49 -106zM94 1071h125l193 -977h4l442 977h129l-510 -1075q-88 -186 -199 -287q-112 -100 -305 -129l-4 96q145 27 239 106q93 79 161 218h-43z" />
    <glyph glyph-name="thorn" unicode="&#xfe;" horiz-adv-x="1179" 
d="M756 993q-199 0 -420 -383l-49 -360q94 -172 257 -172q164 0 274 172t110 481q0 133 -49 197t-123 65zM1053 733q-1 -346 -143 -551t-330 -205t-310 156l-75 -536l-119 -17l270 1927l119 15l-105 -740q195 311 418 312q123 0 199 -88t76 -273z" />
    <glyph glyph-name="ydieresis" unicode="&#xff;" horiz-adv-x="946" 
d="M707 1368q1 36 23 58t58 22t60 -23q22 -23 22 -57t-22 -58q-22 -22 -60 -22q-37 0 -59 22t-22 58zM322 1368q0 36 22 58t60 22q36 0 59 -23t23 -57t-24 -58q-22 -22 -59 -22t-59 22t-22 58zM94 1071h125l193 -977h4l442 977h129l-510 -1075q-88 -186 -199 -287
q-112 -100 -305 -129l-4 96q145 27 239 106q93 79 161 218h-43z" />
    <glyph glyph-name="Amacron" unicode="&#x100;" horiz-adv-x="1107" 
d="M932 1729l-12 -97h-480l13 97h479zM643 1294l-358 -813h520l-158 813h-4zM899 0l-74 379h-585l-166 -379h-129l633 1403h153l289 -1403h-121z" />
    <glyph glyph-name="amacron" unicode="&#x101;" horiz-adv-x="1169" 
d="M940 1462l-14 -96h-480l15 96h479zM452 80q91 0 183 77t166 224l78 561q-96 51 -215 51q-174 0 -302 -163t-126 -435q0 -159 62 -237t154 -78zM780 150q0 31 6 71q-162 -244 -362 -244q-139 0 -226 109t-87 309q0 317 161 508q162 190 398 191q172 0 334 -90l-107 -771
q-4 -23 -4 -67t18 -70q18 -25 60 -37l-33 -82q-158 27 -158 173z" />
    <glyph glyph-name="Abreve" unicode="&#x102;" horiz-adv-x="1107" 
d="M678 1567q-106 0 -169 60q-62 60 -67 140l82 21q35 -125 159 -125t194 125l73 -21q-22 -80 -94 -140t-178 -60zM643 1294l-358 -813h520l-158 813h-4zM899 0l-74 379h-585l-166 -379h-129l633 1403h153l289 -1403h-121z" />
    <glyph glyph-name="abreve" unicode="&#x103;" horiz-adv-x="1169" 
d="M680 1280q-106 0 -167 65q-60 65 -60 156l79 21q25 -146 154 -146t199 146l76 -21q-27 -93 -101 -157t-180 -64zM452 80q91 0 183 77t166 224l78 561q-96 51 -215 51q-174 0 -302 -163t-126 -435q0 -159 62 -237t154 -78zM780 150q0 31 6 71q-162 -244 -362 -244
q-139 0 -226 109t-87 309q0 317 161 508q162 190 398 191q172 0 334 -90l-107 -771q-4 -23 -4 -67t18 -70q18 -25 60 -37l-33 -82q-158 27 -158 173z" />
    <glyph glyph-name="Aogonek" unicode="&#x104;" horiz-adv-x="1107" 
d="M643 1294l-358 -813h520l-158 813h-4zM811 -270q0 -47 29 -75t88 -28t110 21l25 -78q-90 -33 -177 -33t-140 45q-52 45 -52 125t56 161t149 134l-74 377h-585l-166 -379h-129l633 1403h153l289 -1403q-98 -62 -154 -122t-55 -148z" />
    <glyph glyph-name="aogonek" unicode="&#x105;" horiz-adv-x="1169" 
d="M452 80q91 0 183 77t166 224l78 561q-96 51 -215 51q-174 0 -302 -163t-126 -435q0 -159 62 -237t154 -78zM766 -270q0 -47 29 -75t88 -28t110 21l25 -78q-90 -33 -177 -33t-140 45q-52 45 -52 126q-1 81 57 161t150 133q-78 41 -78 143q0 23 8 76q-162 -244 -362 -244
q-139 0 -226 109t-87 309q0 317 161 508q162 190 398 191q172 0 334 -90l-107 -771q-4 -23 -4 -67t18 -70q18 -25 60 -37l-33 -82q-172 -104 -172 -247z" />
    <glyph glyph-name="Cacute" unicode="&#x106;" horiz-adv-x="1128" 
d="M618 1550l-30 70l385 190l53 -106zM780 1321q-212 0 -362 -198t-150 -552q0 -247 104 -367t274 -120q171 0 317 117l57 -84q-168 -139 -388 -139t-356 150q-135 151 -135 447q1 399 187 625t448 225q216 0 357 -131l-80 -77q-127 104 -273 104z" />
    <glyph glyph-name="cacute" unicode="&#x107;" horiz-adv-x="970" 
d="M479 1264l-30 69l403 215l49 -106zM641 993q-168 -1 -287 -151t-118 -410q0 -172 78 -263t209 -91q132 0 263 94l50 -84q-156 -111 -332 -111t-285 120t-108 335q0 299 155 480q156 181 377 182q164 -1 303 -105l-61 -84q-106 88 -244 88z" />
    <glyph glyph-name="Ccircumflex" unicode="&#x108;" horiz-adv-x="1128" 
d="M795 1708l-263 -154l-51 64l289 199h61l244 -201l-59 -62zM780 1321q-212 0 -362 -198t-150 -552q0 -247 104 -367t274 -120q171 0 317 117l57 -84q-168 -139 -388 -139t-356 150q-135 151 -135 447q1 399 187 625t448 225q216 0 357 -131l-80 -77q-127 104 -273 104z
" />
    <glyph glyph-name="ccircumflex" unicode="&#x109;" horiz-adv-x="970" 
d="M686 1442l-268 -174l-45 63l291 219h61l240 -221l-64 -61zM641 993q-168 -1 -287 -151t-118 -410q0 -172 78 -263t209 -91q132 0 263 94l50 -84q-156 -111 -332 -111t-285 120t-108 335q0 299 155 480q156 181 377 182q164 -1 303 -105l-61 -84q-106 88 -244 88z" />
    <glyph glyph-name="Cdotaccent" unicode="&#x10a;" horiz-adv-x="1128" 
d="M700 1665q0 37 24 61t62 23q38 0 63 -24q23 -25 23 -61t-24 -60t-62 -23q-38 -1 -62 23t-24 61zM780 1321q-212 0 -362 -198t-150 -552q0 -247 104 -367t274 -120q171 0 317 117l57 -84q-168 -139 -388 -139t-356 150q-135 151 -135 447q1 399 187 625t448 225
q216 0 357 -131l-80 -77q-127 104 -273 104z" />
    <glyph glyph-name="cdotaccent" unicode="&#x10b;" horiz-adv-x="970" 
d="M676 1313q-39 1 -64 25t-24 61q0 37 24 61t64 25q40 0 64 -25q24 -26 24 -62t-24 -60t-64 -25zM641 993q-168 -1 -287 -151t-118 -410q0 -172 78 -263t209 -91q132 0 263 94l50 -84q-156 -111 -332 -111t-285 120t-108 335q0 299 155 480q156 181 377 182
q164 -1 303 -105l-61 -84q-106 88 -244 88z" />
    <glyph glyph-name="Ccaron" unicode="&#x10c;" horiz-adv-x="1128" 
d="M780 1663l262 154l52 -64l-289 -199h-62l-243 201l59 62zM780 1321q-212 0 -362 -198t-150 -552q0 -247 104 -367t274 -120q171 0 317 117l57 -84q-168 -139 -388 -139t-356 150q-135 151 -135 447q1 399 187 625t448 225q216 0 357 -131l-80 -77q-127 104 -273 104z" />
    <glyph glyph-name="ccaron" unicode="&#x10d;" horiz-adv-x="970" 
d="M674 1376l268 174l45 -63l-291 -219h-61l-240 221l64 61zM641 993q-168 -1 -287 -151t-118 -410q0 -172 78 -263t209 -91q132 0 263 94l50 -84q-156 -111 -332 -111t-285 120t-108 335q0 299 155 480q156 181 377 182q164 -1 303 -105l-61 -84q-106 88 -244 88z" />
    <glyph glyph-name="Dcaron" unicode="&#x10e;" horiz-adv-x="1290" 
d="M760 1663l262 154l51 -64l-289 -199h-61l-244 201l60 62zM442 102q291 0 450 194t159 552q0 233 -122 343t-366 109h-139l-145 -1198h163zM582 1403q292 0 444 -138t152 -415q0 -402 -193 -626t-553 -224h-287l172 1403h265z" />
    <glyph glyph-name="dcaron" unicode="&#x10f;" horiz-adv-x="1247" 
d="M1251 1560q0 44 28 68t67 25q40 0 62 -23q22 -22 22 -60t-50 -120l-102 -166h-72l86 207q-41 25 -41 69zM453 80q94 0 192 81t174 236l62 430q-95 166 -257 166q-162 1 -276 -155t-112 -443q0 -159 62 -237t155 -78zM111 395q0 323 145 511q144 188 334 188t307 -146
l82 574l115 -15l-211 -1507h-103l17 219q-160 -242 -371 -242q-141 1 -228 105t-87 313z" />
    <glyph glyph-name="Dcroat" unicode="&#x110;" horiz-adv-x="1294" 
d="M446 102q291 0 450 194t159 552q0 233 -122 343t-366 109h-139l-63 -528h372l-12 -98h-373l-69 -572h163zM586 1403q292 0 444 -138t152 -415q0 -402 -193 -626t-553 -224h-286l81 674h-178l13 98h178l78 631h264z" />
    <glyph glyph-name="dcroat" unicode="&#x111;" horiz-adv-x="1206" 
d="M453 80q94 0 192 81t174 236l62 430q-95 166 -257 166q-162 1 -276 -155t-112 -443q0 -159 62 -237t155 -78zM426 -23q-141 1 -228 105t-87 313q0 324 145 511q144 188 334 188t307 -146l43 299h-377l15 99h376l25 176l115 -15l-23 -161h158l-15 -99h-157l-174 -1247
h-103l17 219q-160 -242 -371 -242z" />
    <glyph glyph-name="Emacron" unicode="&#x112;" horiz-adv-x="1040" 
d="M948 1729l-12 -97h-479l12 97h479zM870 0h-725l172 1403h709l-29 -103h-573l-64 -522h498l-12 -102h-498l-69 -574h604z" />
    <glyph glyph-name="emacron" unicode="&#x113;" horiz-adv-x="1085" 
d="M928 1462l-15 -96h-479l15 96h479zM664 993q-158 0 -281 -130t-147 -341q319 12 471 100t151 224q0 70 -50 108t-144 39zM231 440q5 -362 303 -362q144 0 283 106l49 -80q-162 -127 -347 -127t-297 117t-111 326q0 297 164 485q165 188 397 189q137 0 224 -70t87 -178
q0 -168 -181 -279t-571 -127z" />
    <glyph glyph-name="Ebreve" unicode="&#x114;" horiz-adv-x="1040" 
d="M694 1567q-106 0 -169 60q-62 60 -66 140l82 21q35 -125 159 -125t193 125l74 -21q-23 -80 -95 -140t-178 -60zM870 0h-725l172 1403h709l-29 -103h-573l-64 -522h498l-12 -102h-498l-69 -574h604z" />
    <glyph glyph-name="ebreve" unicode="&#x115;" horiz-adv-x="1085" 
d="M668 1280q-106 0 -167 65q-60 65 -61 156l80 21q25 -146 154 -146t198 146l76 -21q-27 -94 -100 -158q-74 -63 -180 -63zM664 993q-158 0 -281 -130t-147 -341q319 12 471 100t151 224q0 70 -50 108t-144 39zM231 440q5 -362 303 -362q144 0 283 106l49 -80
q-162 -127 -347 -127t-297 117t-111 326q0 297 164 485q165 188 397 189q137 0 224 -70t87 -178q0 -168 -181 -279t-571 -127z" />
    <glyph glyph-name="Edotaccent" unicode="&#x116;" horiz-adv-x="1040" 
d="M614 1665q0 37 24 61t62 23q38 0 63 -24q23 -25 23 -61t-24 -60t-62 -23q-38 -1 -62 23t-24 61zM870 0h-725l172 1403h709l-29 -103h-573l-64 -522h498l-12 -102h-498l-69 -574h604z" />
    <glyph glyph-name="edotaccent" unicode="&#x117;" horiz-adv-x="1085" 
d="M678 1313q-39 1 -64 25t-24 61q0 37 24 61t64 25q40 0 64 -25q24 -26 24 -62t-24 -60t-64 -25zM664 993q-158 0 -281 -130t-147 -341q319 12 471 100t151 224q0 70 -50 108t-144 39zM231 440q5 -362 303 -362q144 0 283 106l49 -80q-162 -127 -347 -127t-297 117
t-111 326q0 297 164 485q165 188 397 189q137 0 224 -70t87 -178q0 -168 -181 -279t-571 -127z" />
    <glyph glyph-name="Eogonek" unicode="&#x118;" horiz-adv-x="1040" 
d="M662 -270q0 -47 28 -75t88 -28q59 0 111 21l24 -78q-91 -33 -177 -33t-139 45q-52 45 -52 125t54 159t146 134h-600l172 1403h709l-29 -103h-573l-64 -522h498l-12 -102h-498l-69 -574h604l-13 -102q-98 -58 -153 -120t-55 -150z" />
    <glyph glyph-name="eogonek" unicode="&#x119;" horiz-adv-x="1085" 
d="M664 993q-158 0 -281 -130t-147 -341q319 12 471 100t151 224q0 70 -50 108t-144 39zM231 440q5 -362 303 -362q144 0 283 106l49 -80q-94 -72 -190 -102q-211 -121 -211 -272q0 -47 29 -75t88 -28t110 21l25 -78q-90 -33 -177 -33t-140 45q-52 45 -52 121t45 149
t121 125q-184 4 -294 120t-109 323q0 297 164 485q165 188 397 189q137 0 224 -70t87 -178q0 -168 -181 -279t-571 -127z" />
    <glyph glyph-name="Ecaron" unicode="&#x11a;" horiz-adv-x="1040" 
d="M694 1663l262 154l52 -64l-289 -199h-62l-243 201l59 62zM870 0h-725l172 1403h709l-29 -103h-573l-64 -522h498l-12 -102h-498l-69 -574h604z" />
    <glyph glyph-name="ecaron" unicode="&#x11b;" horiz-adv-x="1085" 
d="M674 1376l268 174l45 -63l-291 -219h-61l-240 221l64 61zM664 993q-158 0 -281 -130t-147 -341q319 12 471 100t151 224q0 70 -50 108t-144 39zM231 440q5 -362 303 -362q144 0 283 106l49 -80q-162 -127 -347 -127t-297 117t-111 326q0 297 164 485q165 188 397 189
q137 0 224 -70t87 -178q0 -168 -181 -279t-571 -127z" />
    <glyph glyph-name="Gcircumflex" unicode="&#x11c;" horiz-adv-x="1267" 
d="M836 1708l-263 -154l-51 64l289 199h61l244 -201l-59 -62zM805 1321q-219 0 -378 -203t-159 -561q0 -231 106 -353t280 -122q173 0 304 76l62 499h-287l-2 103h420l-82 -666q-207 -117 -429 -117q-222 1 -360 149t-139 429q0 410 194 640t476 230q223 0 375 -139l-78 -76
q-125 111 -303 111z" />
    <glyph glyph-name="gcircumflex" unicode="&#x11d;" horiz-adv-x="1183" 
d="M723 1442l-268 -174l-45 63l290 219h62l239 -221l-63 -61zM238 408q0 -154 64 -231t157 -77q94 0 192 84t176 242l72 512q-98 55 -221 55q-176 0 -308 -162t-132 -423zM450 -420q-178 0 -370 101l45 90q166 -90 317 -90q281 0 330 352l29 213q-160 -248 -367 -248
q-137 0 -229 106t-92 304q0 309 168 497t401 189q180 -1 342 -95l-135 -966q-31 -221 -146 -337t-293 -116z" />
    <glyph glyph-name="Gbreve" unicode="&#x11e;" horiz-adv-x="1267" 
d="M818 1567q-106 0 -168 60t-66 140l82 21q34 -125 158 -125t194 125l74 -21q-23 -80 -95 -140q-73 -60 -179 -60zM805 1321q-219 0 -378 -203t-159 -561q0 -231 106 -353t280 -122q173 0 304 76l62 499h-287l-2 103h420l-82 -666q-207 -117 -429 -117q-222 1 -360 149
t-139 429q0 410 194 640t476 230q223 0 375 -139l-78 -76q-125 111 -303 111z" />
    <glyph glyph-name="gbreve" unicode="&#x11f;" horiz-adv-x="1183" 
d="M707 1280q-106 0 -167 65q-60 65 -61 156l80 21q25 -146 154 -146t198 146l76 -21q-27 -94 -100 -158q-74 -63 -180 -63zM238 408q0 -154 64 -231t157 -77q94 0 192 84t176 242l72 512q-98 55 -221 55q-176 0 -308 -162t-132 -423zM450 -420q-178 0 -370 101l45 90
q166 -90 317 -90q281 0 330 352l29 213q-160 -248 -367 -248q-137 0 -229 106t-92 304q0 309 168 497t401 189q180 -1 342 -95l-135 -966q-31 -221 -146 -337t-293 -116z" />
    <glyph glyph-name="Gdotaccent" unicode="&#x120;" horiz-adv-x="1267" 
d="M739 1665q0 37 24 61q25 24 63 23q38 0 62 -24q24 -25 24 -61t-24 -60t-63 -23q-39 -1 -63 23t-23 61zM805 1321q-219 0 -378 -203t-159 -561q0 -231 106 -353t280 -122q173 0 304 76l62 499h-287l-2 103h420l-82 -666q-207 -117 -429 -117q-222 1 -360 149t-139 429
q0 410 194 640t476 230q223 0 375 -139l-78 -76q-125 111 -303 111z" />
    <glyph glyph-name="gdotaccent" unicode="&#x121;" horiz-adv-x="1183" 
d="M700 1313q-40 1 -64 25t-24 61t25 61t63 25q38 0 64 -25q24 -26 24 -62t-24 -61q-25 -24 -64 -24zM238 408q0 -154 64 -231t157 -77q94 0 192 84t176 242l72 512q-98 55 -221 55q-176 0 -308 -162t-132 -423zM450 -420q-178 0 -370 101l45 90q166 -90 317 -90
q281 0 330 352l29 213q-160 -248 -367 -248q-137 0 -229 106t-92 304q0 309 168 497t401 189q180 -1 342 -95l-135 -966q-31 -221 -146 -337t-293 -116z" />
    <glyph glyph-name="uni0122" unicode="&#x122;" horiz-adv-x="1267" 
d="M487 -273q0 45 28 69t67 24q40 0 62 -23t22 -61t-50 -119l-102 -166h-72l86 207q-41 25 -41 69zM805 1321q-219 0 -378 -203t-159 -561q0 -231 106 -353t280 -122q173 0 304 76l62 499h-287l-2 103h420l-82 -666q-207 -117 -429 -117q-222 1 -360 149t-139 429
q0 410 194 640t476 230q223 0 375 -139l-78 -76q-125 111 -303 111z" />
    <glyph glyph-name="uni0123" unicode="&#x123;" horiz-adv-x="1183" 
d="M610 1388q0 38 49 119l103 166h72l-86 -207q40 -24 40 -68t-28 -69t-66 -25q-40 0 -62 24q-22 22 -22 60zM238 408q0 -154 64 -231t157 -77q94 0 192 84t176 242l72 512q-98 55 -221 55q-176 0 -308 -162t-132 -423zM450 -420q-178 0 -370 101l45 90q166 -90 317 -90
q281 0 330 352l29 213q-160 -248 -367 -248q-137 0 -229 106t-92 304q0 309 168 497t401 189q180 -1 342 -95l-135 -966q-31 -221 -146 -337t-293 -116z" />
    <glyph glyph-name="Hcircumflex" unicode="&#x124;" horiz-adv-x="1335" 
d="M807 1708l-262 -154l-51 64l288 199h62l243 -201l-59 -62zM1047 0h-121l84 688h-660l-84 -688h-121l172 1403h121l-76 -612h660l76 612h121z" />
    <glyph glyph-name="hcircumflex" unicode="&#x125;" horiz-adv-x="1171" 
d="M737 1749l-262 -154l-51 64l289 199h61l244 -201l-60 -62zM997 852q0 -37 -6 -84l-106 -768h-117l104 748q6 49 7 88q0 160 -127 159q-197 0 -416 -385l-84 -610h-117l211 1507l119 15l-105 -740q193 311 418 312q219 0 219 -242z" />
    <glyph glyph-name="Hbar" unicode="&#x126;" horiz-adv-x="1343" 
d="M367 791h659l33 270h-660zM1051 0h-121l84 688h-660l-84 -688h-120l129 1061h-142l13 90h141l31 252h120l-30 -252h659l31 252h121l-31 -252h141l-12 -90h-141z" />
    <glyph glyph-name="hbar" unicode="&#x127;" horiz-adv-x="1196" 
d="M1022 852q0 -37 -6 -84l-107 -768h-116l104 748q6 49 6 88q0 160 -127 159q-197 0 -414 -385l-86 -610h-116l174 1247h-158l14 99h158l23 161l118 15l-24 -176h377l-15 -99h-376l-64 -463q190 309 416 310q219 0 219 -242z" />
    <glyph glyph-name="Itilde" unicode="&#x128;" horiz-adv-x="555" 
d="M508 1587q-53 0 -121 46t-92 46q-61 0 -123 -90l-68 35q82 150 207 150q63 0 127 -46t86 -47q59 0 123 88l68 -34q-82 -148 -207 -148zM317 1403h121l-172 -1403h-121z" />
    <glyph glyph-name="itilde" unicode="&#x129;" horiz-adv-x="534" 
d="M475 1321q-53 0 -121 46t-92 46q-59 0 -123 -90l-65 35q82 150 209 149q63 0 128 -46t87 -46q57 0 120 88l68 -35q-84 -147 -211 -147zM276 1071h117l-149 -1071h-117z" />
    <glyph glyph-name="Imacron" unicode="&#x12a;" horiz-adv-x="555" 
d="M655 1729l-12 -97h-479l12 97h479zM317 1403h121l-172 -1403h-121z" />
    <glyph glyph-name="imacron" unicode="&#x12b;" horiz-adv-x="534" 
d="M627 1462l-15 -96h-479l14 96h480zM276 1071h117l-149 -1071h-117z" />
    <glyph glyph-name="Ibreve" unicode="&#x12c;" horiz-adv-x="555" 
d="M400 1567q-106 0 -168 60t-66 140l82 21q35 -125 159 -125t193 125l74 -21q-23 -80 -95 -140q-73 -60 -179 -60zM317 1403h121l-172 -1403h-121z" />
    <glyph glyph-name="ibreve" unicode="&#x12d;" horiz-adv-x="534" 
d="M367 1280q-106 0 -167 65q-60 65 -61 156l80 21q25 -146 154 -146t198 146l76 -21q-27 -94 -100 -158q-74 -63 -180 -63zM276 1071h117l-149 -1071h-117z" />
    <glyph glyph-name="Iogonek" unicode="&#x12e;" horiz-adv-x="555" 
d="M59 -270q0 -47 29 -75t88 -28t111 21l24 -78q-90 -33 -177 -33t-139 45t-52 125t55 160t147 133l172 1403h121l-172 -1403q-207 -125 -207 -270z" />
    <glyph glyph-name="iogonek" unicode="&#x12f;" horiz-adv-x="534" 
d="M379 1313q-39 1 -64 25t-24 61t25 61t63 25q39 0 63 -25q24 -26 25 -62q-1 -36 -25 -60t-63 -25zM35 -270q1 -47 29 -75t87 -28t111 21l25 -78q-90 -33 -177 -33t-140 45q-52 45 -52 126t57 162t152 134l149 1067h117l-149 -1071q-209 -117 -209 -270z" />
    <glyph glyph-name="Idotaccent" unicode="&#x130;" horiz-adv-x="555" 
d="M322 1665q0 37 24 61t62 23q38 0 62 -24q24 -25 24 -61t-24 -60t-62 -23q-38 -1 -62 23t-24 61zM317 1403h121l-172 -1403h-121z" />
    <glyph glyph-name="dotlessi" unicode="&#x131;" horiz-adv-x="534" 
d="M276 1071h117l-149 -1071h-117z" />
    <glyph glyph-name="IJ" unicode="&#x132;" horiz-adv-x="1144" 
d="M500 -279l-19 97q137 51 198 130q60 79 77 220l151 1235h121l-151 -1231q-25 -195 -108 -289t-269 -162zM317 1403h121l-172 -1403h-121z" />
    <glyph glyph-name="ij" unicode="&#x133;" horiz-adv-x="1093" 
d="M932 1313q-39 1 -64 25t-24 61q0 37 24 61t64 25q40 0 64 -25q24 -26 24 -62t-24 -60t-64 -25zM829 1071h117l-143 -1012q-29 -207 -101 -299t-260 -178l-34 94q145 68 200 142t76 219zM385 1313q-39 1 -63 25t-25 61q0 37 25 61q26 24 64 25q38 0 63 -25q25 -26 25 -62
t-25 -61q-25 -24 -64 -24zM283 1071h116l-149 -1071h-117z" />
    <glyph glyph-name="Jcircumflex" unicode="&#x134;" horiz-adv-x="577" 
d="M440 1708l-262 -154l-51 64l289 199h61l244 -201l-59 -62zM-68 -279l-18 97q137 51 198 130q60 79 76 220l152 1235h121l-152 -1231q-25 -195 -108 -289t-269 -162z" />
    <glyph glyph-name="jcircumflex" unicode="&#x135;" horiz-adv-x="536" 
d="M389 1442l-268 -174l-45 63l291 219h61l240 -221l-64 -61zM279 1071h116l-143 -1012q-28 -207 -100 -299t-261 -178l-34 94q145 68 200 142t76 219z" />
    <glyph glyph-name="uni0136" unicode="&#x136;" horiz-adv-x="1103" 
d="M393 -259q0 44 28 69q29 24 67 24t61 -22t23 -61q0 -38 -50 -120l-102 -166h-72l86 207q-41 25 -41 69zM317 1403h121l-172 -1403h-121zM1028 1403h146l-664 -651l526 -752h-143l-526 760z" />
    <glyph glyph-name="uni0137" unicode="&#x137;" horiz-adv-x="1048" 
d="M319 -273q0 45 28 69t67 24q40 0 62 -23t22 -61t-49 -119l-103 -166h-72l86 207q-41 25 -41 69zM793 1094q103 0 167 -60t64 -176q0 -117 -93 -221t-263 -160l231 -477h-135l-244 506q379 102 379 352q0 137 -139 137q-119 0 -248 -132t-184 -312l-76 -551h-117l211 1507
l119 15l-107 -750q174 322 435 322z" />
    <glyph glyph-name="kgreenlandic" unicode="&#x138;" horiz-adv-x="976" 
d="M852 1071h145l-518 -502l420 -569h-139l-418 573zM285 1071h116l-149 -1071h-117z" />
    <glyph glyph-name="Lacute" unicode="&#x139;" horiz-adv-x="962" 
d="M315 1550l-30 70l385 190l53 -106zM319 1403h121l-159 -1292h585l-28 -111h-691z" />
    <glyph glyph-name="lacute" unicode="&#x13a;" horiz-adv-x="544" 
d="M207 1591l-31 70l385 190l53 -106zM293 -23q-180 0 -150 211l185 1319l118 15l-188 -1342q-8 -57 8 -80q30 -43 135 -8l25 -84q-57 -31 -133 -31z" />
    <glyph glyph-name="uni013B" unicode="&#x13b;" horiz-adv-x="960" 
d="M352 -259q0 44 28 69q28 24 67 24t61 -22t22 -61q0 -38 -49 -120l-102 -166h-72l86 207q-41 25 -41 69zM317 1403h121l-159 -1292h585l-28 -111h-691z" />
    <glyph glyph-name="uni013C" unicode="&#x13c;" horiz-adv-x="544" 
d="M125 -273q0 45 28 69q29 24 67 24t61 -23t23 -61t-50 -119l-102 -166h-72l86 207q-41 25 -41 69zM293 -23q-180 0 -150 211l185 1319l118 15l-188 -1342q-8 -57 8 -80q30 -43 135 -8l25 -84q-57 -31 -133 -31z" />
    <glyph glyph-name="Lcaron" unicode="&#x13d;" horiz-adv-x="960" 
d="M686 1314q0 44 28 68t66 25q38 0 62 -23q22 -22 22 -60t-49 -120l-102 -166h-72l86 207q-41 25 -41 69zM317 1403h121l-159 -1292h585l-28 -111h-691z" />
    <glyph glyph-name="lcaron" unicode="&#x13e;" horiz-adv-x="544" 
d="M571 1560q0 44 28 68t67 25q40 0 62 -23q22 -22 22 -60t-50 -120l-102 -166h-72l86 207q-41 25 -41 69zM293 -23q-180 0 -150 211l185 1319l118 15l-188 -1342q-8 -57 8 -80q30 -43 135 -8l25 -84q-57 -31 -133 -31z" />
    <glyph glyph-name="Ldot" unicode="&#x13f;" horiz-adv-x="960" 
d="M823 657q-39 0 -63 25q-24 26 -25 62q0 36 25 61q26 25 64 25t63 -26q25 -24 25 -61t-26 -61q-24 -24 -63 -25zM317 1403h121l-159 -1292h585l-28 -111h-691z" />
    <glyph glyph-name="ldot" unicode="&#x140;" horiz-adv-x="544" 
d="M551 657q-39 0 -64 25q-25 26 -25 62t25 61t64 25t63 -26q24 -24 25 -61q-1 -37 -25 -61t-63 -25zM293 -23q-180 0 -150 211l185 1319l118 15l-188 -1342q-8 -57 8 -80q30 -43 135 -8l25 -84q-57 -31 -133 -31z" />
    <glyph glyph-name="Lslash" unicode="&#x141;" horiz-adv-x="964" 
d="M322 1403h120l-77 -633l399 229l45 -81l-459 -263l-67 -549h585l-28 -106h-690l69 580l-141 -80l-43 82l198 112z" />
    <glyph glyph-name="lslash" unicode="&#x142;" horiz-adv-x="587" 
d="M315 -23q-180 0 -149 211l63 461l-116 -65l-41 80l174 98l104 745l119 15l-96 -688l209 118l39 -80l-265 -151l-75 -541q-8 -57 8 -80q29 -42 135 -8l25 -84q-59 -31 -134 -31z" />
    <glyph glyph-name="Nacute" unicode="&#x143;" horiz-adv-x="1359" 
d="M643 1550l-31 70l385 190l54 -106zM1243 1403l-172 -1403h-151l-517 1274h-4q-8 -180 -65 -660l-74 -614h-115l172 1403h150l516 -1276h4q16 256 80 772l61 504h115z" />
    <glyph glyph-name="nacute" unicode="&#x144;" horiz-adv-x="1173" 
d="M500 1264l-31 69l403 215l50 -106zM778 1094q219 0 219 -240q0 -39 -6 -86l-106 -768h-117l104 748q6 49 7 88q0 160 -127 159q-199 0 -418 -391l-82 -604h-117l150 1071h100l-33 -299q193 322 426 322z" />
    <glyph glyph-name="uni0145" unicode="&#x145;" horiz-adv-x="1359" 
d="M670 -249q0 -38 -49 -120l-103 -166h-72l86 207q-40 25 -40 69t27 69q28 24 67 24q40 0 62 -22t22 -61zM1243 1403l-172 -1403h-151l-517 1274h-4q-8 -180 -65 -660l-74 -614h-115l172 1403h150l516 -1276h4q16 256 80 772l61 504h115z" />
    <glyph glyph-name="uni0146" unicode="&#x146;" horiz-adv-x="1173" 
d="M379 -273q0 45 28 69q29 24 67 24t61 -23t23 -61t-50 -119l-102 -166h-72l86 207q-41 25 -41 69zM778 1094q219 0 219 -240q0 -39 -6 -86l-106 -768h-117l104 748q6 49 7 88q0 160 -127 159q-199 0 -418 -391l-82 -604h-117l150 1071h100l-33 -299q193 322 426 322z" />
    <glyph glyph-name="Ncaron" unicode="&#x147;" horiz-adv-x="1359" 
d="M805 1663l262 154l51 -64l-289 -199h-61l-244 201l60 62zM1243 1403l-172 -1403h-151l-517 1274h-4q-8 -180 -65 -660l-74 -614h-115l172 1403h150l516 -1276h4q16 256 80 772l61 504h115z" />
    <glyph glyph-name="ncaron" unicode="&#x148;" horiz-adv-x="1173" 
d="M694 1376l269 174l45 -63l-291 -219h-62l-239 221l63 61zM778 1094q219 0 219 -240q0 -39 -6 -86l-106 -768h-117l104 748q6 49 7 88q0 160 -127 159q-199 0 -418 -391l-82 -604h-117l150 1071h100l-33 -299q193 322 426 322z" />
    <glyph glyph-name="napostrophe" unicode="&#x149;" horiz-adv-x="1173" 
d="M272 1580q0 44 28 69t67 25t61 -24q22 -22 23 -60q0 -38 -50 -120l-102 -165h-72l86 206q-41 25 -41 69zM778 1094q219 0 219 -240q0 -39 -6 -86l-106 -768h-117l104 748q6 49 7 88q0 160 -127 159q-199 0 -418 -391l-82 -604h-117l150 1071h100l-33 -299
q193 322 426 322z" />
    <glyph glyph-name="Eng" unicode="&#x14a;" horiz-adv-x="1359" 
d="M1243 1403l-168 -1374q-25 -195 -107 -289t-270 -162l-18 94q143 57 207 129q63 72 84 199h-51l-517 1274h-4q-8 -180 -65 -660l-74 -614h-115l172 1403h150l516 -1276h4q16 256 80 772l61 504h115z" />
    <glyph glyph-name="eng" unicode="&#x14b;" horiz-adv-x="1173" 
d="M778 1094q219 0 219 -240q0 -39 -6 -86l-98 -709q-29 -207 -101 -299t-260 -178l-34 94q145 68 200 142t76 219l98 711q6 49 7 88q0 160 -127 159q-199 0 -418 -391l-82 -604h-117l150 1071h100l-33 -299q193 322 426 322z" />
    <glyph glyph-name="Omacron" unicode="&#x14c;" horiz-adv-x="1388" 
d="M1073 1729l-12 -97h-479l12 97h479zM635 82q219 0 365 201t147 577q0 236 -99 348t-266 113q-221 0 -367 -202t-147 -578q0 -229 98 -344t269 -115zM1274 854q0 -385 -176 -631t-465 -246q-231 1 -361 147t-131 423q1 410 183 644t460 234q221 0 356 -148
q134 -149 134 -423z" />
    <glyph glyph-name="omacron" unicode="&#x14d;" horiz-adv-x="1157" 
d="M938 1462l-14 -96h-480l15 96h479zM639 995q-174 -1 -290 -153t-116 -432q0 -162 71 -248t200 -86q174 0 289 154t114 438q-1 160 -71 244t-197 83zM111 414q0 261 122 459q61 99 167 159t241 62q185 0 287 -114t102 -318q0 -308 -145 -496t-383 -189q-184 0 -288 116
q-103 116 -103 321z" />
    <glyph glyph-name="Obreve" unicode="&#x14e;" horiz-adv-x="1388" 
d="M818 1567q-106 0 -168 60t-66 140l82 21q34 -125 158 -125t194 125l74 -21q-23 -80 -95 -140q-73 -60 -179 -60zM635 82q219 0 365 201t147 577q0 236 -99 348t-266 113q-221 0 -367 -202t-147 -578q0 -229 98 -344t269 -115zM1274 854q0 -385 -176 -631t-465 -246
q-231 1 -361 147t-131 423q1 410 183 644t460 234q221 0 356 -148q134 -149 134 -423z" />
    <glyph glyph-name="obreve" unicode="&#x14f;" horiz-adv-x="1157" 
d="M678 1280q-106 0 -167 65q-60 65 -60 156l79 21q25 -146 154 -146t199 146l75 -21q-27 -94 -100 -158q-74 -63 -180 -63zM639 995q-174 -1 -290 -153t-116 -432q0 -162 71 -248t200 -86q174 0 289 154t114 438q-1 160 -71 244t-197 83zM111 414q0 261 122 459
q61 99 167 159t241 62q185 0 287 -114t102 -318q0 -308 -145 -496t-383 -189q-184 0 -288 116q-103 116 -103 321z" />
    <glyph glyph-name="Ohungarumlaut" unicode="&#x150;" horiz-adv-x="1388" 
d="M967 1567l-68 43l201 305l100 -62zM705 1571l-74 39l182 305l105 -55zM635 82q219 0 365 201t147 577q0 236 -99 348t-266 113q-221 0 -367 -202t-147 -578q0 -229 98 -344t269 -115zM1274 854q0 -385 -176 -631t-465 -246q-231 1 -361 147t-131 423q1 410 183 644
t460 234q221 0 356 -148q134 -149 134 -423z" />
    <glyph glyph-name="ohungarumlaut" unicode="&#x151;" horiz-adv-x="1157" 
d="M819 1280l-67 43l217 322l100 -62zM557 1284l-74 39l199 322l106 -56zM639 995q-174 -1 -290 -153t-116 -432q0 -162 71 -248t200 -86q174 0 289 154t114 438q-1 160 -71 244t-197 83zM111 414q0 261 122 459q61 99 167 159t241 62q185 0 287 -114t102 -318
q0 -308 -145 -496t-383 -189q-184 0 -288 116q-103 116 -103 321z" />
    <glyph glyph-name="OE" unicode="&#x152;" horiz-adv-x="1794" 
d="M621 82q207 0 345 200t138 572q0 236 -92 352t-246 115q-215 0 -357 -202t-143 -578q0 -227 94 -343t261 -116zM1221 848q0 -47 -2 -70h391l-13 -102h-387q-47 -385 -262 -574h688l-12 -102h-856q-74 -23 -150 -23q-225 1 -352 147t-127 423q0 410 179 644t450 234
q74 0 145 -22h867l-29 -103h-682q152 -151 152 -452z" />
    <glyph glyph-name="oe" unicode="&#x153;" horiz-adv-x="1871" 
d="M1446 993q-158 0 -281 -130t-147 -341q319 12 471 100t151 224q0 70 -50 108t-144 39zM639 995q-174 -1 -290 -153t-116 -432q0 -162 71 -248t200 -86q174 0 289 154t114 438q-1 160 -71 244t-197 83zM111 414q0 261 122 459q61 99 167 159t241 62q287 0 363 -277
q68 127 190 202q123 75 261 75t226 -70t88 -178q0 -168 -183 -279t-572 -127q0 -184 79 -273t223 -89t283 106l50 -80q-162 -127 -344 -127q-139 0 -239 71q-99 71 -142 200q-145 -270 -422 -271q-184 0 -288 116q-103 116 -103 321z" />
    <glyph glyph-name="Racute" unicode="&#x154;" horiz-adv-x="1185" 
d="M565 1550l-30 70l385 190l53 -106zM596 731q406 0 405 334q0 236 -344 235h-233l-70 -569h242zM666 1403q226 0 344 -86t118 -252t-103 -278t-302 -140l344 -647h-137l-324 631h-264l-76 -631h-121l172 1403h349z" />
    <glyph glyph-name="racute" unicode="&#x155;" horiz-adv-x="743" 
d="M344 1264l-31 69l404 215l49 -106zM725 1094q49 0 90 -11l-37 -114q-37 8 -65 8q-93 0 -185 -93t-198 -321l-78 -563h-117l150 1071h100l-37 -338q90 193 182 277t195 84z" />
    <glyph glyph-name="uni0156" unicode="&#x156;" horiz-adv-x="1185" 
d="M434 -259q0 44 28 69q28 24 66 24t62 -22q22 -22 22 -61q0 -38 -49 -120l-102 -166h-72l86 207q-41 25 -41 69zM596 731q406 0 405 334q0 236 -344 235h-233l-70 -569h242zM666 1403q226 0 344 -86t118 -252t-103 -278t-302 -140l344 -647h-137l-324 631h-264l-76 -631
h-121l172 1403h349z" />
    <glyph glyph-name="uni0157" unicode="&#x157;" horiz-adv-x="743" 
d="M68 -273q0 45 28 69t66 24q40 0 62 -23t22 -61t-49 -119l-103 -166h-71l86 207q-41 25 -41 69zM725 1094q49 0 90 -11l-37 -114q-37 8 -65 8q-93 0 -185 -93t-198 -321l-78 -563h-117l150 1071h100l-37 -338q90 193 182 277t195 84z" />
    <glyph glyph-name="Rcaron" unicode="&#x158;" horiz-adv-x="1185" 
d="M748 1663l262 154l51 -64l-289 -199h-61l-244 201l59 62zM596 731q406 0 405 334q0 236 -344 235h-233l-70 -569h242zM666 1403q226 0 344 -86t118 -252t-103 -278t-302 -140l344 -647h-137l-324 631h-264l-76 -631h-121l172 1403h349z" />
    <glyph glyph-name="rcaron" unicode="&#x159;" horiz-adv-x="743" 
d="M539 1376l268 174l45 -63l-291 -219h-61l-240 221l64 61zM725 1094q49 0 90 -11l-37 -114q-37 8 -65 8q-93 0 -185 -93t-198 -321l-78 -563h-117l150 1071h100l-37 -338q90 193 182 277t195 84z" />
    <glyph glyph-name="Sacute" unicode="&#x15a;" horiz-adv-x="1103" 
d="M516 1550l-31 70l385 190l54 -106zM629 1321q-147 0 -231 -68t-85 -169q1 -101 61 -156t256 -132t281 -167q84 -90 84 -219q0 -195 -130 -314t-351 -119q-141 1 -266 51t-203 132l82 84q162 -162 383 -162q166 0 262 89t96 232q0 101 -63 163t-260 136t-278 160t-81 228
t121 238q121 97 324 97q253 0 409 -145l-71 -84q-127 125 -340 125z" />
    <glyph glyph-name="sacute" unicode="&#x15b;" horiz-adv-x="929" 
d="M379 1264l-31 69l404 215l49 -106zM485 995q-102 0 -161 -47q-60 -47 -60 -121q0 -75 46 -121t201 -104t223 -134q68 -75 69 -179q1 -143 -99 -227t-286 -85q-110 -1 -222 45t-176 107l76 80q60 -55 150 -94t194 -39t172 57q66 57 66 143t-54 137q-54 52 -203 107
t-215 127q-66 71 -67 183q0 112 93 188t266 76t331 -109l-65 -86q-129 96 -279 96z" />
    <glyph glyph-name="Scircumflex" unicode="&#x15c;" horiz-adv-x="1103" 
d="M713 1708l-262 -154l-52 64l289 199h62l243 -201l-59 -62zM629 1321q-147 0 -231 -68t-85 -169q1 -101 61 -156t256 -132t281 -167q84 -90 84 -219q0 -195 -130 -314t-351 -119q-141 1 -266 51t-203 132l82 84q162 -162 383 -162q166 0 262 89t96 232q0 101 -63 163
t-260 136t-278 160t-81 228t121 238q121 97 324 97q253 0 409 -145l-71 -84q-127 125 -340 125z" />
    <glyph glyph-name="scircumflex" unicode="&#x15d;" horiz-adv-x="929" 
d="M584 1442l-269 -174l-45 63l291 219h62l239 -221l-63 -61zM485 995q-102 0 -161 -47q-60 -47 -60 -121q0 -75 46 -121t201 -104t223 -134q68 -75 69 -179q1 -143 -99 -227t-286 -85q-110 -1 -222 45t-176 107l76 80q60 -55 150 -94t194 -39t172 57q66 57 66 143t-54 137
q-54 52 -203 107t-215 127q-66 71 -67 183q0 112 93 188t266 76t331 -109l-65 -86q-129 96 -279 96z" />
    <glyph glyph-name="Scedilla" unicode="&#x15e;" horiz-adv-x="1103" 
d="M420 -373q116 0 115 94q0 76 -152 78l45 185q-242 25 -383 176l82 84q162 -162 383 -162q166 0 262 89t96 232q0 101 -63 163t-260 136t-278 160t-81 228t121 238q121 97 324 97q254 0 409 -145l-71 -84q-127 125 -340 125q-147 0 -231 -68t-85 -169q1 -101 61 -156
t256 -132t281 -167q84 -90 84 -219q0 -193 -130 -312t-349 -121l-18 -114q156 -18 155 -139q0 -82 -61 -134q-62 -52 -164 -53q-102 0 -180 47l53 78q59 -35 119 -35z" />
    <glyph glyph-name="scedilla" unicode="&#x15f;" horiz-adv-x="929" 
d="M352 -373q116 0 115 94q0 76 -152 78l43 183q-98 10 -191 52t-147 95l76 80q60 -55 150 -94t194 -39t172 57q66 57 66 143t-54 137q-54 52 -203 107t-215 127q-66 71 -67 183q0 112 93 188t266 76t331 -109l-65 -86q-129 96 -279 96q-102 0 -161 -47q-60 -47 -60 -121
q0 -75 46 -121t201 -104t223 -134t69 -196q0 -120 -91 -202t-263 -90l-19 -117q156 -18 156 -139q0 -82 -62 -134t-164 -53q-102 0 -180 47l53 78q59 -35 119 -35z" />
    <glyph glyph-name="Scaron" unicode="&#x160;" horiz-adv-x="1103" 
d="M698 1663l263 154l51 -64l-289 -199h-61l-244 201l59 62zM629 1321q-147 0 -231 -68t-85 -169q1 -101 61 -156t256 -132t281 -167q84 -90 84 -219q0 -195 -130 -314t-351 -119q-141 1 -266 51t-203 132l82 84q162 -162 383 -162q166 0 262 89t96 232q0 101 -63 163
t-260 136t-278 160t-81 228t121 238q121 97 324 97q253 0 409 -145l-71 -84q-127 125 -340 125z" />
    <glyph glyph-name="scaron" unicode="&#x161;" horiz-adv-x="929" 
d="M571 1376l269 174l45 -63l-291 -219h-62l-239 221l63 61zM485 995q-102 0 -161 -47q-60 -47 -60 -121q0 -75 46 -121t201 -104t223 -134q68 -75 69 -179q1 -143 -99 -227t-286 -85q-110 -1 -222 45t-176 107l76 80q60 -55 150 -94t194 -39t172 57q66 57 66 143t-54 137
q-54 52 -203 107t-215 127q-66 71 -67 183q0 112 93 188t266 76t331 -109l-65 -86q-129 96 -279 96z" />
    <glyph glyph-name="uni0162" unicode="&#x162;" horiz-adv-x="1013" 
d="M400 -373q114 0 114 94q0 76 -143 78l49 201h-41l158 1296h-414l14 107h950l-28 -107h-402l-174 -1433q80 -14 115 -47q35 -34 35 -104q1 -70 -61 -122t-164 -53q-102 0 -181 47l54 78q59 -35 119 -35z" />
    <glyph glyph-name="uni0163" unicode="&#x163;" horiz-adv-x="739" 
d="M330 -373q117 0 114 94q0 76 -151 78l47 191q-143 41 -143 223q0 39 6 82l98 686h-199l13 90h198l66 260l90 10l-39 -270h281l-25 -90h-268l-101 -709q-4 -23 -4 -59q0 -135 131 -135q74 0 170 53l43 -86q-109 -68 -231 -68l-18 -114q156 -18 155 -139q0 -82 -61 -134
q-62 -52 -164 -53q-102 0 -180 47l53 78q59 -35 119 -35z" />
    <glyph glyph-name="Tcaron" unicode="&#x164;" horiz-adv-x="1013" 
d="M633 1663l262 154l51 -64l-289 -199h-61l-244 201l60 62zM500 0h-121l158 1296h-414l14 107h950l-28 -107h-402z" />
    <glyph glyph-name="tcaron" unicode="&#x165;" horiz-adv-x="739" 
d="M659 1560q0 44 28 68t67 25q40 0 62 -23q22 -22 22 -60t-50 -120l-102 -166h-72l86 207q-41 25 -41 69zM313 213q0 -135 131 -135q74 0 170 53l43 -86q-109 -68 -225 -68q-236 0 -235 238q0 37 6 80l98 686h-199l13 90h198l66 260l90 10l-39 -270h281l-25 -90h-268
l-101 -709q-4 -23 -4 -59z" />
    <glyph glyph-name="Tbar" unicode="&#x166;" horiz-adv-x="1013" 
d="M500 0h-121l92 766h-254l12 98h254l54 432h-414l14 107h950l-28 -107h-402l-53 -432h254l-12 -98h-254z" />
    <glyph glyph-name="tbar" unicode="&#x167;" horiz-adv-x="739" 
d="M313 213q0 -135 131 -135q74 0 170 53l43 -86q-109 -68 -225 -68q-236 0 -235 238q0 37 6 80l45 319h-189l13 91h188l41 276h-199l13 90h198l66 260l90 10l-39 -270h281l-25 -90h-268l-39 -276h262l-12 -91h-264l-48 -342q-4 -23 -4 -59z" />
    <glyph glyph-name="Utilde" unicode="&#x168;" horiz-adv-x="1323" 
d="M893 1587q-53 0 -121 46t-92 46q-61 0 -123 -90l-68 35q82 150 207 150q62 0 126 -46t87 -47q59 0 123 88l68 -34q-82 -148 -207 -148zM299 375q0 -293 299 -293q344 0 389 371l117 950h121l-119 -957q-57 -469 -510 -469q-198 1 -310 101t-112 287q0 39 6 81l119 957
h121l-117 -950q-4 -27 -4 -78z" />
    <glyph glyph-name="utilde" unicode="&#x169;" horiz-adv-x="1157" 
d="M784 1321q-52 0 -120 46t-93 46q-59 0 -122 -90l-66 35q82 150 209 149q63 0 128 -46t87 -46q57 0 121 88l67 -35q-84 -147 -211 -147zM387 -23q-105 0 -167 66t-62 193q0 37 6 79l106 756h117l-104 -741q-6 -49 -7 -86q0 -168 136 -168q215 0 385 325l94 670h117
l-150 -1071h-100l24 248q-84 -137 -187 -204t-208 -67z" />
    <glyph glyph-name="Umacron" unicode="&#x16a;" horiz-adv-x="1323" 
d="M1040 1729l-12 -97h-479l12 97h479zM299 375q0 -293 299 -293q344 0 389 371l117 950h121l-119 -957q-57 -469 -510 -469q-198 1 -310 101t-112 287q0 39 6 81l119 957h121l-117 -950q-4 -27 -4 -78z" />
    <glyph glyph-name="umacron" unicode="&#x16b;" horiz-adv-x="1157" 
d="M936 1462l-14 -96h-480l15 96h479zM387 -23q-105 0 -167 66t-62 193q0 37 6 79l106 756h117l-104 -741q-6 -49 -7 -86q0 -168 136 -168q215 0 385 325l94 670h117l-150 -1071h-100l24 248q-84 -137 -187 -204t-208 -67z" />
    <glyph glyph-name="Ubreve" unicode="&#x16c;" horiz-adv-x="1323" 
d="M786 1567q-106 0 -169 60q-62 60 -66 140l82 21q35 -125 159 -125t193 125l74 -21q-23 -80 -95 -140t-178 -60zM299 375q0 -293 299 -293q344 0 389 371l117 950h121l-119 -957q-57 -469 -510 -469q-198 1 -310 101t-112 287q0 39 6 81l119 957h121l-117 -950
q-4 -27 -4 -78z" />
    <glyph glyph-name="ubreve" unicode="&#x16d;" horiz-adv-x="1157" 
d="M676 1280q-106 0 -167 65q-60 65 -60 156l79 21q25 -146 154 -146t199 146l75 -21q-27 -94 -100 -158q-74 -63 -180 -63zM387 -23q-105 0 -167 66t-62 193q0 37 6 79l106 756h117l-104 -741q-6 -49 -7 -86q0 -168 136 -168q215 0 385 325l94 670h117l-150 -1071h-100
l24 248q-84 -137 -187 -204t-208 -67z" />
    <glyph glyph-name="Uring" unicode="&#x16e;" horiz-adv-x="1323" 
d="M686 1697q0 -108 109 -108q51 0 83 37t32 92q-1 105 -101 105q-55 0 -89 -36t-34 -90zM793 1520q-92 0 -144 45q-51 45 -51 130t58 141t148 56t143 -46q52 -46 52 -129t-57 -140t-149 -57zM299 375q0 -293 299 -293q344 0 389 371l117 950h121l-119 -957
q-57 -469 -510 -469q-198 1 -310 101t-112 287q0 39 6 81l119 957h121l-117 -950q-4 -27 -4 -78z" />
    <glyph glyph-name="uring" unicode="&#x16f;" horiz-adv-x="1157" 
d="M805 1452q1 106 -105 104q-50 0 -85 -35q-33 -37 -33 -91t28 -80t80 -27q51 0 83 37t32 92zM895 1451q1 -83 -57 -141t-150 -57q-92 0 -143 45t-51 130q0 86 58 142t148 56t143 -46q52 -46 52 -129zM387 -23q-105 0 -167 66t-62 193q0 37 6 79l106 756h117l-104 -741
q-6 -49 -7 -86q0 -168 136 -168q215 0 385 325l94 670h117l-150 -1071h-100l24 248q-84 -137 -187 -204t-208 -67z" />
    <glyph glyph-name="Uhungarumlaut" unicode="&#x170;" horiz-adv-x="1323" 
d="M911 1567l-67 43l200 305l101 -62zM649 1571l-74 39l183 305l104 -55zM299 375q0 -293 299 -293q344 0 389 371l117 950h121l-119 -957q-57 -469 -510 -469q-198 1 -310 101t-112 287q0 39 6 81l119 957h121l-117 -950q-4 -27 -4 -78z" />
    <glyph glyph-name="uhungarumlaut" unicode="&#x171;" horiz-adv-x="1157" 
d="M797 1280l-68 43l217 322l101 -62zM535 1284l-74 39l198 322l107 -56zM387 -23q-105 0 -167 66t-62 193q0 37 6 79l106 756h117l-104 -741q-6 -49 -7 -86q0 -168 136 -168q215 0 385 325l94 670h117l-150 -1071h-100l24 248q-84 -137 -187 -204t-208 -67z" />
    <glyph glyph-name="Uogonek" unicode="&#x172;" horiz-adv-x="1323" 
d="M299 375q0 -293 299 -293q344 0 389 371l117 950h121l-119 -957q-43 -356 -320 -442q-217 -121 -217 -274q0 -47 29 -75t88 -28t111 21l24 -78q-90 -33 -177 -33t-139 45t-52 121t45 149t123 125h-25q-198 1 -310 101t-112 287q0 39 6 81l119 957h121l-117 -950
q-4 -27 -4 -78z" />
    <glyph glyph-name="uogonek" unicode="&#x173;" horiz-adv-x="1157" 
d="M649 -270q0 -47 29 -75t88 -28t111 21l24 -78q-90 -33 -177 -33t-139 45q-53 45 -53 128t62 167t164 137l24 234q-84 -137 -187 -204t-208 -67t-167 66t-62 193q0 37 6 79l106 756h117l-104 -741q-6 -49 -7 -86q0 -168 136 -168q215 0 385 325l94 670h117l-150 -1071
q-209 -117 -209 -270z" />
    <glyph glyph-name="Wcircumflex" unicode="&#x174;" horiz-adv-x="1622" 
d="M950 1708l-262 -154l-51 64l289 199h61l244 -201l-60 -62zM971 1403l162 -1272h4l422 1272h116l-477 -1403h-149l-158 1249h-4l-457 -1249h-149l-134 1403h119l103 -1272h4l465 1272h133z" />
    <glyph glyph-name="wcircumflex" unicode="&#x175;" horiz-adv-x="1425" 
d="M831 1442l-268 -174l-45 63l291 219h61l240 -221l-63 -61zM1329 1071h117l-412 -1071h-162l-104 948h-4l-375 -948h-156l-118 1071h118l89 -971h2l393 971h133l113 -969h6z" />
    <glyph glyph-name="Ycircumflex" unicode="&#x176;" horiz-adv-x="1050" 
d="M668 1708l-262 -154l-52 64l289 199h62l243 -201l-59 -62zM1010 1403h135l-559 -836l-70 -567h-121l68 565l-357 838h132l292 -725h5z" />
    <glyph glyph-name="ycircumflex" unicode="&#x177;" horiz-adv-x="946" 
d="M610 1442l-268 -174l-45 63l291 219h61l240 -221l-64 -61zM94 1071h125l193 -977h4l442 977h129l-510 -1075q-88 -186 -199 -287q-112 -100 -305 -129l-4 96q145 27 239 106q93 79 161 218h-43z" />
    <glyph glyph-name="Ydieresis" unicode="&#x178;" horiz-adv-x="1050" 
d="M764 1634q0 35 22 58q23 22 60 22q38 0 60 -22t22 -58t-23 -58t-59 -22t-60 22q-22 22 -22 58zM379 1634q0 35 22 58q23 22 60 22t59 -22t23 -58q0 -36 -23 -58q-24 -22 -60 -22t-58 22t-23 58zM1010 1403h135l-559 -836l-70 -567h-121l68 565l-357 838h132l292 -725h5z
" />
    <glyph glyph-name="Zacute" unicode="&#x179;" horiz-adv-x="1036" 
d="M481 1550l-30 70l385 190l53 -106zM874 106l-26 -106h-852l12 100l891 1198h-670l15 105h805l-13 -100l-891 -1197h729z" />
    <glyph glyph-name="zacute" unicode="&#x17a;" horiz-adv-x="862" 
d="M365 1264l-31 69l403 215l49 -106zM721 100l-27 -100h-719l13 90l721 881h-549l14 100h688l-12 -90l-721 -881h592z" />
    <glyph glyph-name="Zdotaccent" unicode="&#x17b;" horiz-adv-x="1036" 
d="M584 1665q0 37 24 61t62 23q38 0 62 -24q24 -25 24 -61t-24 -60t-62 -23q-38 -1 -62 23t-24 61zM874 106l-26 -106h-852l12 100l891 1198h-670l15 105h805l-13 -100l-891 -1197h729z" />
    <glyph glyph-name="zdotaccent" unicode="&#x17c;" horiz-adv-x="862" 
d="M561 1313q-39 1 -63 25t-25 61q0 37 25 61q26 24 64 25q38 0 63 -25q25 -26 25 -62t-25 -61q-25 -24 -64 -24zM721 100l-27 -100h-719l13 90l721 881h-549l14 100h688l-12 -90l-721 -881h592z" />
    <glyph glyph-name="Zcaron" unicode="&#x17d;" horiz-adv-x="1036" 
d="M664 1663l262 154l51 -64l-289 -199h-61l-244 201l59 62zM874 106l-26 -106h-852l12 100l891 1198h-670l15 105h805l-13 -100l-891 -1197h729z" />
    <glyph glyph-name="zcaron" unicode="&#x17e;" horiz-adv-x="862" 
d="M559 1376l268 174l45 -63l-290 -219h-62l-239 221l63 61zM721 100l-27 -100h-719l13 90l721 881h-549l14 100h688l-12 -90l-721 -881h592z" />
    <glyph glyph-name="florin" unicode="&#x192;" horiz-adv-x="671" 
d="M633 1522q119 0 252 -72l-45 -86q-111 57 -203 57t-136 -44t-57 -140l-20 -166h283l-27 -96h-268l-111 -916q-25 -207 -95 -299t-255 -178l-37 94q142 68 196 146t74 235l111 918h-199l13 96h198l23 172q35 279 303 279z" />
    <glyph glyph-name="AEacute" unicode="&#x1fc;" horiz-adv-x="1583" 
d="M879 1550l-31 70l385 190l53 -106zM705 1303l-412 -822h522l-106 822h-4zM879 0l-50 379h-587l-189 -379h-129l719 1403h864l-28 -103h-670l74 -522h508l-13 -102h-481l80 -574h469l-12 -102h-555z" />
    <glyph glyph-name="aeacute" unicode="&#x1fd;" horiz-adv-x="1695" 
d="M813 1264l-31 69l404 215l49 -106zM1274 993q-158 0 -281 -130t-147 -341q319 12 471 100t151 224q0 70 -50 108t-144 39zM375 78q205 0 356 219q-10 61 -10 121t10 129h-174q-387 0 -387 -277q0 -90 54 -141t151 -51zM554 1094q148 0 226 -60t88 -155q158 215 414 215
q137 0 224 -70t87 -178q0 -168 -181 -279t-570 -127q0 -182 79 -272t223 -90t283 106l50 -80q-162 -127 -344 -127q-131 1 -225 61t-134 171q-102 -127 -194 -179t-232 -52t-222 77q-83 78 -83 209q0 172 135 274t385 101h185l16 106q39 248 -221 248q-135 0 -297 -59
l-21 92q181 68 329 68z" />
    <glyph glyph-name="Oslashacute" unicode="&#x1fe;" horiz-adv-x="1388" 
d="M268 541q0 -289 156 -400l479 1162q-55 18 -121 18q-222 1 -368 -201t-146 -579zM635 82q219 0 365 201t147 577q0 291 -160 402l-477 -1164q49 -16 125 -16zM1274 847q0 -378 -176 -624t-465 -246q-86 0 -166 23l-100 -248l-107 29l115 258q-233 131 -234 508
q1 410 183 644t460 234q78 0 156 -22l107 256l104 -29l-117 -268q240 -137 240 -515zM596 1591l-31 70l385 190l54 -106z" />
    <glyph glyph-name="oslashacute" unicode="&#x1ff;" horiz-adv-x="1157" 
d="M907 668q0 190 -98 272l-391 -854q45 -10 86 -10q174 0 289 154q114 155 114 438zM639 995q-174 -1 -290 -153t-116 -432q0 -201 109 -285l389 856q-41 14 -92 14zM1030 662q0 -308 -145 -496t-383 -189q-55 0 -119 15l-109 -240l-94 31l113 246q-182 109 -182 377
t122 467q61 99 167 159t241 62q66 0 127 -17l104 232l97 -31l-113 -240q174 -104 174 -376zM479 1274l-30 69l403 216l49 -107z" />
    <glyph glyph-name="uni0218" unicode="&#x218;" horiz-adv-x="1103" 
d="M344 -273q0 45 28 69t66 24t62 -23q22 -23 22 -61t-49 -119l-102 -166h-72l86 207q-41 25 -41 69zM629 1321q-147 0 -231 -68t-85 -169q1 -101 61 -156t256 -132t281 -167q84 -90 84 -219q0 -195 -130 -314t-351 -119q-141 1 -266 51t-203 132l82 84q162 -162 383 -162
q166 0 262 89t96 232q0 101 -63 163t-260 136t-278 160t-81 228t121 238q121 97 324 97q253 0 409 -145l-71 -84q-127 125 -340 125z" />
    <glyph glyph-name="uni0219" unicode="&#x219;" horiz-adv-x="929" 
d="M256 -273q0 45 28 69t66 24t62 -23q22 -23 22 -61t-49 -119l-102 -166h-72l86 207q-41 25 -41 69zM485 995q-102 0 -161 -47q-60 -47 -60 -121q0 -75 46 -121t201 -104t223 -134q68 -75 69 -179q1 -143 -99 -227t-286 -85q-110 -1 -222 45t-176 107l76 80q60 -55 150 -94
t194 -39t172 57q66 57 66 143t-54 137q-54 52 -203 107t-215 127q-66 71 -67 183q0 112 93 188t266 76t331 -109l-65 -86q-129 96 -279 96z" />
    <glyph glyph-name="uni021A" unicode="&#x21a;" horiz-adv-x="1013" 
d="M319 -259q0 44 28 69q28 24 67 24q40 0 62 -22t22 -61q0 -38 -49 -120l-103 -166h-72l86 207q-41 25 -41 69zM500 0h-121l158 1296h-414l14 107h950l-28 -107h-402z" />
    <glyph glyph-name="uni021B" unicode="&#x21b;" horiz-adv-x="739" 
d="M244 -273q0 45 28 69t66 24q40 0 62 -23t22 -61t-49 -119l-103 -166h-71l86 207q-41 25 -41 69zM313 213q0 -135 131 -135q74 0 170 53l43 -86q-109 -68 -225 -68q-236 0 -235 238q0 37 6 80l98 686h-199l13 90h198l66 260l90 10l-39 -270h281l-25 -90h-268l-101 -709
q-4 -23 -4 -59z" />
    <glyph glyph-name="dotlessj" unicode="&#x237;" horiz-adv-x="536" 
d="M279 1071h116l-143 -1012q-28 -207 -100 -299t-261 -178l-34 94q145 68 200 142t76 219z" />
    <glyph glyph-name="circumflex" unicode="&#x2c6;" horiz-adv-x="714" 
d="M375 1442l-269 -174l-45 63l291 219h62l239 -221l-63 -61z" />
    <glyph glyph-name="caron" unicode="&#x2c7;" horiz-adv-x="714" 
d="M340 1376l268 174l45 -63l-291 -219h-61l-240 221l64 61z" />
    <glyph glyph-name="uni02C9" unicode="&#x2c9;" horiz-adv-x="602" 
d="M659 1462l-14 -96h-479l14 96h479z" />
    <glyph glyph-name="breve" unicode="&#x2d8;" horiz-adv-x="630" 
d="M289 1280q-106 0 -167 65q-60 65 -61 156l80 21q25 -146 154 -146t199 146l75 -21q-27 -94 -100 -158q-74 -63 -180 -63z" />
    <glyph glyph-name="dotaccent" unicode="&#x2d9;" horiz-adv-x="299" 
d="M150 1313q-39 1 -64 25t-25 61t25 61t64 25q40 0 64 -25q24 -26 24 -62t-24 -60t-64 -25z" />
    <glyph glyph-name="ring" unicode="&#x2da;" horiz-adv-x="524" 
d="M373 1452q0 106 -106 104q-50 0 -84 -36q-33 -36 -33 -90t28 -80t80 -27q51 0 83 37t32 92zM268 1626q90 0 142 -46t53 -129t-57 -141t-150 -57q-92 0 -143 45t-51 130q0 86 58 142t148 56z" />
    <glyph glyph-name="ogonek" unicode="&#x2db;" horiz-adv-x="491" 
d="M178 -270q0 -47 29 -75t88 -28t111 21l24 -78q-90 -33 -177 -33t-139 45t-53 121q1 109 91 207t223 141l20 -47q-217 -121 -217 -274z" />
    <glyph glyph-name="tilde" unicode="&#x2dc;" horiz-adv-x="735" 
d="M463 1321q-53 0 -121 46t-92 46q-59 0 -123 -90l-66 35q82 150 209 149q63 0 128 -46t87 -46q57 0 121 88l68 -35q-84 -147 -211 -147z" />
    <glyph glyph-name="hungarumlaut" unicode="&#x2dd;" horiz-adv-x="708" 
d="M397 1280l-67 43l217 322l100 -62zM135 1284l-74 39l199 322l107 -56z" />
    <glyph glyph-name="gravecomb" unicode="&#x300;" horiz-adv-x="0" 
d="M-242 1333l-30 -69l-422 178l49 106z" />
    <glyph glyph-name="acutecomb" unicode="&#x301;" horiz-adv-x="0" 
d="M-659 1264l-31 69l403 215l49 -106z" />
    <glyph glyph-name="uni0302" unicode="&#x302;" horiz-adv-x="0" 
d="M-539 1442l-268 -174l-45 63l291 219h61l240 -221l-64 -61z" />
    <glyph glyph-name="tildecomb" unicode="&#x303;" horiz-adv-x="0" 
d="M-379 1321q-53 0 -121 46t-92 46q-59 0 -123 -90l-65 35q82 150 209 149q63 0 128 -46t87 -46q57 0 120 88l68 -35q-84 -147 -211 -147z" />
    <glyph glyph-name="uni0304" unicode="&#x304;" horiz-adv-x="0" 
d="M-219 1462l-14 -96h-480l15 96h479z" />
    <glyph glyph-name="uni0306" unicode="&#x306;" horiz-adv-x="0" 
d="M-485 1280q-106 0 -167 65q-60 65 -61 156l80 21q25 -146 154 -146t198 146l76 -21q-27 -94 -100 -158q-74 -63 -180 -63z" />
    <glyph glyph-name="uni0307" unicode="&#x307;" horiz-adv-x="0" 
d="M-487 1313q-39 1 -64 25t-24 61t25 61t63 25q39 0 63 -25q24 -26 25 -62q-1 -36 -25 -60t-63 -25z" />
    <glyph glyph-name="uni0308" unicode="&#x308;" horiz-adv-x="0" 
d="M-354 1368q0 36 22 58t60 22t60 -23t22 -57t-23 -58q-23 -22 -59 -22t-60 22q-22 22 -22 58zM-739 1368q1 36 23 58t59 22t59 -23t23 -57q0 -34 -23 -58q-24 -22 -60 -22t-58 22t-23 58z" />
    <glyph glyph-name="uni030A" unicode="&#x30a;" horiz-adv-x="0" 
d="M-354 1452q0 106 -106 104q-50 0 -84 -36t-34 -90q0 -108 109 -107q51 0 83 37t32 92zM-459 1626q91 0 143 -46t52 -129t-58 -141t-149 -57q-92 0 -143 45q-52 45 -52 130q0 86 58 142t149 56z" />
    <glyph glyph-name="uni030B" unicode="&#x30b;" horiz-adv-x="0" 
d="M-356 1280l-68 43l217 322l101 -62zM-618 1284l-74 39l198 322l107 -56z" />
    <glyph glyph-name="uni030C" unicode="&#x30c;" horiz-adv-x="0" 
d="M-481 1376l268 174l45 -63l-291 -219h-61l-240 221l64 61z" />
    <glyph glyph-name="uni0312" unicode="&#x312;" horiz-adv-x="0" 
d="M-584 1388q0 38 49 119l103 166h72l-86 -207q40 -24 40 -68t-28 -69t-66 -25q-40 0 -62 24q-22 22 -22 60z" />
    <glyph glyph-name="uni0313" unicode="&#x313;" horiz-adv-x="0" 
d="M-543 1580q0 44 28 69t67 25q40 0 62 -24q22 -22 22 -60t-50 -120l-102 -165h-72l86 206q-41 25 -41 69z" />
    <glyph glyph-name="uni0326" unicode="&#x326;" horiz-adv-x="2" 
d="M-799 -273q0 45 28 69t67 24q40 0 62 -23t22 -61t-50 -119l-102 -166h-72l86 207q-41 25 -41 69z" />
    <glyph glyph-name="uni0327" unicode="&#x327;" horiz-adv-x="0" 
d="M-756 -373q114 0 115 94q0 76 -152 78l58 234h86l-29 -170q156 -18 156 -139q0 -82 -62 -134t-163 -53q-102 0 -181 47l54 78q58 -35 118 -35z" />
    <glyph glyph-name="uni0328" unicode="&#x328;" horiz-adv-x="0" 
d="M-752 -270q0 -47 29 -75t88 -28t111 21l24 -78q-90 -33 -177 -33t-139 45t-52 121q0 109 90 207t223 141l20 -47q-217 -121 -217 -274z" />
    <glyph glyph-name="uni0335" unicode="&#x335;" horiz-adv-x="0" 
d="M-4 590h-670l15 98h669z" />
    <glyph glyph-name="uni0336" unicode="&#x336;" horiz-adv-x="0" 
d="M-51 590h-1182l14 98h1182z" />
    <glyph glyph-name="tonos" unicode="&#x384;" horiz-adv-x="0" 
d="M-20 1227l-76 16l119 334l118 -23z" />
    <glyph glyph-name="dieresistonos" unicode="&#x385;" horiz-adv-x="0" 
d="M-348 1286q0 36 22 58t60 22t60 -23t22 -57t-23 -58q-23 -22 -59 -22t-60 22q-22 22 -22 58zM-760 1286q0 36 23 58t59 22t60 -23q22 -23 22 -57t-22 -58q-22 -22 -60 -22t-60 22t-22 58zM-414 1382l-78 17l107 303l121 -23z" />
    <glyph glyph-name="Alphatonos" unicode="&#x386;" horiz-adv-x="1107" 
d="M272 1081l-79 15l120 315l131 -22zM643 1294l-358 -813h520l-158 813h-4zM899 0l-74 379h-585l-166 -379h-129l633 1403h153l289 -1403h-121z" />
    <glyph glyph-name="Epsilontonos" unicode="&#x388;" horiz-adv-x="1046" 
d="M78 1081l-80 15l121 315l131 -22zM877 0h-725l172 1403h708l-28 -103h-574l-63 -522h497l-12 -102h-498l-69 -574h604z" />
    <glyph glyph-name="Etatonos" unicode="&#x389;" horiz-adv-x="1341" 
d="M78 1081l-80 15l121 315l131 -22zM1053 0h-121l84 688h-660l-84 -688h-120l172 1403h120l-75 -612h659l76 612h121z" />
    <glyph glyph-name="Iotatonos" unicode="&#x38a;" horiz-adv-x="555" 
d="M72 1081l-80 15l121 315l131 -22zM317 1403h121l-172 -1403h-121z" />
    <glyph glyph-name="Omicrontonos" unicode="&#x38c;" horiz-adv-x="1413" 
d="M180 1081l-80 15l121 315l131 -22zM659 82q219 0 366 201q146 201 146 577q0 236 -99 348t-265 113q-221 0 -367 -202t-147 -578q0 -229 97 -344t269 -115zM1298 854q0 -385 -176 -631t-465 -246q-231 1 -361 147t-130 423q0 410 182 644t461 234q221 -1 355 -149
t134 -422z" />
    <glyph glyph-name="Upsilontonos" unicode="&#x38e;" horiz-adv-x="1191" 
d="M35 1081l-80 15l121 315l131 -22zM1151 1403h135l-559 -836l-70 -567h-120l67 565l-356 838h131l293 -725h4z" />
    <glyph glyph-name="Omegatonos" unicode="&#x38f;" horiz-adv-x="1456" 
d="M180 1081l-80 15l121 315l131 -22zM190 588q0 379 184 608t460 229q221 0 355 -147t134 -425t-104 -460t-273 -278l-2 -6h264l-12 -109h-412l13 102q83 46 147 102t124 144q128 188 128 512q0 236 -99 348t-266 113q-215 0 -365 -198q-150 -199 -149 -531
q0 -332 250 -490l-12 -102h-412l13 109h270l2 6q-110 75 -174 199t-64 274z" />
    <glyph glyph-name="iotadieresistonos" unicode="&#x390;" horiz-adv-x="536" 
d="M492 1286q0 36 22 58t60 22q36 0 59 -23t23 -57t-24 -58q-22 -22 -59 -22t-59 22t-22 58zM80 1286q0 36 22 58t60 22t60 -23t22 -57t-23 -58q-23 -22 -59 -22t-60 22q-22 22 -22 58zM426 1382l-78 17l107 303l120 -23zM156 160q0 58 6 102l112 809h117l-112 -797
q-9 -66 -9 -95q-1 -58 78 -91l-26 -104q-166 53 -166 176z" />
    <glyph glyph-name="Alpha" unicode="&#x391;" horiz-adv-x="1107" 
d="M643 1294l-358 -813h520l-158 813h-4zM899 0l-74 379h-585l-166 -379h-129l633 1403h153l289 -1403h-121z" />
    <glyph glyph-name="Beta" unicode="&#x392;" horiz-adv-x="1224" 
d="M637 791q162 1 248 79t86 201t-80 176t-252 53h-215l-62 -509h275zM657 690h-307l-71 -588h274q195 0 296 87t101 247q0 122 -76 188t-217 66zM1096 1085q0 -123 -74 -213t-213 -124l-2 -7q129 -27 200 -107t70 -198q0 -208 -141 -322t-424 -114h-367l172 1403h322
q457 -1 457 -318z" />
    <glyph glyph-name="Gamma" unicode="&#x393;" horiz-adv-x="964" 
d="M266 0h-121l172 1403h721l-28 -109h-586z" />
    <glyph glyph-name="uni0394" unicode="&#x394;" horiz-adv-x="1107" 
d="M643 1296l-524 -1192h760l-232 1192h-4zM1020 0h-1075l633 1403h153z" />
    <glyph glyph-name="Epsilon" unicode="&#x395;" horiz-adv-x="1040" 
d="M870 0h-725l172 1403h709l-29 -103h-573l-64 -522h498l-12 -102h-498l-69 -574h604z" />
    <glyph glyph-name="Zeta" unicode="&#x396;" horiz-adv-x="1036" 
d="M874 106l-26 -106h-852l12 100l891 1198h-670l15 105h805l-13 -100l-891 -1197h729z" />
    <glyph glyph-name="Eta" unicode="&#x397;" horiz-adv-x="1335" 
d="M1047 0h-121l84 688h-660l-84 -688h-121l172 1403h121l-76 -612h660l76 612h121z" />
    <glyph glyph-name="Theta" unicode="&#x398;" horiz-adv-x="1388" 
d="M635 82q219 0 365 201t147 577q0 236 -99 348t-266 113q-221 0 -367 -202t-147 -578q0 -229 98 -344t269 -115zM1274 854q0 -385 -176 -631t-465 -246q-231 1 -361 147t-131 423q1 410 183 644t460 234q221 0 356 -148q134 -149 134 -423zM981 666h-559l12 98h559z" />
    <glyph glyph-name="Iota" unicode="&#x399;" horiz-adv-x="555" 
d="M317 1403h121l-172 -1403h-121z" />
    <glyph glyph-name="Kappa" unicode="&#x39a;" horiz-adv-x="1103" 
d="M317 1403h121l-172 -1403h-121zM1028 1403h146l-664 -651l526 -752h-143l-526 760z" />
    <glyph glyph-name="Lambda" unicode="&#x39b;" horiz-adv-x="1087" 
d="M633 1294l-559 -1294h-129l622 1403h154l278 -1403h-120l-242 1294h-4z" />
    <glyph glyph-name="Mu" unicode="&#x39c;" horiz-adv-x="1583" 
d="M1374 0h-110l10 535q8 420 20 737h-4l-493 -1106h-119l-227 1106h-5q-53 -283 -163 -811l-97 -461h-120l305 1403h161l216 -1088h8l481 1088h172z" />
    <glyph glyph-name="Nu" unicode="&#x39d;" horiz-adv-x="1359" 
d="M1243 1403l-172 -1403h-151l-517 1274h-4q-8 -180 -65 -660l-74 -614h-115l172 1403h150l516 -1276h4q16 256 80 772l61 504h115z" />
    <glyph glyph-name="Xi" unicode="&#x39e;" horiz-adv-x="976" 
d="M231 672l15 112h538l-14 -112h-539zM199 1403h790l-28 -113h-777zM813 0h-786l12 115h786z" />
    <glyph glyph-name="Omicron" unicode="&#x39f;" horiz-adv-x="1388" 
d="M635 82q219 0 365 201t147 577q0 236 -99 348t-266 113q-221 0 -367 -202t-147 -578q0 -229 98 -344t269 -115zM1274 854q0 -385 -176 -631t-465 -246q-231 1 -361 147t-131 423q1 410 183 644t460 234q221 0 356 -148q134 -149 134 -423z" />
    <glyph glyph-name="Pi" unicode="&#x3a0;" horiz-adv-x="1335" 
d="M1047 0h-121l157 1296h-659l-158 -1296h-121l172 1403h902z" />
    <glyph glyph-name="Rho" unicode="&#x3a1;" horiz-adv-x="1153" 
d="M578 649q424 0 423 393q0 258 -366 258h-211l-80 -651h234zM555 547h-223l-66 -547h-121l172 1403h320q492 0 491 -356q0 -233 -147 -367t-426 -133z" />
    <glyph glyph-name="Sigma" unicode="&#x3a3;" horiz-adv-x="919" 
d="M664 723l-9 -66l-508 -553h687l-13 -104h-835l10 88l559 614l-410 613l13 88h835l-14 -103h-698z" />
    <glyph glyph-name="Tau" unicode="&#x3a4;" horiz-adv-x="1013" 
d="M500 0h-121l158 1296h-414l14 107h950l-28 -107h-402z" />
    <glyph glyph-name="Upsilon" unicode="&#x3a5;" horiz-adv-x="1050" 
d="M1010 1403h135l-559 -836l-70 -567h-121l68 565l-357 838h132l292 -725h5z" />
    <glyph glyph-name="Phi" unicode="&#x3a6;" horiz-adv-x="1613" 
d="M233 643q0 -174 122 -282t350 -113l112 917q-270 -9 -427 -149t-157 -373zM1409 774q0 176 -121 280t-352 111l-113 -917q268 8 427 149t159 377zM1536 782q0 -284 -191 -452t-532 -178l-18 -152h-119l18 152q-284 10 -436 139t-152 346q0 279 192 445t531 178l19 143
h119l-19 -143q284 -10 436 -140t152 -338z" />
    <glyph glyph-name="Chi" unicode="&#x3a7;" horiz-adv-x="1054" 
d="M547 838h4l399 565h142l-476 -643l361 -760h-137l-299 672h-4l-459 -672h-144l537 754l-309 649h137z" />
    <glyph glyph-name="Psi" unicode="&#x3a8;" horiz-adv-x="1368" 
d="M236 858q0 -311 380 -336l109 881h119l-109 -883q213 12 332 116t141 279l62 488h121l-62 -496q-27 -219 -181 -349t-425 -138l-51 -420h-119l51 422q-242 14 -366 124t-125 296q0 39 6 78l59 483h121l-59 -477q-4 -49 -4 -68z" />
    <glyph glyph-name="uni03A9" unicode="&#x3a9;" horiz-adv-x="1429" 
d="M164 588q0 379 184 608t459 229q221 0 355 -147t134 -425t-104 -460t-272 -278l-2 -6h264l-13 -109h-411l12 102q402 221 399 758q0 236 -99 348t-265 113q-215 0 -365 -198q-150 -199 -150 -531t251 -490l-13 -102h-411l12 109h270l2 6q-109 75 -173 199t-64 274z" />
    <glyph glyph-name="Iotadieresis" unicode="&#x3aa;" horiz-adv-x="555" 
d="M514 1634q0 35 23 58q23 22 59 22t60 -22q22 -22 22 -58t-23 -58t-59 -22t-60 22q-22 22 -22 58zM129 1634q0 35 23 58q24 22 60 22t58 -22t23 -58q0 -36 -23 -58q-24 -22 -60 -22t-58 22t-23 58zM317 1403h121l-172 -1403h-121z" />
    <glyph glyph-name="Upsilondieresis" unicode="&#x3ab;" horiz-adv-x="1050" 
d="M762 1634q0 35 22 58q23 22 60 22q38 0 60 -22t22 -58t-23 -58t-59 -22t-60 22q-22 22 -22 58zM377 1634q0 35 22 58q23 22 60 22t59 -22t23 -58q0 -36 -23 -58q-24 -22 -60 -22t-58 22t-23 58zM1010 1403h135l-559 -836l-70 -567h-121l68 565l-357 838h132l292 -725h5z
" />
    <glyph glyph-name="alphatonos" unicode="&#x3ac;" horiz-adv-x="1173" 
d="M686 1227l-76 16l119 334l119 -23zM563 993q-131 0 -230 -147t-100 -424q-1 -170 57 -257t156 -87t187 99q90 99 180 360q-20 260 -84 358t-166 98zM111 422q0 305 131 488t313 184q137 0 222 -96t108 -322l6 -2l147 385l115 -35l-242 -485l56 -340q12 -86 69 -109
l-53 -113q-55 13 -83 61t-40 163l-18 178l-6 2q-92 -221 -192 -312t-230 -91q-131 0 -217 113q-86 114 -86 331z" />
    <glyph glyph-name="epsilontonos" unicode="&#x3ad;" horiz-adv-x="964" 
d="M621 1227l-76 16l119 334l118 -23zM541 997q-103 0 -161 -49t-58 -140t64 -145t187 -55h82l-30 -94h-74q-168 0 -256 -66t-88 -170q0 -204 250 -204q178 0 340 110l53 -78q-184 -129 -401 -129q-172 0 -270 78q-97 78 -97 202t79 204t222 104l2 6q-84 27 -135 95t-51 149
q0 127 92 203t273 76t339 -123l-69 -76q-123 102 -293 102z" />
    <glyph glyph-name="etatonos" unicode="&#x3ae;" horiz-adv-x="1181" 
d="M711 1227l-76 16l119 334l118 -23zM256 899q0 84 -12 162l114 16q25 -156 7 -301q193 317 423 318q217 0 218 -238q0 -41 -7 -88l-163 -1171l-117 -17l164 1168q6 49 6 88q0 160 -127 159q-199 0 -418 -391l-84 -604h-117l95 682q18 133 18 217z" />
    <glyph glyph-name="iotatonos" unicode="&#x3af;" horiz-adv-x="536" 
d="M385 1227l-76 16l119 334l119 -23zM156 160q0 58 6 102l112 809h117l-112 -797q-9 -66 -9 -95q-1 -58 78 -91l-26 -104q-166 53 -166 176z" />
    <glyph glyph-name="upsilondieresistonos" unicode="&#x3b0;" horiz-adv-x="1142" 
d="M795 1286q1 36 23 58t59 22t59 -23t22 -57t-22 -58q-22 -22 -60 -22q-36 0 -58 22t-23 58zM383 1286q0 36 23 58q24 22 60 22t58 -23t23 -57q0 -34 -23 -58q-24 -22 -60 -22t-58 22t-23 58zM729 1382l-78 17l107 303l121 -23zM1001 858q0 -881 -536 -881q-143 0 -221 76
t-78 211q0 35 6 72l102 735h117l-100 -721q-6 -39 -6 -74q0 -201 192 -200q179 0 291 175q113 175 113 591q-1 112 -11 229h119q12 -127 12 -213z" />
    <glyph glyph-name="alpha" unicode="&#x3b1;" horiz-adv-x="1173" 
d="M563 993q-131 0 -230 -147t-100 -424q-1 -170 57 -257t156 -87t187 99q90 99 180 360q-20 260 -84 358t-166 98zM111 422q0 305 131 488t313 184q137 0 222 -96t108 -322l6 -2l147 385l115 -35l-242 -485l56 -340q12 -86 69 -109l-53 -113q-55 13 -83 61t-40 163l-18 178
l-6 2q-92 -221 -192 -312t-230 -91q-131 0 -217 113q-86 114 -86 331z" />
    <glyph glyph-name="beta" unicode="&#x3b2;" 
d="M768 1427q-160 -1 -289 -153t-192 -475q392 144 527 261q67 58 91 108q25 50 25 116t-42 104t-120 39zM250 446q0 -370 296 -370q146 0 250 118q105 118 105 322q0 147 -73 220q-72 73 -196 73t-362 -107q-20 -180 -20 -256zM133 465q0 343 141 675q72 166 204 274
t302 108q119 0 195 -65t76 -173q0 -254 -387 -393l-2 -6q367 -20 366 -361q0 -236 -142 -392t-346 -155q-408 0 -407 488z" />
    <glyph glyph-name="gamma" unicode="&#x3b3;" horiz-adv-x="933" 
d="M362 -266q0 -63 17 -150l-96 -12q-27 86 -27 188t70 279q-37 387 -98 607q-60 220 -179 409l123 39q98 -162 154 -372t80 -550h4l460 918l123 -27l-549 -1024q-82 -158 -82 -305z" />
    <glyph glyph-name="delta" unicode="&#x3b4;" horiz-adv-x="1153" 
d="M895 539q1 137 -63 229t-222 178q-375 -135 -374 -536q0 -158 76 -246t204 -88q168 0 274 124q105 124 105 339zM1020 543q0 -252 -142 -409t-368 -157q-182 0 -291 116t-109 328t114 357t306 207l2 6q-129 79 -173 141t-44 158t87 164t239 68q195 0 371 -136l-74 -75
q-129 117 -295 116q-102 0 -154 -38q-51 -39 -51 -101t45 -114q45 -50 205 -144q332 -197 332 -487z" />
    <glyph glyph-name="epsilon" unicode="&#x3b5;" horiz-adv-x="964" 
d="M541 997q-103 0 -161 -49t-58 -140t64 -145t187 -55h82l-30 -94h-74q-168 0 -256 -66t-88 -170q0 -204 250 -204q178 0 340 110l53 -78q-184 -129 -401 -129q-172 0 -270 78q-97 78 -97 202t79 204t222 104l2 6q-84 27 -135 95t-51 149q0 127 92 203t273 76t339 -123
l-69 -76q-123 102 -293 102z" />
    <glyph glyph-name="zeta" unicode="&#x3b6;" horiz-adv-x="776" 
d="M90 453q0 197 164 427t442 429l-2 6q-63 -31 -146 -31t-159 46t-115 140l93 52q63 -150 237 -150q129 0 283 109l51 -66q-381 -309 -552 -528t-171 -434q0 -102 53 -169q54 -67 190 -122q136 -56 191 -112t56 -132q0 -115 -82 -200t-250 -162l-43 92q119 53 182 109
t63 125t-34 103q-35 33 -146 78q-161 63 -233 155t-72 235z" />
    <glyph glyph-name="eta" unicode="&#x3b7;" horiz-adv-x="1181" 
d="M256 899q0 84 -12 162l114 16q25 -156 7 -301q193 317 423 318q217 0 218 -238q0 -41 -7 -88l-163 -1171l-117 -17l164 1168q6 49 6 88q0 160 -127 159q-199 0 -418 -391l-84 -604h-117l95 682q18 133 18 217z" />
    <glyph glyph-name="theta" unicode="&#x3b8;" horiz-adv-x="1138" 
d="M686 1423q-162 1 -259 -149t-148 -471h641q16 141 16 233q0 387 -250 387zM502 76q162 0 258 154t145 481h-641q-16 -141 -16 -234q0 -401 254 -401zM688 1522q182 0 274 -133t91 -383q0 -115 -19 -250q-109 -778 -536 -779q-369 0 -369 515q1 102 21 260
q109 770 538 770z" />
    <glyph glyph-name="iota" unicode="&#x3b9;" horiz-adv-x="536" 
d="M156 160q0 58 6 102l112 809h117l-112 -797q-9 -66 -9 -95q-1 -58 78 -91l-26 -104q-166 53 -166 176z" />
    <glyph glyph-name="kappa" unicode="&#x3ba;" horiz-adv-x="991" 
d="M305 1314q0 108 -20 191l116 17q39 -159 -2 -461l-147 -1061h-117l150 1065q20 141 20 249zM872 1100l84 -70l-469 -450l273 -361q53 -71 84 -97t74 -40l-50 -102q-92 33 -168 133l-356 469z" />
    <glyph glyph-name="lambda" unicode="&#x3bb;" horiz-adv-x="968" 
d="M88 -18l-115 43l527 1079l45 -12q-23 168 -86 236t-217 99l26 97q199 -42 288 -142t103 -313q35 -483 75 -683t126 -347l-104 -62q-92 152 -135 372t-58 652l-6 3z" />
    <glyph glyph-name="uni03BC" unicode="&#x3bc;" horiz-adv-x="1173" 
d="M438 -23q-88 0 -132 27t-73 92l-6 -2q4 -36 4 -108t-26 -258l-19 -131l-110 -13l209 1487h116l-104 -741q-6 -43 -6 -80q0 -174 149 -174q186 0 371 321l94 674h117l-90 -643q-20 -150 -20 -243t18 -185l-103 -18q-31 112 -20 286q-70 -127 -175 -209q-106 -82 -194 -82z
" />
    <glyph glyph-name="nu" unicode="&#x3bd;" horiz-adv-x="935" 
d="M61 1051l121 41q190 -330 203 -983h4l469 985l113 -41l-531 -1053h-137q-29 397 -83 644q-55 247 -159 407z" />
    <glyph glyph-name="xi" unicode="&#x3be;" horiz-adv-x="858" 
d="M94 501q0 155 91 261t264 147l2 6q-86 41 -135 116q-48 75 -48 159q0 154 106 243t290 89q185 0 335 -115l-73 -76q-116 94 -256 94q-140 1 -210 -65t-69 -175q0 -109 65 -171t171 -62h102l-27 -94h-102q-170 0 -274 -101t-105 -257q-1 -113 61 -184t234 -141
q172 -71 226 -125q52 -54 53 -132q0 -115 -82 -200t-250 -162l-43 92q119 53 182 109q64 56 64 123q0 68 -35 102t-146 81q-213 79 -302 181t-89 257z" />
    <glyph glyph-name="omicron" unicode="&#x3bf;" horiz-adv-x="1157" 
d="M639 995q-174 -1 -290 -153t-116 -432q0 -162 71 -248t200 -86q174 0 289 154t114 438q-1 160 -71 244t-197 83zM111 414q0 261 122 459q61 99 167 159t241 62q185 0 287 -114t102 -318q0 -308 -145 -496t-383 -189q-184 0 -288 116q-103 116 -103 321z" />
    <glyph glyph-name="pi" unicode="&#x3c0;" horiz-adv-x="1222" 
d="M963 -16q-166 52 -166 176q0 58 6 102l98 709h-444l-135 -971h-117l135 971h-180l14 100h778q154 0 242 25l18 -99q-84 -23 -194 -26l-98 -697q-8 -66 -8 -95q-1 -58 77 -91z" />
    <glyph glyph-name="rho" unicode="&#x3c1;" horiz-adv-x="1144" 
d="M516 78q166 0 274 156t107 456q0 156 -67 231t-173 74q-143 1 -234 -107t-128 -372l-39 -268q94 -170 260 -170zM1022 696q0 -326 -141 -522t-327 -197q-186 0 -314 154l-74 -534l-119 -17l129 926q45 319 164 453t326 135q158 0 257 -104t99 -294z" />
    <glyph glyph-name="sigma1" unicode="&#x3c2;" horiz-adv-x="929" 
d="M629 1094q164 0 301 -103l-62 -82q-109 84 -254 84t-258 -131t-112 -344q0 -137 53 -215t196 -137q143 -58 197 -114t55 -134q1 -115 -81 -200t-250 -162l-43 92q119 53 182 109t63 124t-33 102q-34 33 -147 80q-172 75 -246 179t-73 270q0 254 150 418q151 164 362 164z
" />
    <glyph glyph-name="sigma" unicode="&#x3c3;" horiz-adv-x="1175" 
d="M907 639q0 121 -41 216t-106 146q-272 -10 -400 -151t-127 -440q0 -168 73 -251t200 -83q166 0 284 148q117 149 117 415zM1030 641q0 -301 -150 -482t-374 -182q-184 0 -290 114q-105 114 -105 325q0 322 169 498t441 178q19 0 184 -5q121 0 236 33l14 -94
q-113 -31 -272 -18l-2 -7q69 -55 109 -153t40 -207z" />
    <glyph glyph-name="tau" unicode="&#x3c4;" horiz-adv-x="888" 
d="M485 -16q-166 52 -166 176q0 58 7 102l98 709h-365l15 100h616q154 0 242 25l18 -99q-104 -26 -321 -26h-88l-99 -697q-8 -66 -8 -95q0 -58 78 -91z" />
    <glyph glyph-name="upsilon" unicode="&#x3c5;" horiz-adv-x="1142" 
d="M1001 858q0 -881 -536 -881q-143 0 -221 76t-78 211q0 35 6 72l102 735h117l-100 -721q-6 -39 -6 -74q0 -201 192 -200q179 0 291 175q113 175 113 591q-1 112 -11 229h119q12 -127 12 -213z" />
    <glyph glyph-name="phi" unicode="&#x3c6;" horiz-adv-x="1503" 
d="M1257 756q0 125 -53 185t-135 60q-113 -1 -176 -85t-96 -322l-74 -520q252 14 393 188t141 494zM256 401q0 -161 85 -239t269 -88l74 522q39 276 132 387t259 111q131 0 215 -86t84 -248q0 -362 -177 -566t-486 -214l-54 -383l-114 -17l55 400q-461 29 -461 413
q0 299 199 678h117q-197 -389 -197 -670z" />
    <glyph glyph-name="chi" unicode="&#x3c7;" horiz-adv-x="899" 
d="M434 467h4l385 627l105 -43l-432 -666l247 -764l-106 -41l-211 703h-4l-412 -703l-106 41l458 752q-45 186 -128 373t-175 307l115 41q176 -252 260 -627z" />
    <glyph glyph-name="psi" unicode="&#x3c8;" horiz-adv-x="1519" 
d="M168 342q0 43 4 66l94 663h117l-92 -649q-6 -37 -6 -72q0 -128 86 -196t272 -76l139 987q40 282 0 440l113 17q20 -82 20 -186t-22 -275l-137 -985q266 12 384 182t117 584q0 113 -10 229h119q10 -102 10 -207q0 -460 -152 -668t-483 -219l-53 -380l-115 -17l56 400
q-225 14 -343 108t-118 254z" />
    <glyph glyph-name="omega" unicode="&#x3c9;" horiz-adv-x="1603" 
d="M1462 686q0 -344 -123 -526t-319 -183q-246 0 -260 261h-4q-94 -260 -332 -261q-293 0 -293 351q0 194 65 398t150 345h119q-87 -153 -151 -353t-64 -380q0 -262 188 -262q106 0 187 83q80 83 102 253l43 315l121 16l-47 -331q-8 -49 -8 -103q0 -233 192 -233
q137 0 225 144t88 460q0 162 -59 391h119q61 -188 61 -385z" />
    <glyph glyph-name="iotadieresis" unicode="&#x3ca;" horiz-adv-x="536" 
d="M483 1368q0 36 23 58q24 22 60 22t59 -23t23 -57t-24 -58q-22 -22 -59 -22t-59 22t-23 58zM98 1368q0 36 23 58t59 22t60 -23q22 -23 22 -57t-22 -58q-22 -22 -60 -22t-60 22t-22 58zM156 160q0 58 6 102l112 809h117l-112 -797q-9 -66 -9 -95q-1 -58 78 -91l-26 -104
q-166 53 -166 176z" />
    <glyph glyph-name="upsilondieresis" unicode="&#x3cb;" horiz-adv-x="1142" 
d="M786 1368q0 36 23 58t59 22t60 -23q22 -23 22 -57t-22 -58q-22 -22 -60 -22t-60 22t-22 58zM401 1368q0 36 23 58q24 22 60 22t59 -23t23 -57t-24 -58q-22 -22 -59 -22t-59 22t-23 58zM1001 858q0 -881 -536 -881q-143 0 -221 76t-78 211q0 35 6 72l102 735h117
l-100 -721q-6 -39 -6 -74q0 -201 192 -200q179 0 291 175q113 175 113 591q-1 112 -11 229h119q12 -127 12 -213z" />
    <glyph glyph-name="omicrontonos" unicode="&#x3cc;" horiz-adv-x="1157" 
d="M696 1227l-75 16l118 334l119 -23zM639 995q-174 -1 -290 -153t-116 -432q0 -162 71 -248t200 -86q174 0 289 154t114 438q-1 160 -71 244t-197 83zM111 414q0 261 122 459q61 99 167 159t241 62q185 0 287 -114t102 -318q0 -308 -145 -496t-383 -189q-184 0 -288 116
q-103 116 -103 321z" />
    <glyph glyph-name="upsilontonos" unicode="&#x3cd;" horiz-adv-x="1142" 
d="M688 1227l-76 16l119 334l119 -23zM1001 858q0 -881 -536 -881q-143 0 -221 76t-78 211q0 35 6 72l102 735h117l-100 -721q-6 -39 -6 -74q0 -201 192 -200q179 0 291 175q113 175 113 591q-1 112 -11 229h119q12 -127 12 -213z" />
    <glyph glyph-name="omegatonos" unicode="&#x3ce;" horiz-adv-x="1603" 
d="M928 1227l-76 16l119 334l119 -23zM1462 686q0 -344 -123 -526t-319 -183q-246 0 -260 261h-4q-94 -260 -332 -261q-293 0 -293 351q0 194 65 398t150 345h119q-87 -153 -151 -353t-64 -380q0 -262 188 -262q106 0 187 83q80 83 102 253l43 315l121 16l-47 -331
q-8 -49 -8 -103q0 -233 192 -233q137 0 225 144t88 460q0 162 -59 391h119q61 -188 61 -385z" />
    <glyph glyph-name="uni0401" unicode="&#x401;" horiz-adv-x="1040" 
d="M809 1634q0 35 22 58q23 22 60 22t59 -22t23 -58q0 -36 -23 -58q-24 -22 -60 -22t-58 22t-23 58zM424 1634q0 35 22 58q23 22 60 22q38 0 60 -22t22 -58t-23 -58t-59 -22t-60 22q-22 22 -22 58zM870 0h-725l172 1403h709l-29 -103h-573l-64 -522h498l-12 -102h-498
l-69 -574h604z" />
    <glyph glyph-name="uni0402" unicode="&#x402;" horiz-adv-x="1441" 
d="M1010 872q311 0 311 -329q0 -47 -6 -103l-31 -268q-24 -193 -108 -288t-269 -163l-18 97q137 51 197 130t77 220l31 266q6 49 6 92q0 130 -56 186t-170 56t-222 -56t-183 -139l-69 -573h-121l158 1296h-414l14 107h950l-28 -107h-402l-73 -608q201 184 426 184z" />
    <glyph glyph-name="uni0403" unicode="&#x403;" horiz-adv-x="964" 
d="M535 1550l-31 70l385 190l53 -106zM266 0h-121l172 1403h721l-28 -109h-586z" />
    <glyph glyph-name="uni0404" unicode="&#x404;" horiz-adv-x="1142" 
d="M759 1321q-167 0 -302 -142t-174 -407h561l-13 -102h-561q-2 -33 -2 -99q0 -247 100 -367t274 -120q175 0 321 117l57 -84q-168 -139 -392 -139t-356 149q-131 150 -131 448q1 401 181 625t446 225q224 0 365 -131l-80 -77q-127 104 -294 104z" />
    <glyph glyph-name="uni0405" unicode="&#x405;" horiz-adv-x="1103" 
d="M629 1321q-147 0 -231 -68t-85 -169q1 -101 61 -156t256 -132t281 -167q84 -90 84 -219q0 -195 -130 -314t-351 -119q-141 1 -266 51t-203 132l82 84q162 -162 383 -162q166 0 262 89t96 232q0 101 -63 163t-260 136t-278 160t-81 228t121 238q121 97 324 97
q253 0 409 -145l-71 -84q-127 125 -340 125z" />
    <glyph glyph-name="uni0406" unicode="&#x406;" horiz-adv-x="555" 
d="M317 1403h121l-172 -1403h-121z" />
    <glyph glyph-name="uni0407" unicode="&#x407;" horiz-adv-x="555" 
d="M514 1634q0 35 23 58q23 22 59 22t60 -22q22 -22 22 -58t-23 -58t-59 -22t-60 22q-22 22 -22 58zM129 1634q0 35 23 58q24 22 60 22t58 -22t23 -58q0 -36 -23 -58q-24 -22 -60 -22t-58 22t-23 58zM317 1403h121l-172 -1403h-121z" />
    <glyph glyph-name="uni0408" unicode="&#x408;" horiz-adv-x="577" 
d="M-68 -279l-18 97q137 51 198 130q60 79 76 220l152 1235h121l-152 -1231q-25 -195 -108 -289t-269 -162z" />
    <glyph glyph-name="uni0409" unicode="&#x409;" horiz-adv-x="1818" 
d="M1182 102q208 0 318 98t110 283q0 137 -92 204t-289 67h-174l-80 -652h207zM1237 856q244 0 372 -94t128 -275q1 -231 -143 -359t-431 -128h-321l157 1296h-456l-103 -419q-86 -353 -144 -517t-120 -240t-182 -143l-45 101q86 56 134 120q97 129 234 681l132 524h686
l-68 -547h170z" />
    <glyph glyph-name="uni040A" unicode="&#x40a;" horiz-adv-x="1880" 
d="M1245 102q207 0 317 98t109 271q0 129 -91 189t-290 61h-174l-78 -619h207zM1298 823q246 0 373 -89t127 -257q0 -223 -143 -350t-428 -127h-322l88 721h-639l-88 -721h-121l172 1403h121l-71 -580h639l71 580h121l-70 -580h170z" />
    <glyph glyph-name="uni040B" unicode="&#x40b;" horiz-adv-x="1441" 
d="M1010 872q311 0 311 -329q0 -47 -6 -103l-51 -440h-121l51 434q6 53 6 94q0 132 -57 186t-170 54t-221 -56t-183 -139l-69 -573h-121l158 1296h-414l14 107h950l-28 -107h-402l-73 -608q201 184 426 184z" />
    <glyph glyph-name="uni040C" unicode="&#x40c;" horiz-adv-x="1114" 
d="M575 1550l-30 70l385 190l53 -106zM317 1403h121l-76 -612h136l344 401q109 125 163 169t134 64l37 -90q-58 -16 -100 -51t-128 -133l-340 -391l428 -760h-131l-391 688h-164l-84 -688h-121z" />
    <glyph glyph-name="uni040E" unicode="&#x40e;" horiz-adv-x="1054" 
d="M660 1567q-106 0 -170 60q-62 60 -66 140l82 21q35 -125 159 -125t193 125l74 -21q-22 -80 -94 -140t-178 -60zM113 1403h125l297 -922h6l479 922h129l-537 -1014q-117 -221 -213 -297t-303 -115l-4 99q164 35 242 96t166 221h-47z" />
    <glyph glyph-name="uni040F" unicode="&#x40f;" horiz-adv-x="1327" 
d="M317 1403h121l-159 -1299h651l160 1299h120l-172 -1403h-383l-32 -266h-93l7 266h-392z" />
    <glyph glyph-name="uni0410" unicode="&#x410;" horiz-adv-x="1107" 
d="M643 1294l-358 -813h520l-158 813h-4zM899 0l-74 379h-585l-166 -379h-129l633 1403h153l289 -1403h-121z" />
    <glyph glyph-name="uni0411" unicode="&#x411;" horiz-adv-x="1161" 
d="M506 102q210 0 318 98t108 273q0 131 -92 196t-289 64h-195l-77 -631h227zM559 836q246 0 373 -90t127 -267q1 -225 -143 -352t-429 -127h-342l172 1403h721l-28 -107h-586l-55 -460h190z" />
    <glyph glyph-name="uni0412" unicode="&#x412;" horiz-adv-x="1224" 
d="M637 791q162 1 248 79t86 201t-80 176t-252 53h-215l-62 -509h275zM657 690h-307l-71 -588h274q195 0 296 87t101 247q0 122 -76 188t-217 66zM1096 1085q0 -123 -74 -213t-213 -124l-2 -7q129 -27 200 -107t70 -198q0 -208 -141 -322t-424 -114h-367l172 1403h322
q457 -1 457 -318z" />
    <glyph glyph-name="uni0413" unicode="&#x413;" horiz-adv-x="964" 
d="M266 0h-121l172 1403h721l-28 -109h-586z" />
    <glyph glyph-name="uni0414" unicode="&#x414;" horiz-adv-x="1290" 
d="M442 102q291 0 450 194t159 552q0 233 -122 343t-366 109h-139l-145 -1198h163zM582 1403q292 0 444 -138t152 -415q0 -402 -193 -626t-553 -224h-287l172 1403h265z" />
    <glyph glyph-name="uni0415" unicode="&#x415;" horiz-adv-x="1040" 
d="M870 0h-725l172 1403h709l-29 -103h-573l-64 -522h498l-12 -102h-498l-69 -574h604z" />
    <glyph glyph-name="uni0416" unicode="&#x416;" horiz-adv-x="1521" 
d="M805 1403h113l-76 -612h151l254 352q109 152 165 206t130 76l33 -92q-53 -16 -95 -60t-151 -194l-231 -319l336 -760h-125l-301 688h-179l-84 -688h-112l84 688h-170l-465 -688h-137l520 760l-176 364q-47 98 -88 140t-107 59l37 102q84 -25 135 -73t96 -140l205 -421
h162z" />
    <glyph glyph-name="uni0417" unicode="&#x417;" horiz-adv-x="1073" 
d="M489 809q168 0 264 84q95 85 95 199t-70 172t-194 57q-172 0 -351 -135l-63 84q211 156 432 155q170 0 272 -82t103 -219q0 -281 -307 -364l-2 -6q120 -29 194 -120t74 -210q0 -205 -122 -326t-337 -121q-127 1 -252 55t-207 146l86 72q70 -76 174 -122t201 -46
q156 0 242 90t86 238t-86 223q-86 76 -246 76h-104l26 100h92z" />
    <glyph glyph-name="uni0418" unicode="&#x418;" horiz-adv-x="1349" 
d="M438 1403l-84 -666q-55 -432 -90 -610h4l807 1276h158l-172 -1403h-121l82 664q57 455 90 608h-4l-801 -1272h-162l172 1403h121z" />
    <glyph glyph-name="uni0419" unicode="&#x419;" horiz-adv-x="1349" 
d="M798 1567q-105 0 -166 50q-60 50 -71 120l80 20q45 -94 165 -94t187 94l76 -20q-29 -72 -97 -121t-174 -49zM438 1403l-84 -666q-55 -432 -90 -610h4l807 1276h158l-172 -1403h-121l82 664q57 455 90 608h-4l-801 -1272h-162l172 1403h121z" />
    <glyph glyph-name="uni041A" unicode="&#x41a;" horiz-adv-x="1114" 
d="M317 1403h121l-76 -612h136l344 401q109 125 163 169t134 64l37 -90q-58 -16 -100 -51t-128 -133l-340 -391l428 -760h-131l-391 688h-164l-84 -688h-121z" />
    <glyph glyph-name="uni041B" unicode="&#x41b;" horiz-adv-x="1271" 
d="M-6 -23l-45 101q86 56 134 120q97 129 234 681l132 524h706l-172 -1403h-121l158 1296h-477l-103 -419q-86 -353 -144 -517t-120 -240t-182 -143z" />
    <glyph glyph-name="uni041C" unicode="&#x41c;" horiz-adv-x="1583" 
d="M1374 0h-110l10 535q8 420 20 737h-4l-493 -1106h-119l-227 1106h-5q-53 -283 -163 -811l-97 -461h-120l305 1403h161l216 -1088h8l481 1088h172z" />
    <glyph glyph-name="uni041D" unicode="&#x41d;" horiz-adv-x="1335" 
d="M1047 0h-121l84 688h-660l-84 -688h-121l172 1403h121l-76 -612h660l76 612h121z" />
    <glyph glyph-name="uni041E" unicode="&#x41e;" horiz-adv-x="1388" 
d="M635 82q219 0 365 201t147 577q0 236 -99 348t-266 113q-221 0 -367 -202t-147 -578q0 -229 98 -344t269 -115zM1274 854q0 -385 -176 -631t-465 -246q-231 1 -361 147t-131 423q1 410 183 644t460 234q221 0 356 -148q134 -149 134 -423z" />
    <glyph glyph-name="uni041F" unicode="&#x41f;" horiz-adv-x="1335" 
d="M1047 0h-121l157 1296h-659l-158 -1296h-121l172 1403h902z" />
    <glyph glyph-name="uni0420" unicode="&#x420;" horiz-adv-x="1153" 
d="M578 649q424 0 423 393q0 258 -366 258h-211l-80 -651h234zM555 547h-223l-66 -547h-121l172 1403h320q492 0 491 -356q0 -233 -147 -367t-426 -133z" />
    <glyph glyph-name="uni0421" unicode="&#x421;" horiz-adv-x="1128" 
d="M780 1321q-212 0 -362 -198t-150 -552q0 -247 104 -367t274 -120q171 0 317 117l57 -84q-168 -139 -388 -139t-356 150q-135 151 -135 447q1 399 187 625t448 225q216 0 357 -131l-80 -77q-127 104 -273 104z" />
    <glyph glyph-name="uni0422" unicode="&#x422;" horiz-adv-x="1013" 
d="M500 0h-121l158 1296h-414l14 107h950l-28 -107h-402z" />
    <glyph glyph-name="uni0423" unicode="&#x423;" horiz-adv-x="1054" 
d="M113 1403h125l297 -922h6l479 922h129l-537 -1014q-117 -221 -213 -297t-303 -115l-4 99q164 35 242 96t166 221h-47z" />
    <glyph glyph-name="uni0424" unicode="&#x424;" horiz-adv-x="1630" 
d="M1417 797q0 213 -124 323t-339 117l-131 -1059q270 12 432 163t162 456zM240 616q0 -216 124 -326t341 -114l129 1057q-270 -12 -432 -162t-162 -455zM862 1458h119l-16 -127q268 -10 424 -145t155 -389q0 -183 -58 -321t-162 -220q-204 -160 -513 -176l-14 -125h-119
l14 125q-268 10 -424 146t-155 390q0 182 58 320q59 138 163 221q207 162 512 174z" />
    <glyph glyph-name="uni0425" unicode="&#x425;" horiz-adv-x="1054" 
d="M547 838h4l399 565h142l-476 -643l361 -760h-137l-299 672h-4l-459 -672h-144l537 754l-309 649h137z" />
    <glyph glyph-name="uni0426" unicode="&#x426;" horiz-adv-x="1329" 
d="M317 1403h121l-159 -1299h651l160 1299h120l-159 -1299h108l-45 -370h-92l6 266h-883z" />
    <glyph glyph-name="uni0427" unicode="&#x427;" horiz-adv-x="1179" 
d="M473 512q-358 0 -358 340q0 41 6 88l57 463h121l-57 -457q-6 -45 -6 -88q0 -131 63 -186q63 -56 180 -56t221 52t166 125l76 610h121l-172 -1403h-121l82 674q-182 -162 -379 -162z" />
    <glyph glyph-name="uni0428" unicode="&#x428;" horiz-adv-x="1857" 
d="M317 1403h121l-159 -1299h534l160 1299h114l-159 -1299h532l160 1299h121l-172 -1403h-1424z" />
    <glyph glyph-name="uni0429" unicode="&#x429;" horiz-adv-x="1859" 
d="M317 1403h121l-159 -1299h534l160 1299h114l-159 -1299h532l160 1299h121l-160 -1299h109l-45 -370h-93l7 266h-1414z" />
    <glyph glyph-name="uni042A" unicode="&#x42a;" horiz-adv-x="1261" 
d="M625 102q209 0 319 98t109 283q0 137 -92 204t-289 67h-195l-80 -652h228zM680 856q244 0 372 -94t128 -275q0 -231 -144 -359t-430 -128h-342l158 1296h-330l14 107h451l-68 -547h191z" />
    <glyph glyph-name="uni042B" unicode="&#x42b;" horiz-adv-x="1599" 
d="M485 102q209 0 319 98t109 283q0 137 -92 204t-289 67h-174l-79 -652h206zM541 856q243 0 371 -94t128 -275q0 -231 -143 -359t-430 -128h-322l172 1403h121l-67 -547h170zM1362 1403h121l-172 -1403h-121z" />
    <glyph glyph-name="uni042C" unicode="&#x42c;" horiz-adv-x="1142" 
d="M506 102q208 0 318 98t110 283q0 137 -92 204t-289 67h-195l-79 -652h227zM561 856q244 0 372 -94t128 -275q0 -231 -143 -359t-431 -128h-342l172 1403h121l-67 -547h190z" />
    <glyph glyph-name="uni042D" unicode="&#x42d;" horiz-adv-x="1126" 
d="M580 1425q204 0 318 -130t114 -390q0 -440 -163 -684t-429 -244q-233 0 -389 162l78 74q131 -131 308 -131t299 147t156 441h-559l13 102h557q4 82 4 133q0 217 -84 317q-83 100 -229 101q-146 0 -334 -117l-60 80q197 139 400 139z" />
    <glyph glyph-name="uni042E" unicode="&#x42e;" horiz-adv-x="1783" 
d="M1051 82q209 0 350 202t141 576q0 236 -93 348t-251 113q-213 0 -353 -202t-140 -578q0 -225 91 -342t255 -117zM1669 854q0 -385 -171 -631t-449 -246q-127 1 -221 47t-145 129q-103 164 -101 404q0 66 6 131h-238l-84 -688h-121l172 1403h121l-76 -612h236
q51 299 215 467t382 167q218 1 346 -147t128 -424z" />
    <glyph glyph-name="uni042F" unicode="&#x42f;" horiz-adv-x="1226" 
d="M745 1300q-233 0 -335 -82t-103 -257q0 -129 77 -200t208 -71h309l74 610h-230zM180 956q0 446 586 447h344l-172 -1403h-121l72 590h-354l-396 -590h-143l426 616q-242 94 -242 340z" />
    <glyph glyph-name="uni0430" unicode="&#x430;" horiz-adv-x="1169" 
d="M452 80q91 0 183 77t166 224l78 561q-96 51 -215 51q-174 0 -302 -163t-126 -435q0 -159 62 -237t154 -78zM780 150q0 31 6 71q-162 -244 -362 -244q-139 0 -226 109t-87 309q0 317 161 508q162 190 398 191q172 0 334 -90l-107 -771q-4 -23 -4 -67t18 -70q18 -25 60 -37
l-33 -82q-158 27 -158 173z" />
    <glyph glyph-name="uni0431" unicode="&#x431;" horiz-adv-x="1193" 
d="M719 932q-231 0 -438 -326q-18 -104 -19 -184q0 -166 78 -256t205 -90q169 0 283 148t114 405q0 151 -62 227t-161 76zM746 1028q134 0 228 -99t93 -290q1 -305 -149 -483t-375 -179q-182 0 -293 118t-111 333q0 356 120 610t355 320q113 30 179 64t151 100l60 -90
q-178 -117 -332 -157t-243 -158t-140 -361l6 -2q76 118 197 196q120 78 254 78z" />
    <glyph glyph-name="uni0432" unicode="&#x432;" horiz-adv-x="1114" 
d="M662 993q-143 0 -261 -110q-117 -111 -153 -295q328 6 467 81t139 185q1 139 -192 139zM550 78q136 0 212 70t76 200q0 129 -154 203q-150 -43 -448 -55q-2 -20 -3 -62q1 -172 91 -264t226 -92zM963 353q0 -165 -112 -270q-113 -105 -305 -105t-314 120
q-122 121 -121 322q0 297 163 485q164 188 396 189q143 0 226 -64t83 -158q0 -189 -221 -278l-2 -6q207 -70 207 -235z" />
    <glyph glyph-name="uni0433" unicode="&#x433;" horiz-adv-x="890" 
d="M510 1094q162 0 252 -67q88 -67 88 -181t-89 -200q-89 -85 -281 -133t-252 -103q-62 -54 -62 -140t70 -140t178 -54q178 0 331 110l62 -82q-170 -127 -399 -127q-164 0 -266 80q-101 80 -101 206t88 208q89 82 277 128t256 104t67 149q0 143 -213 143q-142 1 -285 -73
l-45 84q162 88 324 88z" />
    <glyph glyph-name="uni0434" unicode="&#x434;" horiz-adv-x="1155" 
d="M512 80q135 0 247 152t134 444q-113 262 -320 262q-139 0 -240 -135t-102 -385q0 -170 73 -254t208 -84zM489 -23q-174 0 -278 115t-105 324q0 278 132 444t327 166q229 0 350 -238l7 5q6 76 6 174q0 229 -126 342q-127 112 -403 116l25 97q303 -16 453 -142
q149 -126 149 -404q0 -279 -60 -511q-36 -139 -94 -243t-155 -175q-98 -70 -228 -70z" />
    <glyph glyph-name="uni0435" unicode="&#x435;" horiz-adv-x="1085" 
d="M664 993q-158 0 -281 -130t-147 -341q319 12 471 100t151 224q0 70 -50 108t-144 39zM231 440q5 -362 303 -362q144 0 283 106l49 -80q-162 -127 -347 -127t-297 117t-111 326q0 297 164 485q165 188 397 189q137 0 224 -70t87 -178q0 -168 -181 -279t-571 -127z" />
    <glyph glyph-name="uni0436" unicode="&#x436;" horiz-adv-x="1296" 
d="M662 1071h108l-63 -457h141l174 246q86 121 133 164t123 70l37 -88q-59 -23 -103 -67t-147 -187l-127 -177l260 -575h-121l-229 524h-154l-73 -524h-109l74 524h-140l-374 -524h-138l426 584l-114 247q-39 84 -70 118t-92 57l37 88q90 -33 132 -73t81 -128l121 -279h143z
" />
    <glyph glyph-name="uni0437" unicode="&#x437;" horiz-adv-x="964" 
d="M422 76q122 0 192 64t70 165t-71 155t-210 54h-104l23 94h94q131 0 209 64t77 164q0 162 -215 161q-152 0 -305 -94l-53 78q170 113 369 113q145 0 236 -70t91 -172t-59 -175t-178 -106l-2 -6q104 -27 164 -92q59 -66 59 -156q1 -151 -105 -245t-284 -95q-120 0 -238 47
t-184 115l76 76q160 -139 348 -139z" />
    <glyph glyph-name="uni0438" unicode="&#x438;" horiz-adv-x="1157" 
d="M387 -23q-105 0 -167 66t-62 193q0 37 6 79l106 756h117l-104 -741q-6 -49 -7 -86q0 -168 136 -168q215 0 385 325l94 670h117l-150 -1071h-100l24 248q-84 -137 -187 -204t-208 -67z" />
    <glyph glyph-name="uni0439" unicode="&#x439;" horiz-adv-x="1157" 
d="M684 1280q-106 0 -167 65q-60 65 -60 156l80 21q25 -146 153 -146t199 146l76 -21q-27 -93 -101 -157t-180 -64zM387 -23q-105 0 -167 66t-62 193q0 37 6 79l106 756h117l-104 -741q-6 -49 -7 -86q0 -168 136 -168q215 0 385 325l94 670h117l-150 -1071h-100l24 248
q-84 -137 -187 -204t-208 -67z" />
    <glyph glyph-name="uni043A" unicode="&#x43a;" horiz-adv-x="976" 
d="M285 1071h116l-63 -455h115l284 320q70 78 116 110t101 48l35 -88q-45 -16 -81 -45t-107 -107l-250 -276l348 -578h-131l-313 522h-131l-72 -522h-117z" />
    <glyph glyph-name="uni043B" unicode="&#x43b;" horiz-adv-x="1159" 
d="M6 -23l-47 89q72 45 116 99q96 118 187 521l86 385h662l-150 -1071h-117l136 973h-433l-65 -293q-104 -462 -227 -595q-54 -57 -148 -108z" />
    <glyph glyph-name="uni043C" unicode="&#x43c;" horiz-adv-x="1339" 
d="M1130 0h-114l24 504q14 310 23 436h-4l-397 -807h-111l-180 803h-4q-104 -492 -111 -518l-94 -418h-117l246 1071h151l172 -807h4l400 807h162z" />
    <glyph glyph-name="uni043D" unicode="&#x43d;" horiz-adv-x="1214" 
d="M915 0h-116l69 506h-546l-70 -506h-117l150 1071h116l-65 -469h547l65 469h117z" />
    <glyph glyph-name="uni043E" unicode="&#x43e;" horiz-adv-x="1157" 
d="M639 995q-174 -1 -290 -153t-116 -432q0 -162 71 -248t200 -86q174 0 289 154t114 438q-1 160 -71 244t-197 83zM111 414q0 261 122 459q61 99 167 159t241 62q185 0 287 -114t102 -318q0 -308 -145 -496t-383 -189q-184 0 -288 116q-103 116 -103 321z" />
    <glyph glyph-name="uni043F" unicode="&#x43f;" horiz-adv-x="1173" 
d="M778 1094q219 0 219 -240q0 -39 -6 -86l-106 -768h-117l104 748q6 49 7 88q0 160 -127 159q-199 0 -418 -391l-82 -604h-117l150 1071h100l-33 -299q193 322 426 322z" />
    <glyph glyph-name="uni0440" unicode="&#x440;" horiz-adv-x="1179" 
d="M756 993q-199 0 -420 -383l-49 -360q94 -172 257 -172q164 0 274 172t110 481q0 133 -49 197t-123 65zM778 1094q123 0 199 -88t76 -273q-1 -346 -143 -551t-330 -205t-310 156l-75 -536l-119 -17l209 1491h100l-31 -299q197 322 424 322z" />
    <glyph glyph-name="uni0441" unicode="&#x441;" horiz-adv-x="970" 
d="M641 993q-168 -1 -287 -151t-118 -410q0 -172 78 -263t209 -91q132 0 263 94l50 -84q-156 -111 -332 -111t-285 120t-108 335q0 299 155 480q156 181 377 182q164 -1 303 -105l-61 -84q-106 88 -244 88z" />
    <glyph glyph-name="uni0442" unicode="&#x442;" horiz-adv-x="1744" 
d="M772 1094q195 0 195 -232q0 -49 -4 -78q190 309 411 310q197 0 197 -230q0 -27 -8 -96l-107 -768h-117l105 748q8 60 8 124q0 126 -102 123q-195 0 -412 -385l-84 -610h-117l105 748q8 60 8 124q0 126 -102 123q-197 0 -414 -391l-82 -604h-117l150 1071h100l-33 -299
q190 322 420 322z" />
    <glyph glyph-name="uni0443" unicode="&#x443;" horiz-adv-x="946" 
d="M94 1071h125l193 -977h4l442 977h129l-510 -1075q-88 -186 -199 -287q-112 -100 -305 -129l-4 96q145 27 239 106q93 79 161 218h-43z" />
    <glyph glyph-name="uni0444" unicode="&#x444;" horiz-adv-x="1738" 
d="M1155 78q135 0 234 178q98 178 98 458t-164 279q-186 0 -383 -305l-59 -422q43 -80 121 -134t153 -54zM594 993q-143 0 -251 -175t-107 -474q0 -266 165 -266q199 0 383 301l62 426q-40 82 -110 135t-142 53zM562 1094q177 0 300 -174l84 602l109 -15l-92 -653
q82 108 183 174t211 66q111 0 183 -92t72 -273q0 -334 -131 -543t-309 -209t-308 175l-78 -555l-112 -17l88 629q-82 -123 -174 -177t-212 -54t-193 90t-72 274q0 342 137 547t314 205z" />
    <glyph glyph-name="uni0445" unicode="&#x445;" horiz-adv-x="927" 
d="M457 494h-6l-367 -494h-150l457 573l-258 498h135l199 -422h4l317 422h144l-400 -496l297 -575h-135z" />
    <glyph glyph-name="uni0446" unicode="&#x446;" horiz-adv-x="1159" 
d="M387 -23q-105 0 -167 66t-62 193q0 37 6 79l106 756h117l-104 -741q-6 -49 -7 -86q0 -168 136 -168q215 0 385 325l94 670h117l-115 -823q-6 -49 -6 -84t13 -49t50 -17h23l-47 -344h-86l8 256q-72 27 -72 125q0 37 10 105l-6 2q-84 -133 -186 -199t-207 -66z" />
    <glyph glyph-name="uni0447" unicode="&#x447;" horiz-adv-x="1071" 
d="M351 334q-104 0 -166 66t-62 192q0 37 6 80l55 399h117l-53 -385q-6 -49 -6 -86q0 -168 135 -168q213 0 383 324l45 315h117l-150 -1071h-117l82 590q-82 -128 -182 -192t-204 -64z" />
    <glyph glyph-name="uni0448" unicode="&#x448;" horiz-adv-x="1742" 
d="M997 -23q-246 0 -233 273q-84 -137 -183 -205t-188 -68q-233 0 -233 252q0 41 6 86l106 756h117l-104 -741q-8 -70 -9 -94q0 -86 33 -123t110 -37t177 80t186 254l95 661h116l-104 -741q-8 -70 -8 -94q1 -86 33 -123t109 -37t174 78t185 247l95 670h116l-149 -1071h-101
l25 248q-84 -135 -183 -203t-188 -68z" />
    <glyph glyph-name="uni0449" unicode="&#x449;" horiz-adv-x="1744" 
d="M997 -23q-246 0 -233 273q-84 -137 -183 -205t-188 -68q-233 0 -233 252q0 41 6 86l106 756h117l-104 -741q-8 -70 -9 -94q0 -86 33 -123t110 -37t177 80t186 254l95 661h116l-104 -741q-8 -70 -8 -94q1 -86 33 -123t109 -37t174 78t185 247l95 670h116l-114 -823
q-6 -47 -6 -84t17 -51t62 -15h7l-48 -344h-86l9 256q-74 27 -74 129q0 35 10 101l-6 2q-80 -133 -180 -199t-187 -66z" />
    <glyph glyph-name="uni044A" unicode="&#x44a;" horiz-adv-x="1062" 
d="M532 86q130 0 214 79t85 220q0 213 -299 213h-163l-66 -479q99 -33 229 -33zM535 694q203 0 313 -79t108 -222q0 -186 -118 -295q-118 -108 -316 -108t-346 53l129 928h-266l14 100h383l-53 -377h152z" />
    <glyph glyph-name="uni044B" unicode="&#x44b;" horiz-adv-x="1435" 
d="M488 86q122 0 205 80t83 219q0 213 -309 213h-133l-66 -479q98 -33 220 -33zM469 694q211 0 322 -80t110 -223q0 -184 -117 -293q-116 -108 -306 -108t-337 53l144 1028h116l-53 -377h121zM1169 1071h117l-149 -1071h-117z" />
    <glyph glyph-name="uni044C" unicode="&#x44c;" horiz-adv-x="1028" 
d="M496 86q130 0 216 79q85 79 85 220q0 213 -299 213h-164l-66 -479q98 -33 228 -33zM500 694q202 0 312 -79t110 -222q0 -186 -119 -295q-119 -108 -317 -108t-345 53l144 1028h116l-53 -377h152z" />
    <glyph glyph-name="uni044D" unicode="&#x44d;" horiz-adv-x="985" 
d="M735 686q0 309 -243 309q-147 0 -304 -104l-49 84q177 119 353 119t271 -106t95 -306q0 -334 -132 -519t-342 -185t-353 133l73 77q124 -112 266 -112t233 104t120 318h-500l13 92h495q4 61 4 96z" />
    <glyph glyph-name="uni044E" unicode="&#x44e;" horiz-adv-x="1521" 
d="M1022 995q-166 -1 -274 -153t-109 -432q0 -162 67 -248t185 -86q165 0 273 154t108 438q0 160 -66 244t-184 83zM889 -23q-182 0 -276 122q-93 122 -93 317q0 59 4 90h-202l-70 -506h-117l150 1071h116l-65 -471h199q45 244 174 369t307 125t278 -115t101 -317
q1 -307 -139 -496t-367 -189z" />
    <glyph glyph-name="uni044F" unicode="&#x44f;" horiz-adv-x="1101" 
d="M590 995q-134 -1 -210 -71t-77 -185q0 -203 256 -202h201l65 438q-101 20 -235 20zM178 724q0 177 113 273t336 97q141 0 327 -33l-151 -1061h-117l62 442h-281l-299 -442h-143l329 473q-176 74 -176 251z" />
    <glyph glyph-name="uni0451" unicode="&#x451;" horiz-adv-x="1085" 
d="M784 1368q0 36 23 58t59 22t60 -23q22 -23 22 -57t-22 -58q-22 -22 -60 -22t-60 22t-22 58zM399 1368q0 36 23 58q24 22 60 22t59 -23t23 -57t-24 -58q-22 -22 -59 -22t-59 22t-23 58zM664 993q-158 0 -281 -130t-147 -341q319 12 471 100t151 224q0 70 -50 108t-144 39z
M231 440q5 -362 303 -362q144 0 283 106l49 -80q-162 -127 -347 -127t-297 117t-111 326q0 297 164 485q165 188 397 189q137 0 224 -70t87 -178q0 -168 -181 -279t-571 -127z" />
    <glyph glyph-name="uni0452" unicode="&#x452;" horiz-adv-x="1196" 
d="M903 836q0 160 -127 159q-197 0 -416 -385l-84 -610h-116l174 1247h-158l14 99h158l23 161l118 15l-24 -176h377l-15 -99h-376l-66 -465q193 311 418 312q219 0 219 -242q0 -37 -6 -84l-98 -709q-29 -207 -101 -299t-260 -178l-35 94q145 68 201 142t76 219l98 711
q6 49 6 88z" />
    <glyph glyph-name="uni0453" unicode="&#x453;" horiz-adv-x="890" 
d="M446 1264l-30 69l403 215l49 -106zM510 1094q162 0 252 -67q88 -67 88 -181t-89 -200q-89 -85 -281 -133t-252 -103q-62 -54 -62 -140t70 -140t178 -54q178 0 331 110l62 -82q-170 -127 -399 -127q-164 0 -266 80q-101 80 -101 206t88 208q89 82 277 128t256 104t67 149
q0 143 -213 143q-142 1 -285 -73l-45 84q162 88 324 88z" />
    <glyph glyph-name="uni0454" unicode="&#x454;" horiz-adv-x="970" 
d="M638 993q-142 0 -248 -106t-142 -297h502l-13 -92h-499q-2 -23 -2 -66q0 -172 76 -263t209 -91q134 0 265 94l50 -84q-156 -111 -333 -111t-285 120t-107 335q0 299 151 480q152 181 373 182q172 -1 311 -105l-61 -84q-105 88 -247 88z" />
    <glyph glyph-name="uni0455" unicode="&#x455;" horiz-adv-x="929" 
d="M485 995q-102 0 -161 -47q-60 -47 -60 -121q0 -75 46 -121t201 -104t223 -134q68 -75 69 -179q1 -143 -99 -227t-286 -85q-110 -1 -222 45t-176 107l76 80q60 -55 150 -94t194 -39t172 57q66 57 66 143t-54 137q-54 52 -203 107t-215 127q-66 71 -67 183q0 112 93 188
t266 76t331 -109l-65 -86q-129 96 -279 96z" />
    <glyph glyph-name="uni0456" unicode="&#x456;" horiz-adv-x="534" 
d="M379 1313q-39 1 -64 25t-24 61t25 61t63 25q39 0 63 -25q24 -26 25 -62q-1 -36 -25 -60t-63 -25zM276 1071h117l-149 -1071h-117z" />
    <glyph glyph-name="uni0457" unicode="&#x457;" horiz-adv-x="534" 
d="M483 1368q0 36 23 58q24 22 60 22t59 -23t23 -57t-24 -58q-22 -22 -59 -22t-59 22t-23 58zM98 1368q0 36 23 58t59 22t60 -23q22 -23 22 -57t-22 -58q-22 -22 -60 -22t-60 22t-22 58zM276 1071h117l-149 -1071h-117z" />
    <glyph glyph-name="uni0458" unicode="&#x458;" horiz-adv-x="536" 
d="M381 1313q-39 1 -64 25t-24 61t25 61t63 25q39 0 63 -25q24 -26 25 -62q-1 -36 -25 -60t-63 -25zM279 1071h116l-143 -1012q-28 -207 -100 -299t-261 -178l-34 94q145 68 200 142t76 219z" />
    <glyph glyph-name="uni0459" unicode="&#x459;" horiz-adv-x="1595" 
d="M1076 86q122 0 205 80t83 219q0 213 -309 213h-133l-66 -479q98 -33 220 -33zM1057 694q211 0 321 -80t111 -223q0 -184 -117 -293q-117 -108 -306 -108t-337 53l129 930h-412l-65 -293q-104 -462 -227 -595q-54 -57 -148 -108l-47 89q72 45 116 99q96 118 187 521
l86 385h641l-53 -377h121z" />
    <glyph glyph-name="uni045A" unicode="&#x45a;" horiz-adv-x="1644" 
d="M1130 86q120 0 201 71q82 71 82 178t-70 153t-225 47h-149l-58 -416q99 -33 219 -33zM1141 633q193 0 295 -76t102 -205q0 -166 -115 -264t-303 -98t-336 53l68 492h-526l-74 -535h-117l150 1071h116l-61 -440h526l62 440h116l-61 -438h158z" />
    <glyph glyph-name="uni045B" unicode="&#x45b;" horiz-adv-x="1196" 
d="M1022 852q0 -37 -6 -84l-107 -768h-116l104 748q6 49 6 88q0 160 -127 159q-197 0 -414 -385l-86 -610h-116l174 1247h-158l14 99h158l23 161l118 15l-24 -176h377l-15 -99h-376l-64 -463q190 309 416 310q219 0 219 -242z" />
    <glyph glyph-name="uni045C" unicode="&#x45c;" horiz-adv-x="976" 
d="M475 1264l-31 69l404 215l49 -106zM285 1071h116l-63 -455h115l284 320q70 78 116 110t101 48l35 -88q-45 -16 -81 -45t-107 -107l-250 -276l348 -578h-131l-313 522h-131l-72 -522h-117z" />
    <glyph glyph-name="uni045E" unicode="&#x45e;" horiz-adv-x="946" 
d="M584 1280q-106 0 -167 65q-60 65 -61 156l80 21q25 -146 154 -146t198 146l76 -21q-27 -94 -100 -158q-74 -63 -180 -63zM94 1071h125l193 -977h4l442 977h129l-510 -1075q-88 -186 -199 -287q-112 -100 -305 -129l-4 96q145 27 239 106q93 79 161 218h-43z" />
    <glyph glyph-name="uni045F" unicode="&#x45f;" horiz-adv-x="1208" 
d="M285 1071h116l-137 -973h541l137 973h117l-150 -1071h-331l-33 -246h-86l8 246h-332z" />
    <glyph glyph-name="uni0462" unicode="&#x462;" horiz-adv-x="1394" 
d="M739 102q209 0 318 98t108 273q0 131 -92 196t-289 64h-194l-78 -631h227zM793 836q247 0 373 -92t126 -265q0 -225 -143 -352t-428 -127h-342l156 1296h-412l14 107h950l-28 -107h-402l-55 -460h191z" />
    <glyph glyph-name="uni0463" unicode="&#x463;" horiz-adv-x="1050" 
d="M520 86q130 0 214 79t85 220q0 213 -299 213h-164l-65 -479q99 -33 229 -33zM522 694q203 0 313 -79t109 -222q0 -186 -119 -295q-119 -108 -317 -108t-344 53l123 883h-156l12 94h158l35 248l119 14l-37 -262h287l-29 -94h-273l-32 -232h151z" />
    <glyph glyph-name="uni0472" unicode="&#x472;" horiz-adv-x="1388" 
d="M1147 860q1 236 -99 348t-275 113q-175 0 -311 -143t-177 -414h858q4 61 4 96zM268 541q0 -229 98 -344t277 -115q180 0 318 149q137 150 174 435h-863q-4 -82 -4 -125zM1274 854q0 -385 -176 -631t-465 -246q-231 1 -361 147t-131 423q1 410 183 644t460 234
q221 0 356 -148q134 -149 134 -423z" />
    <glyph glyph-name="uni0473" unicode="&#x473;" horiz-adv-x="1157" 
d="M907 668q-1 160 -71 244t-205 83q-135 0 -241 -105t-142 -304h655q4 53 4 82zM512 76q137 0 242 108q104 109 139 312h-655q-4 -29 -5 -86q0 -162 71 -248t208 -86zM111 414q0 261 122 459q61 99 167 159t241 62q185 0 287 -114t102 -318q0 -308 -145 -496t-383 -189
q-184 0 -288 116q-103 116 -103 321z" />
    <glyph glyph-name="uni0474" unicode="&#x474;" horiz-adv-x="1122" 
d="M1090 1421l124 -22q-82 -100 -170 -297l-493 -1102h-135l-289 1403h125l237 -1270h5l434 1000q88 200 162 288z" />
    <glyph glyph-name="uni0475" unicode="&#x475;" horiz-adv-x="960" 
d="M94 1071h121l191 -962h4l301 639q119 252 188 331l121 -16q-90 -111 -207 -352l-346 -711h-139z" />
    <glyph glyph-name="uni0490" unicode="&#x490;" horiz-adv-x="964" 
d="M266 0h-121l172 1403h611l33 258h108l-31 -258l-28 -109h-586z" />
    <glyph glyph-name="uni0491" unicode="&#x491;" horiz-adv-x="847" 
d="M387 971l-135 -971h-117l150 1071h528l33 229h106l-32 -229l-29 -100h-504z" />
    <glyph glyph-name="uni0492" unicode="&#x492;" horiz-adv-x="989" 
d="M291 0h-121l94 766h-203l13 98h202l66 539h721l-29 -109h-585l-54 -430h340l-12 -98h-340z" />
    <glyph glyph-name="uni0493" unicode="&#x493;" horiz-adv-x="931" 
d="M532 1094q162 0 250 -67t88 -167q0 -209 -241 -287v-4l262 -22l-27 -96l-405 55q-154 -41 -213 -97q-60 -57 -60 -141t70 -138t178 -54q178 0 332 110l61 -82q-170 -127 -399 -127q-164 0 -265 80t-102 207q0 92 45 154t156 110v4l-239 19l26 96l377 -53q184 45 254 106
t70 152q0 143 -213 143q-142 1 -285 -73l-45 84q163 88 325 88z" />
    <glyph glyph-name="uni0496" unicode="&#x496;" horiz-adv-x="1533" 
d="M805 1403h113l-76 -612h151l254 352q109 152 165 206t130 76l33 -92q-53 -16 -95 -60t-151 -194l-231 -319l288 -656h93l-45 -370h-93l7 266h-41l-299 688h-179l-84 -688h-112l84 688h-170l-465 -688h-137l520 760l-176 364q-47 98 -88 140t-107 59l37 102
q84 -25 135 -73t96 -140l205 -421h162z" />
    <glyph glyph-name="uni0497" unicode="&#x497;" horiz-adv-x="1316" 
d="M1237 98h6l-47 -344h-86l8 246q-55 29 -121 180l-149 344h-156l-71 -524h-109l72 524h-138l-374 -524h-138l426 584l-114 247q-39 84 -70 118t-92 57l37 88q90 -33 132 -73t81 -128l121 -279h141l66 457h108l-65 -457h143l174 246q86 121 133 164t123 70l37 -88
q-59 -23 -103 -67t-147 -187l-127 -177l149 -329q45 -102 70 -125t80 -23z" />
    <glyph glyph-name="uni0498" unicode="&#x498;" horiz-adv-x="1073" 
d="M374 -373q117 0 115 94q0 76 -151 78l45 187q-223 37 -365 192l86 72q70 -76 174 -122t201 -46q156 0 242 90t86 238t-86 223q-86 76 -246 76h-104l26 100h92q168 0 264 84q95 85 95 199t-70 172t-194 57q-172 0 -351 -135l-63 84q211 156 432 155q170 0 272 -82
t103 -219q0 -281 -307 -364l-2 -6q120 -29 194 -120t74 -210q0 -205 -121 -326t-344 -121l-18 -114q156 -18 155 -139q0 -82 -61 -134t-163 -53q-102 0 -181 47l53 78q58 -35 118 -35z" />
    <glyph glyph-name="uni0499" unicode="&#x499;" horiz-adv-x="964" 
d="M292 -373q116 0 116 94q0 76 -152 78l47 191q-195 35 -305 149l76 76q160 -139 348 -139q122 0 192 64t70 165t-71 155t-210 54h-104l23 94h94q131 0 209 64t77 164q0 162 -215 161q-152 0 -305 -94l-53 78q170 113 369 113q145 0 236 -70t91 -172t-59 -175t-178 -106
l-2 -6q104 -27 164 -92q59 -66 59 -156q1 -151 -105 -245t-284 -95q-20 0 -31 3l-18 -117q156 -18 155 -139q0 -82 -61 -134t-163 -53q-102 0 -181 47l53 78q58 -35 118 -35z" />
    <glyph glyph-name="uni049A" unicode="&#x49a;" horiz-adv-x="1134" 
d="M317 1403h121l-76 -612h136l344 401q109 125 163 169t134 64l37 -90q-58 -16 -100 -51t-128 -133l-340 -391l369 -656h104l-45 -370h-92l6 266h-45l-391 688h-164l-84 -688h-121z" />
    <glyph glyph-name="uni049B" unicode="&#x49b;" horiz-adv-x="976" 
d="M926 98h6l-47 -344h-86l8 246q-33 16 -61 49q-27 33 -82 127l-209 346h-131l-72 -522h-117l150 1071h116l-63 -455h115l284 320q70 78 116 110t101 48l35 -88q-45 -16 -81 -45t-107 -107l-250 -276l201 -334q59 -96 89 -121t85 -25z" />
    <glyph glyph-name="uni049C" unicode="&#x49c;" horiz-adv-x="1134" 
d="M483 317h-88l45 373h-92l-84 -690h-119l172 1403h119l-76 -615h93l45 369h88l-45 -369h34l302 404q102 135 144 174t118 59l37 -90q-49 -14 -80 -43t-117 -141l-301 -391l358 -760h-131l-323 690h-54z" />
    <glyph glyph-name="uni049D" unicode="&#x49d;" horiz-adv-x="997" 
d="M451 236h-78l39 286h-90l-72 -522h-115l150 1071h114l-63 -457h90l33 236h78l-33 -236h45l201 285q74 100 116 139q43 39 99 56l34 -88q-43 -14 -75 -50t-109 -141l-168 -237l252 -578h-129l-221 522h-60z" />
    <glyph glyph-name="uni04A0" unicode="&#x4a0;" horiz-adv-x="1232" 
d="M481 791h135l345 401q109 125 162 169q54 44 134 64l37 -90q-57 -16 -99 -51t-128 -133l-340 -391l428 -760h-131l-391 688h-164l-84 -688h-121l158 1296h-330l14 107h451z" />
    <glyph glyph-name="uni04A1" unicode="&#x4a1;" horiz-adv-x="1011" 
d="M53 1071h383l-63 -455h114l285 320q70 78 116 110t101 48l35 -88q-45 -16 -81 -45t-107 -107l-250 -276l348 -578h-131l-314 522h-131l-71 -522h-117l135 971h-266z" />
    <glyph glyph-name="uni04A2" unicode="&#x4a2;" horiz-adv-x="1337" 
d="M1219 1403l-160 -1299h108l-45 -370h-92l6 266h-110l84 688h-660l-84 -688h-121l172 1403h121l-76 -612h660l76 612h121z" />
    <glyph glyph-name="uni04A3" unicode="&#x4a3;" horiz-adv-x="1216" 
d="M942 156q0 -52 66 -58h22l-47 -344h-86l8 256q-82 27 -82 146q0 23 8 88l37 262h-546l-70 -506h-117l150 1071h116l-65 -469h545l67 469h117l-115 -823q-8 -66 -8 -92z" />
    <glyph glyph-name="uni04AA" unicode="&#x4aa;" horiz-adv-x="1128" 
d="M780 1321q-212 0 -362 -198t-150 -552q0 -247 104 -367t274 -120q171 0 317 117l57 -84q-94 -78 -211 -113q-217 -121 -217 -274q0 -47 29 -75t88 -28t110 21l25 -78q-90 -33 -177 -33t-140 45q-52 45 -52 121t46 149t122 125q-233 0 -368 150q-134 150 -134 448
q1 399 187 625t448 225q216 0 357 -131l-80 -77q-127 104 -273 104z" />
    <glyph glyph-name="uni04AB" unicode="&#x4ab;" horiz-adv-x="970" 
d="M641 993q-168 -1 -287 -151t-118 -410q0 -172 78 -263t209 -91q132 0 263 94l50 -84q-82 -57 -170 -86q-213 -119 -213 -272q1 -47 29 -75t87 -28t111 21l25 -78q-90 -33 -177 -33t-140 45q-52 45 -52 121t45 149t121 125q-178 2 -285 122q-106 120 -106 333
q0 299 155 480q156 181 377 182q164 -1 303 -105l-61 -84q-106 88 -244 88z" />
    <glyph glyph-name="uni04AE" unicode="&#x4ae;" horiz-adv-x="1050" 
d="M1010 1403h135l-559 -836l-70 -567h-121l68 565l-357 838h132l292 -725h5z" />
    <glyph glyph-name="uni04AF" unicode="&#x4af;" horiz-adv-x="950" 
d="M94 1071h123l191 -942h4l452 942h127l-538 -1071l-56 -403l-114 -17l59 430z" />
    <glyph glyph-name="uni04B0" unicode="&#x4b0;" horiz-adv-x="1050" 
d="M860 553h-276l-68 -553h-121l66 553h-271l15 98h221l-320 752h132l292 -725h5l475 725h135l-504 -752h233z" />
    <glyph glyph-name="uni04B1" unicode="&#x4b1;" horiz-adv-x="950" 
d="M94 1071h123l191 -942h4l452 942h127l-481 -960h184l-12 -91h-225l-60 -423l-114 -17l61 440h-219l12 91h180z" />
    <glyph glyph-name="uni04B2" unicode="&#x4b2;" horiz-adv-x="1054" 
d="M547 838h4l399 565h142l-476 -643l312 -656h98l-45 -370h-92l6 266h-55l-299 672h-4l-459 -672h-144l537 754l-309 649h137z" />
    <glyph glyph-name="uni04B3" unicode="&#x4b3;" horiz-adv-x="927" 
d="M862 98h6l-47 -344h-86l8 246q-35 16 -65 54t-74 132l-147 308h-6l-367 -494h-150l457 573l-258 498h135l199 -422h4l317 422h144l-400 -496l173 -331q51 -98 77 -122t80 -24z" />
    <glyph glyph-name="uni04B8" unicode="&#x4b8;" horiz-adv-x="1179" 
d="M115 852q0 41 6 88l57 463h121l-57 -457q-6 -49 -6 -88q0 -125 58 -181t179 -61l64 521h88l-64 -516q88 14 172 62t133 110l76 610h121l-172 -1403h-121l82 674q-141 -129 -303 -156l-27 -221h-88l27 215q-346 6 -346 340z" />
    <glyph glyph-name="uni04B9" unicode="&#x4b9;" horiz-adv-x="1071" 
d="M362 334q-115 0 -177 66t-62 192q0 37 6 80l55 399h117l-53 -385q-6 -49 -6 -86q0 -168 135 -168q12 0 24 2l50 344h81l-45 -321q152 68 273 299l45 315h117l-150 -1071h-117l82 590q-117 -180 -264 -236l-24 -170h-82l22 152q-12 -2 -27 -2z" />
    <glyph glyph-name="uni04BA" unicode="&#x4ba;" horiz-adv-x="1208" 
d="M776 872q311 0 311 -329q0 -47 -6 -103l-51 -440h-121l52 434q6 51 6 94q1 132 -57 186t-171 54t-219 -55t-184 -140l-70 -573h-121l172 1403h121l-88 -715q201 184 426 184z" />
    <glyph glyph-name="uni04BB" unicode="&#x4bb;" horiz-adv-x="1155" 
d="M975 684q0 -37 -6 -84l-84 -600h-117l82 580q6 49 6 88q0 160 -127 159q-199 0 -416 -387l-61 -440h-117l211 1507l119 15l-127 -908q193 311 418 312q219 0 219 -242z" />
    <glyph glyph-name="uni04C0" unicode="&#x4c0;" horiz-adv-x="555" 
d="M317 1403h121l-172 -1403h-121z" />
    <glyph glyph-name="uni04CB" unicode="&#x4cb;" horiz-adv-x="1181" 
d="M473 512q-358 0 -358 340q0 41 6 88l57 463h121l-57 -457q-6 -45 -6 -88q0 -131 63 -186q63 -56 180 -56t221 52t166 125l76 610h121l-160 -1299h109l-45 -370h-93l7 266h-111l82 674q-182 -162 -379 -162z" />
    <glyph glyph-name="uni04CC" unicode="&#x4cc;" horiz-adv-x="1073" 
d="M377 432q215 0 383 322l45 317h117l-115 -823q-6 -47 -6 -84t17 -51t63 -15h6l-47 -344h-86l8 256q-82 27 -82 146q0 23 8 88l49 346q-82 -128 -182 -192t-204 -64t-166 66t-62 192q0 37 6 80l55 399h117l-53 -385q-6 -49 -6 -86q0 -168 135 -168z" />
    <glyph glyph-name="uni04CF" unicode="&#x4cf;" horiz-adv-x="544" 
d="M293 -23q-180 0 -150 211l185 1319l118 15l-188 -1342q-8 -57 8 -80q30 -43 135 -8l25 -84q-57 -31 -133 -31z" />
    <glyph glyph-name="uni04D8" unicode="&#x4d8;" horiz-adv-x="1341" 
d="M240 524q0 -226 94 -336t269 -110t309 144t175 437h-839q-8 -66 -8 -135zM117 520q0 150 24 234h955q6 63 6 137q0 227 -87 331t-269 103q-182 0 -371 -123l-60 82q217 141 445 141t347 -131q120 -131 120 -401q0 -440 -177 -678t-460 -238q-225 -1 -349 137t-124 406z
" />
    <glyph glyph-name="uni04D9" unicode="&#x4d9;" horiz-adv-x="1060" 
d="M389 78q154 0 274 128t144 343q-344 -8 -482 -85t-139 -222q0 -74 52 -119t151 -45zM61 242q0 180 169 278t583 113q2 201 -61 281q-62 80 -198 79q-136 0 -302 -102l-45 90q195 113 364 113q362 0 363 -445q0 -299 -161 -485t-392 -187q-152 0 -236 73t-84 192z" />
    <glyph glyph-name="uni04E2" unicode="&#x4e2;" horiz-adv-x="1349" 
d="M1061 1729l-12 -97h-480l13 97h479zM438 1403l-84 -666q-55 -432 -90 -610h4l807 1276h158l-172 -1403h-121l82 664q57 455 90 608h-4l-801 -1272h-162l172 1403h121z" />
    <glyph glyph-name="uni04E3" unicode="&#x4e3;" horiz-adv-x="1157" 
d="M936 1462l-14 -96h-480l15 96h479zM387 -23q-105 0 -167 66t-62 193q0 37 6 79l106 756h117l-104 -741q-6 -49 -7 -86q0 -168 136 -168q215 0 385 325l94 670h117l-150 -1071h-100l24 248q-84 -137 -187 -204t-208 -67z" />
    <glyph glyph-name="uni04E8" unicode="&#x4e8;" horiz-adv-x="1388" 
d="M1147 860q1 236 -99 348t-275 113q-175 0 -311 -143t-177 -414h858q4 61 4 96zM268 541q0 -229 98 -344t277 -115q180 0 318 149q137 150 174 435h-863q-4 -82 -4 -125zM1274 854q0 -385 -176 -631t-465 -246q-231 1 -361 147t-131 423q1 410 183 644t460 234
q221 0 356 -148q134 -149 134 -423z" />
    <glyph glyph-name="uni04E9" unicode="&#x4e9;" horiz-adv-x="1157" 
d="M907 668q-1 160 -71 244t-205 83q-135 0 -241 -105t-142 -304h655q4 53 4 82zM512 76q137 0 242 108q104 109 139 312h-657q-2 -29 -3 -86q0 -162 71 -248t208 -86zM111 414q0 261 122 459q61 99 167 159t241 62q185 0 287 -114t102 -318q0 -308 -145 -496t-383 -189
q-184 0 -288 116q-103 116 -103 321z" />
    <glyph glyph-name="uni04EE" unicode="&#x4ee;" horiz-adv-x="1054" 
d="M913 1729l-12 -97h-479l12 97h479zM113 1403h125l297 -922h6l479 922h129l-537 -1014q-117 -221 -213 -297t-303 -115l-4 99q164 35 242 96t166 221h-47z" />
    <glyph glyph-name="uni04EF" unicode="&#x4ef;" horiz-adv-x="946" 
d="M844 1462l-15 -96h-479l15 96h479zM94 1071h125l193 -977h4l442 977h129l-510 -1075q-88 -186 -199 -287q-112 -100 -305 -129l-4 96q145 27 239 106q93 79 161 218h-43z" />
    <glyph glyph-name="uni2007" unicode="&#x2007;" horiz-adv-x="1118" 
 />
    <glyph glyph-name="uni2008" unicode="&#x2008;" horiz-adv-x="573" 
 />
    <glyph glyph-name="uni200B" unicode="&#x200b;" horiz-adv-x="0" 
 />
    <glyph glyph-name="figuredash" unicode="&#x2012;" 
d="M1087 606h-1024l13 107h1024z" />
    <glyph glyph-name="endash" unicode="&#x2013;" horiz-adv-x="1064" 
d="M983 586h-901l14 106h901z" />
    <glyph glyph-name="emdash" unicode="&#x2014;" horiz-adv-x="1556" 
d="M1475 586h-1393l14 106h1393z" />
    <glyph glyph-name="afii00208" unicode="&#x2015;" horiz-adv-x="1064" 
d="M983 586h-901l14 106h901z" />
    <glyph glyph-name="quoteleft" unicode="&#x2018;" horiz-adv-x="552" 
d="M418 1186q0 -44 -27 -69t-69 -25t-68 24q-25 24 -25 62q0 39 39 100l156 258h78l-117 -283q33 -23 33 -67z" />
    <glyph glyph-name="quoteright" unicode="&#x2019;" horiz-adv-x="552" 
d="M418 1536q44 0 68 -24t24 -62t-39 -100l-156 -258h-77l116 282q-32 23 -32 67q0 43 26 69t70 26z" />
    <glyph glyph-name="quotesinglbase" unicode="&#x201a;" horiz-adv-x="552" 
d="M123 56q0 44 27 70q28 26 70 26t67 -24q55 -52 -15 -163l-155 -258h-78l117 283q-33 22 -33 66z" />
    <glyph glyph-name="quotedblleft" unicode="&#x201c;" horiz-adv-x="870" 
d="M418 1186q0 -44 -27 -69t-69 -25t-68 24q-25 24 -25 62q0 39 39 100l156 258h78l-117 -283q33 -23 33 -67zM735 1186q-1 -44 -27 -69t-69 -25t-68 24q-56 52 15 162l155 258h78l-117 -283q33 -23 33 -67z" />
    <glyph glyph-name="quotedblright" unicode="&#x201d;" horiz-adv-x="870" 
d="M635 1441q0 43 27 69q28 26 70 26t67 -24q55 -53 -15 -162l-155 -258h-78l117 282q-33 23 -33 67zM317 1441q0 43 27 69t70 26q44 0 68 -24t24 -62t-39 -100l-156 -258h-78l117 282q-33 23 -33 67z" />
    <glyph glyph-name="quotedblbase" unicode="&#x201e;" horiz-adv-x="870" 
d="M440 56q0 44 27 70t70 26t67 -24t25 -62q0 -38 -39 -101l-156 -258h-78l117 283q-33 22 -33 66zM123 56q0 44 27 70q28 26 70 26t67 -24q55 -52 -15 -163l-155 -258h-78l117 283q-33 22 -33 66z" />
    <glyph glyph-name="dagger" unicode="&#x2020;" horiz-adv-x="1024" 
d="M969 928h-361l-112 -928h-115l113 928h-359l12 104h359l41 330h115l-41 -330h360z" />
    <glyph glyph-name="daggerdbl" unicode="&#x2021;" horiz-adv-x="1024" 
d="M899 354h-360l-43 -354h-115l43 354h-358l12 105h358l58 469h-359l12 104h359l41 330h115l-41 -330h360l-12 -104h-361l-57 -469h360z" />
    <glyph glyph-name="bullet" unicode="&#x2022;" horiz-adv-x="819" 
d="M426 487q-90 -1 -152 61t-63 152q0 90 62 150q63 60 153 61q90 0 152 -61q62 -62 63 -152q-1 -90 -63 -150t-152 -61z" />
    <glyph glyph-name="ellipsis" unicode="&#x2026;" horiz-adv-x="1720" 
d="M1264 74q0 40 28 68t71 28q44 0 71 -27q26 -27 26 -69t-26 -70q-26 -27 -71 -27q-44 0 -72 28q-27 28 -27 69zM117 74q-1 40 27 68t72 28t71 -27t27 -69t-28 -70q-26 -27 -70 -27t-72 28q-27 28 -27 69zM690 74q0 40 28 68t72 28t70 -27q27 -27 27 -69t-27 -70
q-27 -27 -71 -27q-43 0 -71 28t-28 69z" />
    <glyph glyph-name="perthousand" unicode="&#x2030;" horiz-adv-x="2355" 
d="M1624 288q0 152 96 254t234 101q138 0 215 -75q76 -76 76 -230q-1 -154 -97 -257t-235 -103t-214 78q-75 80 -75 232zM1953 553q-87 0 -149 -74q-62 -75 -63 -191q0 -220 164 -220q98 0 160 74t63 210q0 201 -175 201zM907 288q0 152 96 254q97 102 235 101
q138 0 214 -75q76 -76 76 -230t-96 -257t-236 -103t-214 78q-75 80 -75 232zM1411 352q0 201 -175 201q-88 0 -150 -74q-62 -75 -62 -191q0 -220 164 -220q98 0 161 74q62 75 62 210zM566 1384q138 0 214 -74t76 -230q0 -154 -96 -258t-236 -103q-140 0 -214 79
q-75 79 -74 212q0 172 96 273t234 101zM739 1094q0 200 -175 200q-87 0 -149 -74q-63 -74 -63 -190t44 -168t131 -53q87 0 150 75q62 75 62 210zM1493 1382l-1122 -1429l-88 57l1122 1430z" />
    <glyph glyph-name="guilsinglleft" unicode="&#x2039;" horiz-adv-x="696" 
d="M612 1014l-338 -422l222 -408l-78 -49l-279 422l11 84l399 424z" />
    <glyph glyph-name="guilsinglright" unicode="&#x203a;" horiz-adv-x="696" 
d="M86 186l338 422l-221 408l78 49l278 -422l-10 -84l-399 -424z" />
    <glyph glyph-name="fraction" unicode="&#x2044;" horiz-adv-x="102" 
d="M621 1477l-1027 -1639l-88 47l1029 1639z" />
    <glyph glyph-name="uni2070" unicode="&#x2070;" horiz-adv-x="819" 
d="M416 723q187 0 228 333q9 73 9 146q0 231 -159 232q-104 0 -169 -120t-65 -356t156 -235zM398 639q-112 0 -179 86q-68 86 -67 250q0 256 96 401t250 146q126 0 194 -86t68 -260t-70 -340q-37 -88 -108 -143q-72 -54 -184 -54z" />
    <glyph glyph-name="uni2074" unicode="&#x2074;" horiz-adv-x="819" 
d="M596 653h-100l26 209h-397l8 72l354 594l99 -35l-326 -543h272l39 238h91l-29 -238h112l-10 -88h-112z" />
    <glyph glyph-name="uni2075" unicode="&#x2075;" horiz-adv-x="819" 
d="M727 946q0 -124 -87 -214t-237 -91q-73 0 -149 30t-121 79l70 57q83 -82 193 -82t166 65t56 157q0 175 -161 175q-72 0 -156 -37h-80l53 422h480l-23 -88h-364l-29 -245q68 26 162 26t160 -64q66 -66 67 -190z" />
    <glyph glyph-name="uni2076" unicode="&#x2076;" horiz-adv-x="819" 
d="M504 1135q-131 0 -240 -129q-2 -18 -2 -58q0 -113 50 -168t135 -55t140 65q54 65 54 183q0 162 -137 162zM544 1434q-89 0 -169 -96t-105 -261q123 139 262 140q92 1 154 -61t64 -175q0 -156 -88 -248t-220 -92t-210 82q-79 82 -78 231q0 262 118 415q119 153 281 153
q117 0 207 -66l-60 -72q-67 50 -156 50z" />
    <glyph glyph-name="uni2077" unicode="&#x2077;" horiz-adv-x="819" 
d="M299 633l-96 37l461 747h-451l12 90h572l-11 -75z" />
    <glyph glyph-name="uni2078" unicode="&#x2078;" horiz-adv-x="819" 
d="M492 1436q-82 0 -130 -39t-47 -97q0 -58 38 -91q38 -34 149 -72q154 86 153 184q-1 51 -41 83t-122 32zM221 862q1 -63 51 -101t148 -38t161 49q62 50 62 114t-48 103t-179 82q-195 -74 -195 -209zM766 1323q0 -129 -195 -213q180 -70 181 -205q0 -115 -92 -191t-237 -75
q-144 0 -227 63q-83 64 -83 152t61 153t172 97q-137 61 -137 186q0 104 78 168t203 64q124 0 200 -54t76 -145z" />
    <glyph glyph-name="uni2079" unicode="&#x2079;" horiz-adv-x="819" 
d="M393 967q-102 1 -170 71q-67 70 -67 194t89 207t219 83t210 -78t80 -213q0 -227 -133 -375t-435 -223l-18 80q202 53 312 134t157 234l-4 2q-105 -116 -240 -116zM420 1051q127 0 223 108q4 37 4 51q0 223 -176 224q-92 0 -148 -58q-57 -58 -57 -146q0 -89 42 -134
t112 -45z" />
    <glyph glyph-name="uni207A" unicode="&#x207a;" horiz-adv-x="819" 
d="M530 1305l-22 -187h203l-11 -86h-202l-23 -186h-100l22 186h-198l10 86h199l22 187h100z" />
    <glyph glyph-name="uni207B" unicode="&#x207b;" horiz-adv-x="819" 
d="M700 1030h-501l10 88h502z" />
    <glyph glyph-name="uni207C" unicode="&#x207c;" horiz-adv-x="819" 
d="M688 926h-502l11 86h501zM713 1137h-502l12 86h502z" />
    <glyph glyph-name="uni207D" unicode="&#x207d;" horiz-adv-x="819" 
d="M297 965q0 387 313 696l64 -41q-268 -297 -268 -645q0 -236 135 -445l-74 -38q-170 231 -170 473z" />
    <glyph glyph-name="uni207E" unicode="&#x207e;" horiz-adv-x="819" 
d="M616 1188q0 -387 -313 -696l-63 40q268 297 268 646q0 236 -135 444l73 39q170 -231 170 -473z" />
    <glyph glyph-name="uni2080" unicode="&#x2080;" horiz-adv-x="819" 
d="M350 -334q72 0 122 50t83 160t33 269q0 231 -160 232q-104 0 -169 -120q-65 -119 -65 -355t156 -236zM332 -418q-112 0 -178 86q-68 86 -68 250q0 256 96 401t250 146q126 0 194 -86t68 -261t-69 -339q-37 -89 -109 -143t-184 -54z" />
    <glyph glyph-name="uni2081" unicode="&#x2081;" horiz-adv-x="819" 
d="M465 -403h-109l93 739l-238 -127l-41 78l317 164h84z" />
    <glyph glyph-name="uni2082" unicode="&#x2082;" horiz-adv-x="819" 
d="M453 375q-129 0 -242 -109l-66 56q141 141 322 141q99 0 163 -53t64 -142q0 -118 -108 -244t-371 -343h422l-23 -87h-557l9 74q313 266 414 386t102 210q0 49 -35 80t-94 31z" />
    <glyph glyph-name="uni2083" unicode="&#x2083;" horiz-adv-x="819" 
d="M354 84q98 0 152 46q53 46 53 126q0 121 -151 121q-100 0 -228 -88l-51 65q137 111 295 111q116 0 182 -52q66 -53 66 -133t-51 -141t-134 -80l-2 -6q70 -16 115 -68t45 -124q0 -123 -85 -201t-230 -78q-88 0 -168 33t-129 88l71 59q86 -96 222 -96q100 0 155 51t56 142
q0 145 -187 145h-59l20 80h43z" />
    <glyph glyph-name="uni2084" unicode="&#x2084;" horiz-adv-x="819" 
d="M530 -403h-100l27 208h-398l9 72l354 594l98 -35l-325 -542h272l39 237h90l-29 -237h113l-10 -89h-113z" />
    <glyph glyph-name="uni2085" unicode="&#x2085;" horiz-adv-x="819" 
d="M662 -110q0 -124 -88 -216q-88 -90 -236 -90q-72 0 -149 30t-121 79l69 57q83 -82 193 -82t167 65q56 65 56 157q0 176 -162 176q-72 0 -155 -37h-80l53 422h479l-22 -89h-365l-29 -245q68 27 162 27t162 -66q66 -64 66 -188z" />
    <glyph glyph-name="uni2086" unicode="&#x2086;" horiz-adv-x="819" 
d="M438 78q-131 0 -239 -129q-2 -18 -2 -58q0 -113 50 -167t135 -56q85 0 139 65t54 183q0 162 -137 162zM478 377q-89 0 -169 -95t-104 -262q123 139 262 140q93 0 155 -62t62 -174q0 -156 -88 -248t-219 -92t-210 82t-79 232q0 262 119 414t280 153q117 0 207 -66l-59 -71
q-68 49 -157 49z" />
    <glyph glyph-name="uni2087" unicode="&#x2087;" horiz-adv-x="819" 
d="M233 -424l-96 37l461 747h-451l13 91h571l-10 -76z" />
    <glyph glyph-name="uni2088" unicode="&#x2088;" horiz-adv-x="819" 
d="M426 379q-82 0 -129 -39t-47 -96t38 -91t148 -73q154 86 154 184q0 51 -41 83t-123 32zM354 -334q98 0 161 49t63 113t-48 104q-48 39 -180 82q-195 -74 -194 -209q0 -63 50 -101t148 -38zM700 266q0 -129 -194 -213q180 -70 180 -205q0 -114 -92 -190t-236 -76t-228 64
q-83 64 -83 151q-1 88 61 153t173 97q-137 61 -137 175t77 178q78 64 203 64t201 -53q75 -55 75 -145z" />
    <glyph glyph-name="uni2089" unicode="&#x2089;" horiz-adv-x="819" 
d="M328 -90q-102 0 -170 71t-68 195t89 206q89 83 219 83t210 -78t80 -213q0 -226 -133 -374t-434 -224l-19 80q201 53 312 134t157 235l-4 2q-104 -117 -239 -117zM354 -6q127 0 224 108q4 37 4 52q0 223 -176 223q-92 1 -148 -57t-57 -147t41 -134t112 -45z" />
    <glyph glyph-name="uni208A" unicode="&#x208a;" horiz-adv-x="819" 
d="M465 248l-23 -187h203l-10 -86h-203l-22 -186h-101l23 186h-199l10 86h199l23 187h100z" />
    <glyph glyph-name="uni208B" unicode="&#x208b;" horiz-adv-x="819" 
d="M635 -27h-502l10 88h502z" />
    <glyph glyph-name="uni208C" unicode="&#x208c;" horiz-adv-x="819" 
d="M623 -131h-502l10 86h502zM647 80h-502l13 86h501z" />
    <glyph glyph-name="uni208D" unicode="&#x208d;" horiz-adv-x="819" 
d="M231 -92q0 387 314 696l63 -41q-268 -297 -268 -645q0 -236 135 -444l-74 -39q-170 231 -170 473z" />
    <glyph glyph-name="uni208E" unicode="&#x208e;" horiz-adv-x="819" 
d="M551 131q0 -387 -313 -696l-64 41q268 297 268 645q0 236 -135 444l74 39q170 -231 170 -473z" />
    <glyph glyph-name="Euro" unicode="&#x20ac;" horiz-adv-x="1024" 
d="M600 -23q-395 0 -416 523h-164l37 100h127q2 94 17 193h-144l37 100h129q59 239 201 365t313 126q172 0 299 -79l-61 -91q-99 66 -235 66t-239 -98t-155 -289h524l-36 -100h-508q-16 -90 -19 -193h465l-35 -100h-430q8 -228 83 -324q74 -96 220 -96t279 98l-17 -123
q-139 -78 -272 -78z" />
    <glyph glyph-name="uni2116" unicode="&#x2116;" horiz-adv-x="2295" 
d="M1251 1403l-172 -1403h-151l-516 1274h-4q-8 -180 -66 -660l-74 -614h-114l172 1403h149l516 -1276h4q16 256 80 772l62 504h114zM1960 0h-678l10 98h678zM1788 1333q-145 0 -236 -115q-90 -116 -90 -331q0 -135 62 -203t170 -68q143 0 234 118t91 329q0 135 -61 203
t-170 67zM1348 893q0 238 120 383q121 145 324 145q158 0 249 -93t91 -265q0 -242 -121 -388t-319 -147q-162 0 -253 94t-91 271z" />
    <glyph glyph-name="trademark" unicode="&#x2122;" horiz-adv-x="1843" 
d="M1575 623h-94l-21 391q-4 86 -4 264l-211 -565h-88l-217 567q0 -166 -4 -266l-18 -391h-93l39 778h117l221 -580l215 580h119zM500 623h-97v694h-260v84h623l-16 -84h-250v-694z" />
    <glyph glyph-name="Omega" unicode="&#x2126;" horiz-adv-x="1429" 
d="M164 588q0 379 184 608t459 229q221 0 355 -147t134 -425t-104 -460t-272 -278l-2 -6h264l-13 -109h-411l12 102q402 221 399 758q0 236 -99 348t-265 113q-215 0 -365 -198q-150 -199 -150 -531t251 -490l-13 -102h-411l12 109h270l2 6q-109 75 -173 199t-64 274z" />
    <glyph glyph-name="estimated" unicode="&#x212e;" horiz-adv-x="1935" 
d="M1479 764v391q-188 203 -522 203t-500 -203v-391h1022zM1776 684h-1319v-434q59 -90 209 -142t302 -52t297 50q146 51 226 146h117q-238 -276 -641 -277q-346 0 -577 205q-230 205 -230 519t235 527q236 212 570 212q335 0 573 -213t238 -541z" />
    <glyph glyph-name="onethird" unicode="&#x2153;" horiz-adv-x="1843" 
d="M1466 487q98 1 152 47t53 125q0 121 -151 121q-100 0 -228 -88l-51 66q137 111 295 110q116 0 182 -52t66 -132t-51 -141t-134 -80l-2 -6q70 -17 115 -69t45 -124q0 -123 -85 -201t-230 -77q-88 0 -168 32t-129 88l72 60q86 -96 221 -96q100 0 155 51t56 141
q0 145 -187 146h-59l20 79h43zM1511 1477l-1026 -1639l-88 47l1028 1639zM530 571h-108l92 740l-238 -127l-40 78l317 163h84z" />
    <glyph glyph-name="twothirds" unicode="&#x2154;" horiz-adv-x="1843" 
d="M1446 487q98 1 151 47t54 125q0 121 -152 121q-100 0 -227 -88l-51 66q137 111 295 110q116 0 182 -52t66 -132t-52 -141q-51 -61 -133 -80l-2 -6q70 -17 115 -69t45 -124q0 -123 -85 -201t-231 -77q-88 0 -168 32t-129 88l72 60q86 -96 221 -96q100 0 156 51
q55 51 55 141q0 145 -186 146h-60l21 79h43zM1511 1477l-1026 -1639l-88 47l1028 1639zM643 1241q0 49 -35 80t-94 31q-129 0 -242 -109l-65 55q141 141 321 142q100 0 164 -54t64 -156q0 -104 -109 -230t-371 -343h422l-22 -86h-557l8 74q313 266 415 386q101 120 101 210z
" />
    <glyph glyph-name="uni2155" unicode="&#x2155;" horiz-adv-x="1843" 
d="M1510 547q94 0 160 -65q66 -66 67 -190q0 -124 -87 -214t-237 -90q-73 0 -149 30t-121 78l69 58q84 -82 194 -82t166 64q56 65 56 157q0 176 -162 176q-72 0 -155 -37h-80l53 422h479l-22 -88h-365l-28 -246q68 27 162 27zM1481 1477l-1026 -1639l-88 47l1028 1639z
M530 571h-108l92 740l-238 -127l-40 78l317 163h84z" />
    <glyph glyph-name="uni2156" unicode="&#x2156;" horiz-adv-x="1843" 
d="M1500 547q94 0 160 -65q66 -66 66 -190t-87 -214t-236 -90q-72 0 -149 30t-121 78l69 58q84 -82 194 -82t166 64q56 65 56 157q0 176 -162 176q-72 0 -156 -37h-79l53 422h479l-22 -88h-365l-29 -246q69 27 163 27zM1532 1477l-1026 -1639l-88 47l1028 1639zM643 1241
q0 49 -35 80t-94 31q-129 0 -242 -109l-65 55q141 141 321 142q100 0 164 -54t64 -156q0 -104 -109 -230t-371 -343h422l-22 -86h-557l8 74q313 266 415 386q101 120 101 210z" />
    <glyph glyph-name="uni2157" unicode="&#x2157;" horiz-adv-x="1843" 
d="M1479 547q95 0 161 -65q66 -66 66 -190t-87 -214t-237 -90q-72 0 -148 30t-122 78l70 58q84 -82 193 -82t166 64q56 65 56 157t-43 134q-42 42 -116 42t-158 -37h-80l53 422h480l-23 -88h-364l-29 -246q68 27 162 27zM1491 1477l-1026 -1639l-88 47l1028 1639zM418 1059
q98 0 151 46t54 126q0 121 -152 121q-100 0 -227 -88l-51 65q139 111 294 111q115 0 182 -52t67 -132t-52 -142q-51 -61 -133 -80l-2 -6q70 -16 115 -68t45 -124q0 -123 -85 -201t-231 -78q-88 0 -168 33t-129 88l72 59q86 -96 221 -96q100 0 156 51q55 51 55 142
q0 145 -186 145h-60l21 80h43z" />
    <glyph glyph-name="uni2158" unicode="&#x2158;" horiz-adv-x="1843" 
d="M1479 547q95 0 161 -65q66 -66 66 -190t-87 -214t-237 -90q-72 0 -148 30t-122 78l70 58q84 -82 193 -82t166 64q56 65 56 157t-43 134q-42 42 -116 42t-158 -37h-80l53 422h480l-23 -88h-364l-29 -246q68 27 162 27zM1501 1477l-1026 -1639l-88 47l1028 1639zM596 571
h-100l26 209h-397l8 72l354 594l99 -35l-326 -543h272l39 238h91l-29 -238h112l-10 -88h-112z" />
    <glyph glyph-name="uni2159" unicode="&#x2159;" horiz-adv-x="1843" 
d="M1493 481q-63 0 -128 -36t-112 -93q-2 -18 -2 -57q1 -113 51 -168t135 -55t139 64t54 183q0 162 -137 162zM1533 780q-89 0 -169 -95t-104 -261q123 139 262 139q92 0 154 -61t63 -174q0 -156 -88 -248t-219 -92t-210 82t-79 231q0 262 119 415t280 152q117 0 207 -65
l-59 -72q-68 49 -157 49zM1481 1477l-1026 -1639l-88 47l1028 1639zM530 571h-108l92 740l-238 -127l-40 78l317 163h84z" />
    <glyph glyph-name="uni215A" unicode="&#x215a;" horiz-adv-x="1843" 
d="M1454 481q-131 0 -240 -129q-2 -18 -2 -57q0 -113 50 -168t136 -55q85 0 139 64t54 183q0 162 -137 162zM1494 780q-89 0 -169 -95t-104 -261q123 139 262 139q92 0 154 -61t63 -174q0 -156 -88 -248t-219 -92t-210 82t-79 231q0 262 119 415t280 152q117 0 207 -65
l-59 -72q-68 49 -157 49zM1491 1477l-1026 -1639l-88 47l1028 1639zM727 864q0 -124 -87 -214t-237 -91q-73 0 -149 30t-121 79l70 57q83 -82 193 -82t166 65t56 157q0 175 -161 175q-72 0 -156 -36h-80l53 421h480l-23 -88h-364l-29 -245q68 26 162 26t160 -64
q66 -66 67 -190z" />
    <glyph glyph-name="oneeighth" unicode="&#x215b;" horiz-adv-x="1843" 
d="M1645 668q0 50 -41 82t-123 32t-129 -39t-47 -96q-1 -57 37 -91t149 -73q154 86 154 185zM1210 209q0 -63 50 -101t149 -38q98 0 161 49q62 49 62 113t-48 104q-48 39 -179 82q-195 -74 -195 -209zM1755 670q0 -129 -194 -213q180 -70 180 -205q0 -115 -92 -191
q-93 -75 -237 -75t-227 63t-83 151t61 154q61 64 172 97q-137 61 -137 186q0 103 78 167t203 64t201 -54t75 -144zM1481 1477l-1026 -1639l-88 47l1028 1639zM530 571h-108l92 740l-238 -127l-40 78l317 163h84z" />
    <glyph glyph-name="threeeighths" unicode="&#x215c;" horiz-adv-x="1843" 
d="M1469 782q-81 0 -129 -39t-48 -96t38 -91t149 -73q154 86 153 185q0 50 -40 82t-123 32zM1198 209q0 -63 50 -101t149 -38q98 0 161 49q62 49 62 113t-48 104q-48 39 -179 82q-195 -74 -195 -209zM1743 670q0 -129 -195 -213q180 -70 181 -205q-1 -115 -93 -191
q-92 -75 -236 -75t-228 63q-82 63 -82 151t61 154q61 64 172 97q-137 61 -137 186q0 103 78 167t203 64t201 -54t75 -144zM1491 1477l-1026 -1639l-88 47l1028 1639zM418 1059q98 0 151 46t54 126q0 121 -152 121q-100 0 -227 -88l-51 65q139 111 294 111q115 0 182 -52
t67 -132t-52 -142q-51 -61 -133 -80l-2 -6q70 -16 115 -68t45 -124q0 -123 -85 -201t-231 -78q-88 0 -168 33t-129 88l72 59q86 -96 221 -96q100 0 156 51q55 51 55 142q0 145 -186 145h-60l21 80h43z" />
    <glyph glyph-name="fiveeighths" unicode="&#x215d;" horiz-adv-x="1843" 
d="M1655 668q0 50 -41 82t-123 32t-129 -39t-47 -96t38 -91t148 -73q154 86 154 185zM1419 70q98 0 161 49q62 49 62 113t-48 104q-48 39 -179 82q-195 -74 -194 -209q0 -63 50 -101t148 -38zM1765 670q0 -129 -194 -213q180 -70 180 -205q0 -115 -92 -191q-93 -75 -237 -75
t-227 63t-83 151t62 154q62 64 172 97q-138 61 -138 175t78 178t203 64t201 -54t75 -144zM1501 1477l-1026 -1639l-88 47l1028 1639zM727 864q0 -124 -87 -214t-237 -91q-73 0 -149 30t-121 79l70 57q83 -82 193 -82t166 65t56 157q0 175 -161 175q-72 0 -156 -36h-80
l53 421h480l-23 -88h-364l-29 -245q68 26 162 26t160 -64q66 -66 67 -190z" />
    <glyph glyph-name="seveneighths" unicode="&#x215e;" horiz-adv-x="1843" 
d="M1516 668q0 50 -41 82t-123 32t-129 -39t-47 -96t38 -91t148 -73q154 86 154 185zM1081 209q1 -63 51 -101t148 -38t161 49q62 49 62 113t-48 104q-48 39 -179 82q-195 -74 -195 -209zM1626 670q0 -129 -194 -213q180 -70 180 -205q0 -115 -92 -191q-92 -75 -236 -75
t-228 63q-83 63 -83 151t61 154q61 64 172 97q-137 61 -137 186q0 103 78 167t203 64q124 0 200 -54t76 -144zM1348 1477l-1026 -1639l-89 47l1029 1639zM299 551l-96 37l461 747h-451l12 90h572l-11 -75z" />
    <glyph glyph-name="uni215F" unicode="&#x215f;" horiz-adv-x="1843" 
d="M1511 1477l-1026 -1639l-88 47l1028 1639zM530 571h-108l92 740l-238 -127l-40 78l317 163h84z" />
    <glyph glyph-name="arrowleft" unicode="&#x2190;" horiz-adv-x="1843" 
d="M1556 725v-102h-1087l-2 -7q63 -47 145 -135l289 -323l-84 -74l-530 590l530 590l84 -74l-289 -324q-82 -88 -145 -135l2 -6h1087z" />
    <glyph glyph-name="arrowup" unicode="&#x2191;" horiz-adv-x="1843" 
d="M977 0h-111v1128l-6 2q-41 -55 -133 -141l-324 -289l-75 78l594 533l594 -533l-76 -78l-324 289q-80 68 -133 141l-6 -2v-1128z" />
    <glyph glyph-name="arrowright" unicode="&#x2192;" horiz-adv-x="1843" 
d="M287 623v102h1087l2 6q-63 47 -145 135l-289 324l84 74l530 -590l-530 -590l-84 74l289 323q82 88 145 135l-2 7h-1087z" />
    <glyph glyph-name="arrowdown" unicode="&#x2193;" horiz-adv-x="1843" 
d="M866 1270h111v-1129l6 -2q57 72 133 142l324 288l76 -77l-594 -533l-594 533l75 77l324 -288q92 -86 133 -142l6 2v1129z" />
    <glyph glyph-name="arrowboth" unicode="&#x2194;" horiz-adv-x="2621" 
d="M446 731l3 -6h1724l2 6q-63 47 -145 135l-289 324l84 74l530 -590l-530 -590l-84 74l289 323q80 88 145 137l-2 7h-1724l-3 -7q66 -49 146 -137l289 -323l-84 -74l-531 590l531 590l84 -74l-289 -324q-83 -88 -146 -135z" />
    <glyph glyph-name="arrowupdn" unicode="&#x2195;" horiz-adv-x="1843" 
d="M977 1559v-1725l6 -2q57 72 133 141l324 289l76 -78l-594 -532l-594 532l75 78l324 -289q98 -92 135 -141l6 2v1725l-6 2q-37 -49 -135 -142l-324 -289l-75 78l594 533l594 -533l-76 -78l-324 289q-80 68 -133 142z" />
    <glyph glyph-name="uni2196" unicode="&#x2196;" horiz-adv-x="1843" 
d="M756 1069q-54 0 -127 8l-2 -6l796 -799l-75 -75l-793 794l-6 -4q14 -106 8 -194l-25 -435l-112 9l41 790l792 41l9 -102l-435 -25q-17 -2 -71 -2z" />
    <glyph glyph-name="uni2197" unicode="&#x2197;" horiz-adv-x="1843" 
d="M1098 1069q-60 0 -82 2l-434 25l8 102l792 -41l41 -790l-112 -9l-25 435q-6 78 8 194l-6 4l-792 -794l-76 75l797 799l-3 6q-56 -8 -116 -8z" />
    <glyph glyph-name="uni2198" unicode="&#x2198;" horiz-adv-x="1843" 
d="M1262 503q0 52 2 72l20 375l107 -6l-43 -735l-732 -39l-6 98l373 21q19 2 73 2t130 -8l4 6l-739 737l81 82l734 -731l6 2q-10 72 -10 124z" />
    <glyph glyph-name="uni2199" unicode="&#x2199;" horiz-adv-x="1843" 
d="M774 291q62 0 84 -2l373 -21l-6 -98l-731 39l-43 735l106 6l21 -375q6 -80 -9 -196l6 -2l734 731l82 -82l-740 -737l4 -6q57 8 119 8z" />
    <glyph glyph-name="uni21E6" unicode="&#x21e6;" horiz-adv-x="2048" 
d="M1794 477v328h-1194v227l-387 -391l387 -391v227h1194zM1884 793v-304q0 -47 -29 -75t-73 -27h-1090v-360l-610 614l610 614v-360h1090q46 1 74 -27t28 -75z" />
    <glyph glyph-name="uni21E7" unicode="&#x21e7;" horiz-adv-x="1474" 
d="M565 66h344v1120h219l-391 387l-391 -387h219v-1120zM903 -25h-332q-47 0 -75 29t-27 74v1016h-346l614 610l615 -610h-346v-1016q0 -45 -28 -74t-75 -29z" />
    <glyph glyph-name="uni21E8" unicode="&#x21e8;" horiz-adv-x="2048" 
d="M254 805v-328h1194v-227l387 391l-387 391v-227h-1194zM164 489v304q0 47 29 75t73 27h1090v360l610 -614l-610 -614v360h-1090q-46 -1 -74 27t-28 75z" />
    <glyph glyph-name="uni21E9" unicode="&#x21e9;" horiz-adv-x="1474" 
d="M909 1446h-344v-1120h-219l391 -387l391 387h-219v1120zM571 1536h332q47 0 75 -29t28 -73v-1016h346l-615 -611l-614 611h346v1016q-1 46 27 74t75 28z" />
    <glyph glyph-name="uni21EA" unicode="&#x21ea;" horiz-adv-x="1474" 
d="M909 231h-344v-165h344v165zM565 608h344v578h219l-391 387l-391 -387h219v-578zM469 317h537v-239q0 -45 -28 -74t-75 -29h-332q-47 0 -75 29t-27 74v239zM1006 522h-537v572h-346l614 610l615 -610h-346v-572z" />
    <glyph glyph-name="partialdiff" unicode="&#x2202;" horiz-adv-x="1064" 
d="M483 76q291 0 338 446q-106 205 -303 205q-131 0 -213 -94t-82 -250q-1 -155 71 -231t189 -76zM500 825q100 0 188 -46t141 -128l7 2q4 45 4 60q0 229 -121 369t-385 206l35 96q311 -76 450 -236t139 -439q0 -367 -129 -549t-358 -183q-162 -1 -265 105
q-104 106 -104 298t115 319q115 126 283 126z" />
    <glyph glyph-name="Delta" unicode="&#x2206;" horiz-adv-x="1107" 
d="M643 1296l-524 -1192h760l-232 1192h-4zM1020 0h-1075l633 1403h153z" />
    <glyph glyph-name="product" unicode="&#x220f;" horiz-adv-x="1372" 
d="M903 -406l-112 -14l206 1686h-458l-205 -1672l-113 -14l207 1686h-182l12 96h1045l-13 -96h-182z" />
    <glyph glyph-name="summation" unicode="&#x2211;" horiz-adv-x="1064" 
d="M727 707l-8 -68l-483 -535h618l-12 -104h-764l10 88l526 596l-381 590l11 88h764l-13 -102h-620z" />
    <glyph glyph-name="minus" unicode="&#x2212;" horiz-adv-x="1024" 
d="M881 586h-738l13 106h737z" />
    <glyph glyph-name="uni2215" unicode="&#x2215;" horiz-adv-x="102" 
d="M621 1477l-1027 -1639l-88 47l1029 1639z" />
    <glyph glyph-name="uni2219" unicode="&#x2219;" horiz-adv-x="573" 
d="M197 647q0 41 26 69q27 28 72 28t72 -28q27 -26 27 -69t-28 -69q-26 -26 -71 -27t-71 27t-27 69z" />
    <glyph glyph-name="radical" unicode="&#x221a;" horiz-adv-x="1064" 
d="M1382 1673h-295l-669 -1673h-131l-232 961l107 34l196 -862h4l650 1643h383z" />
    <glyph glyph-name="infinity" unicode="&#x221e;" horiz-adv-x="1843" 
d="M317 619q1 -242 219 -242q104 0 184 74q81 74 150 213q-47 115 -111 183t-178 68t-189 -84t-75 -212zM1276 377q112 0 188 87q76 86 76 210t-57 182t-161 59t-184 -73t-151 -213q47 -115 111 -183t178 -69zM1266 270q-250 0 -351 271q-164 -270 -411 -271q-133 0 -220 87
t-87 258t112 289q113 118 283 118q125 0 214 -72t134 -200q164 272 414 272q133 0 219 -85t86 -235q-1 -200 -115 -316t-278 -116z" />
    <glyph glyph-name="integral" unicode="&#x222b;" horiz-adv-x="593" 
d="M627 1745q121 0 239 -66l-47 -86q-96 51 -203 52q-156 0 -178 -185l-196 -1601q-33 -279 -303 -279q-115 0 -230 64l47 86q92 -49 182 -49t133 43q42 43 54 141l197 1601q35 279 305 279z" />
    <glyph glyph-name="approxequal" unicode="&#x2248;" horiz-adv-x="1024" 
d="M643 383q-61 0 -167 46t-140 46q-94 0 -162 -90l-70 47q45 70 113 109t135 39q68 0 170 -46t137 -47q94 0 162 91l72 -54q-96 -141 -250 -141zM684 737q-60 0 -166 46t-141 46q-94 0 -162 -90l-70 47q45 70 113 109t135 39t169 -46t138 -46q94 0 162 90l72 -53
q-96 -142 -250 -142z" />
    <glyph glyph-name="notequal" unicode="&#x2260;" horiz-adv-x="1024" 
d="M858 406h-457l-182 -252l-76 47l150 205h-172l12 106h238l180 250h-387l14 106h451l182 250l76 -41l-152 -209h180l-14 -106h-242l-182 -250h393z" />
    <glyph glyph-name="lessequal" unicode="&#x2264;" horiz-adv-x="1024" 
d="M817 293l-670 338l13 102l753 338l35 -98l-674 -297l600 -291zM809 0h-737l12 109h737z" />
    <glyph glyph-name="greaterequal" unicode="&#x2265;" horiz-adv-x="1024" 
d="M227 1071l670 -338l-12 -102l-754 -338l-35 98l674 297l-600 291zM809 0h-737l12 109h737z" />
    <glyph glyph-name="dotmath" unicode="&#x22c5;" horiz-adv-x="573" 
d="M197 647q0 41 26 69q27 28 72 28t72 -28q27 -26 27 -69t-28 -69q-26 -26 -71 -27t-71 27t-27 69z" />
    <glyph glyph-name="uni2326" unicode="&#x2326;" horiz-adv-x="2867" 
d="M307 -25q-45 0 -74 29t-28 74v1280q0 47 28 75q29 28 74 27h1700l778 -739l-778 -746h-1700zM1030 727l-315 -315l137 -138l315 316l316 -316l137 138l-315 315l315 313l-137 142l-316 -318l-315 318l-137 -142z" />
    <glyph glyph-name="uni2327" unicode="&#x2327;" horiz-adv-x="2539" 
d="M2232 -25h-1925q-45 0 -74 29t-28 74v1280q0 47 28 75q29 28 74 27h1925q45 0 74 -28t29 -74v-1280q0 -45 -29 -74t-74 -29zM1133 727l-316 -315l137 -138l316 316l315 -316l137 138l-315 315l315 313l-137 142l-315 -318l-316 318l-137 -142z" />
    <glyph glyph-name="uni2328" unicode="&#x2328;" horiz-adv-x="2990" 
d="M2128 324h-1258q-16 0 -28 -12t-13 -29v-152q1 -17 13 -29t28 -12h1258q16 0 29 12q12 12 12 29v152q-1 17 -13 29t-28 12zM2210 662h-152q-16 0 -28 -12t-13 -29v-152q1 -17 13 -29t28 -12h152q16 0 28 12t13 29v152q-1 17 -13 29t-28 12zM1841 662h-151q-16 0 -28 -12
t-13 -29v-152q0 -17 12 -29t29 -12h151q16 0 29 12q12 12 12 29v152q0 17 -12 29t-29 12zM1473 662h-152q-17 0 -29 -12t-12 -29v-152q0 -17 12 -29t29 -12h152q16 0 28 12t12 29v152q0 17 -12 29t-28 12zM1104 662h-152q-16 0 -28 -12t-13 -29v-152q1 -17 13 -29t28 -12
h152q16 0 29 12q12 12 12 29v152q-1 17 -13 29t-28 12zM735 662h-151q-16 0 -28 -12t-13 -29v-152q0 -17 12 -29t29 -12h151q16 0 29 12q12 12 12 29v152q0 17 -12 29t-29 12zM2128 1010h-152q-16 0 -28 -12t-13 -29v-152q1 -17 13 -29t28 -12h152q16 0 29 12q12 12 12 29
v152q-1 17 -13 29t-28 12zM1759 1010h-151q-16 0 -28 -12t-13 -29v-152q0 -17 12 -29t29 -12h151q16 0 29 12q12 12 12 29v152q0 17 -12 29t-29 12zM1391 1010h-152q-17 0 -29 -12t-12 -29v-152q0 -17 12 -29t29 -12h152q16 0 28 12t13 29v152q0 17 -12 29t-29 12z
M1022 1010h-152q-16 0 -28 -12t-13 -29v-152q1 -17 13 -29t28 -12h152q16 0 29 12q12 12 12 29v152q-1 17 -13 29t-28 12zM653 1010h-151q-16 0 -28 -12t-13 -29v-152q0 -17 12 -29t29 -12h151q16 0 29 12q12 12 12 29v152q0 17 -12 29t-29 12zM2386 735v-266q0 -17 12 -29
t29 -12h110q16 0 29 12q12 12 12 29v500q0 16 -12 28t-29 13h-192q-17 0 -29 -12t-12 -29v-152q0 -17 12 -29t28 -12t30 -12q12 -13 12 -29zM2537 1348h-274q-17 0 -29 -12t-12 -29v-152q0 -17 12 -29t29 -12h274q16 0 29 12q12 12 12 29v152q0 17 -12 29t-29 12zM2046 1348
h-152q-16 0 -28 -12t-13 -29v-152q1 -17 13 -29t28 -12h152q16 0 29 12q12 12 12 29v152q-1 17 -13 29t-28 12zM1677 1348h-151q-16 0 -28 -12t-13 -29v-152q0 -17 12 -29t29 -12h151q16 0 29 12q12 12 12 29v152q0 17 -12 29t-29 12zM1309 1348h-152q-17 0 -29 -12t-12 -29
v-152q0 -17 12 -29t29 -12h152q16 0 28 12t13 29v152q0 17 -12 29t-29 12zM940 1348h-152q-16 0 -28 -12t-12 -29v-152q0 -17 12 -29t28 -12h152q16 0 29 12q12 12 12 29v152q-1 17 -13 29t-28 12zM571 1348h-151q-16 0 -28 -12t-13 -29v-152q0 -17 12 -29t29 -12h151
q16 0 29 12q12 12 12 29v152q0 17 -12 29t-29 12zM2642 -25h-2294q-45 0 -74 29t-28 74v1280q0 47 28 75q29 28 74 27h2294q45 0 74 -28t28 -74v-1280q0 -45 -28 -74t-74 -29z" />
    <glyph glyph-name="uni232B" unicode="&#x232b;" horiz-adv-x="2867" 
d="M2560 -25h-1700l-778 746l778 739h1700q45 0 74 -28t28 -74v-1280q0 -45 -28 -74t-74 -29zM2152 412l-315 315l315 313l-137 142l-315 -318l-316 318l-137 -142l316 -313l-316 -315l137 -138l316 316l315 -316z" />
    <glyph glyph-name="uni23CE" unicode="&#x23ce;" horiz-adv-x="2048" 
d="M1313 897v537q-1 46 27 74t75 28h326q45 0 74 -29t28 -73v-945q-1 -47 -29 -75t-73 -27h-1049v-356l-610 610l610 612v-356h621z" />
    <glyph glyph-name="uni25AF" unicode="&#x25af;" horiz-adv-x="1206" 
d="M389 1223v-1035h436v1035h-436zM1014 0h-813v1411h813v-1411z" />
    <glyph glyph-name="lozenge" unicode="&#x25ca;" horiz-adv-x="1024" 
d="M457 109l379 571l-240 569h-8l-379 -569l240 -571h8zM961 682l-467 -682h-99l-311 682l469 680h98z" />
    <glyph glyph-name="uni27A1" unicode="&#x27a1;" horiz-adv-x="2048" 
d="M164 489v304q0 47 29 75t73 27h1090v360l610 -614l-610 -614v360h-1090q-46 -1 -74 27t-28 75z" />
    <glyph glyph-name="uni2B05" unicode="&#x2b05;" horiz-adv-x="2048" 
d="M1884 793v-304q0 -47 -29 -75t-73 -27h-1090v-360l-610 614l610 614v-360h1090q46 1 74 -27t28 -75z" />
    <glyph glyph-name="uni2B06" unicode="&#x2b06;" horiz-adv-x="1474" 
d="M903 -25h-332q-47 0 -75 29t-27 74v1016h-346l614 610l615 -610h-346v-1016q0 -45 -28 -74t-75 -29z" />
    <glyph glyph-name="uni2B07" unicode="&#x2b07;" horiz-adv-x="1474" 
d="M571 1536h332q47 0 75 -29t28 -73v-1016h346l-615 -611l-614 611h346v1016q-1 46 27 74t75 28z" />
    <glyph glyph-name="uniE000" unicode="&#xe000;" horiz-adv-x="0" 
d="M1653 1004q-70 0 -158 71l37 2l108 -41l82 -6l-10 -16q-25 -10 -59 -10zM1026 1160q0 -50 6 -77h-12q-78 55 -78 129q-42 -14 -74 -49l-12 -10l-8 8q51 178 237 178l82 -10l-10 -14l-104 -53q-27 -52 -27 -102zM1233 1120v4l-55 70l2 8q94 -31 161 -102l-2 -8
q-10 -2 -82 -15v-8l56 -100l-6 -6q-86 18 -152 18l-162 -12l-12 6q66 57 176 78v6l-63 35l2 8q94 18 137 18zM2349 664q-1 100 -31 100q-14 0 -14 -22t4 -64h-12q-64 74 -64 101t30 59t30 49q-6 9 -38 28t-60 28q-27 9 -50 17t-38 15q-15 6 -43 15q-205 66 -347 186l-8 -2
l90 -109l-4 -10q-137 0 -215 37t-78 91t90 77l4 8q-3 4 -39 4t-75 -22t-39 -70t41 -97h-25q-30 16 -52 47t-30 54l-6 22l-158 27l5 10q297 117 391 117q51 0 78 -17h10q-35 59 -92 60q-92 0 -340 -88l-13 2q6 39 47 72l-2 8q-129 47 -227 47q-185 0 -308 -121
q-100 -98 -130 -156l4 -6q66 18 117 25l2 -10q-127 -92 -127 -267q0 -57 14 -102l-8 -8q-31 23 -62 108h-4q-8 -29 -14 -80l-10 -2l-21 33q-8 -4 -8 -43q0 -98 57 -194q11 -16 63 -84t52 -102t-28 -81t-27 -75l6 -31q100 2 141 8l8 -8q-25 -37 -239 -137l12 -11l176 39
l6 -10l-131 -78q115 -96 274 -149t267 -54v5q-45 49 -86 135l8 8l125 -82q18 31 31 57q-41 31 -86 86t-56 90l9 7q31 -25 90 -55t84 -29q14 41 14 88l35 53q0 2 -1 2h-11q-11 0 -53 -19t-66 -40l-12 2q0 80 133 157v11l-80 32q-23 12 -76 89t-53 137l20 -7
q127 -147 299 -169q35 2 160 32t143 37q50 -27 150 -63t135 -43q40 5 96 41q-37 29 -77 39q-142 35 -244 73q-168 59 -215 140h-6q-2 -6 -2 -16q0 -46 49 -85q4 -4 17 -15t15 -14l-2 -8q-78 7 -123 27q-147 65 -147 217q0 72 29 164h10l10 -113l39 -65q37 49 37 90t-37 78
l-108 122l6 7l102 -43q154 -127 330 -241t284 -142t222 -39l39 -4q18 41 18 82zM1589 1491q113 0 167 -71t54 -134l-6 -47q61 -70 185 -123q57 -26 145 -58t134 -49t88 -45t51 -57t11 -81q3 -52 6 -76t10 -60t7 -54t-48 -126t-73 -117q-12 -6 -43 -6t-43 6q-41 -33 -101 -67
q-59 -34 -109 -35t-163 31t-151 32q-62 0 -141 -42t-123 -76q-45 -34 -75 -134q-9 -34 -25 -122t-41 -125q20 -49 20 -78q-57 -8 -129 -8q-378 0 -660 247q-73 63 -106 105l-33 41l107 57q-49 2 -70 4l-4 15q20 27 105 81q-70 -23 -160 -67l-8 16q23 80 82 148l-154 -107
l-8 15q41 123 153 227l-239 -123l-6 16q57 131 196 256q0 7 -248 -114l-6 16q43 74 118 142t124 94q-268 -100 -287 -107l-6 14q90 117 352 310l-301 -76l-2 16q270 270 573 451q182 110 357 108q59 0 201 -46t153 -46q96 29 170 29z" />
    <glyph glyph-name="uniE001" unicode="&#xe001;" horiz-adv-x="0" 
d="M1722 1030l-82 6l-108 41l-37 -2q88 -72 158 -71q35 0 59 10zM1026 1160q0 50 27 102l104 53l10 14q-33 10 -82 10q-186 0 -237 -178l8 -8q43 45 86 59q0 -74 78 -129h12q-6 27 -6 77zM993 969q72 12 142 12t147 -14l25 -4l6 6l-56 100v8q72 12 82 15l2 8q-67 71 -137 92
l-24 10l-2 -8l55 -70v-4l-137 -18l-2 -8l63 -35v-6q-110 -21 -176 -78zM2304 742q0 22 14 22t22 -30t9 -64q0 -34 -18 -88q-143 14 -256 43t-289 143t-330 240l-102 43l-6 -7l108 -122q37 -37 37 -78t-37 -90l-39 65l-10 113h-10q-29 -92 -29 -140t4 -68q18 -95 116 -159
l44 -22q59 -14 106 -19l2 8q-4 2 -13 12t-14 13q-54 43 -54 90q0 8 2 15h6q63 -107 356 -186q63 -17 102 -25t78 -41q-57 -37 -96 -41q-35 6 -135 43t-150 63q-18 -8 -143 -38t-160 -31q-172 23 -299 169l-20 7q0 -58 53 -136t76 -90l80 -32v-11q-133 -78 -133 -157l12 -2
q24 20 66 40t52 19h12q1 0 1 -2l-35 -53q0 -47 -14 -88q-25 0 -84 30t-90 54l-9 -7q9 -35 55 -90t87 -86l-31 -57q-86 53 -125 82l-8 -8q41 -86 86 -135v-5q-109 0 -267 54t-274 149l131 78l-6 10l-176 -39l-12 11q215 100 239 137l-8 8l-141 -8q-6 4 -6 32q-1 28 27 74
t28 83q0 36 -86 144q-86 109 -86 234q0 12 4 41l4 2l21 -33l10 2q6 51 14 80h4q31 -86 62 -108l8 8q-14 45 -14 102q0 174 127 267l-2 10q-53 -6 -117 -25l-4 6q30 58 130 156q123 121 309 121q98 0 226 -47l2 -8q-41 -33 -47 -72l13 -2q248 88 340 88q57 0 92 -60h-10
q-27 16 -78 17q-94 0 -391 -117l-5 -10l158 -27q23 -84 88 -123h25q-41 47 -41 97t39 70q39 22 75 22t39 -4l-4 -8q-90 -23 -90 -77t78 -91t215 -37l4 10l-90 109l8 2q133 -114 347 -186q28 -10 43 -15q15 -6 38 -14q122 -42 148 -74q0 -18 -30 -49t-30 -59t64 -101h12
q-4 42 -4 64z" />
    <glyph glyph-name="uniE002" unicode="&#xe002;" horiz-adv-x="0" 
d="M1669 1106q-10 0 -31 4q27 10 27 39v12q23 -20 43 -51q-29 -4 -39 -4zM1931 588q0 6 8 14q23 -4 39 -16l-45 -49q-2 45 -2 51zM1577 1149q0 -6 4 -14q-31 25 -35 63q39 0 62 -6q-31 -12 -31 -43zM1860 633q39 0 45 -21l-50 -47q1 52 5 68zM2177 519q0 17 12 18
q25 0 41 -9q0 -8 -18 -27t-29 -24q-6 25 -6 42zM2011 575l53 -10q-31 -49 -55 -55q2 57 2 65zM2093 555q31 -4 57 -10q-8 -29 -49 -62zM2294 524q14 0 14 -16t-31 -49l-10 -13l-6 78h33zM1769 638q0 20 13 34q33 0 51 -25l-61 -45q-3 16 -3 36z" />
    <glyph glyph-name="uniE003" unicode="&#xe003;" horiz-adv-x="2527" 
d="M1665 1149q0 -29 -27 -39q20 -4 30 -4t40 4q-20 31 -43 51v-12zM1577 1149q0 31 31 43q-23 6 -62 6q4 -39 35 -63q-4 8 -4 14zM1931 586l2 -49q33 33 45 49q-16 12 -39 16q-8 -8 -8 -16zM1860 633l-5 -68q39 37 50 47q-6 21 -45 21zM2177 519q0 -17 6 -42q11 3 29 23
t18 28q-16 8 -41 9q-12 -1 -12 -18zM2011 575l-2 -65q21 4 55 55q-26 6 -53 10zM2308 510q0 14 -14 14h-33l6 -78q41 50 41 64zM2093 555q4 -49 8 -72q41 33 49 62zM1769 631l3 -29l61 45q-18 25 -51 25q-13 -14 -13 -41zM1653 1004q-70 0 -158 71l37 2l108 -41l82 -6
l-10 -16q-25 -10 -59 -10zM1026 1160q0 -50 6 -77h-12q-78 55 -78 129q-42 -14 -74 -49l-12 -10l-8 8q51 178 237 178l82 -10l-10 -14l-104 -53q-27 -52 -27 -102zM1233 1120v4l-55 70l2 8q94 -31 161 -102l-2 -8q-10 -2 -82 -15v-8l56 -100l-6 -6q-86 18 -152 18l-162 -12
l-12 6q66 57 176 78v6l-63 35l2 8q94 18 137 18zM2349 664q-1 100 -31 100q-14 0 -14 -22t4 -64h-12q-64 74 -64 101t30 59t30 49q-6 9 -38 28t-60 28q-27 9 -50 17t-38 15q-15 6 -43 15q-205 66 -347 186l-8 -2l90 -109l-4 -10q-137 0 -215 37t-78 91t90 77l4 8q-3 4 -39 4
t-75 -22t-39 -70t41 -97h-25q-30 16 -52 47t-30 54l-6 22l-158 27l5 10q297 117 391 117q51 0 78 -17h10q-35 59 -92 60q-92 0 -340 -88l-13 2q6 39 47 72l-2 8q-129 47 -227 47q-185 0 -308 -121q-100 -98 -130 -156l4 -6q66 18 117 25l2 -10q-127 -92 -127 -267
q0 -57 14 -102l-8 -8q-31 23 -62 108h-4q-8 -29 -14 -80l-10 -2l-21 33q-8 -4 -8 -43q0 -98 57 -194q11 -16 63 -84t52 -102t-28 -81t-27 -75l6 -31q100 2 141 8l8 -8q-25 -37 -239 -137l12 -11l176 39l6 -10l-131 -78q115 -96 274 -149t267 -54v5q-45 49 -86 135l8 8
l125 -82q18 31 31 57q-41 31 -86 86t-56 90l9 7q31 -25 90 -55t84 -29q14 41 14 88l35 53q0 2 -1 2h-11q-11 0 -53 -19t-66 -40l-12 2q0 80 133 157v11l-80 32q-23 12 -76 89t-53 137l20 -7q127 -147 299 -169q35 2 160 32t143 37q50 -27 150 -63t135 -43q40 5 96 41
q-37 29 -77 39q-142 35 -244 73q-168 59 -215 140h-6q-2 -6 -2 -16q0 -46 49 -85q4 -4 17 -15t15 -14l-2 -8q-78 7 -123 27q-147 65 -147 217q0 72 29 164h10l10 -113l39 -65q37 49 37 90t-37 78l-108 122l6 7l102 -43q154 -127 330 -241t284 -142t222 -39l39 -4
q18 41 18 82zM1589 1491q113 0 167 -71t54 -134l-6 -47q61 -70 185 -123q57 -26 145 -58t134 -49t88 -45t51 -57t11 -81q3 -52 6 -76t10 -60t7 -54t-48 -126t-73 -117q-12 -6 -43 -6t-43 6q-41 -33 -101 -67q-59 -34 -109 -35t-163 31t-151 32q-62 0 -141 -42t-123 -76
q-45 -34 -75 -134q-9 -34 -25 -122t-41 -125q20 -49 20 -78q-57 -8 -129 -8q-378 0 -660 247q-73 63 -106 105l-33 41l107 57q-49 2 -70 4l-4 15q20 27 105 81q-70 -23 -160 -67l-8 16q23 80 82 148l-154 -107l-8 15q41 123 153 227l-239 -123l-6 16q57 131 196 256
q0 7 -248 -114l-6 16q43 74 118 142t124 94q-268 -100 -287 -107l-6 14q90 117 352 310l-301 -76l-2 16q270 270 573 451q182 110 357 108q59 0 201 -46t153 -46q96 29 170 29z" />
    <glyph glyph-name="fi" unicode="&#xfb01;" horiz-adv-x="1159" 
d="M670 1522q154 0 301 -72l-47 -90q-118 61 -238 61t-170 -46t-65 -158l-21 -146h580l-150 -1071h-117l136 975h-463l-127 -916q-29 -207 -101 -299t-260 -178l-34 94q145 68 200 146t78 235l127 918h-199l15 96h198l23 152q24 155 102 227t232 72z" />
    <glyph glyph-name="fl" unicode="&#xfb02;" horiz-adv-x="1161" 
d="M664 1522q146 0 278 -52l121 21l-186 -1311q-8 -57 8 -80q29 -42 135 -8l24 -84q-57 -31 -133 -31q-180 0 -149 211l166 1180q-124 53 -242 53t-170 -46t-65 -158l-21 -146h283l-29 -96h-268l-127 -916q-29 -207 -101 -299t-260 -178l-34 94q145 68 200 146t78 235
l127 918h-199l15 96h198l23 152q22 159 102 229t226 70z" />
    <glyph glyph-name="uniFEFF" unicode="&#xfeff;" horiz-adv-x="0" 
 />
    <glyph glyph-name="u1F310" unicode="&#x1f310;" horiz-adv-x="2457" 
d="M1884 1329q-182 207 -448 273q156 -168 239 -373q117 39 209 100zM571 168q184 -207 451 -270q-152 162 -240 372q-129 -47 -211 -102zM1436 -102q266 66 448 270q-80 55 -209 102q-83 -204 -239 -372zM1022 1602q-268 -66 -451 -273q96 -61 211 -100q88 211 240 373z
M1149 -123q16 0 27 -2v471q-156 -6 -306 -49q97 -225 279 -420zM1176 1624q-10 -2 -27 -2q-184 -197 -279 -422q164 -43 306 -49v473zM1278 -125q10 2 31 2q186 203 276 420q-150 43 -307 49v-471zM1309 1622q-20 0 -31 2v-473q143 6 307 49q-88 217 -276 422zM1176 702
h-394q7 -163 58 -325q174 49 336 55v270zM1176 797v268q-174 10 -336 55q-51 -158 -58 -323h394zM1278 702v-270q172 -6 338 -55q51 152 57 325h-395zM1278 797h395q-6 176 -57 323q-178 -49 -338 -55v-268zM1939 238q147 207 162 464h-334q-6 -182 -63 -352
q137 -49 235 -112zM356 702q12 -256 160 -464q100 63 236 112q-57 180 -64 352h-332zM2101 797q-16 260 -162 463q-102 -63 -235 -111q57 -170 63 -352h334zM516 1260q-147 -205 -160 -463h332q6 172 64 352q-132 48 -236 111zM2200 750q0 -404 -284 -690t-687 -286
t-687 286t-284 690t284 689t687 285t687 -286t284 -688z" />
    <glyph glyph-name="i.latn_TRK" horiz-adv-x="534" 
d="M379 1313q-39 1 -64 25t-24 61t25 61t63 25q39 0 63 -25q24 -26 25 -62q-1 -36 -25 -60t-63 -25zM276 1071h117l-149 -1071h-117z" />
    <glyph glyph-name="Ldot.latn_CAT" horiz-adv-x="960" 
d="M823 657q-39 0 -63 25q-24 26 -25 62q0 36 25 61q26 25 64 25t63 -26q25 -24 25 -61t-26 -61q-24 -24 -63 -25zM317 1403h121l-159 -1292h585l-28 -111h-691z" />
    <glyph glyph-name="ldot.latn_CAT" horiz-adv-x="544" 
d="M551 657q-39 0 -64 25q-25 26 -25 62t25 61t64 25t63 -26q24 -24 25 -61q-1 -37 -25 -61t-63 -25zM293 -23q-180 0 -150 211l185 1319l118 15l-188 -1342q-8 -57 8 -80q30 -43 135 -8l25 -84q-57 -31 -133 -31z" />
    <glyph glyph-name="parenleft.numr" horiz-adv-x="819" 
d="M297 883q0 387 313 696l64 -41q-268 -297 -268 -645q0 -236 135 -444l-74 -39q-170 231 -170 473z" />
    <glyph glyph-name="parenright.numr" horiz-adv-x="819" 
d="M616 1106q0 -387 -313 -696l-63 41q268 297 268 645q0 236 -135 444l73 39q170 -231 170 -473z" />
    <glyph glyph-name="plus.numr" horiz-adv-x="819" 
d="M530 1223l-22 -187h203l-11 -86h-202l-23 -186h-100l22 186h-198l10 86h199l22 187h100z" />
    <glyph glyph-name="zero.numr" horiz-adv-x="819" 
d="M416 641q187 0 228 333q9 73 9 146q0 231 -159 232q-104 0 -169 -120t-65 -356t156 -235zM398 557q-112 0 -179 86q-68 86 -67 250q0 256 96 401t250 146q126 0 194 -86t68 -260t-70 -340q-37 -88 -108 -143q-72 -54 -184 -54z" />
    <glyph glyph-name="one.numr" horiz-adv-x="819" 
d="M530 571h-108l92 740l-238 -127l-40 78l317 163h84z" />
    <glyph glyph-name="two.numr" horiz-adv-x="819" 
d="M647 1241q0 49 -35 80t-94 31q-129 0 -242 -109l-65 55q141 141 321 142q100 0 164 -54t64 -156q0 -104 -109 -230t-370 -343h421l-22 -86h-557l8 74q313 266 415 386q101 120 101 210z" />
    <glyph glyph-name="three.numr" horiz-adv-x="819" 
d="M420 1059q98 0 151 46t54 126q0 121 -152 121q-100 0 -227 -88l-51 65q137 111 294 111q115 0 182 -52t67 -132t-52 -142q-51 -61 -133 -80l-2 -6q70 -16 115 -68t45 -124q0 -123 -85 -201t-231 -78q-88 0 -168 33t-129 88l72 59q86 -96 221 -96q100 0 156 51
q55 51 55 142q0 145 -186 145h-60l21 80h43z" />
    <glyph glyph-name="four.numr" horiz-adv-x="819" 
d="M596 571h-100l26 209h-397l8 72l354 594l99 -35l-326 -543h272l39 238h91l-29 -238h112l-10 -88h-112z" />
    <glyph glyph-name="five.numr" horiz-adv-x="819" 
d="M727 864q0 -124 -87 -214t-237 -91q-73 0 -149 30t-121 79l70 57q83 -82 193 -82t166 65t56 157q0 175 -161 175q-72 0 -156 -36h-80l53 421h480l-23 -88h-364l-29 -245q68 26 162 26t160 -64q66 -66 67 -190z" />
    <glyph glyph-name="six.numr" horiz-adv-x="819" 
d="M504 1053q-131 0 -240 -129q-2 -18 -2 -58q0 -113 50 -168t135 -55t140 65q54 65 54 183q0 162 -137 162zM544 1352q-89 0 -169 -96t-105 -261q123 139 262 140q92 1 154 -61t64 -175q0 -156 -88 -248t-220 -92t-210 82q-79 82 -78 231q0 262 118 415q119 153 281 153
q117 0 207 -66l-60 -71q-67 49 -156 49z" />
    <glyph glyph-name="seven.numr" horiz-adv-x="819" 
d="M299 551l-96 37l461 747h-451l12 90h572l-11 -75z" />
    <glyph glyph-name="eight.numr" horiz-adv-x="819" 
d="M492 1354q-82 0 -130 -39t-47 -97q0 -58 38 -91q38 -34 149 -72q154 86 153 184q-1 51 -41 83t-122 32zM221 780q1 -63 51 -101t148 -38t161 49q62 50 62 114t-48 103t-179 82q-195 -74 -195 -209zM766 1241q0 -129 -195 -213q180 -70 181 -205q0 -115 -92 -191t-237 -75
q-144 -1 -227 63t-83 152t61 153t172 97q-137 61 -137 186q0 104 78 168t203 64q124 0 200 -54t76 -145z" />
    <glyph glyph-name="nine.numr" horiz-adv-x="819" 
d="M393 885q-102 1 -170 71q-67 70 -67 194t89 207t219 83t210 -78t80 -213q0 -227 -133 -375t-435 -223l-18 80q202 53 312 134t157 234l-4 2q-105 -116 -240 -116zM420 969q127 0 223 108q4 37 4 51q0 223 -176 224q-92 0 -148 -58q-57 -58 -57 -146q0 -89 42 -134
t112 -45z" />
    <glyph glyph-name="equal.numr" horiz-adv-x="819" 
d="M688 844h-502l11 86h501zM713 1055h-502l12 86h502z" />
    <glyph glyph-name="minus.numr" horiz-adv-x="819" 
d="M700 948h-501l10 88h502z" />
    <glyph glyph-name="parenleft.dnom" horiz-adv-x="819" 
d="M231 311q0 387 314 697l63 -41q-268 -297 -268 -645q0 -236 135 -445l-74 -39q-170 231 -170 473z" />
    <glyph glyph-name="parenright.dnom" horiz-adv-x="819" 
d="M551 535q0 -387 -313 -697l-64 41q268 297 268 645q0 236 -135 445l74 39q170 -231 170 -473z" />
    <glyph glyph-name="plus.dnom" horiz-adv-x="819" 
d="M465 651l-23 -186h203l-10 -86h-203l-22 -186h-101l23 186h-199l10 86h199l23 186h100z" />
    <glyph glyph-name="zero.dnom" horiz-adv-x="819" 
d="M350 70q188 0 229 332q9 73 9 147q0 231 -160 231q-104 0 -169 -120t-65 -355t156 -235zM432 868q262 0 262 -346q0 -175 -69 -340q-37 -88 -109 -142t-184 -54t-178 86q-68 86 -68 250q0 256 96 401t250 145z" />
    <glyph glyph-name="one.dnom" horiz-adv-x="819" 
d="M465 0h-109l93 739l-238 -127l-41 78l317 164h84z" />
    <glyph glyph-name="two.dnom" horiz-adv-x="819" 
d="M467 868q99 0 163 -53t64 -141q0 -119 -108 -245t-371 -343h422l-23 -86h-557l9 74q313 266 414 386t102 210q0 49 -35 80t-94 30q-129 0 -242 -108l-66 55q141 141 322 141z" />
    <glyph glyph-name="three.dnom" horiz-adv-x="819" 
d="M354 487q98 1 152 47t53 125q0 121 -151 121q-100 0 -228 -88l-51 66q137 111 295 110q116 0 182 -52t66 -132t-51 -141t-134 -80l-2 -6q70 -17 115 -69t45 -124q0 -123 -85 -201t-230 -77q-88 0 -168 32t-129 88l71 60q86 -96 222 -96q100 0 155 51t56 141
q0 145 -187 146h-59l20 79h43z" />
    <glyph glyph-name="four.dnom" horiz-adv-x="819" 
d="M530 0h-100l27 209h-398l9 72l354 593l98 -34l-325 -543h272l39 238h90l-29 -238h113l-10 -88h-113z" />
    </font>
</defs>
</svg>
