<?xml version="1.0" standalone="no"?>
<!DOCTYPE svg PUBLIC "-//W3C//DTD SVG 1.1//EN" "http://www.w3.org/Graphics/SVG/1.1/DTD/svg11.dtd" >
<svg xmlns="http://www.w3.org/2000/svg">
<metadata>
Created by FontPrep 20130207 at Sat Mar 22 03:58:17 2014
 By Todd Ladner
Digitized data copyright (c) 2012-2013, The Mozilla Foundation and Telefonica S.A.
</metadata>
<defs>
<font id="36b7ce430d12400b5fe6c3119a421218" horiz-adv-x='1024' >
  <font-face 
    font-family="FiraSansOT-BoldItalic"
    font-weight="700"
    font-style="italic"
    font-stretch="normal"
    units-per-em="2048"
    panose-1="2 11 6 3 5 0 0 2 0 4"
    ascent="1638"
    descent="-410"
    x-height="1087"
    cap-height="1419"
    bbox="-1415 -1024 2785 2150"
    underline-thickness="102"
    underline-position="-102"
    slope="-8"
    unicode-range="U+000D-1F310"
  />
<missing-glyph horiz-adv-x="1363" 
d="M645 98q-31 0 -51 22t-21 53q1 32 21 52q20 21 51 21t51 -20t20 -53q0 -31 -20 -53t-51 -22zM696 354q0 -23 -15 -36t-35 -13t-37 13q-15 13 -15 36v172q110 6 148 40t38 110t-26 112t-92 37q-66 0 -98 -14t-42 -14q-49 0 -49 47q1 39 61 59t130 21q227 0 227 -236
q0 -213 -195 -242v-92zM365 -918h636v2962h-636v-2962zM252 -1024v3174h860v-3174h-860z" />
    <glyph glyph-name="f_i" unicode="fi" horiz-adv-x="1216" 
d="M713 1554q213 0 385 -96l-113 -207q-117 61 -219 61t-140 -31q-38 -32 -48 -114l-13 -80h604l-153 -1087h-326l121 860h-279l-104 -731q-35 -242 -155 -375t-355 -209l-82 238q129 47 187 118q57 71 77 216l107 743h-168l33 227h166l12 93q27 190 138 282q112 92 325 92z
" />
    <glyph glyph-name="f_l" unicode="fl" horiz-adv-x="1286" 
d="M742 1319q-80 0 -116 -33t-48 -119l-13 -80h207l-67 -227h-173l-104 -731q-35 -242 -155 -375t-355 -209l-82 238q129 47 187 118q57 71 77 216l107 743h-168l33 227h166l12 93q27 190 138 282q112 92 329 92q125 0 252 -38l295 32l-174 -1235q-14 -90 45 -90q23 0 53 10
l31 -229q-96 -39 -201 -39q-260 0 -260 260q0 50 8 99l135 968q-80 27 -159 27z" />
    <glyph glyph-name=".notdef" horiz-adv-x="1363" 
d="M645 98q-31 0 -51 22t-21 53q1 32 21 52q20 21 51 21t51 -20t20 -53q0 -31 -20 -53t-51 -22zM696 354q0 -23 -15 -36t-35 -13t-37 13q-15 13 -15 36v172q110 6 148 40t38 110t-26 112t-92 37q-66 0 -98 -14t-42 -14q-49 0 -49 47q1 39 61 59t130 21q227 0 227 -236
q0 -213 -195 -242v-92zM365 -918h636v2962h-636v-2962zM252 -1024v3174h860v-3174h-860z" />
    <glyph glyph-name=".null" horiz-adv-x="0" 
 />
    <glyph glyph-name="nonmarkingreturn" horiz-adv-x="681" 
 />
    <glyph glyph-name="CR" unicode="&#xd;" horiz-adv-x="483" 
 />
    <glyph glyph-name="space" unicode=" " horiz-adv-x="483" 
 />
    <glyph glyph-name="exclam" unicode="!" horiz-adv-x="509" 
d="M20 152q0 78 56 132t132 54q77 0 131 -54t54 -132t-54 -132t-131 -55q-76 1 -132 55t-56 132zM379 520l-266 -45l65 944h354z" />
    <glyph glyph-name="quotedbl" unicode="&#x22;" horiz-adv-x="1050" 
d="M862 848h-225l-2 571h297zM449 848h-226l-2 571h295z" />
    <glyph glyph-name="numbersign" unicode="#" horiz-adv-x="1128" 
d="M532 893l-98 -383h193l98 383h-193zM1145 893h-150l-96 -383h125l-27 -215h-155l-74 -295h-270l73 295h-192l-74 -295h-270l74 295h-123l26 215h152l98 383h-129l25 215h159l70 276h270l-69 -276h192l70 276h272l-71 -276h118z" />
    <glyph glyph-name="dollar" unicode="$" horiz-adv-x="1167" 
d="M143 1011q0 155 118 263t323 129l32 299h240l-35 -305q211 -33 355 -168l-172 -189q-145 125 -320 125q-90 1 -137 -33t-47 -94t49 -99t223 -103t258 -165q86 -101 87 -266t-125 -289t-353 -147l-35 -299h-239l36 307q-254 43 -403 207l190 187q162 -147 347 -148
q100 0 162 45q63 45 63 118t-45 116t-172 86q-217 74 -309 171q-91 97 -91 252z" />
    <glyph glyph-name="percent" unicode="%" horiz-adv-x="1779" 
d="M928 289q0 193 108 303t270 110t260 -92t99 -250q0 -158 -104 -276q-104 -119 -289 -119q-147 0 -246 90q-98 90 -98 234zM1161 310q1 -150 131 -150q64 0 101 57t37 148q0 141 -126 141q-62 0 -103 -58q-40 -58 -40 -138zM870 1072q0 -158 -104 -276
q-104 -120 -291 -120q-147 0 -245 90q-97 90 -97 233q0 193 108 304t269 111t261 -92q99 -92 99 -250zM635 1075q1 144 -127 144q-64 1 -102 -57t-39 -138q0 -154 118 -154q74 0 112 58t38 147zM1563 1343l-1127 -1427l-188 131l1122 1428z" />
    <glyph glyph-name="ampersand" unicode="&#x26;" horiz-adv-x="1902" 
d="M715 1059q-101 1 -191 -105t-118 -286q215 20 316 99t101 187q1 105 -108 105zM674 -35q-621 0 -621 549q0 346 210 569t485 224q202 0 310 -86t107 -238q1 -201 -197 -346t-573 -178q14 -133 86 -189t228 -57q246 0 429 141t275 420h-176l29 230h659l-29 -230h-198
q-104 -365 -383 -587t-641 -222z" />
    <glyph glyph-name="quotesingle" unicode="'" horiz-adv-x="634" 
d="M449 848h-226l-2 571h295z" />
    <glyph glyph-name="parenleft" unicode="(" horiz-adv-x="665" 
d="M750 1610q-391 -467 -392 -1133q0 -358 177 -659l-228 -142q-139 228 -205 414t-66 406t43 401q100 433 480 860z" />
    <glyph glyph-name="parenright" unicode=")" horiz-adv-x="665" 
d="M336 956q0 356 -176 662l229 139q139 -231 205 -417t66 -404q-1 -413 -151 -708q-149 -295 -374 -552l-190 148q391 467 391 1132z" />
    <glyph glyph-name="asterisk" unicode="*" horiz-adv-x="907" 
d="M963 1102l-283 -49l207 -203l-225 -164l-136 254l-133 -256l-225 164l203 207l-281 47l84 258l256 -125l-45 287h281l-43 -289l258 127z" />
    <glyph glyph-name="plus" unicode="+" horiz-adv-x="1062" 
d="M729 1098l-39 -320h311l-32 -254h-312l-39 -319h-270l37 319h-309l33 254h309l39 320h272z" />
    <glyph glyph-name="comma" unicode="," horiz-adv-x="509" 
d="M4 144q0 88 54 141t136 53t133 -51q50 -51 50 -135t-80 -218l-172 -299h-180l137 367q-78 54 -78 142z" />
    <glyph glyph-name="hyphen" unicode="-" horiz-adv-x="835" 
d="M735 514h-655l37 254h653z" />
    <glyph glyph-name="period" unicode="." horiz-adv-x="509" 
d="M8 152q0 78 54 132t132 54t132 -54q55 -54 55 -132t-55 -132t-132 -55q-77 0 -132 54q-54 55 -54 133z" />
    <glyph glyph-name="slash" unicode="/" horiz-adv-x="1064" 
d="M1081 1602l-815 -1854l-266 96l815 1856z" />
    <glyph glyph-name="zero" unicode="0" horiz-adv-x="1202" 
d="M531 -35q-211 -1 -332 145t-121 414q0 428 168 658t442 231q217 0 339 -140q122 -139 122 -395q1 -256 -63 -456t-204 -328q-140 -129 -351 -129zM555 207q121 0 194 191t72 532q0 240 -151 239q-111 0 -188 -171t-76 -531q-1 -260 149 -260z" />
    <glyph glyph-name="one" unicode="1" horiz-adv-x="913" 
d="M696 0h-317l129 1055l-311 -176l-123 225l504 280h288z" />
    <glyph glyph-name="two" unicode="2" horiz-adv-x="1067" 
d="M1022 1061q0 -95 -40 -191t-93 -171t-147 -165t-164 -144q-68 -56 -177 -140h553l-63 -250h-899l28 231q414 361 538 505t124 276q0 74 -40 112t-110 39q-131 0 -270 -145l-178 160q225 236 520 235q194 0 306 -94t112 -258z" />
    <glyph glyph-name="three" unicode="3" horiz-adv-x="1067" 
d="M610 1413q188 0 296 -86t108 -220t-79 -231t-235 -139l-2 -8q127 -23 204 -109t77 -204q0 -193 -146 -322t-387 -129q-154 -1 -290 59t-215 162l209 160q119 -131 280 -131q100 0 157 58q56 58 56 165q0 172 -217 172h-96l65 226h51q119 0 181 54q61 54 61 130
q0 151 -151 149q-129 1 -293 -122l-138 178q242 188 504 188z" />
    <glyph glyph-name="four" unicode="4" horiz-adv-x="1153" 
d="M1073 297h-155l-37 -297h-320l35 297h-578l25 217l498 918l268 -115l-414 -774h232l92 325h268l-39 -325h156z" />
    <glyph glyph-name="five" unicode="5" horiz-adv-x="1118" 
d="M475 -35q-152 0 -290 55t-216 152l201 166q125 -127 289 -127q113 0 176 75q63 74 63 190q0 210 -161 210q-76 0 -175 -49h-223l94 747h850l-65 -235h-500l-39 -287q106 47 213 47q156 -1 250 -103t96 -288q0 -240 -152 -396t-411 -157z" />
    <glyph glyph-name="six" unicode="6" horiz-adv-x="1157" 
d="M637 707q-111 0 -223 -125q-6 -50 -6 -158t34 -167q35 -58 119 -58t144 90q59 90 59 254t-127 164zM746 932q158 0 253 -100q94 -100 95 -283q0 -260 -156 -422t-392 -162t-355 133q-120 133 -119 385q0 428 187 679t497 251q200 0 325 -96l-145 -195q-82 58 -186 58
t-190 -104t-122 -294q150 150 308 150z" />
    <glyph glyph-name="seven" unicode="7" horiz-adv-x="958" 
d="M995 1163l-637 -1196l-286 99l571 1073h-551l31 245h899z" />
    <glyph glyph-name="eight" unicode="8" horiz-adv-x="1196" 
d="M662 1192q-78 0 -128 -48t-49 -120q0 -72 42 -118t143 -81q152 92 151 234q0 61 -40 97q-41 36 -119 36zM784 399q0 81 -56 127t-200 97q-164 -92 -163 -263q0 -74 50 -118t146 -43q96 0 160 59q63 60 63 141zM1137 1090q0 -242 -271 -351q244 -115 244 -329
q0 -184 -155 -314t-405 -131q-250 0 -386 108q-135 108 -135 265q0 125 81 224t232 155q-174 99 -174 283t136 298t362 115q226 0 349 -90q122 -90 122 -233z" />
    <glyph glyph-name="nine" unicode="9" horiz-adv-x="1157" 
d="M563 707q119 0 215 114q14 82 15 164q0 195 -158 195q-93 0 -153 -75t-60 -189t39 -161q39 -48 102 -48zM449 477q-159 0 -259 108t-100 294q0 240 155 387t391 147t364 -122t128 -324q0 -432 -244 -684t-741 -340l-39 231q264 58 418 158t221 262l-8 4
q-127 -121 -286 -121z" />
    <glyph glyph-name="colon" unicode=":" horiz-adv-x="509" 
d="M111 861q0 77 54 132t132 55t132 -54q54 -56 54 -133t-54 -131t-132 -54t-132 54t-54 131zM8 152q0 78 54 132t132 54t132 -54q55 -54 55 -132t-55 -132t-132 -55q-77 0 -132 54q-54 55 -54 133z" />
    <glyph glyph-name="semicolon" unicode=";" horiz-adv-x="509" 
d="M6 144q0 88 54 141t136 53t133 -51q50 -51 50 -133t-80 -220l-172 -299h-180l137 367q-78 54 -78 142zM109 861q0 77 54 132t131 55t132 -54q55 -56 55 -133t-55 -131t-132 -54t-131 54t-54 131z" />
    <glyph glyph-name="less" unicode="&#x3c;" horiz-adv-x="1062" 
d="M111 842l856 352l77 -242l-675 -262l606 -268l-131 -225l-770 358z" />
    <glyph glyph-name="equal" unicode="=" horiz-adv-x="1062" 
d="M942 307h-893l29 250h895zM995 743h-893l31 250h893z" />
    <glyph glyph-name="greater" unicode="&#x3e;" horiz-adv-x="1062" 
d="M979 547l-858 -350l-76 241l676 260l-606 271l131 225l768 -358z" />
    <glyph glyph-name="question" unicode="?" horiz-adv-x="1021" 
d="M213 152q0 78 54 132t132 54t132 -54q55 -54 55 -132t-54 -132t-133 -55q-78 1 -132 55t-54 132zM610 1456q199 0 311 -87t111 -220q0 -96 -35 -168t-87 -110q-103 -75 -225 -135q-52 -26 -87 -70t-35 -101q0 -12 4 -45l-284 -43q-39 160 28 269q43 71 105 111t122 73
q62 33 105 74t43 96q0 98 -129 98t-252 -129l-188 166q219 221 493 221z" />
    <glyph glyph-name="at" unicode="@" horiz-adv-x="2088" 
d="M1094 823q-96 0 -158 -110q-61 -111 -62 -322q0 -168 101 -168q86 0 149 101l62 479q-43 20 -92 20zM950 -455q-401 0 -638 218t-236 591q0 486 302 794t789 308q387 0 613 -205t225 -518q0 -313 -148 -519t-372 -206q-104 0 -175 56t-73 147l-8 2q-49 -90 -135 -142
t-185 -53q-155 0 -241 98t-86 277q0 303 150 470q151 167 396 167q188 0 351 -92l-70 -567q-18 -160 74 -160q85 0 157 145q72 146 72 376t-143 358t-418 127q-358 1 -569 -233t-211 -615q0 -279 146 -431t444 -151q231 0 430 70l51 -226q-238 -86 -492 -86z" />
    <glyph glyph-name="A" unicode="A" horiz-adv-x="1218" 
d="M678 1151l-221 -600h303l-74 600h-8zM821 0l-37 305h-411l-111 -305h-366l610 1419h412l260 -1419h-357z" />
    <glyph glyph-name="B" unicode="B" horiz-adv-x="1269" 
d="M1192 449q0 -211 -160 -330t-481 -119h-492l172 1419h451q260 0 392 -87t132 -242q0 -119 -78 -212t-213 -124l-2 -9q131 -29 205 -108t74 -188zM631 854q111 0 170 51t59 144q0 131 -203 131h-114l-41 -326h129zM561 248q281 0 281 213q0 168 -213 168h-154l-47 -381
h133z" />
    <glyph glyph-name="C" unicode="C" horiz-adv-x="1175" 
d="M807 1202q-175 0 -277 -188t-102 -439q0 -346 246 -346q152 0 307 119l137 -211q-209 -172 -472 -172t-417 158t-153 452q0 371 197 626q198 255 520 255q274 0 440 -172l-186 -182q-102 100 -240 100z" />
    <glyph glyph-name="D" unicode="D" horiz-adv-x="1341" 
d="M1296 852q0 -401 -205 -627q-206 -225 -587 -225h-445l172 1419h402q315 0 489 -144t174 -423zM539 246q180 0 294 154t113 452q0 322 -309 322h-96l-113 -928h111z" />
    <glyph glyph-name="E" unicode="E" horiz-adv-x="1073" 
d="M1040 1178h-499l-41 -338h436l-29 -238h-436l-43 -356h533l-29 -246h-873l172 1419h875z" />
    <glyph glyph-name="F" unicode="F" horiz-adv-x="1001" 
d="M1016 1178h-475l-45 -373h413l-28 -244h-414l-68 -561h-340l172 1419h850z" />
    <glyph glyph-name="G" unicode="G" horiz-adv-x="1323" 
d="M654 -35q-280 0 -430 154t-148 452q0 412 209 649t538 236q297 0 475 -172l-190 -190q-117 115 -272 114q-182 0 -296 -165t-114 -488q0 -180 64 -261t174 -81q108 0 202 47l39 318h-180l-8 237h547l-88 -700q-242 -150 -522 -150z" />
    <glyph glyph-name="H" unicode="H" horiz-adv-x="1353" 
d="M1153 0h-340l74 606h-416l-72 -606h-340l172 1419h340l-67 -549h416l67 549h340z" />
    <glyph glyph-name="I" unicode="I" horiz-adv-x="600" 
d="M399 0h-340l172 1419h340z" />
    <glyph glyph-name="J" unicode="J" horiz-adv-x="612" 
d="M-80 -350l-63 252q129 44 181 116t71 220l145 1181h340l-143 -1173q-31 -250 -151 -383t-380 -213z" />
    <glyph glyph-name="K" unicode="K" horiz-adv-x="1290" 
d="M874 0l-372 762l524 657h363l-527 -649l391 -770h-379zM571 1419l-172 -1419h-340l172 1419h340z" />
    <glyph glyph-name="L" unicode="L" horiz-adv-x="1040" 
d="M915 0h-856l172 1419h340l-141 -1151h553z" />
    <glyph glyph-name="M" unicode="M" horiz-adv-x="1615" 
d="M483 1124h-8q-4 -238 -61 -573l-92 -551h-334l282 1419h424l90 -966h9l321 966h434l-67 -1419h-334l39 549q20 309 71 575h-8l-334 -979h-325z" />
    <glyph glyph-name="N" unicode="N" horiz-adv-x="1353" 
d="M932 428q0 236 35 526l57 465h301l-172 -1419h-430l-268 1096h-9q2 -25 2 -203t-28 -408l-60 -485h-301l172 1419h420l277 -1097h8q-4 53 -4 106z" />
    <glyph glyph-name="O" unicode="O" horiz-adv-x="1411" 
d="M426 502q0 -138 57 -214t167 -75q286 0 349 462q46 339 -42 455q-55 76 -167 76t-187 -68t-110 -181q-67 -208 -67 -455zM1366 850q0 -351 -170 -606q-84 -127 -225 -203t-322 -76q-266 0 -420 159t-153 447q0 348 169 607q83 126 224 202t322 76q263 0 419 -160
t156 -446z" />
    <glyph glyph-name="P" unicode="P" horiz-adv-x="1228" 
d="M1235 1008q0 -244 -166 -390t-444 -147h-170l-56 -471h-340l172 1419h435q281 0 425 -109t144 -302zM614 717q123 0 197 76t74 204q0 180 -246 181h-98l-56 -461h129z" />
    <glyph glyph-name="Q" unicode="Q" horiz-adv-x="1411" 
d="M426 502q0 -138 57 -214t167 -75q286 0 349 462q46 339 -42 455q-55 76 -167 76t-187 -68t-110 -181q-67 -208 -67 -455zM1366 850q0 -547 -403 -754l-2 -8q258 -2 411 -123l-235 -264q-211 270 -483 270t-425 156q-154 156 -153 444q0 348 169 607q83 126 224 202
t322 76q263 0 419 -160t156 -446z" />
    <glyph glyph-name="R" unicode="R" horiz-adv-x="1257" 
d="M629 774q125 0 191 62t65 178q0 168 -234 168h-108l-51 -408h137zM1235 1028q0 -152 -88 -268t-246 -168l299 -592h-356l-246 541h-135l-64 -541h-340l172 1419h443q561 0 561 -391z" />
    <glyph glyph-name="S" unicode="S" horiz-adv-x="1159" 
d="M1098 434q0 -203 -155 -336t-427 -133q-162 -1 -308 63t-233 156l191 191q166 -152 346 -152q98 0 163 50t65 127t-47 122q-46 45 -173 86q-213 70 -304 172t-91 270t147 287t390 119q303 0 499 -180l-174 -189q-141 123 -317 123q-90 0 -138 -39t-49 -104q0 -65 47 -105
q46 -40 220 -103q348 -126 348 -425z" />
    <glyph glyph-name="T" unicode="T" horiz-adv-x="1099" 
d="M1139 1159h-346l-142 -1159h-340l140 1159h-367l33 260h1089z" />
    <glyph glyph-name="U" unicode="U" horiz-adv-x="1331" 
d="M618 -35q-258 0 -391 120t-133 337q0 45 6 98l111 899h340l-113 -923q-6 -43 -6 -78q0 -201 191 -201q215 0 245 266l115 936h342l-117 -942q-32 -244 -182 -378t-408 -134z" />
    <glyph glyph-name="V" unicode="V" horiz-adv-x="1218" 
d="M446 1419l117 -1138h10l400 1138h356l-577 -1419h-424l-232 1419h350z" />
    <glyph glyph-name="W" unicode="W" horiz-adv-x="1730" 
d="M1819 1419l-410 -1419h-442l-45 1049h-9l-307 -1049h-432l-57 1419h332l-3 -1149h9l329 1149h357l43 -1147h8l295 1147h332z" />
    <glyph glyph-name="X" unicode="X" horiz-adv-x="1200" 
d="M410 754l-291 665h356l150 -442h8l270 442h371l-463 -651l326 -768h-359l-182 526h-8l-301 -526h-373z" />
    <glyph glyph-name="Y" unicode="Y" horiz-adv-x="1210" 
d="M1331 1419l-563 -887l-63 -532h-343l66 530l-346 889h360l179 -612h8l332 612h370z" />
    <glyph glyph-name="Z" unicode="Z" horiz-adv-x="1105" 
d="M1116 1163l-729 -893h629l-66 -270h-991l29 254l743 903h-569l33 262h952z" />
    <glyph glyph-name="bracketleft" unicode="[" horiz-adv-x="665" 
d="M504 -252h-543l236 1938h546l-30 -244h-236l-178 -1452h236z" />
    <glyph glyph-name="backslash" unicode="\" horiz-adv-x="1077" 
d="M758 -250l-715 1868l274 82l715 -1866z" />
    <glyph glyph-name="bracketright" unicode="]" horiz-adv-x="665" 
d="M193 1686h544l-237 -1938h-545l29 244h235l178 1450h-235z" />
    <glyph glyph-name="asciicircum" unicode="^" horiz-adv-x="1130" 
d="M578 1729h299l294 -650h-311l-162 406l-266 -406h-334z" />
    <glyph glyph-name="underscore" unicode="_" horiz-adv-x="1064" 
d="M913 -350h-1024l35 254h1026z" />
    <glyph glyph-name="grave" unicode="`" horiz-adv-x="718" 
d="M657 1415l-82 -166l-514 215l117 250z" />
    <glyph glyph-name="a" unicode="a" horiz-adv-x="1185" 
d="M506 205q47 0 100 47t94 125l74 483q-55 25 -117 25q-117 0 -199 -123t-83 -340q0 -217 131 -217zM43 408q0 322 177 520t446 196q229 1 454 -120l-98 -682q-8 -62 2 -92t47 -46l-92 -215q-215 18 -258 181q-137 -184 -328 -185q-162 0 -256 110t-94 333z" />
    <glyph glyph-name="b" unicode="b" horiz-adv-x="1214" 
d="M717 862q-121 0 -266 -262l-52 -369q63 -29 131 -28q111 0 198 137t87 360q0 162 -98 162zM844 1124q139 0 222 -101t83 -312q0 -332 -176 -539q-175 -207 -435 -207t-489 94l205 1461l332 34l-90 -641q74 103 167 157t181 54z" />
    <glyph glyph-name="c" unicode="c" horiz-adv-x="960" 
d="M563 221q94 0 215 76l109 -213q-176 -119 -383 -119t-334 126t-127 355q0 302 170 490t414 188q211 0 370 -129l-141 -196q-90 73 -205 73t-193 -114t-77 -314q0 -223 182 -223z" />
    <glyph glyph-name="d" unicode="d" horiz-adv-x="1202" 
d="M622 885q-97 0 -171 -120t-74 -340t135 -220q49 0 106 50t103 128l61 430q-63 72 -160 72zM549 1124q154 0 262 -106l76 536l323 -34l-213 -1520h-290v139q-139 -174 -305 -174t-262 117q-97 117 -97 336q-1 318 151 512t355 194z" />
    <glyph glyph-name="e" unicode="e" horiz-adv-x="1085" 
d="M739 814q0 91 -94 91t-168 -84t-98 -229q201 20 281 76t79 146zM1067 825q0 -367 -696 -426q16 -193 182 -192q125 0 260 90l125 -193q-182 -139 -416 -139t-356 122t-123 357q0 300 173 490t450 190q193 0 297 -80t104 -219z" />
    <glyph glyph-name="f" unicode="f" horiz-adv-x="722" 
d="M100 117l107 743h-168l33 227h166l12 93q53 375 428 374q184 0 336 -96l-111 -201q-91 55 -169 55t-112 -32q-34 -33 -44 -113l-13 -80h258l-69 -227h-222l-104 -731q-35 -240 -153 -373t-357 -211l-82 238q131 47 188 119q56 72 76 215z" />
    <glyph glyph-name="g" unicode="g" horiz-adv-x="1204" 
d="M512 246q53 0 112 44q58 44 103 118l64 452q-55 25 -121 25q-117 0 -203 -114q-86 -113 -86 -319t131 -206zM399 4q-158 0 -255 116t-97 331q0 295 182 484q181 189 437 189t473 -120l-127 -916q-40 -281 -182 -412t-386 -131t-442 121l111 219q168 -88 301 -88
q229 0 262 240l16 117q-135 -150 -293 -150z" />
    <glyph glyph-name="h" unicode="h" horiz-adv-x="1173" 
d="M854 1124q111 0 174 -68t64 -206q0 -29 -9 -98l-104 -752h-326l97 705q6 43 6 81q0 70 -62 70q-104 0 -243 -260l-84 -596h-326l211 1520l334 34l-90 -641q158 211 358 211z" />
    <glyph glyph-name="i" unicode="i" horiz-adv-x="565" 
d="M600 1475q0 -81 -54 -133t-139 -52t-140 52q-54 52 -54 132t54 133q53 52 139 52t140 -52t54 -132zM365 0h-328l151 1087h328z" />
    <glyph glyph-name="j" unicode="j" horiz-adv-x="565" 
d="M51 117l137 970h328l-137 -958q-35 -242 -154 -375t-356 -209l-84 240q131 47 189 118t77 214zM600 1475q0 -81 -54 -133t-139 -52t-140 52q-54 52 -54 132t54 133q53 52 139 52t140 -52t54 -132z" />
    <glyph glyph-name="k" unicode="k" horiz-adv-x="1191" 
d="M842 807q0 88 -92 88q-156 0 -293 -258l-90 -637h-326l211 1520l334 34l-88 -626q162 197 379 196q131 0 212 -72t80 -186q0 -266 -301 -381l207 -485h-352l-197 524q170 55 243 125t73 158z" />
    <glyph glyph-name="l" unicode="l" horiz-adv-x="593" 
d="M328 -35q-264 0 -265 266q0 39 7 88l168 1201l333 34l-176 -1245q-10 -84 45 -84q27 0 52 8l34 -229q-98 -39 -198 -39z" />
    <glyph glyph-name="m" unicode="m" horiz-adv-x="1726" 
d="M1309 782q0 74 -49 74q-96 0 -228 -258l-84 -598h-325l98 707q6 49 6 77q0 72 -47 72q-96 0 -229 -262l-84 -594h-326l152 1087h284l-12 -202q162 240 356 239q95 0 157 -53t77 -158q156 211 346 211q111 0 177 -68t64 -208q0 -41 -6 -90l-106 -758h-328l101 707
q6 47 6 75z" />
    <glyph glyph-name="n" unicode="n" horiz-adv-x="1173" 
d="M756 786q0 70 -62 70q-104 0 -243 -262l-84 -594h-326l152 1087h284l-12 -202q168 240 383 239q116 0 180 -68t64 -204q0 -51 -9 -100l-104 -752h-326l97 705q6 43 6 81z" />
    <glyph glyph-name="o" unicode="o" horiz-adv-x="1181" 
d="M631 883q-121 1 -188 -141t-66 -326q0 -111 37 -161q38 -50 122 -50t145 81q105 142 103 384q1 213 -153 213zM643 1124q223 0 349 -128t126 -347q0 -293 -158 -489t-438 -195q-223 0 -351 124t-128 345q1 286 159 488t441 202z" />
    <glyph glyph-name="p" unicode="p" horiz-adv-x="1212" 
d="M565 203q92 0 171 143t79 363q0 77 -29 115t-71 38q-121 0 -264 -260l-45 -315q67 -84 159 -84zM651 -35q-160 0 -274 117l-70 -502l-332 -35l218 1542h284l-10 -202q76 115 175 177t200 62q141 0 224 -101t83 -308q-1 -326 -149 -538t-349 -212z" />
    <glyph glyph-name="q" unicode="q" horiz-adv-x="1200" 
d="M512 207q53 0 111 47q57 47 98 125l67 481q-59 25 -124 25q-115 0 -201 -121t-86 -339t135 -218zM43 416q0 315 180 512t453 196q231 0 461 -120l-201 -1424l-334 -35l80 568q-131 -147 -290 -147t-254 113q-95 114 -95 337z" />
    <glyph glyph-name="r" unicode="r" horiz-adv-x="808" 
d="M895 1108l-98 -340q-45 16 -88 16q-166 -4 -273 -292l-69 -492h-326l152 1087h284l-16 -247q133 283 334 282q57 0 100 -14z" />
    <glyph glyph-name="s" unicode="s" horiz-adv-x="997" 
d="M430 201q154 0 154 102q0 45 -39 75t-156 71q-303 106 -303 337q0 150 117 242t344 92t407 -143l-141 -186q-131 98 -263 98t-132 -86q0 -37 36 -63t180 -80t214 -130q70 -78 70 -192q0 -164 -126 -268t-358 -105q-135 0 -262 50t-209 132l164 181q61 -55 145 -91
t158 -36z" />
    <glyph glyph-name="t" unicode="t" horiz-adv-x="788" 
d="M446 -35q-329 0 -329 311q0 27 8 97l68 489h-162l30 225h168l72 242l289 33l-37 -275h254l-66 -225h-221l-71 -506q-10 -74 9 -102t72 -27q53 0 127 37l86 -215q-133 -84 -297 -84z" />
    <glyph glyph-name="u" unicode="u" horiz-adv-x="1161" 
d="M479 229q104 0 205 177l98 681h328l-154 -1087h-284l4 160q-139 -195 -338 -195q-127 0 -196 75t-68 224q0 57 8 109l100 714h328l-100 -716q-12 -80 5 -111t64 -31z" />
    <glyph glyph-name="v" unicode="v" horiz-adv-x="1042" 
d="M248 0l-195 1087h344l70 -835h8l313 835h342l-495 -1087h-387z" />
    <glyph glyph-name="w" unicode="w" horiz-adv-x="1533" 
d="M1602 1087l-381 -1087h-392l-30 788h-8l-254 -788h-385l-78 1087h325l-8 -833h8l285 833h317l31 -829h8l242 829h320z" />
    <glyph glyph-name="x" unicode="x" horiz-adv-x="1034" 
d="M496 395h-9l-233 -395h-367l430 573l-243 514h354l96 -335h8l189 335h360l-372 -505l272 -582h-358z" />
    <glyph glyph-name="y" unicode="y" horiz-adv-x="1042" 
d="M250 0l-195 1087h338l82 -862h8l297 862h344l-452 -1075q-94 -223 -262 -339t-441 -128l-12 234q172 18 260 68t139 153h-106z" />
    <glyph glyph-name="z" unicode="z" horiz-adv-x="931" 
d="M928 854l-557 -606h481l-64 -248h-849l30 233l566 609h-437l37 245h826z" />
    <glyph glyph-name="braceleft" unicode="{" horiz-adv-x="665" 
d="M440 467q0 -23 -4 -59l-43 -345q-8 -71 24 -97t120 -25l-29 -228q-240 0 -332 69t-92 206q0 25 4 73l43 357q4 45 4 61q0 59 -26 82q-27 23 -91 23l33 266q78 0 111 37t43 129l43 338q18 135 62 211q90 155 444 155l-29 -227q-90 0 -127 -27t-45 -96l-35 -285
q-23 -182 -79 -266t-179 -98l-2 -4v-4q182 -33 182 -246z" />
    <glyph glyph-name="bar" unicode="|" horiz-adv-x="768" 
d="M133 -215l229 1874h306l-230 -1874h-305z" />
    <glyph glyph-name="braceright" unicode="}" horiz-adv-x="665" 
d="M256 967q0 23 4 59l43 344q9 70 -23 96t-120 27l28 227q240 0 332 -68t92 -206q0 -25 -4 -74l-43 -356q-4 -45 -4 -62q0 -59 27 -82t90 -22l-33 -266q-79 0 -111 -37t-42 -129l-43 -338q-19 -135 -63 -211q-91 -156 -443 -156l28 228q90 1 127 27t45 95l35 285
q23 182 79 266t179 99l2 4v4q-182 33 -182 246z" />
    <glyph glyph-name="asciitilde" unicode="~" horiz-adv-x="1062" 
d="M1042 731q-158 -258 -334 -258q-98 0 -161 30q-63 31 -111 61t-93 30q-44 0 -75 -27t-65 -82l-166 95q154 258 354 258q101 0 201 -60t144 -59t75 27t63 81z" />
    <glyph glyph-name="uni00A0" unicode="&#xa0;" horiz-adv-x="483" 
 />
    <glyph glyph-name="exclamdown" unicode="&#xa1;" horiz-adv-x="509" 
d="M469 863q0 -77 -54 -132t-132 -55t-132 55q-55 55 -55 132t54 131t133 54q78 0 132 -54t54 -131zM113 494l262 45l-66 -959h-354z" />
    <glyph glyph-name="cent" unicode="&#xa2;" horiz-adv-x="1005" 
d="M571 221q94 0 215 76l109 -213q-121 -82 -266 -109l-37 -305h-238l39 307q-158 33 -250 155t-92 314q0 268 137 448t347 220l36 303h234l-35 -307q125 -27 236 -115l-142 -196q-88 73 -204 73t-193 -114q-78 -114 -78 -314q0 -223 182 -223z" />
    <glyph glyph-name="sterling" unicode="&#xa3;" horiz-adv-x="1140" 
d="M737 1413q276 0 439 -211l-213 -143q-86 111 -203 110q-78 0 -117 -44t-53 -146l-25 -178h377l-22 -168h-373l-15 -123q-12 -96 -47 -156t-110 -98l-2 -8h657l-67 -248h-983l28 236q106 29 148 85q41 56 53 168l16 144h-149l20 168h150l22 180q53 432 469 432z" />
    <glyph glyph-name="currency" unicode="&#xa4;" horiz-adv-x="1175" 
d="M609 473q97 0 149 59q51 58 51 166t-51 168q-50 60 -148 60t-149 -60t-51 -167q0 -108 51 -167t148 -59zM1065 699q0 -136 -68 -244l162 -162l-143 -143l-166 159q-100 -57 -240 -57t-241 57l-166 -164l-146 146l164 166q-63 102 -63 243t61 244l-162 164l146 145
l166 -166q100 59 240 59t241 -59l164 164l145 -145l-160 -162q66 -109 66 -245z" />
    <glyph glyph-name="yen" unicode="&#xa5;" horiz-adv-x="1179" 
d="M1280 1384l-446 -663h210l-22 -168h-274l-17 -143h275l-21 -170h-274l-29 -240h-326l29 240h-270l18 170h273l16 143h-270l20 168h203l-281 663h336l176 -579h8l316 579h350z" />
    <glyph glyph-name="brokenbar" unicode="&#xa6;" horiz-adv-x="768" 
d="M133 -215l92 745h305l-92 -745h-305zM272 913l90 746h306l-90 -746h-306z" />
    <glyph glyph-name="section" unicode="&#xa7;" horiz-adv-x="1101" 
d="M1014 655q0 -178 -201 -290q92 -84 92 -217t-113 -227q-114 -93 -344 -93t-417 141l143 183q146 -98 280 -98t134 100q0 38 -37 64t-183 77t-212 123q-64 72 -64 180q0 168 195 270q-84 82 -84 219t115 231q116 93 342 93t395 -133l-144 -182q-135 88 -263 88t-128 -97
q0 -39 38 -67t184 -78q146 -51 208 -119q64 -68 64 -168zM719 588q0 59 -48 91t-220 91q-63 -60 -63 -120t45 -91q46 -31 216 -96q70 66 70 125z" />
    <glyph glyph-name="dieresis" unicode="&#xa8;" horiz-adv-x="954" 
d="M725 1305q-72 0 -121 48q-49 47 -49 117t49 117t121 47t120 -47t48 -117t-48 -118t-120 -47zM401 1470q0 -70 -49 -118t-120 -47q-70 0 -120 48q-50 49 -50 117t50 116t120 48t120 -47q49 -47 49 -117z" />
    <glyph glyph-name="copyright" unicode="&#xa9;" horiz-adv-x="1650" 
d="M1520 884q0 -286 -201 -484t-491 -197t-492 199t-203 484q0 286 203 486q202 200 492 199q290 0 491 -200q201 -201 201 -487zM324 884q0 -218 143 -368t359 -149q216 0 361 150q144 151 144 369t-144 368q-145 150 -361 151q-216 0 -359 -151q-143 -152 -143 -370z
M850 664q90 0 166 63l92 -135q-121 -111 -283 -111q-162 1 -260 107t-98 296t101 298t260 108t270 -104l-101 -127q-70 53 -143 53q-154 0 -154 -224t150 -224z" />
    <glyph glyph-name="ordfeminine" unicode="&#xaa;" horiz-adv-x="1228" 
d="M571 817q94 0 168 96l19 127h-80q-188 0 -189 -129q0 -94 82 -94zM965 0h-871l31 254h870zM469 625q-125 1 -202 73t-77 193q0 155 129 237t371 82h88l6 54q10 88 -135 88q-100 0 -260 -52l-43 191q203 63 374 63t252 -59t81 -190q0 -19 -4 -68l-43 -328q-6 -47 3 -67
t40 -29l-31 -195q-215 4 -258 138q-121 -131 -291 -131z" />
    <glyph glyph-name="guillemotleft" unicode="&#xab;" horiz-adv-x="1284" 
d="M948 588l203 -422l-217 -133l-328 456l29 207l457 449l178 -144zM401 588l203 -422l-217 -133l-328 456l29 207l457 449l178 -144z" />
    <glyph glyph-name="logicalnot" unicode="&#xac;" horiz-adv-x="1062" 
d="M1001 778l-71 -567h-271l37 315h-620l30 252h895z" />
    <glyph glyph-name="uni00AD" unicode="&#xad;" horiz-adv-x="835" 
d="M735 514h-653l27 254h655z" />
    <glyph glyph-name="registered" unicode="&#xae;" horiz-adv-x="1308" 
d="M737 1122q0 66 -108 66h-45v-141h47q106 -1 106 75zM889 1118q0 -115 -119 -160l158 -241h-170l-127 211h-47v-211h-148v581h178q275 0 275 -180zM655 569q176 0 290 120t114 301t-114 303t-290 122q-177 0 -291 -122t-114 -303t114 -301t291 -120zM655 430
q-243 0 -405 161t-162 399t163 401q163 161 405 161t402 -162q161 -162 161 -400q0 -240 -161 -400t-403 -160z" />
    <glyph glyph-name="macron" unicode="&#xaf;" horiz-adv-x="778" 
d="M717 1573l-29 -227h-627l31 227h625z" />
    <glyph glyph-name="degree" unicode="&#xb0;" horiz-adv-x="1050" 
d="M502 758q-160 0 -259 91t-100 230q0 173 109 275q110 102 270 102t259 -90t99 -244t-109 -260q-109 -104 -269 -104zM518 1268q-64 0 -106 -47t-43 -122q0 -75 36 -112q35 -37 99 -37t108 47t43 121q0 74 -37 112q-36 38 -100 38z" />
    <glyph glyph-name="plusminus" unicode="&#xb1;" horiz-adv-x="1062" 
d="M905 0h-893l29 248h893zM733 1124l-41 -321h312l-31 -248h-311l-25 -207h-275l27 207h-309l31 248h309l39 321h274z" />
    <glyph glyph-name="twosuperior" unicode="&#xb2;" horiz-adv-x="819" 
d="M510 1536q132 0 204 -67t72 -177t-101 -220t-294 -249h369l-47 -178h-625l21 158q260 209 344 306t84 167q0 35 -22 55t-58 21q-80 0 -164 -84l-133 112q156 156 350 156z" />
    <glyph glyph-name="threesuperior" unicode="&#xb3;" horiz-adv-x="819" 
d="M487 1536q137 0 213 -57t76 -139q0 -170 -190 -224l-2 -6q80 -14 126 -68t46 -124q0 -123 -100 -205t-269 -82q-100 0 -190 37t-142 100l140 117q84 -82 180 -82q67 0 103 35t36 92q0 96 -131 96h-80l49 162h54q127 0 126 102q0 74 -87 74t-191 -74l-102 127
q158 119 335 119z" />
    <glyph glyph-name="acute" unicode="&#xb4;" horiz-adv-x="718" 
d="M141 1247l-80 166l480 297l116 -248z" />
    <glyph glyph-name="mu" unicode="&#xb5;" horiz-adv-x="1171" 
d="M686 150q-116 -177 -268 -177q-74 0 -127 72l-6 -6q54 -102 26 -305l-22 -154l-314 -31l218 1538h327l-100 -716q-12 -80 5 -111t64 -31q102 0 205 177l99 681h327l-102 -720q-14 -101 -14 -199t12 -168l-305 -35q-25 80 -25 185z" />
    <glyph glyph-name="paragraph" unicode="&#xb6;" horiz-adv-x="1615" 
d="M176 963q0 219 153 337t445 119h721l-227 -1849l-289 -23l201 1645h-183l-133 -1116q-34 -285 -154 -428t-358 -219l-84 237q150 53 216 131t83 221l64 523q-215 8 -335 126t-120 296z" />
    <glyph glyph-name="periodcentered" unicode="&#xb7;" horiz-adv-x="509" 
d="M68 673q0 77 54 131t132 54t132 -54t54 -131t-54 -132t-132 -55t-132 54q-54 56 -54 133z" />
    <glyph glyph-name="cedilla" unicode="&#xb8;" horiz-adv-x="690" 
d="M310 -360q79 0 79 69q0 35 -37 49t-141 15l72 260h172l-17 -131q90 -14 140 -66t51 -129q0 -109 -85 -177q-84 -68 -224 -69q-140 0 -259 70l97 150q73 -41 152 -41z" />
    <glyph glyph-name="onesuperior" unicode="&#xb9;" horiz-adv-x="819" 
d="M614 645h-235l78 635l-193 -100l-92 159l346 181h203z" />
    <glyph glyph-name="ordmasculine" unicode="&#xba;" horiz-adv-x="1228" 
d="M948 0h-872l30 254h873zM682 1354q-102 0 -150 -98t-47 -244q0 -180 138 -181q102 1 150 99t48 217t-38 163t-101 44zM692 1556q186 0 299 -108t113 -285q0 -231 -131 -384t-361 -152q-188 0 -300 105t-111 286q0 236 133 387t358 151z" />
    <glyph glyph-name="guillemotright" unicode="&#xbb;" horiz-adv-x="1284" 
d="M336 590l-203 422l217 133l328 -457l-29 -207l-456 -448l-179 143zM883 590l-203 422l217 133l330 -457l-31 -207l-455 -448l-180 143z" />
    <glyph glyph-name="onequarter" unicode="&#xbc;" horiz-adv-x="1925" 
d="M1802 174h-94l-20 -174h-228l21 174h-377l18 156l299 563l193 -68l-242 -477h133l60 197h188l-22 -197h94zM623 567h-236l78 635l-193 -100l-92 160l346 180h203zM1606 1458l-1061 -1640l-193 104l1059 1643z" />
    <glyph glyph-name="onehalf" unicode="&#xbd;" horiz-adv-x="1925" 
d="M1575 891q131 0 203 -67q72 -68 73 -178q0 -110 -101 -220t-294 -248h369l-47 -178h-625l21 158q260 209 344 306t84 167q0 35 -22 55t-58 21q-80 0 -164 -84l-133 112q156 156 350 156zM623 567h-236l78 635l-193 -100l-92 160l346 180h203zM1606 1458l-1061 -1640
l-193 104l1059 1643z" />
    <glyph glyph-name="threequarters" unicode="&#xbe;" horiz-adv-x="1925" 
d="M475 1458q137 0 213 -57t76 -139q0 -170 -191 -224l-2 -6q80 -14 126 -67t46 -125q0 -123 -100 -205t-268 -82q-101 0 -191 37t-141 100l139 117q84 -82 180 -82q66 0 103 35t37 92q0 96 -131 96h-80l49 162h53q127 0 127 102q0 74 -87 74t-191 -74l-103 127
q158 119 336 119zM1802 174h-94l-20 -174h-228l21 174h-377l18 156l299 563l193 -68l-242 -477h133l60 197h188l-22 -197h94zM1606 1458l-1061 -1640l-193 104l1059 1643z" />
    <glyph glyph-name="questiondown" unicode="&#xbf;" horiz-adv-x="1021" 
d="M772 861q0 -77 -54 -131t-131 -54t-131 54t-54 131t54 132t131 55t131 -54q54 -56 54 -133zM379 -457q-199 0 -311 90q-112 91 -111 213q0 122 48 198t117 118q70 41 138 75q166 83 166 197q0 12 -4 45l285 43q14 -57 14 -100q0 -98 -43 -169q-42 -71 -104 -110t-123 -71
t-105 -73q-44 -40 -43 -91q0 -51 33 -79t90 -28q135 0 258 129l188 -166q-219 -221 -493 -221z" />
    <glyph glyph-name="Agrave" unicode="&#xc0;" horiz-adv-x="1218" 
d="M1032 1708l-78 -170l-512 207l115 250zM678 1151l-221 -600h303l-74 600h-8zM821 0l-37 305h-411l-111 -305h-366l610 1419h412l260 -1419h-357z" />
    <glyph glyph-name="Aacute" unicode="&#xc1;" horiz-adv-x="1218" 
d="M528 1540l-79 170l475 287l116 -250zM678 1151l-221 -600h303l-74 600h-8zM821 0l-37 305h-411l-111 -305h-366l610 1419h412l260 -1419h-357z" />
    <glyph glyph-name="Acircumflex" unicode="&#xc2;" horiz-adv-x="1218" 
d="M750 1708l-295 -176l-109 141l322 260h198l262 -266l-133 -135zM678 1151l-221 -600h303l-74 600h-8zM821 0l-37 305h-411l-111 -305h-366l610 1419h412l260 -1419h-357z" />
    <glyph glyph-name="Atilde" unicode="&#xc3;" horiz-adv-x="1218" 
d="M854 1585q-74 0 -142 43t-94 43q-28 0 -51 -19t-57 -67l-154 78q121 240 291 240q73 0 141 -43t91 -43q55 0 112 86l154 -78q-121 -240 -291 -240zM678 1151l-221 -600h303l-74 600h-8zM821 0l-37 305h-411l-111 -305h-366l610 1419h412l260 -1419h-357z" />
    <glyph glyph-name="Adieresis" unicode="&#xc4;" horiz-adv-x="1218" 
d="M986 1548q-71 0 -121 49t-50 118t50 117t121 48t120 -48t49 -118t-49 -118t-120 -48zM511 1548q-71 0 -121 49t-50 118t50 117t121 48t120 -48t49 -118t-49 -118t-120 -48zM678 1151l-221 -600h303l-74 600h-8zM821 0l-37 305h-411l-111 -305h-366l610 1419h412
l260 -1419h-357z" />
    <glyph glyph-name="Aring" unicode="&#xc5;" horiz-adv-x="1218" 
d="M743 1511q-127 0 -201 70q-74 71 -75 187q0 116 85 200t211 84t202 -69q75 -69 75 -187t-85 -201q-85 -84 -212 -84zM659 1773q0 -92 91 -92q42 0 70 32t28 78t-24 70q-24 23 -66 23t-70 -32q-29 -32 -29 -79zM678 1151l-221 -600h303l-74 600h-8zM821 0l-37 305h-411
l-111 -305h-366l610 1419h412l260 -1419h-357z" />
    <glyph glyph-name="AE" unicode="&#xc6;" horiz-adv-x="1710" 
d="M776 1149l-278 -598h321l-33 598h-10zM848 0l-19 305h-438l-139 -305h-373l733 1419h1080l-66 -241h-551l27 -338h500l-29 -242h-455l31 -354h471l-29 -244h-743z" />
    <glyph glyph-name="Ccedilla" unicode="&#xc7;" horiz-adv-x="1175" 
d="M542 -360q80 0 81 69q0 35 -37 49t-142 15l58 207q-199 38 -313 190t-113 405q0 371 197 626q198 255 520 255q274 0 440 -172l-186 -182q-102 100 -240 100q-175 0 -277 -188t-102 -439q0 -346 246 -346q152 0 307 119l137 -211q-186 -160 -440 -170l-8 -65
q90 -14 140 -66t50 -129q0 -109 -84 -177t-225 -69q-141 0 -256 70l94 150q73 -41 153 -41z" />
    <glyph glyph-name="Egrave" unicode="&#xc8;" horiz-adv-x="1073" 
d="M999 1708l-77 -170l-512 207l114 250zM1040 1178h-499l-41 -338h436l-29 -238h-436l-43 -356h533l-29 -246h-873l172 1419h875z" />
    <glyph glyph-name="Eacute" unicode="&#xc9;" horiz-adv-x="1073" 
d="M502 1538l-80 170l475 287l117 -250zM1040 1178h-499l-41 -338h436l-29 -238h-436l-43 -356h533l-29 -246h-873l172 1419h875z" />
    <glyph glyph-name="Ecircumflex" unicode="&#xca;" horiz-adv-x="1073" 
d="M707 1708l-295 -176l-109 141l322 260h198l262 -266l-133 -135zM1040 1178h-499l-41 -338h436l-29 -238h-436l-43 -356h533l-29 -246h-873l172 1419h875z" />
    <glyph glyph-name="Edieresis" unicode="&#xcb;" horiz-adv-x="1073" 
d="M939 1548q-71 0 -121 49t-50 118t50 117t121 48t120 -48t49 -118t-49 -118t-120 -48zM464 1548q-71 0 -121 49t-50 118t50 117t121 48t120 -48t49 -118t-49 -118t-120 -48zM1040 1178h-499l-41 -338h436l-29 -238h-436l-43 -356h533l-29 -246h-873l172 1419h875z" />
    <glyph glyph-name="Igrave" unicode="&#xcc;" horiz-adv-x="600" 
d="M727 1708l-78 -170l-512 207l115 250zM399 0h-340l172 1419h340z" />
    <glyph glyph-name="Iacute" unicode="&#xcd;" horiz-adv-x="600" 
d="M219 1538l-80 170l475 287l117 -250zM399 0h-340l172 1419h340z" />
    <glyph glyph-name="Icircumflex" unicode="&#xce;" horiz-adv-x="600" 
d="M442 1708l-295 -176l-108 141l321 260h199l262 -266l-133 -135zM399 0h-340l172 1419h340z" />
    <glyph glyph-name="Idieresis" unicode="&#xcf;" horiz-adv-x="600" 
d="M677 1548q-71 0 -121 49t-50 118t50 117t121 48t120 -48t49 -118t-49 -118t-120 -48zM202 1548q-71 0 -121 49t-50 118t50 117t121 48t120 -48t49 -118t-49 -118t-120 -48zM399 0h-340l172 1419h340z" />
    <glyph glyph-name="Eth" unicode="&#xd0;" horiz-adv-x="1351" 
d="M547 246q182 0 296 154t113 452q0 322 -311 322h-94l-43 -349h283l-25 -204h-285l-45 -375h111zM1307 852q0 -400 -206 -626t-587 -226h-446l75 621h-125l23 204h127l74 594h399q315 0 491 -144t175 -423z" />
    <glyph glyph-name="Ntilde" unicode="&#xd1;" horiz-adv-x="1353" 
d="M920 1585q-74 0 -142 43t-96 43t-50 -19t-57 -67l-153 78q121 240 291 240q73 0 141 -43t90 -43q55 0 113 86l153 -78q-120 -240 -290 -240zM932 428q0 236 35 526l57 465h301l-172 -1419h-430l-268 1096h-9q2 -25 2 -203t-28 -408l-60 -485h-301l172 1419h420l277 -1097
h8q-4 53 -4 106z" />
    <glyph glyph-name="Ograve" unicode="&#xd2;" horiz-adv-x="1411" 
d="M1130 1708l-77 -170l-512 207l114 250zM426 502q0 -138 57 -214t167 -75q286 0 349 462q46 339 -42 455q-55 76 -167 76t-187 -68t-110 -181q-67 -208 -67 -455zM1366 850q0 -351 -170 -606q-84 -127 -225 -203t-322 -76q-266 0 -420 159t-153 447q0 348 169 607
q83 126 224 202t322 76q263 0 419 -160t156 -446z" />
    <glyph glyph-name="Oacute" unicode="&#xd3;" horiz-adv-x="1411" 
d="M639 1538l-80 170l475 287l117 -250zM426 502q0 -138 57 -214t167 -75q286 0 349 462q46 339 -42 455q-55 76 -167 76t-187 -68t-110 -181q-67 -208 -67 -455zM1366 850q0 -351 -170 -606q-84 -127 -225 -203t-322 -76q-266 0 -420 159t-153 447q0 348 169 607
q83 126 224 202t322 76q263 0 419 -160t156 -446z" />
    <glyph glyph-name="Ocircumflex" unicode="&#xd4;" horiz-adv-x="1411" 
d="M848 1708l-295 -176l-109 141l322 260h199l262 -266l-133 -135zM426 502q0 -138 57 -214t167 -75q286 0 349 462q46 339 -42 455q-55 76 -167 76t-187 -68t-110 -181q-67 -208 -67 -455zM1366 850q0 -351 -170 -606q-84 -127 -225 -203t-322 -76q-266 0 -420 159
t-153 447q0 348 169 607q83 126 224 202t322 76q263 0 419 -160t156 -446z" />
    <glyph glyph-name="Otilde" unicode="&#xd5;" horiz-adv-x="1411" 
d="M950 1585q-74 0 -142 43t-94 43q-28 0 -50 -19t-58 -67l-153 78q121 240 290 240q74 0 142 -43q67 -43 95 -43t52 19t55 67l154 -78q-119 -240 -291 -240zM426 502q0 -138 57 -214t167 -75q286 0 349 462q46 339 -42 455q-55 76 -167 76t-187 -68t-110 -181
q-67 -208 -67 -455zM1366 850q0 -351 -170 -606q-84 -127 -225 -203t-322 -76q-266 0 -420 159t-153 447q0 348 169 607q83 126 224 202t322 76q263 0 419 -160t156 -446z" />
    <glyph glyph-name="Odieresis" unicode="&#xd6;" horiz-adv-x="1411" 
d="M1082 1548q-70 0 -120 49t-50 118t50 117t120 48t120 -48q49 -48 49 -118t-49 -118t-120 -48zM607 1548q-71 0 -121 49t-50 118t50 117t121 48t120 -48t49 -118t-49 -118t-120 -48zM426 502q0 -138 57 -214t167 -75q286 0 349 462q46 339 -42 455q-55 76 -167 76
t-187 -68t-110 -181q-67 -208 -67 -455zM1366 850q0 -351 -170 -606q-84 -127 -225 -203t-322 -76q-266 0 -420 159t-153 447q0 348 169 607q83 126 224 202t322 76q263 0 419 -160t156 -446z" />
    <glyph glyph-name="multiply" unicode="&#xd7;" horiz-adv-x="1062" 
d="M350 1036l203 -233l262 237l166 -190l-262 -236l203 -229l-203 -180l-203 229l-264 -235l-166 190l264 234l-203 233z" />
    <glyph glyph-name="Oslash" unicode="&#xd8;" horiz-adv-x="1411" 
d="M655 213q281 0 352 463q15 104 15 225t-51 195l-367 -879q31 -4 51 -4zM784 1206q-86 0 -152 -47q-117 -83 -172 -287q-44 -159 -44 -320t51 -235l373 885q-37 4 -56 4zM649 -35q-51 0 -108 10l-109 -254l-250 68l121 270q-227 158 -227 509t169 610q83 126 224 202
t322 76q18 0 110 -10l107 250l249 -68l-118 -272q227 -156 227 -506t-170 -606q-84 -127 -225 -203t-322 -76z" />
    <glyph glyph-name="Ugrave" unicode="&#xd9;" horiz-adv-x="1331" 
d="M1085 1708l-77 -170l-512 207l114 250zM618 -35q-258 0 -391 120t-133 337q0 45 6 98l111 899h340l-113 -923q-6 -43 -6 -78q0 -201 191 -201q215 0 245 266l115 936h342l-117 -942q-32 -244 -182 -378t-408 -134z" />
    <glyph glyph-name="Uacute" unicode="&#xda;" horiz-adv-x="1331" 
d="M592 1538l-80 170l475 287l117 -250zM618 -35q-258 0 -391 120t-133 337q0 45 6 98l111 899h340l-113 -923q-6 -43 -6 -78q0 -201 191 -201q215 0 245 266l115 936h342l-117 -942q-32 -244 -182 -378t-408 -134z" />
    <glyph glyph-name="Ucircumflex" unicode="&#xdb;" horiz-adv-x="1331" 
d="M809 1708l-295 -176l-108 141l321 260h199l262 -266l-133 -135zM618 -35q-258 0 -391 120t-133 337q0 45 6 98l111 899h340l-113 -923q-6 -43 -6 -78q0 -201 191 -201q215 0 245 266l115 936h342l-117 -942q-32 -244 -182 -378t-408 -134z" />
    <glyph glyph-name="Udieresis" unicode="&#xdc;" horiz-adv-x="1331" 
d="M1041 1548q-71 0 -121 49t-50 118t50 117t122 48q70 0 119 -48t49 -118t-49 -118t-120 -48zM566 1548q-71 0 -121 49t-50 118t50 117t121 48t120 -48t49 -118t-49 -118t-120 -48zM618 -35q-258 0 -391 120t-133 337q0 45 6 98l111 899h340l-113 -923q-6 -43 -6 -78
q0 -201 191 -201q215 0 245 266l115 936h342l-117 -942q-32 -244 -182 -378t-408 -134z" />
    <glyph glyph-name="Yacute" unicode="&#xdd;" horiz-adv-x="1210" 
d="M532 1538l-79 170l475 287l116 -250zM1331 1419l-563 -887l-63 -532h-343l66 530l-346 889h360l179 -612h8l332 612h370z" />
    <glyph glyph-name="Thorn" unicode="&#xde;" horiz-adv-x="1212" 
d="M586 481q122 0 196 76t74 207q0 180 -246 180h-96l-57 -463h129zM1206 774q0 -246 -166 -392t-444 -146h-170l-27 -236h-340l172 1419h340l-28 -233h96q279 0 423 -110t144 -302z" />
    <glyph glyph-name="germandbls" unicode="&#xdf;" horiz-adv-x="1222" 
d="M868 872q0 -38 32 -76t77 -77t91 -86t78 -117t32 -151q0 -172 -120 -286t-302 -114q-78 0 -162 24t-137 64l133 209q64 -45 124 -45t96 36t36 101q0 64 -43 120t-95 92t-96 98t-43 142q0 81 38 143t82 91t82 77t38 112q0 96 -107 96q-74 0 -118 -50t-62 -173l-131 -932
q-39 -270 -159 -410t-357 -215l-82 238q129 47 185 118t77 216l127 905q39 283 168 408t371 124q190 0 298 -80q107 -80 107 -210q0 -129 -91 -203q-38 -31 -76 -59q-39 -28 -65 -60t-26 -70z" />
    <glyph glyph-name="agrave" unicode="&#xe0;" horiz-adv-x="1185" 
d="M1012 1415l-82 -166l-514 215l116 250zM506 205q47 0 100 47t94 125l74 483q-55 25 -117 25q-117 0 -199 -123t-83 -340q0 -217 131 -217zM43 408q0 322 177 520t446 196q229 1 454 -120l-98 -682q-8 -62 2 -92t47 -46l-92 -215q-215 18 -258 181q-137 -184 -328 -185
q-162 0 -256 110t-94 333z" />
    <glyph glyph-name="aacute" unicode="&#xe1;" horiz-adv-x="1185" 
d="M494 1247l-80 166l479 297l117 -248zM506 205q47 0 100 47t94 125l74 483q-55 25 -117 25q-117 0 -199 -123t-83 -340q0 -217 131 -217zM43 408q0 322 177 520t446 196q229 1 454 -120l-98 -682q-8 -62 2 -92t47 -46l-92 -215q-215 18 -258 181q-137 -184 -328 -185
q-162 0 -256 110t-94 333z" />
    <glyph glyph-name="acircumflex" unicode="&#xe2;" horiz-adv-x="1185" 
d="M725 1446l-303 -195l-105 140l330 280h199l254 -287l-135 -133zM506 205q47 0 100 47t94 125l74 483q-55 25 -117 25q-117 0 -199 -123t-83 -340q0 -217 131 -217zM43 408q0 322 177 520t446 196q229 1 454 -120l-98 -682q-8 -62 2 -92t47 -46l-92 -215q-215 18 -258 181
q-137 -184 -328 -185q-162 0 -256 110t-94 333z" />
    <glyph glyph-name="atilde" unicode="&#xe3;" horiz-adv-x="1185" 
d="M819 1296q-73 0 -141 44t-96 44t-50 -19q-23 -19 -57 -67l-153 78q121 240 292 240q74 0 141 -43t95 -43q51 0 108 86l154 -78q-123 -242 -293 -242zM506 205q47 0 100 47t94 125l74 483q-55 25 -117 25q-117 0 -199 -123t-83 -340q0 -217 131 -217zM43 408
q0 322 177 520t446 196q229 1 454 -120l-98 -682q-8 -62 2 -92t47 -46l-92 -215q-215 18 -258 181q-137 -184 -328 -185q-162 0 -256 110t-94 333z" />
    <glyph glyph-name="adieresis" unicode="&#xe4;" horiz-adv-x="1185" 
d="M967 1305q-72 0 -121 48q-49 47 -49 117t49 117t121 47q71 0 119 -47t48 -117t-47 -118q-48 -48 -120 -47zM643 1470q0 -70 -49 -118t-120 -47q-71 0 -121 48q-50 49 -50 117t50 116t121 48t120 -47t49 -117zM506 205q47 0 100 47t94 125l74 483q-55 25 -117 25
q-117 0 -199 -123t-83 -340q0 -217 131 -217zM43 408q0 322 177 520t446 196q229 1 454 -120l-98 -682q-8 -62 2 -92t47 -46l-92 -215q-215 18 -258 181q-137 -184 -328 -185q-162 0 -256 110t-94 333z" />
    <glyph glyph-name="aring" unicode="&#xe5;" horiz-adv-x="1185" 
d="M715 1231q-127 0 -202 71q-75 72 -75 188t85 200t211 84t203 -70t77 -186t-86 -202q-86 -85 -213 -85zM719 1401q45 0 73 32t28 78q0 45 -24 69t-66 24t-70 -32t-27 -87q0 -84 86 -84zM506 205q47 0 100 47t94 125l74 483q-55 25 -117 25q-117 0 -199 -123t-83 -340
q0 -217 131 -217zM43 408q0 322 177 520t446 196q229 1 454 -120l-98 -682q-8 -62 2 -92t47 -46l-92 -215q-215 18 -258 181q-137 -184 -328 -185q-162 0 -256 110t-94 333z" />
    <glyph glyph-name="ae" unicode="&#xe6;" horiz-adv-x="1687" 
d="M618 467q-152 0 -214 -42t-62 -130q0 -96 117 -96q57 0 119 39t96 94q-6 66 6 135h-62zM1239 905q-86 0 -160 -84t-98 -229q197 20 279 74t81 149q0 41 -26 66q-27 24 -76 24zM568 1124q284 0 337 -166q143 166 379 166q180 0 282 -81t103 -218q0 -367 -696 -426
q18 -193 182 -192q123 0 258 90l127 -193q-178 -139 -414 -139q-274 0 -393 185q-139 -184 -395 -185q-170 0 -255 82t-85 219q0 188 149 289q150 100 422 100h129l9 68q10 82 -29 121t-151 39t-289 -58l-45 217q229 82 375 82z" />
    <glyph glyph-name="ccedilla" unicode="&#xe7;" horiz-adv-x="960" 
d="M413 -360q80 0 81 69q0 35 -37 49t-142 15l58 209q-154 36 -242 156t-88 308q0 302 170 490t414 188q211 0 370 -129l-141 -196q-90 73 -205 73t-193 -114t-77 -314q0 -223 182 -223q94 0 215 76l109 -213q-160 -109 -338 -117l-8 -65q90 -14 140 -66t50 -129
q0 -109 -84 -177t-225 -69q-141 0 -256 70l94 150q73 -41 153 -41z" />
    <glyph glyph-name="egrave" unicode="&#xe8;" horiz-adv-x="1085" 
d="M983 1415l-82 -166l-514 215l117 250zM739 814q0 91 -94 91t-168 -84t-98 -229q201 20 281 76t79 146zM1067 825q0 -367 -696 -426q16 -193 182 -192q125 0 260 90l125 -193q-182 -139 -416 -139t-356 122t-123 357q0 300 173 490t450 190q193 0 297 -80t104 -219z" />
    <glyph glyph-name="eacute" unicode="&#xe9;" horiz-adv-x="1085" 
d="M471 1247l-80 166l479 297l117 -248zM739 814q0 91 -94 91t-168 -84t-98 -229q201 20 281 76t79 146zM1067 825q0 -367 -696 -426q16 -193 182 -192q125 0 260 90l125 -193q-182 -139 -416 -139t-356 122t-123 357q0 300 173 490t450 190q193 0 297 -80t104 -219z" />
    <glyph glyph-name="ecircumflex" unicode="&#xea;" horiz-adv-x="1085" 
d="M692 1446l-303 -195l-104 140l329 280h199l254 -287l-135 -133zM739 814q0 91 -94 91t-168 -84t-98 -229q201 20 281 76t79 146zM1067 825q0 -367 -696 -426q16 -193 182 -192q125 0 260 90l125 -193q-182 -139 -416 -139t-356 122t-123 357q0 300 173 490t450 190
q193 0 297 -80t104 -219z" />
    <glyph glyph-name="edieresis" unicode="&#xeb;" horiz-adv-x="1085" 
d="M940 1305q-72 0 -121 48q-49 47 -49 117t49 117t121 47t120 -47t48 -117t-48 -118t-120 -47zM616 1470q0 -70 -49 -118t-120 -47q-71 0 -121 48q-50 49 -50 117t50 116t122 48q70 0 119 -47t49 -117zM739 814q0 91 -94 91t-168 -84t-98 -229q201 20 281 76t79 146z
M1067 825q0 -367 -696 -426q16 -193 182 -192q125 0 260 90l125 -193q-182 -139 -416 -139t-356 122t-123 357q0 300 173 490t450 190q193 0 297 -80t104 -219z" />
    <glyph glyph-name="igrave" unicode="&#xec;" horiz-adv-x="565" 
d="M713 1415l-82 -166l-514 215l116 250zM365 0h-328l151 1087h328z" />
    <glyph glyph-name="iacute" unicode="&#xed;" horiz-adv-x="565" 
d="M190 1247l-79 166l479 297l117 -248zM365 0h-328l151 1087h328z" />
    <glyph glyph-name="icircumflex" unicode="&#xee;" horiz-adv-x="565" 
d="M365 0h-328l151 1087h328zM410 1446l-304 -195l-104 140l330 280h198l254 -287l-135 -133z" />
    <glyph glyph-name="idieresis" unicode="&#xef;" horiz-adv-x="565" 
d="M365 0h-328l151 1087h328zM655 1305q-73 0 -121 48q-48 47 -48 117t48 117q50 47 122 47t119 -47q48 -47 48 -117t-48 -118t-120 -47zM332 1470q0 -70 -49 -118t-120 -47q-71 0 -121 48q-50 49 -50 117t50 116t121 48t120 -47t49 -117z" />
    <glyph glyph-name="eth" unicode="&#xf0;" horiz-adv-x="1181" 
d="M532 197q102 -1 167 109t81 329q-72 119 -196 119q-94 0 -154 -84t-59 -220q0 -254 161 -253zM1124 752q0 -336 -168 -562t-442 -225q-221 0 -347 125q-126 124 -126 354t135 386t328 157q102 0 173 -34t136 -117l6 4q4 254 -162 368l-151 -133l-195 94l142 129
q-78 23 -162 41l98 215q143 -27 268 -71l166 151l148 -145l-115 -103q150 -102 209 -246t59 -388z" />
    <glyph glyph-name="ntilde" unicode="&#xf1;" horiz-adv-x="1173" 
d="M821 1296q-73 0 -141 44t-96 44t-50 -19t-57 -67l-153 78q121 240 292 240q74 0 141 -43t95 -43t52 19t57 67l153 -78q-123 -242 -293 -242zM756 786q0 70 -62 70q-104 0 -243 -262l-84 -594h-326l152 1087h284l-12 -202q168 240 383 239q116 0 180 -68t64 -204
q0 -51 -9 -100l-104 -752h-326l97 705q6 43 6 81z" />
    <glyph glyph-name="ograve" unicode="&#xf2;" horiz-adv-x="1181" 
d="M1004 1415l-82 -166l-514 215l116 250zM631 883q-121 1 -188 -141t-66 -326q0 -111 37 -161q38 -50 122 -50t145 81q105 142 103 384q1 213 -153 213zM643 1124q223 0 349 -128t126 -347q0 -293 -158 -489t-438 -195q-223 0 -351 124t-128 345q1 286 159 488t441 202z
" />
    <glyph glyph-name="oacute" unicode="&#xf3;" horiz-adv-x="1181" 
d="M496 1247l-80 166l479 297l117 -248zM631 883q-121 1 -188 -141t-66 -326q0 -111 37 -161q38 -50 122 -50t145 81q105 142 103 384q1 213 -153 213zM643 1124q223 0 349 -128t126 -347q0 -293 -158 -489t-438 -195q-223 0 -351 124t-128 345q1 286 159 488t441 202z" />
    <glyph glyph-name="ocircumflex" unicode="&#xf4;" horiz-adv-x="1181" 
d="M715 1446l-303 -195l-105 140l330 280h199l254 -287l-136 -133zM631 883q-121 1 -188 -141t-66 -326q0 -111 37 -161q38 -50 122 -50t145 81q105 142 103 384q1 213 -153 213zM643 1124q223 0 349 -128t126 -347q0 -293 -158 -489t-438 -195q-223 0 -351 124t-128 345
q1 286 159 488t441 202z" />
    <glyph glyph-name="otilde" unicode="&#xf5;" horiz-adv-x="1181" 
d="M815 1296q-73 0 -141 44t-96 44t-50 -19q-23 -19 -57 -67l-154 78q121 240 293 240q74 0 141 -43t95 -43q51 0 108 86l154 -78q-123 -242 -293 -242zM631 883q-121 1 -188 -141t-66 -326q0 -111 37 -161q38 -50 122 -50t145 81q105 142 103 384q1 213 -153 213zM643 1124
q223 0 349 -128t126 -347q0 -293 -158 -489t-438 -195q-223 0 -351 124t-128 345q1 286 159 488t441 202z" />
    <glyph glyph-name="odieresis" unicode="&#xf6;" horiz-adv-x="1181" 
d="M961 1305q-72 0 -121 48q-49 47 -49 117t49 117t121 47q71 0 119 -47t48 -117t-48 -118t-119 -47zM637 1470q0 -70 -49 -118t-120 -47q-71 0 -121 48q-50 49 -50 117t50 116t121 48t120 -47t49 -117zM631 883q-121 1 -188 -141t-66 -326q0 -111 37 -161q38 -50 122 -50
t145 81q105 142 103 384q1 213 -153 213zM643 1124q223 0 349 -128t126 -347q0 -293 -158 -489t-438 -195q-223 0 -351 124t-128 345q1 286 159 488t441 202z" />
    <glyph glyph-name="divide" unicode="&#xf7;" horiz-adv-x="1062" 
d="M406 1093q0 77 55 131t133 54t132 -55t54 -131t-55 -130t-132 -54t-132 54t-55 131zM299 213q0 78 55 132t132 54t131 -54q55 -54 55 -132t-54 -132t-132 -54q-77 0 -132 54t-55 132zM969 526h-893l33 252h892z" />
    <glyph glyph-name="oslash" unicode="&#xf8;" horiz-adv-x="1191" 
d="M801 659q0 72 -25 115l-262 -567q8 -2 41 -2q113 2 179 143t67 311zM637 883q-127 -1 -197 -141t-69 -316q0 -86 26 -125l269 580q-15 2 -29 2zM649 1124q47 0 80 -8l113 242l229 -70l-119 -252q176 -133 176 -387q0 -291 -160 -487t-442 -197q-43 0 -80 6l-114 -252
l-232 70l121 260q-178 123 -178 397q1 274 161 476t445 202z" />
    <glyph glyph-name="ugrave" unicode="&#xf9;" horiz-adv-x="1161" 
d="M983 1415l-82 -166l-514 215l117 250zM479 229q104 0 205 177l98 681h328l-154 -1087h-284l4 160q-139 -195 -338 -195q-127 0 -196 75t-68 224q0 57 8 109l100 714h328l-100 -716q-12 -80 5 -111t64 -31z" />
    <glyph glyph-name="uacute" unicode="&#xfa;" horiz-adv-x="1161" 
d="M489 1247l-79 166l479 297l117 -248zM479 229q104 0 205 177l98 681h328l-154 -1087h-284l4 160q-139 -195 -338 -195q-127 0 -196 75t-68 224q0 57 8 109l100 714h328l-100 -716q-12 -80 5 -111t64 -31z" />
    <glyph glyph-name="ucircumflex" unicode="&#xfb;" horiz-adv-x="1161" 
d="M698 1446l-303 -195l-104 140l330 280h198l254 -287l-135 -133zM479 229q104 0 205 177l98 681h328l-154 -1087h-284l4 160q-139 -195 -338 -195q-127 0 -196 75t-68 224q0 57 8 109l100 714h328l-100 -716q-12 -80 5 -111t64 -31z" />
    <glyph glyph-name="udieresis" unicode="&#xfc;" horiz-adv-x="1161" 
d="M944 1305q-72 0 -121 48q-49 47 -49 117t49 117t121 47t120 -47t48 -117t-48 -118t-120 -47zM452 1634q72 0 120 -47t48 -117t-48 -118q-49 -48 -120 -47q-71 0 -121 48q-50 49 -50 117t50 116t121 48zM479 229q104 0 205 177l98 681h328l-154 -1087h-284l4 160
q-139 -195 -338 -195q-127 0 -196 75t-68 224q0 57 8 109l100 714h328l-100 -716q-12 -80 5 -111t64 -31z" />
    <glyph glyph-name="yacute" unicode="&#xfd;" horiz-adv-x="1042" 
d="M446 1247l-79 166l479 297l117 -248zM250 0l-195 1087h338l82 -862h8l297 862h344l-452 -1075q-94 -223 -262 -339t-441 -128l-12 234q172 18 260 68t139 153h-106z" />
    <glyph glyph-name="thorn" unicode="&#xfe;" horiz-adv-x="1212" 
d="M565 203q92 0 170 143t78 363q0 77 -29 115t-69 38q-123 0 -264 -260l-45 -315q67 -84 159 -84zM842 1124q141 0 224 -101t83 -308q-1 -324 -149 -537t-349 -213q-160 0 -274 117l-70 -502l-332 -35l277 1975l334 34l-92 -641q74 103 166 157t182 54z" />
    <glyph glyph-name="ydieresis" unicode="&#xff;" horiz-adv-x="1042" 
d="M887 1305q-72 0 -121 48q-49 47 -49 117t49 117t121 47t120 -47t48 -117t-48 -118t-120 -47zM563 1470q0 -70 -49 -118t-120 -47q-71 0 -121 48q-50 49 -50 117t50 116t121 48t120 -47t49 -117zM250 0l-195 1087h338l82 -862h8l297 862h344l-452 -1075
q-94 -223 -262 -339t-441 -128l-12 234q172 18 260 68t139 153h-106z" />
    <glyph glyph-name="Amacron" unicode="&#x100;" horiz-adv-x="1218" 
d="M1075 1831l-28 -227h-627l29 227h626zM678 1151l-221 -600h303l-74 600h-8zM821 0l-37 305h-411l-111 -305h-366l610 1419h412l260 -1419h-357z" />
    <glyph glyph-name="amacron" unicode="&#x101;" horiz-adv-x="1185" 
d="M1042 1573l-28 -227h-627l31 227h624zM506 205q47 0 100 47t94 125l74 483q-55 25 -117 25q-117 0 -199 -123t-83 -340q0 -217 131 -217zM43 408q0 322 177 520t446 196q229 1 454 -120l-98 -682q-8 -62 2 -92t47 -46l-92 -215q-215 18 -258 181q-137 -184 -328 -185
q-162 0 -256 110t-94 333z" />
    <glyph glyph-name="Abreve" unicode="&#x102;" horiz-adv-x="1218" 
d="M736 1538q-150 0 -236 94q-88 94 -88 246l184 33q20 -145 154 -145t192 145l176 -33q-36 -158 -134 -249t-248 -91zM678 1151l-221 -600h303l-74 600h-8zM821 0l-37 305h-411l-111 -305h-366l610 1419h412l260 -1419h-357z" />
    <glyph glyph-name="abreve" unicode="&#x103;" horiz-adv-x="1185" 
d="M706 1251q-157 -1 -238 105t-81 256l184 30q16 -166 150 -165q135 0 197 165l176 -30q-37 -154 -134 -258t-254 -103zM506 205q47 0 100 47t94 125l74 483q-55 25 -117 25q-117 0 -199 -123t-83 -340q0 -217 131 -217zM43 408q0 322 177 520t446 196q229 1 454 -120
l-98 -682q-8 -62 2 -92t47 -46l-92 -215q-215 18 -258 181q-137 -184 -328 -185q-162 0 -256 110t-94 333z" />
    <glyph glyph-name="Aogonek" unicode="&#x104;" horiz-adv-x="1218" 
d="M678 1151l-221 -600h303l-74 600h-8zM1046 -344q88 0 146 31l53 -162q-127 -53 -249 -53t-194 58t-73 155q0 195 252 315h-160l-37 305h-411l-111 -305h-366l610 1419h412l260 -1419q-219 -117 -220 -262q0 -82 88 -82z" />
    <glyph glyph-name="aogonek" unicode="&#x105;" horiz-adv-x="1185" 
d="M506 205q47 0 100 47t94 125l74 483q-55 25 -117 25q-117 0 -199 -123t-83 -340q0 -217 131 -217zM813 -262q0 -82 90 -82t144 31l53 -162q-123 -53 -247 -53t-196 57q-71 57 -71 153q1 201 254 320q-90 43 -119 148q-137 -184 -328 -185q-162 0 -256 110t-94 333
q0 322 177 520t446 196q229 1 454 -120l-98 -682q-8 -62 2 -92t47 -46l-92 -215q-166 -106 -166 -231z" />
    <glyph glyph-name="Cacute" unicode="&#x106;" horiz-adv-x="1175" 
d="M610 1538l-80 170l476 287l116 -250zM807 1202q-175 0 -277 -188t-102 -439q0 -346 246 -346q152 0 307 119l137 -211q-209 -172 -472 -172t-417 158t-153 452q0 371 197 626q198 255 520 255q274 0 440 -172l-186 -182q-102 100 -240 100z" />
    <glyph glyph-name="cacute" unicode="&#x107;" horiz-adv-x="960" 
d="M442 1247l-80 166l480 297l116 -248zM563 221q94 0 215 76l109 -213q-176 -119 -383 -119t-334 126t-127 355q0 302 170 490t414 188q211 0 370 -129l-141 -196q-90 73 -205 73t-193 -114t-77 -314q0 -223 182 -223z" />
    <glyph glyph-name="Ccircumflex" unicode="&#x108;" horiz-adv-x="1175" 
d="M831 1708l-294 -176l-109 141l322 260h198l262 -266l-133 -135zM807 1202q-175 0 -277 -188t-102 -439q0 -346 246 -346q152 0 307 119l137 -211q-209 -172 -472 -172t-417 158t-153 452q0 371 197 626q198 255 520 255q274 0 440 -172l-186 -182q-102 100 -240 100z" />
    <glyph glyph-name="ccircumflex" unicode="&#x109;" horiz-adv-x="960" 
d="M676 1446l-303 -195l-105 140l330 280h199l254 -287l-136 -133zM563 221q94 0 215 76l109 -213q-176 -119 -383 -119t-334 126t-127 355q0 302 170 490t414 188q211 0 370 -129l-141 -196q-90 73 -205 73t-193 -114t-77 -314q0 -223 182 -223z" />
    <glyph glyph-name="Cdotaccent" unicode="&#x10a;" horiz-adv-x="1175" 
d="M1022 1735q0 -79 -54 -133t-140 -54q-85 0 -139 54t-54 133q0 80 54 132t139 52q86 0 140 -52t54 -132zM807 1202q-175 0 -277 -188t-102 -439q0 -346 246 -346q152 0 307 119l137 -211q-209 -172 -472 -172t-417 158t-153 452q0 371 197 626q198 255 520 255
q274 0 440 -172l-186 -182q-102 100 -240 100z" />
    <glyph glyph-name="cdotaccent" unicode="&#x10b;" horiz-adv-x="960" 
d="M870 1475q0 -81 -53 -133t-138 -52t-139 52t-54 132t54 133q54 52 139 52t138 -52t53 -132zM563 221q94 0 215 76l109 -213q-176 -119 -383 -119t-334 126t-127 355q0 302 170 490t414 188q211 0 370 -129l-141 -196q-90 73 -205 73t-193 -114t-77 -314q0 -223 182 -223z
" />
    <glyph glyph-name="Ccaron" unicode="&#x10c;" horiz-adv-x="1175" 
d="M823 1765l295 174l109 -141l-322 -260h-200l-261 268l134 133zM807 1202q-175 0 -277 -188t-102 -439q0 -346 246 -346q152 0 307 119l137 -211q-209 -172 -472 -172t-417 158t-153 452q0 371 197 626q198 255 520 255q274 0 440 -172l-186 -182q-102 100 -240 100z" />
    <glyph glyph-name="ccaron" unicode="&#x10d;" horiz-adv-x="960" 
d="M680 1477l301 194l104 -137l-329 -283h-199l-256 287l139 133zM563 221q94 0 215 76l109 -213q-176 -119 -383 -119t-334 126t-127 355q0 302 170 490t414 188q211 0 370 -129l-141 -196q-90 73 -205 73t-193 -114t-77 -314q0 -223 182 -223z" />
    <glyph glyph-name="Dcaron" unicode="&#x10e;" horiz-adv-x="1341" 
d="M739 1765l295 174l109 -141l-322 -260h-200l-261 268l134 133zM1296 852q0 -401 -205 -627q-206 -225 -587 -225h-445l172 1419h402q315 0 489 -144t174 -423zM539 246q180 0 294 154t113 452q0 322 -309 322h-96l-113 -928h111z" />
    <glyph glyph-name="dcaron" unicode="&#x10f;" horiz-adv-x="1351" 
d="M1282 1540q0 76 48 121t119 45t116 -41t45 -109t-62 -170l-129 -208h-162l91 239q-66 47 -66 123zM622 885q-97 0 -171 -120t-74 -340t135 -220q49 0 106 50t103 128l61 430q-63 72 -160 72zM549 1124q154 0 262 -106l76 536l323 -34l-213 -1520h-290v139
q-139 -174 -305 -174t-262 117q-97 117 -97 336q-1 318 151 512t355 194z" />
    <glyph glyph-name="Dcroat" unicode="&#x110;" horiz-adv-x="1351" 
d="M547 246q182 0 296 154t113 452q0 322 -311 322h-94l-43 -349h283l-25 -204h-285l-45 -375h111zM1307 852q0 -400 -206 -626t-587 -226h-446l75 621h-125l23 204h127l74 594h399q315 0 491 -144t175 -423z" />
    <glyph glyph-name="dcroat" unicode="&#x111;" horiz-adv-x="1222" 
d="M622 885q-97 0 -171 -120t-74 -340t135 -220q49 0 106 50t103 128l61 430q-63 72 -160 72zM707 0v139q-139 -174 -305 -174t-262 117q-97 117 -97 336q0 317 152 512t354 194q154 0 262 -106l27 196h-260l26 191h260l23 149l323 -34l-16 -115h149l-26 -191h-150
l-170 -1214h-290z" />
    <glyph glyph-name="Emacron" unicode="&#x112;" horiz-adv-x="1073" 
d="M1030 1831l-29 -227h-626l28 227h627zM1040 1178h-499l-41 -338h436l-29 -238h-436l-43 -356h533l-29 -246h-873l172 1419h875z" />
    <glyph glyph-name="emacron" unicode="&#x113;" horiz-adv-x="1085" 
d="M1014 1573l-29 -227h-627l31 227h625zM739 814q0 91 -94 91t-168 -84t-98 -229q201 20 281 76t79 146zM1067 825q0 -367 -696 -426q16 -193 182 -192q125 0 260 90l125 -193q-182 -139 -416 -139t-356 122t-123 357q0 300 173 490t450 190q193 0 297 -80t104 -219z" />
    <glyph glyph-name="Ebreve" unicode="&#x114;" horiz-adv-x="1073" 
d="M694 1538q-150 0 -238 94t-87 246l184 33q19 -145 153 -145t193 145l176 -33q-37 -158 -135 -249q-96 -91 -246 -91zM1040 1178h-499l-41 -338h436l-29 -238h-436l-43 -356h533l-29 -246h-873l172 1419h875z" />
    <glyph glyph-name="ebreve" unicode="&#x115;" horiz-adv-x="1085" 
d="M677 1251q-157 -1 -238 105t-81 256l185 30q16 -166 149 -165q135 0 197 165l176 -30q-37 -154 -134 -258t-254 -103zM739 814q0 91 -94 91t-168 -84t-98 -229q201 20 281 76t79 146zM1067 825q0 -367 -696 -426q16 -193 182 -192q125 0 260 90l125 -193
q-182 -139 -416 -139t-356 122t-123 357q0 300 173 490t450 190q193 0 297 -80t104 -219z" />
    <glyph glyph-name="Edotaccent" unicode="&#x116;" horiz-adv-x="1073" 
d="M893 1735q-1 -79 -55 -133t-139 -54t-139 54t-54 133q0 80 54 132t139 52t139 -52t55 -132zM1040 1178h-499l-41 -338h436l-29 -238h-436l-43 -356h533l-29 -246h-873l172 1419h875z" />
    <glyph glyph-name="edotaccent" unicode="&#x117;" horiz-adv-x="1085" 
d="M693 1290q-85 0 -139 52t-54 132t54 133q54 52 139 52t138 -52t53 -132q0 -81 -52 -133q-54 -52 -139 -52zM739 814q0 91 -94 91t-168 -84t-98 -229q201 20 281 76t79 146zM1067 825q0 -367 -696 -426q16 -193 182 -192q125 0 260 90l125 -193q-182 -139 -416 -139
t-356 122t-123 357q0 300 173 490t450 190q193 0 297 -80t104 -219z" />
    <glyph glyph-name="Eogonek" unicode="&#x118;" horiz-adv-x="1073" 
d="M713 -262q0 -82 89 -82t142 31l53 -162q-123 -53 -247 -53t-195 57q-72 57 -72 156q0 195 252 315h-676l172 1419h875l-66 -241h-499l-41 -338h436l-29 -238h-436l-43 -356h533l-29 -246q-219 -117 -219 -262z" />
    <glyph glyph-name="eogonek" unicode="&#x119;" horiz-adv-x="1085" 
d="M739 814q0 91 -94 91t-168 -84t-98 -229q201 20 281 76t79 146zM1067 825q0 -367 -696 -426q16 -193 182 -192q125 0 260 90l125 -193q-90 -70 -201 -104q-219 -117 -219 -262q0 -82 89 -82t143 31l55 -162q-127 -53 -249 -53t-195 58t-72 155q0 164 192 282
q-438 25 -438 477q0 300 173 490t450 190q193 0 297 -80t104 -219z" />
    <glyph glyph-name="Ecaron" unicode="&#x11a;" horiz-adv-x="1073" 
d="M700 1765l295 174l109 -141l-322 -260h-200l-260 268l133 133zM1040 1178h-499l-41 -338h436l-29 -238h-436l-43 -356h533l-29 -246h-873l172 1419h875z" />
    <glyph glyph-name="ecaron" unicode="&#x11b;" horiz-adv-x="1085" 
d="M684 1477l301 194l105 -137l-330 -283h-199l-256 287l139 133zM739 814q0 91 -94 91t-168 -84t-98 -229q201 20 281 76t79 146zM1067 825q0 -367 -696 -426q16 -193 182 -192q125 0 260 90l125 -193q-182 -139 -416 -139t-356 122t-123 357q0 300 173 490t450 190
q193 0 297 -80t104 -219z" />
    <glyph glyph-name="Gcircumflex" unicode="&#x11c;" horiz-adv-x="1323" 
d="M866 1708l-295 -176l-108 141l321 260h199l262 -266l-133 -135zM654 -35q-280 0 -430 154t-148 452q0 412 209 649t538 236q297 0 475 -172l-190 -190q-117 115 -272 114q-182 0 -296 -165t-114 -488q0 -180 64 -261t174 -81q108 0 202 47l39 318h-180l-8 237h547
l-88 -700q-242 -150 -522 -150z" />
    <glyph glyph-name="gcircumflex" unicode="&#x11d;" horiz-adv-x="1204" 
d="M723 1446l-303 -195l-105 140l330 280h199l254 -287l-135 -133zM512 246q53 0 112 44q58 44 103 118l64 452q-55 25 -121 25q-117 0 -203 -114q-86 -113 -86 -319t131 -206zM399 4q-158 0 -255 116t-97 331q0 295 182 484q181 189 437 189t473 -120l-127 -916
q-40 -281 -182 -412t-386 -131t-442 121l111 219q168 -88 301 -88q229 0 262 240l16 117q-135 -150 -293 -150z" />
    <glyph glyph-name="Gbreve" unicode="&#x11e;" horiz-adv-x="1323" 
d="M852 1538q-150 0 -238 94t-88 246l185 33q20 -145 153 -145t193 145l176 -33q-37 -158 -135 -249q-96 -91 -246 -91zM654 -35q-280 0 -430 154t-148 452q0 412 209 649t538 236q297 0 475 -172l-190 -190q-117 115 -272 114q-182 0 -296 -165t-114 -488q0 -180 64 -261
t174 -81q108 0 202 47l39 318h-180l-8 237h547l-88 -700q-242 -150 -522 -150z" />
    <glyph glyph-name="gbreve" unicode="&#x11f;" horiz-adv-x="1204" 
d="M712 1239q-157 -1 -238 105t-81 255l185 31q16 -166 150 -166t196 166l176 -31q-37 -154 -134 -257t-254 -103zM512 246q53 0 112 44q58 44 103 118l64 452q-55 25 -121 25q-117 0 -203 -114q-86 -113 -86 -319t131 -206zM399 4q-158 0 -255 116t-97 331q0 295 182 484
q181 189 437 189t473 -120l-127 -916q-40 -281 -182 -412t-386 -131t-442 121l111 219q168 -88 301 -88q229 0 262 240l16 117q-135 -150 -293 -150z" />
    <glyph glyph-name="Gdotaccent" unicode="&#x120;" horiz-adv-x="1323" 
d="M863 1548q-85 0 -139 54t-54 133q0 80 54 132t139 52t139 -52t54 -132q0 -79 -54 -133t-139 -54zM654 -35q-280 0 -430 154t-148 452q0 412 209 649t538 236q297 0 475 -172l-190 -190q-117 115 -272 114q-182 0 -296 -165t-114 -488q0 -180 64 -261t174 -81
q108 0 202 47l39 318h-180l-8 237h547l-88 -700q-242 -150 -522 -150z" />
    <glyph glyph-name="gdotaccent" unicode="&#x121;" horiz-adv-x="1204" 
d="M734 1278q-85 0 -139 52t-54 132t54 132t139 52t138 -52q54 -52 54 -132t-54 -132t-138 -52zM512 246q53 0 112 44q58 44 103 118l64 452q-55 25 -121 25q-117 0 -203 -114q-86 -113 -86 -319t131 -206zM399 4q-158 0 -255 116t-97 331q0 295 182 484q181 189 437 189
t473 -120l-127 -916q-40 -281 -182 -412t-386 -131t-442 121l111 219q168 -88 301 -88q229 0 262 240l16 117q-135 -150 -293 -150z" />
    <glyph glyph-name="uni0122" unicode="&#x122;" horiz-adv-x="1323" 
d="M424 -298q0 77 47 121t118 44t117 -41q46 -42 46 -108t-64 -169l-127 -211h-162l88 242q-63 45 -63 122zM654 -35q-280 0 -430 154t-148 452q0 412 209 649t538 236q297 0 475 -172l-190 -190q-117 115 -272 114q-182 0 -296 -165t-114 -488q0 -180 64 -261t174 -81
q108 0 202 47l39 318h-180l-8 237h547l-88 -700q-242 -150 -522 -150z" />
    <glyph glyph-name="uni0123" unicode="&#x123;" horiz-adv-x="1204" 
d="M879 1416q-1 -75 -49 -120t-118 -45t-116 41q-45 41 -45 107t61 170l129 211h162l-90 -240q66 -49 66 -124zM512 246q53 0 112 44q58 44 103 118l64 452q-55 25 -121 25q-117 0 -203 -114q-86 -113 -86 -319t131 -206zM399 4q-158 0 -255 116t-97 331q0 295 182 484
q181 189 437 189t473 -120l-127 -916q-40 -281 -182 -412t-386 -131t-442 121l111 219q168 -88 301 -88q229 0 262 240l16 117q-135 -150 -293 -150z" />
    <glyph glyph-name="Hcircumflex" unicode="&#x124;" horiz-adv-x="1353" 
d="M819 1708l-295 -176l-108 141l321 260h199l262 -266l-133 -135zM1153 0h-340l74 606h-416l-72 -606h-340l172 1419h340l-67 -549h416l67 549h340z" />
    <glyph glyph-name="hcircumflex" unicode="&#x125;" horiz-adv-x="1173" 
d="M729 1790l-295 -176l-108 141l321 260h199l262 -266l-133 -135zM854 1124q111 0 174 -68t64 -206q0 -29 -9 -98l-104 -752h-326l97 705q6 43 6 81q0 70 -62 70q-104 0 -243 -260l-84 -596h-326l211 1520l334 34l-90 -641q158 211 358 211z" />
    <glyph glyph-name="Hbar" unicode="&#x126;" horiz-adv-x="1384" 
d="M518 870h416l18 154h-415zM1169 0h-342l74 606h-416l-71 -606h-340l123 1024h-121l22 188h121l27 207h340l-27 -207h416l26 207h340l-26 -207h125l-25 -188h-123z" />
    <glyph glyph-name="hbar" unicode="&#x127;" horiz-adv-x="1181" 
d="M860 1124q111 0 174 -68t64 -208q0 -43 -6 -96l-105 -752h-328l99 705q6 43 6 79q0 72 -62 72q-109 0 -243 -260l-84 -596h-328l170 1214h-127l27 191h127l16 115l332 34l-21 -149h285l-27 -191h-286l-41 -301q160 211 358 211z" />
    <glyph glyph-name="Itilde" unicode="&#x128;" horiz-adv-x="600" 
d="M545 1585q-74 0 -142 43q-67 43 -95 43t-50 -19t-57 -67l-154 78q121 240 291 240q74 0 142 -43t94 -43q28 0 52 19t56 67l154 -78q-119 -240 -291 -240zM399 0h-340l172 1419h340z" />
    <glyph glyph-name="itilde" unicode="&#x129;" horiz-adv-x="565" 
d="M510 1296q-74 0 -142 44t-94 44q-28 0 -51 -19t-57 -67l-154 78q121 240 293 240q75 0 141 -43t94 -43q52 0 109 86l154 -78q-123 -242 -293 -242zM365 0h-328l151 1087h328z" />
    <glyph glyph-name="Imacron" unicode="&#x12a;" horiz-adv-x="600" 
d="M764 1831l-29 -227h-626l28 227h627zM399 0h-340l172 1419h340z" />
    <glyph glyph-name="imacron" unicode="&#x12b;" horiz-adv-x="565" 
d="M365 0h-328l151 1087h328zM731 1573l-29 -227h-626l30 227h625z" />
    <glyph glyph-name="Ibreve" unicode="&#x12c;" horiz-adv-x="600" 
d="M430 1538q-150 0 -238 94t-88 246l185 33q20 -145 153 -145t193 145l176 -33q-37 -158 -135 -249q-96 -91 -246 -91zM399 0h-340l172 1419h340z" />
    <glyph glyph-name="ibreve" unicode="&#x12d;" horiz-adv-x="565" 
d="M365 0h-328l151 1087h328zM402 1251q-158 -1 -238 105t-80 256l184 30q16 -166 150 -165q135 0 196 165l177 -30q-37 -154 -135 -258t-254 -103z" />
    <glyph glyph-name="Iogonek" unicode="&#x12e;" horiz-adv-x="600" 
d="M178 -262q0 -82 88 -82t146 31l53 -162q-123 -53 -247 -53t-196 57t-71 156q0 193 250 315h-142l172 1419h340l-172 -1419q-221 -117 -221 -262z" />
    <glyph glyph-name="iogonek" unicode="&#x12f;" horiz-adv-x="565" 
d="M600 1475q0 -81 -54 -133t-139 -52t-140 52q-54 52 -54 132t54 133q53 52 139 52t140 -52t54 -132zM234 -344q90 0 143 31l53 -162q-123 -53 -247 -53q-123 0 -195 57t-72 156q0 193 250 315h-129l151 1087h328l-151 -1087q-221 -117 -222 -262q1 -82 91 -82z" />
    <glyph glyph-name="Idotaccent" unicode="&#x130;" horiz-adv-x="600" 
d="M633 1735q-1 -79 -55 -133t-139 -54t-139 54t-54 133q0 80 54 132t139 52t139 -52t55 -132zM399 0h-340l172 1419h340z" />
    <glyph glyph-name="dotlessi" unicode="&#x131;" horiz-adv-x="565" 
d="M365 0h-328l151 1087h328z" />
    <glyph glyph-name="IJ" unicode="&#x132;" horiz-adv-x="1202" 
d="M512 -350l-63 252q129 44 181 116t70 220l146 1181h340l-144 -1173q-30 -250 -150 -383t-380 -213zM399 0h-340l172 1419h340z" />
    <glyph glyph-name="ij" unicode="&#x133;" horiz-adv-x="1112" 
d="M598 117l137 970h328l-137 -958q-35 -242 -154 -375t-356 -209l-84 240q130 47 188 118t78 214zM953 1290q-85 0 -139 52t-54 132t54 133q54 52 139 52t139 -52t55 -132q0 -80 -54 -133q-55 -52 -140 -52zM600 1475q0 -81 -54 -133t-139 -52t-140 52q-54 52 -54 132
t54 133q53 52 139 52t140 -52t54 -132zM365 0h-328l151 1087h328z" />
    <glyph glyph-name="Jcircumflex" unicode="&#x134;" horiz-adv-x="612" 
d="M453 1708l-295 -176l-109 141l322 260h198l262 -266l-133 -135zM-80 -350l-63 252q129 44 181 116t71 220l145 1181h340l-143 -1173q-31 -250 -151 -383t-380 -213z" />
    <glyph glyph-name="jcircumflex" unicode="&#x135;" horiz-adv-x="565" 
d="M51 117l137 970h328l-137 -958q-35 -242 -154 -375t-356 -209l-84 240q131 47 189 118t77 214zM412 1446l-303 -195l-105 140l330 280h198l254 -287l-135 -133z" />
    <glyph glyph-name="uni0136" unicode="&#x136;" horiz-adv-x="1290" 
d="M548 -133q71 0 116 -40q45 -41 45 -107t-62 -171l-129 -211h-162l90 242q-66 47 -66 123t49 120q48 44 119 44zM874 0l-372 762l524 657h363l-527 -649l391 -770h-379zM571 1419l-172 -1419h-340l172 1419h340z" />
    <glyph glyph-name="uni0137" unicode="&#x137;" horiz-adv-x="1191" 
d="M476 -133q71 0 117 -41q46 -42 46 -108t-64 -169l-126 -211h-162l88 242q-63 45 -63 122t46 121q47 44 118 44zM842 807q0 88 -92 88q-156 0 -293 -258l-90 -637h-326l211 1520l334 34l-88 -626q162 197 379 196q131 0 212 -72t80 -186q0 -266 -301 -381l207 -485h-352
l-197 524q170 55 243 125t73 158z" />
    <glyph glyph-name="kgreenlandic" unicode="&#x138;" horiz-adv-x="1130" 
d="M367 0h-326l152 1087h327zM791 582l274 -582h-352l-254 571l399 516h338z" />
    <glyph glyph-name="Lacute" unicode="&#x139;" horiz-adv-x="1040" 
d="M254 1538l-80 170l475 287l117 -250zM915 0h-856l172 1419h340l-141 -1151h553z" />
    <glyph glyph-name="lacute" unicode="&#x13a;" horiz-adv-x="587" 
d="M178 1612l-80 170l475 286l117 -249zM322 -35q-264 0 -265 266q0 39 6 88l168 1201l334 34l-176 -1245q-10 -84 45 -84q26 0 51 8l35 -229q-98 -39 -198 -39z" />
    <glyph glyph-name="uni013B" unicode="&#x13b;" horiz-adv-x="1040" 
d="M270 -297q0 76 48 120t119 44t116 -40q45 -41 45 -107t-61 -171l-129 -211h-162l90 242q-66 47 -66 123zM915 0h-856l172 1419h340l-141 -1151h553z" />
    <glyph glyph-name="uni013C" unicode="&#x13c;" horiz-adv-x="587" 
d="M216 -133q71 0 117 -41q46 -42 46 -108t-64 -169l-127 -211h-161l88 242q-63 45 -63 122t46 121q47 44 118 44zM322 -35q-264 0 -265 266q0 39 6 88l168 1201l334 34l-176 -1245q-10 -84 45 -84q26 0 51 8l35 -229q-98 -39 -198 -39z" />
    <glyph glyph-name="Lcaron" unicode="&#x13d;" horiz-adv-x="1040" 
d="M884 1450q72 0 116 -41t44 -109t-61 -170l-129 -208h-162l90 239q-66 47 -66 123t49 121q48 45 119 45zM915 0h-856l172 1419h340l-141 -1151h553z" />
    <glyph glyph-name="lcaron" unicode="&#x13e;" horiz-adv-x="833" 
d="M845 1710q71 0 116 -41t45 -109t-62 -169l-129 -209h-162l90 239q-65 47 -65 123t48 121t119 45zM334 -35q-264 0 -264 266q0 39 6 88l168 1201l334 34l-177 -1245q-10 -84 45 -84q27 0 52 8l34 -229q-98 -39 -198 -39z" />
    <glyph glyph-name="Ldot" unicode="&#x13f;" horiz-adv-x="1040" 
d="M1020 774q0 -80 -54 -132t-138 -52q-85 0 -139 52t-54 132t54 132t139 52q84 0 138 -52t54 -132zM915 0h-856l172 1419h340l-141 -1151h553z" />
    <glyph glyph-name="ldot" unicode="&#x140;" horiz-adv-x="903" 
d="M936 754q0 -80 -54 -132t-138 -53q-85 1 -139 53t-54 132t54 132t139 52q84 0 138 -52t54 -132zM328 -35q-264 0 -265 266q0 39 7 88l168 1201l333 34l-176 -1245q-10 -84 45 -84q27 0 52 8l34 -229q-98 -39 -198 -39z" />
    <glyph glyph-name="Lslash" unicode="&#x141;" horiz-adv-x="1085" 
d="M961 0h-859l58 463l-94 -53l-89 180l211 121l88 708h340l-61 -499l264 153l90 -176l-385 -223l-51 -408h555z" />
    <glyph glyph-name="lslash" unicode="&#x142;" horiz-adv-x="696" 
d="M383 -35q-262 0 -262 268q0 41 6 86l27 205l-84 -47l-90 182l210 119l105 742l332 34l-80 -575l129 74l90 -185l-256 -145l-59 -414q-10 -84 45 -84q26 0 51 8l35 -229q-98 -39 -199 -39z" />
    <glyph glyph-name="Nacute" unicode="&#x143;" horiz-adv-x="1353" 
d="M625 1538l-80 170l475 287l117 -250zM932 428q0 236 35 526l57 465h301l-172 -1419h-430l-268 1096h-9q2 -25 2 -203t-28 -408l-60 -485h-301l172 1419h420l277 -1097h8q-4 53 -4 106z" />
    <glyph glyph-name="nacute" unicode="&#x144;" horiz-adv-x="1173" 
d="M520 1247l-80 166l480 297l116 -248zM756 786q0 70 -62 70q-104 0 -243 -262l-84 -594h-326l152 1087h284l-12 -202q168 240 383 239q116 0 180 -68t64 -204q0 -51 -9 -100l-104 -752h-326l97 705q6 43 6 81z" />
    <glyph glyph-name="uni0145" unicode="&#x145;" horiz-adv-x="1353" 
d="M587 -133q71 0 115 -40q96 -87 -16 -278l-129 -211h-162l90 242q-65 47 -65 123t48 120t119 44zM932 428q0 236 35 526l57 465h301l-172 -1419h-430l-268 1096h-9q2 -25 2 -203t-28 -408l-60 -485h-301l172 1419h420l277 -1097h8q-4 53 -4 106z" />
    <glyph glyph-name="uni0146" unicode="&#x146;" horiz-adv-x="1173" 
d="M291 -298q0 77 47 121t118 44q70 0 116 -41q46 -42 46 -108t-63 -169l-127 -211h-162l88 242q-63 45 -63 122zM756 786q0 70 -62 70q-104 0 -243 -262l-84 -594h-326l152 1087h284l-12 -202q168 240 383 239q116 0 180 -68t64 -204q0 -51 -9 -100l-104 -752h-326l97 705
q6 43 6 81z" />
    <glyph glyph-name="Ncaron" unicode="&#x147;" horiz-adv-x="1353" 
d="M807 1765l295 174l108 -141l-321 -260h-201l-260 268l133 133zM932 428q0 236 35 526l57 465h301l-172 -1419h-430l-268 1096h-9q2 -25 2 -203t-28 -408l-60 -485h-301l172 1419h420l277 -1097h8q-4 53 -4 106z" />
    <glyph glyph-name="ncaron" unicode="&#x148;" horiz-adv-x="1173" 
d="M715 1477l301 194l104 -137l-329 -283h-199l-256 287l139 133zM756 786q0 70 -62 70q-104 0 -243 -262l-84 -594h-326l152 1087h284l-12 -202q168 240 383 239q116 0 180 -68t64 -204q0 -51 -9 -100l-104 -752h-326l97 705q6 43 6 81z" />
    <glyph glyph-name="napostrophe" unicode="&#x149;" horiz-adv-x="1173" 
d="M100 1634q0 76 48 121t119 45t116 -41t45 -109t-61 -169l-129 -209h-162l90 239q-66 47 -66 123zM756 786q0 70 -62 70q-104 0 -243 -262l-84 -594h-326l152 1087h284l-12 -202q168 240 383 239q116 0 180 -68t64 -204q0 -51 -9 -100l-104 -752h-326l97 705q6 43 6 81z
" />
    <glyph glyph-name="Eng" unicode="&#x14a;" horiz-adv-x="1353" 
d="M932 428q0 236 35 526l57 465h301l-156 -1278q-31 -252 -151 -384t-379 -214l-66 244q98 37 156 86q57 49 88 127h-94l-268 1096h-9q2 -25 2 -203t-28 -408l-60 -485h-301l172 1419h420l277 -1097h8q-4 53 -4 106z" />
    <glyph glyph-name="eng" unicode="&#x14b;" horiz-adv-x="1173" 
d="M756 786q0 70 -62 70q-104 0 -243 -262l-84 -594h-326l152 1087h284l-12 -202q168 240 383 239q116 0 180 -68t64 -204q-1 -51 -9 -100l-82 -574q-41 -274 -154 -415q-114 -140 -362 -218l-82 240q129 47 187 117q57 70 78 215l82 588q6 43 6 81z" />
    <glyph glyph-name="Omacron" unicode="&#x14c;" horiz-adv-x="1411" 
d="M1171 1831l-28 -227h-627l29 227h626zM426 502q0 -138 57 -214t167 -75q286 0 349 462q46 339 -42 455q-55 76 -167 76t-187 -68t-110 -181q-67 -208 -67 -455zM1366 850q0 -351 -170 -606q-84 -127 -225 -203t-322 -76q-266 0 -420 159t-153 447q0 348 169 607
q83 126 224 202t322 76q263 0 419 -160t156 -446z" />
    <glyph glyph-name="omacron" unicode="&#x14d;" horiz-adv-x="1181" 
d="M1036 1573l-28 -227h-627l31 227h624zM631 883q-121 1 -188 -141t-66 -326q0 -111 37 -161q38 -50 122 -50t145 81q105 142 103 384q1 213 -153 213zM643 1124q223 0 349 -128t126 -347q0 -293 -158 -489t-438 -195q-223 0 -351 124t-128 345q1 286 159 488t441 202z" />
    <glyph glyph-name="Obreve" unicode="&#x14e;" horiz-adv-x="1411" 
d="M836 1538q-150 0 -238 94t-88 246l184 33q20 -145 154 -145t192 145l177 -33q-37 -158 -135 -249q-96 -91 -246 -91zM426 502q0 -138 57 -214t167 -75q286 0 349 462q46 339 -42 455q-55 76 -167 76t-187 -68t-110 -181q-67 -208 -67 -455zM1366 850q0 -351 -170 -606
q-84 -127 -225 -203t-322 -76q-266 0 -420 159t-153 447q0 348 169 607q83 126 224 202t322 76q263 0 419 -160t156 -446z" />
    <glyph glyph-name="obreve" unicode="&#x14f;" horiz-adv-x="1181" 
d="M699 1251q-157 -1 -237 105t-81 256l184 30q16 -166 150 -165q135 0 196 165l176 -30q-37 -154 -134 -258t-254 -103zM631 883q-121 1 -188 -141t-66 -326q0 -111 37 -161q38 -50 122 -50t145 81q105 142 103 384q1 213 -153 213zM643 1124q223 0 349 -128t126 -347
q0 -293 -158 -489t-438 -195q-223 0 -351 124t-128 345q1 286 159 488t441 202z" />
    <glyph glyph-name="Ohungarumlaut" unicode="&#x150;" horiz-adv-x="1411" 
d="M1053 1573l-160 80l256 399l207 -106zM696 1575l-161 74l256 403l208 -102zM426 502q0 -138 57 -214t167 -75q286 0 349 462q46 339 -42 455q-55 76 -167 76t-187 -68t-110 -181q-67 -208 -67 -455zM1366 850q0 -351 -170 -606q-84 -127 -225 -203t-322 -76
q-266 0 -420 159t-153 447q0 348 169 607q83 126 224 202t322 76q263 0 419 -160t156 -446z" />
    <glyph glyph-name="ohungarumlaut" unicode="&#x151;" horiz-adv-x="1181" 
d="M862 1280l-160 82l252 405l205 -106zM512 1284l-162 74l250 409l207 -102zM631 883q-121 1 -188 -141t-66 -326q0 -111 37 -161q38 -50 122 -50t145 81q105 142 103 384q1 213 -153 213zM643 1124q223 0 349 -128t126 -347q0 -293 -158 -489t-438 -195q-223 0 -351 124
t-128 345q1 286 159 488t441 202z" />
    <glyph glyph-name="OE" unicode="&#x152;" horiz-adv-x="1902" 
d="M453 500q1 -136 53 -212t154 -75q102 0 173 69q71 70 105 180q62 203 61 425q0 319 -208 319q-98 0 -169 -68t-106 -181q-35 -112 -49 -216q-14 -105 -14 -241zM655 -35q-256 0 -404 159q-149 159 -149 444t107 504q117 242 332 334q117 50 244 50t219 -37h931l-65 -241
h-608q74 -150 75 -338h428l-28 -242h-422q-43 -217 -152 -354h627l-29 -244h-839q-162 -35 -267 -35z" />
    <glyph glyph-name="oe" unicode="&#x153;" horiz-adv-x="1789" 
d="M1339 905q-85 0 -159 -84t-99 -229q197 20 280 74t83 149q0 41 -28 65t-77 25zM631 883q-121 1 -188 -141t-66 -326q0 -111 37 -161q38 -50 112 -50q195 0 246 320q12 75 12 145q1 213 -153 213zM631 1124q229 0 358 -172q172 172 395 172q182 0 284 -82t101 -217
q0 -367 -696 -426q18 -190 182 -190q129 0 261 88l126 -195q-184 -137 -407 -137t-352 170q-150 -170 -368 -170t-345 124t-127 345q0 286 156 488t432 202z" />
    <glyph glyph-name="Racute" unicode="&#x154;" horiz-adv-x="1257" 
d="M543 1538l-80 170l475 287l117 -250zM629 774q125 0 191 62t65 178q0 168 -234 168h-108l-51 -408h137zM1235 1028q0 -152 -88 -268t-246 -168l299 -592h-356l-246 541h-135l-64 -541h-340l172 1419h443q561 0 561 -391z" />
    <glyph glyph-name="racute" unicode="&#x155;" horiz-adv-x="808" 
d="M340 1247l-80 166l479 297l117 -248zM895 1108l-98 -340q-45 16 -88 16q-166 -4 -273 -292l-69 -492h-326l152 1087h284l-16 -247q133 283 334 282q57 0 100 -14z" />
    <glyph glyph-name="uni0156" unicode="&#x156;" horiz-adv-x="1257" 
d="M532 -133q72 0 116 -40q44 -41 44 -107t-61 -171l-129 -211h-162l90 242q-66 47 -66 123t49 120q48 44 119 44zM629 774q125 0 191 62t65 178q0 168 -234 168h-108l-51 -408h137zM1235 1028q0 -152 -88 -268t-246 -168l299 -592h-356l-246 541h-135l-64 -541h-340
l172 1419h443q561 0 561 -391z" />
    <glyph glyph-name="uni0157" unicode="&#x157;" horiz-adv-x="808" 
d="M167 -133q71 0 117 -41q46 -42 46 -108t-64 -169l-127 -211h-162l89 242q-64 45 -64 122t47 121t118 44zM895 1108l-98 -340q-45 16 -88 16q-166 -4 -273 -292l-69 -492h-326l152 1087h284l-16 -247q133 283 334 282q57 0 100 -14z" />
    <glyph glyph-name="Rcaron" unicode="&#x158;" horiz-adv-x="1257" 
d="M745 1765l295 174l109 -141l-322 -260h-200l-260 268l133 133zM629 774q125 0 191 62t65 178q0 168 -234 168h-108l-51 -408h137zM1235 1028q0 -152 -88 -268t-246 -168l299 -592h-356l-246 541h-135l-64 -541h-340l172 1419h443q561 0 561 -391z" />
    <glyph glyph-name="rcaron" unicode="&#x159;" horiz-adv-x="808" 
d="M545 1477l301 194l104 -137l-329 -283h-199l-256 287l139 133zM895 1108l-98 -340q-45 16 -88 16q-166 -4 -273 -292l-69 -492h-326l152 1087h284l-16 -247q133 283 334 282q57 0 100 -14z" />
    <glyph glyph-name="Sacute" unicode="&#x15a;" horiz-adv-x="1159" 
d="M498 1538l-80 170l475 287l117 -250zM1098 434q0 -203 -155 -336t-427 -133q-162 -1 -308 63t-233 156l191 191q166 -152 346 -152q98 0 163 50t65 127t-47 122q-46 45 -173 86q-213 70 -304 172t-91 270t147 287t390 119q303 0 499 -180l-174 -189q-141 123 -317 123
q-90 0 -138 -39t-49 -104q0 -65 47 -105q46 -40 220 -103q348 -126 348 -425z" />
    <glyph glyph-name="sacute" unicode="&#x15b;" horiz-adv-x="997" 
d="M406 1247l-80 166l479 297l117 -248zM430 201q154 0 154 102q0 45 -39 75t-156 71q-303 106 -303 337q0 150 117 242t344 92t407 -143l-141 -186q-131 98 -263 98t-132 -86q0 -37 36 -63t180 -80t214 -130q70 -78 70 -192q0 -164 -126 -268t-358 -105q-135 0 -262 50
t-209 132l164 181q61 -55 145 -91t158 -36z" />
    <glyph glyph-name="Scircumflex" unicode="&#x15c;" horiz-adv-x="1159" 
d="M737 1708l-295 -176l-108 141l321 260h199l262 -266l-133 -135zM1098 434q0 -203 -155 -336t-427 -133q-162 -1 -308 63t-233 156l191 191q166 -152 346 -152q98 0 163 50t65 127t-47 122q-46 45 -173 86q-213 70 -304 172t-91 270t147 287t390 119q303 0 499 -180
l-174 -189q-141 123 -317 123q-90 0 -138 -39t-49 -104q0 -65 47 -105q46 -40 220 -103q348 -126 348 -425z" />
    <glyph glyph-name="scircumflex" unicode="&#x15d;" horiz-adv-x="997" 
d="M621 1446l-304 -195l-104 140l330 280h198l254 -287l-135 -133zM430 201q154 0 154 102q0 45 -39 75t-156 71q-303 106 -303 337q0 150 117 242t344 92t407 -143l-141 -186q-131 98 -263 98t-132 -86q0 -37 36 -63t180 -80t214 -130q70 -78 70 -192q0 -164 -126 -268
t-358 -105q-135 0 -262 50t-209 132l164 181q61 -55 145 -91t158 -36z" />
    <glyph glyph-name="Scedilla" unicode="&#x15e;" horiz-adv-x="1159" 
d="M456 -360q80 0 81 69q0 35 -37 49t-142 15l56 200q-133 17 -250 75t-189 136l191 191q166 -152 346 -152q98 0 163 50t65 127t-47 122q-46 45 -173 86q-213 70 -304 172t-91 270t147 287t390 119q303 0 499 -180l-174 -189q-141 123 -317 123q-90 0 -138 -39t-49 -104
q0 -65 47 -105q46 -40 220 -103q348 -126 348 -425q0 -186 -134 -316t-372 -149l-8 -67q90 -14 140 -66t50 -129q0 -109 -84 -177t-225 -69q-141 0 -256 70l94 150q73 -41 153 -41z" />
    <glyph glyph-name="scedilla" unicode="&#x15f;" horiz-adv-x="997" 
d="M372 -360q80 0 81 69q0 35 -37 49t-142 15l56 200q-223 31 -367 174l164 181q61 -55 145 -91t158 -36q154 0 154 102q0 45 -39 75t-156 71q-303 106 -303 337q0 150 117 242t344 92t407 -143l-141 -186q-131 98 -263 98t-132 -86q0 -37 36 -63t180 -81t214 -131t70 -190
q0 -150 -106 -251t-304 -118l-8 -67q90 -14 140 -66t50 -129q0 -109 -84 -177t-225 -69q-141 0 -256 70l94 150q73 -41 153 -41z" />
    <glyph glyph-name="Scaron" unicode="&#x160;" horiz-adv-x="1159" 
d="M727 1765l295 174l108 -141l-321 -260h-201l-260 268l133 133zM1098 434q0 -203 -155 -336t-427 -133q-162 -1 -308 63t-233 156l191 191q166 -152 346 -152q98 0 163 50t65 127t-47 122q-46 45 -173 86q-213 70 -304 172t-91 270t147 287t390 119q303 0 499 -180
l-174 -189q-141 123 -317 123q-90 0 -138 -39t-49 -104q0 -65 47 -105q46 -40 220 -103q348 -126 348 -425z" />
    <glyph glyph-name="scaron" unicode="&#x161;" horiz-adv-x="997" 
d="M614 1477l301 194l105 -137l-330 -283h-198l-256 287l139 133zM430 201q154 0 154 102q0 45 -39 75t-156 71q-303 106 -303 337q0 150 117 242t344 92t407 -143l-141 -186q-131 98 -263 98t-132 -86q0 -37 36 -63t180 -80t214 -130q70 -78 70 -192q0 -164 -126 -268
t-358 -105q-135 0 -262 50t-209 132l164 181q61 -55 145 -91t158 -36z" />
    <glyph glyph-name="uni0162" unicode="&#x162;" horiz-adv-x="1099" 
d="M510 -360q80 0 80 69q0 35 -37 49t-141 15l63 227h-164l140 1159h-367l33 260h1089l-67 -260h-346l-154 -1257q88 -14 138 -66t50 -129q0 -109 -84 -177t-225 -69q-141 0 -256 70l94 150q74 -41 154 -41z" />
    <glyph glyph-name="uni0163" unicode="&#x163;" horiz-adv-x="788" 
d="M307 -360q90 0 90 69q0 35 -37 49t-141 15l60 219q-158 70 -158 287q0 63 8 122l64 461h-162l30 225h168l72 242l289 33l-37 -275h254l-66 -225h-221l-71 -506q-10 -74 9 -102t72 -27q53 0 127 37l86 -215q-125 -76 -288 -82l-11 -65q90 -14 140 -66t51 -129
q0 -109 -84 -177t-225 -69q-141 0 -256 70l94 150q77 -41 143 -41z" />
    <glyph glyph-name="Tcaron" unicode="&#x164;" horiz-adv-x="1099" 
d="M684 1765l295 174l108 -141l-321 -260h-201l-260 268l133 133zM1139 1159h-346l-142 -1159h-340l140 1159h-367l33 260h1089z" />
    <glyph glyph-name="tcaron" unicode="&#x165;" horiz-adv-x="860" 
d="M702 1579q0 76 48 121t120 45q70 0 115 -41t45 -109t-61 -170l-129 -208h-162l90 239q-66 47 -66 123zM446 -35q-329 0 -329 311q0 27 8 97l68 489h-162l30 225h168l72 242l289 33l-37 -275h254l-66 -225h-221l-71 -506q-10 -74 9 -102t72 -27q53 0 127 37l86 -215
q-133 -84 -297 -84z" />
    <glyph glyph-name="Tbar" unicode="&#x166;" horiz-adv-x="1099" 
d="M989 831l-24 -190h-238l-76 -641h-340l76 641h-233l26 190h232l39 328h-367l33 260h1089l-67 -260h-346l-41 -328h237z" />
    <glyph glyph-name="tbar" unicode="&#x167;" horiz-adv-x="788" 
d="M446 -35q-329 0 -329 311q0 27 8 97l22 162h-147l29 204h147l17 123h-162l30 225h168l72 242l289 33l-37 -275h254l-66 -225h-221l-18 -123h217l-29 -204h-217l-24 -179q-10 -74 9 -102t72 -27q53 0 127 37l86 -215q-133 -84 -297 -84z" />
    <glyph glyph-name="Utilde" unicode="&#x168;" horiz-adv-x="1331" 
d="M911 1585q-73 0 -141 43t-96 43t-50 -19t-57 -67l-153 78q121 240 291 240q73 0 141 -43t90 -43q55 0 113 86l153 -78q-121 -240 -291 -240zM618 -35q-258 0 -391 120t-133 337q0 45 6 98l111 899h340l-113 -923q-6 -43 -6 -78q0 -201 191 -201q215 0 245 266l115 936
h342l-117 -942q-32 -244 -182 -378t-408 -134z" />
    <glyph glyph-name="utilde" unicode="&#x169;" horiz-adv-x="1161" 
d="M797 1296q-74 0 -142 44q-67 44 -95 44t-50 -19t-57 -67l-154 78q121 240 293 240q74 0 140 -43t94 -43q52 0 110 86l154 -78q-123 -242 -293 -242zM479 229q104 0 205 177l98 681h328l-154 -1087h-284l4 160q-139 -195 -338 -195q-127 0 -196 75t-68 224q0 57 8 109
l100 714h328l-100 -716q-12 -80 5 -111t64 -31z" />
    <glyph glyph-name="Umacron" unicode="&#x16a;" horiz-adv-x="1331" 
d="M1130 1831l-28 -227h-627l29 227h626zM618 -35q-258 0 -391 120t-133 337q0 45 6 98l111 899h340l-113 -923q-6 -43 -6 -78q0 -201 191 -201q215 0 245 266l115 936h342l-117 -942q-32 -244 -182 -378t-408 -134z" />
    <glyph glyph-name="umacron" unicode="&#x16b;" horiz-adv-x="1161" 
d="M1020 1573l-29 -227h-626l30 227h625zM479 229q104 0 205 177l98 681h328l-154 -1087h-284l4 160q-139 -195 -338 -195q-127 0 -196 75t-68 224q0 57 8 109l100 714h328l-100 -716q-12 -80 5 -111t64 -31z" />
    <glyph glyph-name="Ubreve" unicode="&#x16c;" horiz-adv-x="1331" 
d="M794 1538q-150 0 -237 94q-88 94 -88 246l184 33q19 -145 153 -145t193 145l177 -33q-36 -158 -134 -249t-248 -91zM618 -35q-258 0 -391 120t-133 337q0 45 6 98l111 899h340l-113 -923q-6 -43 -6 -78q0 -201 191 -201q215 0 245 266l115 936h342l-117 -942
q-32 -244 -182 -378t-408 -134z" />
    <glyph glyph-name="ubreve" unicode="&#x16d;" horiz-adv-x="1161" 
d="M683 1251q-157 -1 -238 105t-80 256l184 30q16 -166 149 -165q135 0 197 165l176 -30q-37 -154 -134 -258t-254 -103zM479 229q104 0 205 177l98 681h328l-154 -1087h-284l4 160q-139 -195 -338 -195q-127 0 -196 75t-68 224q0 57 8 109l100 714h328l-100 -716
q-12 -80 5 -111t64 -31z" />
    <glyph glyph-name="Uring" unicode="&#x16e;" horiz-adv-x="1331" 
d="M801 1511q-127 0 -202 70q-75 71 -75 187t85 200t211 84t202 -69t76 -187t-85 -201q-85 -84 -212 -84zM807 1681q43 0 71 32t28 78q-1 95 -90 93q-42 0 -71 -32t-29 -79t24 -69t67 -23zM618 -35q-258 0 -391 120t-133 337q0 45 6 98l111 899h340l-113 -923q-6 -43 -6 -78
q0 -201 191 -201q215 0 245 266l115 936h342l-117 -942q-32 -244 -182 -378t-408 -134z" />
    <glyph glyph-name="uring" unicode="&#x16f;" horiz-adv-x="1161" 
d="M688 1231q-127 0 -202 71q-74 72 -74 188t85 200t211 84t202 -70t77 -186q0 -116 -86 -202q-86 -85 -213 -85zM692 1401q45 0 73 32t28 78q0 45 -24 69q-23 24 -65 24t-70 -32t-28 -87q0 -84 86 -84zM479 229q104 0 205 177l98 681h328l-154 -1087h-284l4 160
q-139 -195 -338 -195q-127 0 -196 75t-68 224q0 57 8 109l100 714h328l-100 -716q-12 -80 5 -111t64 -31z" />
    <glyph glyph-name="Uhungarumlaut" unicode="&#x170;" horiz-adv-x="1331" 
d="M985 1573l-160 80l256 399l207 -106zM629 1575l-162 74l256 403l209 -102zM618 -35q-258 0 -391 120t-133 337q0 45 6 98l111 899h340l-113 -923q-6 -43 -6 -78q0 -201 191 -201q215 0 245 266l115 936h342l-117 -942q-32 -244 -182 -378t-408 -134z" />
    <glyph glyph-name="uhungarumlaut" unicode="&#x171;" horiz-adv-x="1161" 
d="M842 1280l-160 82l252 405l205 -106zM492 1284l-162 74l250 409l206 -102zM479 229q104 0 205 177l98 681h328l-154 -1087h-284l4 160q-139 -195 -338 -195q-127 0 -196 75t-68 224q0 57 8 109l100 714h328l-100 -716q-12 -80 5 -111t64 -31z" />
    <glyph glyph-name="Uogonek" unicode="&#x172;" horiz-adv-x="1331" 
d="M631 -262q0 -82 88 -82t145 31l54 -162q-127 -53 -249 -53t-195 58t-73 155q0 166 189 280q-244 6 -370 127t-126 332q0 47 6 96l111 899h340l-113 -923q-6 -43 -6 -78q0 -201 191 -201q215 0 245 266l115 936h342l-117 -942q-47 -377 -360 -479q-217 -115 -217 -260z
" />
    <glyph glyph-name="uogonek" unicode="&#x173;" horiz-adv-x="1161" 
d="M338 -35q-127 0 -196 75t-68 224q0 57 8 109l100 714h328l-100 -716q-12 -80 5 -111t64 -31q104 0 205 177l98 681h328l-154 -1087q-219 -117 -219 -262q1 -82 89 -82t145 31l53 -162q-123 -53 -247 -53q-123 0 -195 57t-72 156q0 192 250 315h-88l4 160
q-139 -195 -338 -195z" />
    <glyph glyph-name="Wcircumflex" unicode="&#x174;" horiz-adv-x="1730" 
d="M1008 1708l-295 -176l-109 141l322 260h198l262 -266l-133 -135zM1819 1419l-410 -1419h-442l-45 1049h-9l-307 -1049h-432l-57 1419h332l-3 -1149h9l329 1149h357l43 -1147h8l295 1147h332z" />
    <glyph glyph-name="wcircumflex" unicode="&#x175;" horiz-adv-x="1533" 
d="M891 1446l-303 -195l-105 140l330 280h199l254 -287l-136 -133zM1602 1087l-381 -1087h-392l-30 788h-8l-254 -788h-385l-78 1087h325l-8 -833h8l285 833h317l31 -829h8l242 829h320z" />
    <glyph glyph-name="Ycircumflex" unicode="&#x176;" horiz-adv-x="1210" 
d="M750 1708l-295 -176l-109 141l322 260h198l262 -266l-133 -135zM1331 1419l-563 -887l-63 -532h-343l66 530l-346 889h360l179 -612h8l332 612h370z" />
    <glyph glyph-name="ycircumflex" unicode="&#x177;" horiz-adv-x="1042" 
d="M655 1446l-303 -195l-104 140l330 280h198l254 -287l-135 -133zM250 0l-195 1087h338l82 -862h8l297 862h344l-452 -1075q-94 -223 -262 -339t-441 -128l-12 234q172 18 260 68t139 153h-106z" />
    <glyph glyph-name="Ydieresis" unicode="&#x178;" horiz-adv-x="1210" 
d="M984 1548q-71 0 -121 49t-50 118t50 117t121 48t120 -48t49 -118t-49 -118t-120 -48zM509 1548q-71 0 -121 49t-50 118t50 117t121 48t120 -48t49 -118t-49 -118t-120 -48zM1331 1419l-563 -887l-63 -532h-343l66 530l-346 889h360l179 -612h8l332 612h370z" />
    <glyph glyph-name="Zacute" unicode="&#x179;" horiz-adv-x="1105" 
d="M532 1538l-79 170l475 287l116 -250zM1116 1163l-729 -893h629l-66 -270h-991l29 254l743 903h-569l33 262h952z" />
    <glyph glyph-name="zacute" unicode="&#x17a;" horiz-adv-x="931" 
d="M385 1247l-80 166l479 297l117 -248zM928 854l-557 -606h481l-64 -248h-849l30 233l566 609h-437l37 245h826z" />
    <glyph glyph-name="Zdotaccent" unicode="&#x17b;" horiz-adv-x="1105" 
d="M913 1735q0 -79 -54 -133t-139 -54t-139 54t-55 133q0 80 54 132t140 52q85 0 139 -52t54 -132zM1116 1163l-729 -893h629l-66 -270h-991l29 254l743 903h-569l33 262h952z" />
    <glyph glyph-name="zdotaccent" unicode="&#x17c;" horiz-adv-x="931" 
d="M603 1290q-85 0 -139 52t-54 132t54 133q54 52 139 52t138 -52t53 -132q0 -81 -52 -133q-54 -52 -139 -52zM928 854l-557 -606h481l-64 -248h-849l30 233l566 609h-437l37 245h826z" />
    <glyph glyph-name="Zcaron" unicode="&#x17d;" horiz-adv-x="1105" 
d="M717 1765l295 174l108 -141l-321 -260h-201l-260 268l133 133zM1116 1163l-729 -893h629l-66 -270h-991l29 254l743 903h-569l33 262h952z" />
    <glyph glyph-name="zcaron" unicode="&#x17e;" horiz-adv-x="931" 
d="M598 1477l301 194l105 -137l-330 -283h-199l-256 287l139 133zM928 854l-557 -606h481l-64 -248h-849l30 233l566 609h-437l37 245h826z" />
    <glyph glyph-name="florin" unicode="&#x192;" horiz-adv-x="737" 
d="M111 117l94 743h-166l27 227h167l11 93q41 375 422 374q180 0 338 -96l-111 -201q-99 55 -173 55t-108 -32q-34 -33 -43 -113l-10 -80h258l-63 -227h-222l-94 -731q-30 -242 -146 -375t-349 -209l-86 238q127 47 183 118t71 216z" />
    <glyph glyph-name="AEacute" unicode="&#x1fc;" horiz-adv-x="1710" 
d="M954 1538l-80 170l476 287l116 -250zM776 1149l-278 -598h321l-33 598h-10zM848 0l-19 305h-438l-139 -305h-373l733 1419h1080l-66 -241h-551l27 -338h500l-29 -242h-455l31 -354h471l-29 -244h-743z" />
    <glyph glyph-name="aeacute" unicode="&#x1fd;" horiz-adv-x="1687" 
d="M864 1247l-80 166l480 297l116 -248zM618 467q-152 0 -214 -42t-62 -130q0 -96 117 -96q57 0 119 39t96 94q-6 66 6 135h-62zM1239 905q-86 0 -160 -84t-98 -229q197 20 279 74t81 149q0 41 -26 66q-27 24 -76 24zM568 1124q284 0 337 -166q143 166 379 166
q180 0 282 -81t103 -218q0 -367 -696 -426q18 -193 182 -192q123 0 258 90l127 -193q-178 -139 -414 -139q-274 0 -393 185q-139 -184 -395 -185q-170 0 -255 82t-85 219q0 188 149 289q150 100 422 100h129l9 68q10 82 -29 121t-151 39t-289 -58l-45 217q229 82 375 82z
" />
    <glyph glyph-name="Oslashacute" unicode="&#x1fe;" horiz-adv-x="1411" 
d="M578 1585l-80 170l475 287l117 -250zM655 213q281 0 352 463q15 104 15 225t-51 195l-367 -879q31 -4 51 -4zM784 1206q-86 0 -152 -47q-117 -83 -172 -287q-44 -159 -44 -320t51 -235l373 885q-37 4 -56 4zM649 -35q-51 0 -108 10l-109 -254l-250 68l121 270
q-227 158 -227 509t169 610q83 126 224 202t322 76q18 0 110 -10l107 250l249 -68l-118 -272q227 -156 227 -506t-170 -606q-84 -127 -225 -203t-322 -76z" />
    <glyph glyph-name="oslashacute" unicode="&#x1ff;" horiz-adv-x="1191" 
d="M451 1262l-80 165l479 297l117 -247zM801 659q0 72 -25 115l-262 -567q8 -2 41 -2q113 2 179 143t67 311zM637 883q-127 -1 -197 -141t-69 -316q0 -86 26 -125l269 580q-15 2 -29 2zM649 1124q47 0 80 -8l113 242l229 -70l-119 -252q176 -133 176 -387q0 -291 -160 -487
t-442 -197q-43 0 -80 6l-114 -252l-232 70l121 260q-178 123 -178 397q1 274 161 476t445 202z" />
    <glyph glyph-name="uni0218" unicode="&#x218;" horiz-adv-x="1159" 
d="M470 -133q71 0 117 -41q46 -42 46 -108t-64 -169l-127 -211h-161l88 242q-63 45 -63 122t46 121q47 44 118 44zM1098 434q0 -203 -155 -336t-427 -133q-162 -1 -308 63t-233 156l191 191q166 -152 346 -152q98 0 163 50t65 127t-47 122q-46 45 -173 86q-213 70 -304 172
t-91 270t147 287t390 119q303 0 499 -180l-174 -189q-141 123 -317 123q-90 0 -138 -39t-49 -104q0 -65 47 -105q46 -40 220 -103q348 -126 348 -425z" />
    <glyph glyph-name="uni0219" unicode="&#x219;" horiz-adv-x="997" 
d="M386 -133q71 0 117 -41q46 -42 46 -108t-64 -169l-127 -211h-161l88 242q-63 45 -63 122t46 121q47 44 118 44zM430 201q154 0 154 102q0 45 -39 75t-156 71q-303 106 -303 337q0 150 117 242t344 92t407 -143l-141 -186q-131 98 -263 98t-132 -86q0 -37 36 -63t180 -80
t214 -130q70 -78 70 -192q0 -164 -126 -268t-358 -105q-135 0 -262 50t-209 132l164 181q61 -55 145 -91t158 -36z" />
    <glyph glyph-name="uni021A" unicode="&#x21a;" horiz-adv-x="1099" 
d="M276 -297q0 76 48 120t120 44q70 0 115 -40q45 -41 45 -107t-61 -171l-129 -211h-162l90 242q-66 47 -66 123zM1139 1159h-346l-142 -1159h-340l140 1159h-367l33 260h1089z" />
    <glyph glyph-name="uni021B" unicode="&#x21b;" horiz-adv-x="788" 
d="M337 -133q71 0 117 -41q46 -42 46 -108t-64 -169l-127 -211h-162l89 242q-64 45 -64 122t47 121t118 44zM446 -35q-329 0 -329 311q0 27 8 97l68 489h-162l30 225h168l72 242l289 33l-37 -275h254l-66 -225h-221l-71 -506q-10 -74 9 -102t72 -27q53 0 127 37l86 -215
q-133 -84 -297 -84z" />
    <glyph glyph-name="dotlessj" unicode="&#x237;" horiz-adv-x="565" 
d="M51 117l137 970h328l-137 -958q-35 -242 -154 -375t-356 -209l-84 240q131 47 189 118t77 214z" />
    <glyph glyph-name="circumflex" unicode="&#x2c6;" horiz-adv-x="905" 
d="M469 1446l-303 -195l-105 140l330 280h199l254 -287l-135 -133z" />
    <glyph glyph-name="caron" unicode="&#x2c7;" horiz-adv-x="907" 
d="M440 1477l301 194l105 -137l-330 -283h-199l-256 287l140 133z" />
    <glyph glyph-name="uni02C9" unicode="&#x2c9;" horiz-adv-x="772" 
d="M711 1602l-23 -228h-627l23 228h627z" />
    <glyph glyph-name="breve" unicode="&#x2d8;" horiz-adv-x="829" 
d="M380 1251q-157 -1 -238 105t-81 256l185 30q16 -166 149 -165q135 0 197 165l176 -30q-37 -154 -134 -258t-254 -103z" />
    <glyph glyph-name="dotaccent" unicode="&#x2d9;" horiz-adv-x="507" 
d="M446 1475q0 -81 -53 -133t-138 -52t-139 52t-54 132t54 133q54 52 139 52t138 -52t53 -132z" />
    <glyph glyph-name="ring" unicode="&#x2da;" horiz-adv-x="698" 
d="M338 1231q-127 0 -202 71q-75 72 -75 188t85 200q86 84 212 84t202 -70t77 -186q0 -116 -86 -202q-86 -85 -213 -85zM342 1401q45 0 73 32q27 32 27 78q0 45 -24 69t-65 24t-69 -32t-28 -87q0 -84 86 -84z" />
    <glyph glyph-name="ogonek" unicode="&#x2db;" horiz-adv-x="636" 
d="M289 -262q0 -82 90 -82t143 31l53 -162q-123 -53 -247 -53t-195 57q-72 57 -72 165q1 108 105 208t303 155l41 -57q-221 -117 -221 -262z" />
    <glyph glyph-name="tilde" unicode="&#x2dc;" horiz-adv-x="913" 
d="M559 1296q-73 0 -141 44t-96 44t-50 -19q-23 -19 -57 -67l-154 78q121 240 293 240q74 0 141 -43t95 -43q51 0 108 86l154 -78q-123 -242 -293 -242z" />
    <glyph glyph-name="hungarumlaut" unicode="&#x2dd;" horiz-adv-x="931" 
d="M573 1280l-159 82l252 405l204 -106zM223 1284l-162 74l250 409l207 -102z" />
    <glyph glyph-name="gravecomb" unicode="&#x300;" horiz-adv-x="0" 
d="M6 1415l-82 -166l-514 215l117 250z" />
    <glyph glyph-name="acutecomb" unicode="&#x301;" horiz-adv-x="0" 
d="M-512 1247l-80 166l479 297l117 -248z" />
    <glyph glyph-name="uni0302" unicode="&#x302;" horiz-adv-x="0" 
d="M-377 1446l-303 -195l-104 140l329 280h199l254 -287l-135 -133z" />
    <glyph glyph-name="tildecomb" unicode="&#x303;" horiz-adv-x="0" 
d="M-266 1296q-74 0 -142 44t-96 44t-50 -19t-56 -67l-154 78q121 240 293 240q75 0 141 -43t94 -43q52 0 109 86l154 -78q-123 -242 -293 -242z" />
    <glyph glyph-name="uni0304" unicode="&#x304;" horiz-adv-x="0" 
d="M20 1573l-28 -227h-627l31 227h624z" />
    <glyph glyph-name="uni0306" unicode="&#x306;" horiz-adv-x="0" 
d="M-353 1251q-157 -1 -238 105t-81 256l185 30q16 -166 149 -165q135 0 197 165l176 -30q-37 -154 -134 -258t-254 -103z" />
    <glyph glyph-name="uni0307" unicode="&#x307;" horiz-adv-x="0" 
d="M-239 1290q-85 0 -139 52t-54 132t54 133q54 52 139 52t139 -52t53 -132q0 -80 -53 -133q-54 -52 -139 -52z" />
    <glyph glyph-name="uni0308" unicode="&#x308;" horiz-adv-x="0" 
d="M-135 1305q-72 0 -121 48q-49 47 -49 117t49 117t121 47t120 -47t48 -117t-48 -118t-120 -47zM-459 1470q0 -70 -49 -118t-120 -47q-71 0 -121 48q-50 49 -50 117t50 116t121 48t120 -47t49 -117z" />
    <glyph glyph-name="uni030A" unicode="&#x30a;" horiz-adv-x="0" 
d="M-324 1231q-128 0 -202 71q-74 72 -74 188t85 200t211 84t203 -70t77 -186t-87 -202q-86 -85 -213 -85zM-319 1401q45 0 73 32t27 78q0 45 -24 69q-23 24 -65 24t-70 -32t-28 -87q1 -84 87 -84z" />
    <glyph glyph-name="uni030B" unicode="&#x30b;" horiz-adv-x="0" 
d="M-233 1280l-160 82l252 405l204 -106zM-584 1284l-161 74l249 409l207 -102z" />
    <glyph glyph-name="uni030C" unicode="&#x30c;" horiz-adv-x="0" 
d="M-379 1477l301 194l105 -137l-330 -283h-199l-256 287l140 133z" />
    <glyph glyph-name="uni0312" unicode="&#x312;" horiz-adv-x="0" 
d="M-458 1264q-72 0 -116 41t-44 107t61 169l129 211h162l-90 -240q66 -49 66 -124q0 -76 -49 -120q-48 -44 -119 -44z" />
    <glyph glyph-name="uni0313" unicode="&#x313;" horiz-adv-x="0" 
d="M-590 1634q0 76 48 121t119 45t116 -41t45 -109t-62 -169l-129 -209h-161l90 239q-66 47 -66 123z" />
    <glyph glyph-name="uni0326" unicode="&#x326;" horiz-adv-x="0" 
d="M-1044 -298q0 77 47 121t117 44t117 -41q46 -42 46 -108t-63 -169l-127 -211h-162l88 242q-63 45 -63 122z" />
    <glyph glyph-name="uni0327" unicode="&#x327;" horiz-adv-x="0" 
d="M-700 -360q79 0 79 69q0 35 -36 49q-37 14 -142 15l72 260h172l-16 -131q90 -14 140 -66t50 -129q0 -109 -85 -177t-224 -69q-139 0 -258 70l96 150q73 -41 152 -41z" />
    <glyph glyph-name="uni0328" unicode="&#x328;" horiz-adv-x="0" 
d="M-680 -262q0 -82 90 -82t144 31l53 -162q-123 -53 -247 -53t-196 57t-72 165t105 208q104 100 303 155l41 -57q-221 -117 -221 -262z" />
    <glyph glyph-name="uni0335" unicode="&#x335;" horiz-adv-x="2" 
d="M-10 770l-25 -192h-813l25 192h813z" />
    <glyph glyph-name="uni0336" unicode="&#x336;" horiz-adv-x="0" 
d="M-27 770l-24 -192h-1364l24 192h1364z" />
    <glyph glyph-name="tonos" unicode="&#x384;" horiz-adv-x="0" 
d="M-35 1198l-229 35l149 516l332 -63z" />
    <glyph glyph-name="dieresistonos" unicode="&#x385;" horiz-adv-x="0" 
d="M-397 1511l-230 35l133 455l322 -64zM-214 1245q-69 0 -117 46t-48 113t48 113t117 46t116 -46t47 -113t-47 -113t-116 -46zM-769 1245q-69 0 -117 46t-48 113t48 113t117 46t116 -46t47 -113t-47 -113t-116 -46z" />
    <glyph glyph-name="Alphatonos" unicode="&#x386;" horiz-adv-x="1316" 
d="M268 965l-227 47l168 463l332 -58zM778 1151l-221 -600h303l-74 600h-8zM922 0l-37 305h-412l-111 -305h-366l610 1419h412l260 -1419h-356z" />
    <glyph glyph-name="Epsilontonos" unicode="&#x388;" horiz-adv-x="1380" 
d="M227 965l-227 47l168 463l332 -58zM1350 1178h-500l-41 -338h436l-28 -238h-437l-43 -356h533l-29 -246h-872l172 1419h874z" />
    <glyph glyph-name="Etatonos" unicode="&#x389;" horiz-adv-x="1662" 
d="M227 965l-227 47l168 463l332 -58zM1462 0h-340l74 606h-416l-71 -606h-340l172 1419h340l-68 -549h416l67 549h340z" />
    <glyph glyph-name="Iotatonos" unicode="&#x38a;" horiz-adv-x="907" 
d="M227 965l-227 47l168 463l332 -58zM707 0h-340l172 1419h340z" />
    <glyph glyph-name="Omicrontonos" unicode="&#x38c;" horiz-adv-x="1593" 
d="M227 965l-227 47l168 463l332 -58zM834 213q110 0 186 68q76 67 112 179q64 198 64 397q0 197 -56 273t-168 76t-187 -68q-75 -69 -110 -181q-67 -203 -67 -455q0 -138 58 -214t168 -75zM1548 850q0 -351 -170 -606q-84 -127 -225 -203t-322 -76q-265 0 -419 159
t-154 447q0 348 169 607q83 126 224 202t322 76q263 0 419 -160t156 -446z" />
    <glyph glyph-name="Upsilontonos" unicode="&#x38e;" horiz-adv-x="1636" 
d="M211 965l-227 47l168 463l331 -58zM1757 1419l-563 -887l-64 -532h-342l66 530l-346 889h360l179 -612h8l331 612h371z" />
    <glyph glyph-name="Omegatonos" unicode="&#x38f;" horiz-adv-x="1622" 
d="M236 965l-228 47l168 463l332 -58zM289 692q0 195 80 367q81 173 245 285t381 112q262 0 419 -157t157 -418q0 -217 -93 -386t-247 -243l-2 -8h223l-29 -244h-514l31 231q121 33 200 201t79 449q-1 178 -59 252t-171 73q-174 0 -265 -173t-91 -449t153 -353l-28 -231
h-514l28 244h238l2 8q-104 72 -164 190t-59 250z" />
    <glyph glyph-name="iotadieresistonos" unicode="&#x390;" horiz-adv-x="559" 
d="M475 1511l-229 35l133 455l321 -64zM658 1245q-68 0 -116 46t-48 113t48 113t116 46t116 -46q47 -46 47 -113t-47 -113t-116 -46zM103 1245q-69 0 -117 46t-47 113q0 67 48 113q49 46 117 46t115 -46t47 -113t-47 -113t-116 -46zM70 270q0 37 6 80l104 737h330l-98 -700
q-6 -47 -6 -82t16 -57t57 -37l-63 -246q-346 31 -346 305z" />
    <glyph glyph-name="Alpha" unicode="&#x391;" horiz-adv-x="1218" 
d="M678 1151l-221 -600h303l-74 600h-8zM821 0l-37 305h-411l-111 -305h-366l610 1419h412l260 -1419h-357z" />
    <glyph glyph-name="Beta" unicode="&#x392;" horiz-adv-x="1269" 
d="M1192 449q0 -211 -160 -330t-481 -119h-492l172 1419h451q260 0 392 -87t132 -242q0 -119 -78 -212t-213 -124l-2 -9q131 -29 205 -108t74 -188zM631 854q111 0 170 51t59 144q0 131 -203 131h-114l-41 -326h129zM561 248q281 0 281 213q0 168 -213 168h-154l-47 -381
h133z" />
    <glyph glyph-name="Gamma" unicode="&#x393;" horiz-adv-x="1026" 
d="M231 1419h902l-66 -266h-528l-140 -1153h-340z" />
    <glyph glyph-name="uni0394" unicode="&#x394;" horiz-adv-x="1218" 
d="M1178 0h-1282l610 1419h412zM686 1151h-8l-336 -901h457z" />
    <glyph glyph-name="Epsilon" unicode="&#x395;" horiz-adv-x="1073" 
d="M1040 1178h-499l-41 -338h436l-29 -238h-436l-43 -356h533l-29 -246h-873l172 1419h875z" />
    <glyph glyph-name="Zeta" unicode="&#x396;" horiz-adv-x="1105" 
d="M1116 1163l-729 -893h629l-66 -270h-991l29 254l743 903h-569l33 262h952z" />
    <glyph glyph-name="Eta" unicode="&#x397;" horiz-adv-x="1353" 
d="M1153 0h-340l74 606h-416l-72 -606h-340l172 1419h340l-67 -549h416l67 549h340z" />
    <glyph glyph-name="Theta" unicode="&#x398;" horiz-adv-x="1411" 
d="M649 213q117 0 196 69q79 70 116 180q69 206 69 399t-61 269t-185 76q-88 0 -158 -48t-109 -119t-73 -196t-34 -302t61 -253t178 -75zM1366 850q0 -351 -170 -606q-84 -127 -225 -203t-322 -76q-266 0 -420 159t-153 447q0 348 169 607q83 126 224 202t322 76
q263 0 419 -160t156 -446zM938 819l-23 -190h-413l22 190h414z" />
    <glyph glyph-name="Iota" unicode="&#x399;" horiz-adv-x="600" 
d="M399 0h-340l172 1419h340z" />
    <glyph glyph-name="Kappa" unicode="&#x39a;" horiz-adv-x="1290" 
d="M874 0l-372 762l524 657h363l-527 -649l391 -770h-379zM571 1419l-172 -1419h-340l172 1419h340z" />
    <glyph glyph-name="Lambda" unicode="&#x39b;" horiz-adv-x="1204" 
d="M807 0l-127 1151h-10l-408 -1151h-366l604 1419h411l254 -1419h-358z" />
    <glyph glyph-name="Mu" unicode="&#x39c;" horiz-adv-x="1615" 
d="M483 1124h-8q-4 -238 -61 -573l-92 -551h-334l282 1419h424l90 -966h9l321 966h434l-67 -1419h-334l39 549q20 309 71 575h-8l-334 -979h-325z" />
    <glyph glyph-name="Nu" unicode="&#x39d;" horiz-adv-x="1353" 
d="M932 428q0 236 35 526l57 465h301l-172 -1419h-430l-268 1096h-9q2 -25 2 -203t-28 -408l-60 -485h-301l172 1419h420l277 -1097h8q-4 53 -4 106z" />
    <glyph glyph-name="Xi" unicode="&#x39e;" horiz-adv-x="1091" 
d="M233 848h695l-33 -254h-692zM176 1419h957l-72 -270h-918zM950 0h-948l35 279h946z" />
    <glyph glyph-name="Omicron" unicode="&#x39f;" horiz-adv-x="1411" 
d="M426 502q0 -138 57 -214t167 -75q286 0 349 462q46 339 -42 455q-55 76 -167 76t-187 -68t-110 -181q-67 -208 -67 -455zM1366 850q0 -351 -170 -606q-84 -127 -225 -203t-322 -76q-266 0 -420 159t-153 447q0 348 169 607q83 126 224 202t322 76q263 0 419 -160
t156 -446z" />
    <glyph glyph-name="Pi" unicode="&#x3a0;" horiz-adv-x="1361" 
d="M1157 0h-340l141 1159h-413l-142 -1159h-340l173 1419h1095z" />
    <glyph glyph-name="Rho" unicode="&#x3a1;" horiz-adv-x="1228" 
d="M1235 1008q0 -244 -166 -390t-444 -147h-170l-56 -471h-340l172 1419h435q281 0 425 -109t144 -302zM614 717q123 0 197 76t74 204q0 180 -246 181h-98l-56 -461h129z" />
    <glyph glyph-name="Sigma" unicode="&#x3a3;" horiz-adv-x="1058" 
d="M778 760l-16 -133l-391 -375h587l-28 -252h-944l28 246l469 469l-356 459l31 245h944l-29 -245h-606z" />
    <glyph glyph-name="Tau" unicode="&#x3a4;" horiz-adv-x="1099" 
d="M1139 1159h-346l-142 -1159h-340l140 1159h-367l33 260h1089z" />
    <glyph glyph-name="Upsilon" unicode="&#x3a5;" horiz-adv-x="1210" 
d="M1331 1419l-563 -887l-63 -532h-343l66 530l-346 889h360l179 -612h8l332 612h370z" />
    <glyph glyph-name="Phi" unicode="&#x3a6;" horiz-adv-x="1730" 
d="M1372 784q0 262 -299 279l-86 -701q182 12 284 122q101 110 101 300zM389 645q0 -264 297 -289l86 703q-383 -23 -383 -414zM43 639q0 276 190 443t549 184l21 153h330l-21 -155q295 -14 450 -136t154 -340q0 -276 -198 -446t-541 -184l-19 -158h-329l16 158
q-293 12 -447 137t-155 344z" />
    <glyph glyph-name="Chi" unicode="&#x3a7;" horiz-adv-x="1200" 
d="M410 754l-291 665h356l150 -442h8l270 442h371l-463 -651l326 -768h-359l-182 526h-8l-301 -526h-373z" />
    <glyph glyph-name="Psi" unicode="&#x3a8;" horiz-adv-x="1505" 
d="M78 846q0 43 6 88l59 485h326l-61 -499q-4 -27 -5 -74q1 -98 47 -152t150 -73l98 798h314l-101 -798q129 23 189 88q59 66 74 184l65 526h326l-64 -516q-55 -467 -606 -522l-45 -381h-338l47 385q-481 66 -481 461z" />
    <glyph glyph-name="uni03A9" unicode="&#x3a9;" horiz-adv-x="1437" 
d="M102 692q0 195 80 367q80 173 245 285t382 112q262 0 419 -157t156 -418q0 -217 -93 -386t-247 -243l-2 -8h224l-29 -244h-514l31 231q121 33 199 201q79 168 79 449q0 178 -58 252t-171 73q-174 0 -265 -173t-92 -466q0 -260 154 -336l-29 -231h-514l29 244h238l2 8
q-104 72 -164 190t-60 250z" />
    <glyph glyph-name="Iotadieresis" unicode="&#x3aa;" horiz-adv-x="600" 
d="M677 1548q-71 0 -121 49t-50 118t50 117t121 48t120 -48t49 -118t-49 -118t-120 -48zM202 1548q-71 0 -121 49t-50 118t50 117t121 48t120 -48t49 -118t-49 -118t-120 -48zM399 0h-340l172 1419h340z" />
    <glyph glyph-name="Upsilondieresis" unicode="&#x3ab;" horiz-adv-x="1210" 
d="M982 1548q-71 0 -121 49t-50 118t50 117t121 48t120 -48t49 -118t-49 -118t-120 -48zM507 1548q-71 0 -121 49t-50 118t50 117t121 48t120 -48t49 -118t-49 -118t-120 -48zM1331 1419l-563 -887l-63 -532h-343l66 530l-346 889h360l179 -612h8l332 612h370z" />
    <glyph glyph-name="alphatonos" unicode="&#x3ac;" horiz-adv-x="1204" 
d="M743 1198l-229 35l150 516l331 -63zM373 420q1 -106 33 -162t90 -55q58 -1 113 73q56 74 118 265q-8 344 -145 344q-84 0 -146 -128t-63 -337zM401 -35q-162 0 -259 120t-97 333q0 315 151 511t359 195q268 0 340 -280h4q2 -2 4 -2l86 266l258 -74l-260 -481l51 -227
q12 -53 32 -77t65 -38l-105 -246q-180 27 -211 189l-22 112l-6 2q-129 -303 -390 -303z" />
    <glyph glyph-name="epsilontonos" unicode="&#x3ad;" horiz-adv-x="976" 
d="M547 455q-188 0 -189 -138q0 -117 148 -117t305 109l121 -184q-228 -160 -460 -160t-346 85t-114 235q0 115 83 193t237 97l2 9q-96 31 -150 96q-53 66 -53 143q0 135 110 218t304 83q258 0 440 -149l-149 -162q-109 88 -242 88q-66 0 -102 -30t-35 -78q0 -129 168 -129
h104l-63 -209h-119zM696 1198l-229 35l149 516l332 -63z" />
    <glyph glyph-name="etatonos" unicode="&#x3ae;" horiz-adv-x="1185" 
d="M750 1198l-230 35l150 516l331 -63zM856 1124q115 0 178 -68t64 -204q0 -51 -8 -100l-162 -1172l-330 -35l158 1160q6 47 6 83q0 68 -60 68q-106 0 -243 -260l-84 -596h-326l64 475q33 245 33 353t-21 245l315 39q33 -119 21 -246q164 258 395 258z" />
    <glyph glyph-name="iotatonos" unicode="&#x3af;" horiz-adv-x="559" 
d="M436 1198l-229 35l149 516l332 -63zM70 270q0 37 6 80l104 737h330l-98 -700q-6 -47 -6 -82t16 -57t57 -37l-63 -246q-346 31 -346 305z" />
    <glyph glyph-name="upsilondieresistonos" unicode="&#x3b0;" horiz-adv-x="1155" 
d="M772 1511l-229 35l133 455l321 -64zM955 1245q-69 0 -117 46t-47 113q0 67 48 113q49 46 117 46t115 -46t47 -113t-47 -113t-116 -46zM400 1245q-68 0 -116 46t-48 113t48 113t116 46t116 -46q47 -46 47 -113t-47 -113t-116 -46zM477 -35q-188 0 -297 88t-108 250
q0 37 6 76l100 708h328l-96 -688q-6 -39 -7 -69q0 -125 107 -125q258 0 258 713q0 83 -6 169h323q8 -84 9 -204q0 -487 -152 -703t-465 -215z" />
    <glyph glyph-name="alpha" unicode="&#x3b1;" horiz-adv-x="1204" 
d="M373 420q1 -106 33 -162t90 -55q58 -1 113 73q56 74 118 265q-8 344 -145 344q-84 0 -146 -128t-63 -337zM401 -35q-162 0 -259 120t-97 333q0 315 151 511t359 195q268 0 340 -280h4q2 -2 4 -2l86 266l258 -74l-260 -481l51 -227q12 -53 32 -77t65 -38l-105 -246
q-180 27 -211 189l-22 112l-6 2q-129 -303 -390 -303z" />
    <glyph glyph-name="beta" unicode="&#x3b2;" horiz-adv-x="1130" 
d="M799 1245q0 78 -82 78t-160 -104t-117 -314q178 72 269 153q90 81 90 187zM586 745q-70 0 -176 -53q-20 -141 -21 -266q0 -223 129 -223q100 0 155 92q54 92 54 271t-141 179zM66 492q0 259 78 500q79 241 243 401t379 159q164 0 248 -74t84 -190q0 -266 -336 -385l-2 -8
q141 -15 223 -107t82 -233q0 -256 -145 -423t-406 -167q-219 0 -334 134q-114 134 -114 393z" />
    <glyph glyph-name="gamma" unicode="&#x3b3;" horiz-adv-x="1083" 
d="M227 -238q0 119 78 265q-41 371 -106 598q-66 227 -172 383l325 114q137 -250 137 -725l-2 -92l9 -2l342 821l323 -75l-524 -967q-109 -203 -109 -356q1 -74 15 -148l-281 -29q-35 94 -35 213z" />
    <glyph glyph-name="delta" unicode="&#x3b4;" horiz-adv-x="1177" 
d="M776 540q0 126 -41 193q-41 66 -141 125q-217 -119 -217 -440q0 -213 160 -213q106 0 173 104q66 105 66 231zM1112 563q0 -250 -165 -424t-421 -174q-221 0 -352 124t-131 329t104 351t297 204l2 6q-100 63 -143 131t-43 162q0 125 104 204t308 78q114 0 228 -45
t194 -116l-164 -172q-117 100 -232 100q-53 0 -83 -23q-29 -22 -29 -60t33 -71t131 -92q202 -123 282 -245t80 -267z" />
    <glyph glyph-name="epsilon" unicode="&#x3b5;" horiz-adv-x="976" 
d="M547 455q-188 0 -189 -138q0 -117 148 -117t305 109l121 -184q-228 -160 -460 -160t-346 85t-114 235q0 115 83 193t237 97l2 9q-96 31 -150 96q-53 66 -53 143q0 135 110 218t304 83q258 0 440 -149l-149 -162q-109 88 -242 88q-66 0 -102 -30t-35 -78q0 -129 168 -129
h104l-63 -209h-119z" />
    <glyph glyph-name="zeta" unicode="&#x3b6;" horiz-adv-x="870" 
d="M647 1407q121 0 277 117l129 -162q-379 -299 -531 -508t-151 -379q0 -76 49 -131t173 -110q124 -56 170 -112t46 -145q0 -141 -113 -247t-325 -193l-90 199q92 47 138 88t46 84q-1 44 -25 68t-100 59q-174 80 -243 171t-68 238q0 408 620 791l-4 8q-66 -27 -135 -26
q-104 0 -182 63t-111 174l213 102q31 -74 81 -112t136 -37z" />
    <glyph glyph-name="eta" unicode="&#x3b7;" horiz-adv-x="1185" 
d="M856 1124q115 0 178 -68t64 -204q0 -51 -8 -100l-162 -1172l-330 -35l158 1160q6 47 6 83q0 68 -60 68q-106 0 -243 -260l-84 -596h-326l64 475q33 245 33 353t-21 245l315 39q33 -119 21 -246q164 258 395 258z" />
    <glyph glyph-name="theta" unicode="&#x3b8;" horiz-adv-x="1171" 
d="M686 1319q-102 0 -169 -110t-105 -353h419q13 112 13 228q2 236 -158 235zM375 444q-1 -126 37 -184t129 -59q91 1 157 109t107 356h-420q-10 -96 -10 -222zM705 1554q215 0 331 -142t115 -423q0 -369 -136 -676q-71 -158 -200 -253t-299 -95q-217 -1 -333 145
q-115 146 -115 432t77 523q45 139 115 245t185 176q115 68 260 68z" />
    <glyph glyph-name="iota" unicode="&#x3b9;" horiz-adv-x="569" 
d="M72 270q0 37 6 80l104 737h330l-98 -700q-6 -47 -6 -82t16 -57t57 -37l-63 -246q-346 31 -346 305z" />
    <glyph glyph-name="kappa" unicode="&#x3ba;" horiz-adv-x="1120" 
d="M502 965l-135 -965h-326l139 1004q41 309 -2 514l336 36q43 -206 -12 -589zM657 209l-200 360l444 555l219 -155l-329 -387l137 -226q38 -61 64 -87t71 -44l-121 -262q-102 27 -168 85t-117 161z" />
    <glyph glyph-name="lambda" unicode="&#x3bb;" horiz-adv-x="1081" 
d="M240 -33l-306 101l480 1038l110 -31q-29 125 -92 178t-217 76l68 227q266 -36 394 -166t152 -399q35 -377 77 -555t130 -309l-278 -162q-94 151 -136 345t-53 550h-8z" />
    <glyph glyph-name="uni03BC" unicode="&#x3bc;" horiz-adv-x="1171" 
d="M686 150q-116 -177 -268 -177q-74 0 -127 72l-6 -6q54 -102 26 -305l-22 -154l-314 -31l218 1538h327l-100 -716q-12 -80 5 -111t64 -31q102 0 205 177l99 681h327l-102 -720q-14 -101 -14 -199t12 -168l-305 -35q-25 80 -25 185z" />
    <glyph glyph-name="nu" unicode="&#x3bd;" horiz-adv-x="1069" 
d="M618 0h-370q-27 412 -76 660t-145 360l307 102q70 -92 106 -320t35 -552h8l344 874l306 -82z" />
    <glyph glyph-name="xi" unicode="&#x3be;" horiz-adv-x="927" 
d="M360 -264q187 90 187 172q1 44 -25 68t-102 59q-207 95 -292 201t-85 260t109 270t290 141l2 6q-225 84 -225 287q0 158 120 256t341 98t397 -143l-162 -166q-94 80 -208 80q-76 0 -118 -46t-42 -124q0 -156 166 -156h98l-61 -215h-66q-143 0 -221 -74t-78 -192
q0 -84 60 -147t206 -127t193 -120q47 -58 47 -147q0 -143 -113 -248t-327 -192z" />
    <glyph glyph-name="omicron" unicode="&#x3bf;" horiz-adv-x="1181" 
d="M631 883q-121 1 -188 -141t-66 -326q0 -111 37 -161q38 -50 122 -50t145 81q105 142 103 384q1 213 -153 213zM643 1124q223 0 349 -128t126 -347q0 -293 -158 -489t-438 -195q-223 0 -351 124t-128 345q1 286 159 488t441 202z" />
    <glyph glyph-name="pi" unicode="&#x3c0;" horiz-adv-x="1257" 
d="M950 1087q184 0 320 43l37 -243q-72 -29 -197 -39l-63 -461q-7 -47 -7 -82q-1 -68 74 -90l-61 -250q-182 14 -263 89t-81 216q0 43 6 92l65 484h-237l-117 -846h-328l117 846h-137l33 241h839z" />
    <glyph glyph-name="rho" unicode="&#x3c1;" horiz-adv-x="1202" 
d="M803 682q0 203 -139 203q-88 0 -146 -84t-88 -293l-33 -229q61 -76 155 -76t173 138q78 138 78 341zM635 -35q-156 0 -266 109l-70 -494l-332 -35l131 930q48 353 192 501t400 148q199 0 323 -120t124 -322q1 -303 -151 -510t-351 -207z" />
    <glyph glyph-name="sigma1" unicode="&#x3c2;" horiz-adv-x="956" 
d="M389 520q0 -98 46 -162t174 -121t174 -113t46 -147q-1 -141 -113 -247t-325 -193l-90 199q92 47 138 88t46 83q-1 41 -25 65t-100 59q-170 77 -242 189t-71 286q0 256 171 437t419 181q203 0 362 -127l-143 -198q-88 73 -198 73t-190 -98q-79 -98 -79 -254z" />
    <glyph glyph-name="sigma" unicode="&#x3c3;" horiz-adv-x="1198" 
d="M539 205q115 -1 182 113t67 290t-71 287q-336 -6 -336 -481q0 -209 158 -209zM522 -35q-225 0 -351 121t-126 342q0 308 181 494t501 186l231 -6q131 0 250 45l35 -217q-145 -47 -278 -12l-2 -7q156 -137 155 -350q0 -246 -167 -421t-429 -175z" />
    <glyph glyph-name="tau" unicode="&#x3c4;" horiz-adv-x="987" 
d="M696 846h-20l-64 -459q-6 -47 -6 -82q0 -68 74 -90l-62 -250q-182 14 -265 88t-83 215q0 29 9 94l67 484h-309l35 241h544q236 0 392 43l39 -241q-140 -43 -351 -43z" />
    <glyph glyph-name="upsilon" unicode="&#x3c5;" horiz-adv-x="1155" 
d="M477 -35q-188 0 -297 88t-108 250q0 37 6 76l100 708h328l-96 -688q-6 -39 -7 -69q0 -125 107 -125q258 0 258 713q0 83 -6 169h323q8 -84 9 -204q0 -487 -152 -703t-465 -215z" />
    <glyph glyph-name="phi" unicode="&#x3c6;" horiz-adv-x="1581" 
d="M1200 741q0 162 -104 162q-61 0 -97 -58q-34 -59 -59 -237l-57 -403q149 23 233 157t84 379zM373 442q0 -122 49 -176t156 -65l51 360q41 297 161 430t317 133t303 -104t106 -309q0 -326 -165 -516t-499 -222l-55 -393l-308 -35l58 430q-246 25 -370 138t-124 290
q0 309 217 684h310q-104 -215 -156 -369t-51 -276z" />
    <glyph glyph-name="chi" unicode="&#x3c7;" horiz-adv-x="1021" 
d="M461 174h-8l-301 -629l-289 119l442 711q-96 432 -285 637l324 110q123 -207 160 -565h8l272 567l283 -112l-403 -645l256 -719l-310 -103z" />
    <glyph glyph-name="psi" unicode="&#x3c8;" horiz-adv-x="1603" 
d="M82 391q0 57 8 107l86 589h320l-90 -630q-6 -39 -7 -72q0 -86 46 -129t155 -53l107 768q47 320 8 547l313 36q44 -211 -14 -626l-103 -721q178 27 248 189t70 462q0 111 -10 229h319q6 -104 6 -202q0 -459 -145 -672t-520 -242l-56 -391l-315 -35l59 428
q-485 49 -485 418z" />
    <glyph glyph-name="omega" unicode="&#x3c9;" horiz-adv-x="1581" 
d="M1200 651q0 217 -47 436h313q55 -205 56 -397q0 -365 -132 -545t-360 -180q-133 0 -207 69t-80 199h-8q-45 -129 -135 -199t-205 -69q-164 1 -256 101t-92 294q0 352 217 727h311q-201 -436 -200 -704q0 -178 104 -178q57 0 94 57t58 197l37 268l301 41l-45 -311
q-10 -75 -10 -133q-1 -119 102 -119q78 1 131 115t53 331z" />
    <glyph glyph-name="iotadieresis" unicode="&#x3ca;" horiz-adv-x="559" 
d="M647 1305q-72 0 -121 48q-49 47 -49 117t49 117t121 47t120 -47t48 -117t-48 -118t-120 -47zM155 1634q71 0 119 -47t50 -117q0 -70 -49 -118t-120 -47q-71 0 -121 48q-50 49 -50 117t50 116t121 48zM70 270q0 37 6 80l104 737h330l-98 -700q-6 -47 -6 -82t16 -57t57 -37
l-63 -246q-346 31 -346 305z" />
    <glyph glyph-name="upsilondieresis" unicode="&#x3cb;" horiz-adv-x="1155" 
d="M477 -35q-188 0 -297 88t-108 250q0 37 6 76l100 708h328l-96 -688q-6 -39 -7 -69q0 -125 107 -125q258 0 258 713q0 83 -6 169h323q8 -84 9 -204q0 -487 -152 -703t-465 -215zM944 1305q-72 0 -121 48q-49 47 -49 117t49 117t121 47t120 -47t48 -117t-48 -118t-120 -47z
M452 1634q72 0 120 -47t48 -117t-48 -118q-49 -48 -120 -47q-71 0 -121 48q-50 49 -50 117t50 116t121 48z" />
    <glyph glyph-name="omicrontonos" unicode="&#x3cc;" horiz-adv-x="1181" 
d="M791 1198l-230 35l150 516l331 -63zM631 883q-121 1 -188 -141t-66 -326q0 -111 37 -161q38 -50 122 -50t145 81q105 142 103 384q1 213 -153 213zM643 1124q223 0 349 -128t126 -347q0 -293 -158 -489t-438 -195q-223 0 -351 124t-128 345q1 286 159 488t441 202z" />
    <glyph glyph-name="upsilontonos" unicode="&#x3cd;" horiz-adv-x="1155" 
d="M477 -35q-188 0 -297 88t-108 250q0 37 6 76l100 708h328l-96 -688q-6 -39 -7 -69q0 -125 107 -125q258 0 258 713q0 83 -6 169h323q8 -84 9 -204q0 -487 -152 -703t-465 -215zM735 1198l-229 35l149 516l332 -63z" />
    <glyph glyph-name="omegatonos" unicode="&#x3ce;" horiz-adv-x="1581" 
d="M973 1198l-230 35l150 516l332 -63zM1200 651q0 217 -47 436h313q55 -205 56 -397q0 -365 -132 -545t-360 -180q-133 0 -207 69t-80 199h-8q-45 -129 -135 -199t-205 -69q-164 1 -256 101t-92 294q0 352 217 727h311q-201 -436 -200 -704q0 -178 104 -178q57 0 94 57
t58 197l37 268l301 41l-45 -311q-10 -75 -10 -133q-1 -119 102 -119q78 1 131 115t53 331z" />
    <glyph glyph-name="uni0401" unicode="&#x401;" horiz-adv-x="1073" 
d="M939 1548q-71 0 -121 49t-50 118t50 117t121 48t120 -48t49 -118t-49 -118t-120 -48zM464 1548q-71 0 -121 49t-50 118t50 117t121 48t120 -48t49 -118t-49 -118t-120 -48zM1040 1178h-499l-41 -338h436l-29 -238h-436l-43 -356h533l-29 -246h-873l172 1419h875z" />
    <glyph glyph-name="uni0402" unicode="&#x402;" horiz-adv-x="1540" 
d="M950 713q-102 0 -227 -95l-76 -618h-336l144 1165h-371l31 254h1089l-65 -254h-351l-38 -331q172 131 349 131q177 1 277 -97t101 -299q0 -53 -11 -131l-26 -192q-35 -256 -153 -386t-372 -210l-59 252q125 46 176 118t72 218l26 196q6 49 7 90q0 102 -43 146
q-42 44 -144 43z" />
    <glyph glyph-name="uni0403" unicode="&#x403;" horiz-adv-x="1026" 
d="M518 1538l-80 170l475 287l117 -250zM231 1419h902l-66 -266h-528l-140 -1153h-340z" />
    <glyph glyph-name="uni0404" unicode="&#x404;" horiz-adv-x="1179" 
d="M815 1204q-131 0 -226 -92t-138 -266h503l-30 -240h-502q-2 -196 59 -284t202 -88t296 114l133 -203q-207 -180 -500 -180q-252 0 -395 154t-143 448q0 403 211 646t522 243q266 0 434 -164l-186 -188q-109 100 -240 100z" />
    <glyph glyph-name="uni0405" unicode="&#x405;" horiz-adv-x="1159" 
d="M1098 434q0 -203 -155 -336t-427 -133q-162 -1 -308 63t-233 156l191 191q166 -152 346 -152q98 0 163 50t65 127t-47 122q-46 45 -173 86q-213 70 -304 172t-91 270t147 287t390 119q303 0 499 -180l-174 -189q-141 123 -317 123q-90 0 -138 -39t-49 -104q0 -65 47 -105
q46 -40 220 -103q348 -126 348 -425z" />
    <glyph glyph-name="uni0406" unicode="&#x406;" horiz-adv-x="600" 
d="M399 0h-340l172 1419h340z" />
    <glyph glyph-name="uni0407" unicode="&#x407;" horiz-adv-x="600" 
d="M677 1548q-71 0 -121 49t-50 118t50 117t121 48t120 -48t49 -118t-49 -118t-120 -48zM202 1548q-71 0 -121 49t-50 118t50 117t121 48t120 -48t49 -118t-49 -118t-120 -48zM399 0h-340l172 1419h340z" />
    <glyph glyph-name="uni0408" unicode="&#x408;" horiz-adv-x="612" 
d="M-80 -350l-63 252q129 44 181 116t71 220l145 1181h340l-143 -1173q-31 -250 -151 -383t-380 -213z" />
    <glyph glyph-name="uni0409" unicode="&#x409;" horiz-adv-x="1900" 
d="M1278 700h-88l-55 -446h112q258 0 258 262q0 90 -58 137t-169 47zM1313 950q262 0 406 -110t145 -316q0 -244 -164 -384t-457 -140h-479l141 1163h-260l-51 -227q-86 -393 -166 -588t-230 -298q-65 -44 -167 -91l-107 227q84 52 130 116t99 215q52 151 128 456l108 446
h889l-59 -469h94z" />
    <glyph glyph-name="uni040A" unicode="&#x40a;" horiz-adv-x="1945" 
d="M1321 666h-96l-51 -412h118q258 0 258 246q0 166 -229 166zM1356 913q264 0 408 -103t145 -302q0 -232 -164 -370t-457 -138h-485l80 666h-404l-80 -666h-340l172 1419h340l-61 -506h403l62 506h340l-60 -506h101z" />
    <glyph glyph-name="uni040B" unicode="&#x40b;" horiz-adv-x="1540" 
d="M1094 965q381 0 381 -404q0 -63 -9 -123l-53 -438h-336l53 434q6 49 7 88q0 104 -43 148q-42 44 -144 43q-102 0 -227 -95l-76 -618h-336l144 1165h-371l31 254h1089l-65 -254h-351l-38 -331q172 131 344 131z" />
    <glyph glyph-name="uni040C" unicode="&#x40c;" horiz-adv-x="1280" 
d="M614 1538l-79 170l475 287l116 -250zM1114 1077l-225 -305l338 -772h-363l-258 616h-133l-74 -616h-340l172 1419h340l-67 -557h112l240 332q90 127 170 180t229 82l78 -227q-131 -31 -219 -152z" />
    <glyph glyph-name="uni040E" unicode="&#x40e;" horiz-adv-x="1196" 
d="M737 1530q-162 0 -248 84t-86 223l183 31q29 -125 172 -125t200 125l177 -31q-31 -137 -133 -222t-265 -85zM391 375l-307 1044h336l186 -850h8l363 850h358l-508 -995q-127 -250 -265 -344t-408 -115l-15 234q164 18 240 55t125 121h-113z" />
    <glyph glyph-name="uni040F" unicode="&#x40f;" horiz-adv-x="1351" 
d="M983 1419h340l-174 -1419h-416l-41 -340h-233l4 340h-404l172 1419h340l-141 -1155h412z" />
    <glyph glyph-name="uni0410" unicode="&#x410;" horiz-adv-x="1218" 
d="M678 1151l-221 -600h303l-74 600h-8zM821 0l-37 305h-411l-111 -305h-366l610 1419h412l260 -1419h-357z" />
    <glyph glyph-name="uni0411" unicode="&#x411;" horiz-adv-x="1222" 
d="M578 666h-97l-53 -412h127q262 0 262 246q1 166 -239 166zM625 913q268 0 409 -105t142 -300q0 -228 -166 -368t-459 -140h-492l172 1419h902l-64 -256h-528l-31 -250h115z" />
    <glyph glyph-name="uni0412" unicode="&#x412;" horiz-adv-x="1269" 
d="M1192 449q0 -211 -160 -330t-481 -119h-492l172 1419h451q260 0 392 -87t132 -242q0 -119 -78 -212t-213 -124l-2 -9q131 -29 205 -108t74 -188zM631 854q111 0 170 51t59 144q0 131 -203 131h-114l-41 -326h129zM561 248q281 0 281 213q0 168 -213 168h-154l-47 -381
h133z" />
    <glyph glyph-name="uni0413" unicode="&#x413;" horiz-adv-x="1026" 
d="M231 1419h902l-66 -266h-528l-140 -1153h-340z" />
    <glyph glyph-name="uni0414" unicode="&#x414;" horiz-adv-x="1341" 
d="M1296 852q0 -401 -205 -627q-206 -225 -587 -225h-445l172 1419h402q315 0 489 -144t174 -423zM539 246q180 0 294 154t113 452q0 322 -309 322h-96l-113 -928h111z" />
    <glyph glyph-name="uni0415" unicode="&#x415;" horiz-adv-x="1073" 
d="M1040 1178h-499l-41 -338h436l-29 -238h-436l-43 -356h533l-29 -246h-873l172 1419h875z" />
    <glyph glyph-name="uni0416" unicode="&#x416;" horiz-adv-x="1925" 
d="M1708 1038l-199 -268l328 -770h-350l-246 621h-119l-75 -621h-312l74 621h-107l-395 -621h-360l514 784l-144 277q-39 77 -84 111t-135 55l84 229q164 -28 255 -96t145 -191l139 -309h119l69 559h312l-70 -559h96l215 307q100 145 182 201t234 88l76 -227
q-78 -21 -127 -59t-119 -132z" />
    <glyph glyph-name="uni0417" unicode="&#x417;" horiz-adv-x="1122" 
d="M629 1456q207 0 327 -92t119 -236q0 -144 -87 -240q-87 -97 -251 -128l-2 -8q139 -27 221 -118t82 -214q0 -197 -147 -326t-404 -129q-157 1 -293 59t-221 160l195 164q125 -133 287 -133q106 0 169 59q62 59 62 166q0 190 -242 191h-139l68 241h114q113 0 175 54t63 141
q0 141 -170 141q-146 1 -291 -108l-139 178q223 178 504 178z" />
    <glyph glyph-name="uni0418" unicode="&#x418;" horiz-adv-x="1349" 
d="M997 1096l-512 -1096h-426l172 1419h332l-43 -346q-22 -188 -70 -426t-77 -323h8l522 1095h418l-174 -1419h-332l41 338q23 195 70 426t80 332h-9z" />
    <glyph glyph-name="uni0419" unicode="&#x419;" horiz-adv-x="1349" 
d="M801 1530q-162 0 -248 84t-86 223l182 31q29 -125 172 -125t201 125l176 -31q-31 -137 -133 -222t-264 -85zM997 1096l-512 -1096h-426l172 1419h332l-43 -346q-22 -188 -70 -426t-77 -323h8l522 1095h418l-174 -1419h-332l41 338q23 195 70 426t80 332h-9z" />
    <glyph glyph-name="uni041A" unicode="&#x41a;" horiz-adv-x="1280" 
d="M1114 1077l-225 -305l338 -772h-363l-258 616h-133l-74 -616h-340l172 1419h340l-67 -557h112l240 332q90 127 170 180t229 82l78 -227q-131 -31 -219 -152z" />
    <glyph glyph-name="uni041B" unicode="&#x41b;" horiz-adv-x="1318" 
d="M31 -41l-107 227q84 52 130 116t99 215q52 151 128 456l108 446h901l-174 -1419h-340l144 1163h-275l-51 -227q-82 -365 -151 -543t-157 -268t-255 -166z" />
    <glyph glyph-name="uni041C" unicode="&#x41c;" horiz-adv-x="1615" 
d="M483 1124h-8q-4 -238 -61 -573l-92 -551h-334l282 1419h424l90 -966h9l321 966h434l-67 -1419h-334l39 549q20 309 71 575h-8l-334 -979h-325z" />
    <glyph glyph-name="uni041D" unicode="&#x41d;" horiz-adv-x="1353" 
d="M1153 0h-340l74 606h-416l-72 -606h-340l172 1419h340l-67 -549h416l67 549h340z" />
    <glyph glyph-name="uni041E" unicode="&#x41e;" horiz-adv-x="1411" 
d="M426 502q0 -138 57 -214t167 -75q286 0 349 462q46 339 -42 455q-55 76 -167 76t-187 -68t-110 -181q-67 -208 -67 -455zM1366 850q0 -351 -170 -606q-84 -127 -225 -203t-322 -76q-266 0 -420 159t-153 447q0 348 169 607q83 126 224 202t322 76q263 0 419 -160
t156 -446z" />
    <glyph glyph-name="uni041F" unicode="&#x41f;" horiz-adv-x="1353" 
d="M1153 0h-340l141 1159h-413l-142 -1159h-340l172 1419h1096z" />
    <glyph glyph-name="uni0420" unicode="&#x420;" horiz-adv-x="1228" 
d="M1235 1008q0 -244 -166 -390t-444 -147h-170l-56 -471h-340l172 1419h435q281 0 425 -109t144 -302zM614 717q123 0 197 76t74 204q0 180 -246 181h-98l-56 -461h129z" />
    <glyph glyph-name="uni0421" unicode="&#x421;" horiz-adv-x="1175" 
d="M807 1202q-175 0 -277 -188t-102 -439q0 -346 246 -346q152 0 307 119l137 -211q-209 -172 -472 -172t-417 158t-153 452q0 371 197 626q198 255 520 255q274 0 440 -172l-186 -182q-102 100 -240 100z" />
    <glyph glyph-name="uni0422" unicode="&#x422;" horiz-adv-x="1099" 
d="M1139 1159h-346l-142 -1159h-340l140 1159h-367l33 260h1089z" />
    <glyph glyph-name="uni0423" unicode="&#x423;" horiz-adv-x="1196" 
d="M391 375l-307 1044h336l186 -850h8l363 850h358l-508 -995q-127 -250 -265 -344t-408 -115l-15 234q164 18 240 55t125 121h-113z" />
    <glyph glyph-name="uni0424" unicode="&#x424;" horiz-adv-x="1753" 
d="M1386 807q0 303 -292 330l-105 -850q397 22 397 520zM397 618q0 -147 75 -232t216 -99l105 850q-396 -19 -396 -519zM53 621q-1 334 191 522t561 203l18 149h330l-18 -149q283 -18 439 -158t157 -379q0 -331 -198 -525t-556 -208l-19 -156h-329l18 156q-281 16 -437 160
t-157 385z" />
    <glyph glyph-name="uni0425" unicode="&#x425;" horiz-adv-x="1200" 
d="M410 754l-291 665h356l150 -442h8l270 442h371l-463 -651l326 -768h-359l-182 526h-8l-301 -526h-373z" />
    <glyph glyph-name="uni0426" unicode="&#x426;" horiz-adv-x="1376" 
d="M1317 1419l-141 -1155h163l-75 -604h-234l4 340h-975l172 1419h340l-141 -1155h406l141 1155h340z" />
    <glyph glyph-name="uni0427" unicode="&#x427;" horiz-adv-x="1282" 
d="M506 430q-198 0 -308 101t-110 307q0 33 8 110l58 471h340l-58 -467q-6 -49 -6 -88q0 -100 45 -141t153 -41t206 72l81 665h340l-174 -1419h-340l64 524q-145 -94 -299 -94z" />
    <glyph glyph-name="uni0428" unicode="&#x428;" horiz-adv-x="1875" 
d="M231 1419h334l-141 -1155h315l142 1155h317l-141 -1155h315l144 1155h331l-172 -1419h-1616z" />
    <glyph glyph-name="uni0429" unicode="&#x429;" horiz-adv-x="1908" 
d="M59 0l172 1419h334l-141 -1155h315l142 1155h317l-141 -1155h315l144 1155h331l-141 -1155h164l-74 -604h-235l6 340h-1508z" />
    <glyph glyph-name="uni042A" unicode="&#x42a;" horiz-adv-x="1431" 
d="M799 700h-97l-55 -446h125q266 0 266 264q1 182 -239 182zM840 950q266 0 411 -110t146 -314q0 -242 -166 -384t-463 -142h-492l142 1163h-344l30 256h687l-60 -469h109z" />
    <glyph glyph-name="uni042B" unicode="&#x42b;" horiz-adv-x="1742" 
d="M573 700h-90l-55 -446h113q260 0 260 262q-1 90 -59 137t-169 47zM608 950q262 0 407 -109q144 -110 144 -317q0 -244 -164 -384t-458 -140h-478l172 1419h340l-57 -469h94zM1540 0h-340l174 1419h340z" />
    <glyph glyph-name="uni042C" unicode="&#x42c;" horiz-adv-x="1212" 
d="M580 700h-97l-55 -446h127q264 0 264 264q1 182 -239 182zM621 950q268 0 412 -110t145 -314q0 -242 -166 -384t-461 -142h-492l172 1419h340l-57 -469h107z" />
    <glyph glyph-name="uni042D" unicode="&#x42d;" horiz-adv-x="1132" 
d="M752 915q0 293 -224 293q-131 0 -276 -110l-135 186q211 172 457 172t379 -144q134 -144 134 -427q0 -440 -189 -680t-497 -240q-129 0 -245 47t-193 127l180 185q121 -109 247 -109t214 98t117 293h-492l29 240h492q2 25 2 69z" />
    <glyph glyph-name="uni042E" unicode="&#x42e;" horiz-adv-x="1927" 
d="M1530 876q0 330 -196 330q-236 0 -314 -332q-39 -159 -39 -339q0 -322 211 -322q82 0 144 47q111 84 157 284q37 153 37 332zM1882 850q0 -346 -171 -606q-83 -127 -219 -203t-306 -76q-270 0 -416 178q-145 178 -131 465h-172l-74 -608h-334l172 1419h336l-67 -551h168
q63 260 230 424t425 164q259 0 409 -160t150 -446z" />
    <glyph glyph-name="uni042F" unicode="&#x42f;" horiz-adv-x="1261" 
d="M743 1182q-272 0 -272 -246q0 -193 209 -193h131l53 439h-121zM117 932q0 238 165 362q165 125 488 125h463l-172 -1419h-340l61 512h-168l-301 -512h-383l385 584q-198 110 -198 348z" />
    <glyph glyph-name="uni0430" unicode="&#x430;" horiz-adv-x="1185" 
d="M506 205q47 0 100 47t94 125l74 483q-55 25 -117 25q-117 0 -199 -123t-83 -340q0 -217 131 -217zM43 408q0 322 177 520t446 196q229 1 454 -120l-98 -682q-8 -62 2 -92t47 -46l-92 -215q-215 18 -258 181q-137 -184 -328 -185q-162 0 -256 110t-94 333z" />
    <glyph glyph-name="uni0431" unicode="&#x431;" horiz-adv-x="1138" 
d="M645 795q-69 -1 -141 -59t-129 -161q-14 -76 -15 -153q0 -223 154 -223q96 1 169 111t73 298t-111 187zM781 1026q116 0 208 -103t92 -296q1 -293 -161 -477t-410 -185q-455 0 -455 551q0 406 155 633t413 276q121 23 183 49t146 80l123 -190q-90 -63 -170 -99t-208 -59
q-127 -22 -203 -112t-125 -293h8q76 109 182 167t222 58z" />
    <glyph glyph-name="uni0432" unicode="&#x432;" horiz-adv-x="1116" 
d="M758 821q0 88 -93 88q-93 -1 -166 -73t-106 -201q207 16 286 63t79 123zM727 356q0 98 -109 152q-111 -23 -249 -35q-2 -10 -2 -33q0 -117 53 -180t136 -63q83 -1 127 43t44 116zM552 -35q-236 0 -373 129q-136 129 -136 340q0 306 186 498t461 192q174 0 273 -72
q98 -72 98 -180q0 -219 -234 -274l-2 -8q109 -26 169 -92t61 -158q0 -160 -134 -268q-133 -108 -369 -107z" />
    <glyph glyph-name="uni0433" unicode="&#x433;" horiz-adv-x="968" 
d="M324 303q0 -96 149 -96t297 104l141 -184q-203 -162 -487 -162q-203 0 -321 89q-117 90 -117 232t93 231t314 147q143 37 189 70q45 34 45 87q0 76 -109 76q-141 0 -293 -90l-110 190q86 55 210 91t242 36q195 0 292 -78t97 -211t-91 -229t-310 -153q-145 -39 -188 -68
t-43 -82z" />
    <glyph glyph-name="uni0434" unicode="&#x434;" horiz-adv-x="1144" 
d="M510 203q227 0 262 477q-70 109 -194 108q-92 0 -154 -91t-62 -279q1 -215 148 -215zM1108 934q0 -480 -185 -752q-67 -96 -177 -156t-250 -61q-211 0 -333 120t-122 333q0 264 137 435q138 171 330 171t295 -133l6 4q2 23 2 69q0 229 -134 310q-108 65 -341 69l53 211
q373 -12 546 -157t173 -463z" />
    <glyph glyph-name="uni0435" unicode="&#x435;" horiz-adv-x="1085" 
d="M739 814q0 91 -94 91t-168 -84t-98 -229q201 20 281 76t79 146zM1067 825q0 -367 -696 -426q16 -193 182 -192q125 0 260 90l125 -193q-182 -139 -416 -139t-356 122t-123 357q0 300 173 490t450 190q193 0 297 -80t104 -219z" />
    <glyph glyph-name="uni0436" unicode="&#x436;" horiz-adv-x="1521" 
d="M823 0h-286l65 467h-102l-269 -467h-323l360 586l-75 200q-19 51 -53 79t-99 48l86 211q141 -39 203 -90t100 -162l76 -208h123l59 423h289l-62 -423h101l131 213q73 117 137 167t189 80l86 -213q-80 -25 -124 -65t-94 -119l-88 -147l199 -580h-305l-148 467h-110z" />
    <glyph glyph-name="uni0437" unicode="&#x437;" horiz-adv-x="964" 
d="M383 664q184 0 184 139q1 45 -31 71t-90 25q-129 0 -262 -90l-123 176q205 139 453 139q180 0 286 -75q105 -77 105 -187q1 -110 -67 -184t-187 -98l-2 -9q111 -23 174 -91t64 -161q0 -153 -130 -253t-358 -101q-272 0 -456 172l170 166q123 -104 270 -104q78 0 122 39
t44 104q0 113 -166 113h-154l50 209h104z" />
    <glyph glyph-name="uni0438" unicode="&#x438;" horiz-adv-x="1161" 
d="M479 229q104 0 205 177l98 681h328l-154 -1087h-284l4 160q-139 -195 -338 -195q-127 0 -196 75t-68 224q0 57 8 109l100 714h328l-100 -716q-12 -80 5 -111t64 -31z" />
    <glyph glyph-name="uni0439" unicode="&#x439;" horiz-adv-x="1161" 
d="M678 1251q-156 0 -248 84t-92 226l186 32q25 -129 166 -129t207 129l174 -32q-35 -141 -136 -225t-257 -85zM479 229q104 0 205 177l98 681h328l-154 -1087h-284l4 160q-139 -195 -338 -195q-127 0 -196 75t-68 224q0 57 8 109l100 714h328l-100 -716q-12 -80 5 -111
t64 -31z" />
    <glyph glyph-name="uni043A" unicode="&#x43a;" horiz-adv-x="1112" 
d="M367 0h-326l152 1087h327l-59 -423h92l176 239q82 111 138 150t198 71l76 -217q-66 -18 -105 -49t-92 -100l-137 -174l242 -584h-334l-187 467h-94z" />
    <glyph glyph-name="uni043B" unicode="&#x43b;" horiz-adv-x="1167" 
d="M43 -41l-109 211q66 41 103 88q81 103 158 449l88 380h833l-153 -1087h-328l119 850h-217l-29 -131q-60 -271 -118 -409t-133 -213t-214 -138z" />
    <glyph glyph-name="uni043C" unicode="&#x43c;" horiz-adv-x="1396" 
d="M946 0l25 311q16 221 67 465h-8l-258 -665h-272l-80 665h-8q-18 -238 -54 -430l-65 -346h-316l244 1087h385l66 -688h8l244 688h395l-59 -1087h-314z" />
    <glyph glyph-name="uni043D" unicode="&#x43d;" horiz-adv-x="1198" 
d="M993 0h-327l59 432h-299l-59 -432h-326l152 1087h327l-59 -415h297l59 415h328z" />
    <glyph glyph-name="uni043E" unicode="&#x43e;" horiz-adv-x="1181" 
d="M631 883q-121 1 -188 -141t-66 -326q0 -111 37 -161q38 -50 122 -50t145 81q105 142 103 384q1 213 -153 213zM643 1124q223 0 349 -128t126 -347q0 -293 -158 -489t-438 -195q-223 0 -351 124t-128 345q1 286 159 488t441 202z" />
    <glyph glyph-name="uni043F" unicode="&#x43f;" horiz-adv-x="1173" 
d="M756 786q0 70 -62 70q-104 0 -243 -262l-84 -594h-326l152 1087h284l-12 -202q168 240 383 239q116 0 180 -68t64 -204q0 -51 -9 -100l-104 -752h-326l97 705q6 43 6 81z" />
    <glyph glyph-name="uni0440" unicode="&#x440;" horiz-adv-x="1212" 
d="M565 203q92 0 171 143t79 363q0 77 -29 115t-71 38q-121 0 -264 -260l-45 -315q67 -84 159 -84zM651 -35q-160 0 -274 117l-70 -502l-332 -35l218 1542h284l-10 -202q76 115 175 177t200 62q141 0 224 -101t83 -308q-1 -326 -149 -538t-349 -212z" />
    <glyph glyph-name="uni0441" unicode="&#x441;" horiz-adv-x="960" 
d="M563 221q94 0 215 76l109 -213q-176 -119 -383 -119t-334 126t-127 355q0 302 170 490t414 188q211 0 370 -129l-141 -196q-90 73 -205 73t-193 -114t-77 -314q0 -223 182 -223z" />
    <glyph glyph-name="uni0442" unicode="&#x442;" horiz-adv-x="1726" 
d="M1309 782q0 74 -49 74q-96 0 -228 -258l-84 -598h-325l98 707q6 49 6 77q0 72 -47 72q-96 0 -229 -262l-84 -594h-326l152 1087h284l-12 -202q162 240 356 239q95 0 157 -53t77 -158q156 211 346 211q111 0 177 -68t64 -208q0 -41 -6 -90l-106 -758h-328l101 707
q6 47 6 75z" />
    <glyph glyph-name="uni0443" unicode="&#x443;" horiz-adv-x="1042" 
d="M250 0l-195 1087h338l82 -862h8l297 862h344l-452 -1075q-94 -223 -262 -339t-441 -128l-12 234q172 18 260 68t139 153h-106z" />
    <glyph glyph-name="uni0444" unicode="&#x444;" horiz-adv-x="1751" 
d="M623 885q-99 0 -175 -132t-75 -350q0 -86 34 -132t85 -46q86 0 178 99l69 497q-50 64 -116 64zM1104 205q100 0 177 142t77 374q0 141 -94 141q-102 0 -236 -157l-59 -424q55 -76 135 -76zM1190 -35q-145 0 -250 111l-70 -496l-311 -35l76 527q-131 -106 -273 -106
t-231 112q-88 113 -88 332q0 311 152 513t350 201q129 0 223 -96l70 494l311 32l-82 -579q154 150 317 149q303 0 304 -409q0 -326 -148 -538t-350 -212z" />
    <glyph glyph-name="uni0445" unicode="&#x445;" horiz-adv-x="1034" 
d="M496 395h-9l-233 -395h-367l430 573l-243 514h354l96 -335h8l189 335h360l-372 -505l272 -582h-358z" />
    <glyph glyph-name="uni0446" unicode="&#x446;" horiz-adv-x="1187" 
d="M338 -35q-127 0 -196 75t-68 224q0 57 8 109l100 714h328l-100 -716q-12 -80 5 -111t64 -31q104 0 205 177l98 681h328l-102 -725q-10 -76 4 -104t69 -29h41l-80 -548h-213l9 309q-82 16 -112 65t-24 133l-6 2q-145 -225 -358 -225z" />
    <glyph glyph-name="uni0447" unicode="&#x447;" horiz-adv-x="1114" 
d="M129 1087h328l-58 -403q-12 -82 5 -112t67 -29q106 0 211 176l51 368h328l-152 -1087h-327l61 434q-131 -156 -311 -155q-268 0 -269 296q0 57 9 109z" />
    <glyph glyph-name="uni0448" unicode="&#x448;" horiz-adv-x="1724" 
d="M983 309q0 -80 66 -80q92 0 196 172l98 686h328l-151 -1087h-285l2 160q-139 -195 -328 -195q-209 0 -245 203q-147 -203 -334 -203q-121 0 -189 75t-67 224q0 57 8 109l100 714h328l-100 -716q-16 -100 9 -125q15 -16 52 -16t90 44q53 45 107 132l96 681h328l-103 -716
q-6 -37 -6 -62z" />
    <glyph glyph-name="uni0449" unicode="&#x449;" horiz-adv-x="1748" 
d="M983 309q0 -80 66 -80q92 0 196 172l98 686h328l-102 -725q-10 -76 5 -104t75 -29h34l-77 -548h-215l8 309q-150 31 -133 198l-9 2q-145 -225 -351 -225t-242 203q-147 -203 -334 -203q-121 0 -189 75t-67 224q0 57 8 109l100 714h328l-100 -716q-16 -100 9 -125
q15 -16 52 -16t90 44q53 45 107 132l96 681h328l-103 -716q-6 -37 -6 -62z" />
    <glyph glyph-name="uni044A" unicode="&#x44a;" horiz-adv-x="1208" 
d="M659 541h-55l-47 -326q43 -12 86 -12q88 0 136 52t48 148q0 138 -168 138zM614 -25q-197 0 -409 56l114 823h-288l35 233h614l-45 -331h57q229 0 351 -88t122 -246q1 -207 -141 -327t-410 -120z" />
    <glyph glyph-name="uni044B" unicode="&#x44b;" horiz-adv-x="1562" 
d="M500 549h-56l-49 -340q43 -12 86 -12q86 0 133 55t48 156q0 141 -162 141zM455 -25q-199 0 -412 56l150 1056h327l-47 -331h59q223 0 341 -88t118 -246q0 -205 -139 -326t-397 -121zM1358 0h-328l154 1087h325z" />
    <glyph glyph-name="uni044C" unicode="&#x44c;" horiz-adv-x="1048" 
d="M498 541h-56l-47 -326q43 -12 86 -12q88 0 136 52t49 148q0 138 -168 138zM453 -25q-197 0 -410 56l150 1056h325l-45 -331h57q230 0 352 -88t122 -246q0 -207 -142 -327t-409 -120z" />
    <glyph glyph-name="uni044D" unicode="&#x44d;" horiz-adv-x="995" 
d="M424 891q-98 0 -225 -80l-109 176q190 137 394 137t325 -127t121 -342q0 -295 -160 -493t-397 -197q-237 0 -402 154l158 174q103 -90 203 -90q196 0 250 258h-394l27 188h387q4 135 -38 189t-140 53z" />
    <glyph glyph-name="uni044E" unicode="&#x44e;" horiz-adv-x="1652" 
d="M1114 883q-80 0 -137 -73q-105 -134 -105 -392q0 -111 34 -162t106 -51q186 0 234 319q11 74 11 146q0 213 -143 213zM1126 1124q217 0 340 -128t123 -347q-1 -291 -155 -487t-428 -197q-217 0 -338 125t-119 352h-119l-63 -442h-326l152 1087h327l-61 -425h114
q53 206 195 334t358 128z" />
    <glyph glyph-name="uni044F" unicode="&#x44f;" horiz-adv-x="1138" 
d="M616 911q-72 0 -123 -48q-50 -48 -51 -132q0 -147 164 -147h90l43 315q-51 12 -123 12zM109 737q0 179 135 283q134 104 382 104t459 -61l-149 -1063h-322l56 391h-129l-262 -391h-355l328 463q-143 96 -143 274z" />
    <glyph glyph-name="uni0451" unicode="&#x451;" horiz-adv-x="1085" 
d="M938 1305q-72 0 -121 48q-49 47 -49 117t49 117t121 47t120 -47t48 -117t-48 -118t-120 -47zM614 1470q0 -70 -49 -118t-120 -47q-71 0 -121 48q-50 49 -50 117t50 116t122 48q70 0 119 -47t49 -117zM739 814q0 91 -94 91t-168 -84t-98 -229q201 20 281 76t79 146z
M1067 825q0 -367 -696 -426q16 -193 182 -192q125 0 260 90l125 -193q-182 -139 -416 -139t-356 122t-123 357q0 300 173 490t450 190q193 0 297 -80t104 -219z" />
    <glyph glyph-name="uni0452" unicode="&#x452;" horiz-adv-x="1183" 
d="M860 1124q112 0 176 -68t64 -206q0 -29 -8 -98l-86 -623q-33 -238 -153 -372t-359 -212l-84 240q131 47 188 118t78 214l82 588q6 43 6 79q0 72 -62 72q-109 0 -243 -260l-84 -596h-328l170 1214h-127l27 191h127l16 115l332 34l-21 -149h285l-27 -191h-286l-41 -301
q160 211 358 211z" />
    <glyph glyph-name="uni0453" unicode="&#x453;" horiz-adv-x="968" 
d="M412 1247l-80 166l479 297l117 -248zM324 303q0 -96 149 -96t297 104l141 -184q-203 -162 -487 -162q-203 0 -321 89q-117 90 -117 232t93 231t314 147q143 37 189 70q45 34 45 87q0 76 -109 76q-141 0 -293 -90l-110 190q86 55 210 91t242 36q195 0 292 -78t97 -211
t-91 -229t-310 -153q-145 -39 -188 -68t-43 -82z" />
    <glyph glyph-name="uni0454" unicode="&#x454;" horiz-adv-x="974" 
d="M567 213q96 0 217 74l103 -203q-176 -119 -383 -119t-334 126t-127 355q0 306 166 492t418 186q211 0 370 -129l-139 -190q-90 76 -196 76q-213 0 -261 -232h390l-25 -188h-389q-9 -248 190 -248z" />
    <glyph glyph-name="uni0455" unicode="&#x455;" horiz-adv-x="997" 
d="M430 201q154 0 154 102q0 45 -39 75t-156 71q-303 106 -303 337q0 150 117 242t344 92t407 -143l-141 -186q-131 98 -263 98t-132 -86q0 -37 36 -63t180 -80t214 -130q70 -78 70 -192q0 -164 -126 -268t-358 -105q-135 0 -262 50t-209 132l164 181q61 -55 145 -91
t158 -36z" />
    <glyph glyph-name="uni0456" unicode="&#x456;" horiz-adv-x="565" 
d="M600 1475q0 -81 -54 -133t-139 -52t-140 52q-54 52 -54 132t54 133q53 52 139 52t140 -52t54 -132zM365 0h-328l151 1087h328z" />
    <glyph glyph-name="uni0457" unicode="&#x457;" horiz-adv-x="565" 
d="M365 0h-328l151 1087h328zM655 1305q-73 0 -121 48q-48 47 -48 117t48 117q50 47 122 47t119 -47q48 -47 48 -117t-48 -118t-120 -47zM332 1470q0 -70 -49 -118t-120 -47q-71 0 -121 48q-50 49 -50 117t50 116t121 48t120 -47t49 -117z" />
    <glyph glyph-name="uni0458" unicode="&#x458;" horiz-adv-x="565" 
d="M51 117l137 970h328l-137 -958q-35 -242 -154 -375t-356 -209l-84 240q131 47 189 118t77 214zM600 1475q0 -81 -54 -133t-139 -52t-140 52q-54 52 -54 132t54 133q53 52 139 52t140 -52t54 -132z" />
    <glyph glyph-name="uni0459" unicode="&#x459;" horiz-adv-x="1615" 
d="M1081 549h-57l-49 -340q45 -12 86 -12q86 0 134 55t48 156q0 141 -162 141zM1112 756q223 0 342 -88t119 -246q0 -205 -139 -326t-400 -121q-201 0 -409 56l114 819h-202l-29 -131q-60 -271 -118 -409t-133 -213t-214 -138l-109 211q66 41 103 88q81 103 158 449l88 380
h817l-45 -331h57z" />
    <glyph glyph-name="uni045A" unicode="&#x45a;" horiz-adv-x="1665" 
d="M1122 492h-55l-43 -283q45 -12 86 -12q88 0 135 46t47 130q0 119 -170 119zM1083 -25q-201 0 -409 56l63 461h-297l-67 -492h-328l154 1087h325l-55 -387h299l55 387h326l-53 -387h57q469 0 469 -309q0 -188 -142 -302t-397 -114z" />
    <glyph glyph-name="uni045B" unicode="&#x45b;" horiz-adv-x="1181" 
d="M860 1124q111 0 174 -68t64 -208q0 -43 -6 -96l-105 -752h-328l99 705q6 43 6 79q0 72 -62 72q-109 0 -243 -260l-84 -596h-328l170 1214h-127l27 191h127l16 115l332 34l-21 -149h285l-27 -191h-286l-41 -301q160 211 358 211z" />
    <glyph glyph-name="uni045C" unicode="&#x45c;" horiz-adv-x="1112" 
d="M508 1247l-80 166l479 297l117 -248zM367 0h-326l152 1087h327l-59 -423h92l176 239q82 111 138 150t198 71l76 -217q-66 -18 -105 -49t-92 -100l-137 -174l242 -584h-334l-187 467h-94z" />
    <glyph glyph-name="uni045E" unicode="&#x45e;" horiz-adv-x="1042" 
d="M633 1251q-156 0 -248 84t-92 226l186 32q25 -129 166 -129t207 129l174 -32q-35 -141 -136 -225t-257 -85zM250 0l-195 1087h338l82 -862h8l297 862h344l-452 -1075q-94 -223 -262 -339t-441 -128l-12 234q172 18 260 68t139 153h-106z" />
    <glyph glyph-name="uni045F" unicode="&#x45f;" horiz-adv-x="1193" 
d="M391 0h-350l152 1087h327l-121 -847h295l121 847h328l-154 -1087h-348l-45 -319h-215z" />
    <glyph glyph-name="uni0462" unicode="&#x462;" horiz-adv-x="1474" 
d="M829 666h-98l-51 -412h127q260 0 260 246q0 166 -238 166zM877 913q266 0 407 -105t141 -300q0 -229 -165 -369q-166 -139 -457 -139h-490l140 1159h-369l33 260h1089l-67 -260h-346l-31 -246h115z" />
    <glyph glyph-name="uni0463" unicode="&#x463;" horiz-adv-x="1054" 
d="M506 541h-57l-48 -326q45 -12 86 -12q88 0 138 51q49 51 49 149q0 138 -168 138zM461 -25q-201 0 -410 56l127 901h-133l29 190h129l33 226l331 32l-37 -258h271l-53 -190h-244l-25 -176h58q229 0 351 -88t122 -246q0 -209 -142 -328t-407 -119z" />
    <glyph glyph-name="uni0472" unicode="&#x472;" horiz-adv-x="1411" 
d="M1014 887q0 167 -56 243t-185 76q-128 0 -209 -108t-111 -277h559q2 23 2 66zM655 213q268 0 338 418h-565q-2 -35 -2 -99q0 -168 57 -244t172 -75zM1366 850q0 -351 -170 -606q-84 -127 -225 -203t-322 -76q-266 0 -420 159t-153 447q0 348 169 607q83 126 224 202
t322 76q263 0 419 -160t156 -446z" />
    <glyph glyph-name="uni0473" unicode="&#x473;" horiz-adv-x="1181" 
d="M631 883q-81 0 -141 -65t-87 -177h381q9 242 -153 242zM531 205q87 0 145 70q57 71 82 184h-381q-1 -137 33 -195t121 -59zM643 1124q223 0 349 -128t126 -347q0 -293 -158 -489t-438 -195q-223 0 -351 124t-128 345q1 286 159 488t441 202z" />
    <glyph glyph-name="uni0474" unicode="&#x474;" horiz-adv-x="1220" 
d="M444 1419l119 -1151h8l252 719q129 373 195 465l332 -63q-72 -92 -207 -428l-391 -961h-424l-232 1419h348z" />
    <glyph glyph-name="uni0475" unicode="&#x475;" horiz-adv-x="1058" 
d="M254 0l-195 1087h344l70 -837h8l211 579q72 203 152 289l315 -47q-84 -106 -168 -291l-348 -780h-389z" />
    <glyph glyph-name="uni0490" unicode="&#x490;" horiz-adv-x="1026" 
d="M231 1419h588l37 318h315l-38 -318l-66 -266h-528l-140 -1153h-340z" />
    <glyph glyph-name="uni0491" unicode="&#x491;" horiz-adv-x="888" 
d="M483 840l-116 -840h-326l152 1087h477l43 314h297l-43 -314l-74 -247h-410z" />
    <glyph glyph-name="uni0492" unicode="&#x492;" horiz-adv-x="1040" 
d="M246 1419h899l-66 -266h-526l-33 -266h289l-27 -203h-286l-84 -684h-340l82 684h-158l24 203h158z" />
    <glyph glyph-name="uni0493" unicode="&#x493;" horiz-adv-x="1036" 
d="M475 -35q-195 0 -315 84t-121 209q0 186 178 256l-2 6l-233 10l30 134l357 -41l133 49q114 40 146 72t32 73q0 80 -102 80q-141 0 -299 -90l-105 188q84 55 209 92t250 37q186 0 281 -76t96 -196q0 -201 -246 -274v-7l237 -8l-30 -133l-377 45q-127 -35 -171 -76t-44 -92
q-1 -102 149 -102t297 104l138 -180q-205 -164 -488 -164z" />
    <glyph glyph-name="uni0496" unicode="&#x496;" horiz-adv-x="1935" 
d="M1708 1038l-199 -268l215 -506h160l-74 -604h-235l6 340h-94l-246 621h-119l-75 -621h-312l74 621h-107l-395 -621h-360l514 784l-144 277q-39 77 -84 111t-135 55l84 229q164 -28 255 -96t145 -191l139 -309h119l69 559h312l-70 -559h96l215 307q100 145 182 201t234 88
l76 -227q-78 -21 -127 -59t-119 -132z" />
    <glyph glyph-name="uni0497" unicode="&#x497;" horiz-adv-x="1529" 
d="M1487 225h14l-78 -544h-215l11 303q-45 22 -74 68t-55 134l-91 281h-110l-66 -467h-286l65 467h-102l-269 -467h-323l360 586l-75 200q-19 51 -53 79t-99 48l86 211q141 -39 203 -90t100 -162l76 -208h123l59 423h289l-62 -423h99l129 213q71 115 137 165t193 82l86 -213
q-80 -25 -124 -65t-94 -119l-88 -147l76 -215q29 -82 63 -111t95 -29z" />
    <glyph glyph-name="uni0498" unicode="&#x498;" horiz-adv-x="1122" 
d="M389 -360q90 0 90 69q0 35 -37 49t-141 15l55 204q-244 39 -383 207l195 164q125 -133 287 -133q106 0 169 59q62 59 62 166q0 190 -242 191h-139l68 241h114q113 0 175 54t63 141q0 141 -170 141q-145 0 -291 -108l-139 178q223 178 504 178q207 0 327 -92t119 -236
q0 -144 -87 -240q-87 -97 -251 -128l-2 -8q139 -27 221 -118t82 -214q0 -186 -134 -314t-367 -139l-11 -65q90 -14 140 -66t51 -129q0 -109 -84 -177t-225 -69q-141 0 -256 70l94 150q77 -41 143 -41z" />
    <glyph glyph-name="uni0499" unicode="&#x499;" horiz-adv-x="964" 
d="M318 -360q79 0 79 69q0 35 -37 49t-141 15l57 204q-199 31 -333 160l170 166q123 -104 270 -104q78 0 122 39t44 104q0 113 -166 113h-154l50 209h104q184 0 184 139q1 45 -31 71t-90 25q-129 0 -262 -90l-123 176q205 139 453 139q180 0 286 -75q105 -77 105 -187
q1 -110 -67 -184t-187 -98l-2 -9q111 -23 174 -91t64 -161q0 -141 -114 -239t-318 -113l-9 -65q90 -14 140 -66t51 -129q0 -109 -85 -177t-224 -69q-139 0 -258 70l96 150q73 -41 152 -41z" />
    <glyph glyph-name="uni049A" unicode="&#x49a;" horiz-adv-x="1292" 
d="M1114 1077l-225 -305l227 -508h158l-74 -604h-235l6 340h-107l-258 616h-133l-74 -616h-340l172 1419h340l-67 -557h112l240 332q90 127 170 180t229 82l78 -227q-131 -31 -219 -152z" />
    <glyph glyph-name="uni049B" unicode="&#x49b;" horiz-adv-x="1118" 
d="M1079 225h13l-78 -544h-215l10 307q-55 20 -92 62t-72 128l-117 289h-94l-67 -467h-326l152 1087h327l-59 -423h90l178 239q84 111 139 150t197 71l76 -217q-66 -18 -105 -49t-92 -100l-137 -174l98 -219q37 -80 73 -110t101 -30z" />
    <glyph glyph-name="uni049C" unicode="&#x49c;" horiz-adv-x="1308" 
d="M614 301h-125l39 326h-65l-76 -627h-328l172 1419h328l-67 -567h63l41 322h127l-41 -322h29l157 276q88 160 178 227t261 101l77 -229q-88 -19 -139 -59t-102 -124l-166 -272l260 -772h-352l-189 627h-43z" />
    <glyph glyph-name="uni049D" unicode="&#x49d;" horiz-adv-x="1144" 
d="M348 0h-307l152 1087h309l-64 -438h56l34 238h99l-35 -238h18l135 225q73 123 135 170t203 80l78 -217q-61 -18 -101 -52t-85 -103l-113 -168l193 -584h-322l-139 481h-25l-34 -241h-97l33 241h-55z" />
    <glyph glyph-name="uni04A0" unicode="&#x4a0;" horiz-adv-x="1499" 
d="M1331 1077l-223 -305l336 -772h-361l-260 616h-131l-76 -616h-340l142 1163h-344l30 256h687l-68 -557h111l241 332q92 127 172 180t226 82l79 -227q-76 -17 -125 -53t-96 -99z" />
    <glyph glyph-name="uni04A1" unicode="&#x4a1;" horiz-adv-x="1271" 
d="M528 0h-327l118 854h-288l35 233h614l-59 -423h94l176 239q82 111 138 150t198 71l76 -217q-66 -18 -104 -49t-93 -100l-137 -174l239 -584h-331l-187 467h-96z" />
    <glyph glyph-name="uni04A2" unicode="&#x4a2;" horiz-adv-x="1386" 
d="M1327 1419l-141 -1155h164l-76 -604h-234l4 340h-231l74 606h-416l-72 -606h-340l172 1419h340l-67 -549h416l67 549h340z" />
    <glyph glyph-name="uni04A3" unicode="&#x4a3;" horiz-adv-x="1224" 
d="M696 182q0 41 4 64l25 186h-299l-59 -432h-326l152 1087h327l-59 -415h299l59 415h328l-105 -731q-10 -76 6 -102t74 -29h35l-78 -544h-215l8 305q-176 23 -176 196z" />
    <glyph glyph-name="uni04AA" unicode="&#x4aa;" horiz-adv-x="1175" 
d="M807 1202q-175 0 -277 -188t-102 -439q0 -346 246 -346q152 0 307 119l137 -211q-113 -96 -250 -137q-219 -117 -219 -262q0 -82 90 -82t144 31l53 -162q-123 -53 -247 -53q-123 0 -195 57t-72 156q0 168 188 282q-248 8 -391 165t-143 443q0 371 197 626
q198 255 520 255q274 0 440 -172l-186 -182q-102 100 -240 100z" />
    <glyph glyph-name="uni04AB" unicode="&#x4ab;" horiz-adv-x="960" 
d="M563 221q94 0 215 76l109 -213q-86 -57 -168 -84q-219 -117 -219 -262q0 -82 88 -82t145 31l53 -162q-126 -53 -248 -53t-195 58t-73 155q0 168 189 282q-188 14 -302 139t-114 340q0 302 170 490t414 188q211 0 370 -129l-141 -196q-90 73 -205 73t-193 -114t-77 -314
q0 -223 182 -223z" />
    <glyph glyph-name="uni04AE" unicode="&#x4ae;" horiz-adv-x="1210" 
d="M1331 1419l-563 -887l-63 -532h-343l66 530l-346 889h360l179 -612h8l332 612h370z" />
    <glyph glyph-name="uni04AF" unicode="&#x4af;" horiz-adv-x="1042" 
d="M539 -420l-324 -35l66 467l-228 1075h348l72 -786h8l305 786h344l-530 -1075z" />
    <glyph glyph-name="uni04B0" unicode="&#x4b0;" horiz-adv-x="1210" 
d="M1331 1419l-487 -766h176l-23 -190h-237l-55 -463h-343l58 463h-238l23 190h174l-297 766h360l179 -612h8l332 612h370z" />
    <glyph glyph-name="uni04B1" unicode="&#x4b1;" horiz-adv-x="1042" 
d="M539 -420l-324 -35l66 461h-197l25 182h135l-191 899h348l72 -786h8l305 786h344l-444 -899h135l-26 -182h-197z" />
    <glyph glyph-name="uni04B2" unicode="&#x4b2;" horiz-adv-x="1212" 
d="M410 754l-291 665h356l150 -442h8l270 442h371l-463 -651l217 -504h172l-74 -604h-235l6 340h-119l-182 526h-8l-301 -526h-373z" />
    <glyph glyph-name="uni04B3" unicode="&#x4b3;" horiz-adv-x="1042" 
d="M987 225h45l-82 -544h-213l8 307q-71 14 -107 60t-79 167l-63 180h-9l-233 -395h-367l430 573l-243 514h354l96 -335h8l189 335h360l-372 -505l96 -205q43 -92 81 -122t101 -30z" />
    <glyph glyph-name="uni04B8" unicode="&#x4b8;" horiz-adv-x="1282" 
d="M88 836q0 31 8 112l58 471h340l-58 -467q-6 -47 -6 -84q0 -154 113 -180l57 459h131l-57 -463q88 16 160 70l81 665h340l-174 -1419h-340l64 524q-80 -53 -160 -73l-22 -177h-129l18 156q-424 6 -424 406z" />
    <glyph glyph-name="uni04B9" unicode="&#x4b9;" horiz-adv-x="1114" 
d="M332 279q-268 0 -269 296q0 57 9 109l57 403h328l-58 -403q-10 -76 4 -106t56 -35l39 272h102l-33 -227q59 41 115 131l51 368h328l-152 -1087h-327l61 434q-53 -61 -111 -92l-22 -176h-102l16 127q-41 -14 -92 -14z" />
    <glyph glyph-name="uni04BA" unicode="&#x4ba;" horiz-adv-x="1292" 
d="M850 965q375 0 375 -404q0 -66 -8 -123l-54 -438h-340l54 434q6 49 6 88q0 104 -42 148t-124 43q-119 0 -244 -95l-74 -618h-340l172 1419h340l-71 -585q176 131 350 131z" />
    <glyph glyph-name="uni04BB" unicode="&#x4bb;" horiz-adv-x="1163" 
d="M836 985q236 0 235 -268q0 -45 -6 -96l-86 -621h-328l80 569q6 43 6 80q0 70 -61 72q-106 0 -244 -262l-65 -459h-326l211 1520l334 34l-111 -776q160 207 361 207z" />
    <glyph glyph-name="uni04C0" unicode="&#x4c0;" horiz-adv-x="600" 
d="M399 0h-340l172 1419h340z" />
    <glyph glyph-name="uni04CB" unicode="&#x4cb;" horiz-adv-x="1314" 
d="M506 430q-198 0 -308 101t-110 307q0 33 8 110l58 471h340l-58 -467q-6 -49 -6 -88q0 -100 45 -141t153 -41t206 72l81 665h340l-141 -1155h164l-76 -604h-233l4 340h-232l64 524q-145 -94 -299 -94z" />
    <glyph glyph-name="uni04CC" unicode="&#x4cc;" horiz-adv-x="1138" 
d="M612 182q0 41 4 64l27 190q-133 -158 -311 -157q-268 0 -269 296q0 57 9 109l57 403h328l-58 -403q-12 -82 5 -112t67 -29q109 0 211 178l51 366h328l-103 -731q-10 -76 6 -102t74 -29h35l-78 -544h-215l8 305q-176 23 -176 196z" />
    <glyph glyph-name="uni04CF" unicode="&#x4cf;" horiz-adv-x="579" 
d="M322 -35q-264 0 -265 266q0 39 6 88l168 1201l334 34l-176 -1245q-10 -84 45 -84q26 0 51 8l35 -229q-98 -39 -198 -39z" />
    <glyph glyph-name="uni04D8" unicode="&#x4d8;" horiz-adv-x="1325" 
d="M604 213q250 0 307 381h-524q-8 -78 -8 -105q0 -276 225 -276zM596 -35q-266 0 -403 156t-138 420q0 133 37 286h846q4 45 4 70q0 309 -248 309q-180 0 -344 -119l-133 191q244 178 541 178q236 0 379 -152t143 -425q0 -430 -192 -672t-492 -242z" />
    <glyph glyph-name="uni04D9" unicode="&#x4d9;" horiz-adv-x="1124" 
d="M467 182q96 0 172 82t102 232q-225 -10 -307 -60t-82 -145q0 -51 31 -80t84 -29zM27 272q0 132 61 212q129 171 668 204q0 111 -42 157t-136 46q-139 0 -304 -92l-104 192q217 133 463 133q190 0 312 -122t122 -343q0 -315 -176 -504t-451 -190q-195 -1 -304 87t-109 220
z" />
    <glyph glyph-name="uni04E2" unicode="&#x4e2;" horiz-adv-x="1349" 
d="M1141 1831l-29 -227h-627l29 227h627zM997 1096l-512 -1096h-426l172 1419h332l-43 -346q-22 -188 -70 -426t-77 -323h8l522 1095h418l-174 -1419h-332l41 338q23 195 70 426t80 332h-9z" />
    <glyph glyph-name="uni04E3" unicode="&#x4e3;" horiz-adv-x="1161" 
d="M1010 1573l-29 -227h-627l31 227h625zM479 229q104 0 205 177l98 681h328l-154 -1087h-284l4 160q-139 -195 -338 -195q-127 0 -196 75t-68 224q0 57 8 109l100 714h328l-100 -716q-12 -80 5 -111t64 -31z" />
    <glyph glyph-name="uni04E8" unicode="&#x4e8;" horiz-adv-x="1411" 
d="M1014 887q0 167 -56 243t-185 76q-128 0 -209 -108t-111 -277h559q2 23 2 66zM655 213q268 0 338 418h-565q-2 -35 -2 -99q0 -168 57 -244t172 -75zM1366 850q0 -351 -170 -606q-84 -127 -225 -203t-322 -76q-266 0 -420 159t-153 447q0 348 169 607q83 126 224 202
t322 76q263 0 419 -160t156 -446z" />
    <glyph glyph-name="uni04E9" unicode="&#x4e9;" horiz-adv-x="1181" 
d="M631 883q-81 0 -141 -65t-87 -177h381q9 242 -153 242zM531 205q87 0 145 70q57 71 82 184h-381q-1 -137 33 -195t121 -59zM643 1124q223 0 349 -128t126 -347q0 -293 -158 -489t-438 -195q-223 0 -351 124t-128 345q1 286 159 488t441 202z" />
    <glyph glyph-name="uni04EE" unicode="&#x4ee;" horiz-adv-x="1196" 
d="M1075 1831l-28 -227h-627l29 227h626zM391 375l-307 1044h336l186 -850h8l363 850h358l-508 -995q-127 -250 -265 -344t-408 -115l-15 234q164 18 240 55t125 121h-113z" />
    <glyph glyph-name="uni04EF" unicode="&#x4ef;" horiz-adv-x="1042" 
d="M971 1573l-29 -227h-627l31 227h625zM250 0l-195 1087h338l82 -862h8l297 862h344l-452 -1075q-94 -223 -262 -339t-441 -128l-12 234q172 18 260 68t139 153h-106z" />
    <glyph glyph-name="uni2007" unicode="&#x2007;" horiz-adv-x="1202" 
 />
    <glyph glyph-name="uni2008" unicode="&#x2008;" horiz-adv-x="509" 
 />
    <glyph glyph-name="uni200B" unicode="&#x200b;" horiz-adv-x="0" 
 />
    <glyph glyph-name="figuredash" unicode="&#x2012;" 
d="M1116 532h-1100l31 254h1100z" />
    <glyph glyph-name="endash" unicode="&#x2013;" horiz-adv-x="1064" 
d="M1012 514h-979l35 254h979z" />
    <glyph glyph-name="emdash" unicode="&#x2014;" horiz-adv-x="1632" 
d="M1577 514h-1544l35 254h1544z" />
    <glyph glyph-name="afii00208" unicode="&#x2015;" horiz-adv-x="1064" 
d="M1012 514h-979l35 254h979z" />
    <glyph glyph-name="quoteleft" unicode="&#x2018;" horiz-adv-x="485" 
d="M305 950q-76 0 -122 44t-46 124t74 203l160 258h164l-125 -324q74 -53 74 -132t-52 -126q-51 -47 -127 -47z" />
    <glyph glyph-name="quoteright" unicode="&#x2019;" horiz-adv-x="483" 
d="M170 1422q0 80 51 126t127 47q76 0 122 -45q46 -44 46 -126t-74 -201l-159 -256h-164l125 323q-74 52 -74 132z" />
    <glyph glyph-name="quotesinglbase" unicode="&#x201a;" horiz-adv-x="483" 
d="M2 121q0 78 51 125t128 47t123 -44t46 -125t-76 -202l-159 -258h-164l125 324q-74 55 -74 133z" />
    <glyph glyph-name="quotedblleft" unicode="&#x201c;" horiz-adv-x="909" 
d="M729 950q-76 0 -122 44t-46 125t76 202l158 258h163l-122 -324q72 -55 72 -133t-52 -125q-51 -47 -127 -47zM305 950q-76 0 -122 44t-46 124t74 203l160 258h164l-125 -324q74 -53 74 -132t-52 -126q-51 -47 -127 -47z" />
    <glyph glyph-name="quotedblright" unicode="&#x201d;" horiz-adv-x="909" 
d="M766 1595q76 0 122 -45q46 -46 46 -126t-76 -201l-158 -256h-163l122 323q-71 52 -71 132t51 126t127 47zM162 1422q0 80 51 126t128 47q77 0 123 -45q46 -46 46 -126t-76 -201l-160 -256h-163l125 323q-74 52 -74 132z" />
    <glyph glyph-name="quotedblbase" unicode="&#x201e;" horiz-adv-x="907" 
d="M428 121q0 78 51 125t127 47t122 -44t46 -125t-76 -202l-157 -258h-164l123 324q-72 55 -72 133zM2 121q0 78 51 125t128 47t123 -44t46 -125t-76 -202l-159 -258h-164l125 324q-74 55 -74 133z" />
    <glyph glyph-name="dagger" unicode="&#x2020;" horiz-adv-x="1077" 
d="M1061 834h-340l-100 -834h-308l103 834h-338l31 264h337l37 293h308l-37 -293h338z" />
    <glyph glyph-name="daggerdbl" unicode="&#x2021;" horiz-adv-x="1077" 
d="M686 561h340l-33 -266h-338l-34 -295h-310l37 295h-336l31 266h336l35 266h-338l33 267h335l39 297h308l-39 -297h340l-33 -267h-338z" />
    <glyph glyph-name="bullet" unicode="&#x2022;" horiz-adv-x="765" 
d="M399 408q-125 0 -210 84t-85 208t84 208q84 83 210 83t210 -84t84 -209q0 -126 -84 -208t-209 -82z" />
    <glyph glyph-name="ellipsis" unicode="&#x2026;" horiz-adv-x="1529" 
d="M1026 152q0 78 54 132t132 54t132 -54t55 -132q0 -78 -54 -132q-55 -54 -133 -55q-78 1 -132 55t-54 132zM8 152q0 78 54 132t132 54t132 -54q55 -54 55 -132t-55 -132t-132 -55q-77 0 -132 54q-54 55 -54 133zM516 152q0 78 55 132t133 54t131 -54q54 -54 54 -132
t-54 -132t-131 -55q-77 0 -133 54q-55 55 -55 133z" />
    <glyph glyph-name="perthousand" unicode="&#x2030;" horiz-adv-x="2533" 
d="M1712 289q0 193 108 303t269 110t261 -92t99 -250q0 -158 -104 -276q-104 -119 -289 -119q-147 0 -246 90q-98 90 -98 234zM2214 365q0 141 -128 141q-64 0 -102 -58t-38 -138q0 -150 120 -150q74 0 111 57t37 148zM928 289q0 193 108 303t270 110t260 -92t99 -250
q0 -158 -104 -276q-104 -119 -289 -119q-147 0 -246 90q-98 90 -98 234zM1161 310q1 -150 131 -150q64 0 101 57t37 148q0 141 -126 141q-62 0 -103 -58q-40 -58 -40 -138zM870 1072q0 -158 -104 -276q-104 -120 -291 -120q-147 0 -245 90q-97 90 -97 233q0 193 108 304
t269 111t261 -92q99 -92 99 -250zM635 1075q1 144 -127 144q-64 1 -102 -57t-39 -138q0 -154 118 -154q74 0 112 58t38 147zM1563 1343l-1127 -1427l-188 131l1122 1428z" />
    <glyph glyph-name="guilsinglleft" unicode="&#x2039;" horiz-adv-x="737" 
d="M401 588l203 -422l-217 -133l-328 456l29 207l457 449l178 -144z" />
    <glyph glyph-name="guilsinglright" unicode="&#x203a;" horiz-adv-x="739" 
d="M336 590l-203 422l217 133l328 -457l-29 -207l-456 -448l-179 143z" />
    <glyph glyph-name="fraction" unicode="&#x2044;" horiz-adv-x="286" 
d="M786 1458l-1060 -1640l-193 104l1059 1643z" />
    <glyph glyph-name="uni2070" unicode="&#x2070;" horiz-adv-x="819" 
d="M809 1194q0 -250 -95 -407t-294 -156q-309 0 -309 342q0 271 106 417t289 146q303 0 303 -342zM496 1366q-121 0 -138 -389q-15 -176 72 -176q61 1 90 83t41 209t10 177q-8 96 -75 96z" />
    <glyph glyph-name="uni2074" unicode="&#x2074;" horiz-adv-x="819" 
d="M776 819h-94l-20 -174h-228l21 174h-377l18 156l299 563l193 -68l-242 -477h133l60 197h188l-22 -197h94z" />
    <glyph glyph-name="uni2075" unicode="&#x2075;" horiz-adv-x="819" 
d="M766 979q0 -152 -101 -250t-268 -98q-209 0 -327 137l149 115q79 -76 153 -76t110 43q36 44 36 102q0 112 -88 111q-43 0 -96 -29h-170l59 486h568l-43 -166h-314l-20 -160q59 31 127 31q105 -1 165 -67t60 -179z" />
    <glyph glyph-name="uni2076" unicode="&#x2076;" horiz-adv-x="819" 
d="M483 1077q-66 0 -123 -63q-8 -53 -4 -101q6 -119 86 -118q49 0 81 46t32 141t-72 95zM566 1370q-71 0 -121 -58t-70 -159q84 82 189 82q104 0 168 -67t65 -181q-1 -156 -101 -256t-259 -100t-243 93t-83 253q0 251 128 405t336 154q130 0 218 -66l-107 -133
q-49 33 -120 33z" />
    <glyph glyph-name="uni2077" unicode="&#x2077;" horiz-adv-x="819" 
d="M807 1378l-424 -755l-203 77l367 643h-369l21 179h624z" />
    <glyph glyph-name="uni2078" unicode="&#x2078;" horiz-adv-x="819" 
d="M500 1378q-98 0 -99 -92q0 -66 91 -100q86 51 86 127q0 65 -78 65zM430 797q55 -1 90 29t35 79q0 74 -131 121q-100 -55 -100 -142t106 -87zM809 1329q0 -145 -178 -209q164 -74 164 -203q1 -129 -99 -207t-271 -79q-171 0 -258 62t-87 165q0 172 213 244
q-127 68 -127 182t88 183t242 69t234 -58q79 -58 79 -149z" />
    <glyph glyph-name="uni2079" unicode="&#x2079;" horiz-adv-x="819" 
d="M442 1110q66 0 117 53q10 68 10 101q0 106 -84 106q-51 0 -85 -43t-34 -130t76 -87zM356 952q-104 0 -169 68t-64 176q0 152 104 246t263 94t240 -79t81 -220q0 -258 -160 -408t-487 -217l-29 166q311 66 412 244l-4 4q-83 -74 -187 -74z" />
    <glyph glyph-name="uni207A" unicode="&#x207a;" horiz-adv-x="819" 
d="M596 1284l-23 -186h183l-21 -178h-184l-23 -185h-209l23 185h-182l22 178h183l24 186h207z" />
    <glyph glyph-name="uni207B" unicode="&#x207b;" horiz-adv-x="819" 
d="M733 922h-573l22 178h574z" />
    <glyph glyph-name="uni207C" unicode="&#x207c;" horiz-adv-x="819" 
d="M717 782h-576l23 176h575zM750 1057h-574l21 176h575z" />
    <glyph glyph-name="uni207D" unicode="&#x207d;" horiz-adv-x="819" 
d="M477 819q0 -221 98 -405l-153 -95q-84 139 -128 263t-44 282q0 250 88 430t248 369l137 -98q-246 -319 -246 -746z" />
    <glyph glyph-name="uni207E" unicode="&#x207e;" horiz-adv-x="819" 
d="M430 1163q0 225 -96 406l153 94q82 -139 126 -263t44 -282q1 -250 -87 -432t-248 -367l-138 99q246 315 246 745z" />
    <glyph glyph-name="uni2080" unicode="&#x2080;" horiz-adv-x="819" 
d="M764 131q0 -251 -95 -407t-294 -156q-309 0 -309 342q0 272 106 418t289 145q303 0 303 -342zM451 303q-121 0 -138 -389q-15 -176 72 -176q61 0 90 82t41 210q12 127 10 177q-8 96 -75 96z" />
    <glyph glyph-name="uni2081" unicode="&#x2081;" horiz-adv-x="819" 
d="M569 -418h-235l78 635l-193 -100l-92 159l346 181h203z" />
    <glyph glyph-name="uni2082" unicode="&#x2082;" horiz-adv-x="819" 
d="M743 230q0 -110 -101 -221q-101 -110 -294 -249h369l-47 -178h-625l21 158q260 209 344 306t84 167q0 35 -22 55t-58 21q-80 0 -164 -84l-133 112q156 156 350 156q131 0 204 -66q72 -67 72 -177z" />
    <glyph glyph-name="uni2083" unicode="&#x2083;" horiz-adv-x="819" 
d="M442 471q137 0 213 -57q76 -56 76 -138q0 -170 -190 -225l-2 -6q80 -13 126 -67t46 -125q-1 -123 -101 -205t-268 -82q-100 0 -190 37t-142 100l140 117q84 -82 180 -82q66 0 102 35t37 92q0 96 -131 96h-80l49 162h53q127 0 127 102q0 74 -87 74t-191 -74l-103 127
q158 119 336 119z" />
    <glyph glyph-name="uni2084" unicode="&#x2084;" horiz-adv-x="819" 
d="M731 -244h-94l-21 -174h-227l21 174h-377l18 156l299 563l193 -67l-242 -478h133l60 197h188l-23 -197h95z" />
    <glyph glyph-name="uni2085" unicode="&#x2085;" horiz-adv-x="819" 
d="M721 -84q0 -152 -101 -250t-268 -98q-209 0 -327 137l149 115q78 -76 152 -76t111 43q36 43 36 101q0 112 -88 112q-43 0 -96 -29h-170l59 486h567l-43 -166h-313l-20 -160q57 31 144 31t147 -66t61 -180z" />
    <glyph glyph-name="uni2086" unicode="&#x2086;" horiz-adv-x="819" 
d="M440 14q-66 0 -123 -63q-8 -53 -4 -101q6 -119 86 -118q49 0 81 46t32 141t-72 95zM523 307q-71 0 -121 -58t-70 -159q84 82 189 82t169 -67t64 -181q0 -156 -100 -256t-260 -100q-158 0 -242 93t-84 253q0 250 128 404t336 155q130 1 218 -65l-107 -134q-49 33 -120 33z
" />
    <glyph glyph-name="uni2087" unicode="&#x2087;" horiz-adv-x="819" 
d="M764 313l-424 -755l-203 77l367 644h-369l21 178h624z" />
    <glyph glyph-name="uni2088" unicode="&#x2088;" horiz-adv-x="819" 
d="M455 315q-98 0 -99 -92q0 -66 90 -100q86 53 86 127q1 65 -77 65zM385 -266q55 0 90 30t35 78q0 74 -131 121q-100 -55 -100 -142t106 -87zM764 266q0 -145 -178 -209q164 -74 164 -203q0 -130 -100 -208t-270 -78q-171 0 -258 62t-87 165q0 172 213 244
q-127 68 -127 182t88 183q89 69 243 69q154 1 233 -57t79 -150z" />
    <glyph glyph-name="uni2089" unicode="&#x2089;" horiz-adv-x="819" 
d="M397 47q66 0 117 53q10 68 10 101q0 106 -84 106q-51 0 -85 -43t-34 -130t76 -87zM310 -111q-104 0 -168 68q-65 68 -64 176q0 152 104 246t263 94t240 -79t81 -220q0 -258 -160 -408t-487 -217l-29 166q311 66 412 244l-4 4q-84 -74 -188 -74z" />
    <glyph glyph-name="uni208A" unicode="&#x208a;" horiz-adv-x="819" 
d="M551 270l-23 -186h183l-21 -178h-184l-23 -185h-209l23 185h-182l22 178h182l25 186h207z" />
    <glyph glyph-name="uni208B" unicode="&#x208b;" horiz-adv-x="819" 
d="M688 -92h-573l22 178h574z" />
    <glyph glyph-name="uni208C" unicode="&#x208c;" horiz-adv-x="819" 
d="M678 -225h-576l23 176h575zM711 49h-574l21 176h575z" />
    <glyph glyph-name="uni208D" unicode="&#x208d;" horiz-adv-x="819" 
d="M432 -195q0 -221 98 -405l-153 -94q-84 139 -128 263t-44 281q0 250 88 430t248 369l137 -98q-246 -319 -246 -746z" />
    <glyph glyph-name="uni208E" unicode="&#x208e;" horiz-adv-x="819" 
d="M385 150q0 225 -96 405l153 94q82 -139 126 -263t44 -282q0 -250 -88 -431t-248 -367l-137 98q246 315 246 746z" />
    <glyph glyph-name="Euro" unicode="&#x20ac;" horiz-adv-x="1208" 
d="M866 1413q222 0 391 -113l-137 -198q-111 80 -235 80q-219 0 -310 -248h486l-66 -170h-460q-10 -59 -15 -146h428l-65 -169h-359q27 -246 252 -246q143 0 307 104l-30 -260q-174 -82 -334 -82q-227 0 -364 127q-136 127 -158 357h-193l64 169h127q2 63 16 146h-166
l66 170h141q74 223 233 351t381 128z" />
    <glyph glyph-name="uni2116" unicode="&#x2116;" horiz-adv-x="2365" 
d="M932 428q0 236 35 526l57 465h301l-172 -1419h-430l-268 1096h-9q2 -25 2 -203t-28 -408l-60 -485h-301l172 1419h420l277 -1097h8q-4 53 -4 106zM2161 0h-865l31 254h864zM1878 1251q-102 0 -149 -98t-48 -244q0 -180 138 -180q100 0 148 98t48 244q0 180 -137 180z
M1886 1454q188 0 301 -108t113 -285q0 -231 -131 -384t-361 -153q-188 0 -300 106t-111 285q0 233 133 386t356 153z" />
    <glyph glyph-name="trademark" unicode="&#x2122;" horiz-adv-x="1837" 
d="M1042 1210h-8q10 -184 10 -231l-8 -373h-219l29 813h307l131 -483h10l109 483h321l29 -813h-229l-8 373q-2 113 12 231h-8l-138 -520h-186zM530 1231v-625h-239v625h-234v188h729l-32 -188h-224z" />
    <glyph glyph-name="Omega" unicode="&#x2126;" horiz-adv-x="1437" 
d="M102 692q0 195 80 367q80 173 245 285t382 112q262 0 419 -157t156 -418q0 -217 -93 -386t-247 -243l-2 -8h224l-29 -244h-514l31 231q121 33 199 201q79 168 79 449q0 178 -58 252t-171 73q-174 0 -265 -173t-92 -466q0 -260 154 -336l-29 -231h-514l29 244h238l2 8
q-104 72 -164 190t-60 250z" />
    <glyph glyph-name="estimated" unicode="&#x212e;" horiz-adv-x="1935" 
d="M1479 764v391q-188 203 -522 203t-500 -203v-391h1022zM1776 684h-1319v-434q59 -90 209 -142t302 -52t297 50q146 51 226 146h117q-238 -276 -641 -277q-346 0 -577 205q-230 205 -230 519t235 527q236 212 570 212q335 0 573 -213t238 -541z" />
    <glyph glyph-name="onethird" unicode="&#x2153;" horiz-adv-x="1925" 
d="M1565 889q137 1 213 -57t76 -139q-1 -170 -191 -224l-2 -6q80 -13 126 -67t46 -126q0 -122 -100 -204t-269 -82q-100 0 -190 36t-141 101l139 117q84 -82 180 -82q66 0 102 34t37 93q0 96 -131 96h-80l50 162h53q127 0 127 102q0 74 -88 74t-191 -74l-102 127
q158 119 336 119zM623 567h-236l78 635l-193 -100l-92 160l346 180h203zM1606 1458l-1061 -1640l-193 104l1059 1643z" />
    <glyph glyph-name="twothirds" unicode="&#x2154;" horiz-adv-x="1925" 
d="M1552 889q137 1 213 -57t76 -139q0 -169 -190 -224l-2 -6q80 -13 126 -67t46 -126q-1 -122 -101 -204t-268 -82q-100 0 -190 36t-142 101l140 117q84 -82 180 -82q66 0 102 34t37 93q0 96 -131 96h-80l49 162h53q127 0 127 102q0 74 -87 74t-191 -74l-102 127
q158 119 335 119zM764 1214q0 -110 -101 -220t-294 -249h368l-47 -178h-624l20 158q260 209 344 306t84 167q0 35 -21 55q-22 20 -59 21q-80 0 -164 -84l-133 113q156 156 350 155q131 0 204 -66q73 -68 73 -178zM1606 1458l-1061 -1640l-193 104l1059 1643z" />
    <glyph glyph-name="uni2155" unicode="&#x2155;" horiz-adv-x="1925" 
d="M1831 334q0 -152 -101 -250t-268 -98q-209 0 -327 137l149 115q78 -76 152 -76t111 43q36 43 36 101q0 112 -88 112q-43 0 -96 -29h-170l59 485h567l-43 -165h-313l-20 -160q57 31 144 31t147 -66t61 -180zM623 567h-236l78 635l-193 -100l-92 160l346 180h203z
M1606 1458l-1061 -1640l-193 104l1059 1643z" />
    <glyph glyph-name="uni2156" unicode="&#x2156;" horiz-adv-x="1925" 
d="M1831 334q0 -152 -101 -250t-268 -98q-209 0 -327 137l149 115q78 -76 152 -76t111 43q36 43 36 101q0 112 -88 112q-43 0 -96 -29h-170l59 485h567l-43 -165h-313l-20 -160q57 31 144 31t147 -66t61 -180zM772 1214q0 -110 -101 -220t-294 -249h368l-47 -178h-624
l20 158q260 209 344 306t84 167q0 35 -21 55q-22 20 -59 21q-80 0 -163 -84l-134 113q156 156 351 155q132 0 204 -66q72 -68 72 -178zM1606 1458l-1061 -1640l-193 104l1059 1643z" />
    <glyph glyph-name="uni2157" unicode="&#x2157;" horiz-adv-x="1925" 
d="M475 1458q137 0 213 -57t76 -139q0 -170 -191 -224l-2 -6q80 -14 126 -67t46 -125q0 -123 -100 -205t-268 -82q-101 0 -191 37t-141 100l139 117q84 -82 180 -82q66 0 103 35t37 92q0 96 -131 96h-80l49 162h53q127 0 127 102q0 74 -87 74t-191 -74l-103 127
q158 119 336 119zM1831 334q0 -152 -101 -250t-268 -98q-209 0 -327 137l149 115q78 -76 152 -76t111 43q36 43 36 101q0 112 -88 112q-43 0 -96 -29h-170l59 485h567l-43 -165h-313l-20 -160q57 31 144 31t147 -66t61 -180zM1606 1458l-1061 -1640l-193 104l1059 1643z" />
    <glyph glyph-name="uni2158" unicode="&#x2158;" horiz-adv-x="1925" 
d="M778 741h-94l-20 -174h-228l21 174h-377l18 156l299 563l193 -67l-242 -478h133l60 197h188l-22 -197h94zM1808 334q0 -152 -101 -250t-267 -98q-209 0 -328 137l150 115q78 -76 152 -76t111 43q36 43 36 101q0 112 -88 112q-43 0 -97 -29h-170l60 485h567l-43 -165h-313
l-21 -160q59 31 127 31q105 0 165 -66t60 -180zM1606 1458l-1061 -1640l-193 104l1059 1643z" />
    <glyph glyph-name="uni2159" unicode="&#x2159;" horiz-adv-x="1925" 
d="M1526 432q-66 0 -123 -63q-8 -53 -4 -101q6 -119 86 -118q49 0 81 46t32 141t-72 95zM1609 725q-71 0 -121 -58t-71 -159q83 82 189 82t170 -67t63 -181q0 -156 -100 -256t-259 -100t-243 93t-84 253q0 250 128 404t337 155q129 0 217 -66l-106 -133q-49 33 -120 33z
M623 567h-236l78 635l-193 -100l-92 160l346 180h203zM1606 1458l-1061 -1640l-193 104l1059 1643z" />
    <glyph glyph-name="uni215A" unicode="&#x215a;" horiz-adv-x="1925" 
d="M772 901q0 -152 -101 -250t-268 -98q-209 0 -327 137l149 115q79 -76 153 -76t110 43q36 44 36 102q0 112 -88 111q-43 0 -96 -29h-170l59 486h568l-43 -166h-314l-20 -160q59 31 127 31q105 -1 165 -67t60 -179zM1520 432q-66 0 -123 -63q-8 -53 -4 -101q6 -119 86 -118
q49 0 81 46t32 141t-72 95zM1602 725q-70 0 -120 -58t-71 -159q83 82 189 82t169 -67t64 -181q0 -156 -100 -256q-99 -100 -259 -100t-244 93t-83 253q0 250 128 404t337 155q129 0 217 -66l-107 -133q-50 33 -120 33zM1606 1458l-1061 -1640l-193 104l1059 1643z" />
    <glyph glyph-name="oneeighth" unicode="&#x215b;" horiz-adv-x="1925" 
d="M1556 733q-98 0 -98 -92q0 -66 90 -100q86 53 86 127q0 65 -78 65zM1487 152q55 0 90 30t35 78q0 74 -131 121q-100 -55 -101 -141q1 -88 107 -88zM1866 684q0 -145 -178 -209q164 -74 164 -203q0 -130 -100 -208q-99 -78 -270 -78t-258 62t-87 165q0 172 213 244
q-127 68 -127 182t88 183q89 69 243 69q154 1 233 -57t79 -150zM623 567h-236l78 635l-193 -100l-92 160l346 180h203zM1606 1458l-1061 -1640l-193 104l1059 1643z" />
    <glyph glyph-name="threeeighths" unicode="&#x215c;" horiz-adv-x="1925" 
d="M475 1458q137 0 213 -57t76 -139q0 -170 -191 -224l-2 -6q80 -14 126 -67t46 -125q0 -123 -100 -205t-268 -82q-101 0 -191 37t-141 100l139 117q84 -82 180 -82q66 0 103 35t37 92q0 96 -131 96h-80l49 162h53q127 0 127 102q0 74 -87 74t-191 -74l-103 127
q158 119 336 119zM1556 733q-98 0 -98 -92q0 -66 90 -100q86 53 86 127q0 65 -78 65zM1487 152q55 0 90 30t35 78q0 74 -131 121q-100 -55 -101 -141q1 -88 107 -88zM1866 684q0 -145 -178 -209q164 -74 164 -203q0 -130 -100 -208q-99 -78 -270 -78t-258 62t-87 165
q0 172 213 244q-127 68 -127 182t88 183q89 69 243 69q154 1 233 -57t79 -150zM1606 1458l-1061 -1640l-193 104l1059 1643z" />
    <glyph glyph-name="fiveeighths" unicode="&#x215d;" horiz-adv-x="1925" 
d="M1536 733q-98 0 -98 -92q0 -66 90 -100q86 53 86 127q0 65 -78 65zM1466 152q55 0 90 30t35 78q0 74 -131 121q-100 -55 -100 -142t106 -87zM1845 684q0 -145 -178 -209q164 -74 164 -203q0 -130 -99 -208q-98 -78 -270 -78t-259 62t-87 165q0 172 213 244
q-127 68 -127 182t88 183t242 69q154 1 234 -57q79 -58 79 -150zM772 901q0 -152 -101 -250t-268 -98q-209 0 -327 137l149 115q79 -76 153 -76t110 43q36 44 36 102q0 112 -88 111q-43 0 -96 -29h-170l59 486h568l-43 -166h-314l-20 -160q59 31 127 31q105 -1 165 -67
t60 -179zM1606 1458l-1061 -1640l-193 104l1059 1643z" />
    <glyph glyph-name="seveneighths" unicode="&#x215e;" horiz-adv-x="1925" 
d="M866 1300l-424 -755l-202 78l366 643h-368l20 178h625zM1536 733q-98 0 -98 -92q0 -66 90 -100q86 53 86 127q0 65 -78 65zM1466 152q55 0 90 30t35 78q0 74 -131 121q-100 -55 -100 -142t106 -87zM1845 684q0 -145 -178 -209q164 -74 164 -203q0 -130 -99 -208
q-98 -78 -270 -78t-259 62t-87 165q0 172 213 244q-127 68 -127 182t88 183t242 69q154 1 234 -57q79 -58 79 -150zM1606 1458l-1061 -1640l-193 104l1059 1643z" />
    <glyph glyph-name="uni215F" unicode="&#x215f;" horiz-adv-x="1925" 
d="M623 567h-236l78 635l-193 -100l-92 160l346 180h203zM1606 1458l-1061 -1640l-193 104l1059 1643z" />
    <glyph glyph-name="arrowleft" unicode="&#x2190;" horiz-adv-x="1843" 
d="M1677 541h-1050l-2 -6q96 -59 221 -197l155 -170l-215 -184l-620 690l620 690l215 -184l-155 -170q-125 -137 -221 -197l2 -6h1050v-266z" />
    <glyph glyph-name="arrowup" unicode="&#x2191;" horiz-adv-x="1843" 
d="M1073 0h-303v1026l-6 2q-74 -115 -186 -215l-164 -149l-191 200l699 633l698 -633l-190 -200l-203 186q-84 76 -148 178l-6 -2v-1026z" />
    <glyph glyph-name="arrowright" unicode="&#x2192;" horiz-adv-x="1843" 
d="M166 541v266h1051l2 6q-82 49 -224 201l-153 166l215 184l620 -690l-620 -690l-215 184l190 207q102 111 187 160l-2 6h-1051z" />
    <glyph glyph-name="arrowdown" unicode="&#x2193;" horiz-adv-x="1843" 
d="M1073 1444v-1026l6 -2q59 102 185 213l166 151l190 -202l-698 -629l-699 629l191 202l202 -186q92 -82 148 -178l6 2v1026h303z" />
    <glyph glyph-name="arrowboth" unicode="&#x2194;" horiz-adv-x="2621" 
d="M2003 541h-1385l-2 -6q88 -53 222 -197l155 -170l-213 -184l-622 690l622 690l213 -184l-190 -207q-102 -111 -187 -160l2 -6h1385l2 6q-88 53 -221 197l-156 170l213 184l623 -690l-623 -690l-213 184l191 207q102 111 186 160z" />
    <glyph glyph-name="arrowupdn" unicode="&#x2195;" horiz-adv-x="1843" 
d="M1073 1358v-1346l6 -2q57 94 185 213l166 152l190 -203l-698 -631l-699 631l191 203l166 -152q131 -123 184 -213l6 2v1346l-6 2q-59 -100 -184 -213l-166 -154l-191 203l699 631l698 -631l-190 -203l-166 154q-125 115 -185 213z" />
    <glyph glyph-name="uni2196" unicode="&#x2196;" horiz-adv-x="1843" 
d="M791 1012l745 -748l-205 -207l-739 744l-6 -2q28 -102 28 -181t-2 -116l-12 -230l-293 17l47 948l946 47l19 -264l-289 -16q-66 -4 -109 -4t-128 18z" />
    <glyph glyph-name="uni2197" unicode="&#x2197;" horiz-adv-x="1843" 
d="M1227 598q0 78 30 201l-6 2l-739 -744l-205 207l746 748l-2 6q-102 -20 -142 -20t-106 3l-279 19l19 264l946 -47l47 -948l-293 -17l-14 217q-2 31 -2 109z" />
    <glyph glyph-name="uni2198" unicode="&#x2198;" horiz-adv-x="1843" 
d="M908 315q70 0 143 -18l2 6l-746 750l205 204l739 -743l6 2q-31 92 -30 186q0 20 4 111l12 231l293 -18l-47 -948l-946 -45l-19 264l289 16q25 2 95 2z" />
    <glyph glyph-name="uni2199" unicode="&#x2199;" horiz-adv-x="1843" 
d="M936 315q56 0 141 -4l242 -14l-19 -264l-946 45l-47 948l293 18l16 -278q6 -125 -30 -250l6 -2l739 743l205 -204l-745 -750l2 -6q87 18 143 18z" />
    <glyph glyph-name="uni21E6" unicode="&#x21e6;" horiz-adv-x="2048" 
d="M1794 477v328h-1194v227l-387 -391l387 -391v227h1194zM1884 793v-304q0 -47 -29 -75t-73 -27h-1090v-360l-610 614l610 614v-360h1090q46 1 74 -27t28 -75z" />
    <glyph glyph-name="uni21E7" unicode="&#x21e7;" horiz-adv-x="1474" 
d="M565 66h344v1120h219l-391 387l-391 -387h219v-1120zM903 -25h-332q-47 0 -75 29t-27 74v1016h-346l614 610l615 -610h-346v-1016q0 -45 -28 -74t-75 -29z" />
    <glyph glyph-name="uni21E8" unicode="&#x21e8;" horiz-adv-x="2048" 
d="M254 805v-328h1194v-227l387 391l-387 391v-227h-1194zM164 489v304q0 47 29 75t73 27h1090v360l610 -614l-610 -614v360h-1090q-46 -1 -74 27t-28 75z" />
    <glyph glyph-name="uni21E9" unicode="&#x21e9;" horiz-adv-x="1474" 
d="M909 1446h-344v-1120h-219l391 -387l391 387h-219v1120zM571 1536h332q47 0 75 -29t28 -73v-1016h346l-615 -611l-614 611h346v1016q-1 46 27 74t75 28z" />
    <glyph glyph-name="uni21EA" unicode="&#x21ea;" horiz-adv-x="1474" 
d="M909 231h-344v-165h344v165zM565 608h344v578h219l-391 387l-391 -387h219v-578zM469 317h537v-239q0 -45 -28 -74t-75 -29h-332q-47 0 -75 29t-27 74v239zM1006 522h-537v572h-346l614 610l615 -610h-346v-572z" />
    <glyph glyph-name="partialdiff" unicode="&#x2202;" horiz-adv-x="1138" 
d="M510 197q190 0 217 356q-70 119 -184 119q-82 0 -132 -72t-51 -215q0 -90 42 -139t108 -49zM33 408q0 214 126 358q127 144 313 143q186 0 286 -153l6 4q-42 211 -148 304t-362 150l96 228q381 -76 550 -251t169 -504t-153 -525t-424 -197q-213 0 -336 114
q-123 115 -123 329z" />
    <glyph glyph-name="Delta" unicode="&#x2206;" horiz-adv-x="1218" 
d="M1178 0h-1282l610 1419h412zM686 1151h-8l-336 -901h457z" />
    <glyph glyph-name="product" unicode="&#x220f;" horiz-adv-x="1294" 
d="M989 -420l-309 -35l184 1592h-291l-180 -1557l-315 -35l184 1592h-139l31 247h1187l-30 -247h-142z" />
    <glyph glyph-name="summation" unicode="&#x2211;" horiz-adv-x="1091" 
d="M784 756l-16 -138l-381 -372h571l-28 -246h-942l30 236l469 471l-358 442l29 235h942l-31 -245h-592z" />
    <glyph glyph-name="minus" unicode="&#x2212;" horiz-adv-x="1062" 
d="M969 526h-893l33 252h892z" />
    <glyph glyph-name="uni2215" unicode="&#x2215;" horiz-adv-x="286" 
d="M741 1458l-977 -1640l-196 104l977 1643z" />
    <glyph glyph-name="uni2219" unicode="&#x2219;" horiz-adv-x="509" 
d="M68 673q0 77 54 131t132 54t132 -54t54 -131t-54 -132t-132 -55t-132 54q-54 56 -54 133z" />
    <glyph glyph-name="radical" unicode="&#x221a;" horiz-adv-x="1118" 
d="M1143 1542l-611 -1542h-372l-238 952l307 74l131 -737h9l555 1501h639l-31 -248h-389z" />
    <glyph glyph-name="infinity" unicode="&#x221e;" horiz-adv-x="1843" 
d="M582 864q-88 0 -141 -69q-52 -71 -52 -171t42 -148t112 -48q154 0 276 252q-81 184 -237 184zM1274 428q88 0 140 70t52 170t-43 148t-110 48q-154 0 -277 -252q82 -184 238 -184zM1284 180q-135 0 -236 65t-161 171q-178 -236 -408 -236q-188 0 -301 111t-112 289
q0 242 136 387t369 145q135 0 237 -64q101 -65 159 -174q176 238 409 238q188 0 300 -111t112 -288q0 -241 -136 -387t-368 -146z" />
    <glyph glyph-name="integral" unicode="&#x222b;" horiz-adv-x="948" 
d="M96 -455q-176 0 -321 88l110 203q86 -49 174 -49q123 0 140 147l176 1446q47 385 426 385q180 0 332 -90l-113 -202q-96 53 -182 53q-122 0 -140 -150l-176 -1446q-47 -385 -426 -385z" />
    <glyph glyph-name="approxequal" unicode="&#x2248;" horiz-adv-x="1062" 
d="M670 260q-108 0 -208 60t-146 61q-44 0 -74 -27t-66 -84l-166 97q154 256 355 256q100 1 200 -59q101 -60 145 -60t74 26t64 82l168 -96q-72 -116 -154 -186q-84 -70 -192 -70zM713 688q-101 0 -201 60t-141 61q-78 0 -144 -111l-168 95q156 258 355 258q78 0 142 -30
q64 -29 113 -59q48 -30 92 -30t74 26t64 82l168 -96q-157 -256 -354 -256z" />
    <glyph glyph-name="notequal" unicode="&#x2260;" horiz-adv-x="1062" 
d="M942 307h-536l-203 -280l-160 98l131 182h-125l31 250h274l135 188h-387l33 248h535l200 277l160 -94l-131 -183h129l-33 -248h-276l-135 -188h389z" />
    <glyph glyph-name="lessequal" unicode="&#x2264;" horiz-adv-x="1062" 
d="M905 0h-893l31 248h893zM864 362l-774 338l35 287l858 344l74 -233l-674 -258l612 -242z" />
    <glyph glyph-name="greaterequal" unicode="&#x2265;" horiz-adv-x="1062" 
d="M260 1329l772 -342l-35 -289l-856 -338l-71 236l673 254l-612 246zM905 0h-893l31 248h893z" />
    <glyph glyph-name="dotmath" unicode="&#x22c5;" horiz-adv-x="509" 
d="M68 673q0 77 54 131t132 54t132 -54t54 -131t-54 -132t-132 -55t-132 54q-54 56 -54 133z" />
    <glyph glyph-name="uni2326" unicode="&#x2326;" horiz-adv-x="2867" 
d="M307 -25q-45 0 -74 29t-28 74v1280q0 47 28 75q29 28 74 27h1700l778 -739l-778 -746h-1700zM1030 727l-315 -315l137 -138l315 316l316 -316l137 138l-315 315l315 313l-137 142l-316 -318l-315 318l-137 -142z" />
    <glyph glyph-name="uni2327" unicode="&#x2327;" horiz-adv-x="2539" 
d="M2232 -25h-1925q-45 0 -74 29t-28 74v1280q0 47 28 75q29 28 74 27h1925q45 0 74 -28t29 -74v-1280q0 -45 -29 -74t-74 -29zM1133 727l-316 -315l137 -138l316 316l315 -316l137 138l-315 315l315 313l-137 142l-315 -318l-316 318l-137 -142z" />
    <glyph glyph-name="uni2328" unicode="&#x2328;" horiz-adv-x="2990" 
d="M2128 324h-1258q-16 0 -28 -12t-13 -29v-152q1 -17 13 -29t28 -12h1258q16 0 29 12q12 12 12 29v152q-1 17 -13 29t-28 12zM2210 662h-152q-16 0 -28 -12t-13 -29v-152q1 -17 13 -29t28 -12h152q16 0 28 12t13 29v152q-1 17 -13 29t-28 12zM1841 662h-151q-16 0 -28 -12
t-13 -29v-152q0 -17 12 -29t29 -12h151q16 0 29 12q12 12 12 29v152q0 17 -12 29t-29 12zM1473 662h-152q-17 0 -29 -12t-12 -29v-152q0 -17 12 -29t29 -12h152q16 0 28 12t12 29v152q0 17 -12 29t-28 12zM1104 662h-152q-16 0 -28 -12t-13 -29v-152q1 -17 13 -29t28 -12
h152q16 0 29 12q12 12 12 29v152q-1 17 -13 29t-28 12zM735 662h-151q-16 0 -28 -12t-13 -29v-152q0 -17 12 -29t29 -12h151q16 0 29 12q12 12 12 29v152q0 17 -12 29t-29 12zM2128 1010h-152q-16 0 -28 -12t-13 -29v-152q1 -17 13 -29t28 -12h152q16 0 29 12q12 12 12 29
v152q-1 17 -13 29t-28 12zM1759 1010h-151q-16 0 -28 -12t-13 -29v-152q0 -17 12 -29t29 -12h151q16 0 29 12q12 12 12 29v152q0 17 -12 29t-29 12zM1391 1010h-152q-17 0 -29 -12t-12 -29v-152q0 -17 12 -29t29 -12h152q16 0 28 12t13 29v152q0 17 -12 29t-29 12z
M1022 1010h-152q-16 0 -28 -12t-13 -29v-152q1 -17 13 -29t28 -12h152q16 0 29 12q12 12 12 29v152q-1 17 -13 29t-28 12zM653 1010h-151q-16 0 -28 -12t-13 -29v-152q0 -17 12 -29t29 -12h151q16 0 29 12q12 12 12 29v152q0 17 -12 29t-29 12zM2386 735v-266q0 -17 12 -29
t29 -12h110q16 0 29 12q12 12 12 29v500q0 16 -12 28t-29 13h-192q-17 0 -29 -12t-12 -29v-152q0 -17 12 -29t28 -12t30 -12q12 -13 12 -29zM2537 1348h-274q-17 0 -29 -12t-12 -29v-152q0 -17 12 -29t29 -12h274q16 0 29 12q12 12 12 29v152q0 17 -12 29t-29 12zM2046 1348
h-152q-16 0 -28 -12t-13 -29v-152q1 -17 13 -29t28 -12h152q16 0 29 12q12 12 12 29v152q-1 17 -13 29t-28 12zM1677 1348h-151q-16 0 -28 -12t-13 -29v-152q0 -17 12 -29t29 -12h151q16 0 29 12q12 12 12 29v152q0 17 -12 29t-29 12zM1309 1348h-152q-17 0 -29 -12t-12 -29
v-152q0 -17 12 -29t29 -12h152q16 0 28 12t13 29v152q0 17 -12 29t-29 12zM940 1348h-152q-16 0 -28 -12t-12 -29v-152q0 -17 12 -29t28 -12h152q16 0 29 12q12 12 12 29v152q-1 17 -13 29t-28 12zM571 1348h-151q-16 0 -28 -12t-13 -29v-152q0 -17 12 -29t29 -12h151
q16 0 29 12q12 12 12 29v152q0 17 -12 29t-29 12zM2642 -25h-2294q-45 0 -74 29t-28 74v1280q0 47 28 75q29 28 74 27h2294q45 0 74 -28t28 -74v-1280q0 -45 -28 -74t-74 -29z" />
    <glyph glyph-name="uni232B" unicode="&#x232b;" horiz-adv-x="2867" 
d="M2560 -25h-1700l-778 746l778 739h1700q45 0 74 -28t28 -74v-1280q0 -45 -28 -74t-74 -29zM2152 412l-315 315l315 313l-137 142l-315 -318l-316 318l-137 -142l316 -313l-316 -315l137 -138l316 316l315 -316z" />
    <glyph glyph-name="uni23CE" unicode="&#x23ce;" horiz-adv-x="2048" 
d="M1749 477v969h-344v-641h-805v227l-387 -391l387 -391v227h1149zM1313 897v537q-1 46 27 74t75 28h326q45 0 74 -29t28 -73v-945q-1 -47 -29 -75t-73 -27h-1049v-356l-610 610l610 612v-356h621z" />
    <glyph glyph-name="uni25AF" unicode="&#x25af;" horiz-adv-x="1206" 
d="M389 1223v-1035h436v1035h-436zM1014 0h-813v1411h813v-1411z" />
    <glyph glyph-name="lozenge" unicode="&#x25ca;" horiz-adv-x="1183" 
d="M348 0l-295 694l449 690h360l293 -694l-448 -690h-359zM664 1147h-9l-274 -453l162 -458h8l276 458z" />
    <glyph glyph-name="uni27A1" unicode="&#x27a1;" horiz-adv-x="2048" 
d="M164 489v304q0 47 29 75t73 27h1090v360l610 -614l-610 -614v360h-1090q-46 -1 -74 27t-28 75z" />
    <glyph glyph-name="uni2B05" unicode="&#x2b05;" horiz-adv-x="2048" 
d="M1884 793v-304q0 -47 -29 -75t-73 -27h-1090v-360l-610 614l610 614v-360h1090q46 1 74 -27t28 -75z" />
    <glyph glyph-name="uni2B06" unicode="&#x2b06;" horiz-adv-x="1474" 
d="M903 -25h-332q-47 0 -75 29t-27 74v1016h-346l614 610l615 -610h-346v-1016q0 -45 -28 -74t-75 -29z" />
    <glyph glyph-name="uni2B07" unicode="&#x2b07;" horiz-adv-x="1474" 
d="M571 1536h332q47 0 75 -29t28 -73v-1016h346l-615 -611l-614 611h346v1016q-1 46 27 74t75 28z" />
    <glyph glyph-name="uniE000" unicode="&#xe000;" horiz-adv-x="0" 
d="M1653 1004q-70 0 -158 71l37 2l108 -41l82 -6l-10 -16q-25 -10 -59 -10zM1026 1160q0 -50 6 -77h-12q-78 55 -78 129q-42 -14 -74 -49l-12 -10l-8 8q51 178 237 178l82 -10l-10 -14l-104 -53q-27 -52 -27 -102zM1233 1120v4l-55 70l2 8q94 -31 161 -102l-2 -8
q-10 -2 -82 -15v-8l56 -100l-6 -6q-86 18 -152 18l-162 -12l-12 6q66 57 176 78v6l-63 35l2 8q94 18 137 18zM2349 664q-1 100 -31 100q-14 0 -14 -22t4 -64h-12q-64 74 -64 101t30 59t30 49q-6 9 -38 28t-60 28q-27 9 -50 17t-38 15q-15 6 -43 15q-205 66 -347 186l-8 -2
l90 -109l-4 -10q-137 0 -215 37t-78 91t90 77l4 8q-3 4 -39 4t-75 -22t-39 -70t41 -97h-25q-30 16 -52 47t-30 54l-6 22l-158 27l5 10q297 117 391 117q51 0 78 -17h10q-35 59 -92 60q-92 0 -340 -88l-13 2q6 39 47 72l-2 8q-129 47 -227 47q-185 0 -308 -121
q-100 -98 -130 -156l4 -6q66 18 117 25l2 -10q-127 -92 -127 -267q0 -57 14 -102l-8 -8q-31 23 -62 108h-4q-8 -29 -14 -80l-10 -2l-21 33q-8 -4 -8 -43q0 -98 57 -194q11 -16 63 -84t52 -102t-28 -81t-27 -75l6 -31q100 2 141 8l8 -8q-25 -37 -239 -137l12 -11l176 39
l6 -10l-131 -78q115 -96 274 -149t267 -54v5q-45 49 -86 135l8 8l125 -82q18 31 31 57q-41 31 -86 86t-56 90l9 7q31 -25 90 -55t84 -29q14 41 14 88l35 53q0 2 -1 2h-11q-11 0 -53 -19t-66 -40l-12 2q0 80 133 157v11l-80 32q-23 12 -76 89t-53 137l20 -7
q127 -147 299 -169q35 2 160 32t143 37q50 -27 150 -63t135 -43q40 5 96 41q-37 29 -77 39q-142 35 -244 73q-168 59 -215 140h-6q-2 -6 -2 -16q0 -46 49 -85q4 -4 17 -15t15 -14l-2 -8q-78 7 -123 27q-147 65 -147 217q0 72 29 164h10l10 -113l39 -65q37 49 37 90t-37 78
l-108 122l6 7l102 -43q154 -127 330 -241t284 -142t222 -39l39 -4q18 41 18 82zM1589 1491q113 0 167 -71t54 -134l-6 -47q61 -70 185 -123q57 -26 145 -58t134 -49t88 -45t51 -57t11 -81q3 -52 6 -76t10 -60t7 -54t-48 -126t-73 -117q-12 -6 -43 -6t-43 6q-41 -33 -101 -67
q-59 -34 -109 -35t-163 31t-151 32q-62 0 -141 -42t-123 -76q-45 -34 -75 -134q-9 -34 -25 -122t-41 -125q20 -49 20 -78q-57 -8 -129 -8q-378 0 -660 247q-73 63 -106 105l-33 41l107 57q-49 2 -70 4l-4 15q20 27 105 81q-70 -23 -160 -67l-8 16q23 80 82 148l-154 -107
l-8 15q41 123 153 227l-239 -123l-6 16q57 131 196 256q0 7 -248 -114l-6 16q43 74 118 142t124 94q-268 -100 -287 -107l-6 14q90 117 352 310l-301 -76l-2 16q270 270 573 451q182 110 357 108q59 0 201 -46t153 -46q96 29 170 29z" />
    <glyph glyph-name="uniE001" unicode="&#xe001;" horiz-adv-x="0" 
d="M1722 1030l-82 6l-108 41l-37 -2q88 -72 158 -71q35 0 59 10zM1026 1160q0 50 27 102l104 53l10 14q-33 10 -82 10q-186 0 -237 -178l8 -8q43 45 86 59q0 -74 78 -129h12q-6 27 -6 77zM993 969q72 12 142 12t147 -14l25 -4l6 6l-56 100v8q72 12 82 15l2 8q-67 71 -137 92
l-24 10l-2 -8l55 -70v-4l-137 -18l-2 -8l63 -35v-6q-110 -21 -176 -78zM2304 742q0 22 14 22t22 -30t9 -64q0 -34 -18 -88q-143 14 -256 43t-289 143t-330 240l-102 43l-6 -7l108 -122q37 -37 37 -78t-37 -90l-39 65l-10 113h-10q-29 -92 -29 -140t4 -68q18 -95 116 -159
l44 -22q59 -14 106 -19l2 8q-4 2 -13 12t-14 13q-54 43 -54 90q0 8 2 15h6q63 -107 356 -186q63 -17 102 -25t78 -41q-57 -37 -96 -41q-35 6 -135 43t-150 63q-18 -8 -143 -38t-160 -31q-172 23 -299 169l-20 7q0 -58 53 -136t76 -90l80 -32v-11q-133 -78 -133 -157l12 -2
q24 20 66 40t52 19h12q1 0 1 -2l-35 -53q0 -47 -14 -88q-25 0 -84 30t-90 54l-9 -7q9 -35 55 -90t87 -86l-31 -57q-86 53 -125 82l-8 -8q41 -86 86 -135v-5q-109 0 -267 54t-274 149l131 78l-6 10l-176 -39l-12 11q215 100 239 137l-8 8l-141 -8q-6 4 -6 32q-1 28 27 74
t28 83q0 36 -86 144q-86 109 -86 234q0 12 4 41l4 2l21 -33l10 2q6 51 14 80h4q31 -86 62 -108l8 8q-14 45 -14 102q0 174 127 267l-2 10q-53 -6 -117 -25l-4 6q30 58 130 156q123 121 309 121q98 0 226 -47l2 -8q-41 -33 -47 -72l13 -2q248 88 340 88q57 0 92 -60h-10
q-27 16 -78 17q-94 0 -391 -117l-5 -10l158 -27q23 -84 88 -123h25q-41 47 -41 97t39 70q39 22 75 22t39 -4l-4 -8q-90 -23 -90 -77t78 -91t215 -37l4 10l-90 109l8 2q133 -114 347 -186q28 -10 43 -15q15 -6 38 -14q122 -42 148 -74q0 -18 -30 -49t-30 -59t64 -101h12
q-4 42 -4 64z" />
    <glyph glyph-name="uniE002" unicode="&#xe002;" horiz-adv-x="0" 
d="M1669 1106q-10 0 -31 4q27 10 27 39v12q23 -20 43 -51q-29 -4 -39 -4zM1931 588q0 6 8 14q23 -4 39 -16l-45 -49q-2 45 -2 51zM1577 1149q0 -6 4 -14q-31 25 -35 63q39 0 62 -6q-31 -12 -31 -43zM1860 633q39 0 45 -21l-50 -47q1 52 5 68zM2177 519q0 17 12 18
q25 0 41 -9q0 -8 -18 -27t-29 -24q-6 25 -6 42zM2011 575l53 -10q-31 -49 -55 -55q2 57 2 65zM2093 555q31 -4 57 -10q-8 -29 -49 -62zM2294 524q14 0 14 -16t-31 -49l-10 -13l-6 78h33zM1769 638q0 20 13 34q33 0 51 -25l-61 -45q-3 16 -3 36z" />
    <glyph glyph-name="uniE003" unicode="&#xe003;" horiz-adv-x="2527" 
d="M1665 1149q0 -29 -27 -39q20 -4 30 -4t40 4q-20 31 -43 51v-12zM1931 586l2 -49q33 33 45 49q-16 12 -39 16q-8 -8 -8 -16zM1577 1149q0 31 31 43q-23 6 -62 6q4 -39 35 -63q-4 8 -4 14zM1860 633l-5 -68q39 37 50 47q-6 21 -45 21zM2177 519q0 -17 6 -42q11 3 29 23
t18 28q-16 8 -41 9q-12 -1 -12 -18zM2011 575l-2 -65q21 4 55 55q-26 6 -53 10zM2093 555q4 -49 8 -72q41 33 49 62zM2308 510q0 14 -14 14h-33l6 -78q41 50 41 64zM1769 631l3 -29l61 45q-18 25 -51 25q-13 -14 -13 -41zM1653 1004q-70 0 -158 71l37 2l108 -41l82 -6
l-10 -16q-25 -10 -59 -10zM1026 1160q0 -50 6 -77h-12q-78 55 -78 129q-42 -14 -74 -49l-12 -10l-8 8q51 178 237 178l82 -10l-10 -14l-104 -53q-27 -52 -27 -102zM1233 1120v4l-55 70l2 8q94 -31 161 -102l-2 -8q-10 -2 -82 -15v-8l56 -100l-6 -6q-86 18 -152 18l-162 -12
l-12 6q66 57 176 78v6l-63 35l2 8q94 18 137 18zM2349 664q-1 100 -31 100q-14 0 -14 -22t4 -64h-12q-64 74 -64 101t30 59t30 49q-6 9 -38 28t-60 28q-27 9 -50 17t-38 15q-15 6 -43 15q-205 66 -347 186l-8 -2l90 -109l-4 -10q-137 0 -215 37t-78 91t90 77l4 8q-3 4 -39 4
t-75 -22t-39 -70t41 -97h-25q-30 16 -52 47t-30 54l-6 22l-158 27l5 10q297 117 391 117q51 0 78 -17h10q-35 59 -92 60q-92 0 -340 -88l-13 2q6 39 47 72l-2 8q-129 47 -227 47q-185 0 -308 -121q-100 -98 -130 -156l4 -6q66 18 117 25l2 -10q-127 -92 -127 -267
q0 -57 14 -102l-8 -8q-31 23 -62 108h-4q-8 -29 -14 -80l-10 -2l-21 33q-8 -4 -8 -43q0 -98 57 -194q11 -16 63 -84t52 -102t-28 -81t-27 -75l6 -31q100 2 141 8l8 -8q-25 -37 -239 -137l12 -11l176 39l6 -10l-131 -78q115 -96 274 -149t267 -54v5q-45 49 -86 135l8 8
l125 -82q18 31 31 57q-41 31 -86 86t-56 90l9 7q31 -25 90 -55t84 -29q14 41 14 88l35 53q0 2 -1 2h-11q-11 0 -53 -19t-66 -40l-12 2q0 80 133 157v11l-80 32q-23 12 -76 89t-53 137l20 -7q127 -147 299 -169q35 2 160 32t143 37q50 -27 150 -63t135 -43q40 5 96 41
q-37 29 -77 39q-142 35 -244 73q-168 59 -215 140h-6q-2 -6 -2 -16q0 -46 49 -85q4 -4 17 -15t15 -14l-2 -8q-78 7 -123 27q-147 65 -147 217q0 72 29 164h10l10 -113l39 -65q37 49 37 90t-37 78l-108 122l6 7l102 -43q154 -127 330 -241t284 -142t222 -39l39 -4
q18 41 18 82zM1589 1491q113 0 167 -71t54 -134l-6 -47q61 -70 185 -123q57 -26 145 -58t134 -49t88 -45t51 -57t11 -81q3 -52 6 -76t10 -60t7 -54t-48 -126t-73 -117q-12 -6 -43 -6t-43 6q-41 -33 -101 -67q-59 -34 -109 -35t-163 31t-151 32q-62 0 -141 -42t-123 -76
q-45 -34 -75 -134q-9 -34 -25 -122t-41 -125q20 -49 20 -78q-57 -8 -129 -8q-378 0 -660 247q-73 63 -106 105l-33 41l107 57q-49 2 -70 4l-4 15q20 27 105 81q-70 -23 -160 -67l-8 16q23 80 82 148l-154 -107l-8 15q41 123 153 227l-239 -123l-6 16q57 131 196 256
q0 7 -248 -114l-6 16q43 74 118 142t124 94q-268 -100 -287 -107l-6 14q90 117 352 310l-301 -76l-2 16q270 270 573 451q182 110 357 108q59 0 201 -46t153 -46q96 29 170 29z" />
    <glyph glyph-name="fi" unicode="&#xfb01;" horiz-adv-x="1216" 
d="M713 1554q213 0 385 -96l-113 -207q-117 61 -219 61t-140 -31q-38 -32 -48 -114l-13 -80h604l-153 -1087h-326l121 860h-279l-104 -731q-35 -242 -155 -375t-355 -209l-82 238q129 47 187 118q57 71 77 216l107 743h-168l33 227h166l12 93q27 190 138 282q112 92 325 92z
" />
    <glyph glyph-name="fl" unicode="&#xfb02;" horiz-adv-x="1286" 
d="M742 1319q-80 0 -116 -33t-48 -119l-13 -80h207l-67 -227h-173l-104 -731q-35 -242 -155 -375t-355 -209l-82 238q129 47 187 118q57 71 77 216l107 743h-168l33 227h166l12 93q27 190 138 282q112 92 329 92q125 0 252 -38l295 32l-174 -1235q-14 -90 45 -90q23 0 53 10
l31 -229q-96 -39 -201 -39q-260 0 -260 260q0 50 8 99l135 968q-80 27 -159 27z" />
    <glyph glyph-name="uniFEFF" unicode="&#xfeff;" horiz-adv-x="0" 
 />
    <glyph glyph-name="u1F310" unicode="&#x1f310;" horiz-adv-x="2457" 
d="M1884 1329q-182 207 -448 273q156 -168 239 -373q117 39 209 100zM571 168q184 -207 451 -270q-152 162 -240 372q-129 -47 -211 -102zM1436 -102q266 66 448 270q-80 55 -209 102q-83 -204 -239 -372zM1022 1602q-268 -66 -451 -273q96 -61 211 -100q88 211 240 373z
M1149 -123q16 0 27 -2v471q-156 -6 -306 -49q97 -225 279 -420zM1176 1624q-10 -2 -27 -2q-184 -197 -279 -422q164 -43 306 -49v473zM1278 -125q10 2 31 2q186 203 276 420q-150 43 -307 49v-471zM1309 1622q-20 0 -31 2v-473q143 6 307 49q-88 217 -276 422zM1176 702
h-394q7 -163 58 -325q174 49 336 55v270zM1176 797v268q-174 10 -336 55q-51 -158 -58 -323h394zM1278 702v-270q172 -6 338 -55q51 152 57 325h-395zM1278 797h395q-6 176 -57 323q-178 -49 -338 -55v-268zM1939 238q147 207 162 464h-334q-6 -182 -63 -352
q137 -49 235 -112zM356 702q12 -256 160 -464q100 63 236 112q-57 180 -64 352h-332zM2101 797q-16 260 -162 463q-102 -63 -235 -111q57 -170 63 -352h334zM516 1260q-147 -205 -160 -463h332q6 172 64 352q-132 48 -236 111zM2200 750q0 -404 -284 -690t-687 -286
t-687 286t-284 690t284 689t687 285t687 -286t284 -688z" />
    <glyph glyph-name="i.latn_TRK" horiz-adv-x="565" 
d="M600 1475q0 -81 -54 -133t-139 -52t-140 52q-54 52 -54 132t54 133q53 52 139 52t140 -52t54 -132zM365 0h-328l151 1087h328z" />
    <glyph glyph-name="Ldot.latn_CAT" horiz-adv-x="1040" 
d="M1020 774q0 -80 -54 -132t-138 -52q-85 0 -139 52t-54 132t54 132t139 52q84 0 138 -52t54 -132zM915 0h-856l172 1419h340l-141 -1151h553z" />
    <glyph glyph-name="ldot.latn_CAT" horiz-adv-x="903" 
d="M936 754q0 -80 -54 -132t-138 -53q-85 1 -139 53t-54 132t54 132t139 52q84 0 138 -52t54 -132zM328 -35q-264 0 -265 266q0 39 7 88l168 1201l333 34l-176 -1245q-10 -84 45 -84q27 0 52 8l34 -229q-98 -39 -198 -39z" />
    <glyph glyph-name="parenleft.numr" horiz-adv-x="819" 
d="M477 791q0 -221 98 -406l-153 -94q-84 139 -128 263t-44 282q0 250 88 430t248 368l137 -98q-246 -319 -246 -745z" />
    <glyph glyph-name="parenright.numr" horiz-adv-x="819" 
d="M430 1135q0 225 -96 405l153 94q82 -139 126 -263t44 -281q1 -250 -87 -432t-248 -367l-138 98q246 315 246 746z" />
    <glyph glyph-name="plus.numr" horiz-adv-x="819" 
d="M596 1255l-23 -186h183l-21 -178h-184l-23 -184h-209l23 184h-182l22 178h183l24 186h207z" />
    <glyph glyph-name="zero.numr" horiz-adv-x="819" 
d="M809 1116q0 -250 -95 -406t-294 -157q-309 0 -309 342q0 271 106 417t289 146q303 0 303 -342zM496 1288q-121 0 -138 -389q-15 -176 72 -176q61 0 90 83t41 210t10 176q-8 96 -75 96z" />
    <glyph glyph-name="one.numr" horiz-adv-x="821" 
d="M614 567h-235l78 635l-193 -100l-92 160l346 180h203z" />
    <glyph glyph-name="two.numr" horiz-adv-x="819" 
d="M786 1214q0 -110 -101 -220t-294 -249h369l-47 -178h-625l21 158q260 209 344 306t84 167q0 35 -22 55t-58 21q-80 0 -164 -84l-133 113q156 156 350 155q131 0 204 -66q72 -68 72 -178z" />
    <glyph glyph-name="three.numr" horiz-adv-x="819" 
d="M487 1458q137 0 213 -57t76 -139q0 -170 -190 -224l-2 -6q80 -14 126 -67t46 -125q0 -123 -100 -205t-269 -82q-100 0 -190 37t-142 100l140 117q84 -82 180 -82q67 0 103 35t36 92q0 96 -131 96h-80l49 162h54q127 0 126 102q0 74 -87 74t-191 -74l-102 127
q158 119 335 119z" />
    <glyph glyph-name="four.numr" horiz-adv-x="819" 
d="M776 741h-94l-20 -174h-228l21 174h-377l18 156l299 563l193 -67l-242 -478h133l60 197h188l-22 -197h94z" />
    <glyph glyph-name="five.numr" horiz-adv-x="819" 
d="M766 901q0 -152 -101 -250t-268 -98q-209 0 -327 137l149 115q79 -76 153 -76t110 43q36 44 36 102q0 112 -88 111q-43 0 -96 -29h-170l59 486h568l-43 -166h-314l-20 -160q59 31 127 31q105 -1 165 -67t60 -179z" />
    <glyph glyph-name="six.numr" horiz-adv-x="819" 
d="M483 999q-66 0 -123 -63q-8 -53 -4 -100q6 -119 86 -119q49 0 81 46t32 141t-72 95zM564 1157q105 0 169 -66q63 -67 64 -182q-1 -156 -101 -256t-259 -100t-243 93t-83 253q0 250 128 405t336 154q130 1 218 -65l-107 -133q-49 32 -120 32t-121 -58t-70 -159
q84 82 189 82z" />
    <glyph glyph-name="seven.numr" horiz-adv-x="819" 
d="M807 1300l-424 -755l-203 78l367 643h-369l21 178h624z" />
    <glyph glyph-name="eight.numr" horiz-adv-x="819" 
d="M500 1300q-98 0 -99 -92q0 -66 91 -100q86 51 86 127q0 65 -78 65zM430 719q55 0 90 30t35 78q0 74 -131 121q-100 -55 -100 -142t106 -87zM809 1251q0 -145 -178 -209q164 -74 164 -202q1 -128 -99 -208q-100 -79 -271 -79t-258 62t-87 165q0 172 213 244
q-127 68 -127 182t88 184t242 68q154 0 234 -58q79 -58 79 -149z" />
    <glyph glyph-name="nine.numr" horiz-adv-x="819" 
d="M442 1032q66 0 117 53q10 68 10 101q0 106 -84 106q-51 0 -85 -43t-34 -130t76 -87zM356 874q-104 0 -169 68t-64 176q0 152 104 246t263 94t240 -79t81 -220q0 -257 -160 -407t-487 -217l-29 165q311 66 412 244l-4 4q-83 -74 -187 -74z" />
    <glyph glyph-name="equal.numr" horiz-adv-x="819" 
d="M717 754h-576l23 176h575zM750 1028h-574l21 176h575z" />
    <glyph glyph-name="minus.numr" horiz-adv-x="819" 
d="M733 893h-573l22 178h574z" />
    <glyph glyph-name="parenleft.dnom" horiz-adv-x="819" 
d="M432 223q0 -221 98 -405l-153 -94q-84 139 -128 263t-44 281q0 250 88 430t248 369l137 -98q-246 -319 -246 -746z" />
    <glyph glyph-name="parenright.dnom" horiz-adv-x="819" 
d="M385 567q0 225 -96 406l153 94q82 -139 126 -263t44 -282q0 -250 -88 -431t-248 -367l-137 98q246 315 246 745z" />
    <glyph glyph-name="plus.dnom" horiz-adv-x="819" 
d="M551 688l-23 -186h183l-21 -178h-184l-23 -185h-209l23 185h-182l22 178h182l25 186h207z" />
    <glyph glyph-name="zero.dnom" horiz-adv-x="819" 
d="M739 549q0 -250 -95 -407t-294 -156q-309 0 -309 342q0 272 106 417t289 146q303 0 303 -342zM426 721q-121 0 -137 -389q-15 -176 71 -176q60 0 90 82t42 210q12 127 10 177q-8 96 -76 96z" />
    <glyph glyph-name="one.dnom" horiz-adv-x="821" 
d="M545 0h-236l78 635l-192 -100l-93 159l347 180h202z" />
    <glyph glyph-name="two.dnom" horiz-adv-x="819" 
d="M717 646q1 -110 -101 -220t-294 -248h368l-47 -178h-625l21 158q260 209 344 306t84 167q0 35 -22 55t-58 21q-80 0 -164 -84l-133 112q156 156 350 156q131 0 204 -67q73 -68 73 -178z" />
    <glyph glyph-name="three.dnom" horiz-adv-x="819" 
d="M418 889q137 1 213 -57t76 -139q-1 -81 -49 -139t-142 -85l-2 -6q80 -13 126 -67t46 -126q0 -122 -100 -204t-269 -82q-100 0 -190 36t-141 101l139 117q84 -82 180 -82q66 0 103 34t36 93q0 96 -131 96h-80l50 162h53q127 0 127 102q1 74 -87 74t-192 -74l-102 127
q158 119 336 119z" />
    <glyph glyph-name="four.dnom" horiz-adv-x="819" 
d="M707 174h-95l-20 -174h-227l20 174h-377l19 156l299 563l192 -68l-242 -477h134l59 197h188l-22 -197h94z" />
    <glyph glyph-name="five.dnom" horiz-adv-x="819" 
d="M696 334q0 -152 -101 -250t-267 -98q-209 0 -328 137l150 115q78 -76 152 -76t111 43q36 43 36 101q0 112 -89 112q-43 0 -96 -29h-170l60 485h567l-43 -165h-313l-21 -160q59 31 127 31q105 0 165 -66t60 -180z" />
    <glyph glyph-name="six.dnom" horiz-adv-x="819" 
d="M414 432q-66 0 -123 -63q-8 -53 -4 -101q6 -119 86 -118q49 0 81 46t32 141t-72 95zM496 725q-70 0 -120 -58t-71 -159q83 82 189 82t170 -67t63 -181q0 -156 -100 -256q-99 -100 -259 -100t-244 93t-83 253q0 250 128 404t337 155q129 0 217 -66l-107 -133
q-50 33 -120 33z" />
    <glyph glyph-name="seven.dnom" horiz-adv-x="819" 
d="M737 731l-424 -756l-202 78l366 643h-368l20 178h625z" />
    <glyph glyph-name="eight.dnom" horiz-adv-x="819" 
d="M430 733q-98 0 -98 -92q0 -66 90 -100q86 53 86 127q0 65 -78 65zM360 152q55 0 91 29q35 30 34 79q0 74 -131 121q-100 -55 -100 -142t106 -87zM739 684q0 -145 -178 -209q164 -74 164 -203q0 -130 -99 -208q-98 -78 -270 -78t-259 62t-87 165q0 172 213 244
q-127 68 -127 182t88 183t242 69q154 1 234 -57q79 -58 79 -150z" />
    <glyph glyph-name="nine.dnom" horiz-adv-x="819" 
d="M373 465q66 0 116 53q10 68 11 100q0 106 -84 107q-51 0 -85 -43t-34 -130t76 -87zM286 307q-103 0 -168 68t-65 176q1 152 105 246t262 94t240 -79q81 -79 81 -220q1 -258 -159 -408t-488 -217l-28 166q311 66 411 244l-4 4q-84 -74 -187 -74z" />
    <glyph glyph-name="equal.dnom" horiz-adv-x="819" 
d="M672 186h-576l23 176h575zM705 461h-574l21 176h575z" />
    <glyph glyph-name="minus.dnom" horiz-adv-x="819" 
d="M688 324h-573l22 178h574z" />
    </font>
</defs>
</svg>
