<?xml version="1.0" standalone="no"?>
<!DOCTYPE svg PUBLIC "-//W3C//DTD SVG 1.1//EN" "http://www.w3.org/Graphics/SVG/1.1/DTD/svg11.dtd" >
<svg xmlns="http://www.w3.org/2000/svg">
<metadata>
Created by FontPrep 20130207 at Sat Mar 22 03:58:14 2014
 By Todd Ladner
Digitized data copyright (c) 2012-2013, The Mozilla Foundation and Telefonica S.A.
</metadata>
<defs>
<font id="02e3f07216953ffadc8b785e4f87337c" horiz-adv-x='1024' >
  <font-face 
    font-family="FiraSansOT-Bold"
    font-weight="700"
    font-stretch="normal"
    units-per-em="2048"
    panose-1="2 11 5 3 5 0 0 2 0 4"
    ascent="1638"
    descent="-410"
    x-height="1087"
    cap-height="1419"
    bbox="-1417 -1024 2785 2150"
    underline-thickness="102"
    underline-position="-102"
    unicode-range="U+000D-1F310"
  />
<missing-glyph horiz-adv-x="1363" 
d="M645 98q-31 0 -51 22t-21 53q1 32 21 52q20 21 51 21t51 -20t20 -53q0 -31 -20 -53t-51 -22zM696 354q0 -23 -15 -36t-35 -13t-37 13q-15 13 -15 36v172q110 6 148 40t38 110t-26 112t-92 37q-66 0 -98 -14t-42 -14q-49 0 -49 47q1 39 61 59t130 21q227 0 227 -236
q0 -213 -195 -242v-92zM365 -918h636v2962h-636v-2962zM252 -1024v3174h860v-3174h-860z" />
    <glyph glyph-name="f_i" unicode="fi" horiz-adv-x="1226" 
d="M1102 0h-328v860h-274v-860h-328v860h-168v227h168v93q0 170 112 272t325 102t380 -81l-92 -209q-117 51 -220 51t-140 -33t-37 -115v-80h602v-1087z" />
    <glyph glyph-name="f_l" unicode="fl" horiz-adv-x="1296" 
d="M1086 -35q-123 0 -202 80t-79 229v1024q-76 20 -158 20t-115 -35q-33 -36 -32 -116v-80h207l-35 -227h-172v-860h-328v860h-168v227h168v93q0 166 113 270t327 104q111 0 260 -38l261 36v-1245q0 -84 55 -84q22 1 55 13l62 -234q-96 -37 -219 -37z" />
    <glyph glyph-name=".notdef" horiz-adv-x="1363" 
d="M645 98q-31 0 -51 22t-21 53q1 32 21 52q20 21 51 21t51 -20t20 -53q0 -31 -20 -53t-51 -22zM696 354q0 -23 -15 -36t-35 -13t-37 13q-15 13 -15 36v172q110 6 148 40t38 110t-26 112t-92 37q-66 0 -98 -14t-42 -14q-49 0 -49 47q1 39 61 59t130 21q227 0 227 -236
q0 -213 -195 -242v-92zM365 -918h636v2962h-636v-2962zM252 -1024v3174h860v-3174h-860z" />
    <glyph glyph-name=".null" horiz-adv-x="0" 
 />
    <glyph glyph-name="nonmarkingreturn" horiz-adv-x="681" 
 />
    <glyph glyph-name="CR" unicode="&#xd;" horiz-adv-x="483" 
 />
    <glyph glyph-name="space" unicode=" " horiz-adv-x="483" 
 />
    <glyph glyph-name="exclam" unicode="!" horiz-adv-x="509" 
d="M387 524h-264l-43 895h348zM70 152q0 78 54 132t131 54t131 -54t54 -132t-54 -132t-131 -55q-77 1 -131 55t-54 132z" />
    <glyph glyph-name="quotedbl" unicode="&#x22;" horiz-adv-x="1050" 
d="M827 848h-223l-72 571h295v-571zM414 848h-226l-71 571h297v-571z" />
    <glyph glyph-name="numbersign" unicode="#" horiz-adv-x="1128" 
d="M494 893l-50 -383h193l49 383h-192zM1108 893h-152l-49 -383h127v-215h-155l-39 -295h-271l39 295h-192l-39 -295h-271l37 295h-120v215h151l49 383h-129v215h158l37 276h270l-37 -276h193l37 276h272l-39 -276h123v-215z" />
    <glyph glyph-name="dollar" unicode="$" horiz-adv-x="1167" 
d="M1133 408q0 -172 -109 -286t-305 -142v-310h-240v303q-283 29 -448 199l170 190q160 -143 362 -143q102 0 164 44q61 44 61 117t-52 112t-201 86q-229 74 -329 172t-100 252t102 255q102 102 273 134v311h238v-303q231 -23 391 -176l-158 -179q-135 117 -305 117
q-90 0 -144 -34t-54 -95t54 -100q55 -38 243 -100t288 -157t99 -267z" />
    <glyph glyph-name="percent" unicode="%" horiz-adv-x="1779" 
d="M1333 702q157 0 261 -101t104 -268t-104 -267t-261 -100q-158 0 -262 100q-104 102 -104 268t104 267t262 101zM1200 333q0 -173 131 -173t131 173t-131 173t-131 -173zM811 1044q0 -166 -103 -267q-104 -101 -262 -101t-261 101t-103 267t103 268t261 101
q158 0 262 -101q103 -102 103 -268zM313 1044q0 -174 132 -174t133 174q0 174 -132 175q-133 -1 -133 -175zM1468 1348l-950 -1428l-201 125l949 1428z" />
    <glyph glyph-name="ampersand" unicode="&#x26;" horiz-adv-x="1591" 
d="M602 1245q-61 -1 -95 -35t-34 -92t26 -100q26 -43 95 -109q137 94 137 207q0 59 -34 94t-95 35zM438 402q0 -206 224 -205q116 0 217 75l-330 316q-111 -84 -111 -186zM608 -35q-242 0 -378 109t-136 295q0 119 64 210t202 185q-114 110 -158 184t-44 168q0 145 113 243
q114 97 324 97t330 -94q119 -94 119 -226t-68 -221q-68 -88 -200 -174l275 -264q59 115 102 297l272 -80q-76 -221 -190 -387l332 -307h-396l-127 117q-194 -152 -436 -152z" />
    <glyph glyph-name="quotesingle" unicode="'" horiz-adv-x="634" 
d="M414 848h-226l-71 571h297v-571z" />
    <glyph glyph-name="parenleft" unicode="(" horiz-adv-x="665" 
d="M367 717q0 -285 60 -492t204 -407l-209 -142q-94 125 -152 216q-154 246 -204 500q-29 148 -29 324q0 344 117 604q59 130 116 221t152 216l209 -141q-143 -202 -203 -408t-61 -491z" />
    <glyph glyph-name="parenright" unicode=")" horiz-adv-x="665" 
d="M299 717q0 285 -60 491t-204 408l209 141q94 -125 151 -216q156 -249 205 -500q29 -148 29 -324q0 -177 -29 -325q-50 -254 -205 -500q-57 -91 -151 -216l-209 142q143 202 203 408t61 491z" />
    <glyph glyph-name="asterisk" unicode="*" horiz-adv-x="907" 
d="M594 1522l-45 -289l258 127l84 -258l-283 -49l207 -203l-225 -164l-137 254l-131 -256l-226 164l203 207l-281 47l82 258l258 -125l-45 287h281z" />
    <glyph glyph-name="plus" unicode="+" horiz-adv-x="1062" 
d="M86 778h309v320h273v-320h309v-254h-309v-319h-273v319h-309v254z" />
    <glyph glyph-name="comma" unicode="," horiz-adv-x="509" 
d="M70 143q0 89 53 142t132 53t132 -54t53 -128t-65 -224l-129 -297h-183l87 363q-80 56 -80 145z" />
    <glyph glyph-name="hyphen" unicode="-" horiz-adv-x="835" 
d="M745 514h-655v254h655v-254z" />
    <glyph glyph-name="period" unicode="." horiz-adv-x="509" 
d="M70 152q0 78 54 132t131 54t131 -54t54 -132t-54 -132t-131 -55q-77 1 -131 55t-54 132z" />
    <glyph glyph-name="slash" unicode="/" horiz-adv-x="1064" 
d="M918 1610l-482 -1839l-289 65l484 1839z" />
    <glyph glyph-name="zero" unicode="0" horiz-adv-x="1202" 
d="M1124 690q0 -348 -134 -536t-389 -188t-390 188t-135 537t135 535t390 187t389 -187t134 -536zM791 690q0 274 -43 376q-42 102 -146 103t-148 -105t-44 -375t44 -375t147 -107q103 0 147 104q43 105 43 379z" />
    <glyph glyph-name="one" unicode="1" horiz-adv-x="911" 
d="M770 0h-319v1061l-293 -178l-146 217l467 284h291v-1384z" />
    <glyph glyph-name="two" unicode="2" horiz-adv-x="1069" 
d="M969 1018q0 -168 -110 -327t-427 -441h565l-32 -250h-906v231q354 343 464 485t110 265q0 86 -48 134t-125 48t-134 -34t-119 -109l-193 154q182 240 475 239q225 1 353 -113t127 -282z" />
    <glyph glyph-name="three" unicode="3" horiz-adv-x="1067" 
d="M999 376q0 -167 -141 -289t-389 -122q-303 0 -479 211l184 172q119 -133 275 -133q96 0 155 52t60 147q0 197 -226 196h-110l37 226h73q92 0 146 46q53 46 53 125t-49 121t-133 41q-145 0 -271 -118l-161 174q195 188 466 188q219 0 342 -100q123 -99 123 -237t-70 -222
t-192 -117v-8q129 -14 218 -100t89 -253z" />
    <glyph glyph-name="four" unicode="4" horiz-adv-x="1153" 
d="M1110 297h-158v-297h-319v297h-580v217l387 905l279 -102l-328 -774h242l39 325h280v-325h158v-246z" />
    <glyph glyph-name="five" unicode="5" horiz-adv-x="1118" 
d="M649 909q176 -1 288 -121t112 -334t-151 -352t-396 -137q-291 0 -465 215l190 166q106 -135 254 -135q106 0 168 65q61 66 62 175q0 236 -193 235q-76 0 -162 -49h-221v747h850l-37 -233h-499v-285q98 43 200 43z" />
    <glyph glyph-name="six" unicode="6" horiz-adv-x="1157" 
d="M618 707q-111 0 -200 -107q2 -217 44 -309t134 -92q178 0 178 270q0 129 -39 183t-117 55zM714 932q170 0 280 -122t110 -338t-137 -361t-365 -146q-266 0 -396 178t-130 511t164 546t440 213q184 0 313 -92l-123 -199q-82 58 -190 58t-178 -98t-84 -277q125 127 296 127
z" />
    <glyph glyph-name="seven" unicode="7" horiz-adv-x="958" 
d="M25 1139v245h899v-221l-508 -1196l-297 96l465 1076h-559z" />
    <glyph glyph-name="eight" unicode="8" horiz-adv-x="1196" 
d="M432 1034q0 -76 49 -123t160 -86q121 82 121 213q0 70 -42 112t-119 42t-123 -41t-46 -117zM805 387q-1 86 -61 133t-218 103q-137 -82 -137 -238q0 -86 56 -136q55 -50 153 -50t153 51q54 51 54 137zM1079 1045q0 -180 -221 -302q274 -135 275 -368q1 -174 -145 -292
t-394 -118t-390 116t-143 288q0 233 256 344q-203 121 -202 327q0 168 139 270t350 103q211 0 343 -94t132 -274z" />
    <glyph glyph-name="nine" unicode="9" horiz-adv-x="1157" 
d="M551 707q117 0 201 118q0 193 -40 274t-134 81t-145 -60q-50 -60 -50 -174q0 -239 168 -239zM450 477q-168 0 -281 125q-114 125 -114 335q1 210 147 343t380 133t370 -147q135 -147 135 -392q1 -412 -205 -626t-659 -305l-67 227q254 62 394 160t189 262l-8 4
q-113 -119 -281 -119z" />
    <glyph glyph-name="colon" unicode=":" horiz-adv-x="509" 
d="M70 861q0 77 54 132t131 55t131 -54q54 -56 54 -133t-54 -131t-131 -54t-131 54t-54 131zM70 152q0 78 54 132t131 54t131 -54t54 -132t-54 -132t-131 -55q-77 1 -131 55t-54 132z" />
    <glyph glyph-name="semicolon" unicode=";" horiz-adv-x="509" 
d="M70 861q0 77 54 132t131 55t131 -54q54 -56 54 -133t-54 -131t-131 -54t-131 54t-54 131zM70 143q0 89 53 142t132 53t132 -54t53 -128t-65 -224l-129 -297h-183l87 363q-80 56 -80 145z" />
    <glyph glyph-name="less" unicode="&#x3c;" horiz-adv-x="1062" 
d="M893 197l-815 354v287l815 356l104 -227l-641 -273l641 -258z" />
    <glyph glyph-name="equal" unicode="=" horiz-adv-x="1062" 
d="M979 739h-893v254h893v-254zM979 307h-893v254h893v-254z" />
    <glyph glyph-name="greater" unicode="&#x3e;" horiz-adv-x="1062" 
d="M172 1194l813 -356v-287l-813 -354l-106 237l641 260l-641 271z" />
    <glyph glyph-name="question" unicode="?" horiz-adv-x="1021" 
d="M268 152q0 78 54 132t133 54q78 0 132 -54t54 -132t-54 -132t-132 -55q-79 1 -133 55t-54 132zM600 565v-41h-297v51q0 98 34 171t81 113t94 73q47 34 81 70t34 86t-38 80t-106 30q-127 0 -237 -125l-209 162q190 221 473 221q221 0 340 -99t119 -245q0 -92 -38 -160
t-92 -108q-55 -40 -109 -78q-130 -89 -130 -201z" />
    <glyph glyph-name="at" unicode="@" horiz-adv-x="2088" 
d="M1067 823q-170 0 -170 -348q0 -137 29 -194t94 -58q92 0 137 101v479q-41 20 -90 20zM1077 -455q-446 0 -712 258q-267 257 -267 685t276 698t711 270q209 0 383 -68t287 -180q234 -234 236 -561q0 -283 -123 -461t-324 -178q-112 0 -184 60t-86 139h-8
q-35 -84 -110 -136t-179 -53q-190 0 -283 125q-92 125 -92 334q0 257 126 405t351 148q186 0 357 -92v-567q0 -88 22 -124t72 -36q166 0 166 432q0 274 -153 424t-473 150t-498 -196q-179 -197 -179 -527t177 -518t509 -189q214 0 404 70l78 -226q-225 -86 -484 -86z" />
    <glyph glyph-name="A" unicode="A" horiz-adv-x="1224" 
d="M604 1151l-147 -600h303l-146 600h-10zM889 0l-74 305h-412l-73 -305h-359l437 1419h411l434 -1419h-364z" />
    <glyph glyph-name="B" unicode="B" horiz-adv-x="1275" 
d="M1214 416q0 -416 -585 -416h-496v1419h475q246 0 397 -85t150 -277q0 -119 -75 -198t-171 -101v-8q305 -64 305 -334zM809 1018q0 86 -52 124t-163 38h-121v-328h131q106 0 156 40q49 40 49 126zM862 430q0 199 -233 199h-156v-383h141q115 0 182 39q66 39 66 145z" />
    <glyph glyph-name="C" unicode="C" horiz-adv-x="1179" 
d="M729 227q143 0 289 119l153 -196q-185 -184 -469 -184t-457 194q-173 195 -173 548q0 352 179 550t449 198t455 -158l-168 -196q-115 102 -255 102t-223 -121t-83 -369t80 -367q80 -120 223 -120z" />
    <glyph glyph-name="D" unicode="D" horiz-adv-x="1343" 
d="M1272 717q0 -717 -709 -717h-430v1419h406q121 0 220 -16q99 -17 197 -63t165 -122t109 -204q42 -127 42 -297zM920 717q0 262 -86 359t-246 98h-115v-928h115q160 0 246 104t86 367z" />
    <glyph glyph-name="E" unicode="E" horiz-adv-x="1079" 
d="M473 1178v-338h436v-238h-436v-356h535v-246h-875v1419h875l-35 -241h-500z" />
    <glyph glyph-name="F" unicode="F" horiz-adv-x="1001" 
d="M473 1178v-373h414v-244h-414v-561h-340v1419h850l-35 -241h-475z" />
    <glyph glyph-name="G" unicode="G" horiz-adv-x="1327" 
d="M703 -35q-301 -1 -466 191t-165 550t193 554q194 196 481 196t483 -176l-178 -184q-127 112 -284 112t-250 -122t-93 -384t71 -375q71 -114 222 -114q106 0 188 47v318h-186l-33 237h549v-700q-231 -150 -532 -150z" />
    <glyph glyph-name="H" unicode="H" horiz-adv-x="1361" 
d="M1229 0h-340v606h-416v-606h-340v1419h340v-549h416v549h340v-1419z" />
    <glyph glyph-name="I" unicode="I" horiz-adv-x="606" 
d="M473 0h-340v1419h340v-1419z" />
    <glyph glyph-name="J" unicode="J" horiz-adv-x="620" 
d="M158 229v1190h340v-1202q0 -258 -142 -390q-70 -65 -142 -103t-175 -74l-90 244q129 52 169 124t40 211z" />
    <glyph glyph-name="K" unicode="K" horiz-adv-x="1302" 
d="M936 0l-451 758l447 661h358l-450 -637l487 -782h-391zM473 1419v-1419h-340v1419h340z" />
    <glyph glyph-name="L" unicode="L" horiz-adv-x="1048" 
d="M133 0v1419h340v-1151h555l-37 -268h-858z" />
    <glyph glyph-name="M" unicode="M" horiz-adv-x="1624" 
d="M1225 0q-44 828 -29 1112h-8l-215 -967h-326l-225 967h-8q20 -190 10 -459l-27 -653h-331l106 1419h428l213 -954h8l201 954h428l109 -1419h-334z" />
    <glyph glyph-name="N" unicode="N" horiz-adv-x="1361" 
d="M1227 0h-432l-400 1083h-8q51 -244 51 -553v-530h-305v1419h426l406 -1083h8q-51 213 -51 545v538h305v-1419z" />
    <glyph glyph-name="O" unicode="O" horiz-adv-x="1417" 
d="M991 711q0 264 -69 380q-70 115 -213 115t-213 -116t-70 -378q0 -263 71 -381t214 -118t212 117q68 117 68 381zM72 708q0 352 169 550t469 198t468 -196t168 -546q0 -351 -169 -550t-469 -199t-468 196t-168 547z" />
    <glyph glyph-name="P" unicode="P" horiz-adv-x="1232" 
d="M582 1419q292 0 450 -117q158 -116 158 -352t-151 -358t-412 -121h-154v-471h-340v1419h449zM840 956q0 221 -254 222h-113v-461h125q242 -1 242 239z" />
    <glyph glyph-name="Q" unicode="Q" horiz-adv-x="1417" 
d="M1346 711q0 -207 -80 -367t-232 -244l2 -8q240 0 414 -129l-203 -266q-115 129 -243 202t-312 72q-297 0 -459 193q-161 193 -161 544q0 352 169 550t469 198t468 -196t168 -549zM991 711q0 264 -69 380q-70 115 -213 115t-213 -116t-70 -378q0 -263 71 -381t214 -118
t212 117q68 117 68 381z" />
    <glyph glyph-name="R" unicode="R" horiz-adv-x="1265" 
d="M838 987q0 195 -236 195h-129v-408h141q224 0 224 213zM1186 987q0 -274 -283 -389l373 -598h-383l-305 541h-115v-541h-340v1419h469q584 0 584 -432z" />
    <glyph glyph-name="S" unicode="S" horiz-adv-x="1169" 
d="M633 1206q-91 0 -145 -36t-54 -102t51 -104t241 -100t294 -163q102 -101 102 -295t-152 -317q-152 -124 -411 -124q-344 0 -553 205l174 190q160 -143 365 -143q104 0 164 46q59 46 59 125t-51 123t-199 89q-240 76 -338 178t-98 278t149 289q150 112 373 111
q299 0 494 -184l-160 -185q-143 119 -305 119z" />
    <glyph glyph-name="T" unicode="T" horiz-adv-x="1107" 
d="M725 1159v-1159h-340v1159h-367v260h1090l-35 -260h-348z" />
    <glyph glyph-name="U" unicode="U" horiz-adv-x="1339" 
d="M1227 1419v-944q-1 -227 -145 -369t-414 -141q-270 0 -413 138q-142 138 -142 372v944h340v-934q0 -137 52 -203t165 -65q113 0 165 66t52 202v934h340z" />
    <glyph glyph-name="V" unicode="V" horiz-adv-x="1228" 
d="M614 283h11l260 1136h346l-404 -1419h-424l-405 1419h360z" />
    <glyph glyph-name="W" unicode="W" horiz-adv-x="1738" 
d="M1720 1419l-235 -1419h-445l-170 1049h-8l-182 -1049h-432l-230 1419h338l136 -1134h8l192 1134h357l180 -1132h8l160 1132h323z" />
    <glyph glyph-name="X" unicode="X" horiz-adv-x="1204" 
d="M391 754l-371 665h371l203 -442h8l215 442h361l-381 -651l415 -768h-370l-244 526h-8l-238 -526h-362z" />
    <glyph glyph-name="Y" unicode="Y" horiz-adv-x="1218" 
d="M778 0h-340v530l-454 889h372l254 -612h8l256 612h361l-457 -887v-532z" />
    <glyph glyph-name="Z" unicode="Z" horiz-adv-x="1114" 
d="M37 0v254l627 903h-566v262h953v-256l-615 -893h627l-35 -270h-991z" />
    <glyph glyph-name="bracketleft" unicode="[" horiz-adv-x="665" 
d="M608 -252h-545v1938h545v-244h-235v-1452h235v-242z" />
    <glyph glyph-name="backslash" unicode="\" horiz-adv-x="1064" 
d="M629 -229l-482 1839l287 65l484 -1839z" />
    <glyph glyph-name="bracketright" unicode="]" horiz-adv-x="665" 
d="M602 -252h-545v244h236v1450h-236v244h545v-1938z" />
    <glyph glyph-name="asciicircum" unicode="^" horiz-adv-x="1130" 
d="M29 1079l387 650h299l387 -650h-320l-219 406l-211 -406h-323z" />
    <glyph glyph-name="underscore" unicode="_" horiz-adv-x="1064" 
d="M1047 -350h-1029v254h1029v-254z" />
    <glyph glyph-name="grave" unicode="`" horiz-adv-x="681" 
d="M635 1475l-98 -166l-488 209l144 243z" />
    <glyph glyph-name="a" unicode="a" horiz-adv-x="1120" 
d="M510 199q111 0 174 118v175h-57q-131 0 -187 -40t-55 -122q0 -131 125 -131zM999 739v-424q-1 -61 15 -89t55 -42l-68 -215q-197 18 -266 142q-113 -145 -334 -146q-166 0 -264 94t-98 260q0 167 134 263t386 96h125v39q0 94 -44 130t-155 36t-282 -58l-74 217
q215 82 433 82q436 0 437 -385z" />
    <glyph glyph-name="b" unicode="b" horiz-adv-x="1220" 
d="M616 203q195 0 195 340q0 193 -44 267t-140 73q-96 0 -172 -125v-457q59 -98 161 -98zM739 1124q209 0 311 -151q101 -152 101 -418t-118 -428t-328 -162q-174 0 -275 137l-12 -102h-291v1520l328 34v-577q49 67 126 107t158 40z" />
    <glyph glyph-name="c" unicode="c" horiz-adv-x="991" 
d="M408 537q0 -172 56 -243t155 -71q100 0 208 80l148 -209q-164 -129 -363 -129q-258 0 -403 156t-146 416t145 424t394 163q213 0 373 -135l-141 -196q-98 80 -207 79q-219 0 -219 -335z" />
    <glyph glyph-name="d" unicode="d" horiz-adv-x="1226" 
d="M522 1124q143 0 248 -100v530l328 -34v-1520h-289l-16 119q-113 -154 -315 -154t-305 155t-103 419t121 425q122 160 331 160zM608 885q-199 0 -198 -340q0 -193 45 -267t142 -73q97 0 173 125v467q-72 88 -162 88z" />
    <glyph glyph-name="e" unicode="e" horiz-adv-x="1134" 
d="M580 905q-164 0 -185 -260h361q-4 260 -176 260zM643 203q125 0 256 98l137 -186q-190 -150 -420 -150q-270 0 -411 158t-141 415q0 258 134 422q136 164 374 164t372 -148q133 -148 133 -411q0 -67 -6 -116h-672q31 -246 244 -246z" />
    <glyph glyph-name="f" unicode="f" horiz-adv-x="737" 
d="M172 1182q0 164 108 268t292 104t337 -67l-90 -215q-92 41 -176 41t-114 -32t-29 -112v-82h256l-37 -227h-219v-860h-328v860h-168v227h168v95z" />
    <glyph glyph-name="g" unicode="g" horiz-adv-x="1132" 
d="M395 727q0 -84 43 -130t117 -46q154 0 154 176t-154 176q-76 0 -118 -46t-42 -130zM14 -102h293q0 -78 52 -107q53 -29 189 -29t187 33t51 88q0 106 -155 107h-162q-168 0 -254 59t-86 156q0 123 123 205q-184 106 -184 305t132 304t343 105q287 0 520 142l82 -244
q-100 -41 -311 -41v-8q188 -78 188 -275q0 -160 -124 -261t-333 -101q-72 0 -135 14q-22 -28 -22 -62t28 -50t113 -17h133q202 0 318 -88t116 -229q0 -172 -152 -265t-434 -93q-280 0 -398 87q-118 88 -118 258v7z" />
    <glyph glyph-name="h" unicode="h" horiz-adv-x="1183" 
d="M455 0h-328v1520l328 32v-575q141 147 317 147q143 0 219 -85t76 -240v-799h-328v748q-1 74 -25 104t-75 31q-90 0 -184 -131v-752z" />
    <glyph glyph-name="i" unicode="i" horiz-adv-x="575" 
d="M451 0h-328v1087h328v-1087zM481 1475q0 -81 -54 -133t-139 -52t-140 52q-54 52 -54 132t54 133q54 52 140 52t139 -52q54 -52 54 -132z" />
    <glyph glyph-name="j" unicode="j" horiz-adv-x="575" 
d="M481 1475q0 -81 -54 -133t-139 -52t-140 52q-54 52 -54 132t54 133q54 52 140 52t139 -52q54 -52 54 -132zM123 104v983h328v-962q0 -258 -121 -385q-63 -66 -133 -108t-181 -87l-114 240q117 51 169 117t52 202z" />
    <glyph glyph-name="k" unicode="k" horiz-adv-x="1134" 
d="M786 0l-321 596l332 491h333l-329 -477l354 -610h-369zM455 0h-328v1520l328 34v-1554z" />
    <glyph glyph-name="l" unicode="l" horiz-adv-x="606" 
d="M392 -35q-124 0 -202 81t-77 237v1237l327 34v-1247q0 -84 56 -84q28 0 53 10l63 -231q-96 -37 -220 -37z" />
    <glyph glyph-name="m" unicode="m" horiz-adv-x="1734" 
d="M455 0h-328v1087h285l24 -124q137 161 323 161t249 -161q147 162 321 161q143 0 215 -84t72 -241v-799h-328v754q0 70 -20 100t-66 29q-88 0 -166 -127v-756h-327v760q0 123 -86 123t-168 -127v-756z" />
    <glyph glyph-name="n" unicode="n" horiz-adv-x="1183" 
d="M455 0h-328v1087h285l24 -124q143 162 336 161q143 0 219 -85t76 -240v-799h-328v748q-1 74 -25 104t-75 31q-90 0 -184 -131v-752z" />
    <glyph glyph-name="o" unicode="o" horiz-adv-x="1198" 
d="M63 539q1 268 145 427q144 158 392 158t391 -156t143 -425q0 -268 -142 -423t-393 -155t-393 153t-143 421zM795 547q0 336 -196 336t-196 -338q1 -178 49 -259t148 -81t148 82q47 82 47 260z" />
    <glyph glyph-name="p" unicode="p" horiz-adv-x="1220" 
d="M618 205q193 0 193 338q0 193 -44 267t-140 73q-96 0 -172 -125v-457q63 -96 163 -96zM127 1087h289l16 -120q124 157 320 157t298 -151q101 -152 101 -417t-117 -428t-315 -163q-164 0 -264 115v-500l-328 -35v1542z" />
    <glyph glyph-name="q" unicode="q" horiz-adv-x="1226" 
d="M1098 1087v-1542l-328 35v512q-113 -127 -287 -127q-209 0 -311 154t-102 419t121 426q122 161 331 160q172 0 275 -125l16 88h285zM608 885q-199 0 -198 -340q0 -190 45 -264t143 -74t172 123v467q-72 88 -162 88z" />
    <glyph glyph-name="r" unicode="r" horiz-adv-x="811" 
d="M453 0h-328v1087h291l24 -202q39 109 113 172t166 63q49 0 108 -16l-53 -318q-45 14 -98 15q-166 0 -223 -254v-547z" />
    <glyph glyph-name="s" unicode="s" horiz-adv-x="1005" 
d="M174 307q139 -108 294 -108t155 104q0 51 -44 79t-202 71q-311 82 -311 335q0 143 120 240q120 96 350 96t396 -123l-133 -192q-129 82 -266 82t-138 -84q0 -43 44 -70t202 -71t240 -122q82 -76 82 -230q-1 -154 -141 -252t-349 -97q-285 0 -461 162z" />
    <glyph glyph-name="t" unicode="t" horiz-adv-x="790" 
d="M158 367v495h-162v225h162v236l327 39v-275h256l-34 -225h-222v-497q0 -76 25 -109t77 -33t118 37l110 -209q-123 -86 -311 -85q-188 0 -266 100q-80 100 -80 301z" />
    <glyph glyph-name="u" unicode="u" horiz-adv-x="1171" 
d="M117 1087h327v-743q0 -133 95 -133q104 0 178 113v763h327v-1087h-286l-15 127q-113 -162 -323 -162q-154 0 -229 89t-74 249v784z" />
    <glyph glyph-name="v" unicode="v" horiz-adv-x="1052" 
d="M1065 1087l-344 -1087h-385l-348 1087h354l188 -823h9l194 823h332z" />
    <glyph glyph-name="w" unicode="w" horiz-adv-x="1544" 
d="M1536 1087l-227 -1087h-391l-142 770h-8l-145 -770h-383l-232 1087h330l108 -819h9l168 819h319l145 -815h9l125 815h315z" />
    <glyph glyph-name="x" unicode="x" horiz-adv-x="1044" 
d="M516 395h-8l-176 -395h-357l349 571l-316 516h367l145 -335h8l140 335h348l-297 -503l350 -584h-371z" />
    <glyph glyph-name="y" unicode="y" horiz-adv-x="1062" 
d="M1073 1087l-344 -1087q-133 -428 -614 -455l-37 232q158 20 232 68t118 155h-113l-327 1087h348l186 -862h8l205 862h338z" />
    <glyph glyph-name="z" unicode="z" horiz-adv-x="942" 
d="M27 0v231l491 611h-448v245h825v-229l-489 -610h501l-30 -248h-850z" />
    <glyph glyph-name="braceleft" unicode="{" horiz-adv-x="665" 
d="M459 471v-414q-1 -65 31 -91t124 -25v-228q-258 0 -359 82t-101 256v389q0 78 -30 111t-106 33v266q78 0 107 36t29 122v374q0 174 101 256t359 82v-227q-92 0 -124 -25t-31 -92v-399q1 -119 -55 -177t-160 -79v-8q104 -23 160 -78t55 -164z" />
    <glyph glyph-name="bar" unicode="|" horiz-adv-x="768" 
d="M231 -215v1874h306v-1874h-306z" />
    <glyph glyph-name="braceright" unicode="}" horiz-adv-x="665" 
d="M207 57v414q0 109 55 164t160 78v8q-104 21 -160 79t-55 177v399q0 68 -32 92t-124 25v227q257 0 359 -82t102 -256v-374q0 -86 29 -122t106 -36v-266q-75 0 -105 -33t-30 -111v-389q0 -174 -101 -256t-360 -82v228q92 0 124 25t32 91z" />
    <glyph glyph-name="asciitilde" unicode="~" horiz-adv-x="1062" 
d="M698 473q-124 0 -203 60t-129 60q-81 2 -115 -51q-13 -19 -34 -57l-180 95q129 258 328 258q79 0 145 -30t115 -60t93 -29t70 27t58 81l180 -96q-125 -258 -328 -258z" />
    <glyph glyph-name="uni00A0" unicode="&#xa0;" horiz-adv-x="483" 
 />
    <glyph glyph-name="exclamdown" unicode="&#xa1;" horiz-adv-x="509" 
d="M123 489h262l45 -907h-350zM440 861q0 -77 -54 -131t-131 -54t-131 54t-54 131t54 132t131 55t131 -54q54 -56 54 -133z" />
    <glyph glyph-name="cent" unicode="&#xa2;" horiz-adv-x="1005" 
d="M615 223q100 0 208 80l148 -209q-119 -94 -264 -119v-305h-236v312q-197 39 -303 185q-106 145 -106 369t109 378q110 154 302 194v309h234v-305q147 -25 264 -123l-142 -196q-98 80 -206 79q-219 0 -220 -335q0 -172 56 -243t156 -71z" />
    <glyph glyph-name="sterling" unicode="&#xa3;" horiz-adv-x="1140" 
d="M221 985q0 190 122 309t343 119q270 0 418 -209l-201 -145q-78 111 -190 110q-88 0 -129 -51t-41 -162v-155h372v-168h-372v-133q0 -178 -119 -244v-8h641l-37 -248h-977v236q120 32 149 103q15 40 18 72t3 95v127h-151v168h151v184z" />
    <glyph glyph-name="currency" unicode="&#xa4;" 
d="M575 473q197 0 197 227q0 109 -50 167q-50 59 -148 59t-148 -60q-51 -60 -51 -167q0 -108 51 -167t149 -59zM574 252q-140 0 -242 57l-164 -164l-145 146l163 166q-63 102 -63 243t61 244l-161 164l145 145l166 -166q98 59 239 59t242 -59l164 164l145 -145l-159 -162
q65 -109 65 -245t-67 -244l161 -162l-145 -143l-164 159q-101 -57 -241 -57z" />
    <glyph glyph-name="yen" unicode="&#xa5;" horiz-adv-x="1179" 
d="M156 721h190l-350 663h348l248 -565h8l244 565h338l-348 -663h194v-168h-274v-143h274v-170h-274v-240h-326v240h-272v170h272v143h-272v168z" />
    <glyph glyph-name="brokenbar" unicode="&#xa6;" horiz-adv-x="768" 
d="M231 -215v745h306v-745h-306zM231 913v746h306v-746h-306z" />
    <glyph glyph-name="section" unicode="&#xa7;" horiz-adv-x="1101" 
d="M381 655q0 -63 51 -94t242 -96q49 61 49 119t-55 94q-55 35 -244 96q-43 -56 -43 -119zM94 610q0 152 162 254q-111 88 -111 225t122 229t335 93q213 0 383 -115l-115 -188q-122 78 -268 78t-145 -90q0 -51 43 -80q42 -29 198 -78t233 -118t77 -193q0 -152 -156 -250
q109 -84 109 -226q0 -143 -125 -233t-343 -90t-387 115l111 200q135 -88 283 -88t149 88q0 49 -44 80q-45 31 -201 80t-233 117t-77 190z" />
    <glyph glyph-name="dieresis" unicode="&#xa8;" horiz-adv-x="911" 
d="M694 1319q-72 0 -121 49t-49 119t49 117t121 47t121 -47t49 -118t-49 -119t-121 -48zM219 1319q-72 0 -121 49t-49 119t49 117t121 47t120 -47t48 -117t-48 -119t-120 -49z" />
    <glyph glyph-name="copyright" unicode="&#xa9;" horiz-adv-x="1650" 
d="M1520 884q0 -286 -201 -484t-491 -197t-492 199t-203 484q0 286 203 486q202 200 492 199q290 0 491 -200q201 -201 201 -487zM324 884q0 -218 143 -368t359 -149q216 0 361 150q144 151 144 369t-144 368q-145 150 -361 151q-216 0 -359 -151q-143 -152 -143 -370z
M850 664q90 0 166 63l92 -135q-121 -111 -283 -111q-162 1 -260 107t-98 296t101 298t260 108t270 -104l-101 -127q-70 53 -143 53q-154 0 -154 -224t150 -224z" />
    <glyph glyph-name="ordfeminine" unicode="&#xaa;" horiz-adv-x="1228" 
d="M1030 0h-840v223h840v-223zM451 918q0 -103 93 -103t156 96v127h-61q-102 0 -145 -28t-43 -92zM967 1241v-334q0 -45 13 -67t48 -31l-63 -182q-174 18 -230 118q-104 -123 -272 -122q-139 1 -224 79t-85 212t114 214q115 80 328 80h104v25q0 71 -36 95t-130 24
q-95 0 -235 -47l-66 186q182 63 367 63q367 0 367 -313z" />
    <glyph glyph-name="guillemotleft" unicode="&#xab;" horiz-adv-x="1284" 
d="M948 588l262 -422l-200 -133l-389 450v207l389 451l200 -133zM401 588l263 -422l-201 -133l-389 450v207l389 451l201 -133z" />
    <glyph glyph-name="logicalnot" unicode="&#xac;" horiz-adv-x="1062" 
d="M979 778v-567h-272v315h-621v252h893z" />
    <glyph glyph-name="uni00AD" unicode="&#xad;" horiz-adv-x="835" 
d="M745 514h-655v254h655v-254z" />
    <glyph glyph-name="registered" unicode="&#xae;" horiz-adv-x="1308" 
d="M737 1122q0 66 -108 66h-45v-141h47q106 -1 106 75zM889 1118q0 -115 -119 -160l158 -241h-170l-127 211h-47v-211h-148v581h178q275 0 275 -180zM655 569q176 0 290 120t114 301t-114 303t-290 122q-177 0 -291 -122t-114 -303t114 -301t291 -120zM655 430
q-243 0 -405 161t-162 399t163 401q163 161 405 161t402 -162q161 -162 161 -400q0 -240 -161 -400t-403 -160z" />
    <glyph glyph-name="macron" unicode="&#xaf;" horiz-adv-x="722" 
d="M676 1602v-228h-627v228h627z" />
    <glyph glyph-name="degree" unicode="&#xb0;" horiz-adv-x="1050" 
d="M446 758q-143 0 -255 97q-111 97 -111 254t111 252q112 95 255 95t254 -96t111 -252t-111 -253t-254 -97zM446 950q63 0 103 43q39 43 39 115t-39 116t-104 44t-103 -43t-37 -115q0 -72 39 -116t102 -44z" />
    <glyph glyph-name="plusminus" unicode="&#xb1;" horiz-adv-x="1062" 
d="M979 0h-893v246h893v-246zM979 555h-311v-207h-273v207h-309v248h309v321h273v-321h311v-248z" />
    <glyph glyph-name="twosuperior" unicode="&#xb2;" horiz-adv-x="819" 
d="M399 1536q143 0 227 -76t83 -180q0 -104 -77 -204t-267 -253h376l-26 -178h-625v158q215 193 294 289t79 151t-28 82t-73 27q-76 0 -143 -84l-147 112q131 156 327 156z" />
    <glyph glyph-name="threesuperior" unicode="&#xb3;" horiz-adv-x="819" 
d="M725 901q0 -119 -95 -195q-94 -76 -280 -75q-186 0 -309 135l133 121q84 -84 176 -84q63 0 99 31q35 31 34 79q0 113 -139 113h-84l29 162h59q111 0 111 88q-1 88 -99 88t-180 -74l-119 125q137 121 305 121t248 -65q82 -65 82 -166q0 -139 -161 -187v-8q86 -14 138 -72
t52 -137z" />
    <glyph glyph-name="acute" unicode="&#xb4;" horiz-adv-x="681" 
d="M145 1309l-96 166l443 284l143 -241z" />
    <glyph glyph-name="mu" unicode="&#xb5;" horiz-adv-x="1185" 
d="M129 1087h326v-686q0 -184 94 -184q106 0 178 109v761h328v-788q0 -123 20 -299h-291q-16 61 -26 129q-94 -160 -228 -160q-90 0 -153 82l-8 -4q70 -127 69 -287v-180l-309 -33v1540z" />
    <glyph glyph-name="paragraph" unicode="&#xb6;" horiz-adv-x="1615" 
d="M1106 1192h-182v-1622l-287 -23v994q-242 2 -374 123q-132 122 -132 318t138 316t393 121h731v-1849l-287 -23v1645z" />
    <glyph glyph-name="periodcentered" unicode="&#xb7;" horiz-adv-x="509" 
d="M70 673q0 77 54 131t131 54t131 -54t54 -131t-54 -132t-131 -55t-131 54q-54 56 -54 133z" />
    <glyph glyph-name="cedilla" unicode="&#xb8;" horiz-adv-x="645" 
d="M360 -297q0 39 -44 53t-142 15l29 262h180v-131q215 -25 215 -203q0 -104 -84 -171t-223 -67t-242 64l76 149q70 -35 131 -34q104 0 104 63z" />
    <glyph glyph-name="onesuperior" unicode="&#xb9;" horiz-adv-x="819" 
d="M614 645h-233v637l-180 -100l-109 155l324 183h198v-875z" />
    <glyph glyph-name="ordmasculine" unicode="&#xba;" horiz-adv-x="1228" 
d="M1034 0h-839v223h839v-223zM613 623q-209 0 -329 128t-120 335q0 208 122 338t328 130t329 -130q122 -130 122 -338t-121 -335q-121 -128 -331 -128zM778 1090q0 262 -164 262t-164 -262t164 -263q164 1 164 263z" />
    <glyph glyph-name="guillemotright" unicode="&#xbb;" horiz-adv-x="1284" 
d="M74 166l262 422l-262 420l200 133l390 -451v-207l-390 -450zM621 166l262 422l-262 420l200 133l389 -451v-207l-389 -450z" />
    <glyph glyph-name="onequarter" unicode="&#xbc;" horiz-adv-x="1976" 
d="M1905 174h-97v-174h-227v174h-377v156l232 563l196 -68l-186 -477h137l33 197h192v-197h97v-174zM614 567h-233v637l-180 -100l-109 156l324 182h198v-875zM1505 1460l-831 -1640l-201 98l832 1643z" />
    <glyph glyph-name="onehalf" unicode="&#xbd;" horiz-adv-x="1976" 
d="M1876 635q0 -105 -77 -205t-267 -252h377l-27 -178h-625v158q215 192 294 288t79 152t-27 82q-28 27 -73 27q-76 0 -144 -84l-147 112q131 156 328 156q143 0 226 -76t83 -180zM614 567h-233v637l-180 -100l-109 156l324 182h198v-875zM1505 1460l-831 -1640l-201 98
l832 1643z" />
    <glyph glyph-name="threequarters" unicode="&#xbe;" horiz-adv-x="1976" 
d="M721 823q0 -119 -95 -195t-281 -75q-186 0 -308 135l133 121q84 -84 176 -84q63 0 98 31t35 80q0 113 -139 112h-84l29 162h59q111 0 111 88q-1 88 -99 88t-180 -74l-119 125q137 121 305 121t248 -64q82 -64 82 -167q0 -139 -162 -187v-8q86 -14 139 -71q52 -58 52 -138
zM1905 174h-97v-174h-227v174h-377v156l232 563l196 -68l-186 -477h137l33 197h192v-197h97v-174zM1505 1460l-831 -1640l-201 98l832 1643z" />
    <glyph glyph-name="questiondown" unicode="&#xbf;" horiz-adv-x="1021" 
d="M754 861q0 -77 -54 -131t-132 -54q-77 0 -132 54t-55 131t55 132t132 55q78 0 132 -54q54 -56 54 -133zM422 436v53h299v-65q0 -96 -34 -169t-81 -114t-94 -73q-115 -77 -115 -150q1 -115 135 -115t244 123l209 -162q-188 -219 -473 -219q-221 1 -339 99t-118 245
q0 92 38 160t91 109q54 41 108 78q130 89 130 200z" />
    <glyph glyph-name="Agrave" unicode="&#xc0;" horiz-adv-x="1224" 
d="M893 1704l-96 -166l-490 207l144 244zM604 1151l-147 -600h303l-146 600h-10zM889 0l-74 305h-412l-73 -305h-359l437 1419h411l434 -1419h-364z" />
    <glyph glyph-name="Aacute" unicode="&#xc1;" horiz-adv-x="1224" 
d="M414 1540l-99 166l443 285l143 -244zM604 1151l-147 -600h303l-146 600h-10zM889 0l-74 305h-412l-73 -305h-359l437 1419h411l434 -1419h-364z" />
    <glyph glyph-name="Acircumflex" unicode="&#xc2;" horiz-adv-x="1224" 
d="M612 1704l-272 -172l-119 135l291 266h201l288 -266l-116 -135zM604 1151l-147 -600h303l-146 600h-10zM889 0l-74 305h-412l-73 -305h-359l437 1419h411l434 -1419h-364z" />
    <glyph glyph-name="Atilde" unicode="&#xc3;" horiz-adv-x="1224" 
d="M727 1585q-73 0 -141 43t-96 43q-54 0 -101 -86l-164 78q92 240 271 240q74 0 142 -43t89 -43q57 0 107 86l163 -78q-94 -240 -270 -240zM604 1151l-147 -600h303l-146 600h-10zM889 0l-74 305h-412l-73 -305h-359l437 1419h411l434 -1419h-364z" />
    <glyph glyph-name="Adieresis" unicode="&#xc4;" horiz-adv-x="1224" 
d="M851 1548q-71 0 -121 49t-50 118t50 117t121 48t120 -48t49 -118t-49 -118t-120 -48zM376 1548q-71 0 -121 49t-50 118t50 117t121 48t120 -48t49 -118t-49 -118t-120 -48zM604 1151l-147 -600h303l-146 600h-10zM889 0l-74 305h-412l-73 -305h-359l437 1419h411
l434 -1419h-364z" />
    <glyph glyph-name="Aring" unicode="&#xc5;" horiz-adv-x="1224" 
d="M611 2052q128 0 207 -78t79 -192q0 -113 -79 -192t-208 -79t-207 79q-77 79 -77 193q0 113 78 191t207 78zM518 1784q0 -49 26 -76t66 -27t67 27q26 27 25 76q0 49 -25 75q-26 25 -67 25q-40 0 -66 -26t-26 -74zM604 1151l-147 -600h303l-146 600h-10zM889 0l-74 305
h-412l-73 -305h-359l437 1419h411l434 -1419h-364z" />
    <glyph glyph-name="AE" unicode="&#xc6;" horiz-adv-x="1710" 
d="M700 1149l-202 -598h319l-106 598h-11zM1573 840v-242h-453l74 -354h473v-244h-758l-53 305h-438l-101 -305h-366l559 1419h1081l-37 -241h-550l69 -338h500z" />
    <glyph glyph-name="Ccedilla" unicode="&#xc7;" horiz-adv-x="1179" 
d="M731 -297q0 39 -45 53t-143 15l22 206q-229 43 -361 233t-132 521q0 329 179 527t449 198t455 -158l-168 -196q-115 102 -255 102t-223 -121t-83 -369t80 -367q80 -120 223 -120t289 119l153 -196q-166 -166 -417 -183v-65q210 -24 212 -213q0 -94 -83 -161t-221 -67
t-244 64l78 149q66 -35 129 -34q106 0 106 63z" />
    <glyph glyph-name="Egrave" unicode="&#xc8;" horiz-adv-x="1079" 
d="M860 1704l-96 -166l-490 207l144 244zM473 1178v-338h436v-238h-436v-356h535v-246h-875v1419h875l-35 -241h-500z" />
    <glyph glyph-name="Eacute" unicode="&#xc9;" horiz-adv-x="1079" 
d="M389 1538l-98 166l442 285l144 -244zM473 1178v-338h436v-238h-436v-356h535v-246h-875v1419h875l-35 -241h-500z" />
    <glyph glyph-name="Ecircumflex" unicode="&#xca;" horiz-adv-x="1079" 
d="M569 1704l-272 -172l-119 135l291 266h201l288 -266l-116 -135zM473 1178v-338h436v-238h-436v-356h535v-246h-875v1419h875l-35 -241h-500z" />
    <glyph glyph-name="Edieresis" unicode="&#xcb;" horiz-adv-x="1079" 
d="M804 1548q-71 0 -121 49t-50 118t50 117t121 48t120 -48t49 -118t-49 -118t-120 -48zM329 1548q-71 0 -121 49t-50 118t50 117t121 48t120 -48t49 -118t-49 -118t-120 -48zM473 1178v-338h436v-238h-436v-356h535v-246h-875v1419h875l-35 -241h-500z" />
    <glyph glyph-name="Igrave" unicode="&#xcc;" horiz-adv-x="606" 
d="M588 1704l-96 -166l-490 207l143 244zM473 0h-340v1419h340v-1419z" />
    <glyph glyph-name="Iacute" unicode="&#xcd;" horiz-adv-x="606" 
d="M106 1538l-98 166l443 285l143 -244zM473 0h-340v1419h340v-1419z" />
    <glyph glyph-name="Icircumflex" unicode="&#xce;" horiz-adv-x="606" 
d="M305 1704l-272 -172l-119 135l291 266h201l288 -266l-116 -135zM473 0h-340v1419h340v-1419z" />
    <glyph glyph-name="Idieresis" unicode="&#xcf;" horiz-adv-x="606" 
d="M542 1548q-71 0 -121 49t-50 118t50 117t121 48t120 -48t49 -118t-49 -118t-120 -48zM67 1880q71 0 119 -48t50 -118q0 -70 -49 -118t-120 -48t-121 49t-50 118t50 117t121 48zM473 0h-340v1419h340v-1419z" />
    <glyph glyph-name="Eth" unicode="&#xd0;" horiz-adv-x="1351" 
d="M483 1174v-349h283v-204h-283v-375h113q160 0 246 104t86 371q0 368 -199 434q-55 18 -131 19h-115zM1280 717q0 -717 -707 -717h-430v621h-127v204h127v594h406q121 0 220 -16q99 -17 197 -63q314 -148 314 -623z" />
    <glyph glyph-name="Ntilde" unicode="&#xd1;" horiz-adv-x="1361" 
d="M793 1585q-74 0 -142 43q-69 43 -97 43t-50 -19t-49 -67l-164 78q92 240 270 240q73 0 141 -43t91 -43q57 0 106 86l164 -78q-94 -240 -270 -240zM1227 0h-432l-400 1083h-8q51 -244 51 -553v-530h-305v1419h426l406 -1083h8q-51 213 -51 545v538h305v-1419z" />
    <glyph glyph-name="Ograve" unicode="&#xd2;" horiz-adv-x="1417" 
d="M989 1704l-96 -166l-490 207l144 244zM991 711q0 264 -69 380q-70 115 -213 115t-213 -116t-70 -378q0 -263 71 -381t214 -118t212 117q68 117 68 381zM72 708q0 352 169 550t469 198t468 -196t168 -546q0 -351 -169 -550t-469 -199t-468 196t-168 547z" />
    <glyph glyph-name="Oacute" unicode="&#xd3;" horiz-adv-x="1417" 
d="M526 1538l-98 166l442 285l144 -244zM991 711q0 264 -69 380q-70 115 -213 115t-213 -116t-70 -378q0 -263 71 -381t214 -118t212 117q68 117 68 381zM72 708q0 352 169 550t469 198t468 -196t168 -546q0 -351 -169 -550t-469 -199t-468 196t-168 547z" />
    <glyph glyph-name="Ocircumflex" unicode="&#xd4;" horiz-adv-x="1417" 
d="M709 1704l-273 -172l-119 135l291 266h201l289 -266l-117 -135zM991 711q0 264 -69 380q-70 115 -213 115t-213 -116t-70 -378q0 -263 71 -381t214 -118t212 117q68 117 68 381zM72 708q0 352 169 550t469 198t468 -196t168 -546q0 -351 -169 -550t-469 -199t-468 196
t-168 547z" />
    <glyph glyph-name="Otilde" unicode="&#xd5;" horiz-adv-x="1417" 
d="M825 1585q-73 0 -141 43t-96 43t-52 -19q-22 -19 -49 -67l-163 78q92 240 270 240q74 0 142 -43t89 -43q57 0 107 86l164 -78q-95 -240 -271 -240zM991 711q0 264 -69 380q-70 115 -213 115t-213 -116t-70 -378q0 -263 71 -381t214 -118t212 117q68 117 68 381zM72 708
q0 352 169 550t469 198t468 -196t168 -546q0 -351 -169 -550t-469 -199t-468 196t-168 547z" />
    <glyph glyph-name="Odieresis" unicode="&#xd6;" horiz-adv-x="1417" 
d="M947 1548q-71 0 -121 49t-50 118t50 117t121 48t120 -48t49 -118t-49 -118t-120 -48zM472 1548q-71 0 -121 49t-50 118t50 117t121 48t120 -48t49 -118t-49 -118t-120 -48zM991 711q0 264 -69 380q-70 115 -213 115t-213 -116t-70 -378q0 -263 71 -381t214 -118t212 117
q68 117 68 381zM72 708q0 352 169 550t469 198t468 -196t168 -546q0 -351 -169 -550t-469 -199t-468 196t-168 547z" />
    <glyph glyph-name="multiply" unicode="&#xd7;" horiz-adv-x="1062" 
d="M117 385l239 236l-239 235l180 180l235 -239l234 239l180 -180l-237 -235l237 -236l-180 -180l-234 239l-235 -239z" />
    <glyph glyph-name="Oslash" unicode="&#xd8;" horiz-adv-x="1417" 
d="M1346 711q0 -348 -169 -547t-468 -199q-51 0 -91 8l-75 -252l-256 68l82 262q-297 180 -297 660q0 349 169 547t468 198q35 0 92 -8l76 248l256 -68l-82 -260q295 -180 295 -657zM709 1206q-143 0 -216 -116t-73 -396t82 -391l266 899q-25 4 -59 4zM997 724
q0 278 -79 386l-267 -893q37 -4 58 -4q145 0 217 117q71 116 71 394z" />
    <glyph glyph-name="Ugrave" unicode="&#xd9;" horiz-adv-x="1339" 
d="M946 1704l-96 -166l-490 207l144 244zM1227 1419v-944q-1 -227 -145 -369t-414 -141q-270 0 -413 138q-142 138 -142 372v944h340v-934q0 -137 52 -203t165 -65q113 0 165 66t52 202v934h340z" />
    <glyph glyph-name="Uacute" unicode="&#xda;" horiz-adv-x="1339" 
d="M479 1538l-98 166l442 285l144 -244zM1227 1419v-944q-1 -227 -145 -369t-414 -141q-270 0 -413 138q-142 138 -142 372v944h340v-934q0 -137 52 -203t165 -65q113 0 165 66t52 202v934h340z" />
    <glyph glyph-name="Ucircumflex" unicode="&#xdb;" horiz-adv-x="1339" 
d="M670 1704l-273 -172l-118 135l290 266h201l289 -266l-117 -135zM1227 1419v-944q-1 -227 -145 -369t-414 -141q-270 0 -413 138q-142 138 -142 372v944h340v-934q0 -137 52 -203t165 -65q113 0 165 66t52 202v934h340z" />
    <glyph glyph-name="Udieresis" unicode="&#xdc;" horiz-adv-x="1339" 
d="M906 1548q-71 0 -121 49t-50 118t50 117t121 48t120 -48t49 -118t-49 -118t-120 -48zM431 1548q-71 0 -121 49t-50 118t50 117t121 48t120 -48t49 -118t-49 -118t-120 -48zM1227 1419v-944q-1 -227 -145 -369t-414 -141q-270 0 -413 138q-142 138 -142 372v944h340v-934
q0 -137 52 -203t165 -65q113 0 165 66t52 202v934h340z" />
    <glyph glyph-name="Yacute" unicode="&#xdd;" horiz-adv-x="1218" 
d="M420 1538l-98 166l442 285l143 -244zM778 0h-340v530l-454 889h372l254 -612h8l256 612h361l-457 -887v-532z" />
    <glyph glyph-name="Thorn" unicode="&#xde;" horiz-adv-x="1228" 
d="M586 1190q292 0 450 -117t158 -355t-146 -360q-146 -121 -417 -120h-158v-238h-340v1419h340v-229h113zM840 723q0 225 -246 225h-121v-465h135q116 1 174 57t58 183z" />
    <glyph glyph-name="germandbls" unicode="&#xdf;" horiz-adv-x="1243" 
d="M127 0v1087q0 221 126 345t343 122q217 0 330 -90t112 -229q0 -63 -32 -115t-71 -83q-38 -31 -71 -71t-33 -81t40 -80q41 -39 97 -77t112 -84t96 -124t41 -176q0 -176 -119 -277t-287 -101t-281 63l103 219q61 -31 119 -31q125 0 125 125q0 110 -116 192q-48 34 -97 70
q-117 85 -117 223q0 72 28 127q29 55 63 83q91 75 91 166q0 52 -30 87t-91 35q-154 0 -153 -223v-1102h-328z" />
    <glyph glyph-name="agrave" unicode="&#xe0;" horiz-adv-x="1120" 
d="M844 1411l-99 -166l-487 217l143 244zM510 199q111 0 174 118v175h-57q-131 0 -187 -40t-55 -122q0 -131 125 -131zM999 739v-424q-1 -61 15 -89t55 -42l-68 -215q-197 18 -266 142q-113 -145 -334 -146q-166 0 -264 94t-98 260q0 167 134 263t386 96h125v39
q0 94 -44 130t-155 36t-282 -58l-74 217q215 82 433 82q436 0 437 -385z" />
    <glyph glyph-name="aacute" unicode="&#xe1;" horiz-adv-x="1120" 
d="M369 1245l-101 166l443 295l143 -244zM510 199q111 0 174 118v175h-57q-131 0 -187 -40t-55 -122q0 -131 125 -131zM999 739v-424q-1 -61 15 -89t55 -42l-68 -215q-197 18 -266 142q-113 -145 -334 -146q-166 0 -264 94t-98 260q0 167 134 263t386 96h125v39
q0 94 -44 130t-155 36t-282 -58l-74 217q215 82 433 82q436 0 437 -385z" />
    <glyph glyph-name="acircumflex" unicode="&#xe2;" horiz-adv-x="1120" 
d="M561 1444l-272 -193l-119 133l291 287h201l288 -287l-116 -133zM510 199q111 0 174 118v175h-57q-131 0 -187 -40t-55 -122q0 -131 125 -131zM999 739v-424q-1 -61 15 -89t55 -42l-68 -215q-197 18 -266 142q-113 -145 -334 -146q-166 0 -264 94t-98 260q0 167 134 263
t386 96h125v39q0 94 -44 130t-155 36t-282 -58l-74 217q215 82 433 82q436 0 437 -385z" />
    <glyph glyph-name="atilde" unicode="&#xe3;" horiz-adv-x="1120" 
d="M686 1294q-82 0 -150 46t-96 46q-30 0 -52 -20t-48 -68l-164 78q41 106 110 174q70 68 152 68t150 -45t96 -45q51 0 98 88l164 -78q-38 -106 -108 -175t-152 -69zM510 199q111 0 174 118v175h-57q-131 0 -187 -40t-55 -122q0 -131 125 -131zM999 739v-424q-1 -61 15 -89
t55 -42l-68 -215q-197 18 -266 142q-113 -145 -334 -146q-166 0 -264 94t-98 260q0 167 134 263t386 96h125v39q0 94 -44 130t-155 36t-282 -58l-74 217q215 82 433 82q436 0 437 -385z" />
    <glyph glyph-name="adieresis" unicode="&#xe4;" horiz-adv-x="1120" 
d="M971 1470q0 -70 -49 -118t-120 -47q-71 0 -120 48q-49 47 -49 117t49 117t120 47t120 -47t49 -117zM326 1305q-72 0 -121 48q-49 47 -49 117t49 117t121 47t120 -47t50 -117q0 -70 -49 -118t-121 -47zM510 199q111 0 174 118v175h-57q-131 0 -187 -40t-55 -122
q0 -131 125 -131zM999 739v-424q-1 -61 15 -89t55 -42l-68 -215q-197 18 -266 142q-113 -145 -334 -146q-166 0 -264 94t-98 260q0 167 134 263t386 96h125v39q0 94 -44 130t-155 36t-282 -58l-74 217q215 82 433 82q436 0 437 -385z" />
    <glyph glyph-name="aring" unicode="&#xe5;" horiz-adv-x="1120" 
d="M848 1503q0 -113 -79 -193t-207 -79q-128 0 -207 80q-79 81 -79 193t78 191t207 79t208 -79t79 -192zM471 1502q0 -101 91 -101t91 101t-92 102q-90 -1 -90 -102zM510 199q111 0 174 118v175h-57q-131 0 -187 -40t-55 -122q0 -131 125 -131zM999 739v-424q-1 -61 15 -89
t55 -42l-68 -215q-197 18 -266 142q-113 -145 -334 -146q-166 0 -264 94t-98 260q0 167 134 263t386 96h125v39q0 94 -44 130t-155 36t-282 -58l-74 217q215 82 433 82q436 0 437 -385z" />
    <glyph glyph-name="ae" unicode="&#xe6;" horiz-adv-x="1722" 
d="M1169 893q-162 0 -184 -240h358q-6 240 -174 240zM512 199q119 0 184 125q-12 74 -12 157h-35q-150 0 -208 -35t-58 -120q0 -127 129 -127zM1235 215q121 0 256 96l135 -196q-190 -150 -418 -150q-276 0 -405 174q-59 -82 -159 -128t-220 -46q-178 0 -282 95
q-103 95 -103 260q0 166 134 258t386 92h125v47q0 94 -44 130t-155 36t-282 -58l-74 217q215 82 408 82q233 0 329 -143q117 143 329 143t341 -147t129 -412q0 -53 -6 -102h-674q25 -248 250 -248z" />
    <glyph glyph-name="ccedilla" unicode="&#xe7;" horiz-adv-x="991" 
d="M649 -98q213 -25 213 -213q0 -94 -84 -161t-223 -67t-242 64l76 149q70 -35 131 -34q105 0 105 63q0 39 -44 53t-143 15l23 211q-190 43 -294 189q-103 146 -103 386t144 404q146 164 394 163q213 0 373 -135l-141 -196q-98 80 -207 79q-219 0 -219 -335q0 -172 55 -243
t155 -71t209 80l148 -209q-145 -115 -326 -127v-65z" />
    <glyph glyph-name="egrave" unicode="&#xe8;" horiz-adv-x="1134" 
d="M866 1411l-98 -166l-487 217l143 244zM580 905q-164 0 -185 -260h361q-4 260 -176 260zM643 203q125 0 256 98l137 -186q-190 -150 -420 -150q-270 0 -411 158t-141 415q0 258 134 422q136 164 374 164t372 -148q133 -148 133 -411q0 -67 -6 -116h-672q31 -246 244 -246z
" />
    <glyph glyph-name="eacute" unicode="&#xe9;" horiz-adv-x="1134" 
d="M391 1245l-100 166l442 295l144 -244zM580 905q-164 0 -185 -260h361q-4 260 -176 260zM643 203q125 0 256 98l137 -186q-190 -150 -420 -150q-270 0 -411 158t-141 415q0 258 134 422q136 164 374 164t372 -148q133 -148 133 -411q0 -67 -6 -116h-672q31 -246 244 -246z
" />
    <glyph glyph-name="ecircumflex" unicode="&#xea;" horiz-adv-x="1134" 
d="M584 1444l-273 -193l-118 133l290 287h201l289 -287l-117 -133zM580 905q-164 0 -185 -260h361q-4 260 -176 260zM643 203q125 0 256 98l137 -186q-190 -150 -420 -150q-270 0 -411 158t-141 415q0 258 134 422q136 164 374 164t372 -148q133 -148 133 -411
q0 -67 -6 -116h-672q31 -246 244 -246z" />
    <glyph glyph-name="edieresis" unicode="&#xeb;" horiz-adv-x="1134" 
d="M989 1470q0 -70 -49 -118t-120 -47q-71 0 -120 48q-49 47 -49 117t49 117t120 47t120 -47t49 -117zM344 1305q-72 0 -121 48q-49 47 -49 117t49 117t121 47t121 -47t49 -117t-49 -118t-121 -47zM580 905q-164 0 -185 -260h361q-4 260 -176 260zM643 203q125 0 256 98
l137 -186q-190 -150 -420 -150q-270 0 -411 158t-141 415q0 258 134 422q136 164 374 164t372 -148q133 -148 133 -411q0 -67 -6 -116h-672q31 -246 244 -246z" />
    <glyph glyph-name="igrave" unicode="&#xec;" horiz-adv-x="575" 
d="M584 1411l-99 -166l-487 217l143 244zM451 0h-328v1087h328v-1087z" />
    <glyph glyph-name="iacute" unicode="&#xed;" horiz-adv-x="575" 
d="M98 1245l-100 166l442 295l144 -244zM451 0h-328v1087h328v-1087z" />
    <glyph glyph-name="icircumflex" unicode="&#xee;" horiz-adv-x="575" 
d="M451 0h-328v1087h328v-1087zM289 1444l-273 -193l-118 133l290 287h201l289 -287l-117 -133z" />
    <glyph glyph-name="idieresis" unicode="&#xef;" horiz-adv-x="575" 
d="M451 0h-328v1087h328v-1087zM694 1470q0 -70 -49 -118t-120 -47q-71 0 -119 48q-48 47 -50 117q0 70 50 117t120 47t119 -47t49 -117zM49 1305q-72 0 -121 48q-49 47 -49 117t49 117t121 47t121 -47t49 -117t-49 -118t-121 -47z" />
    <glyph glyph-name="eth" unicode="&#xf0;" horiz-adv-x="1183" 
d="M778 524q0 100 -2 148q-80 86 -181 86q-198 0 -198 -278t187 -277q194 -1 194 321zM1112 567q0 -260 -142 -431t-378 -171t-383 138q-145 137 -145 367t126 374q127 144 290 143q163 0 270 -86l6 2q-61 180 -203 287l-113 -115l-209 94l117 123q-92 31 -180 47l65 213
q168 -25 295 -73l150 155l168 -145l-109 -111q375 -242 375 -811z" />
    <glyph glyph-name="ntilde" unicode="&#xf1;" horiz-adv-x="1183" 
d="M749 1294q-81 0 -149 46t-96 46t-52 -20q-22 -20 -49 -68l-163 78q41 106 109 174q69 68 152 68t151 -45t94 -45q52 0 100 88l164 -78q-39 -106 -109 -175t-152 -69zM455 0h-328v1087h285l24 -124q143 162 336 161q143 0 219 -85t76 -240v-799h-328v748q-1 74 -25 104
t-75 31q-90 0 -184 -131v-752z" />
    <glyph glyph-name="ograve" unicode="&#xf2;" horiz-adv-x="1198" 
d="M883 1411l-99 -166l-487 217l143 244zM63 539q1 268 145 427q144 158 392 158t391 -156t143 -425q0 -268 -142 -423t-393 -155t-393 153t-143 421zM795 547q0 336 -196 336t-196 -338q1 -178 49 -259t148 -81t148 82q47 82 47 260z" />
    <glyph glyph-name="oacute" unicode="&#xf3;" horiz-adv-x="1198" 
d="M410 1245l-101 166l443 295l143 -244zM63 539q1 268 145 427q144 158 392 158t391 -156t143 -425q0 -268 -142 -423t-393 -155t-393 153t-143 421zM795 547q0 336 -196 336t-196 -338q1 -178 49 -259t148 -81t148 82q47 82 47 260z" />
    <glyph glyph-name="ocircumflex" unicode="&#xf4;" horiz-adv-x="1198" 
d="M600 1444l-272 -193l-119 133l291 287h200l289 -287l-117 -133zM63 539q1 268 145 427q144 158 392 158t391 -156t143 -425q0 -268 -142 -423t-393 -155t-393 153t-143 421zM795 547q0 336 -196 336t-196 -338q1 -178 49 -259t148 -81t148 82q47 82 47 260z" />
    <glyph glyph-name="otilde" unicode="&#xf5;" horiz-adv-x="1198" 
d="M725 1294q-82 0 -150 46q-69 46 -97 46t-50 -20t-49 -68l-164 78q41 106 110 174t151 68t151 -45q67 -45 95 -45q51 0 99 88l164 -78q-39 -106 -109 -175t-151 -69zM63 539q1 268 145 427q144 158 392 158t391 -156t143 -425q0 -268 -142 -423t-393 -155t-393 153
t-143 421zM795 547q0 336 -196 336t-196 -338q1 -178 49 -259t148 -81t148 82q47 82 47 260z" />
    <glyph glyph-name="odieresis" unicode="&#xf6;" horiz-adv-x="1198" 
d="M837 1634q71 0 119 -47t50 -117q0 -70 -49 -118t-120 -47q-71 0 -120 48q-49 47 -49 117t49 117t120 47zM360 1305q-72 0 -120 48q-48 47 -50 117q0 70 50 117t120 47q72 0 121 -47t49 -117t-49 -118t-121 -47zM63 539q1 268 145 427q144 158 392 158t391 -156t143 -425
q0 -268 -142 -423t-393 -155t-393 153t-143 421zM795 547q0 336 -196 336t-196 -338q1 -178 49 -259t148 -81t148 82q47 82 47 260z" />
    <glyph glyph-name="divide" unicode="&#xf7;" horiz-adv-x="1062" 
d="M344 1093q0 77 55 131t133 54t132 -55t55 -131q0 -76 -55 -130q-54 -54 -132 -54t-133 54t-55 131zM344 213q0 78 55 132t133 54t132 -54t55 -132q0 -78 -54 -132q-55 -54 -133 -54t-133 54t-55 132zM979 526h-893v252h893v-252z" />
    <glyph glyph-name="oslash" unicode="&#xf8;" horiz-adv-x="1198" 
d="M801 540q0 173 -41 244l-187 -577l35 -2q98 0 146 81q47 81 47 254zM397 543q0 -178 43 -252l191 590l-39 2q-100 0 -148 -81t-47 -259zM63 545q1 258 145 419t392 160q2 0 64 -6l75 240l240 -70l-82 -246q115 -72 176 -200t62 -295q-1 -270 -143 -426t-392 -156
q-43 0 -63 4l-78 -250l-238 70l80 252q-238 142 -238 504z" />
    <glyph glyph-name="ugrave" unicode="&#xf9;" horiz-adv-x="1171" 
d="M860 1411l-98 -166l-488 217l144 244zM117 1087h327v-743q0 -133 95 -133q104 0 178 113v763h327v-1087h-286l-15 127q-113 -162 -323 -162q-154 0 -229 89t-74 249v784z" />
    <glyph glyph-name="uacute" unicode="&#xfa;" horiz-adv-x="1171" 
d="M403 1245l-100 166l442 295l144 -244zM117 1087h327v-743q0 -133 95 -133q104 0 178 113v763h327v-1087h-286l-15 127q-113 -162 -323 -162q-154 0 -229 89t-74 249v784z" />
    <glyph glyph-name="ucircumflex" unicode="&#xfb;" horiz-adv-x="1171" 
d="M582 1444l-273 -193l-119 133l291 287h201l289 -287l-117 -133zM117 1087h327v-743q0 -133 95 -133q104 0 178 113v763h327v-1087h-286l-15 127q-113 -162 -323 -162q-154 0 -229 89t-74 249v784z" />
    <glyph glyph-name="udieresis" unicode="&#xfc;" horiz-adv-x="1171" 
d="M989 1470q0 -70 -49 -118t-120 -47q-71 0 -120 48q-49 47 -49 117t49 117t120 47t120 -47t49 -117zM344 1305q-72 0 -121 48q-49 47 -49 117t49 117t121 47t121 -47t49 -117t-49 -118t-121 -47zM117 1087h327v-743q0 -133 95 -133q104 0 178 113v763h327v-1087h-286
l-15 127q-113 -162 -323 -162q-154 0 -229 89t-74 249v784z" />
    <glyph glyph-name="yacute" unicode="&#xfd;" horiz-adv-x="1062" 
d="M358 1245l-100 166l442 295l144 -244zM1073 1087l-344 -1087q-133 -428 -614 -455l-37 232q158 20 232 68t118 155h-113l-327 1087h348l186 -862h8l205 862h338z" />
    <glyph glyph-name="thorn" unicode="&#xfe;" horiz-adv-x="1220" 
d="M811 543q0 193 -44 267t-140 73q-96 0 -172 -125v-457q63 -96 161 -96q195 0 195 338zM739 1124q209 0 311 -151q101 -152 101 -417t-117 -428t-315 -163q-164 0 -264 115v-500l-328 -35v1975l328 34v-577q49 67 126 107t158 40z" />
    <glyph glyph-name="ydieresis" unicode="&#xff;" horiz-adv-x="1062" 
d="M942 1470q0 -70 -49 -118t-120 -47q-71 0 -120 48q-49 47 -49 117t49 117t120 47t120 -47t49 -117zM297 1305q-72 0 -121 48q-49 47 -49 117t49 117t121 47t121 -47t49 -117t-49 -118t-121 -47zM1073 1087l-344 -1087q-133 -428 -614 -455l-37 232q158 20 232 68t118 155
h-113l-327 1087h348l186 -862h8l205 862h338z" />
    <glyph glyph-name="Amacron" unicode="&#x100;" horiz-adv-x="1224" 
d="M928 1831v-227h-629v227h629zM604 1151l-147 -600h303l-146 600h-10zM889 0l-74 305h-412l-73 -305h-359l437 1419h411l434 -1419h-364z" />
    <glyph glyph-name="amacron" unicode="&#x101;" horiz-adv-x="1120" 
d="M874 1573v-227h-628v227h628zM510 199q111 0 174 118v175h-57q-131 0 -187 -40t-55 -122q0 -131 125 -131zM999 739v-424q-1 -61 15 -89t55 -42l-68 -215q-197 18 -266 142q-113 -145 -334 -146q-166 0 -264 94t-98 260q0 167 134 263t386 96h125v39q0 94 -44 130
t-155 36t-282 -58l-74 217q215 82 433 82q436 0 437 -385z" />
    <glyph glyph-name="Abreve" unicode="&#x102;" horiz-adv-x="1224" 
d="M610 1538q-160 0 -249 97t-103 243l180 33q41 -145 173 -145t173 145l181 -33q-15 -144 -105 -242t-250 -98zM604 1151l-147 -600h303l-146 600h-10zM889 0l-74 305h-412l-73 -305h-359l437 1419h411l434 -1419h-364z" />
    <glyph glyph-name="abreve" unicode="&#x103;" horiz-adv-x="1120" 
d="M560 1251q-159 -1 -249 105t-104 256l180 30q41 -166 174 -166t174 166l180 -30q-14 -150 -105 -256t-250 -105zM510 199q111 0 174 118v175h-57q-131 0 -187 -40t-55 -122q0 -131 125 -131zM999 739v-424q-1 -61 15 -89t55 -42l-68 -215q-197 18 -266 142
q-113 -145 -334 -146q-166 0 -264 94t-98 260q0 167 134 263t386 96h125v39q0 94 -44 130t-155 36t-282 -58l-74 217q215 82 433 82q436 0 437 -385z" />
    <glyph glyph-name="Aogonek" unicode="&#x104;" horiz-adv-x="1224" 
d="M604 1151l-147 -600h303l-146 600h-10zM1063 -244q0 -44 29 -72t92 -28t121 29l65 -158q-104 -55 -236 -55t-213 66t-81 183q0 168 215 279h-166l-74 305h-412l-73 -305h-359l437 1419h411l434 -1419q-190 -109 -190 -244z" />
    <glyph glyph-name="aogonek" unicode="&#x105;" horiz-adv-x="1120" 
d="M510 199q113 0 174 118v175h-57q-131 0 -187 -40t-57 -122q0 -131 127 -131zM854 -244q0 -100 120 -100q64 0 122 29l65 -158q-106 -55 -237 -55t-212 66t-81 183q0 82 58 156t163 125q-80 37 -117 109q-117 -145 -334 -146q-166 0 -264 94t-98 260q0 167 134 263t386 96
h125v39q0 94 -44 130t-155 36t-282 -58l-74 217q215 82 433 82q436 0 437 -385v-424q-1 -61 15 -89t55 -42l-68 -215q-147 -84 -147 -213z" />
    <glyph glyph-name="Cacute" unicode="&#x106;" horiz-adv-x="1179" 
d="M496 1538l-99 166l443 285l143 -244zM729 227q143 0 289 119l153 -196q-185 -184 -469 -184t-457 194q-173 195 -173 548q0 352 179 550t449 198t455 -158l-168 -196q-115 102 -255 102t-223 -121t-83 -369t80 -367q80 -120 223 -120z" />
    <glyph glyph-name="cacute" unicode="&#x107;" horiz-adv-x="991" 
d="M356 1245l-100 166l442 295l144 -244zM408 537q0 -172 56 -243t155 -71q100 0 208 80l148 -209q-164 -129 -363 -129q-258 0 -403 156t-146 416t145 424t394 163q213 0 373 -135l-141 -196q-98 80 -207 79q-219 0 -219 -335z" />
    <glyph glyph-name="Ccircumflex" unicode="&#x108;" horiz-adv-x="1179" 
d="M692 1704l-272 -172l-119 135l291 266h201l288 -266l-116 -135zM729 227q143 0 289 119l153 -196q-185 -184 -469 -184t-457 194q-173 195 -173 548q0 352 179 550t449 198t455 -158l-168 -196q-115 102 -255 102t-223 -121t-83 -369t80 -367q80 -120 223 -120z" />
    <glyph glyph-name="ccircumflex" unicode="&#x109;" horiz-adv-x="991" 
d="M561 1444l-272 -193l-119 133l291 287h201l288 -287l-116 -133zM408 537q0 -172 56 -243t155 -71q100 0 208 80l148 -209q-164 -129 -363 -129q-258 0 -403 156t-146 416t145 424t394 163q213 0 373 -135l-141 -196q-98 80 -207 79q-219 0 -219 -335z" />
    <glyph glyph-name="Cdotaccent" unicode="&#x10a;" horiz-adv-x="1179" 
d="M883 1735q-1 -80 -55 -133q-54 -54 -138 -54t-138 54t-54 133q0 80 54 132t138 52t138 -52t55 -132zM729 227q143 0 289 119l153 -196q-185 -184 -469 -184t-457 194q-173 195 -173 548q0 352 179 550t449 198t455 -158l-168 -196q-115 102 -255 102t-223 -121t-83 -369
t80 -367q80 -120 223 -120z" />
    <glyph glyph-name="cdotaccent" unicode="&#x10b;" horiz-adv-x="991" 
d="M758 1475q0 -81 -54 -133t-140 -52q-85 0 -139 52t-54 132t54 133q54 52 139 52q86 0 140 -52t54 -132zM408 537q0 -172 56 -243t155 -71q100 0 208 80l148 -209q-164 -129 -363 -129q-258 0 -403 156t-146 416t145 424t394 163q213 0 373 -135l-141 -196q-98 80 -207 79
q-219 0 -219 -335z" />
    <glyph glyph-name="Ccaron" unicode="&#x10c;" horiz-adv-x="1179" 
d="M418 1939l274 -174l273 174l116 -133l-290 -268h-199l-291 268zM729 227q143 0 289 119l153 -196q-185 -184 -469 -184t-457 194q-173 195 -173 548q0 352 179 550t449 198t455 -158l-168 -196q-115 102 -255 102t-223 -121t-83 -369t80 -367q80 -120 223 -120z" />
    <glyph glyph-name="ccaron" unicode="&#x10d;" horiz-adv-x="991" 
d="M301 1671l272 -192l273 192l117 -133l-291 -287h-199l-291 287zM408 537q0 -172 56 -243t155 -71q100 0 208 80l148 -209q-164 -129 -363 -129q-258 0 -403 156t-146 416t145 424t394 163q213 0 373 -135l-141 -196q-98 80 -207 79q-219 0 -219 -335z" />
    <glyph glyph-name="Dcaron" unicode="&#x10e;" horiz-adv-x="1343" 
d="M336 1939l274 -174l273 174l116 -133l-290 -268h-199l-291 268zM1272 717q0 -717 -709 -717h-430v1419h406q121 0 220 -16q99 -17 197 -63t165 -122t109 -204q42 -127 42 -297zM920 717q0 262 -86 359t-246 98h-115v-928h115q160 0 246 104t86 367z" />
    <glyph glyph-name="dcaron" unicode="&#x10f;" horiz-adv-x="1228" 
d="M1176 1540q0 74 47 120t115 46t114 -43q47 -43 47 -116t-55 -183l-94 -186h-162l55 235q-67 53 -67 127zM522 1124q143 0 248 -100v530l328 -34v-1520h-289l-16 119q-113 -154 -315 -154t-305 155t-103 419t121 425q122 160 331 160zM608 885q-199 0 -198 -340
q0 -193 45 -267t142 -73q97 0 173 125v467q-72 88 -162 88z" />
    <glyph glyph-name="Dcroat" unicode="&#x110;" horiz-adv-x="1351" 
d="M483 1174v-349h283v-204h-283v-375h113q160 0 246 104t86 371q0 368 -199 434q-55 18 -131 19h-115zM1280 717q0 -717 -707 -717h-430v621h-127v204h127v594h406q121 0 220 -16q99 -17 197 -63q314 -148 314 -623z" />
    <glyph glyph-name="dcroat" unicode="&#x111;" horiz-adv-x="1247" 
d="M522 1124q143 0 248 -100v190h-274v191h274v149l328 -34v-115h137v-191h-137v-1214h-289l-16 119q-113 -154 -316 -154t-305 154t-102 419t121 426q122 160 331 160zM608 885q-199 0 -198 -340q0 -190 45 -265t142 -75t173 125v467q-72 88 -162 88z" />
    <glyph glyph-name="Emacron" unicode="&#x112;" horiz-adv-x="1079" 
d="M883 1831v-227h-629v227h629zM473 1178v-338h436v-238h-436v-356h535v-246h-875v1419h875l-35 -241h-500z" />
    <glyph glyph-name="emacron" unicode="&#x113;" horiz-adv-x="1134" 
d="M895 1573v-227h-629v227h629zM580 905q-164 0 -185 -260h361q-4 260 -176 260zM643 203q125 0 256 98l137 -186q-190 -150 -420 -150q-270 0 -411 158t-141 415q0 258 134 422q136 164 374 164t372 -148q133 -148 133 -411q0 -67 -6 -116h-672q31 -246 244 -246z" />
    <glyph glyph-name="Ebreve" unicode="&#x114;" horiz-adv-x="1079" 
d="M567 1538q-160 0 -249 97t-103 243l180 33q41 -145 173 -145t173 145l181 -33q-14 -144 -104 -242t-251 -98zM473 1178v-338h436v-238h-436v-356h535v-246h-875v1419h875l-35 -241h-500z" />
    <glyph glyph-name="ebreve" unicode="&#x115;" horiz-adv-x="1134" 
d="M583 1251q-159 -1 -249 105t-105 256l181 30q41 -166 174 -166t174 166l180 -30q-14 -150 -105 -256t-250 -105zM580 905q-164 0 -185 -260h361q-4 260 -176 260zM643 203q125 0 256 98l137 -186q-190 -150 -420 -150q-270 0 -411 158t-141 415q0 258 134 422
q136 164 374 164t372 -148q133 -148 133 -411q0 -67 -6 -116h-672q31 -246 244 -246z" />
    <glyph glyph-name="Edotaccent" unicode="&#x116;" horiz-adv-x="1079" 
d="M756 1735q0 -80 -54 -133q-54 -54 -139 -54q-84 0 -138 54t-54 133q0 80 54 132t138 52q85 0 139 -52t54 -132zM473 1178v-338h436v-238h-436v-356h535v-246h-875v1419h875l-35 -241h-500z" />
    <glyph glyph-name="edotaccent" unicode="&#x117;" horiz-adv-x="1134" 
d="M778 1475q0 -81 -54 -133t-139 -52t-140 52q-54 52 -54 132t54 133q53 52 139 52t140 -52t54 -132zM580 905q-164 0 -185 -260h361q-4 260 -176 260zM643 203q125 0 256 98l137 -186q-190 -150 -420 -150q-270 0 -411 158t-141 415q0 258 134 422q136 164 374 164
t372 -148q133 -148 133 -411q0 -67 -6 -116h-672q31 -246 244 -246z" />
    <glyph glyph-name="Eogonek" unicode="&#x118;" horiz-adv-x="1079" 
d="M817 -244q1 -100 121 -100q64 0 121 29l65 -158q-106 -55 -237 -55t-212 66t-81 183q0 170 215 279h-676v1419h875l-35 -241h-500v-338h436v-238h-436v-358h535v-244q-190 -109 -191 -244z" />
    <glyph glyph-name="eogonek" unicode="&#x119;" horiz-adv-x="1134" 
d="M580 905q-164 0 -185 -260h361q-4 260 -176 260zM670 -244q0 -100 118 -100q64 0 121 29l66 -158q-103 -55 -235 -55t-213 66t-81 183q0 72 50 141t143 115q-37 -4 -64 -4q-247 0 -379 159t-133 411q-1 253 135 417t374 164t372 -148q133 -148 133 -411q0 -68 -6 -116
h-672q31 -246 244 -246q125 0 256 98l137 -186q-61 -48 -159 -101q-207 -111 -207 -258z" />
    <glyph glyph-name="Ecaron" unicode="&#x11a;" horiz-adv-x="1079" 
d="M297 1939l274 -174l273 174l117 -133l-291 -268h-199l-291 268zM473 1178v-338h436v-238h-436v-356h535v-246h-875v1419h875l-35 -241h-500z" />
    <glyph glyph-name="ecaron" unicode="&#x11b;" horiz-adv-x="1134" 
d="M311 1671l273 -192l272 192l117 -133l-291 -287h-199l-290 287zM580 905q-164 0 -185 -260h361q-4 260 -176 260zM643 203q125 0 256 98l137 -186q-190 -150 -420 -150q-270 0 -411 158t-141 415q0 258 134 422q136 164 374 164t372 -148q133 -148 133 -411
q0 -67 -6 -116h-672q31 -246 244 -246z" />
    <glyph glyph-name="Gcircumflex" unicode="&#x11c;" horiz-adv-x="1327" 
d="M723 1704l-272 -172l-119 135l291 266h200l289 -266l-117 -135zM703 -35q-301 -1 -466 191t-165 550t193 554q194 196 481 196t483 -176l-178 -184q-127 112 -284 112t-250 -122t-93 -384t71 -375q71 -114 222 -114q106 0 188 47v318h-186l-33 237h549v-700
q-231 -150 -532 -150z" />
    <glyph glyph-name="gcircumflex" unicode="&#x11d;" horiz-adv-x="1132" 
d="M545 1456l-273 -192l-118 133l290 286h201l289 -286l-117 -133zM395 727q0 -84 43 -130t117 -46q154 0 154 176t-154 176q-76 0 -118 -46t-42 -130zM14 -102h293q0 -78 52 -107q53 -29 189 -29t187 33t51 88q0 106 -155 107h-162q-168 0 -254 59t-86 156q0 123 123 205
q-184 106 -184 305t132 304t343 105q287 0 520 142l82 -244q-100 -41 -311 -41v-8q188 -78 188 -275q0 -160 -124 -261t-333 -101q-72 0 -135 14q-22 -28 -22 -62t28 -50t113 -17h133q202 0 318 -88t116 -229q0 -172 -152 -265t-434 -93q-280 0 -398 87q-118 88 -118 258v7z
" />
    <glyph glyph-name="Gbreve" unicode="&#x11e;" horiz-adv-x="1327" 
d="M721 1538q-160 0 -249 97t-103 243l180 33q41 -145 173 -145t173 145l180 -33q-14 -144 -104 -242t-250 -98zM703 -35q-301 -1 -466 191t-165 550t193 554q194 196 481 196t483 -176l-178 -184q-127 112 -284 112t-250 -122t-93 -384t71 -375q71 -114 222 -114
q106 0 188 47v318h-186l-33 237h549v-700q-231 -150 -532 -150z" />
    <glyph glyph-name="gbreve" unicode="&#x11f;" horiz-adv-x="1132" 
d="M556 1251q-159 -1 -249 105t-104 256l180 30q41 -166 174 -166t174 166l180 -30q-14 -150 -105 -256t-250 -105zM395 727q0 -84 43 -130t117 -46q154 0 154 176t-154 176q-76 0 -118 -46t-42 -130zM14 -102h293q0 -78 52 -107q53 -29 189 -29t187 33t51 88
q0 106 -155 107h-162q-168 0 -254 59t-86 156q0 123 123 205q-184 106 -184 305t132 304t343 105q287 0 520 142l82 -244q-100 -41 -311 -41v-8q188 -78 188 -275q0 -160 -124 -261t-333 -101q-72 0 -135 14q-22 -28 -22 -62t28 -50t113 -17h133q202 0 318 -88t116 -229
q0 -172 -152 -265t-434 -93q-280 0 -398 87q-118 88 -118 258v7z" />
    <glyph glyph-name="Gdotaccent" unicode="&#x120;" horiz-adv-x="1327" 
d="M913 1735q0 -80 -54 -133q-54 -54 -138 -54t-138 54t-55 133q0 80 54 132t139 52q84 0 138 -52t54 -132zM703 -35q-301 -1 -466 191t-165 550t193 554q194 196 481 196t483 -176l-178 -184q-127 112 -284 112t-250 -122t-93 -384t71 -375q71 -114 222 -114q106 0 188 47
v318h-186l-33 237h549v-700q-231 -150 -532 -150z" />
    <glyph glyph-name="gdotaccent" unicode="&#x121;" horiz-adv-x="1132" 
d="M750 1475q0 -81 -54 -133t-140 -52q-85 0 -139 52q-55 52 -55 132t54 133q54 52 140 52t140 -52t54 -132zM395 727q0 -84 43 -130t117 -46q154 0 154 176t-154 176q-76 0 -118 -46t-42 -130zM14 -102h293q0 -78 52 -107q53 -29 189 -29t187 33t51 88q0 106 -155 107h-162
q-168 0 -254 59t-86 156q0 123 123 205q-184 106 -184 305t132 304t343 105q287 0 520 142l82 -244q-100 -41 -311 -41v-8q188 -78 188 -275q0 -160 -124 -261t-333 -101q-72 0 -135 14q-22 -28 -22 -62t28 -50t113 -17h133q202 0 318 -88t116 -229q0 -172 -152 -265
t-434 -93q-280 0 -398 87q-118 88 -118 258v7z" />
    <glyph glyph-name="uni0122" unicode="&#x122;" horiz-adv-x="1327" 
d="M549 -299q0 74 47 120t115 46q69 0 115 -43t46 -116t-55 -183l-94 -187h-162l55 236q-67 53 -67 127zM703 -35q-301 -1 -466 191t-165 550t193 554q194 196 481 196t483 -176l-178 -184q-127 112 -284 112t-250 -122t-93 -384t71 -375q71 -114 222 -114q106 0 188 47v318
h-186l-33 237h549v-700q-231 -150 -532 -150z" />
    <glyph glyph-name="uni0123" unicode="&#x123;" horiz-adv-x="1132" 
d="M717 1429q0 -73 -47 -119t-115 -46t-115 43t-47 115t56 184l94 186h162l-56 -236q68 -53 68 -127zM395 727q0 -84 43 -130t117 -46q154 0 154 176t-154 176q-76 0 -118 -46t-42 -130zM14 -102h293q0 -78 52 -107q53 -29 189 -29t187 33t51 88q0 106 -155 107h-162
q-168 0 -254 59t-86 156q0 123 123 205q-184 106 -184 305t132 304t343 105q287 0 520 142l82 -244q-100 -41 -311 -41v-8q188 -78 188 -275q0 -160 -124 -261t-333 -101q-72 0 -135 14q-22 -28 -22 -62t28 -50t113 -17h133q202 0 318 -88t116 -229q0 -172 -152 -265
t-434 -93q-280 0 -398 87q-118 88 -118 258v7z" />
    <glyph glyph-name="Hcircumflex" unicode="&#x124;" horiz-adv-x="1361" 
d="M682 1704l-272 -172l-119 135l291 266h200l289 -266l-117 -135zM1229 0h-340v606h-416v-606h-340v1419h340v-549h416v549h340v-1419z" />
    <glyph glyph-name="hcircumflex" unicode="&#x125;" horiz-adv-x="1183" 
d="M602 1788l-272 -172l-119 135l291 266h200l289 -266l-117 -135zM455 0h-328v1520l328 32v-575q141 147 317 147q143 0 219 -85t76 -240v-799h-328v748q-1 74 -25 104t-75 31q-90 0 -184 -131v-752z" />
    <glyph glyph-name="Hbar" unicode="&#x126;" horiz-adv-x="1392" 
d="M487 870h416v154h-416v-154zM1243 0h-340v606h-416v-606h-340v1024h-120v188h120v207h340v-207h416v207h340v-207h123v-188h-123v-1024z" />
    <glyph glyph-name="hbar" unicode="&#x127;" horiz-adv-x="1191" 
d="M463 0h-328v1214h-127v191h127v115l328 32v-147h285v-191h-285v-237q141 147 317 147q143 0 219 -85t76 -240v-799h-327v748q0 74 -25 104t-76 31q-90 0 -184 -131v-752z" />
    <glyph glyph-name="Itilde" unicode="&#x128;" horiz-adv-x="606" 
d="M420 1585q-74 0 -142 43t-96 43q-30 0 -52 -19t-48 -67l-164 78q92 240 270 240q74 0 142 -43t90 -43q57 0 106 86l164 -78q-94 -240 -270 -240zM473 0h-340v1419h340v-1419z" />
    <glyph glyph-name="itilde" unicode="&#x129;" horiz-adv-x="575" 
d="M414 1294q-82 0 -150 46t-96 46t-52 -20q-22 -20 -48 -68l-164 78q41 106 109 174q69 68 152 68t151 -45t95 -45q29 0 51 20t48 68l164 -78q-38 -106 -108 -175t-152 -69zM451 0h-328v1087h328v-1087z" />
    <glyph glyph-name="Imacron" unicode="&#x12a;" horiz-adv-x="606" 
d="M616 1831v-227h-628v227h628zM473 0h-340v1419h340v-1419z" />
    <glyph glyph-name="imacron" unicode="&#x12b;" horiz-adv-x="575" 
d="M451 0h-328v1087h328v-1087zM600 1573v-227h-629v227h629z" />
    <glyph glyph-name="Ibreve" unicode="&#x12c;" horiz-adv-x="606" 
d="M303 1538q-160 0 -249 97t-103 243l180 33q41 -145 173 -145t173 145l180 -33q-14 -144 -104 -242t-250 -98zM473 0h-340v1419h340v-1419z" />
    <glyph glyph-name="ibreve" unicode="&#x12d;" horiz-adv-x="575" 
d="M451 0h-328v1087h328v-1087zM288 1251q-159 -1 -249 105t-105 256l181 30q41 -166 174 -166t174 166l180 -30q-14 -150 -105 -256t-250 -105z" />
    <glyph glyph-name="Iogonek" unicode="&#x12e;" horiz-adv-x="606" 
d="M285 -244q1 -100 121 -100q66 0 118 29l68 -158q-106 -55 -238 -55t-212 66q-81 66 -81 183q0 170 215 279h-143v1419h340v-1419q-188 -104 -188 -244z" />
    <glyph glyph-name="iogonek" unicode="&#x12f;" horiz-adv-x="575" 
d="M481 1475q0 -81 -54 -133t-139 -52t-140 52q-54 52 -54 132t54 133q54 52 140 52t139 -52q54 -52 54 -132zM382 -344q64 0 120 29l65 -158q-104 -55 -235 -55t-212 66t-81 183q0 168 213 279h-129v1087h328v-1087q-188 -106 -189 -244q0 -100 120 -100z" />
    <glyph glyph-name="Idotaccent" unicode="&#x130;" horiz-adv-x="606" 
d="M496 1735q0 -80 -54 -133q-54 -54 -139 -54q-84 0 -138 54t-54 133q0 80 54 132t138 52q85 0 139 -52t54 -132zM473 0h-340v1419h340v-1419z" />
    <glyph glyph-name="dotlessi" unicode="&#x131;" horiz-adv-x="575" 
d="M451 0h-328v1087h328v-1087z" />
    <glyph glyph-name="IJ" unicode="&#x132;" horiz-adv-x="1220" 
d="M758 229v1190h340v-1202q0 -258 -142 -390q-70 -65 -142 -103t-175 -74l-90 244q129 52 169 124t40 211zM473 0h-340v1419h340v-1419z" />
    <glyph glyph-name="ij" unicode="&#x133;" horiz-adv-x="1132" 
d="M1038 1475q0 -81 -54 -133t-139 -52t-139 52t-54 132t54 133q54 52 139 52t139 -52t54 -132zM680 104v983h328v-962q0 -258 -121 -385q-63 -66 -133 -108t-181 -87l-114 240q117 51 169 117t52 202zM451 0h-328v1087h328v-1087zM481 1475q0 -81 -54 -133t-139 -52
t-140 52q-54 52 -54 132t54 133q54 52 140 52t139 -52q54 -52 54 -132z" />
    <glyph glyph-name="Jcircumflex" unicode="&#x134;" horiz-adv-x="620" 
d="M315 1704l-272 -172l-119 135l291 266h201l289 -266l-117 -135zM158 229v1190h340v-1202q0 -258 -142 -390q-70 -65 -142 -103t-175 -74l-90 244q129 52 169 124t40 211z" />
    <glyph glyph-name="jcircumflex" unicode="&#x135;" horiz-adv-x="575" 
d="M123 104v983h328v-962q0 -260 -125 -391q-64 -66 -136 -108t-174 -81l-114 240q119 53 170 118t51 201zM291 1444l-273 -193l-118 133l290 287h201l289 -287l-117 -133z" />
    <glyph glyph-name="uni0136" unicode="&#x136;" horiz-adv-x="1302" 
d="M496 -299q0 74 47 120t115 46t114 -43q47 -43 47 -116t-55 -183l-94 -187h-162l55 236q-67 53 -67 127zM936 0l-451 758l447 661h358l-450 -637l487 -782h-391zM473 1419v-1419h-340v1419h340z" />
    <glyph glyph-name="uni0137" unicode="&#x137;" horiz-adv-x="1134" 
d="M428 -299q0 74 46 120t115 46t116 -43t47 -116t-56 -183l-94 -187h-162l56 236q-68 53 -68 127zM786 0l-321 596l332 491h333l-329 -477l354 -610h-369zM455 0h-328v1520l328 34v-1554z" />
    <glyph glyph-name="kgreenlandic" unicode="&#x138;" horiz-adv-x="1134" 
d="M786 0l-321 565l332 522h333l-329 -499l354 -588h-369zM455 0h-328v1087h328v-1087z" />
    <glyph glyph-name="Lacute" unicode="&#x139;" horiz-adv-x="1048" 
d="M139 1538l-98 166l442 285l144 -244zM133 0v1419h340v-1151h555l-37 -268h-858z" />
    <glyph glyph-name="lacute" unicode="&#x13a;" horiz-adv-x="606" 
d="M88 1612l-98 166l442 284l143 -243zM392 -35q-124 0 -202 81t-77 237v1237l327 34v-1247q0 -84 56 -84q28 0 53 10l63 -231q-96 -37 -220 -37z" />
    <glyph glyph-name="uni013B" unicode="&#x13b;" horiz-adv-x="1048" 
d="M385 -299q0 74 47 120t115 46t115 -43t47 -116t-56 -183l-94 -187h-162l56 236q-68 53 -68 127zM133 0v1419h340v-1151h555l-37 -268h-858z" />
    <glyph glyph-name="uni013C" unicode="&#x13c;" horiz-adv-x="606" 
d="M190 -299q0 74 46 120t116 46q68 0 115 -43t47 -116t-55 -183l-94 -187h-162l55 236q-68 53 -68 127zM392 -35q-124 0 -202 81t-77 237v1237l327 34v-1247q0 -84 56 -84q28 0 53 10l63 -231q-96 -37 -220 -37z" />
    <glyph glyph-name="Lcaron" unicode="&#x13d;" horiz-adv-x="1048" 
d="M643 1283q0 73 47 120t115 47t115 -43t47 -116t-56 -183l-94 -186h-162l56 235q-68 53 -68 126zM133 0v1419h340v-1151h555l-37 -268h-858z" />
    <glyph glyph-name="lcaron" unicode="&#x13e;" horiz-adv-x="847" 
d="M543 1544q0 74 46 120t115 46q70 0 116 -43t46 -116t-55 -183l-94 -186h-162l55 235q-67 53 -67 127zM392 -35q-124 0 -202 81t-77 237v1237l327 34v-1247q0 -84 56 -84q28 0 53 10l63 -231q-96 -37 -220 -37z" />
    <glyph glyph-name="Ldot" unicode="&#x13f;" horiz-adv-x="1048" 
d="M1008 774q0 -80 -54 -132t-140 -52q-85 0 -139 52t-54 132t54 132t139 52q86 0 140 -52t54 -132zM133 0v1419h340v-1151h555l-37 -268h-858z" />
    <glyph glyph-name="ldot" unicode="&#x140;" horiz-adv-x="911" 
d="M926 754q0 -80 -54 -132t-140 -52q-85 0 -139 52t-54 132t54 132t139 52q86 0 140 -52t54 -132zM392 -35q-124 0 -202 81t-77 237v1237l327 34v-1247q0 -84 56 -84q28 0 53 10l63 -231q-96 -37 -220 -37z" />
    <glyph glyph-name="Lslash" unicode="&#x141;" horiz-adv-x="1093" 
d="M178 0v463l-86 -53l-110 180l196 121v708h340v-497l260 159l113 -176l-373 -233v-404h555l-37 -268h-858z" />
    <glyph glyph-name="lslash" unicode="&#x142;" horiz-adv-x="712" 
d="M448 -35q-124 0 -202 81t-78 237v239l-76 -45l-117 182l193 119v742l328 34v-575l120 74l117 -185l-237 -145v-416q0 -84 55 -84q28 0 53 10l64 -231q-96 -37 -220 -37z" />
    <glyph glyph-name="Nacute" unicode="&#x143;" horiz-adv-x="1361" 
d="M510 1538l-98 166l442 285l143 -244zM1227 0h-432l-400 1083h-8q51 -244 51 -553v-530h-305v1419h426l406 -1083h8q-51 213 -51 545v538h305v-1419z" />
    <glyph glyph-name="nacute" unicode="&#x144;" horiz-adv-x="1183" 
d="M440 1245l-100 166l442 295l144 -244zM455 0h-328v1087h285l24 -124q143 162 336 161q143 0 219 -85t76 -240v-799h-328v748q-1 74 -25 104t-75 31q-90 0 -184 -131v-752z" />
    <glyph glyph-name="uni0145" unicode="&#x145;" horiz-adv-x="1361" 
d="M537 -299q0 74 47 120q46 46 114 46t115 -43t47 -116t-55 -183l-94 -187h-162l55 236q-67 53 -67 127zM1227 0h-432l-400 1083h-8q51 -244 51 -553v-530h-305v1419h426l406 -1083h8q-51 213 -51 545v538h305v-1419z" />
    <glyph glyph-name="uni0146" unicode="&#x146;" horiz-adv-x="1183" 
d="M428 -299q0 74 46 120t115 46t116 -43t47 -116t-56 -183l-94 -187h-162l56 236q-68 53 -68 127zM455 0h-328v1087h285l24 -124q143 162 336 161q143 0 219 -85t76 -240v-799h-328v748q-1 74 -25 104t-75 31q-90 0 -184 -131v-752z" />
    <glyph glyph-name="Ncaron" unicode="&#x147;" horiz-adv-x="1361" 
d="M403 1939l275 -174l272 174l117 -133l-291 -268h-198l-291 268zM1227 0h-432l-400 1083h-8q51 -244 51 -553v-530h-305v1419h426l406 -1083h8q-51 213 -51 545v538h305v-1419z" />
    <glyph glyph-name="ncaron" unicode="&#x148;" horiz-adv-x="1183" 
d="M354 1671l273 -192l272 192l117 -133l-291 -287h-199l-290 287zM455 0h-328v1087h285l24 -124q143 162 336 161q143 0 219 -85t76 -240v-799h-328v748q-1 74 -25 104t-75 31q-90 0 -184 -131v-752z" />
    <glyph glyph-name="napostrophe" unicode="&#x149;" horiz-adv-x="1183" 
d="M-31 1634q0 74 46 120t115 46t116 -43t47 -116t-55 -183l-95 -186h-161l55 235q-68 53 -68 127zM455 0h-328v1087h285l24 -124q143 162 336 161q143 0 219 -85t76 -240v-799h-328v748q-1 74 -25 104t-75 31q-90 0 -184 -131v-752z" />
    <glyph glyph-name="Eng" unicode="&#x14a;" horiz-adv-x="1361" 
d="M1227 94q0 -229 -123 -354t-334 -195l-84 230q113 43 162 93t59 132h-112l-400 1083h-8q51 -244 51 -565v-518h-305v1419h426l406 -1083h8q-51 233 -51 557v526h305v-1325z" />
    <glyph glyph-name="eng" unicode="&#x14b;" horiz-adv-x="1183" 
d="M1067 799v-674q0 -258 -121 -385q-63 -66 -134 -108t-181 -87l-115 240q119 51 171 117t52 202v644q-1 74 -25 104t-75 31q-90 0 -184 -131v-752h-328v1087h285l24 -124q143 162 336 161q143 0 219 -84t76 -241z" />
    <glyph glyph-name="Omacron" unicode="&#x14c;" horiz-adv-x="1417" 
d="M1022 1831v-227h-629v227h629zM991 711q0 264 -69 380q-70 115 -213 115t-213 -116t-70 -378q0 -263 71 -381t214 -118t212 117q68 117 68 381zM72 708q0 352 169 550t469 198t468 -196t168 -546q0 -351 -169 -550t-469 -199t-468 196t-168 547z" />
    <glyph glyph-name="omacron" unicode="&#x14d;" horiz-adv-x="1198" 
d="M913 1573v-227h-628v227h628zM63 539q1 268 145 427q144 158 392 158t391 -156t143 -425q0 -268 -142 -423t-393 -155t-393 153t-143 421zM795 547q0 336 -196 336t-196 -338q1 -178 49 -259t148 -81t148 82q47 82 47 260z" />
    <glyph glyph-name="Obreve" unicode="&#x14e;" horiz-adv-x="1417" 
d="M707 1538q-160 0 -249 97t-104 243l181 33q41 -145 173 -145t173 145l180 -33q-14 -144 -104 -242t-250 -98zM991 711q0 264 -69 380q-70 115 -213 115t-213 -116t-70 -378q0 -263 71 -381t214 -118t212 117q68 117 68 381zM72 708q0 352 169 550t469 198t468 -196
t168 -546q0 -351 -169 -550t-469 -199t-468 196t-168 547z" />
    <glyph glyph-name="obreve" unicode="&#x14f;" horiz-adv-x="1198" 
d="M599 1251q-159 -1 -249 105t-104 256l180 30q41 -166 174 -166t174 166l180 -30q-14 -150 -105 -256t-250 -105zM63 539q1 268 145 427q144 158 392 158t391 -156t143 -425q0 -268 -142 -423t-393 -155t-393 153t-143 421zM795 547q0 336 -196 336t-196 -338
q1 -178 49 -259t148 -81t148 82q47 82 47 260z" />
    <glyph glyph-name="Ohungarumlaut" unicode="&#x150;" horiz-adv-x="1417" 
d="M963 1571l-168 82l215 399l219 -110zM608 1577l-172 72l199 403l221 -100zM991 711q0 264 -69 380q-70 115 -213 115t-213 -116t-70 -378q0 -263 71 -381t214 -118t212 117q68 117 68 381zM72 708q0 352 169 550t469 198t468 -196t168 -546q0 -351 -169 -550t-469 -199
t-468 196t-168 547z" />
    <glyph glyph-name="ohungarumlaut" unicode="&#x151;" horiz-adv-x="1198" 
d="M809 1280l-166 82l201 405l219 -108zM455 1286l-172 72l186 409l221 -100zM63 539q1 268 145 427q144 158 392 158t391 -156t143 -425q0 -268 -142 -423t-393 -155t-393 153t-143 421zM795 547q0 336 -196 336t-196 -338q1 -178 49 -259t148 -81t148 82q47 82 47 260z
" />
    <glyph glyph-name="OE" unicode="&#x152;" horiz-adv-x="1912" 
d="M1743 840v-242h-416q-18 -223 -106 -354h618v-244h-899q-98 -35 -207 -35q-295 0 -461 196t-166 547q0 352 167 550t460 198q115 0 213 -37h895l-37 -241h-579q86 -139 100 -338h418zM999 709q0 268 -63 383q-62 114 -200 114t-207 -116t-68 -379q0 -498 272 -498
q145 0 206 114q60 114 60 382z" />
    <glyph glyph-name="oe" unicode="&#x153;" horiz-adv-x="1841" 
d="M1286 893q-162 0 -182 -242h356q-4 242 -174 242zM795 547q0 336 -197 336q-98 0 -146 -81t-48 -258t46 -257q48 -80 148 -80t148 81t49 259zM1352 213q121 0 258 98l135 -196q-188 -150 -426 -150t-371 164q-124 -164 -364 -164t-380 153t-141 421t143 427
q144 158 385 158t365 -178q123 178 345 178q223 0 353 -148t130 -413l-6 -102h-674q25 -248 248 -248z" />
    <glyph glyph-name="Racute" unicode="&#x154;" horiz-adv-x="1265" 
d="M430 1538l-98 166l442 285l144 -244zM838 987q0 195 -236 195h-129v-408h141q224 0 224 213zM1186 987q0 -274 -283 -389l373 -598h-383l-305 541h-115v-541h-340v1419h469q584 0 584 -432z" />
    <glyph glyph-name="racute" unicode="&#x155;" horiz-adv-x="811" 
d="M252 1245l-100 166l442 295l143 -244zM453 0h-328v1087h291l24 -202q39 109 113 172t166 63q49 0 108 -16l-53 -318q-45 14 -98 15q-166 0 -223 -254v-547z" />
    <glyph glyph-name="uni0156" unicode="&#x156;" horiz-adv-x="1265" 
d="M481 -299q0 74 46 120t115 46t116 -43t47 -116t-55 -183l-95 -187h-161l55 236q-68 53 -68 127zM838 987q0 195 -236 195h-129v-408h141q224 0 224 213zM1186 987q0 -274 -283 -389l373 -598h-383l-305 541h-115v-541h-340v1419h469q584 0 584 -432z" />
    <glyph glyph-name="uni0157" unicode="&#x157;" horiz-adv-x="811" 
d="M131 -299q0 74 47 120t115 46t115 -43t47 -116t-56 -183l-94 -187h-162l56 236q-68 53 -68 127zM453 0h-328v1087h291l24 -202q39 109 113 172t166 63q49 0 108 -16l-53 -318q-45 14 -98 15q-166 0 -223 -254v-547z" />
    <glyph glyph-name="Rcaron" unicode="&#x158;" horiz-adv-x="1265" 
d="M342 1939l274 -174l273 174l117 -133l-291 -268h-199l-291 268zM838 987q0 195 -236 195h-129v-408h141q224 0 224 213zM1186 987q0 -274 -283 -389l373 -598h-383l-305 541h-115v-541h-340v1419h469q584 0 584 -432z" />
    <glyph glyph-name="rcaron" unicode="&#x159;" horiz-adv-x="811" 
d="M162 1671l272 -192l273 192l116 -133l-291 -287h-198l-291 287zM453 0h-328v1087h291l24 -202q39 109 113 172t166 63q49 0 108 -16l-53 -318q-45 14 -98 15q-166 0 -223 -254v-547z" />
    <glyph glyph-name="Sacute" unicode="&#x15a;" horiz-adv-x="1169" 
d="M389 1538l-98 166l442 285l144 -244zM633 1206q-91 0 -145 -36t-54 -102t51 -104t241 -100t294 -163q102 -101 102 -295t-152 -317q-152 -124 -411 -124q-344 0 -553 205l174 190q160 -143 365 -143q104 0 164 46q59 46 59 125t-51 123t-199 89q-240 76 -338 178t-98 278
t149 289q150 112 373 111q299 0 494 -184l-160 -185q-143 119 -305 119z" />
    <glyph glyph-name="sacute" unicode="&#x15b;" horiz-adv-x="1005" 
d="M317 1245l-100 166l442 295l144 -244zM174 307q139 -108 294 -108t155 104q0 51 -44 79t-202 71q-311 82 -311 335q0 143 120 240q120 96 350 96t396 -123l-133 -192q-129 82 -266 82t-138 -84q0 -43 44 -70t202 -71t240 -122q82 -76 82 -230q-1 -154 -141 -252t-349 -97
q-285 0 -461 162z" />
    <glyph glyph-name="Scircumflex" unicode="&#x15c;" horiz-adv-x="1169" 
d="M602 1704l-272 -172l-119 135l291 266h200l289 -266l-117 -135zM633 1206q-91 0 -145 -36t-54 -102t51 -104t241 -100t294 -163q102 -101 102 -295t-152 -317q-152 -124 -411 -124q-344 0 -553 205l174 190q160 -143 365 -143q104 0 164 46q59 46 59 125t-51 123t-199 89
q-240 76 -338 178t-98 278t149 289q150 112 373 111q299 0 494 -184l-160 -185q-143 119 -305 119z" />
    <glyph glyph-name="scircumflex" unicode="&#x15d;" horiz-adv-x="1005" 
d="M506 1444l-273 -193l-118 133l291 287h200l289 -287l-117 -133zM174 307q139 -108 294 -108t155 104q0 51 -44 79t-202 71q-311 82 -311 335q0 143 120 240q120 96 350 96t396 -123l-133 -192q-129 82 -266 82t-138 -84q0 -43 44 -70t202 -71t240 -122q82 -76 82 -230
q-1 -154 -141 -252t-349 -97q-285 0 -461 162z" />
    <glyph glyph-name="Scedilla" unicode="&#x15e;" horiz-adv-x="1169" 
d="M633 1206q-91 0 -145 -36t-54 -102t51 -104t241 -100t294 -163q102 -101 102 -283t-120 -301t-332 -146v-69q210 -24 212 -213q0 -94 -83 -161t-223 -67t-242 64l76 149q70 -35 131 -34q104 0 104 63q0 39 -44 53t-142 15l20 198q-291 23 -473 201l174 190
q160 -143 365 -143q104 0 164 46q59 46 59 125t-51 123t-199 89q-240 76 -338 178t-98 278t149 289q150 112 373 111q299 0 494 -184l-160 -185q-143 119 -305 119z" />
    <glyph glyph-name="scedilla" unicode="&#x15f;" horiz-adv-x="1005" 
d="M557 -297q0 39 -44 53t-142 15l22 198q-236 20 -381 158l162 180q139 -109 289 -108q76 1 118 27t42 76t-44 78t-202 71q-311 86 -311 337q0 143 120 240q120 96 350 96t392 -120l-131 -195q-127 82 -264 82t-138 -84q0 -43 44 -70t201 -71t240 -121q83 -78 83 -220
q1 -143 -105 -235t-276 -117v-71q210 -24 212 -213q0 -94 -83 -161t-223 -67t-242 64l76 149q70 -35 131 -34q104 0 104 63z" />
    <glyph glyph-name="Scaron" unicode="&#x160;" horiz-adv-x="1169" 
d="M328 1939l274 -174l272 174l117 -133l-291 -268h-198l-291 268zM633 1206q-91 0 -145 -36t-54 -102t51 -104t241 -100t294 -163q102 -101 102 -295t-152 -317q-152 -124 -411 -124q-344 0 -553 205l174 190q160 -143 365 -143q104 0 164 46q59 46 59 125t-51 123t-199 89
q-240 76 -338 178t-98 278t149 289q150 112 373 111q299 0 494 -184l-160 -185q-143 119 -305 119z" />
    <glyph glyph-name="scaron" unicode="&#x161;" horiz-adv-x="1005" 
d="M233 1671l273 -192l272 192l117 -133l-291 -287h-198l-291 287zM174 307q139 -108 294 -108t155 104q0 51 -44 79t-202 71q-311 82 -311 335q0 143 120 240q120 96 350 96t396 -123l-133 -192q-129 82 -266 82t-138 -84q0 -43 44 -70t202 -71t240 -122q82 -76 82 -230
q-1 -154 -141 -252t-349 -97q-285 0 -461 162z" />
    <glyph glyph-name="uni0162" unicode="&#x162;" horiz-adv-x="1107" 
d="M725 -98q213 -25 213 -213q0 -94 -84 -161t-223 -67t-242 64l76 149q70 -35 131 -34q106 0 106 63q0 39 -45 53t-143 15l25 229h-154v1159h-367v260h1090l-35 -260h-348v-1257z" />
    <glyph glyph-name="uni0163" unicode="&#x163;" horiz-adv-x="790" 
d="M563 -98q213 -25 213 -214q0 -95 -84 -161t-221 -66t-244 64l78 149q66 -35 129 -34q107 0 107 63q0 39 -45 53t-144 15l25 213q-119 33 -169 128t-50 255v495h-162v225h162v236l327 39v-275h256l-34 -225h-222v-497q0 -76 25 -109t77 -33t118 37l110 -209
q-98 -70 -252 -84v-65z" />
    <glyph glyph-name="Tcaron" unicode="&#x164;" horiz-adv-x="1107" 
d="M279 1939l274 -174l272 174l117 -133l-291 -268h-198l-291 268zM725 1159v-1159h-340v1159h-367v260h1090l-35 -260h-348z" />
    <glyph glyph-name="tcaron" unicode="&#x165;" horiz-adv-x="866" 
d="M565 1578q0 73 47 120t115 47t115 -43t47 -116t-55 -183l-95 -186h-161l55 235q-68 53 -68 126zM158 367v495h-162v225h162v236l327 39v-275h256l-34 -225h-222v-497q0 -76 25 -109t77 -33t118 37l110 -209q-123 -86 -311 -85q-188 0 -266 100q-80 100 -80 301z" />
    <glyph glyph-name="Tbar" unicode="&#x166;" horiz-adv-x="1107" 
d="M961 831v-190h-236v-641h-340v641h-235v190h235v328h-367v260h1090l-35 -260h-348v-328h236z" />
    <glyph glyph-name="tbar" unicode="&#x167;" horiz-adv-x="790" 
d="M158 371v164h-146v204h146v123h-162v225h162v236l327 39v-275h256l-34 -225h-222v-123h207v-204h-207v-170q0 -76 25 -109t77 -33t118 37l110 -209q-123 -86 -311 -85q-188 2 -268 102q-78 100 -78 303z" />
    <glyph glyph-name="Utilde" unicode="&#x168;" horiz-adv-x="1339" 
d="M784 1585q-74 0 -142 43t-96 43t-50 -19t-50 -67l-163 78q92 240 270 240q73 0 141 -43t90 -43q57 0 107 86l164 -78q-95 -240 -271 -240zM1227 1419v-944q-1 -227 -145 -369t-414 -141q-270 0 -413 138q-142 138 -142 372v944h340v-934q0 -137 52 -203t165 -65
q113 0 165 66t52 202v934h340z" />
    <glyph glyph-name="utilde" unicode="&#x169;" horiz-adv-x="1171" 
d="M706 1294q-82 0 -150 46t-96 46t-50 -20t-50 -68l-163 78q41 106 109 174q69 68 152 68q82 0 150 -45t96 -45q52 0 99 88l164 -78q-39 -106 -109 -175t-152 -69zM117 1087h327v-743q0 -133 95 -133q104 0 178 113v763h327v-1087h-286l-15 127q-113 -162 -323 -162
q-154 0 -229 89t-74 249v784z" />
    <glyph glyph-name="Umacron" unicode="&#x16a;" horiz-adv-x="1339" 
d="M983 1831v-227h-629v227h629zM1227 1419v-944q-1 -227 -145 -369t-414 -141q-270 0 -413 138q-142 138 -142 372v944h340v-934q0 -137 52 -203t165 -65q113 0 165 66t52 202v934h340z" />
    <glyph glyph-name="umacron" unicode="&#x16b;" horiz-adv-x="1171" 
d="M895 1573v-227h-629v227h629zM117 1087h327v-743q0 -133 95 -133q104 0 178 113v763h327v-1087h-286l-15 127q-113 -162 -323 -162q-154 0 -229 89t-74 249v784z" />
    <glyph glyph-name="Ubreve" unicode="&#x16c;" horiz-adv-x="1339" 
d="M668 1538q-160 0 -249 97t-104 243l181 33q41 -145 173 -145t173 145l180 -33q-14 -144 -104 -242t-250 -98zM1227 1419v-944q-1 -227 -145 -369t-414 -141q-270 0 -413 138q-142 138 -142 372v944h340v-934q0 -137 52 -203t165 -65q113 0 165 66t52 202v934h340z" />
    <glyph glyph-name="ubreve" unicode="&#x16d;" horiz-adv-x="1171" 
d="M581 1251q-159 -1 -249 105t-105 256l181 30q41 -166 174 -166t174 166l180 -30q-14 -150 -105 -256t-250 -105zM117 1087h327v-743q0 -133 95 -133q104 0 178 113v763h327v-1087h-286l-15 127q-113 -162 -323 -162q-154 0 -229 89t-74 249v784z" />
    <glyph glyph-name="Uring" unicode="&#x16e;" horiz-adv-x="1339" 
d="M670 2052q130 0 208 -78t78 -192q0 -113 -78 -192t-208 -79q-129 0 -207 79t-78 193q0 113 78 191t207 78zM578 1784q0 -49 26 -76t66 -27t66 27t26 76t-26 75q-26 25 -66 25t-67 -25q-25 -26 -25 -75zM1227 1419v-944q-1 -227 -145 -369t-414 -141q-270 0 -413 138
q-142 138 -142 372v944h340v-934q0 -137 52 -203t165 -65q113 0 165 66t52 202v934h340z" />
    <glyph glyph-name="uring" unicode="&#x16f;" horiz-adv-x="1171" 
d="M868 1503q0 -113 -78 -193t-207 -79q-128 0 -207 80q-79 81 -79 193t78 191t207 79q130 0 208 -79t78 -192zM492 1502q0 -101 91 -101t91 101t-92 102q-90 -1 -90 -102zM117 1087h327v-743q0 -133 95 -133q104 0 178 113v763h327v-1087h-286l-15 127q-113 -162 -323 -162
q-154 0 -229 89t-74 249v784z" />
    <glyph glyph-name="Uhungarumlaut" unicode="&#x170;" horiz-adv-x="1339" 
d="M897 1571l-168 82l215 399l219 -110zM543 1577l-172 72l198 403l222 -100zM1227 1419v-944q-1 -227 -145 -369t-414 -141q-270 0 -413 138q-142 138 -142 372v944h340v-934q0 -137 52 -203t165 -65q113 0 165 66t52 202v934h340z" />
    <glyph glyph-name="uhungarumlaut" unicode="&#x171;" horiz-adv-x="1171" 
d="M786 1280l-165 82l200 405l219 -108zM432 1286l-172 72l186 409l222 -100zM117 1087h327v-743q0 -133 95 -133q104 0 178 113v763h327v-1087h-286l-15 127q-113 -162 -323 -162q-154 0 -229 89t-74 249v784z" />
    <glyph glyph-name="Uogonek" unicode="&#x172;" horiz-adv-x="1339" 
d="M717 -244q-1 -100 119 -100q64 0 122 29l66 -158q-106 -55 -237 -55t-213 66q-81 67 -80 183q0 145 172 244q-266 2 -410 137q-143 135 -143 373v944h340v-934q0 -137 52 -203t165 -65q113 0 165 66t52 202v934h340v-944q0 -166 -79 -289t-230 -180q-201 -104 -201 -250z
" />
    <glyph glyph-name="uogonek" unicode="&#x173;" horiz-adv-x="1171" 
d="M854 -244q0 -100 120 -100q64 0 122 29l65 -158q-106 -55 -237 -55t-212 66t-81 183q0 168 221 279h-94l-13 127q-115 -162 -325 -162q-154 0 -229 89t-74 249v784h327v-743q0 -76 25 -106t76 -31q102 0 172 117v763h327v-1087q-190 -113 -190 -244z" />
    <glyph glyph-name="Wcircumflex" unicode="&#x174;" horiz-adv-x="1738" 
d="M868 1704l-272 -172l-119 135l291 266h201l288 -266l-116 -135zM1720 1419l-235 -1419h-445l-170 1049h-8l-182 -1049h-432l-230 1419h338l136 -1134h8l192 1134h357l180 -1132h8l160 1132h323z" />
    <glyph glyph-name="wcircumflex" unicode="&#x175;" horiz-adv-x="1544" 
d="M774 1444l-272 -193l-119 133l291 287h200l289 -287l-116 -133zM1536 1087l-227 -1087h-391l-142 770h-8l-145 -770h-383l-232 1087h330l108 -819h9l168 819h319l145 -815h9l125 815h315z" />
    <glyph glyph-name="Ycircumflex" unicode="&#x176;" horiz-adv-x="1218" 
d="M612 1704l-272 -172l-119 135l291 266h201l288 -266l-116 -135zM778 0h-340v530l-454 889h372l254 -612h8l256 612h361l-457 -887v-532z" />
    <glyph glyph-name="ycircumflex" unicode="&#x177;" horiz-adv-x="1062" 
d="M539 1444l-273 -193l-119 133l291 287h201l289 -287l-117 -133zM1073 1087l-344 -1087q-133 -428 -614 -455l-37 232q158 20 232 68t118 155h-113l-327 1087h348l186 -862h8l205 862h338z" />
    <glyph glyph-name="Ydieresis" unicode="&#x178;" horiz-adv-x="1218" 
d="M849 1548q-71 0 -121 49t-50 118t50 117t121 48t120 -48t49 -118t-49 -118t-120 -48zM374 1548q-71 0 -121 49t-50 118t50 117t121 48t120 -48t49 -118t-49 -118t-120 -48zM778 0h-340v530l-454 889h372l254 -612h8l256 612h361l-457 -887v-532z" />
    <glyph glyph-name="Zacute" unicode="&#x179;" horiz-adv-x="1114" 
d="M422 1538l-98 166l442 285l143 -244zM37 0v254l627 903h-566v262h953v-256l-615 -893h627l-35 -270h-991z" />
    <glyph glyph-name="zacute" unicode="&#x17a;" horiz-adv-x="942" 
d="M297 1245l-100 166l442 295l143 -244zM27 0v231l491 611h-448v245h825v-229l-489 -610h501l-30 -248h-850z" />
    <glyph glyph-name="Zdotaccent" unicode="&#x17b;" horiz-adv-x="1114" 
d="M778 1735q0 -80 -54 -133q-54 -54 -138 -54t-138 54t-55 133q0 80 54 132q55 52 139 52t138 -52t54 -132zM37 0v254l627 903h-566v262h953v-256l-615 -893h627l-35 -270h-991z" />
    <glyph glyph-name="zdotaccent" unicode="&#x17c;" horiz-adv-x="942" 
d="M680 1475q0 -81 -54 -133t-140 -52t-139 52q-54 52 -54 132t54 133q54 52 139 52q86 0 140 -52t54 -132zM27 0v231l491 611h-448v245h825v-229l-489 -610h501l-30 -248h-850z" />
    <glyph glyph-name="Zcaron" unicode="&#x17d;" horiz-adv-x="1114" 
d="M313 1939l275 -174l272 174l117 -133l-291 -268h-199l-290 268zM37 0v254l627 903h-566v262h953v-256l-615 -893h627l-35 -270h-991z" />
    <glyph glyph-name="zcaron" unicode="&#x17e;" horiz-adv-x="942" 
d="M217 1671l272 -192l273 192l117 -133l-291 -287h-199l-291 287zM27 0v231l491 611h-448v245h825v-229l-489 -610h501l-30 -248h-850z" />
    <glyph glyph-name="florin" unicode="&#x192;" horiz-adv-x="737" 
d="M172 104v756h-168v227h168v95q0 164 108 268t294 104t335 -69l-90 -213q-92 41 -176 41t-115 -32t-30 -112v-82h258l-37 -227h-221v-729q0 -252 -110 -380t-325 -206l-114 238q119 55 171 120t52 201z" />
    <glyph glyph-name="AEacute" unicode="&#x1fc;" horiz-adv-x="1710" 
d="M838 1538l-99 166l443 285l143 -244zM700 1149l-202 -598h319l-106 598h-11zM1573 840v-242h-453l74 -354h473v-244h-758l-53 305h-438l-101 -305h-366l559 1419h1081l-37 -241h-550l69 -338h500z" />
    <glyph glyph-name="aeacute" unicode="&#x1fd;" horiz-adv-x="1722" 
d="M770 1245l-100 166l442 295l143 -244zM1169 893q-162 0 -184 -240h358q-6 240 -174 240zM512 199q119 0 184 125q-12 74 -12 157h-35q-150 0 -208 -35t-58 -120q0 -127 129 -127zM1235 215q121 0 256 96l135 -196q-190 -150 -418 -150q-276 0 -405 174q-59 -82 -159 -128
t-220 -46q-178 0 -282 95q-103 95 -103 260q0 166 134 258t386 92h125v47q0 94 -44 130t-155 36t-282 -58l-74 217q215 82 408 82q233 0 329 -143q117 143 329 143t341 -147t129 -412q0 -53 -6 -102h-674q25 -248 250 -248z" />
    <glyph glyph-name="Oslashacute" unicode="&#x1fe;" horiz-adv-x="1417" 
d="M465 1585l-98 166l442 285l143 -244zM1346 711q0 -348 -169 -547t-468 -199q-51 0 -91 8l-75 -252l-256 68l82 262q-297 180 -297 660q0 349 169 547t468 198q35 0 92 -8l76 248l256 -68l-82 -260q295 -180 295 -657zM709 1206q-143 0 -216 -116t-73 -396t82 -391
l266 899q-25 4 -59 4zM997 724q0 278 -79 386l-267 -893q37 -4 58 -4q145 0 217 117q71 116 71 394z" />
    <glyph glyph-name="oslashacute" unicode="&#x1ff;" horiz-adv-x="1198" 
d="M362 1260l-100 165l443 295l143 -243zM801 540q0 173 -41 244l-187 -577l35 -2q98 0 146 81q47 81 47 254zM397 543q0 -178 43 -252l191 590l-39 2q-100 0 -148 -81t-47 -259zM63 545q1 258 145 419t392 160q2 0 64 -6l75 240l240 -70l-82 -246q115 -72 176 -200t62 -295
q-1 -270 -143 -426t-392 -156q-43 0 -63 4l-78 -250l-238 70l80 252q-238 142 -238 504z" />
    <glyph glyph-name="uni0218" unicode="&#x218;" horiz-adv-x="1169" 
d="M438 -299q0 74 47 120t115 46t115 -43t47 -116t-55 -183l-95 -187h-161l55 236q-68 53 -68 127zM633 1206q-91 0 -145 -36t-54 -102t51 -104t241 -100t294 -163q102 -101 102 -295t-152 -317q-152 -124 -411 -124q-344 0 -553 205l174 190q160 -143 365 -143
q104 0 164 46q59 46 59 125t-51 123t-199 89q-240 76 -338 178t-98 278t149 289q150 112 373 111q299 0 494 -184l-160 -185q-143 119 -305 119z" />
    <glyph glyph-name="uni0219" unicode="&#x219;" horiz-adv-x="1005" 
d="M352 -299q0 74 47 120t115 46t115 -43t47 -116t-55 -183l-95 -187h-161l55 236q-68 53 -68 127zM174 307q139 -108 294 -108t155 104q0 51 -44 79t-202 71q-311 82 -311 335q0 143 120 240q120 96 350 96t396 -123l-133 -192q-129 82 -266 82t-138 -84q0 -43 44 -70
t202 -71t240 -122q82 -76 82 -230q-1 -154 -141 -252t-349 -97q-285 0 -461 162z" />
    <glyph glyph-name="uni021A" unicode="&#x21a;" horiz-adv-x="1107" 
d="M393 -299q0 74 47 120t115 46t115 -43t47 -116t-55 -183l-95 -187h-161l55 236q-68 53 -68 127zM725 1159v-1159h-340v1159h-367v260h1090l-35 -260h-348z" />
    <glyph glyph-name="uni021B" unicode="&#x21b;" horiz-adv-x="790" 
d="M303 -299q0 74 47 120t115 46t115 -43t47 -116t-56 -183l-94 -187h-162l56 236q-68 53 -68 127zM158 367v495h-162v225h162v236l327 39v-275h256l-34 -225h-222v-497q0 -76 25 -109t77 -33t118 37l110 -209q-123 -86 -311 -85q-188 0 -266 100q-80 100 -80 301z" />
    <glyph glyph-name="dotlessj" unicode="&#x237;" horiz-adv-x="575" 
d="M123 104v983h328v-962q0 -260 -125 -391q-64 -66 -136 -108t-174 -81l-114 240q119 53 170 118t51 201z" />
    <glyph glyph-name="circumflex" unicode="&#x2c6;" horiz-adv-x="876" 
d="M438 1477l-272 -174l-117 133l289 268h201l288 -268l-116 -133z" />
    <glyph glyph-name="caron" unicode="&#x2c7;" horiz-adv-x="876" 
d="M166 1710l272 -174l273 174l116 -133l-288 -268h-201l-289 268z" />
    <glyph glyph-name="uni02C9" unicode="&#x2c9;" horiz-adv-x="722" 
d="M676 1602v-228h-627v228h627z" />
    <glyph glyph-name="breve" unicode="&#x2d8;" horiz-adv-x="804" 
d="M401 1309q-161 0 -249 97t-103 243l178 32q43 -147 175 -147t176 147l178 -32q-14 -145 -104 -243t-251 -97z" />
    <glyph glyph-name="dotaccent" unicode="&#x2d9;" horiz-adv-x="483" 
d="M434 1505q0 -80 -54 -132t-139 -52t-139 52q-53 52 -53 132t53 132q52 53 138 53t140 -52t54 -133z" />
    <glyph glyph-name="ring" unicode="&#x2da;" horiz-adv-x="667" 
d="M621 1554q0 -112 -79 -192t-207 -80t-207 80t-79 192t78 192q78 79 207 79t208 -79t79 -192zM244 1554q0 -50 24 -76t66 -26q40 0 66 27t26 75q0 100 -92 101q-90 -1 -90 -101z" />
    <glyph glyph-name="ogonek" unicode="&#x2db;" horiz-adv-x="626" 
d="M272 -244q0 -100 118 -100q64 0 122 29l66 -158q-104 -55 -236 -55t-212 66q-81 66 -81 180q0 112 97 202t266 137l88 -39q-228 -108 -228 -262z" />
    <glyph glyph-name="tilde" unicode="&#x2dc;" horiz-adv-x="866" 
d="M549 1356q-73 0 -141 43t-96 43q-51 0 -99 -86l-164 78q39 106 108 174t151 68t151 -45q69 -44 97 -44q28 -1 50 19t49 67l164 -78q-92 -239 -270 -239z" />
    <glyph glyph-name="hungarumlaut" unicode="&#x2dd;" horiz-adv-x="886" 
d="M575 1341l-167 80l213 398l219 -111zM221 1348l-172 69l195 402l223 -103z" />
    <glyph glyph-name="gravecomb" unicode="&#x300;" horiz-adv-x="0" 
d="M-123 1411l-98 -166l-488 217l144 244z" />
    <glyph glyph-name="acutecomb" unicode="&#x301;" horiz-adv-x="0" 
d="M-604 1245l-101 166l443 295l143 -244z" />
    <glyph glyph-name="uni0302" unicode="&#x302;" horiz-adv-x="0" 
d="M-498 1444l-272 -193l-119 133l291 287h201l288 -287l-116 -133z" />
    <glyph glyph-name="tildecomb" unicode="&#x303;" horiz-adv-x="0" 
d="M-363 1294q-81 0 -149 46t-96 46t-52 -20q-22 -20 -49 -68l-163 78q41 106 109 174q69 68 152 68t151 -45t94 -45q52 0 100 88l164 -78q-39 -106 -109 -175t-152 -69z" />
    <glyph glyph-name="uni0304" unicode="&#x304;" horiz-adv-x="0" 
d="M-111 1573v-227h-628v227h628z" />
    <glyph glyph-name="uni0306" unicode="&#x306;" horiz-adv-x="0" 
d="M-460 1251q-159 -1 -249 105t-104 256l180 30q41 -166 174 -166t174 166l181 -30q-14 -150 -106 -256t-250 -105z" />
    <glyph glyph-name="uni0307" unicode="&#x307;" horiz-adv-x="0" 
d="M-166 1475q0 -81 -54 -133t-139 -52t-140 52q-54 52 -54 132t54 133q53 52 139 52t140 -52t54 -132z" />
    <glyph glyph-name="uni0308" unicode="&#x308;" horiz-adv-x="0" 
d="M-96 1470q0 -70 -49 -118t-120 -47q-71 0 -120 48q-49 47 -49 117t49 117t120 47t120 -47t49 -117zM-741 1305q-72 0 -121 48q-49 47 -49 117t49 117t121 47q73 0 121 -47t48 -117t-48 -118q-49 -48 -121 -47z" />
    <glyph glyph-name="uni030A" unicode="&#x30a;" horiz-adv-x="0" 
d="M-150 1503q0 -113 -78 -193t-207 -79q-128 0 -207 80q-79 81 -79 193t78 191t207 79q130 0 208 -79t78 -192zM-526 1502q0 -101 91 -101t91 101t-92 102q-90 -1 -90 -102z" />
    <glyph glyph-name="uni030B" unicode="&#x30b;" horiz-adv-x="0" 
d="M-293 1280l-166 82l201 405l219 -108zM-647 1286l-172 72l186 409l221 -100z" />
    <glyph glyph-name="uni030C" unicode="&#x30c;" horiz-adv-x="0" 
d="M-764 1671l272 -192l273 192l117 -133l-291 -287h-199l-291 287z" />
    <glyph glyph-name="uni0312" unicode="&#x312;" horiz-adv-x="0" 
d="M-410 1429q0 -73 -47 -119t-115 -46t-114 43q-47 43 -47 115t55 184l94 186h162l-55 -236q67 -53 67 -127z" />
    <glyph glyph-name="uni0313" unicode="&#x313;" horiz-adv-x="0" 
d="M-731 1634q0 74 46 120t115 46q70 0 116 -43t46 -116t-55 -183l-94 -186h-162l55 235q-67 53 -67 127z" />
    <glyph glyph-name="uni0326" unicode="&#x326;" horiz-adv-x="0" 
d="M-918 -299q0 74 48 120t114 46q68 0 115 -43t47 -116t-55 -183l-94 -187h-162l55 236q-68 53 -68 127z" />
    <glyph glyph-name="uni0327" unicode="&#x327;" horiz-adv-x="0" 
d="M-539 -297q0 39 -44 53t-142 15l29 262h180v-131q215 -25 215 -203q0 -104 -84 -171t-223 -67t-242 64l76 149q70 -35 131 -34q104 0 104 63z" />
    <glyph glyph-name="uni0328" unicode="&#x328;" horiz-adv-x="0" 
d="M-604 -244q0 -100 118 -100q64 0 121 29l66 -158q-104 -55 -235 -55t-212 66t-81 180q0 112 97 202t265 137l49 -57q-188 -104 -188 -244z" />
    <glyph glyph-name="uni0335" unicode="&#x335;" horiz-adv-x="0" 
d="M-35 770v-192h-813v192h813z" />
    <glyph glyph-name="uni0336" unicode="&#x336;" horiz-adv-x="0" 
d="M-51 770v-192h-1366v192h1366z" />
    <glyph glyph-name="tonos" unicode="&#x384;" horiz-adv-x="0" 
d="M-53 1198l-236 35l78 516l340 -63z" />
    <glyph glyph-name="dieresistonos" unicode="&#x385;" horiz-adv-x="0" 
d="M-635 1950l273 -54l-148 -389l-188 35zM-327 1245q-69 0 -117 46t-48 113t48 113t118 46q68 0 115 -46t47 -113t-47 -113t-116 -46zM-869 1563q69 0 115 -46t47 -113q-1 -67 -47 -113t-115 -46t-117 46t-48 113t48 113t117 46z" />
    <glyph glyph-name="Alphatonos" unicode="&#x386;" horiz-adv-x="1325" 
d="M236 965l-236 47l104 463l342 -58zM705 1151l-148 -600h303l-145 600h-10zM989 0l-74 305h-411l-74 -305h-358l436 1419h412l434 -1419h-365z" />
    <glyph glyph-name="Epsilontonos" unicode="&#x388;" horiz-adv-x="1386" 
d="M193 965l-236 47l104 463l342 -58zM780 1178v-338h437v-238h-437v-356h535v-246h-875v1419h875l-35 -241h-500z" />
    <glyph glyph-name="Etatonos" unicode="&#x389;" horiz-adv-x="1669" 
d="M193 965l-236 47l104 463l342 -58zM1536 0h-340v606h-416v-606h-340v1419h340v-549h416v549h340v-1419z" />
    <glyph glyph-name="Iotatonos" unicode="&#x38a;" horiz-adv-x="909" 
d="M193 965l-236 47l104 463l342 -58zM776 0h-340v1419h340v-1419z" />
    <glyph glyph-name="Omicrontonos" unicode="&#x38c;" horiz-adv-x="1597" 
d="M180 965l-235 47l104 463l342 -58zM1171 711q0 264 -69 380q-70 115 -213 115t-213 -116t-70 -378q0 -263 71 -381t214 -118t212 117q68 117 68 381zM252 708q0 352 169 550t469 198t468 -196t168 -546q0 -351 -169 -550t-469 -199t-468 196t-168 547z" />
    <glyph glyph-name="Upsilontonos" unicode="&#x38e;" horiz-adv-x="1640" 
d="M180 965l-235 47l104 463l342 -58zM1200 0h-340v530l-454 889h372l254 -612h8l256 612h361l-457 -887v-532z" />
    <glyph glyph-name="Omegatonos" unicode="&#x38f;" horiz-adv-x="1624" 
d="M190 965l-235 47l104 463l342 -58zM903 1206q-281 0 -280 -432q0 -242 43 -364t161 -185v-225h-524v242h236v8q-129 68 -201 202t-72 322q0 298 173 490t465 192t464 -191t172 -491q0 -188 -72 -322t-200 -202v-8h237v-242h-524v225q119 59 161 183t42 366
q0 432 -281 432z" />
    <glyph glyph-name="iotadieresistonos" unicode="&#x390;" horiz-adv-x="569" 
d="M244 1950l272 -54l-147 -389l-189 35zM552 1245q-69 0 -117 46t-48 113t48 113t117 46t116 -46t47 -113t-47 -113t-116 -46zM9 1245q-69 0 -117 46t-48 113t48 113t117 46t116 -46t47 -113t-47 -113t-116 -46zM117 326v761h327v-718q0 -68 20 -105t71 -59l-99 -240
q-319 56 -319 361z" />
    <glyph glyph-name="Alpha" unicode="&#x391;" horiz-adv-x="1224" 
d="M604 1151l-147 -600h303l-146 600h-10zM889 0l-74 305h-412l-73 -305h-359l437 1419h411l434 -1419h-364z" />
    <glyph glyph-name="Beta" unicode="&#x392;" horiz-adv-x="1275" 
d="M1214 416q0 -416 -585 -416h-496v1419h475q246 0 397 -85t150 -277q0 -119 -75 -198t-171 -101v-8q305 -64 305 -334zM809 1018q0 86 -52 124t-163 38h-121v-328h131q106 0 156 40q49 40 49 126zM862 430q0 199 -233 199h-156v-383h141q115 0 182 39q66 39 66 145z" />
    <glyph glyph-name="Gamma" unicode="&#x393;" horiz-adv-x="1034" 
d="M133 1419h901l-33 -266h-528v-1153h-340v1419z" />
    <glyph glyph-name="uni0394" unicode="&#x394;" horiz-adv-x="1224" 
d="M604 1151l-223 -901h455l-222 901h-10zM-29 0l437 1419h411l434 -1419h-1282z" />
    <glyph glyph-name="Epsilon" unicode="&#x395;" horiz-adv-x="1079" 
d="M473 1178v-338h436v-238h-436v-356h535v-246h-875v1419h875l-35 -241h-500z" />
    <glyph glyph-name="Zeta" unicode="&#x396;" horiz-adv-x="1114" 
d="M37 0v254l627 903h-566v262h953v-256l-615 -893h627l-35 -270h-991z" />
    <glyph glyph-name="Eta" unicode="&#x397;" horiz-adv-x="1361" 
d="M1229 0h-340v606h-416v-606h-340v1419h340v-549h416v549h340v-1419z" />
    <glyph glyph-name="Theta" unicode="&#x398;" horiz-adv-x="1417" 
d="M1010 711q0 262 -76 379q-76 116 -224 116t-226 -116q-77 -117 -76 -379q0 -498 301 -498q149 0 225 118t76 380zM72 708q0 352 169 550t469 198t468 -196t168 -546q0 -351 -169 -550t-469 -199t-468 196t-168 547zM915 817v-194h-413v194h413z" />
    <glyph glyph-name="Iota" unicode="&#x399;" horiz-adv-x="606" 
d="M473 0h-340v1419h340v-1419z" />
    <glyph glyph-name="Kappa" unicode="&#x39a;" horiz-adv-x="1302" 
d="M936 0l-451 758l447 661h358l-450 -637l487 -782h-391zM473 1419v-1419h-340v1419h340z" />
    <glyph glyph-name="Lambda" unicode="&#x39b;" horiz-adv-x="1204" 
d="M594 1147l-264 -1147h-359l426 1419h412l424 -1419h-365l-264 1147h-10z" />
    <glyph glyph-name="Mu" unicode="&#x39c;" horiz-adv-x="1624" 
d="M1225 0q-44 828 -29 1112h-8l-215 -967h-326l-225 967h-8q20 -190 10 -459l-27 -653h-331l106 1419h428l213 -954h8l201 954h428l109 -1419h-334z" />
    <glyph glyph-name="Nu" unicode="&#x39d;" horiz-adv-x="1361" 
d="M1227 0h-432l-400 1083h-8q51 -244 51 -553v-530h-305v1419h426l406 -1083h8q-51 213 -51 545v538h305v-1419z" />
    <glyph glyph-name="Xi" unicode="&#x39e;" horiz-adv-x="1089" 
d="M201 594v254h688v-254h-688zM70 1149v270h956l-39 -270h-917zM70 0v281h946v-281h-946z" />
    <glyph glyph-name="Omicron" unicode="&#x39f;" horiz-adv-x="1417" 
d="M991 711q0 264 -69 380q-70 115 -213 115t-213 -116t-70 -378q0 -263 71 -381t214 -118t212 117q68 117 68 381zM72 708q0 352 169 550t469 198t468 -196t168 -546q0 -351 -169 -550t-469 -199t-468 196t-168 547z" />
    <glyph glyph-name="Pi" unicode="&#x3a0;" horiz-adv-x="1361" 
d="M1229 0h-340v1161h-416v-1161h-340v1419h1096v-1419z" />
    <glyph glyph-name="Rho" unicode="&#x3a1;" horiz-adv-x="1232" 
d="M582 1419q292 0 450 -117q158 -116 158 -352t-151 -358t-412 -121h-154v-471h-340v1419h449zM840 956q0 221 -254 222h-113v-461h125q242 -1 242 239z" />
    <glyph glyph-name="Sigma" unicode="&#x3a3;" horiz-adv-x="1017" 
d="M983 252v-252h-944v246l399 452l-399 476v245h944v-245h-596l346 -404v-133l-350 -385h600z" />
    <glyph glyph-name="Tau" unicode="&#x3a4;" horiz-adv-x="1107" 
d="M725 1159v-1159h-340v1159h-367v260h1090l-35 -260h-348z" />
    <glyph glyph-name="Upsilon" unicode="&#x3a5;" horiz-adv-x="1218" 
d="M778 0h-340v530l-454 889h372l254 -612h8l256 612h361l-457 -887v-532z" />
    <glyph glyph-name="Phi" unicode="&#x3a6;" horiz-adv-x="1730" 
d="M379 717q0 -176 86 -258t250 -94v696q-162 -10 -249 -89t-87 -255zM1352 717q0 176 -88 255t-248 89v-696q164 12 250 94t86 258zM1030 0h-330v158q-303 12 -485 148t-182 411q0 518 667 547v155h330v-155q308 -14 488 -144t180 -403q0 -187 -91 -313t-235 -182t-342 -64
v-158z" />
    <glyph glyph-name="Chi" unicode="&#x3a7;" horiz-adv-x="1204" 
d="M391 754l-371 665h371l203 -442h8l215 442h361l-381 -651l415 -768h-370l-244 526h-8l-238 -526h-362z" />
    <glyph glyph-name="Psi" unicode="&#x3a8;" horiz-adv-x="1499" 
d="M920 0h-340v379q-272 31 -407 166q-134 135 -134 350v524h326v-532q0 -115 50 -183t179 -90v805h309v-803q127 23 179 91t53 180v532h325v-524q0 -207 -136 -344t-404 -170v-381z" />
    <glyph glyph-name="uni03A9" unicode="&#x3a9;" horiz-adv-x="1439" 
d="M719 1206q-281 0 -281 -432q0 -242 43 -364t162 -185v-225h-524v242h235v8q-129 68 -200 202q-72 134 -72 322q0 298 173 490t465 192t464 -191t172 -491q0 -188 -72 -322t-201 -202v-8h238v-242h-524v225q119 59 161 183t41 366q1 432 -280 432z" />
    <glyph glyph-name="Iotadieresis" unicode="&#x3aa;" horiz-adv-x="606" 
d="M542 1548q-71 0 -121 49t-50 118t50 117t121 48t120 -48t49 -118t-49 -118t-120 -48zM67 1880q71 0 119 -48t50 -118q0 -70 -49 -118t-120 -48t-121 49t-50 118t50 117t121 48zM473 0h-340v1419h340v-1419z" />
    <glyph glyph-name="Upsilondieresis" unicode="&#x3ab;" horiz-adv-x="1218" 
d="M847 1548q-71 0 -121 49t-50 118t50 117t121 48t120 -48t49 -118t-49 -118t-120 -48zM372 1548q-71 0 -121 49t-50 118t50 117t121 48t120 -48t49 -118t-49 -118t-120 -48zM778 0h-340v530l-454 889h372l254 -612h8l256 612h361l-457 -887v-532z" />
    <glyph glyph-name="alphatonos" unicode="&#x3ac;" horiz-adv-x="1214" 
d="M659 1198l-235 35l78 516l340 -63zM479 -35q-195 0 -305 152t-111 415q0 264 121 428t318 164q152 0 236 -68t122 -204h8l54 256l264 -74l-185 -479l68 -207q25 -70 49 -98t74 -39l-107 -246q-125 23 -169 82t-70 197h-8q-98 -279 -359 -279zM541 203q131 0 190 342
q-31 184 -73 262t-109 78q-153 0 -153 -341t145 -341z" />
    <glyph glyph-name="epsilontonos" unicode="&#x3ad;" horiz-adv-x="1024" 
d="M588 199q150 0 293 92l151 -182q-198 -143 -446 -143t-385 87q-137 88 -138 252q0 115 73 183t198 87v9q-106 27 -167 91q-60 65 -61 154q0 137 122 217t313 78q252 0 426 -125l-148 -176q-109 74 -245 74t-138 -113q0 -55 40 -88t112 -32h137l-31 -209h-121
q-168 -2 -167 -123q0 -133 182 -133zM621 1198l-236 35l78 516l340 -63z" />
    <glyph glyph-name="etatonos" unicode="&#x3ae;" horiz-adv-x="1196" 
d="M672 1198l-236 35l78 516l340 -63zM1079 799v-1219l-327 -35v1174q0 92 -22 128t-77 36q-92 0 -186 -131v-752h-328v784q0 137 -45 291l303 41q33 -57 49 -155q145 164 338 163q143 0 219 -84t76 -241z" />
    <glyph glyph-name="iotatonos" unicode="&#x3af;" horiz-adv-x="569" 
d="M356 1198l-235 35l78 516l340 -63zM117 326v761h327v-718q0 -68 20 -105t71 -59l-99 -240q-319 56 -319 361z" />
    <glyph glyph-name="upsilondieresistonos" unicode="&#x3b0;" horiz-adv-x="1167" 
d="M545 1950l272 -54l-147 -389l-189 35zM853 1245q-69 0 -117 46t-48 113t48 113t117 46t116 -46t47 -113t-47 -113t-116 -46zM310 1245q-68 0 -116 46t-48 113t48 113t116 46t116 -46q47 -46 47 -113t-47 -113t-116 -46zM117 369v718h327v-698q0 -100 31 -142t96 -42
q184 0 185 327q0 246 -54 555h322q59 -283 59 -564t-152 -420q-153 -138 -367 -138q-214 -1 -330 103t-117 301z" />
    <glyph glyph-name="alpha" unicode="&#x3b1;" horiz-adv-x="1214" 
d="M479 -35q-195 0 -305 152t-111 415q0 264 121 428t318 164q152 0 236 -68t122 -204h8l54 256l264 -74l-185 -479l68 -207q25 -70 49 -98t74 -39l-107 -246q-125 23 -169 82t-70 197h-8q-98 -279 -359 -279zM541 203q131 0 190 342q-31 184 -73 262t-109 78
q-153 0 -153 -341t145 -341z" />
    <glyph glyph-name="beta" unicode="&#x3b2;" horiz-adv-x="1142" 
d="M719 1222q0 102 -90 103q-91 0 -151 -101t-66 -325q156 69 232 145t75 178zM580 203q166 0 165 254q0 141 -38 211q-39 70 -132 69q-57 0 -165 -51q2 -266 39 -374t131 -109zM584 -35q-268 1 -388 191t-120 571t158 604q159 223 417 223q181 0 273 -88t92 -223
q0 -236 -275 -340v-8q164 -14 255 -127q91 -114 91 -322t-135 -344t-368 -137z" />
    <glyph glyph-name="gamma" unicode="&#x3b3;" horiz-adv-x="1075" 
d="M631 -192q0 -106 22 -232l-258 -27q-61 127 -61 241t45 237q-88 346 -181 578t-225 399l324 116q172 -274 238 -813h8l221 809l328 -76l-404 -987q-57 -139 -57 -245z" />
    <glyph glyph-name="delta" unicode="&#x3b4;" horiz-adv-x="1179" 
d="M782 510q0 154 -46 226t-181 134q-90 -68 -124 -152t-34 -208q1 -305 193 -305t192 305zM61 496q0 315 314 456q-113 59 -156 124t-43 163q0 143 116 229t340 86t390 -129l-156 -178q-106 74 -235 74t-129 -88q0 -49 37 -80t151 -78q232 -94 332 -220q100 -125 100 -359
t-144 -382t-389 -148t-387 144t-141 386z" />
    <glyph glyph-name="epsilon" unicode="&#x3b5;" horiz-adv-x="1024" 
d="M588 199q150 0 293 92l151 -182q-198 -143 -446 -143t-385 87q-137 88 -138 252q0 115 73 183t198 87v9q-106 27 -167 91q-60 65 -61 154q0 137 122 217t313 78q252 0 426 -125l-148 -176q-109 74 -245 74t-138 -113q0 -55 40 -88t112 -32h137l-31 -209h-121
q-168 -2 -167 -123q0 -133 182 -133z" />
    <glyph glyph-name="zeta" unicode="&#x3b6;" horiz-adv-x="870" 
d="M387 528q0 -106 54 -166q53 -60 189 -116t202 -120t65 -188q0 -124 -92 -220t-283 -181l-121 197q57 35 85 54t52 52t24 73t-31 69q-30 29 -115 63q-203 86 -285 186t-82 291q0 362 500 707l-4 6q-45 -12 -90 -12q-115 0 -210 56t-141 165l191 112q84 -150 242 -149
q119 0 264 117l143 -164q-311 -272 -434 -466t-123 -366z" />
    <glyph glyph-name="eta" unicode="&#x3b7;" horiz-adv-x="1196" 
d="M1079 799v-1219l-327 -35v1174q0 92 -22 128t-77 36q-92 0 -186 -131v-752h-328v784q0 137 -45 291l303 41q33 -57 49 -155q145 164 338 163q143 0 219 -84t76 -241z" />
    <glyph glyph-name="theta" unicode="&#x3b8;" horiz-adv-x="1177" 
d="M589 201q101 0 150 102t56 363h-414q8 -262 57 -364q50 -101 151 -101zM589 1319q-101 0 -151 -102t-55 -361h414q-7 258 -57 360t-151 103zM589 -35q-251 0 -389 204t-137 591t139 591q138 203 389 203t387 -202t136 -588q0 -387 -137 -593t-388 -206z" />
    <glyph glyph-name="iota" unicode="&#x3b9;" horiz-adv-x="569" 
d="M117 326v761h327v-718q0 -68 20 -105t71 -59l-99 -240q-319 56 -319 361z" />
    <glyph glyph-name="kappa" unicode="&#x3ba;" horiz-adv-x="1140" 
d="M463 569l362 551l267 -119l-297 -413l200 -271q53 -72 140 -96l-111 -258q-127 18 -203 86t-164 209zM455 0h-328v1081q0 248 -53 439l321 34q59 -145 60 -495v-1059z" />
    <glyph glyph-name="lambda" unicode="&#x3bb;" horiz-adv-x="1101" 
d="M8 41l342 1057h109q-47 112 -116 160t-222 71l39 223q280 -36 416 -148t200 -378q98 -408 170 -614t180 -344l-323 -103q-96 147 -152 345q-55 198 -106 538h-8l-203 -883z" />
    <glyph glyph-name="uni03BC" unicode="&#x3bc;" horiz-adv-x="1185" 
d="M129 1087h326v-686q0 -184 94 -184q106 0 178 109v761h328v-788q0 -123 20 -299h-291q-16 61 -26 129q-94 -160 -228 -160q-90 0 -153 82l-8 -4q70 -127 69 -287v-180l-309 -33v1540z" />
    <glyph glyph-name="nu" unicode="&#x3bd;" horiz-adv-x="1064" 
d="M700 0h-372q-164 831 -361 1020l301 102q168 -193 256 -852h8l222 854l319 -71z" />
    <glyph glyph-name="xi" unicode="&#x3be;" horiz-adv-x="927" 
d="M61 554q1 142 91 232t227 121v8q-106 35 -172 110t-66 183q0 156 128 251t338 95t368 -127l-141 -174q-102 72 -192 72q-172 0 -171 -156q0 -82 44 -126t124 -44h119l-31 -215h-94q-104 0 -169 -63t-65 -173t72 -171q73 -61 229 -123t218 -128q62 -68 63 -190
q0 -122 -92 -220t-283 -179l-121 197q57 35 85 54t52 52t24 74t-61 81q-59 40 -145 81t-172 93q-86 51 -146 147t-61 238z" />
    <glyph glyph-name="omicron" unicode="&#x3bf;" horiz-adv-x="1198" 
d="M63 539q1 268 145 427q144 158 392 158t391 -156t143 -425q0 -268 -142 -423t-393 -155t-393 153t-143 421zM795 547q0 336 -196 336t-196 -338q1 -178 49 -259t148 -81t148 82q47 82 47 260z" />
    <glyph glyph-name="pi" unicode="&#x3c0;" horiz-adv-x="1269" 
d="M514 0h-328v848h-141v239h893q154 0 279 33l36 -241q-72 -23 -172 -29v-481q1 -68 21 -105t69 -59l-98 -240q-319 55 -319 361v522h-240v-848z" />
    <glyph glyph-name="rho" unicode="&#x3c1;" horiz-adv-x="1210" 
d="M606 205q195 0 195 338q0 190 -46 266q-47 76 -139 76t-132 -87t-40 -290v-207q64 -96 162 -96zM117 563q0 273 127 417t380 144t385 -145t132 -415t-118 -434q-118 -165 -314 -165q-164 0 -265 115v-500l-327 -35v1018z" />
    <glyph glyph-name="sigma1" unicode="&#x3c2;" horiz-adv-x="974" 
d="M920 -63q0 -123 -92 -221t-283 -179l-121 197q57 35 85 54t51 52q24 33 24 73t-31 67t-123 65q-186 78 -277 194t-91 343t149 385q150 157 378 157t382 -135l-142 -194q-100 77 -203 77t-163 -73q-59 -75 -59 -217t50 -208q52 -66 193 -124t207 -124t66 -189z" />
    <glyph glyph-name="sigma" unicode="&#x3c3;" horiz-adv-x="1206" 
d="M1133 519q1 -255 -141 -405t-393 -149q-251 0 -393 152t-142 418q0 267 142 419q144 152 408 152q358 0 560 39l36 -217q-86 -23 -258 -29q181 -125 181 -380zM795 539q0 266 -105 352q-152 -2 -220 -76t-67 -262t49 -268t148 -80t148 80q47 80 47 254z" />
    <glyph glyph-name="tau" unicode="&#x3c4;" horiz-adv-x="985" 
d="M313 326v522h-313v239h684q158 0 285 33l37 -241q-96 -31 -263 -31h-102v-479q0 -121 90 -164l-96 -240q-322 56 -322 361z" />
    <glyph glyph-name="upsilon" unicode="&#x3c5;" horiz-adv-x="1165" 
d="M115 369v718h327v-698q0 -100 31 -142t96 -42q184 0 185 327q0 246 -54 555h322q59 -283 59 -564t-152 -420q-153 -138 -367 -138q-214 -1 -330 103t-117 301z" />
    <glyph glyph-name="phi" unicode="&#x3c6;" horiz-adv-x="1568" 
d="M932 651v-458q137 18 187 99q50 80 50 268q1 188 -29 266t-98 77t-89 -57t-21 -195zM399 554q0 -182 48 -261q48 -80 180 -98v456q0 223 104 348t311 125q444 0 445 -571q0 -275 -137 -415t-418 -165v-393l-305 -35v428q-545 51 -545 519q0 289 125 595h311
q-119 -351 -119 -533z" />
    <glyph glyph-name="chi" unicode="&#x3c7;" horiz-adv-x="1017" 
d="M508 569h8l186 551l312 -67l-322 -682l355 -736l-322 -90l-215 621h-8l-211 -621l-311 66l350 766q-147 422 -373 635l315 110q162 -213 236 -553z" />
    <glyph glyph-name="psi" unicode="&#x3c8;" horiz-adv-x="1593" 
d="M647 1081q0 244 -51 439l303 34q59 -145 59 -495v-856q125 20 179 93q53 73 53 210q0 264 -55 581h315q61 -311 61 -561t-145 -384t-408 -165v-397l-311 -35v430q-262 25 -400 143t-138 298v671h321v-657q0 -98 51 -154t166 -73v878z" />
    <glyph glyph-name="omega" unicode="&#x3c9;" horiz-adv-x="1611" 
d="M958 420q0 -115 28 -165t96 -50t98 79q30 80 30 268t-106 535h313q113 -329 113 -591t-106 -396t-302 -135q-264 0 -315 238h-8q-59 -238 -307 -238q-410 0 -410 531q0 262 113 591h313q-104 -330 -104 -527t32 -276q33 -79 104 -79q72 0 94 62t21 225v235l303 41v-348z
" />
    <glyph glyph-name="iotadieresis" unicode="&#x3ca;" horiz-adv-x="569" 
d="M690 1470q0 -70 -49 -118t-120 -47q-71 0 -120 48q-49 47 -49 117t49 117t120 47t120 -47t49 -117zM45 1305q-72 0 -121 48q-49 47 -49 117t49 117t121 47t121 -47t49 -117t-49 -118t-121 -47zM117 326v761h327v-718q0 -68 20 -105t71 -59l-99 -240q-319 56 -319 361z
" />
    <glyph glyph-name="upsilondieresis" unicode="&#x3cb;" horiz-adv-x="1167" 
d="M117 369v718h327v-698q0 -100 31 -142t96 -42q184 0 185 327q0 246 -54 555h322q59 -283 59 -564t-152 -420q-153 -138 -367 -138q-214 -1 -330 103t-117 301zM993 1470q0 -70 -49 -118t-120 -47q-72 0 -120 48q-48 47 -48 117t48 117q50 47 120 47t120 -47
q49 -47 49 -117zM348 1305q-72 0 -121 48q-49 47 -49 117t49 117t121 47t121 -47t49 -117t-49 -118t-121 -47z" />
    <glyph glyph-name="omicrontonos" unicode="&#x3cc;" horiz-adv-x="1198" 
d="M715 1198l-236 35l78 516l340 -63zM63 539q1 268 145 427q144 158 392 158t391 -156t143 -425q0 -268 -142 -423t-393 -155t-393 153t-143 421zM795 547q0 336 -196 336t-196 -338q1 -178 49 -259t148 -81t148 82q47 82 47 260z" />
    <glyph glyph-name="upsilontonos" unicode="&#x3cd;" horiz-adv-x="1167" 
d="M117 369v718h327v-698q0 -100 31 -142t96 -42q184 0 185 327q0 246 -54 555h322q59 -283 59 -564t-152 -420q-153 -138 -367 -138q-214 -1 -330 103t-117 301zM659 1198l-235 35l78 516l340 -63z" />
    <glyph glyph-name="omegatonos" unicode="&#x3ce;" horiz-adv-x="1611" 
d="M899 1198l-235 35l77 516l340 -63zM958 420q0 -115 28 -165t96 -50t98 79q30 80 30 268t-106 535h313q113 -329 113 -591t-106 -396t-302 -135q-264 0 -315 238h-8q-59 -238 -307 -238q-410 0 -410 531q0 262 113 591h313q-104 -330 -104 -527t32 -276q33 -79 104 -79
q72 0 94 62t21 225v235l303 41v-348z" />
    <glyph glyph-name="uni0401" unicode="&#x401;" horiz-adv-x="1079" 
d="M804 1548q-71 0 -121 49t-50 118t50 117t121 48t120 -48t49 -118t-49 -118t-120 -48zM329 1548q-71 0 -121 49t-50 118t50 117t121 48t120 -48t49 -118t-49 -118t-120 -48zM473 1178v-338h436v-238h-436v-356h535v-246h-875v1419h875l-35 -241h-500z" />
    <glyph glyph-name="uni0402" unicode="&#x402;" horiz-adv-x="1540" 
d="M725 1163v-307q139 109 311 109q223 0 338 -131t115 -375v-242q0 -257 -141 -390q-70 -65 -143 -103t-175 -74l-86 241q127 49 164 121t37 217v226q0 137 -45 197t-162 60t-213 -75v-637h-340v1163h-367v256h1090l-35 -256h-348z" />
    <glyph glyph-name="uni0403" unicode="&#x403;" horiz-adv-x="1034" 
d="M406 1538l-99 166l443 285l143 -244zM133 1419h901l-33 -266h-528v-1153h-340v1419z" />
    <glyph glyph-name="uni0404" unicode="&#x404;" horiz-adv-x="1183" 
d="M739 217q139 0 285 123l147 -190q-185 -184 -469 -184t-457 194q-173 195 -173 548q0 352 179 550t447 198t457 -160l-164 -190q-121 102 -255 102t-218 -91t-98 -271h504v-240h-506q10 -190 96 -290t225 -99z" />
    <glyph glyph-name="uni0405" unicode="&#x405;" horiz-adv-x="1169" 
d="M633 1206q-91 0 -145 -36t-54 -102t51 -104t241 -100t294 -163q102 -101 102 -295t-152 -317q-152 -124 -411 -124q-344 0 -553 205l174 190q160 -143 365 -143q104 0 164 46q59 46 59 125t-51 123t-199 89q-240 76 -338 178t-98 278t149 289q150 112 373 111
q299 0 494 -184l-160 -185q-143 119 -305 119z" />
    <glyph glyph-name="uni0406" unicode="&#x406;" horiz-adv-x="606" 
d="M473 0h-340v1419h340v-1419z" />
    <glyph glyph-name="uni0407" unicode="&#x407;" horiz-adv-x="606" 
d="M542 1548q-71 0 -121 49t-50 118t50 117t121 48t120 -48t49 -118t-49 -118t-120 -48zM67 1880q71 0 119 -48t50 -118q0 -70 -49 -118t-120 -48t-121 49t-50 118t50 117t121 48zM473 0h-340v1419h340v-1419z" />
    <glyph glyph-name="uni0408" unicode="&#x408;" horiz-adv-x="620" 
d="M158 229v1190h340v-1202q0 -258 -142 -390q-70 -65 -142 -103t-175 -74l-90 244q129 52 169 124t40 211z" />
    <glyph glyph-name="uni0409" unicode="&#x409;" horiz-adv-x="1902" 
d="M1518 481q0 113 -60 166t-186 53h-94v-452h108q232 0 232 233zM1178 1419v-477h106q280 0 434 -115t154 -351t-152 -356t-411 -120h-471v1163h-260l-25 -227q-35 -346 -83 -528t-126 -280t-229 -169l-133 223q74 55 111 120q76 129 140 671l56 446h889z" />
    <glyph glyph-name="uni040A" unicode="&#x40a;" horiz-adv-x="1937" 
d="M1307 672h-97v-424h109q233 0 233 219q0 109 -59 157t-186 48zM1319 913q588 1 588 -449q0 -230 -153 -348q-153 -116 -411 -116h-473v672h-397v-672h-340v1419h340v-506h397v506h340v-506h109z" />
    <glyph glyph-name="uni040B" unicode="&#x40b;" horiz-adv-x="1540" 
d="M725 1163v-307q139 109 311 109q223 0 338 -131t115 -375v-459h-344v455q0 137 -45 197t-162 60t-213 -75v-637h-340v1163h-367v256h1090l-35 -256h-348z" />
    <glyph glyph-name="uni040C" unicode="&#x40c;" horiz-adv-x="1282" 
d="M502 1538l-99 166l443 285l143 -244zM473 616v-616h-340v1419h340v-557h119l338 557h334l-392 -643l431 -776h-375l-330 616h-125z" />
    <glyph glyph-name="uni040E" unicode="&#x40e;" horiz-adv-x="1202" 
d="M612 1538q-164 0 -258 86t-108 221l180 31q43 -125 186 -125t187 125l180 -31q-15 -135 -109 -221t-258 -86zM1231 1419l-375 -995q-92 -240 -228 -339t-392 -120l-46 232q145 14 219 54q73 40 121 124h-110l-434 1044h350l291 -837h8l252 837h344z" />
    <glyph glyph-name="uni040F" unicode="&#x40f;" horiz-adv-x="1357" 
d="M885 1419h340v-1419h-414v-340h-236l-36 340h-406v1419h340v-1155h412v1155z" />
    <glyph glyph-name="uni0410" unicode="&#x410;" horiz-adv-x="1224" 
d="M604 1151l-147 -600h303l-146 600h-10zM889 0l-74 305h-412l-73 -305h-359l437 1419h411l434 -1419h-364z" />
    <glyph glyph-name="uni0411" unicode="&#x411;" horiz-adv-x="1224" 
d="M836 465q0 209 -238 209h-125v-428h129q234 0 234 219zM473 1161v-252h148q274 -1 421 -111t148 -331q0 -403 -461 -456q-96 -11 -219 -11h-377v1419h901l-33 -258h-528z" />
    <glyph glyph-name="uni0412" unicode="&#x412;" horiz-adv-x="1275" 
d="M1214 416q0 -416 -585 -416h-496v1419h475q246 0 397 -85t150 -277q0 -119 -75 -198t-171 -101v-8q305 -64 305 -334zM809 1018q0 86 -52 124t-163 38h-121v-328h131q106 0 156 40q49 40 49 126zM862 430q0 199 -233 199h-156v-383h141q115 0 182 39q66 39 66 145z" />
    <glyph glyph-name="uni0413" unicode="&#x413;" horiz-adv-x="1034" 
d="M133 1419h901l-33 -266h-528v-1153h-340v1419z" />
    <glyph glyph-name="uni0414" unicode="&#x414;" horiz-adv-x="1306" 
d="M817 1169h-217l-16 -168q-35 -345 -84 -503t-144 -238h461v909zM-23 260h103q61 72 97 215t81 498l55 446h834v-1159h127v-600h-236l-37 340h-753l-37 -340h-234v600z" />
    <glyph glyph-name="uni0415" unicode="&#x415;" horiz-adv-x="1079" 
d="M473 1178v-338h436v-238h-436v-356h535v-246h-875v1419h875l-35 -241h-500z" />
    <glyph glyph-name="uni0416" unicode="&#x416;" horiz-adv-x="1857" 
d="M774 0v621h-129l-299 -621h-362l391 776l-352 643h333l297 -559h121v559h311v-559h119l301 559h332l-354 -643l391 -776h-369l-297 621h-123v-621h-311z" />
    <glyph glyph-name="uni0417" unicode="&#x417;" horiz-adv-x="1116" 
d="M1059 406q0 -199 -156 -320t-416 -121q-309 0 -489 199l184 176q127 -125 289 -125q106 0 170 54q63 54 64 151q0 211 -246 211h-160l37 241h125q94 0 150 44q57 44 57 125t-52 124t-145 43q-141 0 -272 -114l-164 174q201 188 479 188q222 0 362 -104t140 -269
q0 -258 -301 -321v-8q158 -16 251 -106t93 -242z" />
    <glyph glyph-name="uni0418" unicode="&#x418;" horiz-adv-x="1357" 
d="M133 0v1419h334v-475q0 -303 -49 -594h8l393 1069h404v-1419h-334v465q0 328 49 602h-8l-385 -1067h-412z" />
    <glyph glyph-name="uni0419" unicode="&#x419;" horiz-adv-x="1357" 
d="M678 1538q-164 0 -258 86t-109 221l181 31q43 -125 186 -125t186 125l180 -31q-14 -135 -108 -221t-258 -86zM133 0v1419h334v-475q0 -303 -49 -594h8l393 1069h404v-1419h-334v465q0 328 49 602h-8l-385 -1067h-412z" />
    <glyph glyph-name="uni041A" unicode="&#x41a;" horiz-adv-x="1282" 
d="M473 616v-616h-340v1419h340v-557h119l338 557h334l-392 -643l431 -776h-375l-330 616h-125z" />
    <glyph glyph-name="uni041B" unicode="&#x41b;" horiz-adv-x="1325" 
d="M1190 1419v-1419h-340v1161h-272l-25 -225q-35 -346 -83 -528t-126 -280t-229 -169l-133 223q74 55 111 121q77 133 140 670l56 446h901z" />
    <glyph glyph-name="uni041C" unicode="&#x41c;" horiz-adv-x="1624" 
d="M1225 0q-44 828 -29 1112h-8l-215 -967h-326l-225 967h-8q20 -190 10 -459l-27 -653h-331l106 1419h428l213 -954h8l201 954h428l109 -1419h-334z" />
    <glyph glyph-name="uni041D" unicode="&#x41d;" horiz-adv-x="1361" 
d="M1229 0h-340v606h-416v-606h-340v1419h340v-549h416v549h340v-1419z" />
    <glyph glyph-name="uni041E" unicode="&#x41e;" horiz-adv-x="1417" 
d="M991 711q0 264 -69 380q-70 115 -213 115t-213 -116t-70 -378q0 -263 71 -381t214 -118t212 117q68 117 68 381zM72 708q0 352 169 550t469 198t468 -196t168 -546q0 -351 -169 -550t-469 -199t-468 196t-168 547z" />
    <glyph glyph-name="uni041F" unicode="&#x41f;" horiz-adv-x="1361" 
d="M1229 0h-340v1159h-416v-1159h-340v1419h1096v-1419z" />
    <glyph glyph-name="uni0420" unicode="&#x420;" horiz-adv-x="1232" 
d="M582 1419q292 0 450 -117q158 -116 158 -352t-151 -358t-412 -121h-154v-471h-340v1419h449zM840 956q0 221 -254 222h-113v-461h125q242 -1 242 239z" />
    <glyph glyph-name="uni0421" unicode="&#x421;" horiz-adv-x="1179" 
d="M729 227q143 0 289 119l153 -196q-185 -184 -469 -184t-457 194q-173 195 -173 548q0 352 179 550t449 198t455 -158l-168 -196q-115 102 -255 102t-223 -121t-83 -369t80 -367q80 -120 223 -120z" />
    <glyph glyph-name="uni0422" unicode="&#x422;" horiz-adv-x="1107" 
d="M725 1159v-1159h-340v1159h-367v260h1090l-35 -260h-348z" />
    <glyph glyph-name="uni0423" unicode="&#x423;" horiz-adv-x="1198" 
d="M1227 1419l-375 -995q-92 -240 -228 -339t-393 -120l-45 232q145 14 218 54t122 124h-110l-434 1044h350l291 -837h8l252 837h344z" />
    <glyph glyph-name="uni0424" unicode="&#x424;" horiz-adv-x="1751" 
d="M387 717q0 -215 87 -315t251 -115v850q-162 -13 -250 -109t-88 -311zM1362 717q0 215 -88 311t-248 109v-850q164 15 250 115t86 315zM1040 -80h-329v158q-303 14 -486 170q-182 156 -182 469t180 463t488 163v152h329v-152q297 -16 482 -160q186 -143 186 -461
t-182 -474t-486 -170v-158z" />
    <glyph glyph-name="uni0425" unicode="&#x425;" horiz-adv-x="1204" 
d="M391 754l-371 665h371l203 -442h8l215 442h361l-381 -651l415 -768h-370l-244 526h-8l-238 -526h-362z" />
    <glyph glyph-name="uni0426" unicode="&#x426;" horiz-adv-x="1388" 
d="M879 1419h340v-1155h163v-604h-235l-37 340h-977v1419h340v-1155h406v1155z" />
    <glyph glyph-name="uni0427" unicode="&#x427;" horiz-adv-x="1282" 
d="M1149 0h-340v532q-133 -102 -305 -102q-225 0 -343 132t-118 374v483h340v-481q0 -136 48 -196t171 -60t207 74v663h340v-1419z" />
    <glyph glyph-name="uni0428" unicode="&#x428;" horiz-adv-x="1884" 
d="M782 1419h318v-1155h317v1155h332v-1419h-1616v1419h332v-1155h317v1155z" />
    <glyph glyph-name="uni0429" unicode="&#x429;" horiz-adv-x="1921" 
d="M782 1419h318v-1155h317v1155h332v-1155h164v-604h-234l-37 340h-1509v1419h332v-1155h317v1155z" />
    <glyph glyph-name="uni042A" unicode="&#x42a;" horiz-adv-x="1437" 
d="M1051 481q-1 113 -61 166t-189 53h-111v-452h123q238 0 238 233zM690 1419v-477h123q285 0 439 -115t155 -351q0 -236 -154 -356t-415 -120h-488v1163h-344v256h684z" />
    <glyph glyph-name="uni042B" unicode="&#x42b;" horiz-adv-x="1751" 
d="M1616 0h-340v1419h340v-1419zM815 481q0 113 -60 166t-186 53h-96v-452h109q233 0 233 233zM473 1419v-477h109q280 0 434 -115t153 -344q0 -283 -194 -390q-96 -53 -211 -73t-272 -20h-359v1419h340z" />
    <glyph glyph-name="uni042C" unicode="&#x42c;" horiz-adv-x="1220" 
d="M836 481q0 113 -62 166t-190 53h-111v-452h123q240 0 240 233zM473 1419v-477h123q286 0 440 -115t154 -344q0 -283 -198 -390q-173 -93 -490 -93h-369v1419h340z" />
    <glyph glyph-name="uni042D" unicode="&#x42d;" horiz-adv-x="1132" 
d="M445 1208q-133 0 -261 -108l-159 186q190 170 462 170t423 -191t151 -552t-157 -555q-158 -194 -440 -193q-282 0 -452 174l162 185q129 -106 266 -107q260 0 275 389h-490v240h488q-7 188 -71 275t-197 87z" />
    <glyph glyph-name="uni042E" unicode="&#x42e;" horiz-adv-x="1914" 
d="M1489 711q1 263 -65 379t-194 116t-190 -112q-61 -113 -61 -382t61 -384q62 -115 190 -115t194 117t65 381zM1233 1456q289 0 449 -196t161 -547q-1 -352 -161 -550t-434 -198t-431 171q-158 171 -182 472h-166v-608h-336v1419h336v-551h172q35 276 188 432
q154 156 404 156z" />
    <glyph glyph-name="uni042F" unicode="&#x42f;" horiz-adv-x="1269" 
d="M434 961q0 -117 62 -167t180 -51h119v439h-127q-234 0 -234 -221zM795 512h-172l-244 -512h-373l313 575q-242 111 -241 394q0 451 584 450h473v-1419h-340v512z" />
    <glyph glyph-name="uni0430" unicode="&#x430;" horiz-adv-x="1120" 
d="M510 199q111 0 174 118v175h-57q-131 0 -187 -40t-55 -122q0 -131 125 -131zM999 739v-424q-1 -61 15 -89t55 -42l-68 -215q-197 18 -266 142q-113 -145 -334 -146q-166 0 -264 94t-98 260q0 167 134 263t386 96h125v39q0 94 -44 130t-155 36t-282 -58l-74 217
q215 82 433 82q436 0 437 -385z" />
    <glyph glyph-name="uni0431" unicode="&#x431;" horiz-adv-x="1140" 
d="M584 795q-193 0 -194 -298t185 -298q90 0 140 66q49 67 49 230t-44 231t-136 69zM680 1026q178 0 293 -140t115 -391t-141 -391q-140 -140 -372 -139q-508 0 -507 649q0 342 91 522t330 257q207 68 381 161l117 -206q-129 -88 -362 -160q-123 -39 -176 -112t-66 -222h8
q82 172 289 172z" />
    <glyph glyph-name="uni0432" unicode="&#x432;" horiz-adv-x="1142" 
d="M1079 328q0 -168 -134 -248t-351 -80h-467v1075q245 49 445 49t329 -70t129 -210q0 -197 -205 -240v-8q119 -16 187 -86t67 -182zM571 668q144 0 144 124t-170 123q-41 0 -90 -8v-239h116zM750 356q0 135 -162 136h-133v-277h131q164 0 164 141z" />
    <glyph glyph-name="uni0433" unicode="&#x433;" horiz-adv-x="880" 
d="M455 840v-840h-328v1087h774l-37 -247h-409z" />
    <glyph glyph-name="uni0434" unicode="&#x434;" horiz-adv-x="1159" 
d="M709 860h-189l-8 -108q-18 -244 -54 -350t-116 -171h367v629zM-10 -307v538h80q55 57 85 163t48 345l28 348h785v-856h94v-538h-215l-35 307h-618l-35 -307h-217z" />
    <glyph glyph-name="uni0435" unicode="&#x435;" horiz-adv-x="1134" 
d="M580 905q-164 0 -185 -260h361q-4 260 -176 260zM643 203q125 0 256 98l137 -186q-190 -150 -420 -150q-270 0 -411 158t-141 415q0 258 134 422q136 164 374 164t372 -148q133 -148 133 -411q0 -67 -6 -116h-672q31 -246 244 -246z" />
    <glyph glyph-name="uni0436" unicode="&#x436;" horiz-adv-x="1525" 
d="M905 0h-287v467h-94l-202 -467h-332l278 584l-254 503h310l196 -423h98v423h287v-423h103l194 423h309l-254 -503l279 -584h-334l-201 467h-96v-467z" />
    <glyph glyph-name="uni0437" unicode="&#x437;" horiz-adv-x="1013" 
d="M424 664q145 0 145 120q0 113 -134 113t-247 -74l-149 174q172 127 426 127q193 0 315 -78t121 -225q0 -88 -58 -149t-159 -88v-9q270 -39 270 -264q0 -168 -137 -257t-383 -89t-430 133l158 189q133 -88 280 -88q172 0 172 133q0 123 -168 123h-167l20 209h125z" />
    <glyph glyph-name="uni0438" unicode="&#x438;" horiz-adv-x="1228" 
d="M1100 1087v-1087h-318v342q0 279 45 418h-8l-354 -760h-338v1087h317v-346q0 -244 -45 -415h9l354 761h338z" />
    <glyph glyph-name="uni0439" unicode="&#x439;" horiz-adv-x="1228" 
d="M619 1251q-163 0 -258 87t-109 223l180 32q45 -129 186 -129t189 129l180 -32q-14 -135 -109 -223q-96 -87 -259 -87zM1100 1087v-1087h-318v342q0 279 45 418h-8l-354 -760h-338v1087h317v-346q0 -244 -45 -415h9l354 761h338z" />
    <glyph glyph-name="uni043A" unicode="&#x43a;" horiz-adv-x="1122" 
d="M455 0h-328v1087h328v-423h98l244 423h313l-295 -503l320 -584h-344l-246 467h-90v-467z" />
    <glyph glyph-name="uni043B" unicode="&#x43b;" horiz-adv-x="1179" 
d="M1053 1087v-1087h-328v848h-217l-10 -129q-33 -377 -100 -523t-257 -237l-137 207q84 56 120 156t62 385l35 380h832z" />
    <glyph glyph-name="uni043C" unicode="&#x43c;" horiz-adv-x="1392" 
d="M1337 0h-313l-25 463q-8 135 9 313h-9l-165 -665h-271l-174 665h-8q14 -170 10 -260t-12 -258t-10 -258h-314l92 1087h390l157 -659h8l148 659h393z" />
    <glyph glyph-name="uni043D" unicode="&#x43d;" horiz-adv-x="1214" 
d="M1085 0h-327v432h-303v-432h-328v1087h328v-415h303v415h327v-1087z" />
    <glyph glyph-name="uni043E" unicode="&#x43e;" horiz-adv-x="1198" 
d="M63 539q1 268 145 427q144 158 392 158t391 -156t143 -425q0 -268 -142 -423t-393 -155t-393 153t-143 421zM795 547q0 336 -196 336t-196 -338q1 -178 49 -259t148 -81t148 82q47 82 47 260z" />
    <glyph glyph-name="uni043F" unicode="&#x43f;" horiz-adv-x="1206" 
d="M1079 0h-327v846h-297v-846h-328v1087h952v-1087z" />
    <glyph glyph-name="uni0440" unicode="&#x440;" horiz-adv-x="1220" 
d="M618 205q193 0 193 338q0 193 -44 267t-140 73q-96 0 -172 -125v-457q63 -96 163 -96zM127 1087h289l16 -120q124 157 320 157t298 -151q101 -152 101 -417t-117 -428t-315 -163q-164 0 -264 115v-500l-328 -35v1542z" />
    <glyph glyph-name="uni0441" unicode="&#x441;" horiz-adv-x="991" 
d="M408 537q0 -172 56 -243t155 -71q100 0 208 80l148 -209q-164 -129 -363 -129q-258 0 -403 156t-146 416t145 424t394 163q213 0 373 -135l-141 -196q-98 80 -207 79q-219 0 -219 -335z" />
    <glyph glyph-name="uni0442" unicode="&#x442;" horiz-adv-x="958" 
d="M645 846v-846h-328v846h-317v241h979l-41 -241h-293z" />
    <glyph glyph-name="uni0443" unicode="&#x443;" horiz-adv-x="1077" 
d="M1081 1087l-344 -1087q-133 -428 -614 -455l-37 232q158 20 232 68t118 155h-112l-328 1087h348l186 -862h9l204 862h338z" />
    <glyph glyph-name="uni0444" unicode="&#x444;" horiz-adv-x="1740" 
d="M559 201q88 0 158 92v504q-63 90 -149 90t-126 -79q-39 -79 -39 -265q0 -342 156 -342zM1182 887q-86 0 -158 -90v-504q70 -92 156 -92q158 0 157 342q0 188 -34 266q-35 78 -121 78zM1669 543q0 -266 -105 -422t-288 -156q-154 0 -252 117v-502l-307 -35v537
q-98 -117 -252 -117q-184 0 -289 156q-104 156 -104 427t99 424t296 152q150 0 250 -108v538l307 -34v-508q102 113 266 112q379 1 379 -581z" />
    <glyph glyph-name="uni0445" unicode="&#x445;" horiz-adv-x="1044" 
d="M516 395h-8l-176 -395h-357l349 571l-316 516h367l145 -335h8l140 335h348l-297 -503l350 -584h-371z" />
    <glyph glyph-name="uni0446" unicode="&#x446;" horiz-adv-x="1228" 
d="M127 0v1087h328v-845h293v845h327v-845h133v-561h-215l-35 319h-831z" />
    <glyph glyph-name="uni0447" unicode="&#x447;" horiz-adv-x="1136" 
d="M66 1087h327v-405q0 -76 27 -107t82 -30q104 0 178 69v473h328v-1087h-328v403q-123 -100 -292 -100q-324 0 -322 338v446z" />
    <glyph glyph-name="uni0448" unicode="&#x448;" horiz-adv-x="1630" 
d="M676 1087h278v-845h236v845h313v-1087h-1376v1087h313v-845h236v845z" />
    <glyph glyph-name="uni0449" unicode="&#x449;" horiz-adv-x="1658" 
d="M127 0v1087h313v-845h236v845h278v-845h236v845h313v-845h133v-561h-215l-37 319h-1257z" />
    <glyph glyph-name="uni044A" unicode="&#x44a;" horiz-adv-x="1230" 
d="M866 381q0 160 -188 160h-62v-326h74q176 0 176 166zM0 854v233h616v-337h60q264 0 394 -92t130 -294t-152 -283t-442 -81h-317v854h-289z" />
    <glyph glyph-name="uni044B" unicode="&#x44b;" horiz-adv-x="1572" 
d="M553 0h-426v1087h328v-337h61q508 0 508 -375q0 -187 -127 -281t-344 -94zM692 381q0 160 -174 160h-63v-326h73q164 0 164 166zM1444 0h-328v1087h328v-1087z" />
    <glyph glyph-name="uni044C" unicode="&#x44c;" horiz-adv-x="1071" 
d="M553 0h-426v1087h328v-337h61q264 0 393 -92t129 -280q0 -190 -130 -284t-355 -94zM705 381q0 160 -187 160h-63v-326h73q177 0 177 166z" />
    <glyph glyph-name="uni044D" unicode="&#x44d;" horiz-adv-x="997" 
d="M388 887q-104 0 -212 -74l-139 182q161 129 393 129t367 -160t135 -422q0 -263 -139 -420t-398 -157q-211 0 -370 123l143 188q104 -74 215 -73q193 0 217 258h-387v188h385q-12 123 -60 181q-46 58 -150 57z" />
    <glyph glyph-name="uni044E" unicode="&#x44e;" horiz-adv-x="1662" 
d="M1272 547q0 338 -190 338t-189 -341q0 -341 188 -341q98 0 145 84q46 84 46 260zM1096 -35q-230 0 -362 126t-159 351h-120v-442h-328v1087h328v-425h123q32 210 164 336t356 126t361 -158q138 -158 138 -423q0 -266 -136 -422q-135 -156 -365 -156z" />
    <glyph glyph-name="uni044F" unicode="&#x44f;" 
d="M426 737q0 -88 43 -127t143 -39h80v332q-49 8 -86 8q-180 0 -180 -174zM692 379h-137l-201 -379h-348l268 446q-180 94 -180 284t130 292t382 102q184 0 414 -49v-1075h-328v379z" />
    <glyph glyph-name="uni0451" unicode="&#x451;" horiz-adv-x="1134" 
d="M975 1470q0 -70 -49 -118t-120 -47q-71 0 -120 48q-49 47 -49 117t49 117t120 47t120 -47t49 -117zM330 1305q-72 0 -121 48q-49 47 -49 117t49 117t121 47t121 -47t49 -117t-49 -118t-121 -47zM580 905q-164 0 -185 -260h361q-4 260 -176 260zM643 203q125 0 256 98
l137 -186q-190 -150 -420 -150q-270 0 -411 158t-141 415q0 258 134 422q136 164 374 164t372 -148q133 -148 133 -411q0 -67 -6 -116h-672q31 -246 244 -246z" />
    <glyph glyph-name="uni0452" unicode="&#x452;" horiz-adv-x="1191" 
d="M647 883q-90 0 -184 -131v-752h-328v1214h-127v191h127v115l328 32v-147h285v-191h-285v-237q141 147 317 147q141 0 217 -85t76 -240v-674q0 -258 -121 -385q-63 -66 -133 -108t-180 -87l-115 240q117 51 169 117t52 202l3 644q0 74 -25 104t-76 31z" />
    <glyph glyph-name="uni0453" unicode="&#x453;" horiz-adv-x="880" 
d="M328 1245l-101 166l443 295l143 -244zM455 840v-840h-328v1087h774l-37 -247h-409z" />
    <glyph glyph-name="uni0454" unicode="&#x454;" horiz-adv-x="997" 
d="M623 203q106 0 213 82l139 -191q-164 -129 -363 -129q-258 0 -403 156t-146 416t145 424t394 163q213 0 373 -135l-141 -182q-102 80 -213 80q-205 0 -226 -238h391v-188h-391q13 -258 228 -258z" />
    <glyph glyph-name="uni0455" unicode="&#x455;" horiz-adv-x="1005" 
d="M174 307q139 -108 294 -108t155 104q0 51 -44 79t-202 71q-311 82 -311 335q0 143 120 240q120 96 350 96t396 -123l-133 -192q-129 82 -266 82t-138 -84q0 -43 44 -70t202 -71t240 -122q82 -76 82 -230q-1 -154 -141 -252t-349 -97q-285 0 -461 162z" />
    <glyph glyph-name="uni0456" unicode="&#x456;" horiz-adv-x="575" 
d="M451 0h-328v1087h328v-1087zM481 1475q0 -81 -54 -133t-139 -52t-140 52q-54 52 -54 132t54 133q54 52 140 52t139 -52q54 -52 54 -132z" />
    <glyph glyph-name="uni0457" unicode="&#x457;" horiz-adv-x="575" 
d="M451 0h-328v1087h328v-1087zM694 1470q0 -70 -49 -118t-120 -47q-71 0 -119 48q-48 47 -50 117q0 70 50 117t120 47t119 -47t49 -117zM49 1305q-72 0 -121 48q-49 47 -49 117t49 117t121 47t121 -47t49 -117t-49 -118t-121 -47z" />
    <glyph glyph-name="uni0458" unicode="&#x458;" horiz-adv-x="575" 
d="M481 1475q0 -81 -54 -133t-139 -52t-140 52q-54 52 -54 132t54 133q54 52 140 52t139 -52q54 -52 54 -132zM123 104v983h328v-962q0 -258 -121 -385q-63 -66 -133 -108t-181 -87l-114 240q117 51 169 117t52 202z" />
    <glyph glyph-name="uni0459" unicode="&#x459;" horiz-adv-x="1640" 
d="M1276 381q0 160 -174 160h-64v-326h74q164 0 164 166zM1038 1087v-337h62q510 0 510 -375q0 -187 -128 -281t-345 -94h-426v848h-203l-10 -129q-33 -377 -100 -523t-257 -237l-137 207q84 56 120 156t62 385l35 380h817z" />
    <glyph glyph-name="uni045A" unicode="&#x45a;" horiz-adv-x="1681" 
d="M1317 356q0 74 -42 105t-132 31h-64v-279h74q164 0 164 143zM1176 0h-424v492h-297v-492h-328v1087h328v-387h297v387h327v-387h60q258 0 384 -84t126 -264t-126 -266t-347 -86z" />
    <glyph glyph-name="uni045B" unicode="&#x45b;" horiz-adv-x="1191" 
d="M463 0h-328v1214h-127v191h127v115l328 32v-147h285v-191h-285v-237q141 147 317 147q143 0 219 -85t76 -240v-799h-327v748q0 74 -25 104t-76 31q-90 0 -184 -131v-752z" />
    <glyph glyph-name="uni045C" unicode="&#x45c;" horiz-adv-x="1122" 
d="M420 1245l-101 166l443 295l143 -244zM455 0h-328v1087h328v-423h98l244 423h313l-295 -503l320 -584h-344l-246 467h-90v-467z" />
    <glyph glyph-name="uni045E" unicode="&#x45e;" horiz-adv-x="1077" 
d="M540 1251q-163 0 -258 87t-110 223l180 32q44 -129 186 -129t189 129l180 -32q-14 -135 -109 -223t-258 -87zM1081 1087l-344 -1087q-133 -428 -614 -455l-37 232q158 20 232 68t118 155h-112l-328 1087h348l186 -862h9l204 862h338z" />
    <glyph glyph-name="uni045F" unicode="&#x45f;" horiz-adv-x="1204" 
d="M127 0v1087h328v-845h295v845h327v-1087h-348v-319h-215l-37 319h-350z" />
    <glyph glyph-name="uni0462" unicode="&#x462;" horiz-adv-x="1476" 
d="M1085 465q0 209 -237 209h-123v-428h129q231 0 231 219zM725 1163v-254h145q274 0 422 -110q148 -111 148 -337t-152 -344t-405 -118h-498v1163h-367v256h1090l-35 -256h-348z" />
    <glyph glyph-name="uni0463" unicode="&#x463;" horiz-adv-x="1077" 
d="M713 381q0 160 -189 160h-61v-326h74q176 0 176 166zM559 0h-424v932h-131v190h131v226l328 32v-258h270l-28 -190h-242v-182h59q264 0 394 -92t130 -280q0 -190 -130 -284q-132 -94 -357 -94z" />
    <glyph glyph-name="uni0472" unicode="&#x472;" horiz-adv-x="1417" 
d="M709 1206q-129 0 -200 -91t-85 -294h569q-15 203 -85 294t-199 91zM709 213q270 0 286 418h-573q19 -418 287 -418zM72 708q0 352 169 550t469 198t468 -196t168 -546q0 -351 -169 -550t-469 -199t-468 196t-168 547z" />
    <glyph glyph-name="uni0473" unicode="&#x473;" horiz-adv-x="1198" 
d="M600 201q182 0 205 254h-412q25 -254 207 -254zM599 887q-181 0 -204 -248h408q-23 248 -204 248zM63 539q1 268 145 427q144 158 392 158t391 -156t143 -425q0 -268 -142 -423t-393 -155t-393 153t-143 421z" />
    <glyph glyph-name="uni0474" unicode="&#x474;" horiz-adv-x="1228" 
d="M614 281h11l194 874q39 176 103 287l329 -62q-68 -109 -118 -295l-306 -1085h-424l-405 1419h360z" />
    <glyph glyph-name="uni0475" unicode="&#x475;" horiz-adv-x="1058" 
d="M776 1110l316 -39q-68 -104 -125 -291l-246 -780h-385l-348 1087h354l188 -823h9l139 598q41 174 98 248z" />
    <glyph glyph-name="uni0490" unicode="&#x490;" horiz-adv-x="1034" 
d="M133 1419h588v318h313v-318l-33 -266h-528v-1153h-340v1419z" />
    <glyph glyph-name="uni0491" unicode="&#x491;" horiz-adv-x="880" 
d="M455 840v-840h-328v1087h477v314h297v-314l-37 -247h-409z" />
    <glyph glyph-name="uni0492" unicode="&#x492;" horiz-adv-x="1054" 
d="M784 887v-203h-290v-684h-340v684h-158v203h158v532h901l-33 -266h-528v-266h290z" />
    <glyph glyph-name="uni0493" unicode="&#x493;" horiz-adv-x="888" 
d="M463 840v-201h227v-184h-227v-455h-328v455h-121v184h121v448h774l-39 -247h-407z" />
    <glyph glyph-name="uni0496" unicode="&#x496;" horiz-adv-x="1869" 
d="M774 0v621h-129l-299 -621h-362l391 776l-352 643h333l297 -559h121v559h311v-559h119l301 559h332l-354 -643l260 -512h145v-604h-233l-37 340h-113l-297 621h-123v-621h-311z" />
    <glyph glyph-name="uni0497" unicode="&#x497;" horiz-adv-x="1533" 
d="M905 467v-467h-287v467h-94l-202 -467h-332l278 584l-254 503h310l196 -423h98v423h287v-423h103l194 423h309l-254 -503l166 -342h131v-561h-215l-36 319h-101l-201 467h-96z" />
    <glyph glyph-name="uni0498" unicode="&#x498;" horiz-adv-x="1116" 
d="M606 -98q213 -25 213 -214q0 -95 -84 -161t-221 -66t-244 64l78 149q66 -35 129 -34q106 0 107 63q0 39 -45 53t-144 15l23 196q-262 20 -420 197l184 176q127 -125 289 -125q106 0 170 54q63 54 64 151q0 211 -246 211h-160l37 241h125q94 0 150 44q57 44 57 125
t-52 124t-147 43q-150 0 -270 -106l-164 174q199 180 477 180q221 0 362 -105t142 -270q0 -129 -78 -211t-223 -108v-8q158 -14 251 -105t93 -254t-122 -279t-331 -143v-71z" />
    <glyph glyph-name="uni0499" unicode="&#x499;" horiz-adv-x="1013" 
d="M539 -297q0 39 -45 53t-144 15l23 198q-219 14 -369 129l158 189q133 -88 280 -88q172 0 172 133q0 123 -168 123h-167l20 209h125q145 0 145 120q0 113 -134 113t-247 -74l-149 174q172 127 426 127q193 0 315 -78t121 -225q0 -88 -58 -149t-159 -88v-9
q270 -39 270 -264q0 -145 -106 -233t-287 -107v-69q213 -25 213 -203q0 -106 -84 -172t-221 -66t-244 64l78 149q66 -35 131 -34q105 0 105 63z" />
    <glyph glyph-name="uni049A" unicode="&#x49a;" horiz-adv-x="1292" 
d="M473 616v-616h-340v1419h340v-557h119l338 557h334l-392 -643l289 -512h156v-604h-236l-37 340h-116l-330 616h-125z" />
    <glyph glyph-name="uni049B" unicode="&#x49b;" horiz-adv-x="1128" 
d="M455 467v-467h-328v1087h328v-423h98l244 423h313l-295 -503l195 -342h143v-561h-215l-35 319h-112l-246 467h-90z" />
    <glyph glyph-name="uni049C" unicode="&#x49c;" horiz-adv-x="1298" 
d="M657 301h-127v326h-69v-627h-328v1419h328v-567h69v322h127v-322h33l252 567h332l-320 -643l357 -776h-367l-250 627h-37v-326z" />
    <glyph glyph-name="uni049D" unicode="&#x49d;" horiz-adv-x="1128" 
d="M438 0h-311v1087h311v-436h54v236h98v-236h24l181 436h315l-236 -503l261 -584h-344l-177 479h-24v-239h-98v239h-54v-479z" />
    <glyph glyph-name="uni04A0" unicode="&#x4a0;" horiz-adv-x="1501" 
d="M692 616v-616h-340v1163h-346v256h686v-557h119l338 557h334l-393 -643l430 -776h-373l-330 616h-125z" />
    <glyph glyph-name="uni04A1" unicode="&#x4a1;" horiz-adv-x="1284" 
d="M0 854v233h616v-423h99l243 423h314l-295 -503l319 -584h-346l-243 467h-91v-467h-327v854h-289z" />
    <glyph glyph-name="uni04A2" unicode="&#x4a2;" horiz-adv-x="1398" 
d="M1229 1419v-1155h164v-604h-236l-37 340h-231v606h-416v-606h-340v1419h340v-549h416v549h340z" />
    <glyph glyph-name="uni04A3" unicode="&#x4a3;" horiz-adv-x="1245" 
d="M758 0v432h-303v-432h-328v1087h328v-415h303v415h327v-845h134v-561h-215l-35 319h-211z" />
    <glyph glyph-name="uni04AA" unicode="&#x4aa;" horiz-adv-x="1167" 
d="M735 -244q1 -100 121 -100q64 0 121 29l65 -158q-106 -55 -237 -55t-212 66t-81 183q0 143 170 244q-282 8 -446 203t-164 544q0 348 179 546t449 198t455 -158l-168 -196q-115 102 -255 102t-223 -121t-83 -369t80 -367q80 -120 223 -120t289 119l153 -196
q-102 -104 -249 -152q-186 -106 -187 -242z" />
    <glyph glyph-name="uni04AB" unicode="&#x4ab;" horiz-adv-x="991" 
d="M621 -244q1 -100 119 -100q64 0 120 29l66 -158q-104 -55 -236 -55t-212 66q-81 66 -81 183q0 139 178 246q-243 10 -377 164t-134 410t144 420q146 164 394 163q213 0 373 -135l-141 -196q-98 80 -207 79q-219 0 -219 -335q0 -172 56 -243t155 -71q100 0 208 80
l148 -209q-74 -59 -170 -96q-184 -102 -184 -242z" />
    <glyph glyph-name="uni04AE" unicode="&#x4ae;" horiz-adv-x="1218" 
d="M778 0h-340v530l-454 889h372l254 -612h8l256 612h361l-457 -887v-532z" />
    <glyph glyph-name="uni04AF" unicode="&#x4af;" horiz-adv-x="1052" 
d="M686 -420l-317 -35v463l-381 1079h358l184 -784h9l192 784h334l-379 -1077v-430z" />
    <glyph glyph-name="uni04B0" unicode="&#x4b0;" horiz-adv-x="1218" 
d="M1016 653v-190h-238v-463h-340v463h-237v190h174l-391 766h372l254 -612h8l256 612h361l-395 -766h176z" />
    <glyph glyph-name="uni04B1" unicode="&#x4b1;" horiz-adv-x="1052" 
d="M686 6v-426l-317 -35v461h-199v182h133l-315 899h358l184 -784h9l192 784h334l-317 -899h135v-182h-197z" />
    <glyph glyph-name="uni04B2" unicode="&#x4b2;" horiz-adv-x="1214" 
d="M1243 264v-604h-235l-37 340h-129l-244 526h-8l-238 -526h-362l401 754l-371 665h371l203 -442h8l215 442h361l-381 -651l274 -504h172z" />
    <glyph glyph-name="uni04B3" unicode="&#x4b3;" horiz-adv-x="1052" 
d="M1085 242v-561h-215l-36 319h-136l-182 395h-8l-176 -395h-357l349 571l-316 516h367l145 -335h8l140 335h348l-297 -503l209 -342h157z" />
    <glyph glyph-name="uni04B8" unicode="&#x4b8;" horiz-adv-x="1282" 
d="M666 274h-131v158q-492 0 -492 504v483h340v-401q0 -168 30 -241t122 -89v459h131v-461q82 16 143 70v663h340v-1419h-340v532q-66 -53 -143 -73v-185z" />
    <glyph glyph-name="uni04B9" unicode="&#x4b9;" horiz-adv-x="1136" 
d="M580 166h-103v149q-49 -12 -100 -12q-158 0 -235 89t-76 249v446h327v-405q0 -123 84 -135v268h103v-258q63 18 100 57v473h328v-1087h-328v403q-41 -35 -100 -57v-180z" />
    <glyph glyph-name="uni04BA" unicode="&#x4ba;" horiz-adv-x="1288" 
d="M473 0h-340v1419h340v-563q139 109 311 109q223 0 338 -131t115 -375v-459h-344v455q0 137 -45 197t-162 60t-213 -75v-637z" />
    <glyph glyph-name="uni04BB" unicode="&#x4bb;" horiz-adv-x="1173" 
d="M739 0v608q0 74 -24 105q-25 31 -76 30q-90 0 -184 -131v-612h-328v1520l328 32v-714q141 147 317 147q143 0 219 -85t76 -241v-659h-328z" />
    <glyph glyph-name="uni04C0" unicode="&#x4c0;" horiz-adv-x="606" 
d="M473 0h-340v1419h340v-1419z" />
    <glyph glyph-name="uni04CB" unicode="&#x4cb;" horiz-adv-x="1318" 
d="M1149 1419v-1155h164v-604h-236l-37 340h-231v532q-133 -102 -305 -102q-225 0 -343 132t-118 374v483h340v-481q0 -136 48 -196t171 -60t207 74v663h340z" />
    <glyph glyph-name="uni04CC" unicode="&#x4cc;" horiz-adv-x="1163" 
d="M680 0v403q-123 -100 -292 -100q-324 0 -322 338v446h327v-405q0 -76 27 -107t82 -30q104 0 178 69v473h328v-845h133v-561h-215l-37 319h-209z" />
    <glyph glyph-name="uni04CF" unicode="&#x4cf;" horiz-adv-x="606" 
d="M392 -35q-124 0 -202 81t-77 237v1237l327 34v-1247q0 -84 56 -84q28 0 53 10l63 -231q-96 -37 -220 -37z" />
    <glyph glyph-name="uni04D8" unicode="&#x4d8;" horiz-adv-x="1325" 
d="M647 213q127 0 191 89q63 89 71 292h-526q1 -203 69 -292t195 -89zM55 690q0 70 11 137h843q-14 381 -299 381q-172 0 -317 -125l-158 191q205 182 504 182t457 -187t158 -549t-160 -558q-160 -197 -450 -197q-290 1 -440 191t-149 534z" />
    <glyph glyph-name="uni04D9" unicode="&#x4d9;" horiz-adv-x="1134" 
d="M559 197q94 0 142 59t51 188h-385q4 -247 192 -247zM537 891q-147 0 -277 -90l-135 182q178 141 431 141t384 -156t131 -416q0 -259 -134 -423q-135 -164 -373 -164q-238 -1 -372 147t-135 412q0 13 6 117h689q-8 250 -215 250z" />
    <glyph glyph-name="uni04E2" unicode="&#x4e2;" horiz-adv-x="1357" 
d="M993 1831v-227h-628v227h628zM133 0v1419h334v-475q0 -303 -49 -594h8l393 1069h404v-1419h-334v465q0 328 49 602h-8l-385 -1067h-412z" />
    <glyph glyph-name="uni04E3" unicode="&#x4e3;" horiz-adv-x="1228" 
d="M1100 1087v-1087h-318v342q0 279 45 418h-8l-354 -760h-338v1087h317v-346q0 -244 -45 -415h9l354 761h338zM932 1573v-227h-629v227h629z" />
    <glyph glyph-name="uni04E8" unicode="&#x4e8;" horiz-adv-x="1417" 
d="M709 1206q-129 0 -200 -91t-85 -294h569q-15 203 -85 294t-199 91zM709 213q270 0 286 418h-573q19 -418 287 -418zM72 708q0 352 169 550t469 198t468 -196t168 -546q0 -351 -169 -550t-469 -199t-468 196t-168 547z" />
    <glyph glyph-name="uni04E9" unicode="&#x4e9;" horiz-adv-x="1198" 
d="M600 201q182 0 205 254h-412q25 -254 207 -254zM599 887q-181 0 -204 -248h408q-23 248 -204 248zM63 539q1 268 145 427q144 158 392 158t391 -156t143 -425q0 -268 -142 -423t-393 -155t-393 153t-143 421z" />
    <glyph glyph-name="uni04EE" unicode="&#x4ee;" horiz-adv-x="1202" 
d="M928 1831v-227h-629v227h629zM1231 1419l-375 -995q-92 -240 -228 -339t-392 -120l-46 232q145 14 219 54q73 40 121 124h-110l-434 1044h350l291 -837h8l252 837h344z" />
    <glyph glyph-name="uni04EF" unicode="&#x4ef;" horiz-adv-x="1077" 
d="M852 1573v-227h-629v227h629zM1081 1087l-344 -1087q-133 -428 -614 -455l-37 232q158 20 232 68t118 155h-112l-328 1087h348l186 -862h9l204 862h338z" />
    <glyph glyph-name="uni2007" unicode="&#x2007;" horiz-adv-x="1202" 
 />
    <glyph glyph-name="uni2008" unicode="&#x2008;" horiz-adv-x="509" 
 />
    <glyph glyph-name="uni200B" unicode="&#x200b;" horiz-adv-x="0" 
 />
    <glyph glyph-name="figuredash" unicode="&#x2012;" 
d="M1122 526h-1097v254h1097v-254z" />
    <glyph glyph-name="endash" unicode="&#x2013;" horiz-adv-x="1064" 
d="M1022 514h-979v254h979v-254z" />
    <glyph glyph-name="emdash" unicode="&#x2014;" horiz-adv-x="1632" 
d="M1587 514h-1544v254h1544v-254z" />
    <glyph glyph-name="afii00208" unicode="&#x2015;" horiz-adv-x="1064" 
d="M1022 514h-979v254h979v-254z" />
    <glyph glyph-name="quoteleft" unicode="&#x2018;" horiz-adv-x="483" 
d="M410 1123q0 -79 -50 -126t-126 -47q-74 0 -122 47t-48 120t57 194l131 268h164l-80 -324q74 -53 74 -132z" />
    <glyph glyph-name="quoteright" unicode="&#x2019;" horiz-adv-x="483" 
d="M72 1404q0 79 50 127t124 48t123 -48t49 -118t-60 -194l-129 -269h-166l80 324q-71 51 -71 130z" />
    <glyph glyph-name="quotesinglbase" unicode="&#x201a;" horiz-adv-x="483" 
d="M72 120q0 79 51 126t125 47t123 -47t49 -118t-60 -196l-129 -268h-165l79 324q-73 53 -73 132z" />
    <glyph glyph-name="quotedblleft" unicode="&#x201c;" horiz-adv-x="909" 
d="M836 1122q0 -78 -52 -125t-125 -47q-75 0 -123 47t-48 118t59 196l129 268h166l-80 -324q74 -55 74 -133zM410 1123q0 -79 -50 -126t-126 -47q-74 0 -122 47t-48 120t57 194l131 268h164l-80 -324q74 -53 74 -132z" />
    <glyph glyph-name="quotedblright" unicode="&#x201d;" horiz-adv-x="909" 
d="M498 1421q0 79 51 127t125 47q74 0 123 -48t49 -119t-62 -193l-129 -268h-163l79 323q-73 52 -73 131zM72 1421q0 79 51 127t125 47q74 0 123 -48t49 -118t-60 -194l-129 -268h-165l79 323q-73 52 -73 131z" />
    <glyph glyph-name="quotedblbase" unicode="&#x201e;" horiz-adv-x="907" 
d="M498 121q0 78 50 125t124 47t123 -47t49 -118t-60 -196l-129 -268h-166l80 324q-71 55 -71 133zM72 120q0 79 51 126t125 47t123 -47t49 -118t-60 -196l-129 -268h-165l79 324q-73 53 -73 132z" />
    <glyph glyph-name="dagger" unicode="&#x2020;" horiz-adv-x="1077" 
d="M1030 834h-338v-834h-307v834h-338v264h338v293h307v-293h338v-264z" />
    <glyph glyph-name="daggerdbl" unicode="&#x2021;" horiz-adv-x="1077" 
d="M1030 834h-338v-273h338v-266h-338v-295h-307v295h-338v266h338v273h-338v264h338v293h307v-293h338v-264z" />
    <glyph glyph-name="bullet" unicode="&#x2022;" horiz-adv-x="765" 
d="M676 698q0 -126 -83 -208t-209 -82t-210 84t-84 208t83 208q83 83 209 83t210 -84t84 -209z" />
    <glyph glyph-name="ellipsis" unicode="&#x2026;" horiz-adv-x="1529" 
d="M70 152q0 78 55 132t132 54t131 -54t54 -132t-54 -132t-131 -55q-77 1 -132 55t-55 132zM1087 152q1 78 55 132t132 54t132 -54t54 -132t-54 -132t-132 -55q-78 1 -132 55t-55 132zM578 152q0 78 55 132t132 54t131 -54t54 -132t-54 -132t-131 -55q-77 1 -132 55t-55 132
z" />
    <glyph glyph-name="perthousand" unicode="&#x2030;" horiz-adv-x="2533" 
d="M1333 702q157 0 261 -101t104 -268t-104 -267t-261 -100q-158 0 -262 100q-104 102 -104 268t104 267t262 101zM1200 333q0 -173 131 -173t131 173t-131 173t-131 -173zM811 1044q0 -166 -103 -267q-104 -101 -262 -101t-261 101t-103 267t103 268t261 101
q158 0 262 -101q103 -102 103 -268zM313 1044q0 -174 132 -174t133 174q0 174 -132 175q-133 -1 -133 -175zM1468 1348l-950 -1428l-201 125l949 1428zM2478 333q0 -167 -103 -267t-261 -100t-262 100q-104 102 -105 268q0 166 104 267q105 101 263 101t261 -101t103 -268z
M2114 506q-134 0 -134 -173t134 -173q129 0 129 173t-129 173z" />
    <glyph glyph-name="guilsinglleft" unicode="&#x2039;" horiz-adv-x="737" 
d="M401 588l263 -422l-201 -133l-389 450v207l389 451l201 -133z" />
    <glyph glyph-name="guilsinglright" unicode="&#x203a;" horiz-adv-x="739" 
d="M74 166l262 422l-262 420l200 133l390 -451v-207l-390 -450z" />
    <glyph glyph-name="fraction" unicode="&#x2044;" horiz-adv-x="337" 
d="M686 1460l-831 -1640l-201 98l831 1643z" />
    <glyph glyph-name="uni2070" unicode="&#x2070;" horiz-adv-x="819" 
d="M412 1536q340 0 340 -453t-340 -452q-344 0 -344 454q0 221 88 336t256 115zM311 1086q0 -156 25 -222q25 -64 75 -64q49 0 73 63q24 62 24 224q0 163 -22 221t-74 58t-77 -62q-24 -62 -24 -218z" />
    <glyph glyph-name="uni2074" unicode="&#x2074;" horiz-adv-x="819" 
d="M760 819h-96v-174h-228v174h-377v156l232 563l196 -68l-186 -477h137l33 197h193v-197h96v-174z" />
    <glyph glyph-name="uni2075" unicode="&#x2075;" horiz-adv-x="819" 
d="M467 1225q121 0 191 -75t69 -211q0 -136 -95 -222t-253 -86q-199 0 -320 141l138 113q72 -78 143 -78t107 37t36 96t-28 91q-29 32 -72 32t-94 -29h-168v486h567l-26 -166h-312v-158q57 29 117 29z" />
    <glyph glyph-name="uni2076" unicode="&#x2076;" horiz-adv-x="819" 
d="M432 1077q-61 0 -110 -59q0 -223 104 -223q92 0 92 141t-86 141zM486 1370q-64 0 -110 -53t-59 -160q78 78 187 78q108 0 182 -76t74 -213t-92 -226t-258 -89q-166 1 -252 115t-86 318t111 338q112 134 302 134q115 0 209 -66l-92 -135q-52 35 -116 35z" />
    <glyph glyph-name="uni2077" unicode="&#x2077;" horiz-adv-x="819" 
d="M94 1343v177h627v-144l-348 -753l-221 67l327 653h-385z" />
    <glyph glyph-name="uni2078" unicode="&#x2078;" horiz-adv-x="819" 
d="M498 1300q0 80 -88 80t-88 -76q0 -77 106 -116q70 45 70 112zM526 896q0 46 -36 76t-111 54q-86 -51 -86 -125q0 -49 32 -77t87 -28t85 27q29 27 29 73zM729 1304q0 -110 -149 -184q184 -66 184 -221q0 -115 -91 -191t-265 -77q-174 0 -264 70q-89 71 -89 190
q0 145 181 211q-145 63 -146 198q0 112 88 174t234 62t232 -61q85 -61 85 -171z" />
    <glyph glyph-name="uni2079" unicode="&#x2079;" horiz-adv-x="819" 
d="M389 1110q66 0 111 53q0 121 -24 164t-77 43q-100 0 -100 -130t90 -130zM318 954q-112 0 -186 74t-75 208q1 134 99 217t256 83t244 -96t87 -258q0 -240 -135 -370t-436 -200l-49 166q152 37 245 93t136 153l-6 4q-68 -74 -180 -74z" />
    <glyph glyph-name="uni207A" unicode="&#x207a;" horiz-adv-x="819" 
d="M123 1098h182v186h209v-186h182v-178h-182v-185h-209v185h-182v178z" />
    <glyph glyph-name="uni207B" unicode="&#x207b;" horiz-adv-x="819" 
d="M696 922h-573v178h573v-178z" />
    <glyph glyph-name="uni207C" unicode="&#x207c;" horiz-adv-x="819" 
d="M696 1059h-573v176h573v-176zM696 784h-573v177h573v-177z" />
    <glyph glyph-name="uni207D" unicode="&#x207d;" horiz-adv-x="819" 
d="M444 991q0 -332 160 -575l-145 -97q-121 167 -183 315t-63 357q0 209 62 357t184 315l145 -96q-160 -244 -160 -576z" />
    <glyph glyph-name="uni207E" unicode="&#x207e;" horiz-adv-x="819" 
d="M373 991q0 332 -160 576l145 96q122 -166 184 -314q62 -147 62 -357t-62 -357t-184 -316l-145 97q160 243 160 575z" />
    <glyph glyph-name="uni2080" unicode="&#x2080;" horiz-adv-x="819" 
d="M412 469q340 0 340 -453t-340 -452q-344 0 -344 454q0 221 88 336t256 115zM311 18q0 -156 25 -220t75 -64q49 0 73 62t24 224t-22 220t-74 59q-52 0 -77 -62q-24 -63 -24 -219z" />
    <glyph glyph-name="uni2081" unicode="&#x2081;" horiz-adv-x="819" 
d="M614 -420h-233v637l-180 -100l-109 155l324 183h198v-875z" />
    <glyph glyph-name="uni2082" unicode="&#x2082;" horiz-adv-x="819" 
d="M399 471q143 0 227 -76t83 -180q0 -105 -77 -205t-267 -252h376l-26 -178h-625v158q215 193 294 289t79 151t-28 82t-73 27q-76 0 -143 -84l-147 112q131 156 327 156z" />
    <glyph glyph-name="uni2083" unicode="&#x2083;" horiz-adv-x="819" 
d="M725 -166q0 -118 -95 -194q-94 -76 -280 -76t-309 135l133 121q84 -84 176 -84q63 0 99 31q35 31 34 79q0 113 -139 113h-84l29 162h59q111 0 111 88q-1 88 -99 88t-180 -74l-119 125q137 121 305 121t248 -65q82 -65 82 -166q0 -139 -161 -187v-8q86 -13 138 -71
t52 -138z" />
    <glyph glyph-name="uni2084" unicode="&#x2084;" horiz-adv-x="819" 
d="M760 -246h-96v-174h-228v174h-377v156l232 563l196 -67l-186 -478h137l33 197h193v-197h96v-174z" />
    <glyph glyph-name="uni2085" unicode="&#x2085;" horiz-adv-x="819" 
d="M467 158q121 0 191 -75t69 -211q0 -136 -95 -222t-253 -86q-199 0 -320 141l138 113q72 -78 143 -78t107 37t36 96t-28 91q-29 32 -72 32t-94 -29h-168v486h567l-26 -166h-312v-158q57 29 117 29z" />
    <glyph glyph-name="uni2086" unicode="&#x2086;" horiz-adv-x="819" 
d="M432 10q-61 0 -110 -59q0 -223 104 -223q92 0 92 141t-86 141zM486 303q-64 0 -110 -53t-59 -160q78 78 187 78q108 0 182 -76t74 -213t-92 -226t-258 -89t-252 114t-86 319q0 204 111 338q112 134 302 134q115 0 209 -66l-92 -135q-52 35 -116 35z" />
    <glyph glyph-name="uni2087" unicode="&#x2087;" horiz-adv-x="819" 
d="M94 276v177h627v-144l-348 -753l-221 67l327 653h-385z" />
    <glyph glyph-name="uni2088" unicode="&#x2088;" horiz-adv-x="819" 
d="M498 233q0 81 -88 81t-88 -77t106 -116q70 45 70 112zM526 -171q0 46 -36 76t-111 54q-86 -49 -86 -125q0 -49 32 -77q32 -27 87 -27t85 26q29 27 29 73zM729 237q0 -110 -149 -184q184 -66 184 -221q0 -116 -91 -192t-265 -76t-264 70q-89 71 -89 190q0 145 181 211
q-145 63 -146 198q0 111 88 173t234 63q146 0 232 -61q85 -61 85 -171z" />
    <glyph glyph-name="uni2089" unicode="&#x2089;" horiz-adv-x="819" 
d="M389 45q66 0 111 53q0 121 -24 164t-77 43q-100 0 -100 -130t90 -130zM318 -111q-112 0 -186 74t-75 208q1 134 99 217t256 83t244 -96t87 -258q0 -240 -135 -370t-436 -200l-49 166q152 37 245 93t136 153l-6 4q-68 -74 -180 -74z" />
    <glyph glyph-name="uni208A" unicode="&#x208a;" horiz-adv-x="819" 
d="M123 80h182v186h209v-186h182v-178h-182v-185h-209v185h-182v178z" />
    <glyph glyph-name="uni208B" unicode="&#x208b;" horiz-adv-x="819" 
d="M696 -96h-573v178h573v-178z" />
    <glyph glyph-name="uni208C" unicode="&#x208c;" horiz-adv-x="819" 
d="M696 39h-573v176h573v-176zM696 -236h-573v177h573v-177z" />
    <glyph glyph-name="uni208D" unicode="&#x208d;" horiz-adv-x="819" 
d="M444 -25q0 -332 160 -575l-145 -96q-121 168 -184 315q-62 147 -62 356t62 357t184 315l145 -96q-160 -244 -160 -576z" />
    <glyph glyph-name="uni208E" unicode="&#x208e;" horiz-adv-x="819" 
d="M373 -26q0 333 -160 577l145 96q122 -166 184 -314q62 -147 62 -357t-62 -357t-184 -315l-145 96q160 241 160 574z" />
    <glyph glyph-name="Euro" unicode="&#x20ac;" horiz-adv-x="1208" 
d="M520 764v-146h424l-43 -169h-360q27 -129 95 -188q69 -58 185 -58q160 0 299 94v-256q-158 -76 -323 -76q-240 0 -388 125t-196 359h-193l46 169h127v146h-168l43 170h151q57 229 211 354t370 125t382 -110l-123 -199q-111 74 -240 74q-217 0 -276 -244h477l-45 -170
h-455z" />
    <glyph glyph-name="uni2116" unicode="&#x2116;" horiz-adv-x="2301" 
d="M1227 0h-432l-400 1083h-8q51 -244 51 -553v-530h-305v1419h426l406 -1083h8q-51 213 -51 545v538h305v-1419zM2232 0h-870v254h870v-254zM1346 985q0 207 121 338q122 131 330 131t329 -130t121 -338t-121 -335t-331 -127t-330 127q-119 127 -119 334zM1960 989
q0 262 -164 262t-164 -262t164 -262t164 262z" />
    <glyph glyph-name="trademark" unicode="&#x2122;" horiz-adv-x="1837" 
d="M1042 1210h-8q10 -184 10 -231l-8 -373h-219l29 813h307l131 -483h10l109 483h321l29 -813h-229l-8 373q-2 113 12 231h-8l-138 -520h-186zM530 1231v-625h-239v625h-234v188h729l-32 -188h-224z" />
    <glyph glyph-name="Omega" unicode="&#x2126;" horiz-adv-x="1439" 
d="M719 1206q-281 0 -281 -432q0 -242 43 -364t162 -185v-225h-524v242h235v8q-129 68 -200 202q-72 134 -72 322q0 298 173 490t465 192t464 -191t172 -491q0 -188 -72 -322t-201 -202v-8h238v-242h-524v225q119 59 161 183t41 366q1 432 -280 432z" />
    <glyph glyph-name="estimated" unicode="&#x212e;" horiz-adv-x="1935" 
d="M1479 764v391q-188 203 -522 203t-500 -203v-391h1022zM1776 684h-1319v-434q59 -90 209 -142t302 -52t297 50q146 51 226 146h117q-238 -276 -641 -277q-346 0 -577 205q-230 205 -230 519t235 527q236 212 570 212q335 0 573 -213t238 -541z" />
    <glyph glyph-name="onethird" unicode="&#x2153;" horiz-adv-x="1976" 
d="M1896 256q0 -119 -95 -195t-263 -75q-203 0 -326 135l134 121q84 -84 176 -84q63 0 98 30t35 80q0 113 -139 113h-84l28 162h60q111 0 110 90q0 86 -98 86t-180 -74l-119 125q137 121 304 121t249 -65t82 -167q0 -139 -162 -186v-8q86 -13 138 -71t52 -138zM614 567h-233
v637l-180 -100l-109 156l324 182h198v-875zM1505 1460l-831 -1640l-201 98l832 1643z" />
    <glyph glyph-name="twothirds" unicode="&#x2154;" horiz-adv-x="1976" 
d="M1892 256q0 -119 -95 -195t-263 -75q-203 0 -326 135l133 121q84 -84 177 -84q63 0 98 30t35 80q0 113 -140 113h-84l29 162h60q111 0 110 90q0 86 -98 86t-180 -74l-119 125q137 121 304 121t249 -65t82 -167q0 -139 -162 -186v-8q86 -13 138 -71t52 -138zM709 1202
q0 -104 -77 -204t-267 -253h376l-26 -178h-625v158q215 193 294 289t79 152t-28 82t-73 26q-76 0 -143 -84l-147 113q131 156 327 155q143 0 227 -76t83 -180zM1505 1460l-831 -1640l-201 98l832 1643z" />
    <glyph glyph-name="uni2155" unicode="&#x2155;" horiz-adv-x="1976" 
d="M1634 580q120 0 190 -75t70 -211t-95 -222t-253 -86q-199 0 -319 141l137 113q72 -78 144 -78t107 37q36 37 36 96t-29 91t-72 32t-94 -29h-168v485h567l-26 -165h-311v-158q57 29 116 29zM614 567h-233v637l-180 -100l-109 156l324 182h198v-875zM1505 1460l-831 -1640
l-201 98l832 1643z" />
    <glyph glyph-name="uni2156" unicode="&#x2156;" horiz-adv-x="1976" 
d="M1634 580q120 0 190 -75t70 -211t-95 -222t-253 -86q-199 0 -319 141l137 113q72 -78 144 -78t107 37q36 37 36 96t-29 91t-72 32t-94 -29h-168v485h567l-26 -165h-311v-158q57 29 116 29zM709 1202q0 -104 -77 -204t-267 -253h376l-26 -178h-625v158q215 193 294 289
t79 152t-28 82t-73 26q-76 0 -143 -84l-147 113q131 156 327 155q143 0 227 -76t83 -180zM1505 1460l-831 -1640l-201 98l832 1643z" />
    <glyph glyph-name="uni2157" unicode="&#x2157;" horiz-adv-x="1976" 
d="M721 823q0 -119 -95 -195t-281 -75q-186 0 -308 135l133 121q84 -84 176 -84q63 0 98 31t35 80q0 113 -139 112h-84l29 162h59q111 0 111 88q-1 88 -99 88t-180 -74l-119 125q137 121 305 121t248 -64q82 -64 82 -167q0 -139 -162 -187v-8q86 -14 139 -71q52 -58 52 -138
zM1634 580q120 0 190 -75t70 -211t-95 -222t-253 -86q-199 0 -319 141l137 113q72 -78 144 -78t107 37q36 37 36 96t-29 91t-72 32t-94 -29h-168v485h567l-26 -165h-311v-158q57 29 116 29zM1505 1460l-831 -1640l-201 98l832 1643z" />
    <glyph glyph-name="uni2158" unicode="&#x2158;" horiz-adv-x="1976" 
d="M762 741h-96v-174h-228v174h-377v156l232 563l196 -67l-186 -478h137l33 197h193v-197h96v-174zM1634 580q120 0 190 -75t70 -211t-95 -222t-253 -86q-199 0 -319 141l137 113q72 -78 144 -78t107 37q36 37 36 96t-29 91t-72 32t-94 -29h-168v485h567l-26 -165h-311v-158
q57 29 116 29zM1505 1460l-831 -1640l-201 98l832 1643z" />
    <glyph glyph-name="uni2159" unicode="&#x2159;" horiz-adv-x="1976" 
d="M1589 432q-61 0 -110 -59q0 -223 104 -223q92 0 92 141t-86 141zM1644 725q-64 0 -111 -53q-46 -53 -58 -160q79 78 187 78t182 -76t73 -213q0 -137 -92 -226t-258 -89t-252 114t-86 318t111 339q112 134 302 134q115 0 209 -66l-92 -135q-51 35 -115 35zM614 567h-233
v637l-180 -100l-109 156l324 182h198v-875zM1505 1460l-831 -1640l-201 98l832 1643z" />
    <glyph glyph-name="uni215A" unicode="&#x215a;" horiz-adv-x="1976" 
d="M473 1147q121 0 191 -75t69 -211q0 -136 -95 -222t-253 -86q-199 0 -319 141l137 113q72 -78 143 -78t108 37q36 37 35 96q0 59 -28 91q-29 32 -72 32t-94 -29h-168v486h567l-26 -166h-312v-158q57 29 117 29zM1589 432q-61 0 -110 -59q0 -223 104 -223q92 0 92 141
t-86 141zM1644 725q-64 0 -111 -53q-46 -53 -58 -160q79 78 187 78t182 -76t73 -213q0 -137 -92 -226t-258 -89t-252 114t-86 318t111 339q112 134 302 134q115 0 209 -66l-92 -135q-51 35 -115 35zM1505 1460l-831 -1640l-201 98l832 1643z" />
    <glyph glyph-name="oneeighth" unicode="&#x215b;" horiz-adv-x="1976" 
d="M1655 655q0 80 -88 80t-88 -77t106 -115q70 45 70 112zM1683 251q0 46 -35 76q-36 30 -112 54q-86 -49 -86 -125q0 -49 32 -77q32 -27 87 -27t85 26q29 27 29 73zM1886 658q0 -110 -149 -183q184 -66 184 -221q0 -115 -91 -192q-91 -76 -265 -76t-263 70t-90 190
q0 145 181 211q-145 63 -146 198q0 111 88 173q89 62 235 62t231 -60q85 -62 85 -172zM614 567h-233v637l-180 -100l-109 156l324 182h198v-875zM1505 1460l-831 -1640l-201 98l832 1643z" />
    <glyph glyph-name="threeeighths" unicode="&#x215c;" horiz-adv-x="1976" 
d="M721 823q0 -119 -95 -195t-281 -75q-186 0 -308 135l133 121q84 -84 176 -84q63 0 98 31t35 80q0 113 -139 112h-84l29 162h59q111 0 111 88q-1 88 -99 88t-180 -74l-119 125q137 121 305 121t248 -64q82 -64 82 -167q0 -139 -162 -187v-8q86 -14 139 -71q52 -58 52 -138
zM1655 655q0 80 -88 80t-88 -77t106 -115q70 45 70 112zM1683 251q0 46 -35 76q-36 30 -112 54q-86 -49 -86 -125q0 -49 32 -77q32 -27 87 -27t85 26q29 27 29 73zM1886 658q0 -110 -149 -183q184 -66 184 -221q0 -115 -91 -192q-91 -76 -265 -76t-263 70t-90 190
q0 145 181 211q-145 63 -146 198q0 111 88 173q89 62 235 62t231 -60q85 -62 85 -172zM1505 1460l-831 -1640l-201 98l832 1643z" />
    <glyph glyph-name="fiveeighths" unicode="&#x215d;" horiz-adv-x="1976" 
d="M1655 655q0 80 -88 80t-88 -77t106 -115q70 45 70 112zM1683 251q0 46 -35 76q-36 30 -112 54q-86 -49 -86 -125q0 -49 32 -77q32 -27 87 -27t85 26q29 27 29 73zM1886 658q0 -110 -149 -183q184 -66 184 -221q0 -115 -91 -192q-91 -76 -265 -76t-263 70t-90 190
q0 145 181 211q-145 63 -146 198q0 111 88 173q89 62 235 62t231 -60q85 -62 85 -172zM473 1147q121 0 191 -75t69 -211q0 -136 -95 -222t-253 -86q-199 0 -319 141l137 113q72 -78 143 -78t108 37q36 37 35 96q0 59 -28 91q-29 32 -72 32t-94 -29h-168v486h567l-26 -166
h-312v-158q57 29 117 29zM1505 1460l-831 -1640l-201 98l832 1643z" />
    <glyph glyph-name="seveneighths" unicode="&#x215e;" horiz-adv-x="1976" 
d="M184 1266v176h627v-144l-348 -753l-221 67l327 654h-385zM1655 655q0 80 -88 80t-88 -77t106 -115q70 45 70 112zM1683 251q0 46 -35 76q-36 30 -112 54q-86 -49 -86 -125q0 -49 32 -77q32 -27 87 -27t85 26q29 27 29 73zM1886 658q0 -110 -149 -183q184 -66 184 -221
q0 -115 -91 -192q-91 -76 -265 -76t-263 70t-90 190q0 145 181 211q-145 63 -146 198q0 111 88 173q89 62 235 62t231 -60q85 -62 85 -172zM1505 1460l-831 -1640l-201 98l832 1643z" />
    <glyph glyph-name="uni215F" unicode="&#x215f;" horiz-adv-x="1976" 
d="M614 567h-233v637l-180 -100l-109 156l324 182h198v-875zM1505 1460l-831 -1640l-201 98l832 1643z" />
    <glyph glyph-name="arrowleft" unicode="&#x2190;" horiz-adv-x="1843" 
d="M1677 541h-1050l-2 -6q96 -59 221 -197l155 -170l-215 -184l-620 690l620 690l215 -184l-155 -170q-125 -137 -221 -197l2 -6h1050v-266z" />
    <glyph glyph-name="arrowup" unicode="&#x2191;" horiz-adv-x="1843" 
d="M1073 0h-303v1026l-6 2q-74 -115 -186 -215l-164 -149l-191 200l699 633l698 -633l-190 -200l-203 186q-84 76 -148 178l-6 -2v-1026z" />
    <glyph glyph-name="arrowright" unicode="&#x2192;" horiz-adv-x="1843" 
d="M166 541v266h1051l2 6q-82 49 -224 201l-153 166l215 184l620 -690l-620 -690l-215 184l190 207q102 111 187 160l-2 6h-1051z" />
    <glyph glyph-name="arrowdown" unicode="&#x2193;" horiz-adv-x="1843" 
d="M1073 1444v-1026l6 -2q59 102 185 213l166 151l190 -202l-698 -629l-699 629l191 202l202 -186q92 -82 148 -178l6 2v1026h303z" />
    <glyph glyph-name="arrowboth" unicode="&#x2194;" horiz-adv-x="2621" 
d="M2003 541h-1385l-2 -6q88 -53 222 -197l155 -170l-213 -184l-622 690l622 690l213 -184l-190 -207q-102 -111 -187 -160l2 -6h1385l2 6q-88 53 -221 197l-156 170l213 184l623 -690l-623 -690l-213 184l191 207q102 111 186 160z" />
    <glyph glyph-name="arrowupdn" unicode="&#x2195;" horiz-adv-x="1843" 
d="M1073 1358v-1346l6 -2q57 94 185 213l166 152l190 -203l-698 -631l-699 631l191 203l166 -152q131 -123 184 -213l6 2v1346l-6 2q-59 -100 -184 -213l-166 -154l-191 203l699 631l698 -631l-190 -203l-166 154q-125 115 -185 213z" />
    <glyph glyph-name="uni2196" unicode="&#x2196;" horiz-adv-x="1843" 
d="M791 1012l745 -748l-205 -207l-739 744l-6 -2q20 -78 26 -134t0 -163l-12 -230l-293 17l47 948l946 47l19 -264l-289 -16q-135 -8 -237 14z" />
    <glyph glyph-name="uni2197" unicode="&#x2197;" horiz-adv-x="1843" 
d="M307 264l746 748l-2 6q-119 -25 -248 -17l-279 19l19 264l946 -47l47 -948l-293 -17l-14 217q-10 162 28 310l-6 2l-739 -744z" />
    <glyph glyph-name="uni2198" unicode="&#x2198;" horiz-adv-x="1843" 
d="M524 297l289 16q139 6 238 -16l2 6l-746 750l205 204l739 -743l6 2q-23 72 -27 125q-5 53 1 172l12 231l293 -18l-47 -948l-946 -45z" />
    <glyph glyph-name="uni2199" unicode="&#x2199;" horiz-adv-x="1843" 
d="M1536 1053l-745 -750l2 -6q113 27 284 14l242 -14l-19 -264l-946 45l-47 948l293 18l16 -278q6 -125 -30 -250l6 -2l739 743z" />
    <glyph glyph-name="uni21E6" unicode="&#x21e6;" horiz-adv-x="2048" 
d="M1794 477v328h-1194v227l-387 -391l387 -391v227h1194zM1884 793v-304q0 -47 -29 -75t-73 -27h-1090v-360l-610 614l610 614v-360h1090q46 1 74 -27t28 -75z" />
    <glyph glyph-name="uni21E7" unicode="&#x21e7;" horiz-adv-x="1474" 
d="M565 66h344v1120h219l-391 387l-391 -387h219v-1120zM903 -25h-332q-47 0 -75 29t-27 74v1016h-346l614 610l615 -610h-346v-1016q0 -45 -28 -74t-75 -29z" />
    <glyph glyph-name="uni21E8" unicode="&#x21e8;" horiz-adv-x="2048" 
d="M254 805v-328h1194v-227l387 391l-387 391v-227h-1194zM164 489v304q0 47 29 75t73 27h1090v360l610 -614l-610 -614v360h-1090q-46 -1 -74 27t-28 75z" />
    <glyph glyph-name="uni21E9" unicode="&#x21e9;" horiz-adv-x="1474" 
d="M909 1446h-344v-1120h-219l391 -387l391 387h-219v1120zM571 1536h332q47 0 75 -29t28 -73v-1016h346l-615 -611l-614 611h346v1016q-1 46 27 74t75 28z" />
    <glyph glyph-name="uni21EA" unicode="&#x21ea;" horiz-adv-x="1474" 
d="M909 231h-344v-165h344v165zM565 608h344v578h219l-391 387l-391 -387h219v-578zM469 317h537v-239q0 -45 -28 -74t-75 -29h-332q-47 0 -75 29t-27 74v239zM1006 522h-537v572h-346l614 610l615 -610h-346v-572z" />
    <glyph glyph-name="partialdiff" unicode="&#x2202;" horiz-adv-x="1138" 
d="M547 672q-164 0 -164 -236q0 -108 46 -174t136 -66t127 93q37 92 39 254q-25 61 -75 95t-109 34zM454 909q171 0 269 -129l6 4q-47 176 -176 274t-377 159l70 223q442 -90 632 -302t189 -606q0 -246 -134 -406q-133 -160 -365 -161q-232 0 -372 131t-140 342t113 341
q114 130 285 130z" />
    <glyph glyph-name="Delta" unicode="&#x2206;" horiz-adv-x="1224" 
d="M604 1151l-223 -901h455l-222 901h-10zM-29 0l437 1419h411l434 -1419h-1282z" />
    <glyph glyph-name="product" unicode="&#x220f;" horiz-adv-x="1294" 
d="M801 1137h-293v-1557l-307 -35v1592h-140v247h1188v-247h-141v-1557l-307 -35v1592z" />
    <glyph glyph-name="summation" unicode="&#x2211;" horiz-adv-x="1091" 
d="M1001 246v-246h-942v236l412 454l-412 459v235h942v-245h-583l346 -375v-137l-346 -381h583z" />
    <glyph glyph-name="minus" unicode="&#x2212;" horiz-adv-x="1062" 
d="M979 526h-893v252h893v-252z" />
    <glyph glyph-name="uni2215" unicode="&#x2215;" horiz-adv-x="337" 
d="M686 1460l-831 -1640l-201 98l831 1643z" />
    <glyph glyph-name="uni2219" unicode="&#x2219;" horiz-adv-x="509" 
d="M70 673q0 77 54 131t131 54t131 -54t54 -131t-54 -132t-131 -55t-131 54q-54 56 -54 133z" />
    <glyph glyph-name="radical" unicode="&#x221a;" horiz-adv-x="1118" 
d="M1421 1542h-389l-432 -1542h-373l-346 944l303 92l213 -733h9l385 1487h630v-248z" />
    <glyph glyph-name="infinity" unicode="&#x221e;" horiz-adv-x="1843" 
d="M389 647q0 -101 43 -159t123 -58q156 0 254 250q-100 184 -250 184q-82 0 -126 -58t-44 -159zM1454 647q0 101 -43 159t-123 58q-154 0 -254 -252q106 -184 252 -184q80 0 124 58t44 161zM524 1112q258 0 410 -238q156 238 386 238t344 -135t114 -332t-115 -331
t-344 -134q-260 0 -412 238q-154 -238 -384 -238t-344 135q-113 135 -113 333t114 331q115 133 344 133z" />
    <glyph glyph-name="integral" unicode="&#x222b;" horiz-adv-x="948" 
d="M756 1526q-121 0 -121 -131v-1473q0 -182 -113 -279t-279 -97t-309 69l91 213q90 -41 176 -41q111 0 110 123v1474q1 178 105 280t274 101q170 0 324 -67l-90 -213q-92 41 -168 41z" />
    <glyph glyph-name="approxequal" unicode="&#x2248;" horiz-adv-x="1062" 
d="M698 260q-80 0 -146 30t-113 60q-48 30 -85 29q-38 -1 -64 -17t-39 -35t-34 -57l-180 97q127 256 328 256q79 0 145 -30q66 -29 115 -59t93 -30t70 26t58 82l180 -96q-123 -256 -328 -256zM698 688q-80 0 -146 30t-113 60q-48 30 -85 29q-69 0 -103 -52q-13 -19 -34 -57
l-180 95q127 258 328 258q79 0 145 -30q66 -31 115 -61t93 -30t70 26t58 84l180 -96q-123 -256 -328 -256z" />
    <glyph glyph-name="notequal" unicode="&#x2260;" horiz-adv-x="1062" 
d="M979 307h-541l-166 -278l-168 96l111 182h-129v250h279l110 188h-389v248h541l164 277l165 -92l-110 -185h133v-248h-281l-112 -188h393v-250z" />
    <glyph glyph-name="lessequal" unicode="&#x2264;" horiz-adv-x="1062" 
d="M893 362l-815 336v289l815 344l104 -227l-641 -260l641 -242zM979 0h-893v248h893v-248z" />
    <glyph glyph-name="greaterequal" unicode="&#x2265;" horiz-adv-x="1062" 
d="M172 1331l813 -344v-289l-813 -336l-106 238l641 244l-641 258zM979 0h-893v248h893v-248z" />
    <glyph glyph-name="dotmath" unicode="&#x22c5;" horiz-adv-x="509" 
d="M70 673q0 77 54 131t131 54t131 -54t54 -131t-54 -132t-131 -55t-131 54q-54 56 -54 133z" />
    <glyph glyph-name="uni2326" unicode="&#x2326;" horiz-adv-x="2867" 
d="M307 -25q-45 0 -74 29t-28 74v1280q0 47 28 75q29 28 74 27h1700l778 -739l-778 -746h-1700zM1030 727l-315 -315l137 -138l315 316l316 -316l137 138l-315 315l315 313l-137 142l-316 -318l-315 318l-137 -142z" />
    <glyph glyph-name="uni2327" unicode="&#x2327;" horiz-adv-x="2539" 
d="M2232 -25h-1925q-45 0 -74 29t-28 74v1280q0 47 28 75q29 28 74 27h1925q45 0 74 -28t29 -74v-1280q0 -45 -29 -74t-74 -29zM1133 727l-316 -315l137 -138l316 316l315 -316l137 138l-315 315l315 313l-137 142l-315 -318l-316 318l-137 -142z" />
    <glyph glyph-name="uni2328" unicode="&#x2328;" horiz-adv-x="2990" 
d="M2128 324h-1258q-16 0 -28 -12t-13 -29v-152q1 -17 13 -29t28 -12h1258q16 0 29 12q12 12 12 29v152q-1 17 -13 29t-28 12zM2210 662h-152q-16 0 -28 -12t-13 -29v-152q1 -17 13 -29t28 -12h152q16 0 28 12t13 29v152q-1 17 -13 29t-28 12zM1841 662h-151q-16 0 -28 -12
t-13 -29v-152q0 -17 12 -29t29 -12h151q16 0 29 12q12 12 12 29v152q0 17 -12 29t-29 12zM1473 662h-152q-17 0 -29 -12t-12 -29v-152q0 -17 12 -29t29 -12h152q16 0 28 12t12 29v152q0 17 -12 29t-28 12zM1104 662h-152q-16 0 -28 -12t-13 -29v-152q1 -17 13 -29t28 -12
h152q16 0 29 12q12 12 12 29v152q-1 17 -13 29t-28 12zM735 662h-151q-16 0 -28 -12t-13 -29v-152q0 -17 12 -29t29 -12h151q16 0 29 12q12 12 12 29v152q0 17 -12 29t-29 12zM2128 1010h-152q-16 0 -28 -12t-13 -29v-152q1 -17 13 -29t28 -12h152q16 0 29 12q12 12 12 29
v152q-1 17 -13 29t-28 12zM1759 1010h-151q-16 0 -28 -12t-13 -29v-152q0 -17 12 -29t29 -12h151q16 0 29 12q12 12 12 29v152q0 17 -12 29t-29 12zM1391 1010h-152q-17 0 -29 -12t-12 -29v-152q0 -17 12 -29t29 -12h152q16 0 28 12t13 29v152q0 17 -12 29t-29 12z
M1022 1010h-152q-16 0 -28 -12t-13 -29v-152q1 -17 13 -29t28 -12h152q16 0 29 12q12 12 12 29v152q-1 17 -13 29t-28 12zM653 1010h-151q-16 0 -28 -12t-13 -29v-152q0 -17 12 -29t29 -12h151q16 0 29 12q12 12 12 29v152q0 17 -12 29t-29 12zM2386 735v-266q0 -17 12 -29
t29 -12h110q16 0 29 12q12 12 12 29v500q0 16 -12 28t-29 13h-192q-17 0 -29 -12t-12 -29v-152q0 -17 12 -29t28 -12t30 -12q12 -13 12 -29zM2537 1348h-274q-17 0 -29 -12t-12 -29v-152q0 -17 12 -29t29 -12h274q16 0 29 12q12 12 12 29v152q0 17 -12 29t-29 12zM2046 1348
h-152q-16 0 -28 -12t-13 -29v-152q1 -17 13 -29t28 -12h152q16 0 29 12q12 12 12 29v152q-1 17 -13 29t-28 12zM1677 1348h-151q-16 0 -28 -12t-13 -29v-152q0 -17 12 -29t29 -12h151q16 0 29 12q12 12 12 29v152q0 17 -12 29t-29 12zM1309 1348h-152q-17 0 -29 -12t-12 -29
v-152q0 -17 12 -29t29 -12h152q16 0 28 12t13 29v152q0 17 -12 29t-29 12zM940 1348h-152q-16 0 -28 -12t-12 -29v-152q0 -17 12 -29t28 -12h152q16 0 29 12q12 12 12 29v152q-1 17 -13 29t-28 12zM571 1348h-151q-16 0 -28 -12t-13 -29v-152q0 -17 12 -29t29 -12h151
q16 0 29 12q12 12 12 29v152q0 17 -12 29t-29 12zM2642 -25h-2294q-45 0 -74 29t-28 74v1280q0 47 28 75q29 28 74 27h2294q45 0 74 -28t28 -74v-1280q0 -45 -28 -74t-74 -29z" />
    <glyph glyph-name="uni232B" unicode="&#x232b;" horiz-adv-x="2867" 
d="M2560 -25h-1700l-778 746l778 739h1700q45 0 74 -28t28 -74v-1280q0 -45 -28 -74t-74 -29zM2152 412l-315 315l315 313l-137 142l-315 -318l-316 318l-137 -142l316 -313l-316 -315l137 -138l316 316l315 -316z" />
    <glyph glyph-name="uni23CE" unicode="&#x23ce;" horiz-adv-x="2048" 
d="M1749 477v969h-344v-641h-805v227l-387 -391l387 -391v227h1149zM1313 897v537q-1 46 27 74t75 28h326q45 0 74 -29t28 -73v-945q-1 -47 -29 -75t-73 -27h-1049v-356l-610 610l610 612v-356h621z" />
    <glyph glyph-name="uni25AF" unicode="&#x25af;" horiz-adv-x="1206" 
d="M389 1223v-1035h436v1035h-436zM1014 0h-813v1411h813v-1411z" />
    <glyph glyph-name="lozenge" unicode="&#x25ca;" horiz-adv-x="1183" 
d="M772 0h-360l-371 692l371 692h360l369 -692zM588 236h8l219 458l-219 453h-8l-221 -453z" />
    <glyph glyph-name="uni27A1" unicode="&#x27a1;" horiz-adv-x="2048" 
d="M164 489v304q0 47 29 75t73 27h1090v360l610 -614l-610 -614v360h-1090q-46 -1 -74 27t-28 75z" />
    <glyph glyph-name="uni2B05" unicode="&#x2b05;" horiz-adv-x="2048" 
d="M1884 793v-304q0 -47 -29 -75t-73 -27h-1090v-360l-610 614l610 614v-360h1090q46 1 74 -27t28 -75z" />
    <glyph glyph-name="uni2B06" unicode="&#x2b06;" horiz-adv-x="1474" 
d="M903 -25h-332q-47 0 -75 29t-27 74v1016h-346l614 610l615 -610h-346v-1016q0 -45 -28 -74t-75 -29z" />
    <glyph glyph-name="uni2B07" unicode="&#x2b07;" horiz-adv-x="1474" 
d="M571 1536h332q47 0 75 -29t28 -73v-1016h346l-615 -611l-614 611h346v1016q-1 46 27 74t75 28z" />
    <glyph glyph-name="uniE000" unicode="&#xe000;" horiz-adv-x="0" 
d="M1653 1004q-70 0 -158 71l37 2l108 -41l82 -6l-10 -16q-25 -10 -59 -10zM1026 1160q0 -50 6 -77h-12q-78 55 -78 129q-42 -14 -74 -49l-12 -10l-8 8q51 178 237 178l82 -10l-10 -14l-104 -53q-27 -52 -27 -102zM1233 1120v4l-55 70l2 8q94 -31 161 -102l-2 -8
q-10 -2 -82 -15v-8l56 -100l-6 -6q-86 18 -152 18l-162 -12l-12 6q66 57 176 78v6l-63 35l2 8q94 18 137 18zM2349 664q-1 100 -31 100q-14 0 -14 -22t4 -64h-12q-64 74 -64 101t30 59t30 49q-6 9 -38 28t-60 28q-27 9 -50 17t-38 15q-15 6 -43 15q-205 66 -347 186l-8 -2
l90 -109l-4 -10q-137 0 -215 37t-78 91t90 77l4 8q-3 4 -39 4t-75 -22t-39 -70t41 -97h-25q-30 16 -52 47t-30 54l-6 22l-158 27l5 10q297 117 391 117q51 0 78 -17h10q-35 59 -92 60q-92 0 -340 -88l-13 2q6 39 47 72l-2 8q-129 47 -227 47q-185 0 -308 -121
q-100 -98 -130 -156l4 -6q66 18 117 25l2 -10q-127 -92 -127 -267q0 -57 14 -102l-8 -8q-31 23 -62 108h-4q-8 -29 -14 -80l-10 -2l-21 33q-8 -4 -8 -43q0 -98 57 -194q11 -16 63 -84t52 -102t-28 -81t-27 -75l6 -31q100 2 141 8l8 -8q-25 -37 -239 -137l12 -11l176 39
l6 -10l-131 -78q115 -96 274 -149t267 -54v5q-45 49 -86 135l8 8l125 -82q18 31 31 57q-41 31 -86 86t-56 90l9 7q31 -25 90 -55t84 -29q14 41 14 88l35 53q0 2 -1 2h-11q-11 0 -53 -19t-66 -40l-12 2q0 80 133 157v11l-80 32q-23 12 -76 89t-53 137l20 -7
q127 -147 299 -169q35 2 160 32t143 37q50 -27 150 -63t135 -43q40 5 96 41q-37 29 -77 39q-142 35 -244 73q-168 59 -215 140h-6q-2 -6 -2 -16q0 -46 49 -85q4 -4 17 -15t15 -14l-2 -8q-78 7 -123 27q-147 65 -147 217q0 72 29 164h10l10 -113l39 -65q37 49 37 90t-37 78
l-108 122l6 7l102 -43q154 -127 330 -241t284 -142t222 -39l39 -4q18 41 18 82zM1589 1491q113 0 167 -71t54 -134l-6 -47q61 -70 185 -123q57 -26 145 -58t134 -49t88 -45t51 -57t11 -81q3 -52 6 -76t10 -60t7 -54t-48 -126t-73 -117q-12 -6 -43 -6t-43 6q-41 -33 -101 -67
q-59 -34 -109 -35t-163 31t-151 32q-62 0 -141 -42t-123 -76q-45 -34 -75 -134q-9 -34 -25 -122t-41 -125q20 -49 20 -78q-57 -8 -129 -8q-378 0 -660 247q-73 63 -106 105l-33 41l107 57q-49 2 -70 4l-4 15q20 27 105 81q-70 -23 -160 -67l-8 16q23 80 82 148l-154 -107
l-8 15q41 123 153 227l-239 -123l-6 16q57 131 196 256q0 7 -248 -114l-6 16q43 74 118 142t124 94q-268 -100 -287 -107l-6 14q90 117 352 310l-301 -76l-2 16q270 270 573 451q182 110 357 108q59 0 201 -46t153 -46q96 29 170 29z" />
    <glyph glyph-name="uniE001" unicode="&#xe001;" horiz-adv-x="0" 
d="M1722 1030l-82 6l-108 41l-37 -2q88 -72 158 -71q35 0 59 10zM1026 1160q0 50 27 102l104 53l10 14q-33 10 -82 10q-186 0 -237 -178l8 -8q43 45 86 59q0 -74 78 -129h12q-6 27 -6 77zM993 969q72 12 142 12t147 -14l25 -4l6 6l-56 100v8q72 12 82 15l2 8q-67 71 -137 92
l-24 10l-2 -8l55 -70v-4l-137 -18l-2 -8l63 -35v-6q-110 -21 -176 -78zM2304 742q0 22 14 22t22 -30t9 -64q0 -34 -18 -88q-143 14 -256 43t-289 143t-330 240l-102 43l-6 -7l108 -122q37 -37 37 -78t-37 -90l-39 65l-10 113h-10q-29 -92 -29 -140t4 -68q18 -95 116 -159
l44 -22q59 -14 106 -19l2 8q-4 2 -13 12t-14 13q-54 43 -54 90q0 8 2 15h6q63 -107 356 -186q63 -17 102 -25t78 -41q-57 -37 -96 -41q-35 6 -135 43t-150 63q-18 -8 -143 -38t-160 -31q-172 23 -299 169l-20 7q0 -58 53 -136t76 -90l80 -32v-11q-133 -78 -133 -157l12 -2
q24 20 66 40t52 19h12q1 0 1 -2l-35 -53q0 -47 -14 -88q-25 0 -84 30t-90 54l-9 -7q9 -35 55 -90t87 -86l-31 -57q-86 53 -125 82l-8 -8q41 -86 86 -135v-5q-109 0 -267 54t-274 149l131 78l-6 10l-176 -39l-12 11q215 100 239 137l-8 8l-141 -8q-6 4 -6 32q-1 28 27 74
t28 83q0 36 -86 144q-86 109 -86 234q0 12 4 41l4 2l21 -33l10 2q6 51 14 80h4q31 -86 62 -108l8 8q-14 45 -14 102q0 174 127 267l-2 10q-53 -6 -117 -25l-4 6q30 58 130 156q123 121 309 121q98 0 226 -47l2 -8q-41 -33 -47 -72l13 -2q248 88 340 88q57 0 92 -60h-10
q-27 16 -78 17q-94 0 -391 -117l-5 -10l158 -27q23 -84 88 -123h25q-41 47 -41 97t39 70q39 22 75 22t39 -4l-4 -8q-90 -23 -90 -77t78 -91t215 -37l4 10l-90 109l8 2q133 -114 347 -186q28 -10 43 -15q15 -6 38 -14q122 -42 148 -74q0 -18 -30 -49t-30 -59t64 -101h12
q-4 42 -4 64z" />
    <glyph glyph-name="uniE002" unicode="&#xe002;" horiz-adv-x="0" 
d="M1669 1106q-10 0 -31 4q27 10 27 39v12q23 -20 43 -51q-29 -4 -39 -4zM1931 588q0 6 8 14q23 -4 39 -16l-45 -49q-2 45 -2 51zM1577 1149q0 -6 4 -14q-31 25 -35 63q39 0 62 -6q-31 -12 -31 -43zM1860 633q39 0 45 -21l-50 -47q1 52 5 68zM2177 519q0 17 12 18
q25 0 41 -9q0 -8 -18 -27t-29 -24q-6 25 -6 42zM2011 575l53 -10q-31 -49 -55 -55q2 57 2 65zM2093 555q31 -4 57 -10q-8 -29 -49 -62zM2294 524q14 0 14 -16t-31 -49l-10 -13l-6 78h33zM1769 638q0 20 13 34q33 0 51 -25l-61 -45q-3 16 -3 36z" />
    <glyph glyph-name="uniE003" unicode="&#xe003;" horiz-adv-x="2527" 
d="M1665 1149q0 -29 -27 -39q20 -4 30 -4t40 4q-20 31 -43 51v-12zM1577 1149q0 31 31 43q-23 6 -62 6q4 -39 35 -63q-4 8 -4 14zM1931 586l2 -49q33 33 45 49q-16 12 -39 16q-8 -8 -8 -16zM1860 633l-5 -68q39 37 50 47q-6 21 -45 21zM2177 519q0 -17 6 -42q11 3 29 23
t18 28q-16 8 -41 9q-12 -1 -12 -18zM2011 575l-2 -65q21 4 55 55q-26 6 -53 10zM2308 510q0 14 -14 14h-33l6 -78q41 50 41 64zM2093 555q4 -49 8 -72q41 33 49 62zM1769 631l3 -29l61 45q-18 25 -51 25q-13 -14 -13 -41zM1653 1004q-70 0 -158 71l37 2l108 -41l82 -6
l-10 -16q-25 -10 -59 -10zM1026 1160q0 -50 6 -77h-12q-78 55 -78 129q-42 -14 -74 -49l-12 -10l-8 8q51 178 237 178l82 -10l-10 -14l-104 -53q-27 -52 -27 -102zM1233 1120v4l-55 70l2 8q94 -31 161 -102l-2 -8q-10 -2 -82 -15v-8l56 -100l-6 -6q-86 18 -152 18l-162 -12
l-12 6q66 57 176 78v6l-63 35l2 8q94 18 137 18zM2349 664q-1 100 -31 100q-14 0 -14 -22t4 -64h-12q-64 74 -64 101t30 59t30 49q-6 9 -38 28t-60 28q-27 9 -50 17t-38 15q-15 6 -43 15q-205 66 -347 186l-8 -2l90 -109l-4 -10q-137 0 -215 37t-78 91t90 77l4 8q-3 4 -39 4
t-75 -22t-39 -70t41 -97h-25q-30 16 -52 47t-30 54l-6 22l-158 27l5 10q297 117 391 117q51 0 78 -17h10q-35 59 -92 60q-92 0 -340 -88l-13 2q6 39 47 72l-2 8q-129 47 -227 47q-185 0 -308 -121q-100 -98 -130 -156l4 -6q66 18 117 25l2 -10q-127 -92 -127 -267
q0 -57 14 -102l-8 -8q-31 23 -62 108h-4q-8 -29 -14 -80l-10 -2l-21 33q-8 -4 -8 -43q0 -98 57 -194q11 -16 63 -84t52 -102t-28 -81t-27 -75l6 -31q100 2 141 8l8 -8q-25 -37 -239 -137l12 -11l176 39l6 -10l-131 -78q115 -96 274 -149t267 -54v5q-45 49 -86 135l8 8
l125 -82q18 31 31 57q-41 31 -86 86t-56 90l9 7q31 -25 90 -55t84 -29q14 41 14 88l35 53q0 2 -1 2h-11q-11 0 -53 -19t-66 -40l-12 2q0 80 133 157v11l-80 32q-23 12 -76 89t-53 137l20 -7q127 -147 299 -169q35 2 160 32t143 37q50 -27 150 -63t135 -43q40 5 96 41
q-37 29 -77 39q-142 35 -244 73q-168 59 -215 140h-6q-2 -6 -2 -16q0 -46 49 -85q4 -4 17 -15t15 -14l-2 -8q-78 7 -123 27q-147 65 -147 217q0 72 29 164h10l10 -113l39 -65q37 49 37 90t-37 78l-108 122l6 7l102 -43q154 -127 330 -241t284 -142t222 -39l39 -4
q18 41 18 82zM1589 1491q113 0 167 -71t54 -134l-6 -47q61 -70 185 -123q57 -26 145 -58t134 -49t88 -45t51 -57t11 -81q3 -52 6 -76t10 -60t7 -54t-48 -126t-73 -117q-12 -6 -43 -6t-43 6q-41 -33 -101 -67q-59 -34 -109 -35t-163 31t-151 32q-62 0 -141 -42t-123 -76
q-45 -34 -75 -134q-9 -34 -25 -122t-41 -125q20 -49 20 -78q-57 -8 -129 -8q-378 0 -660 247q-73 63 -106 105l-33 41l107 57q-49 2 -70 4l-4 15q20 27 105 81q-70 -23 -160 -67l-8 16q23 80 82 148l-154 -107l-8 15q41 123 153 227l-239 -123l-6 16q57 131 196 256
q0 7 -248 -114l-6 16q43 74 118 142t124 94q-268 -100 -287 -107l-6 14q90 117 352 310l-301 -76l-2 16q270 270 573 451q182 110 357 108q59 0 201 -46t153 -46q96 29 170 29z" />
    <glyph glyph-name="fi" unicode="&#xfb01;" horiz-adv-x="1226" 
d="M1102 0h-328v860h-274v-860h-328v860h-168v227h168v93q0 170 112 272t325 102t380 -81l-92 -209q-117 51 -220 51t-140 -33t-37 -115v-80h602v-1087z" />
    <glyph glyph-name="fl" unicode="&#xfb02;" horiz-adv-x="1296" 
d="M1086 -35q-123 0 -202 80t-79 229v1024q-76 20 -158 20t-115 -35q-33 -36 -32 -116v-80h207l-35 -227h-172v-860h-328v860h-168v227h168v93q0 166 113 270t327 104q111 0 260 -38l261 36v-1245q0 -84 55 -84q22 1 55 13l62 -234q-96 -37 -219 -37z" />
    <glyph glyph-name="uniFEFF" unicode="&#xfeff;" horiz-adv-x="0" 
 />
    <glyph glyph-name="u1F310" unicode="&#x1f310;" horiz-adv-x="2457" 
d="M1884 1329q-182 207 -448 273q156 -168 239 -373q117 39 209 100zM571 168q184 -207 451 -270q-152 162 -240 372q-129 -47 -211 -102zM1436 -102q266 66 448 270q-80 55 -209 102q-83 -204 -239 -372zM1022 1602q-268 -66 -451 -273q96 -61 211 -100q88 211 240 373z
M1149 -123q16 0 27 -2v471q-156 -6 -306 -49q97 -225 279 -420zM1176 1624q-10 -2 -27 -2q-184 -197 -279 -422q164 -43 306 -49v473zM1278 -125q10 2 31 2q186 203 276 420q-150 43 -307 49v-471zM1309 1622q-20 0 -31 2v-473q143 6 307 49q-88 217 -276 422zM1176 702
h-394q7 -163 58 -325q174 49 336 55v270zM1176 797v268q-174 10 -336 55q-51 -158 -58 -323h394zM1278 702v-270q172 -6 338 -55q51 152 57 325h-395zM1278 797h395q-6 176 -57 323q-178 -49 -338 -55v-268zM1939 238q147 207 162 464h-334q-6 -182 -63 -352
q137 -49 235 -112zM356 702q12 -256 160 -464q100 63 236 112q-57 180 -64 352h-332zM2101 797q-16 260 -162 463q-102 -63 -235 -111q57 -170 63 -352h334zM516 1260q-147 -205 -160 -463h332q6 172 64 352q-132 48 -236 111zM2200 750q0 -404 -284 -690t-687 -286
t-687 286t-284 690t284 689t687 285t687 -286t284 -688z" />
    <glyph glyph-name="i.latn_TRK" horiz-adv-x="575" 
d="M451 0h-328v1087h328v-1087zM481 1475q0 -81 -54 -133t-139 -52t-140 52q-54 52 -54 132t54 133q54 52 140 52t139 -52q54 -52 54 -132z" />
    <glyph glyph-name="Ldot.latn_CAT" horiz-adv-x="1048" 
d="M1008 774q0 -80 -54 -132t-140 -52q-85 0 -139 52t-54 132t54 132t139 52q86 0 140 -52t54 -132zM133 0v1419h340v-1151h555l-37 -268h-858z" />
    <glyph glyph-name="ldot.latn_CAT" horiz-adv-x="911" 
d="M926 754q0 -80 -54 -132t-140 -52q-85 0 -139 52t-54 132t54 132t139 52q86 0 140 -52t54 -132zM392 -35q-124 0 -202 81t-77 237v1237l327 34v-1247q0 -84 56 -84q28 0 53 10l63 -231q-96 -37 -220 -37z" />
    <glyph glyph-name="parenleft.numr" horiz-adv-x="819" 
d="M444 963q0 -332 160 -576l-145 -96q-121 168 -184 315q-62 146 -62 356t62 358t184 314l145 -96q-160 -243 -160 -575z" />
    <glyph glyph-name="parenright.numr" horiz-adv-x="819" 
d="M373 963q0 332 -160 575l145 96q122 -166 184 -314t62 -357t-62 -357t-184 -315l-145 96q160 244 160 576z" />
    <glyph glyph-name="plus.numr" horiz-adv-x="819" 
d="M123 1069h182v186h209v-186h182v-178h-182v-184h-209v184h-182v178z" />
    <glyph glyph-name="zero.numr" horiz-adv-x="819" 
d="M752 1006q0 -453 -342 -453t-342 455q0 222 88 336t256 114q340 1 340 -452zM508 1010q0 162 -22 220t-74 58t-77 -62q-24 -62 -24 -218t25 -221t75 -65q49 0 73 64q24 62 24 224z" />
    <glyph glyph-name="one.numr" horiz-adv-x="819" 
d="M614 567h-233v637l-180 -100l-109 156l324 182h198v-875z" />
    <glyph glyph-name="two.numr" horiz-adv-x="819" 
d="M709 1202q0 -104 -77 -204t-267 -253h376l-26 -178h-625v158q215 193 294 289t79 152t-28 82t-73 26q-76 0 -143 -84l-147 113q131 156 327 155q143 0 227 -76t83 -180z" />
    <glyph glyph-name="three.numr" horiz-adv-x="819" 
d="M725 823q0 -119 -95 -195q-94 -76 -280 -75q-186 0 -309 135l133 121q84 -84 176 -84q63 0 99 31q35 31 34 80q0 113 -139 112h-84l29 162h59q111 0 111 88q-1 88 -99 88t-180 -74l-119 125q137 121 305 121t248 -64q82 -64 82 -167q0 -139 -161 -187v-8q86 -14 138 -72
t52 -137z" />
    <glyph glyph-name="four.numr" horiz-adv-x="819" 
d="M760 741h-96v-174h-228v174h-377v156l232 563l196 -67l-186 -478h137l33 197h193v-197h96v-174z" />
    <glyph glyph-name="five.numr" horiz-adv-x="819" 
d="M467 1147q121 0 191 -75t69 -211q0 -136 -95 -222t-253 -86q-199 0 -320 141l138 113q72 -78 143 -78t107 37t36 96t-28 91q-29 32 -72 32t-94 -29h-168v486h567l-26 -166h-312v-158q57 29 117 29z" />
    <glyph glyph-name="six.numr" horiz-adv-x="819" 
d="M432 999q-61 0 -110 -59q0 -223 104 -223q92 0 92 141t-86 141zM486 1292q-64 0 -110 -53t-59 -160q78 78 187 78q108 0 182 -76t74 -213t-92 -226t-258 -89t-252 115q-86 114 -86 318t111 338q112 134 302 134q115 1 209 -65l-92 -136q-52 35 -116 35z" />
    <glyph glyph-name="seven.numr" horiz-adv-x="819" 
d="M94 1266v176h627v-144l-348 -753l-221 67l327 654h-385z" />
    <glyph glyph-name="eight.numr" horiz-adv-x="819" 
d="M498 1223q0 80 -88 80t-88 -77t106 -116q70 45 70 113zM526 818q0 46 -36 76t-111 54q-86 -51 -86 -125q0 -49 32 -77t87 -28t85 27q29 27 29 73zM729 1226q0 -110 -149 -184q184 -66 184 -221q0 -115 -91 -191t-265 -77q-174 0 -264 71q-89 71 -89 189q0 145 181 211
q-145 63 -146 199q0 111 88 173t234 62t232 -61q85 -61 85 -171z" />
    <glyph glyph-name="nine.numr" horiz-adv-x="819" 
d="M389 1032q66 0 111 53q0 121 -24 164t-77 43q-100 0 -100 -130t90 -130zM57 1158q1 134 99 217t256 83t244 -96t87 -258q0 -240 -135 -370t-436 -199l-49 165q152 38 245 94t136 152l-6 4q-68 -74 -180 -74t-186 74t-75 208z" />
    <glyph glyph-name="equal.numr" horiz-adv-x="819" 
d="M696 1030h-573v176h573v-176zM696 756h-573v176h573v-176z" />
    <glyph glyph-name="minus.numr" horiz-adv-x="819" 
d="M696 893h-573v178h573v-178z" />
    <glyph glyph-name="parenleft.dnom" horiz-adv-x="819" 
d="M444 396q0 -333 160 -576l-145 -96q-121 168 -184 315q-62 147 -62 356t62 357t184 315l145 -96q-160 -242 -160 -575z" />
    <glyph glyph-name="parenright.dnom" horiz-adv-x="819" 
d="M373 396q0 333 -160 575l145 96q122 -166 184 -314q62 -147 62 -357t-62 -357t-184 -315l-145 96q160 243 160 576z" />
    <glyph glyph-name="plus.dnom" horiz-adv-x="819" 
d="M123 502h182v186h209v-186h182v-178h-182v-185h-209v185h-182v178z" />
    <glyph glyph-name="zero.dnom" horiz-adv-x="819" 
d="M412 891q340 0 340 -453t-340 -452q-344 0 -344 454q0 221 88 336t256 115zM311 440q0 -156 25 -220t75 -64q49 0 73 62t24 224t-22 220t-74 59q-52 -1 -77 -63q-24 -62 -24 -218z" />
    <glyph glyph-name="one.dnom" horiz-adv-x="819" 
d="M614 0h-233v637l-180 -100l-109 155l324 182h198v-874z" />
    <glyph glyph-name="two.dnom" horiz-adv-x="819" 
d="M399 891q143 0 227 -76t83 -180q0 -105 -77 -205t-267 -252h376l-26 -178h-625v158q215 192 294 288t79 152t-28 82q-28 27 -73 27q-76 0 -143 -84l-147 112q131 156 327 156z" />
    <glyph glyph-name="three.dnom" horiz-adv-x="819" 
d="M725 256q0 -119 -95 -195t-263 -75q-203 0 -326 135l133 121q84 -84 176 -84q63 0 99 30q35 31 34 80q0 113 -139 113h-84l29 162h59q111 0 111 88q-1 88 -99 88t-180 -74l-119 125q137 121 305 121t248 -65q82 -65 82 -167q0 -139 -161 -186v-8q86 -13 138 -71t52 -138z
" />
    <glyph glyph-name="four.dnom" horiz-adv-x="819" 
d="M760 174h-96v-174h-228v174h-377v156l232 563l196 -68l-186 -477h137l33 197h193v-197h96v-174z" />
    <glyph glyph-name="five.dnom" horiz-adv-x="819" 
d="M467 580q121 0 191 -75t69 -211q0 -136 -95 -222t-253 -86q-199 0 -320 141l138 113q72 -78 143 -78t107 37t36 96t-28 91q-29 32 -72 32t-94 -29h-168v485h567l-26 -165h-312v-158q57 29 117 29z" />
    <glyph glyph-name="six.dnom" horiz-adv-x="819" 
d="M432 432q-61 0 -110 -59q0 -223 104 -223q92 0 92 141t-86 141zM486 725q-64 0 -110 -53t-59 -160q78 78 187 78q108 0 182 -76t74 -213t-92 -226t-258 -89t-252 114t-86 318t111 339q112 134 302 134q115 0 209 -66l-92 -135q-52 35 -116 35z" />
    <glyph glyph-name="seven.dnom" horiz-adv-x="819" 
d="M94 698v176h627v-143l-348 -754l-221 68l327 653h-385z" />
    <glyph glyph-name="eight.dnom" horiz-adv-x="819" 
d="M498 655q0 80 -88 80t-88 -77t106 -115q70 45 70 112zM526 251q0 46 -36 76t-111 54q-86 -49 -86 -125q0 -49 32 -77q32 -27 87 -27t85 26q29 27 29 73zM729 658q0 -110 -149 -183q184 -66 184 -221q0 -115 -91 -192q-91 -76 -265 -76t-264 70q-89 71 -89 190
q0 145 181 211q-145 63 -146 198q0 111 88 173t234 62t232 -60q85 -62 85 -172z" />
    <glyph glyph-name="nine.dnom" horiz-adv-x="819" 
d="M389 465q66 0 111 53q0 121 -24 164t-77 43q-100 0 -100 -130t90 -130zM318 309q-112 0 -186 74t-75 208q1 134 99 217t256 83t244 -96t87 -258q0 -240 -135 -370t-436 -200l-49 166q152 37 245 93t136 153l-6 4q-68 -74 -180 -74z" />
    <glyph glyph-name="equal.dnom" horiz-adv-x="819" 
d="M696 461h-573v176h573v-176zM696 186h-573v176h573v-176z" />
    <glyph glyph-name="minus.dnom" horiz-adv-x="819" 
d="M696 324h-573v178h573v-178z" />
    <glyph glyph-name="space.frac" horiz-adv-x="81" 
 />
    <glyph glyph-name="numbersign.osf" horiz-adv-x="1128" 
d="M494 893l-50 -383h193l49 383h-192zM1108 893h-152l-49 -383h127v-215h-155l-39 -295h-271l39 295h-192l-39 -295h-271l37 295h-120v215h151l49 383h-129v215h158l37 276h270l-37 -276h193l37 276h272l-39 -276h123v-215z" />
    <glyph glyph-name="dollar.osf" horiz-adv-x="1120" 
d="M1102 408q0 -172 -109 -286t-305 -142v-310h-239v303q-283 29 -449 199l170 190q160 -143 362 -143q102 0 164 44t62 117t-52 112q-52 40 -242 100t-289 158t-99 252t102 255q102 102 273 134v311h237v-303q231 -23 391 -176l-157 -179q-135 117 -306 117q-90 0 -144 -34
t-54 -95t54 -100q54 -38 242 -100t288 -157t100 -267z" />
    <glyph glyph-name="percent.osf" horiz-adv-x="1779" 
d="M1333 702q157 0 261 -101t104 -268t-104 -267t-261 -100q-158 0 -262 100q-104 102 -104 268t104 267t262 101zM1200 333q0 -173 131 -173t131 173t-131 173t-131 -173zM811 1044q0 -166 -103 -267q-104 -101 -262 -101t-261 101t-103 267t103 268t261 101
q158 0 262 -101q103 -102 103 -268zM313 1044q0 -174 132 -174t133 174q0 174 -132 175q-133 -1 -133 -175zM1468 1348l-950 -1428l-201 125l949 1428z" />
    <glyph glyph-name="plus.osf" horiz-adv-x="1062" 
d="M86 778h309v320h273v-320h309v-254h-309v-319h-273v319h-309v254z" />
    <glyph glyph-name="zero.osf" horiz-adv-x="1273" 
d="M1225 582q0 -278 -161 -447q-161 -170 -427 -170t-427 170q-161 169 -161 447t158 444t430 166t430 -166t158 -444zM638 203q114 0 188 91t73 289q0 199 -74 285q-75 86 -189 86t-188 -86t-73 -285q0 -198 74 -289q75 -91 189 -91z" />
    <glyph glyph-name="one.osf" horiz-adv-x="911" 
d="M760 0h-320v860l-284 -166l-140 215l453 277h291v-1186z" />
    <glyph glyph-name="two.osf" horiz-adv-x="1069" 
d="M969 815q0 -104 -38 -179q-78 -153 -478 -390h540l-32 -246h-906v231q258 177 377 273t161 156t42 132t-46 114t-124 42q-137 0 -254 -135l-193 150q188 229 482 229q213 0 341 -108t128 -269z" />
    <glyph glyph-name="three.osf" horiz-adv-x="1067" 
d="M1004 155q0 -169 -140 -289t-389 -120q-307 0 -479 213l182 166q125 -135 277 -135q98 0 156 53t59 145q0 213 -228 213h-116l39 217h77q92 0 146 44t55 126q0 82 -51 124t-135 42q-145 0 -271 -118l-163 168q199 188 471 188q219 0 342 -98t122 -252q0 -123 -72 -205
t-194 -113v-8q132 -16 222 -104t90 -257z" />
    <glyph glyph-name="four.osf" horiz-adv-x="1153" 
d="M1108 57h-150v-284h-307v284h-596v213l391 924l275 -102l-332 -793h262l37 332h270v-332h150v-242z" />
    <glyph glyph-name="five.osf" horiz-adv-x="1118" 
d="M631 694q175 0 289 -122t114 -336t-148 -352t-397 -138q-295 0 -464 213l188 166q104 -135 258 -135q111 0 169 66t58 186q0 230 -194 229q-74 0 -160 -49h-223v741h846l-39 -231h-498v-283q96 45 201 45z" />
    <glyph glyph-name="six.osf" horiz-adv-x="1157" 
d="M618 707q-113 0 -202 -107q4 -219 46 -310t134 -91q178 0 178 270q0 129 -39 183t-117 55zM713 932q169 0 279 -122t110 -338t-137 -361t-365 -146q-266 0 -395 178t-129 510t166 546t444 214q174 0 307 -92l-125 -199q-78 58 -184 58t-180 -98t-88 -277q127 127 297 127
z" />
    <glyph glyph-name="seven.osf" horiz-adv-x="958" 
d="M12 915v248h899v-221l-501 -1206l-297 96l456 1083h-557z" />
    <glyph glyph-name="eight.osf" horiz-adv-x="1196" 
d="M430 1035q0 -75 50 -123t161 -87q121 82 121 213q0 70 -43 112t-120 42t-123 -41t-46 -116zM805 387q-1 86 -61 133t-218 103q-137 -82 -137 -238q0 -86 56 -136q55 -50 153 -50t153 51q54 51 54 137zM1079 1045q0 -180 -221 -302q274 -135 275 -368q1 -174 -145 -292
t-394 -118t-390 116t-143 288q0 233 256 344q-203 121 -202 327q0 168 138 270t349 103q211 0 344 -94t133 -274z" />
    <glyph glyph-name="nine.osf" horiz-adv-x="1157" 
d="M539 498q123 0 206 112q0 190 -42 272t-136 83q-94 -1 -146 -61t-52 -173q0 -233 170 -233zM440 272q-168 0 -280 119t-113 328q1 209 147 341t380 132t367 -148q134 -148 134 -389q0 -409 -203 -617t-659 -302l-68 229q260 66 404 163q143 97 184 259l-6 4
q-119 -119 -287 -119z" />
    <glyph glyph-name="less.osf" horiz-adv-x="1062" 
d="M893 197l-815 354v287l815 356l104 -227l-641 -273l641 -258z" />
    <glyph glyph-name="equal.osf" horiz-adv-x="1062" 
d="M979 739h-893v254h893v-254zM979 307h-893v254h893v-254z" />
    <glyph glyph-name="greater.osf" horiz-adv-x="1062" 
d="M172 1194l813 -356v-287l-813 -354l-106 237l641 260l-641 271z" />
    <glyph glyph-name="asciitilde.osf" horiz-adv-x="1062" 
d="M698 473q-124 0 -203 60t-129 60q-81 2 -115 -51q-13 -19 -34 -57l-180 95q129 258 328 258q79 0 145 -30t115 -60t93 -29t70 27t58 81l180 -96q-125 -258 -328 -258z" />
    <glyph glyph-name="cent.osf" horiz-adv-x="1005" 
d="M615 223q100 0 208 80l148 -209q-119 -94 -264 -119v-305h-236v312q-197 39 -303 185q-106 145 -106 369t109 378q110 154 302 194v309h234v-305q147 -25 264 -123l-142 -196q-98 80 -206 79q-219 0 -220 -335q0 -172 56 -243t156 -71z" />
    <glyph glyph-name="sterling.osf" horiz-adv-x="1140" 
d="M221 985q0 190 122 309t343 119q270 0 418 -209l-201 -145q-78 111 -190 110q-88 0 -129 -51t-41 -162v-155h372v-168h-372v-133q0 -178 -119 -244v-8h641l-37 -248h-977v236q120 32 149 103q15 40 18 72t3 95v127h-151v168h151v184z" />
    <glyph glyph-name="currency.osf" 
d="M575 473q197 0 197 227q0 109 -50 167q-50 59 -148 59t-148 -60q-51 -60 -51 -167q0 -108 51 -167t149 -59zM574 252q-140 0 -242 57l-164 -164l-145 146l163 166q-63 102 -63 243t61 244l-161 164l145 145l166 -166q98 59 239 59t242 -59l164 164l145 -145l-159 -162
q65 -109 65 -245t-67 -244l161 -162l-145 -143l-164 159q-101 -57 -241 -57z" />
    <glyph glyph-name="yen.osf" horiz-adv-x="1179" 
d="M156 721h190l-350 663h348l248 -565h8l244 565h338l-348 -663h194v-168h-274v-143h274v-170h-274v-240h-326v240h-272v170h272v143h-272v168z" />
    <glyph glyph-name="section.osf" horiz-adv-x="1101" 
d="M381 655q0 -63 51 -94t242 -96q49 61 49 119t-55 94q-55 35 -244 96q-43 -56 -43 -119zM94 610q0 152 162 254q-111 88 -111 225t122 229t335 93q213 0 383 -115l-115 -188q-122 78 -268 78t-145 -90q0 -51 43 -80q42 -29 198 -78t233 -118t77 -193q0 -152 -156 -250
q109 -84 109 -226q0 -143 -125 -233t-343 -90t-387 115l111 200q135 -88 283 -88t149 88q0 49 -44 80q-45 31 -201 80t-233 117t-77 190z" />
    <glyph glyph-name="logicalnot.osf" horiz-adv-x="1062" 
d="M979 778v-567h-272v315h-621v252h893z" />
    <glyph glyph-name="degree.osf" horiz-adv-x="1036" 
d="M446 758q-143 0 -255 97q-111 97 -111 254t111 252q112 95 255 95t254 -96t111 -252t-111 -253t-254 -97zM446 950q63 0 103 43q39 43 39 115t-39 116t-104 44t-103 -43t-37 -115q0 -72 39 -116t102 -44z" />
    <glyph glyph-name="plusminus.osf" horiz-adv-x="1062" 
d="M979 0h-893v246h893v-246zM979 555h-311v-207h-273v207h-309v248h309v321h273v-321h311v-248z" />
    <glyph glyph-name="multiply.osf" horiz-adv-x="1062" 
d="M117 385l239 236l-239 235l180 180l235 -239l234 239l180 -180l-237 -235l237 -236l-180 -180l-234 239l-235 -239z" />
    <glyph glyph-name="divide.osf" horiz-adv-x="1062" 
d="M344 1093q0 77 55 131t133 54t132 -55t55 -131q0 -76 -55 -130q-54 -54 -132 -54t-133 54t-55 131zM344 213q0 78 55 132t133 54t132 -54t55 -132q0 -78 -54 -132q-55 -54 -133 -54t-133 54t-55 132zM979 526h-893v252h893v-252z" />
    <glyph glyph-name="figuredash.osf" 
d="M1122 526h-1097v254h1097v-254z" />
    <glyph glyph-name="dagger.osf" horiz-adv-x="1196" 
d="M1030 834h-338v-834h-307v834h-338v264h338v293h307v-293h338v-264z" />
    <glyph glyph-name="daggerdbl.osf" horiz-adv-x="1196" 
d="M1030 834h-338v-273h338v-266h-338v-295h-307v295h-338v266h338v273h-338v264h338v293h307v-293h338v-264z" />
    <glyph glyph-name="perthousand.osf" horiz-adv-x="2533" 
d="M1333 702q157 0 261 -101t104 -268t-104 -267t-261 -100q-158 0 -262 100q-104 102 -104 268t104 267t262 101zM1200 333q0 -173 131 -173t131 173t-131 173t-131 -173zM811 1044q0 -166 -103 -267q-104 -101 -262 -101t-261 101t-103 267t103 268t261 101
q158 0 262 -101q103 -102 103 -268zM313 1044q0 -174 132 -174t133 174q0 174 -132 175q-133 -1 -133 -175zM1468 1348l-950 -1428l-201 125l949 1428zM2478 333q0 -167 -103 -267t-261 -100t-262 100q-104 102 -105 268q0 166 104 267q105 101 263 101t261 -101t103 -268z
M2114 506q-134 0 -134 -173t134 -173q129 0 129 173t-129 173z" />
    <glyph glyph-name="Euro.osf" horiz-adv-x="1208" 
d="M520 764v-146h424l-43 -169h-360q27 -129 95 -188q69 -58 185 -58q160 0 299 94v-256q-158 -76 -323 -76q-240 0 -388 125t-196 359h-193l46 169h127v146h-168l43 170h151q57 229 211 354t370 125t382 -110l-123 -199q-111 74 -240 74q-217 0 -276 -244h477l-45 -170
h-455z" />
    <glyph glyph-name="partialdiff.osf" horiz-adv-x="1138" 
d="M547 672q-164 0 -164 -236q0 -108 46 -174t136 -66t127 93q37 92 39 254q-25 61 -75 95t-109 34zM454 909q171 0 269 -129l6 4q-47 176 -176 274t-377 159l70 223q442 -90 632 -302t189 -606q0 -246 -134 -406q-133 -160 -365 -161q-232 0 -372 131t-140 342t113 341
q114 130 285 130z" />
    <glyph glyph-name="product.osf" horiz-adv-x="1294" 
d="M801 1137h-293v-1557l-307 -35v1592h-140v247h1188v-247h-141v-1557l-307 -35v1592z" />
    <glyph glyph-name="summation.osf" horiz-adv-x="1091" 
d="M1001 246v-246h-942v236l412 454l-412 459v235h942v-245h-583l346 -375v-137l-346 -381h583z" />
    <glyph glyph-name="minus.osf" horiz-adv-x="1062" 
d="M979 526h-893v252h893v-252z" />
    <glyph glyph-name="radical.osf" horiz-adv-x="1118" 
d="M1421 1542h-389l-432 -1542h-373l-346 944l303 92l213 -733h9l385 1487h630v-248z" />
    <glyph glyph-name="infinity.osf" horiz-adv-x="1843" 
d="M389 647q0 -101 43 -159t123 -58q156 0 254 250q-100 184 -250 184q-82 0 -126 -58t-44 -159zM1454 647q0 101 -43 159t-123 58q-154 0 -254 -252q106 -184 252 -184q80 0 124 58t44 161zM524 1112q258 0 410 -238q156 238 386 238t344 -135t114 -332t-115 -331
t-344 -134q-260 0 -412 238q-154 -238 -384 -238t-344 135q-113 135 -113 333t114 331q115 133 344 133z" />
    <glyph glyph-name="integral.osf" horiz-adv-x="948" 
d="M756 1526q-121 0 -121 -131v-1473q0 -182 -113 -279t-279 -97t-309 69l91 213q90 -41 176 -41q111 0 110 123v1474q1 178 105 280t274 101q170 0 324 -67l-90 -213q-92 41 -168 41z" />
    <glyph glyph-name="approxequal.osf" horiz-adv-x="1062" 
d="M698 260q-80 0 -146 30t-113 60q-48 30 -85 29q-38 -1 -64 -17t-39 -35t-34 -57l-180 97q127 256 328 256q79 0 145 -30q66 -29 115 -59t93 -30t70 26t58 82l180 -96q-123 -256 -328 -256zM698 688q-80 0 -146 30t-113 60q-48 30 -85 29q-69 0 -103 -52q-13 -19 -34 -57
l-180 95q127 258 328 258q79 0 145 -30q66 -31 115 -61t93 -30t70 26t58 84l180 -96q-123 -256 -328 -256z" />
    <glyph glyph-name="notequal.osf" horiz-adv-x="1062" 
d="M979 307h-541l-166 -278l-168 96l111 182h-129v250h279l110 188h-389v248h541l164 277l165 -92l-110 -185h133v-248h-281l-112 -188h393v-250z" />
    <glyph glyph-name="lessequal.osf" horiz-adv-x="1062" 
d="M893 362l-815 336v289l815 344l104 -227l-641 -260l641 -242zM979 0h-893v248h893v-248z" />
    <glyph glyph-name="greaterequal.osf" horiz-adv-x="1062" 
d="M172 1331l813 -344v-289l-813 -336l-106 238l641 244l-641 258zM979 0h-893v248h893v-248z" />
    <glyph glyph-name="lozenge.osf" horiz-adv-x="1183" 
d="M772 0h-360l-371 692l371 692h360l369 -692zM588 236h8l219 458l-219 453h-8l-221 -453z" />
    <glyph glyph-name="numbersign.tf" 
d="M516 913l-53 -403h192l54 403h-193zM1130 913h-151l-51 -403h127v-215h-156l-39 -295h-270l39 295h-193l-39 -295h-270l37 295h-121v215h150l53 403h-127v217h155l37 289h273l-39 -289h192l39 289h271l-39 -289h122v-217z" />
    </font>
</defs>
</svg>
