<?xml version="1.0" standalone="no"?>
<!DOCTYPE svg PUBLIC "-//W3C//DTD SVG 1.1//EN" "http://www.w3.org/Graphics/SVG/1.1/DTD/svg11.dtd" >
<svg xmlns="http://www.w3.org/2000/svg">
<metadata>
Created by FontPrep 20130207 at Sat Mar 22 03:58:13 2014
 By Todd Ladner
Digitized data copyright A^(c) 2012-2013, The Mozilla Foundation and Telefonica S.A.
</metadata>
<defs>
<font id="2c10f5e78dbbcfe97d32ac24256e578a" horiz-adv-x='1024' >
  <font-face 
    font-family="FiraMonoOT"
    font-weight="400"
    font-stretch="normal"
    units-per-em="2048"
    panose-1="2 11 6 9 5 0 0 2 0 4"
    ascent="1638"
    descent="-410"
    x-height="1079"
    cap-height="1411"
    bbox="-563 -1024 2441 2150"
    underline-thickness="102"
    underline-position="-102"
    unicode-range="U+000D-1F310"
  />
<missing-glyph 
d="M578 98q-32 0 -52 22t-20 53q0 32 20 52q20 21 52 21t51 -20q20 -20 20 -53q0 -31 -20 -53t-51 -22zM629 354q1 -23 -15 -36t-36 -13t-36 13q-15 13 -16 36v172q109 6 148 40t39 110t-27 112t-92 37q-65 0 -96 -14t-43 -14q-49 0 -49 47q0 39 60 59t130 21
q227 0 227 -236q1 -213 -194 -242v-92zM297 -918h637v2962h-637v-2962zM184 -1024v3174h860v-3174h-860z" />
    <glyph glyph-name=".notdef" 
d="M578 98q-32 0 -52 22t-20 53q0 32 20 52q20 21 52 21t51 -20q20 -20 20 -53q0 -31 -20 -53t-51 -22zM629 354q1 -23 -15 -36t-36 -13t-36 13q-15 13 -16 36v172q109 6 148 40t39 110t-27 112t-92 37q-65 0 -96 -14t-43 -14q-49 0 -49 47q0 39 60 59t130 21
q227 0 227 -236q1 -213 -194 -242v-92zM297 -918h637v2962h-637v-2962zM184 -1024v3174h860v-3174h-860z" />
    <glyph glyph-name=".null" 
 />
    <glyph glyph-name="nonmarkingreturn" horiz-adv-x="681" 
 />
    <glyph glyph-name="CR" unicode="&#xd;" 
 />
    <glyph glyph-name="space" unicode=" " 
 />
    <glyph glyph-name="exclam" unicode="!" 
d="M694 471h-166l-22 940h209zM471 119q0 59 41 100t101 41q59 0 101 -41t42 -100t-41 -101t-101 -43q-60 1 -102 43q-41 42 -41 101z" />
    <glyph glyph-name="quotedbl" unicode="&#x22;" 
d="M868 977h-159l-33 536h225zM520 977h-160l-32 536h225z" />
    <glyph glyph-name="numbersign" unicode="#" 
d="M500 932l-60 -449h287l61 449h-288zM1124 932h-178l-59 -449h162v-141h-183l-43 -342h-159l45 342h-287l-45 -342h-160l45 342h-158v141h177l61 449h-162v143h180l46 336h159l-47 -336h289l45 336h160l-47 -336h159v-143z" />
    <glyph glyph-name="dollar" unicode="$" 
d="M383 1087q0 -75 40 -123t144 -92v404q-84 -14 -134 -64t-50 -125zM907 385q0 86 -45 144t-153 106v-494q198 41 198 244zM567 -315v292q-252 16 -432 193l109 121q143 -143 323 -158v551q-188 62 -283 158q-96 96 -96 233t100 237t279 120v307h142v-307q223 -23 378 -164
l-110 -115q-119 109 -268 127v-455q184 -59 290 -160q107 -101 107 -265t-104 -278t-293 -138v-299h-142z" />
    <glyph glyph-name="percent" unicode="%" 
d="M1139 1378l-951 -1435l-114 71l948 1436zM1163 287q0 -141 -83 -227t-215 -85q-132 0 -216 85q-84 84 -84 226t84 227t216 85t215 -85t83 -226zM725 285q0 -195 141 -195q142 0 142 195t-142 194q-141 1 -141 -194zM662 1124q0 -141 -84 -226t-216 -85t-215 85
q-84 85 -84 225q0 141 84 227t215 86t216 -85q84 -86 84 -227zM362 1319q-143 0 -143 -195t143 -194q136 0 136 194t-136 195z" />
    <glyph glyph-name="ampersand" unicode="&#x26;" 
d="M291 409q1 -122 71 -203t224 -81t239 102v492h-239q-143 0 -219 -94t-76 -216zM180 1096q0 141 109 239q109 99 299 99t332 -154l-111 -100q-102 115 -236 114q-102 0 -155 -55t-53 -148q-1 -93 71 -161t174 -68h566v-143h-179v-555q-150 -188 -430 -189q-225 0 -343 124
t-118 292q0 169 83 269t237 133v6q-246 57 -246 297z" />
    <glyph glyph-name="quotesingle" unicode="'" 
d="M694 977h-159l-33 536h225z" />
    <glyph glyph-name="parenleft" unicode="(" 
d="M638 1249q-110 -219 -110 -533t110 -532q58 -116 112 -194t149 -199l-121 -82q-96 113 -138 166t-115 163t-105 196q-89 235 -89 485q1 251 89 481q33 86 105 196q73 110 115 163t138 165l121 -82q-96 -122 -149 -200t-112 -193z" />
    <glyph glyph-name="parenright" unicode=")" 
d="M591 184q109 216 109 533t-109 532q-58 115 -112 194q-53 79 -149 199l121 82q96 -114 138 -166q43 -52 115 -162t105 -196q88 -229 88 -480t-88 -487q-33 -85 -106 -195t-115 -163t-137 -166l-121 82q96 121 149 200t112 193z" />
    <glyph glyph-name="asterisk" unicode="*" 
d="M707 1511l-33 -313l287 123l55 -174l-301 -66l215 -223l-150 -113l-164 267l-153 -271l-154 105l207 235l-303 66l55 174l285 -123l-31 313h185z" />
    <glyph glyph-name="plus" unicode="+" 
d="M229 715h297v307h172v-307h301v-156h-301v-305h-172v305h-297v156z" />
    <glyph glyph-name="comma" unicode="," 
d="M786 174q0 -74 -45 -172l-163 -375h-162l98 408q-70 49 -70 131t50 131t122 49t121 -49t49 -123z" />
    <glyph glyph-name="hyphen" unicode="-" 
d="M977 561h-725v160h725v-160z" />
    <glyph glyph-name="period" unicode="." 
d="M428 162q0 78 53 131t132 53t132 -53t53 -131t-52 -132q-54 -54 -133 -54t-132 54t-53 132z" />
    <glyph glyph-name="slash" unicode="/" 
d="M1126 1587l-872 -1800l-152 68l875 1804z" />
    <glyph glyph-name="zero" unicode="0" 
d="M614 840q56 0 96 -39t40 -95t-39 -96t-97 -39q-58 -1 -95 39q-38 40 -38 96t38 95t95 39zM614 -25q-229 1 -348 189t-119 542t119 541q119 189 348 189q228 0 348 -188t120 -542q0 -353 -120 -542q-119 -189 -348 -189zM614 125q272 0 272 581t-272 580q-272 0 -272 -580
t272 -581z" />
    <glyph glyph-name="one" unicode="1" 
d="M608 152v1052l-338 -205l-90 131l451 281h166v-1259h288v-152h-823v152h346z" />
    <glyph glyph-name="two" unicode="2" 
d="M578 1436q190 0 306 -108t117 -284q0 -175 -141 -374t-469 -512h641l-22 -158h-840v150q373 372 505 552t132 338q0 111 -67 174q-67 64 -164 64q-98 0 -162 -35t-129 -117l-131 93q174 217 424 217z" />
    <glyph glyph-name="three" unicode="3" 
d="M1055 406q-1 -184 -139 -308t-357 -123q-283 0 -440 191l123 102q119 -139 311 -139q143 0 224 75t81 204q0 262 -287 262h-108l22 145h74q111 -1 187 61t75 175q0 113 -73 174q-74 61 -187 61q-160 0 -297 -129l-102 113q174 166 409 166q197 0 318 -102t121 -240
t-79 -228t-190 -110v-8q127 -8 221 -99t93 -243z" />
    <glyph glyph-name="four" unicode="4" 
d="M1079 338h-178v-338h-182v338h-578v133l414 965l158 -66l-373 -883h379l18 369h164v-369h178v-149z" />
    <glyph glyph-name="five" unicode="5" 
d="M664 895q178 -1 288 -121t111 -324q0 -204 -136 -339t-352 -136q-264 0 -417 183l127 106q113 -135 288 -135q135 0 214 88t79 236q0 295 -258 295q-98 0 -196 -48h-148v711h744l-23 -149h-541v-416q98 49 220 49z" />
    <glyph glyph-name="six" unicode="6" 
d="M633 125q123 0 187 87t65 248q1 162 -65 236t-162 74t-180 -53q-83 -53 -138 -137q10 -455 293 -455zM711 1286q-154 0 -259 -144t-114 -403q66 86 157 133t185 48q166 0 282 -119t116 -340t-129 -353q-128 -132 -305 -132t-289 92q-205 169 -205 547t153 599
q154 221 410 222q147 0 266 -84l-82 -127q-84 61 -186 61z" />
    <glyph glyph-name="seven" unicode="7" 
d="M193 1257v154h847v-141l-561 -1290l-176 53l547 1224h-657z" />
    <glyph glyph-name="eight" unicode="8" 
d="M371 1079q0 -102 72 -163q73 -60 227 -111q188 109 188 272q0 96 -64 156q-65 59 -181 59t-179 -56t-63 -157zM326 377q0 -119 72 -186t212 -67q139 0 216 72q77 70 77 174t-54 164q-54 61 -189 110q-40 15 -123 44q-211 -100 -211 -311zM1042 1085q0 -197 -245 -323
q303 -131 303 -383q0 -176 -133 -290t-357 -114t-352 113q-129 113 -129 287q0 242 285 362q-227 115 -228 344q0 119 70 203q127 152 358 152q174 0 301 -90t127 -261z" />
    <glyph glyph-name="nine" unicode="9" 
d="M619 1286q-131 0 -207 -82t-76 -233t71 -227t181 -76q188 -1 297 192q-2 218 -68 322t-198 104zM553 518q-176 0 -292 126t-116 331q-1 205 137 333t344 128t331 -152q124 -152 124 -397q0 -397 -185 -609t-587 -323l-43 141q274 72 434 226t179 364l-5 2
q-106 -170 -321 -170z" />
    <glyph glyph-name="colon" unicode=":" 
d="M442 883q0 72 50 121t122 49t121 -49t49 -121t-49 -122t-122 -50t-122 50t-49 122zM784 146q0 -70 -49 -120t-122 -50t-122 49q-49 50 -49 121t50 121t122 50t121 -50t49 -121z" />
    <glyph glyph-name="semicolon" unicode=";" 
d="M784 174q0 -74 -45 -172l-164 -375h-161l98 408q-70 49 -70 131t50 131t122 49t121 -49t49 -123zM442 883q0 72 50 121t122 49t121 -49t49 -121t-49 -122t-122 -50t-122 50t-49 122z" />
    <glyph glyph-name="less" unicode="&#x3c;" 
d="M176 733l789 488l90 -142l-717 -438l717 -440l-99 -138l-780 488v182z" />
    <glyph glyph-name="equal" unicode="=" 
d="M1020 754h-811v159h811v-159zM1020 360h-811v160h811v-160z" />
    <glyph glyph-name="greater" unicode="&#x3e;" 
d="M266 1221l789 -488v-182l-781 -488l-98 138l717 440l-717 438z" />
    <glyph glyph-name="question" unicode="?" 
d="M424 119q0 59 41 100t101 41t102 -41t41 -100q0 -59 -41 -101q-42 -42 -102 -43q-60 1 -101 43t-41 101zM653 539v-68h-186v78q0 92 37 163q37 72 90 114t106 80q129 92 127 198q0 82 -65 129q-66 47 -168 47q-166 0 -287 -147l-131 98q174 205 436 205q186 0 299 -96
t113 -224q0 -163 -130 -262q-54 -41 -110 -79q-132 -90 -131 -236z" />
    <glyph glyph-name="at" unicode="@" 
d="M469 770q-129 0 -180 -94t-51 -301q0 -332 155 -332q98 0 145 69q26 37 56 107v522q-57 29 -125 29zM758 221q0 -262 127 -262q55 0 81 40q52 81 52 561q0 152 -9 247q-21 223 -120 348t-307 125q-250 0 -463 -188l-103 118q260 225 566 226q152 0 266 -48t180 -126
t107 -194t54 -228t13 -286q0 -370 -58 -546q-34 -102 -93 -148t-163 -46t-167 96t-64 194h-8q-80 -199 -280 -198q-162 0 -237 126t-75 366q1 240 105 373q104 134 301 134q150 0 295 -78v-606z" />
    <glyph glyph-name="A" unicode="A" 
d="M606 1235l-221 -723h449l-220 723h-8zM989 0l-108 354h-543l-109 -354h-194l457 1411h245l457 -1411h-205z" />
    <glyph glyph-name="B" unicode="B" 
d="M1112 403q0 -304 -338 -383q-90 -20 -196 -20h-390v1411h359q206 0 345 -74q159 -83 159 -282q0 -125 -73 -202t-173 -99v-9q129 -25 218 -105t89 -237zM852 1042q0 215 -270 215h-199v-442h215q254 0 254 227zM907 399q0 260 -295 260h-229v-501h221q303 -1 303 241z
" />
    <glyph glyph-name="C" unicode="C" 
d="M319 711q0 -295 113 -433t300 -139q187 0 325 121l100 -127q-170 -158 -438 -158q-268 -1 -437 191t-169 538t175 538q175 194 425 194t424 -140l-107 -125q-125 105 -303 105t-293 -135t-115 -430z" />
    <glyph glyph-name="D" unicode="D" 
d="M1137 713q0 -170 -39 -300q-38 -130 -100 -207q-165 -206 -504 -206h-330v1411h307q109 0 198 -15q89 -16 179 -62t151 -122t99 -202t39 -297zM930 713q0 340 -137 452q-67 53 -131 71t-148 19h-156v-1101h158q414 0 414 559z" />
    <glyph glyph-name="E" unicode="E" 
d="M424 1255v-460h520v-156h-520v-485h637v-154h-832v1411h815l-22 -156h-598z" />
    <glyph glyph-name="F" unicode="F" 
d="M451 1255v-481h546v-153h-546v-621h-195v1411h842l-23 -156h-624z" />
    <glyph glyph-name="G" unicode="G" 
d="M634 -25q-251 1 -398 187q-148 186 -148 538t175 544t419 192q137 0 229 -38t183 -120l-115 -119q-125 117 -294 117t-279 -136t-111 -434q0 -298 90 -434t274 -137q139 0 259 66v417h-267l-22 158h481v-676q-225 -125 -476 -125z" />
    <glyph glyph-name="H" unicode="H" 
d="M1065 0h-195v662h-512v-662h-194v1411h194v-590h512v590h195v-1411z" />
    <glyph glyph-name="I" unicode="I" 
d="M1024 1411v-154h-311v-1103h311v-154h-819v154h311v1103h-311v154h819z" />
    <glyph glyph-name="J" unicode="J" 
d="M922 1411v-1030q0 -233 -162 -405t-492 -261l-47 146q270 86 388 205t118 323v868h-502v154h697z" />
    <glyph glyph-name="K" unicode="K" 
d="M967 0l-557 754l536 657h221l-534 -645l573 -766h-239zM399 1411v-1411h-194v1411h194z" />
    <glyph glyph-name="L" unicode="L" 
d="M268 0v1411h195v-1241h641l-23 -170h-813z" />
    <glyph glyph-name="M" unicode="M" 
d="M279 1196q0 -381 -5 -473l-34 -723h-181l80 1411h258l217 -942h9l206 942h261l79 -1411h-184l-41 723q-6 133 -8 295t0 178h-6l-223 -944h-187l-233 944h-8z" />
    <glyph glyph-name="N" unicode="N" 
d="M1065 0h-266l-475 1194h-9q27 -213 27 -506v-688h-178v1411h260l481 -1200h8q-27 213 -26 512v688h178v-1411z" />
    <glyph glyph-name="O" unicode="O" 
d="M936 705q0 287 -77 429t-245 142t-244 -143t-77 -431q0 -567 321 -567q168 -1 245 141t77 429zM615 1436q253 0 389 -196t135 -532q0 -335 -135 -534q-136 -199 -390 -199t-389 196q-135 195 -135 529t136 535t389 201z" />
    <glyph glyph-name="P" unicode="P" 
d="M594 1411q262 1 406 -109t145 -336q-1 -226 -147 -338q-146 -110 -400 -110h-178v-518h-195v1411h369zM938 973q0 287 -324 287h-194v-588h194q156 0 240 66t84 235z" />
    <glyph glyph-name="Q" unicode="Q" 
d="M936 705q0 287 -77 429t-245 142t-244 -143t-77 -431q0 -567 321 -567q168 -1 245 141t77 429zM1139 705q0 -485 -275 -644l2 -6q139 -29 223 -104q83 -76 134 -230l-197 -75q-70 174 -164 254t-268 80q-242 0 -373 194t-131 528q0 332 136 533t389 201t389 -196
t135 -535z" />
    <glyph glyph-name="R" unicode="R" 
d="M899 1012q0 131 -76 189t-235 59h-195v-512h197q309 0 309 264zM1106 1012q0 -152 -93 -251t-245 -138l414 -623h-232l-377 598h-180v-598h-194v1411h370q537 0 537 -399z" />
    <glyph glyph-name="S" unicode="S" 
d="M592 -25q-322 0 -510 183l113 125q158 -147 391 -148q133 0 225 66t92 176q0 111 -63 167t-262 118t-309 155q-109 94 -109 253t130 262t335 104q272 0 456 -164l-110 -123q-145 127 -338 127q-121 0 -198 -52t-77 -144t71 -146q71 -52 215 -98t210 -74t128 -78
q124 -98 124 -288t-137 -306q-137 -115 -377 -115z" />
    <glyph glyph-name="T" unicode="T" 
d="M709 1247v-1247h-195v1247h-436v164h1073l-21 -164h-421z" />
    <glyph glyph-name="U" unicode="U" 
d="M1087 1411v-952q0 -217 -129 -350t-347 -133t-344 132t-126 351v952h195v-944q0 -328 278 -328t277 328v944h196z" />
    <glyph glyph-name="V" unicode="V" 
d="M614 223h9l364 1188h197l-465 -1411h-209l-465 1411h209z" />
    <glyph glyph-name="W" unicode="W" 
d="M1221 1411l-209 -1411h-246l-152 1030h-8l-174 -1030h-256l-168 1411h195l106 -1188h8l187 1024h225l152 -1018h8l153 1182h179z" />
    <glyph glyph-name="X" unicode="X" 
d="M489 752l-397 659h221l291 -524h8l303 524h209l-403 -649l450 -762h-221l-342 618h-8l-336 -618h-209z" />
    <glyph glyph-name="Y" unicode="Y" 
d="M713 0h-197v541l-475 870h215l360 -690h7l362 690h203l-475 -868v-543z" />
    <glyph glyph-name="Z" unicode="Z" 
d="M139 0v156l738 1091h-664v164h874v-158l-731 -1087h731l-22 -166h-926z" />
    <glyph glyph-name="bracketleft" unicode="[" 
d="M856 -238h-485v1909h485v-158h-307v-1595h307v-156z" />
    <glyph glyph-name="backslash" unicode="\" 
d="M975 -213l-873 1800l150 72l874 -1804z" />
    <glyph glyph-name="bracketright" unicode="]" 
d="M858 -238h-485v156h307v1595h-307v158h485v-1909z" />
    <glyph glyph-name="asciicircum" unicode="^" 
d="M143 1079l387 641h168l387 -641h-200l-273 477l-270 -477h-199z" />
    <glyph glyph-name="underscore" unicode="_" 
d="M1235 -373h-1241v162h1241v-162z" />
    <glyph glyph-name="grave" unicode="`" 
d="M856 1407l-57 -100l-428 172l96 159z" />
    <glyph glyph-name="a" unicode="a" 
d="M535 117q166 0 264 149v266h-148q-317 0 -317 -215q0 -200 201 -200zM987 752v-508q-1 -63 19 -93t67 -45l-45 -131q-160 20 -205 152q-113 -152 -340 -152q-162 -1 -259 91t-97 252t134 249q134 90 380 90h158v84q0 209 -252 209q-125 0 -283 -55l-49 139q187 70 375 70
t292 -92t105 -260z" />
    <glyph glyph-name="b" unicode="b" 
d="M623 125q270 0 270 415t-246 414q-147 0 -260 -168v-526q89 -135 236 -135zM692 1104q403 0 404 -563q0 -254 -113 -410t-307 -156t-299 136l-12 -111h-166v1513l188 23v-594q123 162 305 162z" />
    <glyph glyph-name="c" unicode="c" 
d="M377 535q0 -203 84 -301q85 -98 233 -99q148 0 271 92l90 -129q-151 -123 -381 -123t-365 152t-135 405q0 252 137 412t367 160t377 -121l-92 -127q-123 92 -269 92t-232 -105q-85 -105 -85 -308z" />
    <glyph glyph-name="d" unicode="d" 
d="M546 1104q186 0 296 -125v557l188 -23v-1513h-166l-16 139q-114 -164 -312 -164t-300 151t-102 407q0 255 112 413q114 158 300 158zM606 954q-270 0 -270 -414t250 -415q147 0 256 166v530q-91 133 -236 133z" />
    <glyph glyph-name="e" unicode="e" 
d="M631 954q-121 0 -196 -86t-85 -254h545q-3 166 -73 253t-191 87zM676 129q146 0 270 100l86 -125q-162 -129 -388 -129t-358 154t-132 406q0 253 129 411t341 158t332 -142t121 -391q0 -47 -4 -96h-723q12 -172 96 -259t230 -87z" />
    <glyph glyph-name="f" unicode="f" 
d="M422 1206q0 150 112 240t280 90q169 0 308 -59l-59 -138q-102 45 -232 45q-221 0 -221 -176v-211h365l-21 -145h-344v-852h-188v852h-254v145h254v209z" />
    <glyph glyph-name="g" unicode="g" 
d="M342 724q0 -108 65 -174t173 -67q108 0 171 66q62 67 62 181t-60 176t-172 62q-111 0 -175 -68t-64 -176zM580 -289q310 0 309 166q1 70 -57 105t-235 42q-384 15 -384 218q0 109 109 182q-172 100 -172 301q0 163 118 271t312 108q281 0 495 96l55 -170
q-102 -33 -303 -33v-6q80 -37 126 -107t46 -161q1 -160 -113 -262t-302 -103q-82 0 -150 19q-45 -39 -45 -88t53 -73t213 -28q424 -12 424 -301q0 -163 -140 -243q-141 -80 -373 -80t-348 72t-116 194q0 95 41 158l146 -39q-18 -41 -19 -84q0 -154 310 -154z" />
    <glyph glyph-name="h" unicode="h" 
d="M387 0h-188v1511l188 21v-590q63 76 155 119t187 43q303 0 303 -320v-784h-188v772q0 96 -43 140t-130 44t-161 -51t-123 -123v-782z" />
    <glyph glyph-name="i" unicode="i" 
d="M797 1463q0 -54 -38 -91t-95 -37t-95 37q-37 37 -37 92t37 91t95 36t95 -37q38 -37 38 -91zM758 1079v-934h301v-145h-819v145h329v789h-319v145h508z" />
    <glyph glyph-name="j" unicode="j" 
d="M659 1591q57 0 95 -37t39 -91q0 -54 -38 -91q-37 -37 -95 -37t-95 37t-37 92t37 91t94 36zM774 1079v-952q0 -217 -141 -350t-391 -213l-58 145q169 63 285 152q117 88 117 254v819h-350v145h538z" />
    <glyph glyph-name="k" unicode="k" 
d="M907 0l-501 590l454 489h236l-461 -485l514 -594h-242zM387 0h-188v1513l188 23v-1536z" />
    <glyph glyph-name="l" unicode="l" 
d="M426 291v1077h-330v145h518v-1239q0 -143 174 -143q85 0 179 37l49 -135q-102 -57 -257 -57t-244 83q-89 84 -89 232z" />
    <glyph glyph-name="m" unicode="m" 
d="M270 0h-172v1079h146l12 -123q104 147 233 148q156 0 193 -141q100 141 238 141q211 0 210 -301v-803h-172v774q0 76 -3 108q-7 76 -76 74q-100 0 -181 -122v-834h-168v774q0 106 -13 144t-68 38q-99 1 -179 -122v-834z" />
    <glyph glyph-name="n" unicode="n" 
d="M387 0h-188v1079h161l15 -147q66 82 161 127t193 45q303 0 303 -320v-784h-188v662q0 170 -33 232t-130 62t-171 -51t-123 -123v-782z" />
    <glyph glyph-name="o" unicode="o" 
d="M143 536q0 260 124 414t350 154q225 0 347 -151t122 -409t-124 -414q-124 -155 -350 -155t-347 151q-122 151 -122 410zM344 540q0 -412 270 -413q270 0 271 413q0 413 -269 412q-272 0 -272 -412z" />
    <glyph glyph-name="p" unicode="p" 
d="M625 129q260 0 260 413t-238 412q-147 0 -260 -168v-526q86 -131 238 -131zM199 1079h161l15 -147q125 172 319 172q391 0 391 -563q0 -256 -106 -411q-105 -155 -297 -155t-295 123v-512l-188 -22v1515z" />
    <glyph glyph-name="q" unicode="q" 
d="M1030 1079v-1515l-188 22v545q-115 -156 -301 -156q-397 0 -398 564q0 253 109 409t300 156t302 -139l14 114h162zM604 954q-260 0 -260 -412t240 -413q154 0 258 162v530q-88 133 -238 133z" />
    <glyph glyph-name="r" unicode="r" 
d="M926 145v-145h-738v145h248v789h-248v145h412l23 -207q45 111 127 171q82 61 162 61t161 -17l-35 -186q-68 18 -131 19q-96 0 -175 -84t-107 -203v-488h301z" />
    <glyph glyph-name="s" unicode="s" 
d="M563 127q119 0 189 44t70 123t-49 118q-48 39 -219 83q-171 43 -259 111t-88 202t115 215q114 81 316 81t361 -115l-84 -127q-129 92 -286 92q-227 0 -228 -137q1 -67 57 -101t227 -82t255 -117t84 -223t-133 -237q-133 -82 -328 -82q-268 0 -438 148l104 119
q139 -115 334 -115z" />
    <glyph glyph-name="t" unicode="t" 
d="M793 -25q-173 -1 -271 91t-98 243v627h-246v143h246v244l188 23v-267h371l-22 -143h-349v-625q0 -92 47 -136t158 -44t201 53l72 -129q-123 -80 -297 -80z" />
    <glyph glyph-name="u" unicode="u" 
d="M199 1079h188v-762q0 -102 42 -148t128 -46t163 48t122 118v790h188v-1079h-162l-14 143q-62 -80 -154 -124t-190 -44q-154 0 -232 83t-79 237v784z" />
    <glyph glyph-name="v" unicode="v" 
d="M1112 1079l-389 -1079h-219l-387 1079h200l297 -905h7l297 905h194z" />
    <glyph glyph-name="w" unicode="w" 
d="M1196 1079l-184 -1079h-256l-133 764h-9l-139 -764h-250l-192 1079h188l131 -936h8l158 799h211l148 -795h8l131 932h180z" />
    <glyph glyph-name="x" unicode="x" 
d="M612 451h-8l-285 -451h-213l396 569l-348 510h221l237 -389h9l239 389h213l-346 -501l395 -578h-227z" />
    <glyph glyph-name="y" unicode="y" 
d="M1110 1079l-377 -1085q-65 -190 -179 -300t-316 -130l-27 147q157 27 227 91t117 198h-63l-373 1079h200l295 -927h9l292 927h195z" />
    <glyph glyph-name="z" unicode="z" 
d="M203 0v141l592 779h-545v159h770v-143l-588 -778h594l-22 -158h-801z" />
    <glyph glyph-name="braceleft" unicode="{" 
d="M299 641v152q205 0 205 213v380q0 180 110 253q111 73 314 73v-145q-246 0 -246 -160v-408q0 -242 -215 -278v-8q107 -18 161 -83t54 -196v-407q0 -88 63 -124t183 -36v-146q-203 0 -314 73t-110 253v379q0 215 -205 215z" />
    <glyph glyph-name="bar" unicode="|" 
d="M528 -209v1862h170v-1862h-170z" />
    <glyph glyph-name="braceright" unicode="}" 
d="M930 793v-152q-205 0 -205 -215v-379q0 -180 -111 -253t-313 -73v146q119 0 182 36t64 124v407q0 131 54 196t161 83v8q-215 37 -215 278v408q0 160 -246 160v145q203 0 313 -73t111 -253v-380q0 -213 205 -213z" />
    <glyph glyph-name="asciitilde" unicode="~" 
d="M809 463q-66 0 -125 32q-59 33 -96 71q-99 102 -174 102q-106 0 -201 -172l-129 63q61 121 137 195t199 73q70 1 131 -31t97 -71q96 -104 167 -102q106 0 201 172l129 -66q-61 -119 -138 -193t-198 -73z" />
    <glyph glyph-name="uni00A0" unicode="&#xa0;" 
 />
    <glyph glyph-name="exclamdown" unicode="&#xa1;" 
d="M532 528h160l29 -934h-215zM756 881q0 -59 -42 -101t-102 -41q-60 0 -100 41q-41 40 -41 100t41 102t100 42q60 0 102 -42t42 -101z" />
    <glyph glyph-name="cent" unicode="&#xa2;" 
d="M692 135q119 0 236 90l90 -131q-104 -88 -250 -108v-301h-162v303q-193 27 -294 170q-101 144 -101 374t102 380t295 180v309h160v-307q139 -16 250 -107l-92 -123q-113 84 -240 84t-200 -103t-72 -310q-1 -400 278 -400z" />
    <glyph glyph-name="sterling" unicode="&#xa3;" 
d="M313 1053q1 167 107 275t291 108q242 0 372 -181l-125 -94q-96 119 -239 119q-217 0 -217 -242v-241h418v-125h-418v-244q0 -201 -115 -262v-8h678l-23 -158h-897v150q111 35 140 95t28 177v250h-166v125h166v256z" />
    <glyph glyph-name="currency" unicode="&#xa4;" 
d="M616 414q125 0 190 74q64 74 64 211q0 136 -64 212q-65 76 -190 76q-124 0 -190 -76t-66 -212q0 -137 66 -211t190 -74zM618 1135q144 0 246 -68l180 180l115 -114l-176 -179q74 -111 74 -253t-76 -259l178 -176l-115 -114l-182 178q-102 -66 -246 -66t-251 66l-181 -180
l-114 114l180 180q-72 111 -72 255t70 253l-178 183l114 114l181 -182q109 68 253 68z" />
    <glyph glyph-name="yen" unicode="&#xa5;" 
d="M231 709h234l-391 702h211l331 -641h9l331 641h199l-393 -702h239v-125h-288v-172h288v-125h-288v-287h-197v287h-285v125h285v172h-285v125z" />
    <glyph glyph-name="brokenbar" unicode="&#xa6;" 
d="M528 -209v729h170v-729h-170zM528 924v729h170v-729h-170z" />
    <glyph glyph-name="section" unicode="&#xa7;" 
d="M395 683q1 -87 59 -124t285 -119q95 82 95 166t-58 121t-287 121q-94 -78 -94 -165zM211 653q0 154 166 256q-121 93 -121 227t113 217t293 83t335 -111l-86 -125q-127 86 -270 86q-86 0 -138 -38t-52 -104t49 -104q50 -39 210 -92t233 -123t73 -188q0 -158 -164 -258
q121 -90 121 -225t-112 -217q-113 -82 -305 -82t-341 112l86 125q125 -88 277 -88q88 0 144 38t56 104t-49 103q-49 38 -211 92q-162 53 -234 123t-73 189z" />
    <glyph glyph-name="dieresis" unicode="&#xa8;" 
d="M828 1339q-50 0 -84 34t-33 83q0 49 33 83q34 34 84 34t84 -34t34 -83t-34 -83t-84 -34zM398 1339q-50 0 -84 34t-33 83q0 49 33 83q34 34 84 34t84 -34t34 -83t-34 -83t-84 -34z" />
    <glyph glyph-name="copyright" unicode="&#xa9;" 
d="M1174 890q0 -276 -150 -460q-150 -182 -409 -182t-409 183t-151 459q0 276 151 458q152 184 410 184t408 -183t150 -459zM616 356q213 0 326 150t113 384t-113 386q-113 150 -326 150q-212 0 -326 -152q-114 -150 -114 -384t114 -384t326 -150zM632 1157q-82 1 -134 -65
t-52 -198t50 -198t142 -65q91 0 167 69l69 -102q-109 -96 -254 -96t-237 102t-92 286t96 286q95 104 233 104t244 -82l-76 -100q-74 59 -156 59z" />
    <glyph glyph-name="ordfeminine" unicode="&#xaa;" 
d="M1024 0h-809v162h809v-162zM559 758q127 0 209 112v193h-113q-264 -1 -264 -153t168 -152zM940 1247v-397q0 -80 68 -102l-41 -119q-133 16 -176 121q-104 -121 -259 -121q-155 1 -241 75t-86 203t117 203t327 74h119v57q0 156 -199 156q-109 0 -247 -49l-50 127
q164 61 330 61t252 -75t86 -214z" />
    <glyph glyph-name="guillemotleft" unicode="&#xab;" 
d="M793 600l272 -424l-113 -72l-360 428v134l360 430l113 -72zM360 600l273 -424l-113 -72l-358 428v134l358 430l113 -72z" />
    <glyph glyph-name="logicalnot" unicode="&#xac;" 
d="M999 719v-451h-170v293h-600v158h770z" />
    <glyph glyph-name="uni00AD" unicode="&#xad;" 
d="M936 561h-643v160h643v-160z" />
    <glyph glyph-name="registered" unicode="&#xae;" 
d="M715 1128q0 82 -127 82h-60v-172h64q123 0 123 90zM838 1128q0 -123 -136 -161l175 -242h-140l-151 221h-58v-221h-118v578h174q254 -1 254 -175zM614 584q176 0 293 122t117 300t-118 302t-293 124t-293 -124t-117 -302q-1 -178 117 -300t294 -122zM613 483
q-219 0 -371 153t-152 371q0 217 154 371t370 154t370 -154q153 -154 153 -372t-153 -371q-153 -152 -371 -152z" />
    <glyph glyph-name="macron" unicode="&#xaf;" 
d="M893 1538v-141h-559v141h559z" />
    <glyph glyph-name="degree" unicode="&#xb0;" 
d="M472 1536q136 0 236 -88t99 -236q1 -148 -99 -235q-100 -88 -236 -88t-236 88t-100 236q0 147 100 235t236 88zM472 1018q75 0 126 50t51 144t-51 144t-126 51q-75 0 -127 -50q-52 -49 -52 -143t52 -145t127 -51z" />
    <glyph glyph-name="plusminus" unicode="&#xb1;" 
d="M999 0h-770v160h770v-160zM999 561h-297v-254h-176v254h-297v156h297v307h176v-307h297v-156z" />
    <glyph glyph-name="twosuperior" unicode="&#xb2;" 
d="M893 1229q0 -96 -72 -163t-268 -163h360l-18 -129h-569v113q260 156 330 212q70 57 71 111q0 106 -113 105q-113 0 -192 -96l-109 81q125 143 305 144q129 0 202 -60t73 -155z" />
    <glyph glyph-name="threesuperior" unicode="&#xb3;" 
d="M928 969q0 -95 -85 -151t-233 -56q-195 0 -311 119l98 82q92 -80 217 -80q150 0 150 97t-141 97h-97l17 92h71q125 0 125 78t-117 78t-214 -76l-84 88q129 106 307 107q125 0 197 -48t71 -128q0 -109 -131 -131v-7q160 -22 160 -161z" />
    <glyph glyph-name="acute" unicode="&#xb4;" 
d="M428 1307l-57 100l389 229l96 -157z" />
    <glyph glyph-name="mu" unicode="&#xb5;" 
d="M176 1079h189v-606q1 -180 33 -258t141 -78q162 0 272 158v784h188v-731q0 -162 54 -348l-176 -25q-35 61 -48 172q-47 -79 -125 -125t-157 -47q-137 0 -199 86l-8 -2q23 -104 22 -174v-299l-186 -22v1515z" />
    <glyph glyph-name="paragraph" unicode="&#xb6;" 
d="M975 1260h-223v-1674l-170 -22v1022q-240 2 -370 116t-130 295q0 180 136 297t384 117h543v-1825l-170 -22v1696z" />
    <glyph glyph-name="periodcentered" unicode="&#xb7;" 
d="M428 692q0 78 53 131t132 53t132 -52q53 -54 53 -132t-52 -132q-54 -54 -133 -54t-132 54t-53 132z" />
    <glyph glyph-name="cedilla" unicode="&#xb8;" 
d="M692 -289q0 51 -44 69t-134 17l18 236h125v-148q97 -8 145 -57t48 -131t-74 -136q-74 -55 -192 -55t-207 52l57 104q61 -33 137 -33q121 0 121 82z" />
    <glyph glyph-name="onesuperior" unicode="&#xb9;" 
d="M825 774h-153v483l-193 -104l-76 107l297 172h125v-658z" />
    <glyph glyph-name="ordmasculine" unicode="&#xba;" 
d="M1020 0h-809v162h809v-162zM613 629q-192 -1 -306 123t-114 328t115 330q116 126 308 126t305 -123t113 -328t-114 -331t-307 -125zM850 1083q0 158 -62 236t-174 78q-113 0 -175 -78t-62 -236q0 -159 62 -237t175 -78q236 0 236 315z" />
    <glyph glyph-name="guillemotright" unicode="&#xbb;" 
d="M592 176l272 424l-272 424l113 72l360 -430v-134l-360 -428zM162 176l272 424l-272 424l112 72l359 -430v-134l-359 -428z" />
    <glyph glyph-name="onequarter" unicode="&#xbc;" 
d="M1167 899l-1093 -524l-66 114l1096 525zM475 774h-153v483l-193 -104l-76 107l297 172h125v-658zM1186 115h-111v-115h-155v115h-367v102l274 461l134 -53l-232 -385h191l14 174h141v-174h111v-125z" />
    <glyph glyph-name="onehalf" unicode="&#xbd;" 
d="M1190 455q0 -96 -72 -163t-268 -163h360l-18 -129h-569v113q261 156 331 212t70 110q0 106 -113 106t-192 -97l-109 82q125 143 305 144q129 0 202 -60t73 -155zM1157 899l-1094 -524l-65 114l1096 525zM465 774h-154v483l-192 -104l-76 107l297 172h125v-658z" />
    <glyph glyph-name="threequarters" unicode="&#xbe;" 
d="M1200 115h-110v-115h-156v115h-367v102l275 461l133 -53l-232 -385h191l14 174h142v-174h110v-125zM1180 899l-1094 -524l-66 114l1096 525zM649 969q0 -95 -85 -151t-232 -56q-195 0 -312 119l99 82q92 -80 217 -80q150 0 149 98q0 96 -141 96h-96l16 92h72
q125 0 125 78t-117 78t-215 -76l-84 88q129 106 307 107q125 0 197 -48t72 -128q0 -109 -132 -131v-7q160 -22 160 -161z" />
    <glyph glyph-name="questiondown" unicode="&#xbf;" 
d="M575 461v67h187v-77q0 -92 -37 -163t-90 -114t-107 -81q-128 -91 -127 -197q0 -82 66 -129t168 -48q166 0 287 148l131 -98q-174 -205 -437 -205q-186 0 -299 95t-112 224q0 90 38 156q38 67 92 107t109 78q131 91 131 237zM805 881q0 -59 -42 -101t-101 -41
q-59 0 -101 41q-41 40 -41 100t41 102t101 42t101 -42q42 -42 42 -101z" />
    <glyph glyph-name="Agrave" unicode="&#xc0;" 
d="M848 1647l-55 -101l-428 168l98 158zM606 1235l-221 -723h449l-220 723h-8zM989 0l-108 354h-543l-109 -354h-194l457 1411h245l457 -1411h-205z" />
    <glyph glyph-name="Aacute" unicode="&#xc1;" 
d="M430 1550l-57 101l387 223l96 -158zM606 1235l-221 -723h449l-220 723h-8zM989 0l-108 354h-543l-109 -354h-194l457 1411h245l457 -1411h-205z" />
    <glyph glyph-name="Acircumflex" unicode="&#xc2;" 
d="M612 1720l-258 -166l-82 93l279 227h125l276 -227l-80 -93zM606 1235l-221 -723h449l-220 723h-8zM989 0l-108 354h-543l-109 -354h-194l457 1411h245l457 -1411h-205z" />
    <glyph glyph-name="Atilde" unicode="&#xc3;" 
d="M721 1583q-65 0 -133 49t-96 49t-52 -20q-23 -20 -49 -70l-117 51q78 182 232 183q70 0 136 -49q66 -50 94 -50t50 20t50 69l116 -52q-79 -180 -231 -180zM606 1235l-221 -723h449l-220 723h-8zM989 0l-108 354h-543l-109 -354h-194l457 1411h245l457 -1411h-205z" />
    <glyph glyph-name="Adieresis" unicode="&#xc4;" 
d="M826 1575q-50 0 -84 33t-34 83t34 83q34 32 84 32t85 -32t35 -82q0 -49 -35 -83t-85 -34zM398 1575q-50 0 -84 33t-34 83t34 83q34 32 84 32t84 -32t34 -83q0 -50 -34 -83t-84 -33zM606 1235l-221 -723h449l-220 723h-8zM989 0l-108 354h-543l-109 -354h-194l457 1411
h245l457 -1411h-205z" />
    <glyph glyph-name="Aring" unicode="&#xc5;" 
d="M846 1730q0 -92 -66 -154t-168 -62t-168 62t-66 154t66 153q66 63 168 63t168 -62t66 -154zM502 1731q0 -53 30 -85t79 -32q50 0 80 32t30 85t-30 84t-80 31t-80 -31q-29 -31 -29 -84zM606 1235l-221 -723h449l-220 723h-8zM989 0l-108 354h-543l-109 -354h-194l457 1411
h245l457 -1411h-205z" />
    <glyph glyph-name="AE" unicode="&#xc6;" 
d="M487 1239l-174 -727h326l-141 727h-11zM1141 793v-154h-346l102 -485h346v-154h-500l-71 354h-404l-96 -354h-197l408 1411h776l-22 -154h-471l100 -464h375z" />
    <glyph glyph-name="Ccedilla" unicode="&#xc7;" 
d="M784 -289q0 51 -44 69t-134 17l15 187q-231 35 -370 222q-138 187 -138 515q0 327 175 521t425 194t424 -140l-107 -125q-125 105 -303 105t-293 -135t-115 -430t113 -433t300 -138t325 120l100 -127q-162 -150 -407 -158v-90q96 -8 144 -57t48 -131t-74 -136
q-74 -55 -192 -55t-207 52l57 104q61 -33 136 -33q122 0 122 82z" />
    <glyph glyph-name="Egrave" unicode="&#xc8;" 
d="M877 1647l-56 -101l-428 168l99 158zM424 1255v-460h520v-156h-520v-485h637v-154h-832v1411h815l-22 -156h-598z" />
    <glyph glyph-name="Eacute" unicode="&#xc9;" 
d="M473 1546l-57 101l387 223l96 -158zM424 1255v-460h520v-156h-520v-485h637v-154h-832v1411h815l-22 -156h-598z" />
    <glyph glyph-name="Ecircumflex" unicode="&#xca;" 
d="M635 1720l-258 -166l-82 93l278 227h125l277 -227l-80 -93zM424 1255v-460h520v-156h-520v-485h637v-154h-832v1411h815l-22 -156h-598z" />
    <glyph glyph-name="Edieresis" unicode="&#xcb;" 
d="M847 1575q-50 0 -84 33t-34 83t34 83q34 32 84 32t85 -32t35 -82q0 -49 -35 -83t-85 -34zM419 1575q-50 0 -84 33t-34 83t34 83q34 32 84 32t84 -32t34 -83q0 -50 -34 -83t-84 -33zM424 1255v-460h520v-156h-520v-485h637v-154h-832v1411h815l-22 -156h-598z" />
    <glyph glyph-name="Igrave" unicode="&#xcc;" 
d="M856 1647l-55 -101l-428 168l98 158zM1024 1411v-154h-311v-1103h311v-154h-819v154h311v1103h-311v154h819z" />
    <glyph glyph-name="Iacute" unicode="&#xcd;" 
d="M430 1546l-57 101l387 223l96 -158zM1024 1411v-154h-311v-1103h311v-154h-819v154h311v1103h-311v154h819z" />
    <glyph glyph-name="Icircumflex" unicode="&#xce;" 
d="M614 1720l-258 -166l-82 93l279 227h125l276 -227l-80 -93zM1024 1411v-154h-311v-1103h311v-154h-819v154h311v1103h-311v154h819z" />
    <glyph glyph-name="Idieresis" unicode="&#xcf;" 
d="M828 1575q-50 0 -84 33t-34 83t34 83q34 32 84 32t85 -32t35 -82q0 -49 -35 -83t-85 -34zM400 1575q-50 0 -84 33t-34 83t34 83q34 32 84 32t84 -32t34 -83q0 -50 -34 -83t-84 -33zM1024 1411v-154h-311v-1103h311v-154h-819v154h311v1103h-311v154h819z" />
    <glyph glyph-name="Eth" unicode="&#xd0;" 
d="M942 713q0 340 -137 452q-67 53 -131 71t-148 19h-155v-460h352v-144h-352v-497h157q414 0 414 559zM1149 713q0 -170 -39 -300t-100 -207q-163 -206 -504 -206h-330v651h-147v144h147v616h307q109 0 198 -15q89 -16 179 -62t152 -122t99 -202q38 -126 38 -297z" />
    <glyph glyph-name="Ntilde" unicode="&#xd1;" 
d="M721 1583q-65 0 -133 49t-96 49t-52 -20q-23 -20 -49 -70l-117 51q78 182 232 183q70 0 136 -49q66 -50 94 -50t50 20t50 69l116 -52q-79 -180 -231 -180zM1065 0h-266l-475 1194h-9q27 -213 27 -506v-688h-178v1411h260l481 -1200h8q-27 213 -26 512v688h178v-1411z" />
    <glyph glyph-name="Ograve" unicode="&#xd2;" 
d="M850 1647l-55 -101l-428 168l98 158zM936 705q0 287 -77 429t-245 142t-244 -143t-77 -431q0 -567 321 -567q168 -1 245 141t77 429zM615 1436q253 0 389 -196t135 -532q0 -335 -135 -534q-136 -199 -390 -199t-389 196q-135 195 -135 529t136 535t389 201z" />
    <glyph glyph-name="Oacute" unicode="&#xd3;" 
d="M434 1546l-57 101l387 223l96 -158zM936 705q0 287 -77 429t-245 142t-244 -143t-77 -431q0 -567 321 -567q168 -1 245 141t77 429zM615 1436q253 0 389 -196t135 -532q0 -335 -135 -534q-136 -199 -390 -199t-389 196q-135 195 -135 529t136 535t389 201z" />
    <glyph glyph-name="Ocircumflex" unicode="&#xd4;" 
d="M614 1720l-258 -166l-82 93l279 227h125l276 -227l-80 -93zM936 705q0 287 -77 429t-245 142t-244 -143t-77 -431q0 -567 321 -567q168 -1 245 141t77 429zM615 1436q253 0 389 -196t135 -532q0 -335 -135 -534q-136 -199 -390 -199t-389 196q-135 195 -135 529t136 535
t389 201z" />
    <glyph glyph-name="Otilde" unicode="&#xd5;" 
d="M723 1583q-65 0 -133 49t-96 49t-52 -20q-23 -20 -49 -70l-117 51q78 182 232 183q70 0 136 -49q66 -50 94 -50t50 20t50 69l116 -52q-79 -180 -231 -180zM936 705q0 287 -77 429t-245 142t-244 -143t-77 -431q0 -567 321 -567q168 -1 245 141t77 429zM615 1436
q253 0 389 -196t135 -532q0 -335 -135 -534q-136 -199 -390 -199t-389 196q-135 195 -135 529t136 535t389 201z" />
    <glyph glyph-name="Odieresis" unicode="&#xd6;" 
d="M828 1575q-50 0 -84 33t-34 83t34 83q34 32 84 32t85 -32t35 -82q0 -49 -35 -83t-85 -34zM400 1575q-50 0 -84 33t-34 83t34 83q34 32 84 32t84 -32t34 -83q0 -50 -34 -83t-84 -33zM936 705q0 287 -77 429t-245 142t-244 -143t-77 -431q0 -567 321 -567q168 -1 245 141
t77 429zM615 1436q253 0 389 -196t135 -532q0 -335 -135 -534q-136 -199 -390 -199t-389 196q-135 195 -135 529t136 535t389 201z" />
    <glyph glyph-name="multiply" unicode="&#xd7;" 
d="M258 367l242 241l-242 242l115 117l241 -244l242 244l115 -117l-242 -242l242 -241l-115 -115l-242 242l-241 -242z" />
    <glyph glyph-name="Oslash" unicode="&#xd8;" 
d="M293 702q0 -373 113 -491l305 1053q-43 12 -97 12q-168 0 -244 -144t-77 -430zM936 705q0 381 -113 495l-305 -1055q47 -10 96 -10q168 -1 245 141t77 429zM90 702q0 332 136 533t388 201q63 0 129 -17l76 258l162 -43l-88 -282q246 -178 246 -647q0 -332 -135 -531
t-390 -199q-59 0 -127 15l-77 -258l-162 43l88 282q-246 172 -246 645z" />
    <glyph glyph-name="Ugrave" unicode="&#xd9;" 
d="M834 1647l-56 -101l-428 168l99 158zM1087 1411v-952q0 -217 -129 -350t-347 -133t-344 132t-126 351v952h195v-944q0 -328 278 -328t277 328v944h196z" />
    <glyph glyph-name="Uacute" unicode="&#xda;" 
d="M449 1546l-58 101l387 223l96 -158zM1087 1411v-952q0 -217 -129 -350t-347 -133t-344 132t-126 351v952h195v-944q0 -328 278 -328t277 328v944h196z" />
    <glyph glyph-name="Ucircumflex" unicode="&#xdb;" 
d="M614 1720l-258 -166l-82 93l279 227h125l276 -227l-80 -93zM1087 1411v-952q0 -217 -129 -350t-347 -133t-344 132t-126 351v952h195v-944q0 -328 278 -328t277 328v944h196z" />
    <glyph glyph-name="Udieresis" unicode="&#xdc;" 
d="M826 1575q-50 0 -84 33t-34 83t34 83q34 32 84 32t85 -32t35 -82q0 -49 -35 -83t-85 -34zM398 1575q-50 0 -84 33t-34 83t34 83q34 32 84 32t84 -32t34 -83q0 -50 -34 -83t-84 -33zM1087 1411v-952q0 -217 -129 -350t-347 -133t-344 132t-126 351v952h195v-944
q0 -328 278 -328t277 328v944h196z" />
    <glyph glyph-name="Yacute" unicode="&#xdd;" 
d="M451 1546l-58 101l387 223l97 -158zM713 0h-197v541l-475 870h215l360 -690h7l362 690h203l-475 -868v-543z" />
    <glyph glyph-name="Thorn" unicode="&#xde;" 
d="M596 1174q547 0 547 -454q1 -232 -145 -346t-398 -114h-197v-260h-194v1411h194v-237h193zM938 723q0 299 -322 299h-213v-608h215q154 0 237 70t83 239z" />
    <glyph glyph-name="germandbls" unicode="&#xdf;" 
d="M188 0v1092q0 216 110 330t290 114t280 -83t101 -214q0 -68 -36 -122t-78 -85q-114 -84 -114 -159t144 -161q59 -36 119 -80t101 -119q42 -75 42 -171q0 -172 -111 -269q-112 -97 -270 -97t-268 69l73 129q80 -47 176 -47t152 52q55 51 55 139t-41 142t-98 92t-115 76
q-140 91 -141 226q0 97 81 171q34 29 68 57q82 66 81 137q-1 69 -45 119t-150 50q-218 1 -217 -284v-1104h-189z" />
    <glyph glyph-name="agrave" unicode="&#xe0;" 
d="M846 1376l-60 -102l-421 190l96 158zM535 117q166 0 264 149v266h-148q-317 0 -317 -215q0 -200 201 -200zM987 752v-508q-1 -63 19 -93t67 -45l-45 -131q-160 20 -205 152q-113 -152 -340 -152q-162 -1 -259 91t-97 252t134 249q134 90 380 90h158v84q0 209 -252 209
q-125 0 -283 -55l-49 139q187 70 375 70t292 -92t105 -260z" />
    <glyph glyph-name="aacute" unicode="&#xe1;" 
d="M426 1274l-61 102l385 244l96 -158zM535 117q166 0 264 149v266h-148q-317 0 -317 -215q0 -200 201 -200zM987 752v-508q-1 -63 19 -93t67 -45l-45 -131q-160 20 -205 152q-113 -152 -340 -152q-162 -1 -259 91t-97 252t134 249q134 90 380 90h158v84q0 209 -252 209
q-125 0 -283 -55l-49 139q187 70 375 70t292 -92t105 -260z" />
    <glyph glyph-name="acircumflex" unicode="&#xe2;" 
d="M600 1470l-256 -186l-86 90l279 248h125l276 -248l-82 -90zM535 117q166 0 264 149v266h-148q-317 0 -317 -215q0 -200 201 -200zM987 752v-508q-1 -63 19 -93t67 -45l-45 -131q-160 20 -205 152q-113 -152 -340 -152q-162 -1 -259 91t-97 252t134 249q134 90 380 90h158
v84q0 209 -252 209q-125 0 -283 -55l-49 139q187 70 375 70t292 -92t105 -260z" />
    <glyph glyph-name="atilde" unicode="&#xe3;" 
d="M709 1331q-66 0 -134 49t-92 50q-53 0 -104 -91l-117 54q76 180 232 180q70 0 136 -49t89 -49q53 0 104 90l117 -52q-77 -182 -231 -182zM535 117q166 0 264 149v266h-148q-317 0 -317 -215q0 -200 201 -200zM987 752v-508q-1 -63 19 -93t67 -45l-45 -131
q-160 20 -205 152q-113 -152 -340 -152q-162 -1 -259 91t-97 252t134 249q134 90 380 90h158v84q0 209 -252 209q-125 0 -283 -55l-49 139q187 70 375 70t292 -92t105 -260z" />
    <glyph glyph-name="adieresis" unicode="&#xe4;" 
d="M822 1325q-50 0 -84 33t-34 83t34 83q34 32 84 32t84 -32t34 -83q0 -50 -34 -83t-84 -33zM392 1325q-50 0 -84 33t-34 83t34 83q34 32 84 32t84 -32t34 -83q0 -50 -34 -83t-84 -33zM535 117q166 0 264 149v266h-148q-317 0 -317 -215q0 -200 201 -200zM987 752v-508
q-1 -63 19 -93t67 -45l-45 -131q-160 20 -205 152q-113 -152 -340 -152q-162 -1 -259 91t-97 252t134 249q134 90 380 90h158v84q0 209 -252 209q-125 0 -283 -55l-49 139q187 70 375 70t292 -92t105 -260z" />
    <glyph glyph-name="aring" unicode="&#xe5;" 
d="M840 1480q0 -92 -66 -154t-168 -62t-168 62t-66 154t66 153q66 63 168 63t168 -62t66 -154zM498 1479q0 -53 30 -84t79 -31q50 0 79 31t29 84t-29 84t-79 31t-80 -31q-29 -31 -29 -84zM535 117q166 0 264 149v266h-148q-317 0 -317 -215q0 -200 201 -200zM987 752v-508
q-1 -63 19 -93t67 -45l-45 -131q-160 20 -205 152q-113 -152 -340 -152q-162 -1 -259 91t-97 252t134 249q134 90 380 90h158v84q0 209 -252 209q-125 0 -283 -55l-49 139q187 70 375 70t292 -92t105 -260z" />
    <glyph glyph-name="ae" unicode="&#xe6;" 
d="M887 954q-94 0 -138 -76t-57 -264h373q-4 174 -44 257t-134 83zM326 117q66 0 113 45q48 45 104 145q-27 94 -27 225h-82q-135 0 -193 -55q-59 -55 -59 -155t39 -153q39 -52 105 -52zM916 127q100 0 204 80l84 -123q-135 -109 -289 -109q-201 0 -307 183
q-72 -98 -140 -141q-69 -42 -169 -42q-141 -1 -226 91t-85 252t110 250q111 89 326 89h92v84q0 213 -186 213q-86 0 -211 -55l-49 135q150 70 278 70q211 0 283 -176q63 176 258 176q352 0 352 -533q0 -43 -4 -96h-545q14 -180 68 -264q56 -84 156 -84z" />
    <glyph glyph-name="ccedilla" unicode="&#xe7;" 
d="M750 -289q0 51 -44 69t-135 17l15 187q-196 31 -304 177t-108 385q0 238 137 398t367 160t377 -121l-92 -127q-123 92 -269 92t-232 -105q-85 -105 -85 -308t84 -301q85 -98 233 -99q148 0 271 92l90 -129q-137 -111 -340 -121v-92q96 -8 144 -57t48 -131q1 -82 -73 -136
q-74 -55 -193 -55t-207 52l58 104q61 -33 137 -33q121 0 121 82z" />
    <glyph glyph-name="egrave" unicode="&#xe8;" 
d="M866 1376l-59 -102l-422 190l96 158zM631 954q-121 0 -196 -86t-85 -254h545q-3 166 -73 253t-191 87zM676 129q146 0 270 100l86 -125q-162 -129 -388 -129t-358 154t-132 406q0 253 129 411t341 158t332 -142t121 -391q0 -47 -4 -96h-723q12 -172 96 -259t230 -87z" />
    <glyph glyph-name="eacute" unicode="&#xe9;" 
d="M446 1274l-61 102l385 244l96 -158zM631 954q-121 0 -196 -86t-85 -254h545q-3 166 -73 253t-191 87zM676 129q146 0 270 100l86 -125q-162 -129 -388 -129t-358 154t-132 406q0 253 129 411t341 158t332 -142t121 -391q0 -47 -4 -96h-723q12 -172 96 -259t230 -87z" />
    <glyph glyph-name="ecircumflex" unicode="&#xea;" 
d="M629 1470l-256 -186l-86 90l278 248h125l277 -248l-82 -90zM631 954q-121 0 -196 -86t-85 -254h545q-3 166 -73 253t-191 87zM676 129q146 0 270 100l86 -125q-162 -129 -388 -129t-358 154t-132 406q0 253 129 411t341 158t332 -142t121 -391q0 -47 -4 -96h-723
q12 -172 96 -259t230 -87z" />
    <glyph glyph-name="edieresis" unicode="&#xeb;" 
d="M841 1325q-50 0 -84 33t-34 83t34 83q34 32 84 32t84 -32q33 -32 33 -83q0 -50 -34 -83t-83 -33zM411 1325q-50 0 -84 33t-34 83t34 83q34 32 84 32t84 -32q33 -32 33 -83q0 -50 -34 -83t-83 -33zM631 954q-121 0 -196 -86t-85 -254h545q-3 166 -73 253t-191 87zM676 129
q146 0 270 100l86 -125q-162 -129 -388 -129t-358 154t-132 406q0 253 129 411t341 158t332 -142t121 -391q0 -47 -4 -96h-723q12 -172 96 -259t230 -87z" />
    <glyph glyph-name="igrave" unicode="&#xec;" 
d="M809 1376l-59 -102l-422 190l96 158zM1059 145v-145h-819v145h329v789h-319v145h508v-934h301z" />
    <glyph glyph-name="iacute" unicode="&#xed;" 
d="M438 1274l-61 102l385 244l96 -158zM1059 145v-145h-819v145h329v789h-319v145h508v-934h301z" />
    <glyph glyph-name="icircumflex" unicode="&#xee;" 
d="M1059 145v-145h-819v145h329v789h-319v145h508v-934h301zM616 1470l-256 -186l-86 90l279 248h125l276 -248l-82 -90z" />
    <glyph glyph-name="idieresis" unicode="&#xef;" 
d="M1059 145v-145h-819v145h329v789h-319v145h508v-934h301zM828 1325q-50 0 -84 33t-34 83t34 83q34 32 84 32t84 -32t34 -83q0 -50 -34 -83t-84 -33zM398 1325q-50 0 -84 33t-34 83t34 83q34 32 84 32t84 -32t34 -83q0 -50 -34 -83t-84 -33z" />
    <glyph glyph-name="eth" unicode="&#xf0;" 
d="M905 545q0 70 -6 135q-104 158 -307 158q-115 0 -192 -88q-76 -88 -76 -262t76 -269q76 -94 209 -94q134 -1 215 107t81 313zM614 -25q-214 -1 -349 135q-134 136 -134 364t127 370q126 142 318 141q192 0 296 -125l7 2q-49 238 -254 385l-156 -160l-131 66l160 168
q-92 43 -234 72l41 143q190 -39 305 -98l144 151l110 -96l-125 -129q356 -244 357 -821q0 -258 -134 -413t-348 -155z" />
    <glyph glyph-name="ntilde" unicode="&#xf1;" 
d="M731 1331q-65 0 -133 49t-92 50q-53 0 -105 -91l-116 54q76 180 231 180q70 0 136 -49t89 -49q53 0 105 90l117 -52q-78 -182 -232 -182zM387 0h-188v1079h161l15 -147q66 82 161 127t193 45q303 0 303 -320v-784h-188v662q0 170 -33 232t-130 62t-171 -51t-123 -123
v-782z" />
    <glyph glyph-name="ograve" unicode="&#xf2;" 
d="M850 1376l-59 -102l-422 190l96 158zM143 536q0 260 124 414t350 154q225 0 347 -151t122 -409t-124 -414q-124 -155 -350 -155t-347 151q-122 151 -122 410zM344 540q0 -412 270 -413q270 0 271 413q0 413 -269 412q-272 0 -272 -412z" />
    <glyph glyph-name="oacute" unicode="&#xf3;" 
d="M438 1274l-61 102l385 244l96 -158zM143 536q0 260 124 414t350 154q225 0 347 -151t122 -409t-124 -414q-124 -155 -350 -155t-347 151q-122 151 -122 410zM344 540q0 -412 270 -413q270 0 271 413q0 413 -269 412q-272 0 -272 -412z" />
    <glyph glyph-name="ocircumflex" unicode="&#xf4;" 
d="M614 1470l-256 -186l-86 90l279 248h125l276 -248l-82 -90zM143 536q0 260 124 414t350 154q225 0 347 -151t122 -409t-124 -414q-124 -155 -350 -155t-347 151q-122 151 -122 410zM344 540q0 -412 270 -413q270 0 271 413q0 413 -269 412q-272 0 -272 -412z" />
    <glyph glyph-name="otilde" unicode="&#xf5;" 
d="M143 536q0 260 124 414t350 154q225 0 347 -151t122 -409t-124 -414q-124 -155 -350 -155t-347 151q-122 151 -122 410zM344 540q0 -412 270 -413q270 0 271 413q0 413 -269 412q-272 0 -272 -412zM723 1331q-65 0 -133 49t-92 50q-53 0 -105 -91l-117 54q76 180 232 180
q70 0 136 -49t89 -49q53 0 105 90l116 -52q-77 -182 -231 -182z" />
    <glyph glyph-name="odieresis" unicode="&#xf6;" 
d="M143 536q0 260 124 414t350 154q225 0 347 -151t122 -409t-124 -414q-124 -155 -350 -155t-347 151q-122 151 -122 410zM344 540q0 -412 270 -413q270 0 271 413q0 413 -269 412q-272 0 -272 -412zM830 1325q-50 0 -84 33t-34 83t34 83q34 32 84 32t84 -32t34 -83
q0 -50 -34 -83t-84 -33zM400 1325q-50 0 -84 33t-34 83t34 83q34 32 84 32t84 -32t34 -83q0 -50 -34 -83t-84 -33z" />
    <glyph glyph-name="divide" unicode="&#xf7;" 
d="M471 1047q0 59 42 100t101 41q60 0 102 -41t42 -100t-42 -101t-102 -41q-60 -1 -101 41q-42 42 -42 101zM471 236q0 59 42 100t101 41q60 0 102 -41t42 -100q0 -60 -42 -102t-102 -42t-101 42q-42 42 -42 102zM999 561h-770v158h770v-158z" />
    <glyph glyph-name="oslash" unicode="&#xf8;" 
d="M885 541q0 250 -99 346l-235 -754q27 -6 63 -6q271 0 271 414zM344 539q0 -258 100 -353l236 758q-31 6 -64 6q-272 1 -272 -411zM143 539q0 257 124 411t349 154q35 0 97 -8l78 245l153 -45l-84 -254q225 -135 225 -501q1 -256 -123 -411t-348 -155q-37 0 -98 9
l-76 -252l-153 45l84 258q-228 133 -228 504z" />
    <glyph glyph-name="ugrave" unicode="&#xf9;" 
d="M840 1376l-60 -102l-422 190l97 158zM199 1079h188v-762q0 -102 42 -148t128 -46t163 48t122 118v790h188v-1079h-162l-14 143q-62 -80 -154 -124t-190 -44q-154 0 -232 83t-79 237v784z" />
    <glyph glyph-name="uacute" unicode="&#xfa;" 
d="M471 1274l-61 102l385 244l96 -158zM199 1079h188v-762q0 -102 42 -148t128 -46t163 48t122 118v790h188v-1079h-162l-14 143q-62 -80 -154 -124t-190 -44q-154 0 -232 83t-79 237v784z" />
    <glyph glyph-name="ucircumflex" unicode="&#xfb;" 
d="M616 1470l-256 -186l-86 90l279 248h125l276 -248l-82 -90zM199 1079h188v-762q0 -102 42 -148t128 -46t163 48t122 118v790h188v-1079h-162l-14 143q-62 -80 -154 -124t-190 -44q-154 0 -232 83t-79 237v784z" />
    <glyph glyph-name="udieresis" unicode="&#xfc;" 
d="M830 1325q-50 0 -84 33t-34 83t34 83q34 32 84 32t84 -32t34 -83q0 -50 -34 -83t-84 -33zM400 1325q-50 0 -84 33t-34 83t34 83q34 32 84 32t84 -32t34 -83q0 -50 -34 -83t-84 -33zM199 1079h188v-762q0 -102 42 -148t128 -46t163 48t122 118v790h188v-1079h-162l-14 143
q-62 -80 -154 -124t-190 -44q-154 0 -232 83t-79 237v784z" />
    <glyph glyph-name="yacute" unicode="&#xfd;" 
d="M471 1274l-61 102l385 244l96 -158zM1110 1079l-377 -1085q-65 -190 -179 -300t-316 -130l-27 147q157 27 227 91t117 198h-63l-373 1079h200l295 -927h9l292 927h195z" />
    <glyph glyph-name="thorn" unicode="&#xfe;" 
d="M625 129q260 0 260 413t-238 412q-147 0 -260 -168v-526q86 -131 238 -131zM694 1104q391 0 391 -563q0 -256 -106 -411q-105 -155 -297 -155t-295 123v-512l-188 -22v1949l188 23v-588q121 156 307 156z" />
    <glyph glyph-name="ydieresis" unicode="&#xff;" 
d="M832 1325q-50 0 -84 33t-33 83q0 50 34 83q33 32 83 32t84 -32t34 -83q0 -50 -34 -83t-84 -33zM402 1325q-50 0 -84 33t-34 83t34 83q34 32 84 32t84 -32t34 -83q0 -50 -34 -83t-84 -33zM1110 1079l-377 -1085q-65 -190 -179 -300t-316 -130l-27 147q157 27 227 91
t117 198h-63l-373 1079h200l295 -927h9l292 927h195z" />
    <glyph glyph-name="Amacron" unicode="&#x100;" 
d="M893 1774v-144h-559v144h559zM606 1235l-221 -723h449l-220 723h-8zM989 0l-108 354h-543l-109 -354h-194l457 1411h245l457 -1411h-205z" />
    <glyph glyph-name="amacron" unicode="&#x101;" 
d="M881 1522v-142h-559v142h559zM535 117q166 0 264 149v266h-148q-317 0 -317 -215q0 -200 201 -200zM987 752v-508q-1 -63 19 -93t67 -45l-45 -131q-160 20 -205 152q-113 -152 -340 -152q-162 -1 -259 91t-97 252t134 249q134 90 380 90h158v84q0 209 -252 209
q-125 0 -283 -55l-49 139q187 70 375 70t292 -92t105 -260z" />
    <glyph glyph-name="Abreve" unicode="&#x102;" 
d="M611 1556q-134 0 -214 82t-94 187l125 26q41 -151 184 -151t185 151l125 -26q-14 -105 -96 -187t-215 -82zM606 1235l-221 -723h449l-220 723h-8zM989 0l-108 354h-543l-109 -354h-194l457 1411h245l457 -1411h-205z" />
    <glyph glyph-name="abreve" unicode="&#x103;" 
d="M597 1286q-132 0 -213 87t-95 200l125 26q49 -172 185 -172t185 172l125 -26q-14 -111 -97 -199t-215 -88zM535 117q166 0 264 149v266h-148q-317 0 -317 -215q0 -200 201 -200zM987 752v-508q-1 -63 19 -93t67 -45l-45 -131q-160 20 -205 152q-113 -152 -340 -152
q-162 -1 -259 91t-97 252t134 249q134 90 380 90h158v84q0 209 -252 209q-125 0 -283 -55l-49 139q187 70 375 70t292 -92t105 -260z" />
    <glyph glyph-name="Aogonek" unicode="&#x104;" 
d="M608 1235l-221 -723h449l-220 723h-8zM1012 -260q0 -109 131 -109q74 0 127 31l51 -111q-90 -45 -208 -45q-119 0 -189 62t-70 150q0 173 188 282h-51l-108 354h-543l-109 -354h-196l459 1411h245l457 -1411q-184 -111 -184 -260z" />
    <glyph glyph-name="aogonek" unicode="&#x105;" 
d="M535 117q166 0 264 149v266h-148q-317 0 -317 -215q0 -200 201 -200zM987 752v-508q-1 -63 19 -93t67 -45l-45 -131q-82 -43 -118 -111t-36 -124q0 -109 132 -109q76 0 124 31l52 -111q-90 -45 -207 -45t-188 62t-71 152q1 180 206 286q-72 39 -99 121
q-113 -152 -340 -152q-162 -1 -259 91t-97 252t134 249q134 90 380 90h158v84q0 209 -252 209q-125 0 -283 -55l-49 139q187 70 375 70t292 -92t105 -260z" />
    <glyph glyph-name="Cacute" unicode="&#x106;" 
d="M518 1546l-57 101l387 223l96 -158zM319 711q0 -295 113 -433t300 -139q187 0 325 121l100 -127q-170 -158 -438 -158q-268 -1 -437 191t-169 538t175 538q175 194 425 194t424 -140l-107 -125q-125 105 -303 105t-293 -135t-115 -430z" />
    <glyph glyph-name="cacute" unicode="&#x107;" 
d="M485 1274l-61 102l385 244l96 -158zM377 535q0 -203 84 -301q85 -98 233 -99q148 0 271 92l90 -129q-151 -123 -381 -123t-365 152t-135 405q0 252 137 412t367 160t377 -121l-92 -127q-123 92 -269 92t-232 -105q-85 -105 -85 -308z" />
    <glyph glyph-name="Ccircumflex" unicode="&#x108;" 
d="M719 1720l-258 -166l-82 93l278 227h125l277 -227l-80 -93zM319 711q0 -295 113 -433t300 -139q187 0 325 121l100 -127q-170 -158 -438 -158q-268 -1 -437 191t-169 538t175 538q175 194 425 194t424 -140l-107 -125q-125 105 -303 105t-293 -135t-115 -430z" />
    <glyph glyph-name="ccircumflex" unicode="&#x109;" 
d="M666 1470l-256 -186l-86 90l278 248h125l277 -248l-82 -90zM377 535q0 -203 84 -301q85 -98 233 -99q148 0 271 92l90 -129q-151 -123 -381 -123t-365 152t-135 405q0 252 137 412t367 160t377 -121l-92 -127q-123 92 -269 92t-232 -105q-85 -105 -85 -308z" />
    <glyph glyph-name="Cdotaccent" unicode="&#x10a;" 
d="M848 1714q0 -55 -37 -92t-94 -37t-94 37t-37 92t37 91t94 36t94 -36t37 -91zM319 711q0 -295 113 -433t300 -139q187 0 325 121l100 -127q-170 -158 -438 -158q-268 -1 -437 191t-169 538t175 538q175 194 425 194t424 -140l-107 -125q-125 105 -303 105t-293 -135
t-115 -430z" />
    <glyph glyph-name="cdotaccent" unicode="&#x10b;" 
d="M797 1464q0 -55 -37 -92t-95 -37t-96 37q-37 37 -37 92t37 91t95 36t96 -36q37 -36 37 -91zM377 535q0 -203 84 -301q85 -98 233 -99q148 0 271 92l90 -129q-151 -123 -381 -123t-365 152t-135 405q0 252 137 412t367 160t377 -121l-92 -127q-123 92 -269 92t-232 -105
q-85 -105 -85 -308z" />
    <glyph glyph-name="Ccaron" unicode="&#x10c;" 
d="M461 1874l260 -168l258 168l80 -92l-277 -228h-125l-278 228zM319 711q0 -295 113 -433t300 -139q187 0 325 121l100 -127q-170 -158 -438 -158q-268 -1 -437 191t-169 538t175 538q175 194 425 194t424 -140l-107 -125q-125 105 -303 105t-293 -135t-115 -430z" />
    <glyph glyph-name="ccaron" unicode="&#x10d;" 
d="M410 1622l256 -186l256 186l82 -90l-277 -248h-125l-278 248zM377 535q0 -203 84 -301q85 -98 233 -99q148 0 271 92l90 -129q-151 -123 -381 -123t-365 152t-135 405q0 252 137 412t367 160t377 -121l-92 -127q-123 92 -269 92t-232 -105q-85 -105 -85 -308z" />
    <glyph glyph-name="Dcaron" unicode="&#x10e;" 
d="M299 1874l260 -168l258 168l80 -92l-276 -228h-125l-279 228zM1137 713q0 -170 -39 -300q-38 -130 -100 -207q-165 -206 -504 -206h-330v1411h307q109 0 198 -15q89 -16 179 -62t151 -122t99 -202t39 -297zM930 713q0 340 -137 452q-67 53 -131 71t-148 19h-156v-1101
h158q414 0 414 559z" />
    <glyph glyph-name="dcaron" unicode="&#x10f;" 
d="M1049 1555q1 53 35 85t83 33q49 0 83 -33q34 -32 34 -80t-35 -118l-102 -217h-109l58 239q-47 38 -47 91zM72 533q0 255 114 413t300 158t294 -125v557l189 -23v-1513h-166l-17 139q-114 -164 -312 -164t-300 151t-102 407zM545 954q-271 0 -271 -414t250 -415
q147 0 256 166v530q-90 133 -235 133z" />
    <glyph glyph-name="Dcroat" unicode="&#x110;" 
d="M942 713q0 340 -137 452q-67 53 -131 71t-148 19h-155v-460h352v-144h-352v-497h157q414 0 414 559zM1149 713q0 -170 -39 -300t-100 -207q-163 -206 -504 -206h-330v651h-147v144h147v616h307q109 0 198 -15q89 -16 179 -62t152 -122t99 -202q38 -126 38 -297z" />
    <glyph glyph-name="dcroat" unicode="&#x111;" 
d="M596 954q-270 0 -270 -414t249 -415q147 0 256 166v530q-90 133 -235 133zM123 533q-1 255 113 413t300 158t295 -125v244h-339v143h339v170l189 -23v-147h162v-143h-162v-1223h-166l-16 139q-115 -164 -313 -164t-300 151t-102 407z" />
    <glyph glyph-name="Emacron" unicode="&#x112;" 
d="M913 1774v-144h-559v144h559zM424 1255v-460h520v-156h-520v-485h637v-154h-832v1411h815l-22 -156h-598z" />
    <glyph glyph-name="emacron" unicode="&#x113;" 
d="M905 1522v-142h-559v142h559zM631 954q-121 0 -196 -86t-85 -254h545q-3 166 -73 253t-191 87zM676 129q146 0 270 100l86 -125q-162 -129 -388 -129t-358 154t-132 406q0 253 129 411t341 158t332 -142t121 -391q0 -47 -4 -96h-723q12 -172 96 -259t230 -87z" />
    <glyph glyph-name="Ebreve" unicode="&#x114;" 
d="M634 1556q-134 0 -214 82t-94 187l125 26q41 -151 184 -151t184 151l125 -26q-14 -105 -95 -187t-215 -82zM424 1255v-460h520v-156h-520v-485h637v-154h-832v1411h815l-22 -156h-598z" />
    <glyph glyph-name="ebreve" unicode="&#x115;" 
d="M626 1286q-132 0 -213 87t-96 200l125 26q50 -172 186 -172t185 172l125 -26q-14 -111 -97 -199t-215 -88zM631 954q-121 0 -196 -86t-85 -254h545q-3 166 -73 253t-191 87zM676 129q146 0 270 100l86 -125q-162 -129 -388 -129t-358 154t-132 406q0 253 129 411t341 158
t332 -142t121 -391q0 -47 -4 -96h-723q12 -172 96 -259t230 -87z" />
    <glyph glyph-name="Edotaccent" unicode="&#x116;" 
d="M766 1714q0 -55 -37 -92t-94 -37t-94 37t-37 92t37 91t94 36t94 -36t37 -91zM424 1255v-460h520v-156h-520v-485h637v-154h-832v1411h815l-22 -156h-598z" />
    <glyph glyph-name="edotaccent" unicode="&#x117;" 
d="M758 1464q0 -55 -37 -92t-95 -37t-96 37q-37 37 -36 92q0 55 36 91q38 36 96 36t95 -36t37 -91zM631 954q-121 0 -196 -86t-85 -254h545q-3 166 -73 253t-191 87zM676 129q146 0 270 100l86 -125q-162 -129 -388 -129t-358 154t-132 406q0 253 129 411t341 158t332 -142
t121 -391q0 -47 -4 -96h-723q12 -172 96 -259t230 -87z" />
    <glyph glyph-name="Eogonek" unicode="&#x118;" 
d="M342 1255v-460h520v-156h-520v-485h637v-154q-182 -106 -182 -260q0 -109 131 -109q74 0 127 31l51 -111q-90 -45 -208 -45t-188 62t-71 150q0 173 188 282h-680v1411h816l-23 -156h-598z" />
    <glyph glyph-name="eogonek" unicode="&#x119;" 
d="M631 954q-121 0 -196 -86t-85 -254h545q-3 166 -73 253t-191 87zM676 129q146 0 270 100l86 -125q-266 -186 -266 -364q0 -109 131 -109q74 0 127 31l51 -111q-89 -45 -207 -45t-189 62t-71 166q0 72 48 142t132 124q-72 -25 -133 -25q-237 0 -369 154t-132 406
q0 253 129 411t341 158t332 -142t121 -391q0 -47 -4 -96h-723q12 -172 96 -259t230 -87z" />
    <glyph glyph-name="Ecaron" unicode="&#x11a;" 
d="M377 1874l260 -168l258 168l80 -92l-277 -228h-125l-278 228zM424 1255v-460h520v-156h-520v-485h637v-154h-832v1411h815l-22 -156h-598z" />
    <glyph glyph-name="ecaron" unicode="&#x11b;" 
d="M373 1622l256 -186l256 186l82 -90l-277 -248h-125l-278 248zM631 954q-121 0 -196 -86t-85 -254h545q-3 166 -73 253t-191 87zM676 129q146 0 270 100l86 -125q-162 -129 -388 -129t-358 154t-132 406q0 253 129 411t341 158t332 -142t121 -391q0 -47 -4 -96h-723
q12 -172 96 -259t230 -87z" />
    <glyph glyph-name="Gcircumflex" unicode="&#x11c;" 
d="M680 1720l-258 -166l-82 93l278 227h125l277 -227l-80 -93zM655 -25q-251 1 -399 187t-147 538q0 352 175 544t418 192q138 0 230 -38t182 -120l-115 -119q-125 117 -293 117t-280 -136q-111 -136 -111 -434q1 -298 91 -434t274 -137q139 0 258 66v417h-266l-23 158h481
v-676q-224 -125 -475 -125z" />
    <glyph glyph-name="gcircumflex" unicode="&#x11d;" 
d="M598 1470l-256 -186l-86 90l279 248h124l277 -248l-82 -90zM342 724q0 -108 65 -174t173 -67q108 0 171 66q62 67 62 181t-60 176t-172 62q-111 0 -175 -68t-64 -176zM580 -289q310 0 309 166q1 70 -57 105t-235 42q-384 15 -384 218q0 109 109 182q-172 100 -172 301
q0 163 118 271t312 108q281 0 495 96l55 -170q-102 -33 -303 -33v-6q80 -37 126 -107t46 -161q1 -160 -113 -262t-302 -103q-82 0 -150 19q-45 -39 -45 -88t53 -73t213 -28q424 -12 424 -301q0 -163 -140 -243q-141 -80 -373 -80t-348 72t-116 194q0 95 41 158l146 -39
q-18 -41 -19 -84q0 -154 310 -154z" />
    <glyph glyph-name="Gbreve" unicode="&#x11e;" 
d="M675 1556q-134 0 -214 82t-94 187l125 26q41 -151 184 -151t184 151l125 -26q-14 -105 -95 -187t-215 -82zM655 -25q-251 1 -399 187t-147 538q0 352 175 544t418 192q138 0 230 -38t182 -120l-115 -119q-125 117 -293 117t-280 -136q-111 -136 -111 -434q1 -298 91 -434
t274 -137q139 0 258 66v417h-266l-23 158h481v-676q-224 -125 -475 -125z" />
    <glyph glyph-name="gbreve" unicode="&#x11f;" 
d="M595 1286q-132 0 -213 87t-95 200l125 26q49 -172 185 -172t185 172l125 -26q-14 -111 -97 -199t-215 -88zM342 724q0 -108 65 -174t173 -67q108 0 171 66q62 67 62 181t-60 176t-172 62q-111 0 -175 -68t-64 -176zM580 -289q310 0 309 166q1 70 -57 105t-235 42
q-384 15 -384 218q0 109 109 182q-172 100 -172 301q0 163 118 271t312 108q281 0 495 96l55 -170q-102 -33 -303 -33v-6q80 -37 126 -107t46 -161q1 -160 -113 -262t-302 -103q-82 0 -150 19q-45 -39 -45 -88t53 -73t213 -28q424 -12 424 -301q0 -163 -140 -243
q-141 -80 -373 -80t-348 72t-116 194q0 95 41 158l146 -39q-18 -41 -19 -84q0 -154 310 -154z" />
    <glyph glyph-name="Gdotaccent" unicode="&#x120;" 
d="M809 1714q0 -55 -37 -92t-94 -37t-94 37t-37 92t37 91t94 36t94 -36t37 -91zM655 -25q-251 1 -399 187t-147 538q0 352 175 544t418 192q138 0 230 -38t182 -120l-115 -119q-125 117 -293 117t-280 -136q-111 -136 -111 -434q1 -298 91 -434t274 -137q139 0 258 66v417
h-266l-23 158h481v-676q-224 -125 -475 -125z" />
    <glyph glyph-name="gdotaccent" unicode="&#x121;" 
d="M731 1464q0 -55 -37 -92t-95 -37t-95 37t-37 92t37 91t95 36t95 -36t37 -91zM342 724q0 -108 65 -174t173 -67q108 0 171 66q62 67 62 181t-60 176t-172 62q-111 0 -175 -68t-64 -176zM580 -289q310 0 309 166q1 70 -57 105t-235 42q-384 15 -384 218q0 109 109 182
q-172 100 -172 301q0 163 118 271t312 108q281 0 495 96l55 -170q-102 -33 -303 -33v-6q80 -37 126 -107t46 -161q1 -160 -113 -262t-302 -103q-82 0 -150 19q-45 -39 -45 -88t53 -73t213 -28q424 -12 424 -301q0 -163 -140 -243q-141 -80 -373 -80t-348 72t-116 194
q0 95 41 158l146 -39q-18 -41 -19 -84q0 -154 310 -154z" />
    <glyph glyph-name="uni0122" unicode="&#x122;" 
d="M569 -263q0 54 34 87t83 33t83 -33t34 -81t-33 -120l-102 -217h-111l59 240q-47 37 -47 91zM655 -25q-251 1 -399 187t-147 538q0 352 175 544t418 192q138 0 230 -38t182 -120l-115 -119q-125 117 -293 117t-280 -136q-111 -136 -111 -434q1 -298 91 -434t274 -137
q139 0 258 66v417h-266l-23 158h481v-676q-224 -125 -475 -125z" />
    <glyph glyph-name="uni0123" unicode="&#x123;" 
d="M709 1436q0 -53 -35 -87t-84 -34t-83 34t-34 82t35 117l102 217h109l-57 -239q47 -37 47 -90zM342 724q0 -108 65 -174t173 -67q108 0 171 66q62 67 62 181t-60 176t-172 62q-111 0 -175 -68t-64 -176zM580 -289q310 0 309 166q1 70 -57 105t-235 42q-384 15 -384 218
q0 109 109 182q-172 100 -172 301q0 163 118 271t312 108q281 0 495 96l55 -170q-102 -33 -303 -33v-6q80 -37 126 -107t46 -161q1 -160 -113 -262t-302 -103q-82 0 -150 19q-45 -39 -45 -88t53 -73t213 -28q424 -12 424 -301q0 -163 -140 -243q-141 -80 -373 -80t-348 72
t-116 194q0 95 41 158l146 -39q-18 -41 -19 -84q0 -154 310 -154z" />
    <glyph glyph-name="Hcircumflex" unicode="&#x124;" 
d="M614 1720l-258 -166l-82 93l279 227h125l276 -227l-80 -93zM1065 0h-195v662h-512v-662h-194v1411h194v-590h512v590h195v-1411z" />
    <glyph glyph-name="hcircumflex" unicode="&#x125;" 
d="M612 1761l-258 -166l-82 93l279 227h125l276 -227l-80 -93zM387 0h-188v1511l188 21v-590q63 76 155 119t187 43q303 0 303 -320v-784h-188v772q0 96 -43 140t-130 44t-161 -51t-123 -123v-782z" />
    <glyph glyph-name="Hbar" unicode="&#x126;" 
d="M358 821h512v219h-512v-219zM1065 0h-195v662h-512v-662h-194v1040h-158v142h158v229h194v-229h512v229h195v-229h160v-142h-160v-1040z" />
    <glyph glyph-name="hbar" unicode="&#x127;" 
d="M399 0h-188v1223h-162v143h162v145l188 21v-166h340v-143h-340v-281q63 76 155 119t187 43q303 0 303 -320v-784h-188v772q0 96 -43 140t-130 44t-161 -51t-123 -123v-782z" />
    <glyph glyph-name="Itilde" unicode="&#x128;" 
d="M723 1583q-65 0 -133 49t-96 49t-52 -20q-23 -20 -49 -70l-117 51q78 182 232 183q70 0 136 -49q66 -50 94 -50t50 20t50 69l116 -52q-79 -180 -231 -180zM1024 1411v-154h-311v-1103h311v-154h-819v154h311v1103h-311v154h819z" />
    <glyph glyph-name="itilde" unicode="&#x129;" 
d="M702 1331q-66 0 -134 49t-91 50q-53 0 -104 -91l-117 54q76 180 231 180q70 0 136 -49t90 -49q53 0 104 90l117 -52q-78 -182 -232 -182zM1059 145v-145h-819v145h329v789h-319v145h508v-934h301z" />
    <glyph glyph-name="Imacron" unicode="&#x12a;" 
d="M893 1774v-144h-559v144h559zM1024 1411v-154h-311v-1103h311v-154h-819v154h311v1103h-311v154h819z" />
    <glyph glyph-name="imacron" unicode="&#x12b;" 
d="M1059 145v-145h-819v145h329v789h-319v145h508v-934h301zM872 1522v-142h-559v142h559z" />
    <glyph glyph-name="Ibreve" unicode="&#x12c;" 
d="M613 1556q-134 0 -214 82t-94 187l125 26q41 -151 184 -151t185 151l125 -26q-14 -105 -96 -187t-215 -82zM1024 1411v-154h-311v-1103h311v-154h-819v154h311v1103h-311v154h819z" />
    <glyph glyph-name="ibreve" unicode="&#x12d;" 
d="M1059 145v-145h-819v145h329v789h-319v145h508v-934h301zM611 1286q-132 0 -213 87t-95 200l125 26q49 -172 185 -172t186 172l125 -26q-14 -111 -98 -199t-215 -88z" />
    <glyph glyph-name="Iogonek" unicode="&#x12e;" 
d="M1024 1411v-154h-311v-1103h311v-154h-311q-182 -106 -183 -260q0 -109 132 -109q74 0 126 31l52 -111q-90 -45 -208 -45t-189 62t-70 166q0 74 50 144t138 122h-356v154h311v1103h-311v154h819z" />
    <glyph glyph-name="iogonek" unicode="&#x12f;" 
d="M797 1463q0 -54 -38 -91t-95 -37t-95 37q-37 37 -37 92t37 91t95 36t95 -37q38 -37 38 -91zM1059 145v-145h-297q-182 -106 -182 -260q0 -109 131 -109q74 0 127 31l51 -111q-90 -45 -208 -45q-119 0 -189 62t-70 150q0 173 188 282h-370v145h329v789h-319v145h508v-934
h301z" />
    <glyph glyph-name="Idotaccent" unicode="&#x130;" 
d="M745 1714q-1 -55 -37 -92t-94 -37t-94 37q-37 37 -37 92t37 91t94 36t94 -36t37 -91zM1026 1411v-154h-311v-1103h311v-154h-819v154h311v1103h-311v154h819z" />
    <glyph glyph-name="dotlessi" unicode="&#x131;" 
d="M1059 145v-145h-819v145h329v789h-319v145h508v-934h301z" />
    <glyph glyph-name="IJ" unicode="&#x132;" 
d="M911 1257h-483v-1103h158v-154h-553v154h198v1103h-198v154h1073v-1030q0 -233 -162 -405t-491 -261l-47 146q270 86 388 205t117 323v868z" />
    <glyph glyph-name="ij" unicode="&#x133;" 
d="M1073 1463q0 -54 -38 -91t-95 -37t-94 37t-37 92t37 91t94 36t95 -37t38 -91zM397 1591q57 0 95 -37t38 -91t-38 -91t-94 -37q-58 0 -95 37t-37 92t37 91t94 36zM672 145v-145h-555v145h186v793h-176v141h928v-952q1 -217 -141 -350t-392 -213l-57 145q297 109 373 257
q33 67 32 149v823h-385v-793h187z" />
    <glyph glyph-name="Jcircumflex" unicode="&#x134;" 
d="M600 1720l-258 -166l-82 93l279 227h125l276 -227l-80 -93zM922 1411v-1030q0 -233 -162 -405t-492 -261l-47 146q270 86 388 205t118 323v868h-502v154h697z" />
    <glyph glyph-name="jcircumflex" unicode="&#x135;" 
d="M586 115v819h-350v145h538v-952q0 -217 -141 -350t-391 -213l-58 145q169 63 285 152q117 88 117 254zM616 1470l-256 -186l-86 90l279 248h125l276 -248l-82 -90z" />
    <glyph glyph-name="uni0136" unicode="&#x136;" 
d="M514 -260q0 51 35 84t84 33t83 -33t34 -81t-35 -118l-103 -217h-108l59 238q-49 43 -49 94zM967 0l-557 754l536 657h221l-534 -645l573 -766h-239zM399 1411v-1411h-194v1411h194z" />
    <glyph glyph-name="uni0137" unicode="&#x137;" 
d="M481 -263q0 54 34 87t83 33t83 -33t34 -81t-33 -120l-102 -217h-111l59 240q-47 37 -47 91zM907 0l-501 590l454 489h236l-461 -485l514 -594h-242zM387 0h-188v1513l188 23v-1536z" />
    <glyph glyph-name="kgreenlandic" unicode="&#x138;" 
d="M907 0l-501 578l454 501h236l-465 -489l518 -590h-242zM387 0h-188v1079h188v-1079z" />
    <glyph glyph-name="Lacute" unicode="&#x139;" 
d="M260 1546l-57 101l387 223l96 -158zM268 0v1411h195v-1241h641l-23 -170h-813z" />
    <glyph glyph-name="lacute" unicode="&#x13a;" 
d="M340 1587l-57 101l387 223l96 -158zM426 291v1077h-330v145h518v-1239q0 -143 174 -143q85 0 179 37l49 -135q-102 -57 -257 -57t-244 83q-89 84 -89 232z" />
    <glyph glyph-name="uni013B" unicode="&#x13b;" 
d="M549 -260q0 51 35 84t84 33t83 -33q65 -63 -1 -199l-103 -217h-108l59 238q-49 43 -49 94zM268 0v1411h195v-1241h641l-23 -170h-813z" />
    <glyph glyph-name="uni013C" unicode="&#x13c;" 
d="M594 -263q0 54 34 87t83 33t83 -33q63 -61 1 -201l-103 -217h-110l59 240q-47 37 -47 91zM426 291v1077h-330v145h518v-1239q0 -143 174 -143q85 0 179 37l49 -135q-102 -57 -257 -57t-244 83q-89 84 -89 232z" />
    <glyph glyph-name="Lcaron" unicode="&#x13d;" 
d="M643 1299q0 53 35 85t84 33q49 0 83 -33q34 -32 34 -80t-35 -118l-103 -217h-108l57 239q-47 38 -47 91zM268 0v1411h195v-1241h641l-23 -170h-813z" />
    <glyph glyph-name="lcaron" unicode="&#x13e;" 
d="M803 1555q0 53 35 85t84 33q49 0 83 -33q65 -63 -1 -198l-103 -217h-108l57 239q-47 38 -47 91zM426 291v1077h-330v145h518v-1239q0 -143 174 -143q85 0 179 37l49 -135q-102 -57 -257 -57t-244 83q-89 84 -89 232z" />
    <glyph glyph-name="Ldot" unicode="&#x13f;" 
d="M977 739q0 -55 -37 -92t-95 -37t-95 37t-37 92t37 91t95 36t95 -36t37 -91zM268 0v1411h195v-1241h641l-23 -170h-813z" />
    <glyph glyph-name="ldot" unicode="&#x140;" 
d="M985 735q0 -55 -37 -92t-95 -37t-95 37t-37 92t37 91t95 36t95 -36t37 -91zM426 291v1077h-330v145h518v-1239q0 -143 174 -143q85 0 179 37l49 -135q-102 -57 -257 -57t-244 83q-89 84 -89 232z" />
    <glyph glyph-name="Lslash" unicode="&#x141;" 
d="M268 0v541l-114 -72l-78 123l192 117v702h195v-582l328 205l79 -121l-407 -251v-492h641l-23 -170h-813z" />
    <glyph glyph-name="lslash" unicode="&#x142;" 
d="M426 291v325l-133 -81l-78 118l211 127v588h-330v145h518v-616l179 111l77 -119l-256 -158v-457q0 -143 174 -143q85 0 179 37l49 -135q-102 -57 -257 -57t-244 83q-89 84 -89 232z" />
    <glyph glyph-name="Nacute" unicode="&#x143;" 
d="M471 1546l-57 101l387 223l96 -158zM1065 0h-266l-475 1194h-9q27 -213 27 -506v-688h-178v1411h260l481 -1200h8q-27 213 -26 512v688h178v-1411z" />
    <glyph glyph-name="nacute" unicode="&#x144;" 
d="M461 1274l-62 102l385 244l97 -158zM387 0h-188v1079h161l15 -147q66 82 161 127t193 45q303 0 303 -320v-784h-188v662q0 170 -33 232t-130 62t-171 -51t-123 -123v-782z" />
    <glyph glyph-name="uni0145" unicode="&#x145;" 
d="M494 -260q0 51 34 84q35 33 84 33t83 -33t34 -81t-35 -118l-102 -217h-109l60 238q-49 43 -49 94zM1065 0h-266l-475 1194h-9q27 -213 27 -506v-688h-178v1411h260l481 -1200h8q-27 213 -26 512v688h178v-1411z" />
    <glyph glyph-name="uni0146" unicode="&#x146;" 
d="M498 -263q0 54 33 87q34 33 83 33t83 -33t34 -81t-33 -120l-102 -217h-111l60 240q-47 37 -47 91zM387 0h-188v1079h161l15 -147q66 82 161 127t193 45q303 0 303 -320v-784h-188v662q0 170 -33 232t-130 62t-171 -51t-123 -123v-782z" />
    <glyph glyph-name="Ncaron" unicode="&#x147;" 
d="M352 1874l260 -168l258 168l80 -92l-276 -228h-125l-279 228zM1065 0h-266l-475 1194h-9q27 -213 27 -506v-688h-178v1411h260l481 -1200h8q-27 213 -26 512v688h178v-1411z" />
    <glyph glyph-name="ncaron" unicode="&#x148;" 
d="M371 1622l256 -186l256 186l82 -90l-277 -248h-125l-278 248zM387 0h-188v1079h161l15 -147q66 82 161 127t193 45q303 0 303 -320v-784h-188v662q0 170 -33 232t-130 62t-171 -51t-123 -123v-782z" />
    <glyph glyph-name="napostrophe" unicode="&#x149;" 
d="M94 1647q0 53 35 86t84 33t83 -34q34 -32 34 -80t-35 -118l-102 -217h-109l57 239q-47 38 -47 91zM387 0h-188v1079h161l15 -147q66 82 161 127t193 45q303 0 303 -320v-784h-188v662q0 170 -33 232t-130 62t-171 -51t-123 -123v-782z" />
    <glyph glyph-name="Eng" unicode="&#x14a;" 
d="M1065 0q0 -168 -93 -271t-274 -165l-49 147q133 51 180 116t48 173h-78l-475 1194h-9q27 -213 27 -506v-688h-178v1411h260l481 -1200h8q-27 213 -26 512v688h178v-1411z" />
    <glyph glyph-name="eng" unicode="&#x14b;" 
d="M1032 784v-718q0 -279 -144 -396q-65 -51 -186 -104l-69 137q119 55 165 122t46 228v609q0 170 -33 232t-130 62t-171 -51t-123 -123v-782h-188v1079h161l15 -147q66 82 161 127t193 45q303 -1 303 -320z" />
    <glyph glyph-name="Omacron" unicode="&#x14c;" 
d="M893 1774v-144h-559v144h559zM936 705q0 287 -77 429t-245 142t-244 -143t-77 -431q0 -567 321 -567q168 -1 245 141t77 429zM615 1436q253 0 389 -196t135 -532q0 -335 -135 -534q-136 -199 -390 -199t-389 196q-135 195 -135 529t136 535t389 201z" />
    <glyph glyph-name="omacron" unicode="&#x14d;" 
d="M143 536q0 260 124 414t350 154q225 0 347 -151t122 -409t-124 -414q-124 -155 -350 -155t-347 151q-122 151 -122 410zM344 540q0 -412 270 -413q270 0 271 413q0 413 -269 412q-272 0 -272 -412zM893 1522v-142h-559v142h559z" />
    <glyph glyph-name="Obreve" unicode="&#x14e;" 
d="M611 1556q-134 0 -214 82t-94 187l125 26q41 -151 184 -151t185 151l125 -26q-14 -105 -96 -187t-215 -82zM936 705q0 287 -77 429t-245 142t-244 -143t-77 -431q0 -567 321 -567q168 -1 245 141t77 429zM615 1436q253 0 389 -196t135 -532q0 -335 -135 -534
q-136 -199 -390 -199t-389 196q-135 195 -135 529t136 535t389 201z" />
    <glyph glyph-name="obreve" unicode="&#x14f;" 
d="M611 1286q-132 0 -213 87t-95 200l125 26q49 -172 185 -172t186 172l125 -26q-14 -111 -98 -199t-215 -88zM143 536q0 260 124 414t350 154q225 0 347 -151t122 -409t-124 -414q-124 -155 -350 -155t-347 151q-122 151 -122 410zM344 540q0 -412 270 -413q270 0 271 413
q0 413 -269 412q-272 0 -272 -412z" />
    <glyph glyph-name="Ohungarumlaut" unicode="&#x150;" 
d="M850 1563l-115 59l183 360l157 -81zM518 1567l-119 55l164 360l160 -75zM936 705q0 287 -77 429t-245 142t-244 -143t-77 -431q0 -567 321 -567q168 -1 245 141t77 429zM615 1436q253 0 389 -196t135 -532q0 -335 -135 -534q-136 -199 -390 -199t-389 196
q-135 195 -135 529t136 535t389 201z" />
    <glyph glyph-name="ohungarumlaut" unicode="&#x151;" 
d="M143 536q0 260 124 414t350 154q225 0 347 -151t122 -409t-124 -414q-124 -155 -350 -155t-347 151q-122 151 -122 410zM344 540q0 -412 270 -413q270 0 271 413q0 413 -269 412q-272 0 -272 -412zM745 1296l-114 60l182 360l158 -82zM414 1300l-119 56l164 360l159 -76z
" />
    <glyph glyph-name="OE" unicode="&#x152;" 
d="M1169 793v-154h-307q-8 -334 -135 -485h533v-154h-678q-80 -25 -146 -25q-436 0 -436 727q0 356 110 544t326 190q76 0 152 -25h655l-22 -154h-486q113 -141 127 -464h307zM439 129q121 1 179 135t58 442t-56 441t-182 133t-181 -135q-56 -135 -56 -441t58 -440
q58 -135 180 -135z" />
    <glyph glyph-name="oe" unicode="&#x153;" 
d="M912 954q-91 0 -135 -76t-56 -264h360q-4 176 -41 258t-128 82zM364 954q-94 0 -136 -100t-42 -317t41 -313t137 -97t136 93q39 94 39 315t-40 320t-135 99zM918 1104q340 0 339 -533q0 -43 -4 -96h-532q14 -182 66 -265q53 -83 149 -83t201 80l84 -123
q-135 -109 -283 -109q-221 0 -307 203q-41 -98 -109 -150t-178 -53q-176 1 -263 149t-87 412t86 416t264 152q118 0 184 -52t105 -155q86 207 285 207z" />
    <glyph glyph-name="Racute" unicode="&#x154;" 
d="M438 1546l-57 101l387 223l96 -158zM899 1012q0 131 -76 189t-235 59h-195v-512h197q309 0 309 264zM1106 1012q0 -152 -93 -251t-245 -138l414 -623h-232l-377 598h-180v-598h-194v1411h370q537 0 537 -399z" />
    <glyph glyph-name="racute" unicode="&#x155;" 
d="M477 1274l-61 102l385 244l96 -158zM926 145v-145h-738v145h248v789h-248v145h412l23 -207q45 111 127 171q82 61 162 61t161 -17l-35 -186q-68 18 -131 19q-96 0 -175 -84t-107 -203v-488h301z" />
    <glyph glyph-name="uni0156" unicode="&#x156;" 
d="M500 -260q0 51 35 84t83 33t83 -33q34 -33 34 -81t-35 -118l-102 -217h-109l60 238q-49 43 -49 94zM899 1012q0 131 -76 189t-235 59h-195v-512h197q309 0 309 264zM1106 1012q0 -152 -93 -251t-245 -138l414 -623h-232l-377 598h-180v-598h-194v1411h370q537 0 537 -399
z" />
    <glyph glyph-name="uni0157" unicode="&#x157;" 
d="M436 -263q0 54 34 87t83 33t83 -33t34 -81t-33 -120l-102 -217h-111l59 240q-47 37 -47 91zM926 145v-145h-738v145h248v789h-248v145h412l23 -207q45 111 127 171q82 61 162 61t161 -17l-35 -186q-68 18 -131 19q-96 0 -175 -84t-107 -203v-488h301z" />
    <glyph glyph-name="Rcaron" unicode="&#x158;" 
d="M332 1874l260 -168l258 168l80 -92l-277 -228h-125l-278 228zM899 1012q0 131 -76 189t-235 59h-195v-512h197q309 0 309 264zM1106 1012q0 -152 -93 -251t-245 -138l414 -623h-232l-377 598h-180v-598h-194v1411h370q537 0 537 -399z" />
    <glyph glyph-name="rcaron" unicode="&#x159;" 
d="M356 1622l256 -186l256 186l82 -90l-276 -248h-125l-279 248zM926 145v-145h-738v145h248v789h-248v145h412l23 -207q45 111 127 171q82 61 162 61t161 -17l-35 -186q-68 18 -131 19q-96 0 -175 -84t-107 -203v-488h301z" />
    <glyph glyph-name="Sacute" unicode="&#x15a;" 
d="M453 1546l-58 101l387 223l97 -158zM592 -25q-322 0 -510 183l113 125q158 -147 391 -148q133 0 225 66t92 176q0 111 -63 167t-262 118t-309 155q-109 94 -109 253t130 262t335 104q272 0 456 -164l-110 -123q-145 127 -338 127q-121 0 -198 -52t-77 -144t71 -146
q71 -52 215 -98t210 -74t128 -78q124 -98 124 -288t-137 -306q-137 -115 -377 -115z" />
    <glyph glyph-name="sacute" unicode="&#x15b;" 
d="M430 1274l-61 102l385 244l96 -158zM563 127q119 0 189 44t70 123t-49 118q-48 39 -219 83q-171 43 -259 111t-88 202t115 215q114 81 316 81t361 -115l-84 -127q-129 92 -286 92q-227 0 -228 -137q1 -67 57 -101t227 -82t255 -117t84 -223t-133 -237q-133 -82 -328 -82
q-268 0 -438 148l104 119q139 -115 334 -115z" />
    <glyph glyph-name="Scircumflex" unicode="&#x15c;" 
d="M637 1720l-258 -166l-82 93l278 227h125l277 -227l-80 -93zM592 -25q-322 0 -510 183l113 125q158 -147 391 -148q133 0 225 66t92 176q0 111 -63 167t-262 118t-309 155q-109 94 -109 253t130 262t335 104q272 0 456 -164l-110 -123q-145 127 -338 127q-121 0 -198 -52
t-77 -144t71 -146q71 -52 215 -98t210 -74t128 -78q124 -98 124 -288t-137 -306q-137 -115 -377 -115z" />
    <glyph glyph-name="scircumflex" unicode="&#x15d;" 
d="M618 1470l-256 -186l-86 90l279 248h125l276 -248l-82 -90zM563 127q119 0 189 44t70 123t-49 118q-48 39 -219 83q-171 43 -259 111t-88 202t115 215q114 81 316 81t361 -115l-84 -127q-129 92 -286 92q-227 0 -228 -137q1 -67 57 -101t227 -82t255 -117t84 -223
t-133 -237q-133 -82 -328 -82q-268 0 -438 148l104 119q139 -115 334 -115z" />
    <glyph glyph-name="Scedilla" unicode="&#x15e;" 
d="M684 -289q0 51 -44 69t-134 17l14 180q-276 20 -438 181l113 125q158 -147 391 -148q133 0 225 66t92 176q0 111 -63 167t-262 118t-309 155q-109 94 -109 253t130 262t335 104q272 0 456 -164l-110 -123q-145 127 -338 127q-121 0 -198 -52t-77 -144t71 -146
q71 -52 215 -98t210 -74t128 -78q124 -98 124 -282t-121 -298q-121 -113 -336 -127v-92q97 -8 145 -57t48 -131t-74 -136q-74 -55 -192 -55t-207 52l57 104q61 -33 135 -33q123 0 123 82z" />
    <glyph glyph-name="scedilla" unicode="&#x15f;" 
d="M680 -289q0 51 -44 69t-134 17l14 180q-240 10 -391 146l104 119q139 -115 334 -115q119 0 189 44t70 123t-49 118q-48 39 -219 83q-171 43 -259 111t-88 202t115 215q114 81 316 81t361 -115l-84 -127q-129 92 -286 92q-227 0 -228 -137q1 -67 57 -101t227 -82t255 -117
t84 -214t-106 -226t-273 -97v-95q97 -8 145 -57t48 -131t-74 -136q-74 -55 -192 -55t-207 52l57 104q61 -33 137 -33q121 0 121 82z" />
    <glyph glyph-name="Scaron" unicode="&#x160;" 
d="M379 1874l260 -168l258 168l80 -92l-277 -228h-125l-278 228zM592 -25q-322 0 -510 183l113 125q158 -147 391 -148q133 0 225 66t92 176q0 111 -63 167t-262 118t-309 155q-109 94 -109 253t130 262t335 104q272 0 456 -164l-110 -123q-145 127 -338 127
q-121 0 -198 -52t-77 -144t71 -146q71 -52 215 -98t210 -74t128 -78q124 -98 124 -288t-137 -306q-137 -115 -377 -115z" />
    <glyph glyph-name="scaron" unicode="&#x161;" 
d="M356 1622l256 -186l256 186l82 -90l-276 -248h-125l-279 248zM563 127q119 0 189 44t70 123t-49 118q-48 39 -219 83q-171 43 -259 111t-88 202t115 215q114 81 316 81t361 -115l-84 -127q-129 92 -286 92q-227 0 -228 -137q1 -67 57 -101t227 -82t255 -117t84 -223
t-133 -237q-133 -82 -328 -82q-268 0 -438 148l104 119q139 -115 334 -115z" />
    <glyph glyph-name="uni0162" unicode="&#x162;" 
d="M743 -289q0 51 -44 69t-134 17l15 203h-66v1247h-436v164h1073l-21 -164h-421v-1362q96 -8 144 -57t48 -131t-74 -136q-75 -55 -193 -55t-206 52l57 104q61 -33 136 -33q122 0 122 82z" />
    <glyph glyph-name="uni0163" unicode="&#x163;" 
d="M848 -289q0 51 -44 69t-134 17l14 191q-124 28 -192 112t-68 209v627h-246v143h246v244l188 23v-267h371l-22 -143h-349v-625q0 -92 47 -136t158 -44t201 53l72 -129q-111 -74 -277 -80v-90q96 -8 144 -57q49 -49 49 -131t-74 -136q-74 -55 -192 -55t-208 52l58 104
q61 -33 137 -33q121 0 121 82z" />
    <glyph glyph-name="Tcaron" unicode="&#x164;" 
d="M346 1874l260 -168l258 168l80 -92l-276 -228h-125l-279 228zM709 1247v-1247h-195v1247h-436v164h1073l-21 -164h-421z" />
    <glyph glyph-name="tcaron" unicode="&#x165;" 
d="M772 1555q0 53 35 85t84 33q49 0 83 -33q34 -32 34 -80t-35 -118l-103 -217h-108l57 239q-47 38 -47 91zM793 -25q-173 -1 -271 91t-98 243v627h-246v143h246v244l188 23v-267h371l-22 -143h-349v-625q0 -92 47 -136t158 -44t201 53l72 -129q-123 -80 -297 -80z" />
    <glyph glyph-name="Tbar" unicode="&#x166;" 
d="M709 1247v-360h266v-144h-266v-743h-195v743h-264v144h264v360h-436v164h1073l-21 -164h-421z" />
    <glyph glyph-name="tbar" unicode="&#x167;" 
d="M793 -25q-173 -1 -271 91t-98 243v275h-223v139h223v213h-246v143h246v244l188 23v-267h371l-22 -143h-349v-213h351v-139h-351v-273q0 -92 47 -136t158 -44t201 53l72 -129q-123 -80 -297 -80z" />
    <glyph glyph-name="Utilde" unicode="&#x168;" 
d="M721 1583q-65 0 -133 49t-96 49t-52 -20q-23 -20 -49 -70l-117 51q78 182 232 183q70 0 136 -49q66 -50 94 -50t50 20t50 69l116 -52q-79 -180 -231 -180zM1087 1411v-952q0 -217 -129 -350t-347 -133t-344 132t-126 351v952h195v-944q0 -328 278 -328t277 328v944h196z
" />
    <glyph glyph-name="utilde" unicode="&#x169;" 
d="M723 1331q-65 0 -133 49t-92 50q-53 0 -105 -91l-117 54q76 180 232 180q70 0 136 -49t89 -49q53 0 105 90l116 -52q-77 -182 -231 -182zM199 1079h188v-762q0 -102 42 -148t128 -46t163 48t122 118v790h188v-1079h-162l-14 143q-62 -80 -154 -124t-190 -44
q-154 0 -232 83t-79 237v784z" />
    <glyph glyph-name="Umacron" unicode="&#x16a;" 
d="M893 1774v-144h-559v144h559zM1087 1411v-952q0 -217 -129 -350t-347 -133t-344 132t-126 351v952h195v-944q0 -328 278 -328t277 328v944h196z" />
    <glyph glyph-name="umacron" unicode="&#x16b;" 
d="M893 1522v-142h-559v142h559zM199 1079h188v-762q0 -102 42 -148t128 -46t163 48t122 118v790h188v-1079h-162l-14 143q-62 -80 -154 -124t-190 -44q-154 0 -232 83t-79 237v784z" />
    <glyph glyph-name="Ubreve" unicode="&#x16c;" 
d="M611 1556q-134 0 -214 82t-94 187l125 26q41 -151 184 -151t185 151l125 -26q-14 -105 -96 -187t-215 -82zM1087 1411v-952q0 -217 -129 -350t-347 -133t-344 132t-126 351v952h195v-944q0 -328 278 -328t277 328v944h196z" />
    <glyph glyph-name="ubreve" unicode="&#x16d;" 
d="M613 1286q-132 0 -213 87t-95 200l125 26q49 -172 185 -172t186 172l125 -26q-14 -111 -98 -199t-215 -88zM199 1079h188v-762q0 -102 42 -148t128 -46t163 48t122 118v790h188v-1079h-162l-14 143q-62 -80 -154 -124t-190 -44q-154 0 -232 83t-79 237v784z" />
    <glyph glyph-name="Uring" unicode="&#x16e;" 
d="M848 1730q0 -92 -66 -154t-168 -62t-168 62t-66 154t66 153q66 63 168 63t168 -62t66 -154zM504 1731q0 -53 30 -85t80 -32t79 32q30 32 30 85t-30 84t-80 31q-49 0 -79 -32q-30 -30 -30 -83zM1087 1411v-952q0 -217 -129 -350t-347 -133t-344 132t-126 351v952h195v-944
q0 -328 278 -328t277 328v944h196z" />
    <glyph glyph-name="uring" unicode="&#x16f;" 
d="M848 1480q0 -92 -66 -154t-168 -62t-168 62t-66 154t66 153q66 63 168 63t168 -62t66 -154zM506 1479q0 -53 30 -84t80 -31t78 31q29 31 29 84t-29 84t-79 31q-49 0 -79 -32q-30 -30 -30 -83zM199 1079h188v-762q0 -102 42 -148t128 -46t163 48t122 118v790h188v-1079
h-162l-14 143q-62 -80 -154 -124t-190 -44q-154 0 -232 83t-79 237v784z" />
    <glyph glyph-name="Uhungarumlaut" unicode="&#x170;" 
d="M813 1563l-115 59l183 360l157 -81zM481 1567l-119 55l164 360l160 -75zM1087 1411v-952q0 -217 -129 -350t-347 -133t-344 132t-126 351v952h195v-944q0 -328 278 -328t277 328v944h196z" />
    <glyph glyph-name="uhungarumlaut" unicode="&#x171;" 
d="M805 1296l-115 60l182 360l158 -82zM473 1300l-119 56l164 360l160 -76zM199 1079h188v-762q0 -102 42 -148t128 -46t163 48t122 118v790h188v-1079h-162l-14 143q-62 -80 -154 -124t-190 -44q-154 0 -232 83t-79 237v784z" />
    <glyph glyph-name="Uogonek" unicode="&#x172;" 
d="M1087 1411v-952q0 -145 -58 -255t-167 -169q-236 -129 -235 -295q0 -109 131 -109q76 0 125 31l51 -111q-90 -45 -207 -45t-187 62t-71 166q0 135 154 241q-229 1 -355 133t-127 351v952h195v-944q0 -328 278 -328t277 328v944h196z" />
    <glyph glyph-name="uogonek" unicode="&#x173;" 
d="M199 1079h188v-762q0 -102 42 -148t128 -46t163 48t122 118v790h188v-1079q-182 -106 -182 -260q0 -109 131 -109q74 0 127 31l51 -111q-90 -45 -208 -45q-119 0 -189 62t-70 150q0 177 207 282h-29l-14 143q-62 -80 -154 -124t-190 -44q-154 0 -232 83t-79 237v784z" />
    <glyph glyph-name="Wcircumflex" unicode="&#x174;" 
d="M612 1720l-258 -166l-82 93l279 227h125l276 -227l-80 -93zM1221 1411l-209 -1411h-246l-152 1030h-8l-174 -1030h-256l-168 1411h195l106 -1188h8l187 1024h225l152 -1018h8l153 1182h179z" />
    <glyph glyph-name="wcircumflex" unicode="&#x175;" 
d="M616 1470l-256 -186l-86 90l279 248h125l276 -248l-82 -90zM1196 1079l-184 -1079h-256l-133 764h-9l-139 -764h-250l-192 1079h188l131 -936h8l158 799h211l148 -795h8l131 932h180z" />
    <glyph glyph-name="Ycircumflex" unicode="&#x176;" 
d="M614 1720l-258 -166l-82 93l279 227h125l276 -227l-80 -93zM713 0h-197v541l-475 870h215l360 -690h7l362 690h203l-475 -868v-543z" />
    <glyph glyph-name="ycircumflex" unicode="&#x177;" 
d="M618 1470l-256 -186l-86 90l279 248h125l276 -248l-82 -90zM1110 1079l-377 -1085q-65 -190 -179 -300t-316 -130l-27 147q157 27 227 91t117 198h-63l-373 1079h200l295 -927h9l292 927h195z" />
    <glyph glyph-name="Ydieresis" unicode="&#x178;" 
d="M828 1575q-50 0 -84 33t-34 83t34 83q34 32 84 32t85 -32t35 -82q0 -49 -35 -83t-85 -34zM400 1575q-50 0 -84 33t-34 83t34 83q34 32 84 32t84 -32t34 -83q0 -50 -34 -83t-84 -33zM713 0h-197v541l-475 870h215l360 -690h7l362 690h203l-475 -868v-543z" />
    <glyph glyph-name="Zacute" unicode="&#x179;" 
d="M477 1546l-57 101l387 223l96 -158zM139 0v156l738 1091h-664v164h874v-158l-731 -1087h731l-22 -166h-926z" />
    <glyph glyph-name="zacute" unicode="&#x17a;" 
d="M444 1274l-61 102l385 244l96 -158zM203 0v141l592 779h-545v159h770v-143l-588 -778h594l-22 -158h-801z" />
    <glyph glyph-name="Zdotaccent" unicode="&#x17b;" 
d="M774 1714q0 -55 -37 -92t-94 -37t-94 37t-37 92t37 91t94 36t94 -36t37 -91zM139 0v156l738 1091h-664v164h874v-158l-731 -1087h731l-22 -166h-926z" />
    <glyph glyph-name="zdotaccent" unicode="&#x17c;" 
d="M758 1464q0 -55 -37 -92t-95 -37t-96 37q-37 37 -36 92q0 55 36 91q38 36 96 36t95 -36t37 -91zM203 0v141l592 779h-545v159h770v-143l-588 -778h594l-22 -158h-801z" />
    <glyph glyph-name="Zcaron" unicode="&#x17d;" 
d="M387 1874l260 -168l258 168l80 -92l-276 -228h-125l-279 228zM139 0v156l738 1091h-664v164h874v-158l-731 -1087h731l-22 -166h-926z" />
    <glyph glyph-name="zcaron" unicode="&#x17e;" 
d="M371 1622l256 -186l256 186l82 -90l-277 -248h-125l-278 248zM203 0v141l592 779h-545v159h770v-143l-588 -778h594l-22 -158h-801z" />
    <glyph glyph-name="florin" unicode="&#x192;" 
d="M420 53v881h-172v145h172v146q0 139 89 225t235 86t272 -57l-62 -136q-90 41 -182 41t-129 -38t-37 -119v-148h264l-22 -145h-242v-848q0 -293 -140 -413q-64 -54 -187 -107l-68 135q117 55 163 123t46 229z" />
    <glyph glyph-name="AEacute" unicode="&#x1fc;" 
d="M541 1544l-58 101l387 223l97 -158zM487 1239l-174 -727h326l-141 727h-11zM1141 793v-154h-346l102 -485h346v-154h-500l-71 354h-404l-96 -354h-197l408 1411h776l-22 -154h-471l100 -464h375z" />
    <glyph glyph-name="aeacute" unicode="&#x1fd;" 
d="M467 1274l-61 102l385 244l96 -158zM887 954q-94 0 -138 -76t-57 -264h373q-4 174 -44 257t-134 83zM326 117q66 0 113 45q48 45 104 145q-27 94 -27 225h-82q-135 0 -193 -55q-59 -55 -59 -155t39 -153q39 -52 105 -52zM916 127q100 0 204 80l84 -123
q-135 -109 -289 -109q-201 0 -307 183q-72 -98 -140 -141q-69 -42 -169 -42q-141 -1 -226 91t-85 252t110 250q111 89 326 89h92v84q0 213 -186 213q-86 0 -211 -55l-49 135q150 70 278 70q211 0 283 -176q63 176 258 176q352 0 352 -533q0 -43 -4 -96h-545q14 -180 68 -264
q56 -84 156 -84z" />
    <glyph glyph-name="Oslashacute" unicode="&#x1fe;" 
d="M373 1604l-58 100l387 223l97 -158zM293 702q0 -373 113 -491l305 1053q-43 12 -97 12q-168 0 -244 -144t-77 -430zM936 705q0 381 -113 495l-305 -1055q47 -10 96 -10q168 -1 245 141t77 429zM90 702q0 332 136 533t388 201q63 0 129 -17l76 258l162 -43l-88 -282
q246 -178 246 -647q0 -332 -135 -531t-390 -199q-59 0 -127 15l-77 -258l-162 43l88 282q-246 172 -246 645z" />
    <glyph glyph-name="oslashacute" unicode="&#x1ff;" 
d="M416 1276l-62 102l385 244l97 -158zM885 541q0 250 -99 346l-235 -754q27 -6 63 -6q271 0 271 414zM344 539q0 -258 100 -353l236 758q-31 6 -64 6q-272 1 -272 -411zM143 539q0 257 124 411t349 154q35 0 97 -8l78 245l153 -45l-84 -254q225 -135 225 -501
q1 -256 -123 -411t-348 -155q-37 0 -98 9l-76 -252l-153 45l84 258q-228 133 -228 504z" />
    <glyph glyph-name="uni0218" unicode="&#x218;" 
d="M494 -263q0 54 33 87q34 33 83 33t83 -33t34 -81t-33 -120l-102 -217h-111l60 240q-47 37 -47 91zM592 -25q-322 0 -510 183l113 125q158 -147 391 -148q133 0 225 66t92 176q0 111 -63 167t-262 118t-309 155q-109 94 -109 253t130 262t335 104q272 0 456 -164
l-110 -123q-145 127 -338 127q-121 0 -198 -52t-77 -144t71 -146q71 -52 215 -98t210 -74t128 -78q124 -98 124 -288t-137 -306q-137 -115 -377 -115z" />
    <glyph glyph-name="uni0219" unicode="&#x219;" 
d="M487 -263q0 54 34 87t83 33t83 -33t34 -81t-33 -120l-102 -217h-111l60 240q-48 37 -48 91zM563 127q119 0 189 44t70 123t-49 118q-48 39 -219 83q-171 43 -259 111t-88 202t115 215q114 81 316 81t361 -115l-84 -127q-129 92 -286 92q-227 0 -228 -137q1 -67 57 -101
t227 -82t255 -117t84 -223t-133 -237q-133 -82 -328 -82q-268 0 -438 148l104 119q139 -115 334 -115z" />
    <glyph glyph-name="uni021A" unicode="&#x21a;" 
d="M498 -260q0 51 34 84q35 33 84 33t83 -33t34 -81t-35 -118l-102 -217h-109l60 238q-49 43 -49 94zM709 1247v-1247h-195v1247h-436v164h1073l-21 -164h-421z" />
    <glyph glyph-name="uni021B" unicode="&#x21b;" 
d="M629 -263q0 54 34 87q35 33 83 33t82 -33t34 -81t-33 -120l-102 -217h-111l60 240q-47 37 -47 91zM793 -25q-173 -1 -271 91t-98 243v627h-246v143h246v244l188 23v-267h371l-22 -143h-349v-625q0 -92 47 -136t158 -44t201 53l72 -129q-123 -80 -297 -80z" />
    <glyph glyph-name="dotlessj" unicode="&#x237;" 
d="M586 115v819h-350v145h538v-952q0 -217 -141 -350t-391 -213l-58 145q169 63 285 152q117 88 117 254z" />
    <glyph glyph-name="circumflex" unicode="&#x2c6;" 
d="M616 1487l-260 -172l-82 92l279 231h125l276 -231l-80 -92z" />
    <glyph glyph-name="caron" unicode="&#x2c7;" 
d="M356 1638l258 -172l260 172l80 -92l-276 -231h-125l-279 231z" />
    <glyph glyph-name="uni02C9" unicode="&#x2c9;" 
d="M893 1538v-141h-559v141h559z" />
    <glyph glyph-name="breve" unicode="&#x2d8;" 
d="M611 1317q-134 0 -214 83t-94 189l125 27q43 -156 185 -156t186 156l125 -27q-14 -106 -96 -189t-217 -83z" />
    <glyph glyph-name="dotaccent" unicode="&#x2d9;" 
d="M745 1479q-1 -55 -37 -91t-94 -36t-96 36q-37 36 -37 91t37 92t95 37t95 -37t37 -92z" />
    <glyph glyph-name="ring" unicode="&#x2da;" 
d="M848 1495q0 -93 -66 -155t-168 -62t-168 62t-66 154t66 156q66 62 168 62t168 -62t66 -155zM506 1495q0 -53 29 -84t79 -31t79 31q30 31 30 84t-29 84t-80 31q-52 0 -80 -31t-28 -84z" />
    <glyph glyph-name="ogonek" unicode="&#x2db;" 
d="M539 -260q0 -109 131 -109q74 0 127 31l49 -111q-88 -45 -206 -45t-188 62t-71 162q0 100 86 189t223 134h141q-292 -118 -292 -313z" />
    <glyph glyph-name="tilde" unicode="&#x2dc;" 
d="M721 1348q-67 0 -133 49t-94 49q-53 0 -101 -90l-117 53q76 180 232 180q68 0 134 -49t91 -49q53 0 105 90l114 -53q-75 -180 -231 -180z" />
    <glyph glyph-name="hungarumlaut" unicode="&#x2dd;" 
d="M733 1327l-119 55l177 351l159 -84zM401 1331l-122 51l157 351l164 -78z" />
    <glyph glyph-name="gravecomb" unicode="&#x300;" 
d="M854 1376l-59 -102l-422 190l96 158z" />
    <glyph glyph-name="acutecomb" unicode="&#x301;" 
d="M434 1274l-61 102l385 244l96 -158z" />
    <glyph glyph-name="uni0302" unicode="&#x302;" 
d="M616 1470l-256 -186l-86 90l279 248h125l276 -248l-82 -90z" />
    <glyph glyph-name="tildecomb" unicode="&#x303;" 
d="M721 1331q-65 0 -133 49t-92 50q-53 0 -105 -91l-117 54q76 180 232 180q70 0 136 -49t89 -49q53 0 105 90l116 -52q-77 -182 -231 -182z" />
    <glyph glyph-name="uni0304" unicode="&#x304;" 
d="M893 1522v-142h-559v142h559z" />
    <glyph glyph-name="uni0306" unicode="&#x306;" 
d="M611 1286q-132 0 -213 87t-95 200l125 26q49 -172 185 -172t186 172l125 -26q-14 -111 -98 -199t-215 -88z" />
    <glyph glyph-name="uni0307" unicode="&#x307;" 
d="M745 1464q-1 -55 -37 -92t-94 -37t-96 37q-37 37 -37 92t37 91t95 36t95 -36t37 -91z" />
    <glyph glyph-name="uni0308" unicode="&#x308;" 
d="M828 1325q-50 0 -84 33t-34 83t34 83q34 32 84 32t84 -32t34 -83q0 -50 -34 -83t-84 -33zM398 1325q-50 0 -84 33t-34 83t34 83q34 32 84 32t84 -32t34 -83q0 -50 -34 -83t-84 -33z" />
    <glyph glyph-name="uni030A" unicode="&#x30a;" 
d="M848 1480q0 -92 -66 -154t-168 -62t-168 62t-66 154t66 153q66 63 168 63t168 -62t66 -154zM506 1479q0 -53 30 -84t80 -31t78 31q29 31 29 84t-29 84t-79 31q-49 0 -79 -32q-30 -30 -30 -83z" />
    <glyph glyph-name="uni030B" unicode="&#x30b;" 
d="M727 1296l-115 60l183 360l157 -82zM395 1300l-119 56l164 360l160 -76z" />
    <glyph glyph-name="uni030C" unicode="&#x30c;" 
d="M360 1622l256 -186l256 186l82 -90l-276 -248h-125l-279 248z" />
    <glyph glyph-name="uni0312" unicode="&#x312;" 
d="M727 1436q0 -53 -35 -87t-84 -34t-83 34q-65 65 1 199l103 217h108l-57 -239q47 -37 47 -90z" />
    <glyph glyph-name="uni0313" unicode="&#x313;" 
d="M502 1647q0 53 35 86t84 33t83 -34q34 -32 33 -80q0 -48 -35 -118l-102 -217h-108l57 239q-47 38 -47 91z" />
    <glyph glyph-name="uni0326" unicode="&#x326;" 
d="M504 -263q0 54 34 87t83 33t83 -33t33 -81q0 -48 -32 -120l-103 -217h-110l59 240q-47 37 -47 91z" />
    <glyph glyph-name="uni0327" unicode="&#x327;" 
d="M692 -289q0 51 -44 69t-134 17l18 236h125v-148q97 -8 145 -57t48 -131t-74 -136q-74 -55 -192 -55t-207 52l57 104q61 -33 137 -33q121 0 121 82z" />
    <glyph glyph-name="uni0328" unicode="&#x328;" 
d="M539 -260q0 -109 131 -109q74 0 127 31l51 -111q-90 -45 -208 -45t-188 62t-71 162q0 100 86 189t225 134l29 -53q-182 -106 -182 -260z" />
    <glyph glyph-name="uni0335" unicode="&#x335;" 
d="M971 713v-144h-715v144h715z" />
    <glyph glyph-name="uni0336" unicode="&#x336;" 
d="M1284 713v-144h-1337v144h1337z" />
    <glyph glyph-name="tonos" unicode="&#x384;" 
d="M614 1206l-141 25l78 432l205 -37z" />
    <glyph glyph-name="dieresistonos" unicode="&#x385;" 
d="M682 1468l-139 21l59 366l207 -36zM849 1253q-50 0 -84 33t-34 83t34 83t84 33t84 -33t34 -83t-34 -83t-84 -33zM378 1253q-50 0 -84 33t-34 83t34 83t84 33t84 -33t34 -83t-34 -83t-84 -33z" />
    <glyph glyph-name="Alphatonos" unicode="&#x386;" 
d="M238 1024l-144 25l99 387l204 -33zM606 1235l-221 -723h449l-220 723h-8zM989 0l-108 354h-543l-109 -354h-194l457 1411h245l457 -1411h-205z" />
    <glyph glyph-name="Epsilontonos" unicode="&#x388;" 
d="M8 1024l-143 25l98 387l205 -33zM424 1255v-460h520v-156h-520v-485h637v-154h-832v1411h815l-22 -156h-598z" />
    <glyph glyph-name="Etatonos" unicode="&#x389;" 
d="M-57 1024l-144 25l99 387l204 -33zM1065 0h-195v662h-512v-662h-194v1411h194v-590h512v590h195v-1411z" />
    <glyph glyph-name="Iotatonos" unicode="&#x38a;" 
d="M0 1024l-143 25l98 387l205 -33zM1024 1411v-154h-311v-1103h311v-154h-819v154h311v1103h-311v154h819z" />
    <glyph glyph-name="Omicrontonos" unicode="&#x38c;" 
d="M12 1024l-143 25l98 387l205 -33zM936 705q0 287 -77 429t-245 142t-244 -143t-77 -431q0 -567 321 -567q168 -1 245 141t77 429zM615 1436q253 0 389 -196t135 -532q0 -335 -135 -534q-136 -199 -390 -199t-389 196q-135 195 -135 529t136 535t389 201z" />
    <glyph glyph-name="Upsilontonos" unicode="&#x38e;" 
d="M-119 1024l-143 25l98 387l205 -33zM713 0h-197v541l-475 870h215l360 -690h7l362 690h203l-475 -868v-543z" />
    <glyph glyph-name="Omegatonos" unicode="&#x38f;" 
d="M10 1024l-143 25l98 387l205 -33zM614 1276q-162 0 -242 -132t-79 -423q0 -451 254 -578v-143h-434v154h229v8q-252 129 -252 559q0 336 140 525q140 190 384 190t384 -190t141 -525q0 -422 -256 -559v-8h233v-154h-432v143q252 127 252 578q0 291 -80 423t-242 132z" />
    <glyph glyph-name="iotadieresistonos" unicode="&#x390;" 
d="M633 1468l-139 21l59 366l207 -36zM800 1253q-50 0 -84 33t-34 83t34 83t84 33t84 -33t34 -83t-34 -83t-84 -33zM329 1253q-50 0 -84 33t-34 83t34 83t84 33t84 -33q33 -33 33 -83t-34 -83t-83 -33zM483 291v647q-188 -18 -360 8l20 148q242 -31 529 0v-820
q0 -143 174 -143q84 0 178 37l49 -135q-102 -57 -257 -57t-244 84t-89 231z" />
    <glyph glyph-name="Alpha" unicode="&#x391;" 
d="M606 1235l-221 -723h449l-220 723h-8zM989 0l-108 354h-543l-109 -354h-194l457 1411h245l457 -1411h-205z" />
    <glyph glyph-name="Beta" unicode="&#x392;" 
d="M1112 403q0 -304 -338 -383q-90 -20 -196 -20h-390v1411h359q206 0 345 -74q159 -83 159 -282q0 -125 -73 -202t-173 -99v-9q129 -25 218 -105t89 -237zM852 1042q0 215 -270 215h-199v-442h215q254 0 254 227zM907 399q0 260 -295 260h-229v-501h221q303 -1 303 241z
" />
    <glyph glyph-name="Gamma" unicode="&#x393;" 
d="M268 1411h850l-20 -168h-635v-1243h-195v1411z" />
    <glyph glyph-name="uni0394" unicode="&#x394;" 
d="M606 1235l-327 -1075h661l-326 1075h-8zM35 0l457 1411h245l457 -1411h-1159z" />
    <glyph glyph-name="Epsilon" unicode="&#x395;" 
d="M424 1255v-460h520v-156h-520v-485h637v-154h-832v1411h815l-22 -156h-598z" />
    <glyph glyph-name="Zeta" unicode="&#x396;" 
d="M139 0v156l738 1091h-664v164h874v-158l-731 -1087h731l-22 -166h-926z" />
    <glyph glyph-name="Eta" unicode="&#x397;" 
d="M1065 0h-195v662h-512v-662h-194v1411h194v-590h512v590h195v-1411z" />
    <glyph glyph-name="Theta" unicode="&#x398;" 
d="M936 705q0 287 -77 429t-245 142t-244 -143t-77 -431q0 -567 321 -567q168 -1 245 141t77 429zM615 1436q253 0 389 -196t135 -532q0 -335 -135 -534q-136 -199 -390 -199t-389 196q-135 195 -135 529t136 535t389 201zM817 786v-151h-407v151h407z" />
    <glyph glyph-name="Iota" unicode="&#x399;" 
d="M1024 1411v-154h-311v-1103h311v-154h-819v154h311v1103h-311v154h819z" />
    <glyph glyph-name="Kappa" unicode="&#x39a;" 
d="M967 0l-557 754l536 657h221l-534 -645l573 -766h-239zM399 1411v-1411h-194v1411h194z" />
    <glyph glyph-name="Lambda" unicode="&#x39b;" 
d="M606 1223l-366 -1223h-197l449 1411h245l447 -1411h-205l-365 1223h-8z" />
    <glyph glyph-name="Mu" unicode="&#x39c;" 
d="M279 1196q0 -381 -5 -473l-34 -723h-181l80 1411h258l217 -942h9l206 942h261l79 -1411h-184l-41 723q-6 133 -8 295t0 178h-6l-223 -944h-187l-233 944h-8z" />
    <glyph glyph-name="Nu" unicode="&#x39d;" 
d="M1065 0h-266l-475 1194h-9q27 -213 27 -506v-688h-178v1411h260l481 -1200h8q-27 213 -26 512v688h178v-1411z" />
    <glyph glyph-name="Xi" unicode="&#x39e;" 
d="M152 0v178h925v-178h-925zM152 1237v174h907l-27 -174h-880zM256 629v174h698v-174h-698z" />
    <glyph glyph-name="Omicron" unicode="&#x39f;" 
d="M936 705q0 287 -77 429t-245 142t-244 -143t-77 -431q0 -567 321 -567q168 -1 245 141t77 429zM615 1436q253 0 389 -196t135 -532q0 -335 -135 -534q-136 -199 -390 -199t-389 196q-135 195 -135 529t136 535t389 201z" />
    <glyph glyph-name="Pi" unicode="&#x3a0;" 
d="M1065 0h-195v1245h-512v-1245h-194v1411h901v-1411z" />
    <glyph glyph-name="Rho" unicode="&#x3a1;" 
d="M594 1411q262 1 406 -109t145 -336q-1 -226 -147 -338q-146 -110 -400 -110h-178v-518h-195v1411h369zM938 973q0 287 -324 287h-194v-588h194q156 0 240 66t84 235z" />
    <glyph glyph-name="Sigma" unicode="&#x3a3;" 
d="M1083 160v-160h-938v160l512 545l-512 544v162h938v-160h-714l462 -479v-127l-460 -485h712z" />
    <glyph glyph-name="Tau" unicode="&#x3a4;" 
d="M709 1247v-1247h-195v1247h-436v164h1073l-21 -164h-421z" />
    <glyph glyph-name="Upsilon" unicode="&#x3a5;" 
d="M713 0h-197v541l-475 870h215l360 -690h7l362 690h203l-475 -868v-543z" />
    <glyph glyph-name="Phi" unicode="&#x3a6;" 
d="M1016 716q0 212 -76 304t-240 94v-813q168 7 242 105t74 310zM213 716q0 -212 74 -309t241 -106v813q-166 -4 -240 -95t-75 -303zM705 0h-181v166q-246 8 -374 145t-130 400q0 514 504 538v162h181v-162q504 -25 503 -538q0 -261 -129 -399t-374 -146v-166z" />
    <glyph glyph-name="Chi" unicode="&#x3a7;" 
d="M489 752l-397 659h221l291 -524h8l303 524h209l-403 -649l450 -762h-221l-342 618h-8l-336 -618h-209z" />
    <glyph glyph-name="Psi" unicode="&#x3a8;" 
d="M709 0h-187v412q-246 20 -370 150t-125 337v512h186v-504q0 -157 71 -239t242 -99v842h179v-840q171 17 241 99t70 237v504h186v-512q0 -205 -125 -334t-368 -151v-414z" />
    <glyph glyph-name="uni03A9" unicode="&#x3a9;" 
d="M614 1276q-162 0 -242 -132t-79 -423q0 -451 254 -578v-143h-434v154h229v8q-252 129 -252 559q0 336 140 525q140 190 384 190t384 -190t141 -525q0 -422 -256 -559v-8h233v-154h-432v143q252 127 252 578q0 291 -80 423t-242 132z" />
    <glyph glyph-name="Iotadieresis" unicode="&#x3aa;" 
d="M826 1575q-50 0 -84 33t-34 83t34 83q34 32 84 32t85 -32t35 -82q0 -49 -35 -83t-85 -34zM398 1575q-50 0 -84 33t-34 83t34 83q34 32 84 32t84 -32t34 -83q0 -50 -34 -83t-84 -33zM1024 1411v-154h-311v-1103h311v-154h-819v154h311v1103h-311v154h819z" />
    <glyph glyph-name="Upsilondieresis" unicode="&#x3ab;" 
d="M833 1575q-50 0 -84 33t-34 83t34 83q34 32 84 32t85 -32q34 -32 34 -82q0 -49 -34 -83t-85 -34zM404 1575q-50 0 -84 33t-33 83q0 50 34 83q33 32 83 32t84 -32t34 -83q0 -50 -34 -83t-84 -33zM713 0h-197v541l-475 870h215l360 -690h7l362 690h203l-475 -868v-543z" />
    <glyph glyph-name="alphatonos" unicode="&#x3ac;" 
d="M598 1206l-141 25l78 432l204 -37zM506 125q186 0 266 428q-33 207 -91 304t-159 97q-100 0 -158 -108t-58 -310t51 -307q53 -104 149 -104zM481 -25q-190 0 -282 150q-93 150 -93 407q0 256 108 414t292 158q276 0 340 -297h8l78 274l172 -49l-170 -465l98 -329
q22 -78 90 -101l-69 -164q-68 13 -119 59t-66 128l-34 147h-9q-96 -332 -344 -332z" />
    <glyph glyph-name="epsilontonos" unicode="&#x3ad;" 
d="M709 1206l-142 25l78 432l205 -37zM621 489q-133 0 -193 -40q-59 -41 -59 -129q1 -88 75 -141q74 -52 207 -52q209 0 375 115l98 -123q-190 -143 -485 -144q-209 -1 -341 89t-132 247q0 113 73 179t185 83v9q-92 23 -154 86q-61 63 -61 147q0 137 124 213t314 76
q256 0 416 -111l-92 -114q-129 78 -314 77q-254 0 -254 -161q-1 -72 61 -115t169 -43h196l-22 -148h-186z" />
    <glyph glyph-name="etatonos" unicode="&#x3ae;" 
d="M672 1206l-142 25l78 432l205 -37zM1032 784v-1198l-188 -22v1098q0 170 -33 232t-130 62t-171 -51t-123 -123v-782h-188v731q0 162 -54 348l177 25q37 -66 49 -178q68 86 164 132t194 46q303 -1 303 -320z" />
    <glyph glyph-name="iotatonos" unicode="&#x3af;" 
d="M598 1206l-141 25l78 432l204 -37zM483 291v647q-188 -18 -360 8l20 148q242 -31 529 0v-820q0 -143 174 -143q84 0 178 37l49 -135q-102 -57 -257 -57t-244 84t-89 231z" />
    <glyph glyph-name="upsilondieresistonos" unicode="&#x3b0;" 
d="M686 1468l-139 21l59 366l207 -36zM853 1253q-50 0 -84 33t-34 83t34 83t84 33t84 -33t34 -83t-34 -83t-84 -33zM382 1253q-50 0 -84 33t-34 83t34 83t84 33t84 -33t34 -83t-34 -83t-84 -33zM203 362v717h188v-688q0 -139 47 -201t154 -63q139 0 218 105t79 338t-53 509
h190q53 -289 53 -550t-135 -407t-343 -146t-303 104t-95 282z" />
    <glyph glyph-name="alpha" unicode="&#x3b1;" 
d="M506 125q186 0 266 428q-33 207 -91 304t-159 97q-100 0 -158 -108t-58 -310t51 -307q53 -104 149 -104zM481 -25q-190 0 -282 150q-93 150 -93 407q0 256 108 414t292 158q276 0 340 -297h8l78 274l172 -49l-170 -465l98 -329q22 -78 90 -101l-69 -164q-68 13 -119 59
t-66 128l-34 147h-9q-96 -332 -344 -332z" />
    <glyph glyph-name="beta" unicode="&#x3b2;" 
d="M688 1393q-291 0 -321 -539q88 37 132 55q43 18 109 50t97 58q31 27 65 63q60 65 59 171q0 66 -36 104q-37 38 -105 38zM629 127q127 0 199 85q72 84 73 242q0 158 -60 249t-212 92q-76 0 -264 -93q2 -289 58 -432t206 -143zM162 741q0 383 152 589q153 206 380 206
q170 0 249 -82t79 -209q0 -219 -305 -340v-8q197 -6 294 -127q97 -120 97 -318t-129 -337t-348 -140q-249 -1 -359 191t-110 575z" />
    <glyph glyph-name="gamma" unicode="&#x3b3;" 
d="M518 39q-74 307 -194 592q-121 285 -242 403l190 68q104 -126 198 -356t151 -504h8l327 862l191 -43l-442 -1024q-80 -187 -25 -451l-152 -22q-51 98 -53 228t43 247z" />
    <glyph glyph-name="delta" unicode="&#x3b4;" 
d="M336 488q0 -164 75 -262t211 -99t210 95t73 275q0 179 -64 264q-65 85 -247 163q-138 -66 -198 -169t-60 -267zM133 498q0 176 90 302t236 183q-109 55 -154 117t-45 149q0 133 109 210t293 77t333 -123l-94 -110q-117 90 -258 90q-88 0 -138 -37t-50 -102q0 -64 47 -100
t190 -93q220 -90 318 -214t98 -345t-133 -374t-355 -153t-355 150q-132 150 -132 373z" />
    <glyph glyph-name="epsilon" unicode="&#x3b5;" 
d="M621 489q-133 0 -193 -40q-59 -41 -59 -129q1 -88 75 -141q74 -52 207 -52q209 0 375 115l98 -123q-190 -143 -485 -144q-209 -1 -341 89t-132 247q0 113 73 179t185 83v9q-92 23 -154 86q-61 63 -61 147q0 137 124 213t314 76q256 0 416 -111l-92 -114q-129 78 -314 77
q-254 0 -254 -161q-1 -72 61 -115t169 -43h196l-22 -148h-186z" />
    <glyph glyph-name="zeta" unicode="&#x3b6;" 
d="M1079 -88q0 -223 -327 -369l-76 131q100 52 150 100t50 108t-41 87q-42 27 -180 74q-233 82 -332 179t-100 294q0 389 539 744l-4 6q-51 -18 -137 -19q-276 0 -390 205l146 84q95 -156 279 -156t331 119l107 -117q-182 -154 -293 -257q-262 -243 -334 -413
q-39 -93 -39 -190q0 -141 68 -206t250 -126t258 -114q75 -53 75 -164z" />
    <glyph glyph-name="eta" unicode="&#x3b7;" 
d="M1032 784v-1198l-188 -22v1098q0 170 -33 232t-130 62t-171 -51t-123 -123v-782h-188v731q0 162 -54 348l177 25q37 -66 49 -178q68 86 164 132t194 46q303 -1 303 -320z" />
    <glyph glyph-name="theta" unicode="&#x3b8;" 
d="M614 127q135 0 201 131t74 420h-551q8 -289 74 -420t202 -131zM615 1382q-139 0 -205 -132t-72 -429h553q-6 297 -72 429t-204 132zM143 757q0 367 123 573t350 206q226 0 348 -203t122 -569t-124 -578q-122 -211 -348 -211t-349 207q-122 207 -122 575z" />
    <glyph glyph-name="iota" unicode="&#x3b9;" 
d="M483 291v647q-188 -18 -360 8l20 148q242 -31 529 0v-820q0 -143 174 -143q84 0 178 37l49 -135q-102 -57 -257 -57t-244 84t-89 231z" />
    <glyph glyph-name="kappa" unicode="&#x3ba;" 
d="M418 590l500 514l159 -78l-434 -430l303 -326q62 -68 106 -96t101 -45l-66 -154q-82 11 -137 47t-131 121zM410 1018v-1018h-189v1049q0 279 -55 462l184 25q49 -118 58 -318q2 -67 2 -200z" />
    <glyph glyph-name="lambda" unicode="&#x3bb;" 
d="M94 14l393 1090h74q-45 131 -122 199t-236 92l28 145q242 -34 361 -144t168 -331q96 -422 185 -661t210 -361l-197 -68q-223 285 -344 969h-8l-330 -971z" />
    <glyph glyph-name="uni03BC" unicode="&#x3bc;" 
d="M203 1079h188v-606q0 -180 33 -258t141 -78q162 0 273 158v784h188v-731q0 -162 53 -348l-176 -25q-35 61 -47 172q-47 -79 -125 -125t-158 -47q-137 0 -198 86l-8 -2q23 -104 22 -174v-299l-186 -22v1515z" />
    <glyph glyph-name="nu" unicode="&#x3bd;" 
d="M705 0h-228q-78 342 -188 635q-111 293 -228 399l187 68q106 -123 198 -377t154 -551h8l330 930l188 -43z" />
    <glyph glyph-name="xi" unicode="&#x3be;" 
d="M274 1190q0 158 132 252t346 94q212 0 383 -121l-91 -110q-136 88 -286 88q-288 0 -289 -203q0 -100 65 -154t179 -53h243l-22 -162h-238q-135 0 -216 -78t-81 -210q0 -133 80 -197q81 -64 289 -130t282 -124t72 -170q0 -221 -327 -369l-76 131q201 98 201 214
q0 62 -36 86q-36 26 -147 62q-344 111 -442 224q-98 112 -98 278q0 167 101 258t220 111v8q-244 82 -244 275z" />
    <glyph glyph-name="omicron" unicode="&#x3bf;" 
d="M143 536q0 260 124 414t350 154q225 0 347 -151t122 -409t-124 -414q-124 -155 -350 -155t-347 151q-122 151 -122 410zM344 540q0 -412 270 -413q270 0 271 413q0 413 -269 412q-272 0 -272 -412z" />
    <glyph glyph-name="pi" unicode="&#x3c0;" 
d="M424 0h-184v926h-158v153h735q172 2 316 35l22 -156q-90 -23 -188 -28v-641q0 -115 100 -162l-66 -152q-96 25 -157 98t-62 193v660h-358v-926z" />
    <glyph glyph-name="rho" unicode="&#x3c1;" 
d="M602 129q282 0 281 414q0 414 -258 413q-135 0 -193 -107q-57 -108 -57 -325v-264q85 -131 227 -131zM186 555q0 269 113 409t339 140q449 0 447 -563q1 -242 -111 -404t-304 -162t-295 123v-512l-189 -22v991z" />
    <glyph glyph-name="sigma1" unicode="&#x3c2;" 
d="M1051 -88q0 -221 -328 -369l-76 131q51 29 79 46q80 48 108 107q14 32 14 77q0 44 -41 70t-172 71q-223 78 -327 193q-103 115 -103 341q0 225 145 375t383 150q201 0 352 -113l-92 -123q-115 80 -260 80t-236 -96t-91 -270t66 -246t249 -137q79 -29 111 -41t86 -40
t74 -52q58 -66 59 -154z" />
    <glyph glyph-name="sigma" unicode="&#x3c3;" 
d="M1081 541q0 -256 -124 -411t-345 -155t-345 152t-124 409q-1 256 135 406t377 150q315 0 484 32l28 -151q-137 -25 -270 -25q184 -110 184 -407zM879 541q0 283 -134 405q-201 0 -300 -85t-99 -322q0 -412 266 -412t267 414z" />
    <glyph glyph-name="tau" unicode="&#x3c4;" 
d="M477 291v635h-348v153h584q203 0 354 35l23 -156q-133 -33 -316 -32h-108v-652q0 -143 174 -143q84 0 178 37l49 -135q-102 -57 -257 -57t-244 84t-89 231z" />
    <glyph glyph-name="upsilon" unicode="&#x3c5;" 
d="M203 362v717h188v-688q0 -139 47 -201t154 -63q139 0 218 105t79 338t-53 509h190q53 -289 53 -550t-135 -407t-343 -146t-303 104t-95 282z" />
    <glyph glyph-name="phi" unicode="&#x3c6;" 
d="M684 623v-504q156 19 219 121t63 317t-32 309q-33 94 -109 94t-104 -55q-28 -56 -33 -122q-4 -67 -4 -160zM258 541q0 -203 56 -301t198 -119v532q0 221 72 336t240 115t248 -137q81 -137 81 -418q0 -524 -469 -569v-394l-172 -22v416q-436 39 -436 509q0 289 112 590
h183q-113 -336 -113 -538z" />
    <glyph glyph-name="chi" unicode="&#x3c7;" 
d="M627 520h8l272 584l185 -43l-363 -686l406 -758l-191 -53l-315 657h-8l-299 -657l-187 41l387 772q-164 418 -434 657l191 68q119 -124 201 -258t147 -324z" />
    <glyph glyph-name="psi" unicode="&#x3c8;" 
d="M530 1049q0 279 -55 462l168 25q51 -123 57 -318q2 -67 2 -200v-889q156 19 210 117q112 203 1 833h185q53 -332 53 -559q0 -489 -449 -534v-400l-172 -22v422q-216 18 -324 131t-108 280v682h183v-667q0 -127 58 -197t191 -86v920z" />
    <glyph glyph-name="omega" unicode="&#x3c9;" 
d="M700 473q0 -172 32 -259t115 -87t116 99t33 318t-99 535h182q99 -311 99 -573t-80 -396t-234 -135q-104 1 -169 63t-79 177h-8q-22 -109 -88 -175t-160 -65q-309 0 -309 514q0 285 96 590h181q-94 -301 -94 -527t32 -326q33 -99 117 -99q145 0 145 346v254l172 25v-279z
" />
    <glyph glyph-name="iotadieresis" unicode="&#x3ca;" 
d="M777 1325q-50 0 -84 33t-34 83t34 83q34 32 84 32t84 -32t34 -83q0 -50 -34 -83t-84 -33zM347 1325q-50 0 -84 33t-34 83t34 83q34 32 84 32t84 -32t34 -83q0 -50 -34 -83t-84 -33zM483 291v647q-188 -18 -360 8l20 148q242 -31 529 0v-820q0 -143 174 -143q84 0 178 37
l49 -135q-102 -57 -257 -57t-244 84t-89 231z" />
    <glyph glyph-name="upsilondieresis" unicode="&#x3cb;" 
d="M830 1325q-50 0 -84 33t-34 83t34 83q34 32 84 32t84 -32t34 -83q0 -50 -34 -83t-84 -33zM400 1325q-50 0 -84 33t-34 83t34 83q34 32 84 32t84 -32t34 -83q0 -50 -34 -83t-84 -33zM203 362v717h188v-688q0 -139 47 -201t154 -63q139 0 218 105t79 338t-53 509h190
q53 -289 53 -550t-135 -407t-343 -146t-303 104t-95 282z" />
    <glyph glyph-name="omicrontonos" unicode="&#x3cc;" 
d="M696 1206l-141 25l78 432l205 -37zM143 536q0 260 124 414t350 154q225 0 347 -151t122 -409t-124 -414q-124 -155 -350 -155t-347 151q-122 151 -122 410zM344 540q0 -412 270 -413q270 0 271 413q0 413 -269 412q-272 0 -272 -412z" />
    <glyph glyph-name="upsilontonos" unicode="&#x3cd;" 
d="M666 1206l-142 25l78 432l205 -37zM203 362v717h188v-688q0 -139 47 -201t154 -63q139 0 218 105t79 338t-53 509h190q53 -289 53 -550t-135 -407t-343 -146t-303 104t-95 282z" />
    <glyph glyph-name="omegatonos" unicode="&#x3ce;" 
d="M655 1206l-141 25l78 432l205 -37zM700 473q0 -172 32 -259t115 -87t116 99t33 318t-99 535h182q99 -311 99 -573t-80 -396t-234 -135q-104 1 -169 63t-79 177h-8q-22 -109 -88 -175t-160 -65q-309 0 -309 514q0 285 96 590h181q-94 -301 -94 -527t32 -326
q33 -99 117 -99q145 0 145 346v254l172 25v-279z" />
    <glyph glyph-name="uni0401" unicode="&#x401;" 
d="M847 1575q-50 0 -84 33t-34 83t34 83q34 32 84 32t85 -32t35 -82q0 -49 -35 -83t-85 -34zM419 1575q-50 0 -84 33t-34 83t34 83q34 32 84 32t84 -32t34 -83q0 -50 -34 -83t-84 -33zM424 1255v-460h520v-156h-520v-485h637v-154h-832v1411h815l-22 -156h-598z" />
    <glyph glyph-name="uni0402" unicode="&#x402;" 
d="M506 1249v-442q133 119 293 119q365 0 364 -420v-309q0 -207 -90 -313t-272 -169l-49 152q131 53 175 122t44 208v301q0 141 -50 202q-50 62 -176 62t-239 -105v-657h-191v1249h-325v162h846l-21 -162h-309z" />
    <glyph glyph-name="uni0403" unicode="&#x403;" 
d="M535 1546l-58 101l387 223l97 -158zM268 1411h850l-20 -168h-635v-1243h-195v1411z" />
    <glyph glyph-name="uni0404" unicode="&#x404;" 
d="M736 135q183 0 321 121l100 -123q-170 -158 -438 -158q-268 -1 -437 191t-169 538t175 538q175 194 425 194t424 -140l-107 -120q-125 104 -296 104q-170 0 -284 -115t-133 -360h613v-160h-617q12 -260 126 -385t297 -125z" />
    <glyph glyph-name="uni0405" unicode="&#x405;" 
d="M592 -25q-322 0 -510 183l113 125q158 -147 391 -148q133 0 225 66t92 176q0 111 -63 167t-262 118t-309 155q-109 94 -109 253t130 262t335 104q272 0 456 -164l-110 -123q-145 127 -338 127q-121 0 -198 -52t-77 -144t71 -146q71 -52 215 -98t210 -74t128 -78
q124 -98 124 -288t-137 -306q-137 -115 -377 -115z" />
    <glyph glyph-name="uni0406" unicode="&#x406;" 
d="M1024 1411v-154h-311v-1103h311v-154h-819v154h311v1103h-311v154h819z" />
    <glyph glyph-name="uni0407" unicode="&#x407;" 
d="M826 1575q-50 0 -84 33t-34 83t34 83q34 32 84 32t85 -32t35 -82q0 -49 -35 -83t-85 -34zM398 1575q-50 0 -84 33t-34 83t34 83q34 32 84 32t84 -32t34 -83q0 -50 -34 -83t-84 -33zM1024 1411v-154h-311v-1103h311v-154h-819v154h311v1103h-311v154h819z" />
    <glyph glyph-name="uni0408" unicode="&#x408;" 
d="M922 1411v-1030q0 -233 -162 -405t-492 -261l-47 146q270 86 388 205t118 323v868h-502v154h697z" />
    <glyph glyph-name="uni0409" unicode="&#x409;" 
d="M1034 447q0 163 -68 233t-206 70h-31v-600h31q141 0 208 66q66 67 66 231zM729 1411v-518q252 -1 376 -107t124 -329q0 -457 -486 -457h-198v1257h-185l-45 -622q-33 -438 -116 -554q-37 -50 -113 -106l-86 136q53 51 84 154t51 378l60 768h534z" />
    <glyph glyph-name="uni040A" unicode="&#x40a;" 
d="M760 729h-31v-579h31q143 0 209 61q65 61 65 226t-66 229q-67 63 -208 63zM545 0v729h-279v-729h-184v1411h184v-539h279v539h184v-539q252 0 376 -102t124 -330t-125 -334t-361 -106h-198z" />
    <glyph glyph-name="uni040B" unicode="&#x40b;" 
d="M506 1249v-442q133 119 293 119q365 0 364 -420v-506h-192v498q0 141 -50 202q-50 62 -176 62t-239 -105v-657h-191v1249h-325v162h846l-21 -162h-309z" />
    <glyph glyph-name="uni040C" unicode="&#x40c;" 
d="M496 1546l-58 101l387 223l97 -158zM399 662v-662h-194v1411h194v-590h142l420 590h206l-462 -661l501 -750h-231l-436 662h-140z" />
    <glyph glyph-name="uni040E" unicode="&#x40e;" 
d="M632 1556q-134 0 -214 72t-94 160l125 27q39 -115 184 -115t184 115l125 -27q-14 -88 -95 -160t-215 -72zM1194 1411l-424 -1030q-82 -197 -192 -288t-332 -118l-29 152q176 25 252 82t121 178h-80l-463 1024h203l387 -891h8l352 891h197z" />
    <glyph glyph-name="uni040F" unicode="&#x40f;" 
d="M870 1411h195v-1411h-346v-307h-154l-30 307h-371v1411h194v-1251h512v1251z" />
    <glyph glyph-name="uni0410" unicode="&#x410;" 
d="M606 1235l-221 -723h449l-220 723h-8zM989 0l-108 354h-543l-109 -354h-194l457 1411h245l457 -1411h-205z" />
    <glyph glyph-name="uni0411" unicode="&#x411;" 
d="M909 440q0 274 -323 275h-195v-559h195q156 0 240 62t83 222zM391 1251v-385h174q551 0 551 -424q0 -230 -146 -336t-401 -106h-372v1411h798l-18 -160h-586z" />
    <glyph glyph-name="uni0412" unicode="&#x412;" 
d="M1112 403q0 -304 -338 -383q-90 -20 -196 -20h-390v1411h359q206 0 345 -74q159 -83 159 -282q0 -125 -73 -202t-173 -99v-9q129 -25 218 -105t89 -237zM852 1042q0 215 -270 215h-199v-442h215q254 0 254 227zM907 399q0 260 -295 260h-229v-501h221q303 -1 303 241z
" />
    <glyph glyph-name="uni0413" unicode="&#x413;" 
d="M268 1411h850l-20 -168h-635v-1243h-195v1411z" />
    <glyph glyph-name="uni0414" unicode="&#x414;" 
d="M854 1251h-352l-29 -258q-51 -446 -87 -600t-126 -233h594v1091zM-8 160h86q78 76 109 217q32 141 94 624l51 410h717v-1251h104v-467h-154l-30 307h-793l-31 -307h-153v467z" />
    <glyph glyph-name="uni0415" unicode="&#x415;" 
d="M424 1255v-460h520v-156h-520v-485h637v-154h-832v1411h815l-22 -156h-598z" />
    <glyph glyph-name="uni0416" unicode="&#x416;" 
d="M532 0v668h-71l-244 -668h-184l284 750l-256 661h183l219 -596h69v596h164v-596h70l221 596h180l-256 -661l285 -750h-188l-242 668h-70v-668h-164z" />
    <glyph glyph-name="uni0417" unicode="&#x417;" 
d="M1112 412q0 -186 -148 -312t-393 -125q-330 0 -505 201l122 107q137 -147 379 -148q160 0 250 75t90 207t-88 195t-237 64h-248l22 160h213q127 0 212 57t85 167t-82 165t-215 55q-217 0 -366 -137l-109 117q193 176 481 176q221 0 355 -100t135 -238q0 -136 -83 -222
t-208 -106v-8q138 -10 238 -103t100 -247z" />
    <glyph glyph-name="uni0418" unicode="&#x418;" 
d="M164 0v1411h190v-688q0 -291 -26 -516h8l485 1204h244v-1411h-191v688q0 244 27 510h-8l-481 -1198h-248z" />
    <glyph glyph-name="uni0419" unicode="&#x419;" 
d="M613 1556q-134 0 -214 72t-94 160l125 27q39 -115 184 -115t185 115l125 -27q-14 -88 -96 -160t-215 -72zM164 0v1411h190v-688q0 -291 -26 -516h8l485 1204h244v-1411h-191v688q0 244 27 510h-8l-481 -1198h-248z" />
    <glyph glyph-name="uni041A" unicode="&#x41a;" 
d="M399 662v-662h-194v1411h194v-590h142l420 590h206l-462 -661l501 -750h-231l-436 662h-140z" />
    <glyph glyph-name="uni041B" unicode="&#x41b;" 
d="M1065 1411v-1411h-195v1247h-362l-29 -254q-33 -291 -59 -445q-55 -335 -173 -456q-59 -60 -161 -117l-86 142q95 71 154 180q58 109 133 704l51 410h727z" />
    <glyph glyph-name="uni041C" unicode="&#x41c;" 
d="M279 1196q0 -381 -5 -473l-34 -723h-181l80 1411h258l217 -942h9l206 942h261l79 -1411h-184l-41 723q-6 133 -8 295t0 178h-6l-223 -944h-187l-233 944h-8z" />
    <glyph glyph-name="uni041D" unicode="&#x41d;" 
d="M1065 0h-195v662h-512v-662h-194v1411h194v-590h512v590h195v-1411z" />
    <glyph glyph-name="uni041E" unicode="&#x41e;" 
d="M936 705q0 287 -77 429t-245 142t-244 -143t-77 -431q0 -567 321 -567q168 -1 245 141t77 429zM615 1436q253 0 389 -196t135 -532q0 -335 -135 -534q-136 -199 -390 -199t-389 196q-135 195 -135 529t136 535t389 201z" />
    <glyph glyph-name="uni041F" unicode="&#x41f;" 
d="M1065 0h-195v1245h-512v-1245h-194v1411h901v-1411z" />
    <glyph glyph-name="uni0420" unicode="&#x420;" 
d="M594 1411q262 1 406 -109t145 -336q-1 -226 -147 -338q-146 -110 -400 -110h-178v-518h-195v1411h369zM938 973q0 287 -324 287h-194v-588h194q156 0 240 66t84 235z" />
    <glyph glyph-name="uni0421" unicode="&#x421;" 
d="M319 711q0 -295 113 -433t300 -139q187 0 325 121l100 -127q-170 -158 -438 -158q-268 -1 -437 191t-169 538t175 538q175 194 425 194t424 -140l-107 -125q-125 105 -303 105t-293 -135t-115 -430z" />
    <glyph glyph-name="uni0422" unicode="&#x422;" 
d="M709 1247v-1247h-195v1247h-436v164h1073l-21 -164h-421z" />
    <glyph glyph-name="uni0423" unicode="&#x423;" 
d="M1194 1411l-424 -1030q-82 -197 -192 -288t-332 -118l-29 152q176 25 252 82t121 178h-80l-463 1024h203l387 -891h8l352 891h197z" />
    <glyph glyph-name="uni0424" unicode="&#x424;" 
d="M219 715q1 -260 73 -379t236 -133v1007q-162 -6 -236 -120t-73 -375zM1010 715q0 260 -74 375t-236 120v-1007q164 14 237 133t73 379zM705 -61h-181v127q-500 23 -499 645q1 303 123 461t376 178v123h181v-123q255 -18 377 -178t122 -464q0 -306 -128 -468t-371 -174
v-127z" />
    <glyph glyph-name="uni0425" unicode="&#x425;" 
d="M489 752l-397 659h221l291 -524h8l303 524h209l-403 -649l450 -762h-221l-342 618h-8l-336 -618h-209z" />
    <glyph glyph-name="uni0426" unicode="&#x426;" 
d="M860 1411h195v-1253h123v-465h-154l-31 307h-829v1411h194v-1251h502v1251z" />
    <glyph glyph-name="uni0427" unicode="&#x427;" 
d="M1065 0h-195v594q-137 -109 -325 -109q-446 0 -447 471v455h195v-446q0 -168 63 -241t225 -73t289 105v655h195v-1411z" />
    <glyph glyph-name="uni0428" unicode="&#x428;" 
d="M537 1411h155v-1253h260v1253h174v-1411h-1024v1411h174v-1253h261v1253z" />
    <glyph glyph-name="uni0429" unicode="&#x429;" 
d="M537 1411h155v-1253h260v1253h174v-1253h103v-465h-154l-31 307h-942v1411h174v-1253h261v1253z" />
    <glyph glyph-name="uni042A" unicode="&#x42a;" 
d="M985 455q0 287 -323 286h-226v-585h226q156 0 240 64t83 235zM436 1411v-518h205q551 0 551 -436q0 -237 -146 -347t-401 -110h-403v1245h-242v166h436z" />
    <glyph glyph-name="uni042B" unicode="&#x42b;" 
d="M1167 0h-190v1411h190v-1411zM680 455q0 293 -291 293h-137v-596h137q145 0 218 70t73 233zM252 1411v-518h117q510 0 510 -436q0 -227 -131 -342t-375 -115h-312v1411h191z" />
    <glyph glyph-name="uni042C" unicode="&#x42c;" 
d="M928 455q0 287 -324 286h-225v-585h225q156 0 240 64t84 235zM379 1411v-518h205q551 0 551 -436q-1 -237 -147 -347t-400 -110h-404v1411h195z" />
    <glyph glyph-name="uni042D" unicode="&#x42d;" 
d="M537 1280q-172 0 -336 -131l-105 113q201 174 459 174q257 0 405 -182t148 -537q0 -356 -154 -549t-426 -193t-448 181l113 110q147 -131 328 -131t277 124q95 124 107 386h-608v160h608q-14 251 -105 363t-263 112z" />
    <glyph glyph-name="uni042E" unicode="&#x42e;" 
d="M794 1282q-104 0 -150 -128t-46 -447t45 -449t151 -129q106 0 153 129q48 128 48 446t-48 448t-153 130zM793 -25q-205 -1 -294 175t-93 516h-134v-666h-180v1411h180v-594h136q27 618 385 619q215 0 305 -180t90 -546q0 -367 -95 -551t-300 -184z" />
    <glyph glyph-name="uni042F" unicode="&#x42f;" 
d="M352 989q0 -274 281 -274h237v545h-204q-160 0 -237 -66t-77 -205zM870 561h-295l-292 -561h-222l330 604q-246 111 -246 385q1 203 139 313t400 109h381v-1411h-195v561z" />
    <glyph glyph-name="uni0430" unicode="&#x430;" 
d="M535 117q166 0 264 149v266h-148q-317 0 -317 -215q0 -200 201 -200zM987 752v-508q-1 -63 19 -93t67 -45l-45 -131q-160 20 -205 152q-113 -152 -340 -152q-162 -1 -259 91t-97 252t134 249q134 90 380 90h158v84q0 209 -252 209q-125 0 -283 -55l-49 139q187 70 375 70
t292 -92t105 -260z" />
    <glyph glyph-name="uni0431" unicode="&#x431;" 
d="M342 520q0 -182 69 -288t197 -105q128 0 199 85q70 85 70 310q0 358 -244 359q-137 1 -214 -89t-77 -272zM650 1032q200 0 315 -141t114 -367q0 -268 -130 -408t-344 -140t-336 149q-122 150 -122 465t64 499q37 105 107 172q71 67 182 103q203 66 387 174l80 -141
q-96 -61 -164 -92t-195 -75t-184 -125t-80 -249h6q100 176 300 176z" />
    <glyph glyph-name="uni0432" unicode="&#x432;" 
d="M1096 317q0 -317 -465 -317h-404v1065q190 39 367 39q449 0 448 -291q0 -162 -190 -217v-8q104 -18 174 -86t70 -185zM848 802q0 158 -236 156q-112 0 -196 -12v-301h227q104 0 155 37q50 37 50 120zM897 328q0 178 -242 178h-239v-359h221q137 0 199 43q61 44 61 138z
" />
    <glyph glyph-name="uni0433" unicode="&#x433;" 
d="M504 922v-922h-189v1079h762l-22 -157h-551z" />
    <glyph glyph-name="uni0434" unicode="&#x434;" 
d="M834 930h-349l-12 -187q-20 -293 -58 -411t-130 -182h549v780zM49 -287v437h76q74 63 109 183q36 120 57 398l24 348h707v-929h82v-437h-146l-30 287h-703l-30 -287h-146z" />
    <glyph glyph-name="uni0435" unicode="&#x435;" 
d="M631 954q-121 0 -196 -86t-85 -254h545q-3 166 -73 253t-191 87zM676 129q146 0 270 100l86 -125q-162 -129 -388 -129t-358 154t-132 406q0 253 129 411t341 158t332 -142t121 -391q0 -47 -4 -96h-723q12 -172 96 -259t230 -87z" />
    <glyph glyph-name="uni0436" unicode="&#x436;" 
d="M694 0h-159v502h-86l-226 -502h-188l268 582l-250 497h187l204 -438h91v438h159v-438h88l209 438h185l-250 -497l268 -582h-190l-226 502h-84v-502z" />
    <glyph glyph-name="uni0437" unicode="&#x437;" 
d="M582 637q104 0 166 43q61 43 61 115q0 162 -248 161q-195 0 -325 -98l-93 115q168 131 426 131q195 0 315 -72t120 -219q0 -84 -58 -145t-151 -86v-9q117 -18 193 -81t75 -181q0 -159 -136 -247t-352 -89q-287 0 -471 152l101 125q156 -125 375 -125q136 0 208 51t72 141
q0 170 -266 170h-219l12 148h195z" />
    <glyph glyph-name="uni0438" unicode="&#x438;" 
d="M1030 1079v-1079h-182v487q0 266 22 390h-8l-442 -877h-221v1079h182v-487q0 -225 -21 -383h9l438 870h223z" />
    <glyph glyph-name="uni0439" unicode="&#x439;" 
d="M625 1286q-133 0 -213 73t-95 167l125 26q44 -125 186 -125t185 125l125 -26q-14 -94 -97 -167t-216 -73zM1030 1079v-1079h-182v487q0 266 22 390h-8l-442 -877h-221v1079h182v-487q0 -225 -21 -383h9l438 870h223z" />
    <glyph glyph-name="uni043A" unicode="&#x43a;" 
d="M387 0h-188v1079h188v-434h178l303 434h207l-356 -499l409 -580h-223l-344 498h-174v-498z" />
    <glyph glyph-name="uni043B" unicode="&#x43b;" 
d="M1030 1079v-1079h-188v926h-361l-14 -183q-31 -393 -89 -535t-235 -233l-86 131q74 50 113 104q86 118 115 521l26 348h719z" />
    <glyph glyph-name="uni043C" unicode="&#x43c;" 
d="M1147 0h-178l-39 510q-14 197 -8 385h-9l-206 -715h-179l-229 715h-8q8 -160 -4 -383l-29 -512h-176l76 1079h239l219 -712h9l200 712h244z" />
    <glyph glyph-name="uni043D" unicode="&#x43d;" 
d="M1024 0h-188v475h-443v-475h-188v1079h188v-452h443v452h188v-1079z" />
    <glyph glyph-name="uni043E" unicode="&#x43e;" 
d="M143 536q0 260 124 414t350 154q225 0 347 -151t122 -409t-124 -414q-124 -155 -350 -155t-347 151q-122 151 -122 410zM344 540q0 -412 270 -413q270 0 271 413q0 413 -269 412q-272 0 -272 -412z" />
    <glyph glyph-name="uni043F" unicode="&#x43f;" 
d="M1024 0h-188v926h-443v-926h-188v1079h819v-1079z" />
    <glyph glyph-name="uni0440" unicode="&#x440;" 
d="M625 129q260 0 260 413t-238 412q-147 0 -260 -168v-526q86 -131 238 -131zM199 1079h161l15 -147q125 172 319 172q391 0 391 -563q0 -256 -106 -411q-105 -155 -297 -155t-295 123v-512l-188 -22v1515z" />
    <glyph glyph-name="uni0441" unicode="&#x441;" 
d="M377 535q0 -203 84 -301q85 -98 233 -99q148 0 271 92l90 -129q-151 -123 -381 -123t-365 152t-135 405q0 252 137 412t367 160t377 -121l-92 -127q-123 92 -269 92t-232 -105q-85 -105 -85 -308z" />
    <glyph glyph-name="uni0442" unicode="&#x442;" 
d="M702 926v-926h-188v926h-381v153h963l-23 -153h-371z" />
    <glyph glyph-name="uni0443" unicode="&#x443;" 
d="M1110 1079l-377 -1085q-65 -190 -179 -300t-316 -130l-27 147q157 27 227 91t117 198h-63l-373 1079h200l295 -927h9l292 927h195z" />
    <glyph glyph-name="uni0444" unicode="&#x444;" 
d="M387 121q41 1 71 23t74 77v645q-42 52 -72 72t-73 20q-73 0 -107 -97t-34 -320t34 -321t107 -99zM985 541q-1 225 -31 321t-106 96t-152 -94v-643q72 -100 142 -100q147 0 147 420zM897 1104q153 0 215 -144t62 -412q0 -267 -77 -420t-218 -153q-102 0 -183 113v-502
l-164 -22v524q-80 -113 -186 -113q-141 0 -216 152t-75 414q0 563 287 563q109 0 190 -105v537l164 -23v-518q86 109 201 109z" />
    <glyph glyph-name="uni0445" unicode="&#x445;" 
d="M612 451h-8l-285 -451h-213l396 569l-348 510h221l237 -389h9l239 389h213l-346 -501l395 -578h-227z" />
    <glyph glyph-name="uni0446" unicode="&#x446;" 
d="M211 0v1079h188v-927h430v927h189v-932h123v-434h-146l-30 287h-754z" />
    <glyph glyph-name="uni0447" unicode="&#x447;" 
d="M354 674q0 -195 176 -195q86 0 164 32t127 85v483h189v-1079h-189v449q-127 -117 -336 -117q-155 0 -237 84t-82 235v428h188v-405z" />
    <glyph glyph-name="uni0448" unicode="&#x448;" 
d="M532 1079h164v-932h260v932h174v-1079h-1032v1079h174v-932h260v932z" />
    <glyph glyph-name="uni0449" unicode="&#x449;" 
d="M98 0v1079h174v-932h260v932h164v-932h260v932h174v-932h103v-434h-146l-30 287h-959z" />
    <glyph glyph-name="uni044A" unicode="&#x44a;" 
d="M909 377q0 221 -276 221h-162v-451h162q133 -1 205 49t71 181zM92 936v143h379v-338h143q496 0 496 -364q0 -377 -492 -377h-335v936h-191z" />
    <glyph glyph-name="uni044B" unicode="&#x44b;" 
d="M367 0h-248v1079h176v-348h67q461 0 461 -356q-1 -191 -121 -283t-335 -92zM371 141q131 -1 197 51t65 177t-63 176t-199 51h-76v-455h76zM1110 0h-178v1079h178v-1079z" />
    <glyph glyph-name="uni044C" unicode="&#x44c;" 
d="M578 0h-336v1079h188v-338h143q496 0 496 -364q1 -377 -491 -377zM868 377q0 221 -276 221h-162v-451h162q132 -1 204 49t72 181z" />
    <glyph glyph-name="uni044D" unicode="&#x44d;" 
d="M567 954q-158 0 -284 -94l-88 119q154 125 387 125t358 -150t125 -410t-132 -414q-131 -155 -363 -155t-386 129l90 121q129 -96 283 -96q291 0 313 352h-497v144h495q-31 329 -301 329z" />
    <glyph glyph-name="uni044E" unicode="&#x44e;" 
d="M961 538q0 208 -41 312q-40 104 -138 104t-137 -98t-39 -312t39 -316t139 -103q100 0 139 102q38 103 38 311zM791 1104q175 0 269 -148t93 -409q1 -262 -93 -417t-274 -155q-180 1 -268 135t-98 365h-123v-475h-180v1079h180v-452h123q14 217 105 347t266 130z" />
    <glyph glyph-name="uni044F" unicode="&#x44f;" 
d="M602 958q-234 0 -235 -202q0 -102 55 -150t182 -49h211v389q-93 12 -213 12zM815 414h-278l-218 -414h-210l249 459q-92 45 -141 124t-49 173q0 166 116 257t326 91t394 -39v-1065h-189v414z" />
    <glyph glyph-name="uni0451" unicode="&#x451;" 
d="M861 1325q-50 0 -84 33t-34 83t34 83q34 32 84 32t84 -32t34 -83q0 -50 -34 -83t-84 -33zM431 1325q-50 0 -84 33t-34 83t34 83q34 32 84 32t84 -32t34 -83q0 -50 -34 -83t-84 -33zM631 954q-121 0 -196 -86t-85 -254h545q-3 166 -73 253t-191 87zM676 129q146 0 270 100
l86 -125q-162 -129 -388 -129t-358 154t-132 406q0 253 129 411t341 158t332 -142t121 -391q0 -47 -4 -96h-723q12 -172 96 -259t230 -87z" />
    <glyph glyph-name="uni0452" unicode="&#x452;" 
d="M739 1223h-340v-281q63 76 155 119t187 43q303 0 303 -320v-718q0 -281 -144 -396q-65 -51 -185 -104l-70 137q119 55 165 122t46 228v719q0 96 -43 140t-130 44t-161 -51t-123 -123v-782h-188v1223h-162v143h162v145l188 21v-166h340v-143z" />
    <glyph glyph-name="uni0453" unicode="&#x453;" 
d="M524 1274l-61 102l385 244l96 -158zM504 922v-922h-189v1079h762l-22 -157h-551z" />
    <glyph glyph-name="uni0454" unicode="&#x454;" 
d="M688 129q144 0 266 92l90 -123q-152 -123 -381 -123t-364 152t-135 405q0 252 137 412t365 160t378 -121l-92 -121q-127 92 -264 92t-223 -84t-105 -245h486v-144h-488q12 -178 98 -265q88 -87 232 -87z" />
    <glyph glyph-name="uni0455" unicode="&#x455;" 
d="M563 127q119 0 189 44t70 123t-49 118q-48 39 -219 83q-171 43 -259 111t-88 202t115 215q114 81 316 81t361 -115l-84 -127q-129 92 -286 92q-227 0 -228 -137q1 -67 57 -101t227 -82t255 -117t84 -223t-133 -237q-133 -82 -328 -82q-268 0 -438 148l104 119
q139 -115 334 -115z" />
    <glyph glyph-name="uni0456" unicode="&#x456;" 
d="M797 1463q0 -54 -38 -91t-95 -37t-95 37q-37 37 -37 92t37 91t95 36t95 -37q38 -37 38 -91zM758 1079v-934h301v-145h-819v145h329v789h-319v145h508z" />
    <glyph glyph-name="uni0457" unicode="&#x457;" 
d="M857 1325q-50 0 -84 33t-34 83t34 83q34 32 84 32t84 -32t34 -83q0 -50 -34 -83t-84 -33zM427 1325q-50 0 -84 33t-34 83t34 83q34 32 84 32t84 -32t34 -83q0 -50 -34 -83t-84 -33zM1059 145v-145h-819v145h329v789h-319v145h508v-934h301z" />
    <glyph glyph-name="uni0458" unicode="&#x458;" 
d="M659 1591q57 0 95 -37t39 -91q0 -54 -38 -91q-37 -37 -95 -37t-95 37t-37 92t37 91t94 36zM774 1079v-952q0 -217 -141 -350t-391 -213l-58 145q169 63 285 152q117 88 117 254v819h-350v145h538z" />
    <glyph glyph-name="uni0459" unicode="&#x459;" 
d="M793 141q121 -1 179 51t58 177t-56 176t-186 51h-34v-455h39zM784 0h-206v934h-197l-12 -270q-15 -328 -69 -461t-206 -228l-86 131q90 72 130 181t52 372l21 420h543v-348h26q440 0 441 -356q0 -187 -116 -281t-321 -94z" />
    <glyph glyph-name="uni045A" unicode="&#x45a;" 
d="M1030 331q0 113 -56 157t-186 44h-34v-391h34q125 0 184 38q58 38 58 152zM784 0h-206v532h-259v-532h-180v1079h180v-411h259v411h176v-411h26q440 0 441 -332q-1 -336 -437 -336z" />
    <glyph glyph-name="uni045B" unicode="&#x45b;" 
d="M399 0h-188v1223h-162v143h162v145l188 21v-166h340v-143h-340v-281q63 76 155 119t187 43q303 0 303 -320v-784h-188v772q0 96 -43 140t-130 44t-161 -51t-123 -123v-782z" />
    <glyph glyph-name="uni045C" unicode="&#x45c;" 
d="M438 1274l-61 102l385 244l96 -158zM387 0h-188v1079h188v-434h178l303 434h207l-356 -499l409 -580h-223l-344 498h-174v-498z" />
    <glyph glyph-name="uni045E" unicode="&#x45e;" 
d="M614 1286q-133 0 -213 73t-94 167l125 26q43 -125 185 -125t186 125l125 -26q-14 -94 -98 -167t-216 -73zM1110 1079l-377 -1085q-65 -190 -179 -300t-316 -130l-27 147q157 27 227 91t117 198h-63l-373 1079h200l295 -927h9l292 927h195z" />
    <glyph glyph-name="uni045F" unicode="&#x45f;" 
d="M211 0v1079h188v-927h430v927h189v-1079h-316v-287h-145l-31 287h-315z" />
    <glyph glyph-name="uni0462" unicode="&#x462;" 
d="M668 719h-152v-567h152q160 0 244 63t85 225q1 279 -329 279zM516 1249v-383h131q551 0 551 -424q0 -230 -146 -336t-401 -106h-325v1249h-326v162h846l-21 -162h-309z" />
    <glyph glyph-name="uni0463" unicode="&#x463;" 
d="M909 371q0 217 -276 217h-158v-441h158q133 1 205 49t71 175zM618 0h-331v936h-172v143h172v244l188 23v-267h273l-23 -143h-250v-205h139q496 0 496 -360q0 -371 -492 -371z" />
    <glyph glyph-name="uni0472" unicode="&#x472;" 
d="M614 1276q-154 0 -230 -119t-89 -358h637q-10 237 -87 357t-231 120zM614 135q162 0 238 129t82 391h-641q12 -520 321 -520zM615 1436q253 0 389 -196t135 -532q0 -335 -135 -534q-136 -199 -390 -199t-389 196q-135 195 -135 529t136 535t389 201z" />
    <glyph glyph-name="uni0473" unicode="&#x473;" 
d="M614 127q244 0 269 334h-537q24 -334 268 -334zM614 952q-250 0 -268 -348h537q-19 348 -269 348zM143 536q0 260 124 414t350 154q225 0 347 -151t122 -409t-124 -414q-124 -155 -350 -155t-347 151q-122 151 -122 410z" />
    <glyph glyph-name="uni0474" unicode="&#x474;" 
d="M614 215h9l270 934q53 184 117 287l192 -35q-74 -104 -133 -299l-346 -1102h-213l-465 1411h209z" />
    <glyph glyph-name="uni0475" unicode="&#x475;" 
d="M950 1104l185 -25q-70 -104 -131 -280l-281 -799h-219l-387 1079h200l297 -905h9l217 684q59 189 110 246z" />
    <glyph glyph-name="uni0490" unicode="&#x490;" 
d="M268 1411h662v301h188v-301l-20 -168h-635v-1243h-195v1411z" />
    <glyph glyph-name="uni0491" unicode="&#x491;" 
d="M504 922v-922h-189v1079h574v277h188v-277l-22 -157h-551z" />
    <glyph glyph-name="uni0492" unicode="&#x492;" 
d="M844 887v-144h-320v-743h-194v743h-201v144h201v524h850l-21 -168h-635v-356h320z" />
    <glyph glyph-name="uni0493" unicode="&#x493;" 
d="M545 922v-275h254v-143h-254v-504h-189v504h-147v143h147v432h762l-22 -157h-551z" />
    <glyph glyph-name="uni0496" unicode="&#x496;" 
d="M532 0v668h-71l-244 -668h-184l284 750l-256 661h183l219 -596h69v596h164v-596h70l221 596h180l-256 -661l226 -592h92v-465h-144l-30 307h-47l-242 668h-70v-668h-164z" />
    <glyph glyph-name="uni0497" unicode="&#x497;" 
d="M694 0h-159v502h-86l-226 -502h-188l268 582l-250 497h187l204 -438h91v438h159v-438h88l209 438h185l-250 -497l200 -435h99v-434h-146l-30 287h-45l-226 502h-84v-502z" />
    <glyph glyph-name="uni0498" unicode="&#x498;" 
d="M676 -289q0 51 -44 69t-134 17l14 180q-293 20 -446 199l122 107q137 -147 379 -148q160 0 250 75t90 207t-88 195t-237 64h-248l22 160h213q127 0 212 57t85 167t-82 165t-215 55q-217 0 -366 -137l-109 117q193 176 481 176q221 0 355 -100t135 -238q0 -136 -83 -222
t-208 -106v-8q138 -10 238 -104t100 -256q0 -164 -128 -285t-343 -137v-95q96 -8 144 -57q49 -49 49 -131t-74 -136q-74 -55 -192 -55t-208 52l58 104q61 -33 135 -33q123 0 123 82z" />
    <glyph glyph-name="uni0499" unicode="&#x499;" 
d="M668 -289q0 51 -44 69t-135 17l15 180q-244 18 -400 150l101 125q156 -125 375 -125q136 0 208 51t72 141q0 170 -266 170h-219l12 148h195q104 0 166 43q61 43 61 115q0 162 -248 161q-195 0 -325 -98l-93 115q168 131 426 131q195 0 315 -72t120 -219q0 -84 -58 -145
t-151 -86v-9q117 -18 193 -81t75 -181q0 -147 -119 -234t-311 -100v-92q96 -8 144 -57t48 -131q1 -82 -73 -136q-74 -55 -193 -55t-207 52l58 104q61 -33 137 -33q121 0 121 82z" />
    <glyph glyph-name="uni049A" unicode="&#x49a;" 
d="M399 662v-662h-194v1411h194v-590h142l420 590h206l-462 -661l395 -592h106v-465h-153l-31 307h-47l-436 662h-140z" />
    <glyph glyph-name="uni049B" unicode="&#x49b;" 
d="M387 0h-188v1079h188v-434h178l303 434h207l-356 -499l305 -433h104v-434h-145l-31 287h-47l-344 498h-174v-498z" />
    <glyph glyph-name="uni049C" unicode="&#x49c;" 
d="M590 307h-111v357h-86v-664h-188v1411h188v-592h86v348h111v-348h41l336 592h200l-385 -661l424 -750h-215l-360 664h-41v-357z" />
    <glyph glyph-name="uni049D" unicode="&#x49d;" 
d="M383 0h-184v1079h184v-434h94v236h98v-236h54l252 434h194l-295 -497l348 -582h-204l-295 498h-54v-252h-98v252h-94v-498z" />
    <glyph glyph-name="uni04A0" unicode="&#x4a0;" 
d="M457 662v-662h-195v1245h-242v166h437v-590h141l420 590h207l-463 -661l502 -750h-232l-436 662h-139z" />
    <glyph glyph-name="uni04A1" unicode="&#x4a1;" 
d="M49 936v143h395v-434h179l303 434h207l-357 -499l410 -580h-223l-345 498h-174v-498h-188v936h-207z" />
    <glyph glyph-name="uni04A2" unicode="&#x4a2;" 
d="M1065 1411v-1253h123v-465h-154l-30 307h-134v662h-512v-662h-194v1411h194v-590h512v590h195z" />
    <glyph glyph-name="uni04A3" unicode="&#x4a3;" 
d="M836 0v475h-443v-475h-188v1079h188v-452h443v452h188v-932h123v-434h-146l-30 287h-135z" />
    <glyph glyph-name="uni04AA" unicode="&#x4aa;" 
d="M319 711q0 -295 113 -433t300 -139q187 0 325 121l100 -127q-102 -94 -242 -133q-182 -106 -182 -260q0 -109 131 -109q74 0 127 31l51 -111q-90 -45 -208 -45t-188 62q-71 62 -71 166q0 137 152 241h-2q-274 -1 -443 191t-169 538t175 538q175 194 425 194t424 -140
l-107 -125q-125 105 -303 105t-293 -135t-115 -430z" />
    <glyph glyph-name="uni04AB" unicode="&#x4ab;" 
d="M377 535q0 -203 84 -301q85 -98 233 -99q148 0 271 92l90 -129q-82 -66 -203 -100q-178 -106 -178 -258q0 -109 131 -109q74 0 127 31l51 -111q-90 -45 -208 -45q-119 0 -189 62t-70 166q0 135 158 241q-236 4 -368 155t-132 403q0 251 137 411t367 160t377 -121
l-92 -127q-123 92 -269 92t-232 -105q-85 -105 -85 -308z" />
    <glyph glyph-name="uni04AE" unicode="&#x4ae;" 
d="M713 0h-197v541l-475 870h215l360 -690h7l362 690h203l-475 -868v-543z" />
    <glyph glyph-name="uni04AF" unicode="&#x4af;" 
d="M707 -414l-185 -22v461l-411 1054h200l303 -858h9l301 858h194l-411 -1048v-445z" />
    <glyph glyph-name="uni04B0" unicode="&#x4b0;" 
d="M973 647v-143h-260v-504h-197v504h-260v143h201l-416 764h215l360 -690h7l362 690h203l-418 -764h203z" />
    <glyph glyph-name="uni04B1" unicode="&#x4b1;" 
d="M920 168v-143h-213v-439l-185 -22v461h-213v143h156l-354 911h200l303 -858h9l301 858h194l-358 -911h160z" />
    <glyph glyph-name="uni04B2" unicode="&#x4b2;" 
d="M1188 158v-465h-154l-30 307h-54l-342 618h-8l-336 -618h-209l434 752l-397 659h221l291 -524h8l303 524h209l-403 -649l356 -604h111z" />
    <glyph glyph-name="uni04B3" unicode="&#x4b3;" 
d="M1120 147v-434h-145l-31 287h-70l-282 451h-8l-285 -451h-213l395 569l-348 510h221l238 -389h8l240 389h213l-346 -501l292 -431h121z" />
    <glyph glyph-name="uni04B8" unicode="&#x4b8;" 
d="M639 307h-121v178q-420 12 -420 471v455h195v-446q0 -154 52 -227t173 -85v514h121v-512q129 16 231 101v655h195v-1411h-195v594q-100 -80 -231 -102v-185z" />
    <glyph glyph-name="uni04B9" unicode="&#x4b9;" 
d="M627 164h-113v168h-29q-155 0 -237 84t-82 235v428h188v-405q0 -96 39 -142t121 -53v320h113v-310q121 27 194 107v483h189v-1079h-189v449q-74 -72 -194 -101v-184z" />
    <glyph glyph-name="uni04BA" unicode="&#x4ba;" 
d="M164 1411h194v-600q152 115 360 115q412 0 412 -471v-455h-194v446q0 170 -60 242t-228 72t-290 -105v-655h-194v1411z" />
    <glyph glyph-name="uni04BB" unicode="&#x4bb;" 
d="M395 0h-188v1511l188 21v-754q135 162 332 162q293 0 293 -319v-621h-189v608q0 98 -38 142q-39 43 -129 43q-150 0 -269 -175v-618z" />
    <glyph glyph-name="uni04C0" unicode="&#x4c0;" 
d="M1024 1411v-154h-311v-1103h311v-154h-819v154h311v1103h-311v154h819z" />
    <glyph glyph-name="uni04CB" unicode="&#x4cb;" 
d="M1065 1411v-1253h115v-465h-154l-31 307h-125v594q-137 -109 -325 -109q-446 0 -447 471v455h195v-446q0 -168 63 -241t225 -73t289 105v655h195z" />
    <glyph glyph-name="uni04CC" unicode="&#x4cc;" 
d="M334 674q0 -195 175 -195q85 0 164 32t128 85v483h188v-932h123v-434h-145l-31 287h-135v449q-127 -117 -336 -117q-156 0 -238 84t-82 235v428h189v-405z" />
    <glyph glyph-name="uni04CF" unicode="&#x4cf;" 
d="M426 291v1077h-330v145h518v-1239q0 -143 174 -143q85 0 179 37l49 -135q-102 -57 -257 -57t-244 83q-89 84 -89 232z" />
    <glyph glyph-name="uni04D8" unicode="&#x4d8;" 
d="M610 131q299 0 326 498h-662q10 -264 92 -381t244 -117zM86 680q0 49 6 104h844q-8 262 -95 380t-252 118t-310 -125l-105 119q188 160 438 160t386 -180t136 -532q0 -353 -140 -551t-387 -198q-247 1 -384 181t-137 524z" />
    <glyph glyph-name="uni04D9" unicode="&#x4d9;" 
d="M606 125q139 0 207 83t74 257h-559q4 -172 72 -256t206 -84zM590 952q-168 0 -301 -100l-86 123q175 129 405 129t354 -152t124 -406t-128 -413q-127 -158 -350 -158q-223 -1 -344 141t-121 392q0 47 4 96h740q-10 176 -89 262t-208 86z" />
    <glyph glyph-name="uni04E2" unicode="&#x4e2;" 
d="M893 1774v-144h-559v144h559zM164 0v1411h190v-688q0 -291 -26 -516h8l485 1204h244v-1411h-191v688q0 244 27 510h-8l-481 -1198h-248z" />
    <glyph glyph-name="uni04E3" unicode="&#x4e3;" 
d="M907 1522v-142h-559v142h559zM1030 1079v-1079h-182v487q0 266 22 390h-8l-442 -877h-221v1079h182v-487q0 -225 -21 -383h9l438 870h223z" />
    <glyph glyph-name="uni04E8" unicode="&#x4e8;" 
d="M614 1276q-154 0 -230 -119t-89 -358h637q-10 237 -87 357t-231 120zM614 135q162 0 238 129t82 391h-641q12 -520 321 -520zM615 1436q253 0 389 -196t135 -532q0 -335 -135 -534q-136 -199 -390 -199t-389 196q-135 195 -135 529t136 535t389 201z" />
    <glyph glyph-name="uni04E9" unicode="&#x4e9;" 
d="M614 127q244 0 269 334h-537q24 -334 268 -334zM614 952q-250 0 -268 -348h537q-19 348 -269 348zM143 536q0 260 124 414t350 154q225 0 347 -151t122 -409t-124 -414q-124 -155 -350 -155t-347 151q-122 151 -122 410z" />
    <glyph glyph-name="uni04EE" unicode="&#x4ee;" 
d="M918 1774v-144h-560v144h560zM1194 1411l-424 -1030q-82 -197 -192 -288t-332 -118l-29 152q176 25 252 82t121 178h-80l-463 1024h203l387 -891h8l352 891h197z" />
    <glyph glyph-name="uni04EF" unicode="&#x4ef;" 
d="M895 1522v-142h-559v142h559zM1110 1079l-377 -1085q-65 -190 -179 -300t-316 -130l-27 147q157 27 227 91t117 198h-63l-373 1079h200l295 -927h9l292 927h195z" />
    <glyph glyph-name="uni2007" unicode="&#x2007;" 
 />
    <glyph glyph-name="uni2008" unicode="&#x2008;" 
 />
    <glyph glyph-name="uni200B" unicode="&#x200b;" 
 />
    <glyph glyph-name="figuredash" unicode="&#x2012;" 
d="M1157 561h-1085v160h1085v-160z" />
    <glyph glyph-name="endash" unicode="&#x2013;" 
d="M1163 561h-1097v160h1097v-160z" />
    <glyph glyph-name="emdash" unicode="&#x2014;" 
d="M1229 561h-1229v160h1229v-160z" />
    <glyph glyph-name="afii00208" unicode="&#x2015;" 
d="M1163 643h-1097v160h1097v-160z" />
    <glyph glyph-name="underscoredbl" unicode="&#x2017;" 
d="M1235 -162h-1241v162h1241v-162zM1235 -440h-1241v161h1241v-161z" />
    <glyph glyph-name="quoteleft" unicode="&#x2018;" 
d="M760 1130q0 -70 -47 -114q-47 -45 -113 -45t-112 45t-46 107t39 145l166 348h139l-84 -375q58 -41 58 -111z" />
    <glyph glyph-name="quoteright" unicode="&#x2019;" 
d="M467 1456q0 70 47 114q47 46 113 46q67 0 113 -45t46 -105t-41 -147l-165 -348h-140l84 375q-57 40 -57 110z" />
    <glyph glyph-name="quotesinglbase" unicode="&#x201a;" 
d="M467 112q0 70 47 115t113 45q67 0 113 -45t46 -105t-41 -147l-165 -348h-140l84 375q-57 40 -57 110z" />
    <glyph glyph-name="quotedblleft" unicode="&#x201c;" 
d="M983 1130q0 -70 -47 -114q-47 -45 -113 -45q-65 0 -111 45t-46 107t39 145l165 348h140l-84 -375q57 -41 57 -111zM537 1130q1 -70 -47 -114q-48 -45 -114 -45t-112 44q-45 44 -45 107t39 146l164 348h141l-84 -375q58 -41 58 -111z" />
    <glyph glyph-name="quotedblright" unicode="&#x201d;" 
d="M690 1456q0 70 47 114q47 46 113 46t113 -45t47 -105t-41 -147l-166 -348h-139l84 375q-58 40 -58 110zM244 1456q0 70 47 114q47 46 113 46t112 -45q47 -45 47 -103t-43 -149l-164 -348h-139l82 375q-55 40 -55 110z" />
    <glyph glyph-name="quotedblbase" unicode="&#x201e;" 
d="M690 112q0 70 47 115t113 45t112 -45t46 -106t-39 -146l-166 -348h-139l84 375q-58 40 -58 110zM246 112q0 70 47 115t113 45t112 -45t47 -105q0 -60 -41 -147l-166 -348h-139l84 375q-57 40 -57 110z" />
    <glyph glyph-name="dagger" unicode="&#x2020;" 
d="M1051 911h-346v-911h-181v911h-346v158h346v317h181v-317h346v-158z" />
    <glyph glyph-name="daggerdbl" unicode="&#x2021;" 
d="M705 483h346v-157h-346v-326h-181v326h-346v157h346v414h-346v158h346v331h181v-331h346v-158h-346v-414z" />
    <glyph glyph-name="bullet" unicode="&#x2022;" 
d="M614 446q-110 0 -182 73t-72 181t73 181q73 71 181 71t182 -72q72 -72 72 -182q0 -108 -72 -180t-182 -72z" />
    <glyph glyph-name="ellipsis" unicode="&#x2026;" 
d="M883 119q0 59 41 100t101 41t101 -41t41 -100t-41 -101t-101 -43q-60 1 -101 43t-41 101zM61 119q0 59 41 100q42 41 102 41t101 -41t41 -100t-41 -101t-101 -43q-60 0 -102 42q-41 43 -41 102zM471 119q0 59 42 100t101 41q58 0 100 -41t42 -100t-41 -101t-101 -43
q-60 1 -101 43q-42 42 -42 101z" />
    <glyph glyph-name="perthousand" unicode="&#x2030;" 
d="M332 1436q118 0 192 -77t74 -204t-74 -202t-192 -75t-193 76q-76 74 -76 201t76 204t193 77zM211 1154q0 -171 122 -171t122 171t-122 171t-122 -171zM598 252q0 -127 -75 -202t-193 -75t-192 75q-75 75 -75 203t75 204q75 75 193 75q119 0 193 -76t74 -204zM332 422
q-123 0 -123 -171t123 -171q72 0 96 47t25 126q0 79 -25 124t-96 45zM1155 963l-1094 -422l-51 118l1096 422zM1165 252q1 -127 -73 -202t-192 -75t-194 75t-75 202q0 127 76 204q77 76 193 76t191 -76q74 -77 74 -204zM776 251q0 -171 123 -171t123 171t-123 171t-123 -171
z" />
    <glyph glyph-name="guilsinglleft" unicode="&#x2039;" 
d="M578 600l272 -424l-113 -72l-358 428v134l358 430l113 -72z" />
    <glyph glyph-name="guilsinglright" unicode="&#x203a;" 
d="M379 176l272 424l-272 424l113 72l358 -430v-134l-358 -428z" />
    <glyph glyph-name="fraction" unicode="&#x2044;" 
d="M1194 899l-1094 -524l-65 114l1095 525z" />
    <glyph glyph-name="uni2070" unicode="&#x2070;" 
d="M930 1106q0 -148 -83 -246t-233 -98t-234 97t-83 246q0 149 84 244q83 95 233 95t233 -95t83 -243zM766 1102q0 215 -153 215t-153 -215t154 -215q152 0 152 215z" />
    <glyph glyph-name="uni2074" unicode="&#x2074;" 
d="M930 889h-111v-115h-155v115h-367v102l274 461l134 -53l-232 -385h191l14 174h141v-174h111v-125z" />
    <glyph glyph-name="uni2075" unicode="&#x2075;" 
d="M913 992q0 -108 -83 -169t-218 -61q-184 0 -297 112l97 84q84 -74 196 -73q141 0 142 112q0 102 -123 103q-66 0 -131 -33h-117v365h502l-15 -125h-334v-125q68 30 160 30t156 -56q65 -56 65 -164z" />
    <glyph glyph-name="uni2076" unicode="&#x2076;" 
d="M649 1104q-94 0 -186 -80q20 -63 57 -100t106 -37q70 0 106 31t36 79q0 107 -119 107zM647 1319q-180 0 -188 -195q99 84 213 84t185 -53t71 -158t-86 -171t-228 -64q-142 0 -228 95q-85 95 -85 243t90 246q89 98 237 98t246 -58l-73 -100q-66 33 -154 33z" />
    <glyph glyph-name="uni2077" unicode="&#x2077;" 
d="M326 1305v127h577v-105l-334 -569l-151 63l315 484h-407z" />
    <glyph glyph-name="uni2078" unicode="&#x2078;" 
d="M481 1268q0 -29 36 -47t126 -35q57 18 82 36t25 44q0 27 -35 45t-101 18q-133 0 -133 -61zM612 887q76 -1 121 23t45 63t-50 59t-161 41q-117 -35 -116 -104q0 -82 161 -82zM905 1274q0 -104 -147 -135q92 -27 137 -67t45 -105q0 -93 -88 -149t-240 -56t-238 55t-85 146
q0 121 168 159q-131 47 -131 148q0 76 81 125t211 49t208 -49q79 -49 79 -121z" />
    <glyph glyph-name="uni2079" unicode="&#x2079;" 
d="M598 1122q90 0 174 45q-4 152 -162 152q-70 0 -110 -27t-39 -75q0 -95 137 -95zM548 1008q-104 0 -176 53t-73 155q0 102 91 164q90 62 232 64q142 0 227 -75t85 -206q0 -176 -129 -274t-393 -127l-39 121q170 23 257 63t136 121l-4 2q-110 -61 -214 -61z" />
    <glyph glyph-name="uni207A" unicode="&#x207a;" 
d="M371 1180h174v182h141v-182h172v-131h-172v-181h-141v181h-174v131z" />
    <glyph glyph-name="uni207B" unicode="&#x207b;" 
d="M858 1049h-487v131h487v-131z" />
    <glyph glyph-name="uni207C" unicode="&#x207c;" 
d="M858 1171h-489v134h489v-134zM858 924h-489v133h489v-133z" />
    <glyph glyph-name="uni207D" unicode="&#x207d;" 
d="M612 1104q0 -152 35 -249t127 -234l-98 -62q-115 145 -167 260t-52 286t52 286t167 260l98 -62q-92 -139 -127 -236t-35 -249z" />
    <glyph glyph-name="uni207E" unicode="&#x207e;" 
d="M616 1104q0 152 -34 249q-35 97 -127 236l98 62q115 -145 167 -260t52 -286t-52 -286t-167 -260l-98 62q92 137 127 234q34 97 34 249z" />
    <glyph glyph-name="uni207F" unicode="&#x207f;" 
d="M496 774h-156v692h139l6 -61q88 76 199 76q207 0 207 -211v-496h-156v420q0 92 -17 128t-73 36q-80 0 -149 -94v-490z" />
    <glyph glyph-name="uni2080" unicode="&#x2080;" 
d="M614 -352q-150 0 -234 97t-83 246q0 149 84 243q83 94 233 96q150 0 233 -95t83 -243t-83 -246t-233 -98zM766 -12q0 215 -153 215t-153 -215t154 -215q152 0 152 215z" />
    <glyph glyph-name="uni2081" unicode="&#x2081;" 
d="M825 -340h-153v483l-193 -104l-76 106l297 172h125v-657z" />
    <glyph glyph-name="uni2082" unicode="&#x2082;" 
d="M893 115q0 -96 -72 -163t-268 -163h360l-18 -129h-569v113q260 156 330 212t71 110q0 106 -113 106t-192 -97l-109 82q125 143 305 144q129 0 202 -60t73 -155z" />
    <glyph glyph-name="uni2083" unicode="&#x2083;" 
d="M928 -145q0 -95 -85 -151t-233 -56q-195 0 -311 119l98 81q92 -80 217 -79q150 0 150 97t-141 97h-97l17 92h71q125 0 125 78t-117 78t-214 -76l-84 88q129 106 307 107q125 0 197 -48t71 -128q0 -109 -131 -131v-7q160 -22 160 -161z" />
    <glyph glyph-name="uni2084" unicode="&#x2084;" 
d="M930 -225h-111v-115h-155v115h-367v102l274 461l134 -53l-232 -385h191l14 174h141v-174h111v-125z" />
    <glyph glyph-name="uni2085" unicode="&#x2085;" 
d="M913 -122q0 -108 -83 -169t-218 -61q-184 0 -297 112l97 84q84 -74 196 -73q141 0 142 112q0 102 -123 103q-66 0 -131 -33h-117v364h502l-15 -124h-334v-125q68 30 160 30t156 -56q65 -56 65 -164z" />
    <glyph glyph-name="uni2086" unicode="&#x2086;" 
d="M649 -10q-94 0 -186 -80q20 -63 57 -100t106 -37q70 1 106 31t36 79q0 107 -119 107zM647 205q-180 0 -188 -195q99 84 213 84t185 -53t71 -158t-86 -171t-228 -64q-142 0 -228 95q-85 95 -85 243t90 246q89 97 237 97t246 -57l-73 -100q-66 33 -154 33z" />
    <glyph glyph-name="uni2087" unicode="&#x2087;" 
d="M326 190v127h577v-104l-334 -569l-151 63l315 483h-407z" />
    <glyph glyph-name="uni2088" unicode="&#x2088;" 
d="M481 154q0 -30 36 -48t126 -34q57 18 82 36t25 44q0 27 -35 45t-101 18q-133 0 -133 -61zM612 -227q76 -1 121 23t45 63t-50 59t-161 41q-117 -35 -116 -104q0 -82 161 -82zM905 160q0 -104 -147 -135q92 -27 137 -67t45 -105q0 -93 -88 -149t-240 -56t-238 55t-85 145
q0 121 168 160q-131 47 -131 148q0 76 81 125t211 49t208 -49q79 -49 79 -121z" />
    <glyph glyph-name="uni2089" unicode="&#x2089;" 
d="M598 8q90 0 174 45q-4 152 -162 152q-70 0 -110 -27t-39 -76q0 -94 137 -94zM548 -106q-104 0 -176 53t-73 155q0 102 91 164q90 62 232 64q142 0 227 -75t85 -206q0 -176 -129 -274t-393 -127l-39 121q170 23 257 63t136 121l-4 2q-110 -61 -214 -61z" />
    <glyph glyph-name="uni208A" unicode="&#x208a;" 
d="M371 66h174v182h141v-182h172v-132h-172v-180h-141v180h-174v132z" />
    <glyph glyph-name="uni208B" unicode="&#x208b;" 
d="M858 -66h-487v132h487v-132z" />
    <glyph glyph-name="uni208C" unicode="&#x208c;" 
d="M858 57h-489v133h489v-133zM858 -190h-489v133h489v-133z" />
    <glyph glyph-name="uni208D" unicode="&#x208d;" 
d="M600 -10q0 -152 35 -249t127 -235l-98 -61q-115 145 -167 260q-53 115 -53 286t52 285t168 261l98 -62q-92 -139 -127 -236t-35 -249z" />
    <glyph glyph-name="uni208E" unicode="&#x208e;" 
d="M627 -10q0 152 -35 249t-127 236l98 62q115 -145 167 -261t52 -286t-52 -285t-167 -260l-98 61q92 136 127 234t35 250z" />
    <glyph glyph-name="Euro" unicode="&#x20ac;" 
d="M246 696q0 48 4 109h-178l30 125h164q44 242 184 374t332 132t334 -95l-90 -133q-106 70 -231 70q-279 0 -332 -348h493l-30 -125h-477q-8 -113 0 -184h438l-31 -127h-399q25 -188 103 -275q78 -86 234 -86t279 103v-187q-129 -74 -297 -74q-215 -1 -346 133t-168 386
h-190l30 127h146q-2 27 -2 75z" />
    <glyph glyph-name="litre" unicode="&#x2113;" 
d="M573 1087v-155q135 61 192 142q56 81 56 190q0 139 -106 139q-80 0 -111 -71t-31 -245zM991 1270q0 -322 -418 -482v-514q0 -143 175 -143q84 0 178 37l49 -135q-102 -57 -257 -57t-244 83q-89 84 -89 232v438q-102 -25 -213 -43l-22 127q147 27 235 53v211
q0 459 336 459q131 0 201 -74t69 -192z" />
    <glyph glyph-name="uni2116" unicode="&#x2116;" 
d="M625 0h-228l-223 1194h-8q27 -213 27 -506v-688h-142v1411h232l219 -1200h8q-27 213 -27 512v688h142v-1411zM1184 0h-502v152h502v-152zM664 981q0 455 268 455q142 0 204 -118t62 -337q0 -455 -267 -455t-267 455zM1032 980q0 173 -21 251q-22 78 -79 78t-79 -78
t-22 -250t22 -250t79 -78t79 77q21 77 21 250z" />
    <glyph glyph-name="trademark" unicode="&#x2122;" 
d="M1190 610h-133l-19 453q-4 141 0 213h-6l-94 -582h-137l-113 582h-6q4 -68 0 -211l-16 -455h-127l32 801h195l100 -543h8l84 543h201zM315 1290v-680h-137v680h-158v121h465l-24 -121h-146z" />
    <glyph glyph-name="Omega" unicode="&#x2126;" 
d="M614 1276q-162 0 -242 -132t-79 -423q0 -451 254 -578v-143h-434v154h229v8q-252 129 -252 559q0 336 140 525q140 190 384 190t384 -190t141 -525q0 -422 -256 -559v-8h233v-154h-432v143q252 127 252 578q0 291 -80 423t-242 132z" />
    <glyph glyph-name="estimated" unicode="&#x212e;" 
d="M1194 684h-885v-534q117 -96 316 -97q285 0 395 199h100q-139 -276 -497 -277q-252 0 -397 126q-144 126 -183 337v520q35 214 175 346t400 132t400 -132t176 -346v-274zM922 764v504q-110 88 -306 88t-307 -86v-506h613z" />
    <glyph glyph-name="onethird" unicode="&#x2153;" 
d="M1153 899l-1094 -524l-65 114l1096 525zM461 774h-154v483l-192 -104l-76 107l297 172h125v-658zM1235 195q0 -95 -85 -151t-232 -56q-195 0 -312 118l99 82q92 -80 217 -79q150 0 149 98q0 96 -141 96h-96l16 92h72q125 0 125 78t-117 78t-215 -76l-84 88
q129 106 307 107q125 0 197 -48t71 -128q0 -109 -131 -132v-6q160 -22 160 -161z" />
    <glyph glyph-name="twothirds" unicode="&#x2154;" 
d="M1249 195q0 -95 -85 -151t-232 -56q-195 0 -311 118l98 82q92 -80 217 -79q150 0 149 98q0 96 -141 96h-96l16 92h72q125 0 125 78t-117 78t-215 -76l-84 88q129 106 307 107q125 0 197 -48t72 -128q0 -109 -131 -132v-6q159 -22 159 -161zM1196 899l-1094 -524l-65 114
l1096 525zM569 1229q1 -96 -71 -163t-269 -163h361l-19 -129h-569v113q260 156 331 212q71 57 71 111q-1 106 -114 105q-112 0 -192 -96l-108 81q125 143 305 144q129 0 201 -60t73 -155z" />
    <glyph glyph-name="uni2155" unicode="&#x2155;" 
d="M1157 899l-1094 -524l-65 114l1096 525zM465 774h-154v483l-192 -104l-76 107l297 172h125v-658zM1260 218q0 -108 -83 -169t-219 -61q-184 0 -296 112l96 84q82 -74 196 -73q141 0 142 112q0 102 -123 103q-66 0 -131 -33h-117v364h502l-15 -125h-333v-124q68 30 159 30
q90 0 156 -56t66 -164z" />
    <glyph glyph-name="uni2156" unicode="&#x2156;" 
d="M1196 899l-1094 -524l-65 114l1096 525zM569 1229q1 -96 -71 -163t-269 -163h361l-19 -129h-569v113q260 156 331 212q71 57 71 111q-1 106 -114 105q-112 0 -192 -96l-108 81q125 143 305 144q129 0 201 -60t73 -155zM1268 218q0 -108 -83 -169t-218 -61
q-184 0 -297 112l96 84q82 -74 197 -73q141 0 141 112q0 102 -123 103q-66 0 -131 -33h-117v364h502l-14 -125h-334v-124q68 30 159 30q90 0 156 -56t66 -164z" />
    <glyph glyph-name="uni2157" unicode="&#x2157;" 
d="M1159 899l-1093 -524l-66 114l1096 525zM629 969q0 -95 -85 -151t-233 -56q-195 0 -311 119l98 82q92 -80 217 -80q150 0 150 97t-141 97h-97l17 92h71q125 0 125 78t-117 78t-214 -76l-84 88q129 106 307 107q124 0 196 -48t72 -128q0 -109 -131 -131v-7
q160 -22 160 -161zM1270 218q0 -108 -83 -169t-218 -61q-184 0 -297 112l96 84q84 -74 197 -73q141 0 141 112q0 102 -123 103q-66 0 -131 -33h-117v364h502l-14 -125h-334v-124q68 30 159 30q90 0 156 -56t66 -164z" />
    <glyph glyph-name="uni2158" unicode="&#x2158;" 
d="M1266 218q0 -108 -83 -169t-218 -61q-184 0 -297 112l96 84q84 -74 197 -73q141 0 141 112q0 102 -123 103q-66 0 -131 -33h-117v364h502l-14 -125h-334v-124q68 30 159 30q90 0 156 -56t66 -164zM1159 899l-1093 -524l-66 114l1096 525zM633 889h-111v-115h-155v115
h-367v102l274 461l134 -53l-232 -385h191l14 174h141v-174h111v-125z" />
    <glyph glyph-name="uni2159" unicode="&#x2159;" 
d="M1167 899l-1093 -524l-66 114l1096 525zM475 774h-153v483l-193 -104l-76 107l297 172h125v-658zM950 330q-94 0 -186 -80q20 -63 57 -100t106 -37q69 1 105 31t37 79q0 107 -119 107zM948 545q-180 0 -188 -195q98 84 212 84t186 -53q71 -53 71 -158t-86 -171
q-87 -66 -229 -64q-142 0 -227 95t-85 243t90 246q90 97 238 97t246 -57l-74 -100q-66 33 -154 33z" />
    <glyph glyph-name="uni215A" unicode="&#x215a;" 
d="M1159 899l-1093 -524l-66 114l1096 525zM637 992q0 -108 -83 -169t-218 -61q-184 0 -297 112l96 84q82 -74 197 -73q141 0 141 112q0 102 -123 103q-66 0 -131 -33h-117v365h502l-14 -125h-334v-125q68 30 159 30t157 -56t65 -164zM936 330q-94 0 -186 -80
q20 -63 57 -100t105 -37q68 1 106 31q37 30 37 79q0 107 -119 107zM934 545q-180 0 -189 -195q98 84 213 84t186 -53q70 -53 70 -158t-86 -171t-228 -64q-142 0 -228 95q-84 95 -84 243t90 246q90 97 238 97t245 -57l-74 -100q-66 33 -153 33z" />
    <glyph glyph-name="oneeighth" unicode="&#x215b;" 
d="M1167 899l-1093 -524l-66 114l1096 525zM475 774h-153v483l-193 -104l-76 107l297 172h125v-658zM791 494q0 -29 35 -48q36 -18 126 -34q57 18 82 35t25 45t-35 45q-35 18 -100 18q-133 0 -133 -61zM922 113q76 -1 120 23t45 63q0 39 -50 59t-160 41q-117 -35 -117 -104
q0 -82 162 -82zM1214 500q0 -104 -147 -135q92 -27 137 -67t45 -105q0 -93 -88 -149q-87 -56 -239 -56t-238 55t-86 145q0 121 168 160q-131 47 -131 148q0 76 81 125t211 49q131 0 209 -49t78 -121z" />
    <glyph glyph-name="threeeighths" unicode="&#x215c;" 
d="M1159 899l-1093 -524l-66 114l1096 525zM629 969q0 -95 -85 -151t-233 -56q-195 0 -311 119l98 82q92 -80 217 -80q150 0 150 97t-141 97h-97l17 92h71q125 0 125 78t-117 78t-214 -76l-84 88q129 106 307 107q124 0 196 -48t72 -128q0 -109 -131 -131v-7
q160 -22 160 -161zM772 494q0 -30 36 -48t126 -34q57 18 82 35q24 17 24 45t-34 45q-35 18 -101 18q-133 0 -133 -61zM903 113q76 -1 121 23t45 63t-50 59t-161 41q-117 -35 -117 -104q0 -82 162 -82zM1196 500q0 -104 -147 -135q92 -27 137 -67t45 -105q0 -93 -88 -149
t-240 -56q-151 0 -237 55t-86 145q0 121 168 160q-131 47 -132 148q0 76 81 125t211 49t209 -49t79 -121z" />
    <glyph glyph-name="fiveeighths" unicode="&#x215d;" 
d="M795 494q0 -29 35 -48q36 -18 126 -34q57 18 82 35t25 45t-35 45q-35 18 -100 18q-133 0 -133 -61zM926 113q76 -1 121 23t45 63t-50 59t-161 41q-117 -35 -117 -104q0 -82 162 -82zM1219 500q0 -104 -148 -135q92 -27 137 -67t45 -105q0 -93 -88 -149q-87 -56 -239 -56
t-238 55t-86 145q0 121 168 160q-131 47 -131 148q0 76 81 125t211 49t209 -49t79 -121zM1159 899l-1093 -524l-66 114l1096 525zM637 992q0 -108 -83 -169t-218 -61q-184 0 -297 112l96 84q82 -74 197 -73q141 0 141 112q0 102 -123 103q-66 0 -131 -33h-117v365h502
l-14 -125h-334v-125q68 30 159 30t157 -56t65 -164z" />
    <glyph glyph-name="seveneighths" unicode="&#x215e;" 
d="M772 494q0 -30 36 -48t126 -34q57 18 82 35q24 17 24 45t-34 45q-35 18 -101 18q-133 0 -133 -61zM903 113q76 -1 121 23t45 63t-50 59t-161 41q-117 -35 -117 -104q0 -82 162 -82zM1196 500q0 -104 -147 -135q92 -27 137 -67t45 -105q0 -93 -88 -149t-240 -56
q-151 0 -237 55t-86 145q0 121 168 160q-131 47 -132 148q0 76 81 125t211 49t209 -49t79 -121zM1139 899l-1094 -524l-65 114l1095 525zM123 1305v127h577v-105l-333 -569l-152 63l315 484h-407z" />
    <glyph glyph-name="uni215F" unicode="&#x215f;" 
d="M1167 899l-1093 -524l-66 114l1096 525zM475 774h-153v483l-193 -104l-76 107l297 172h125v-658z" />
    <glyph glyph-name="arrowleft" unicode="&#x2190;" 
d="M1188 592h-848l-2 -6q45 -35 127 -123q279 -303 287 -311l-138 -117l-573 639l573 639l138 -117l-287 -311q-82 -88 -127 -123l2 -6h848v-164z" />
    <glyph glyph-name="arrowup" unicode="&#x2191;" 
d="M707 0h-185v1083l-6 2q-37 -51 -135 -141l-234 -209l-112 123l579 516l580 -516l-113 -123l-247 223q-63 55 -121 127l-6 -2v-1083z" />
    <glyph glyph-name="arrowright" unicode="&#x2192;" 
d="M41 592v164h848l2 6q-45 35 -127 123l-287 311l137 117l574 -639l-574 -639l-137 117q8 8 287 311q82 88 127 123l-2 6h-848z" />
    <glyph glyph-name="arrowdown" unicode="&#x2193;" 
d="M707 1300v-1083l6 -2q57 72 121 127l247 223l113 -123l-580 -516l-579 516l112 123l234 -209q98 -90 135 -141l6 2v1083h185z" />
    <glyph glyph-name="arrowboth" unicode="&#x2194;" 
d="M1094 592h-959l-2 -6q45 -35 127 -123l223 -250l-135 -117l-512 578l512 577l135 -116l-223 -250q-82 -88 -127 -123l2 -6h959l2 6q-45 35 -127 123l-224 250l136 116l512 -577l-512 -578l-136 117l224 250q82 88 127 123z" />
    <glyph glyph-name="arrowupdn" unicode="&#x2195;" 
d="M707 1292v-1192l6 -2q57 72 121 127l247 224l113 -123l-580 -516l-579 516l112 123l234 -209q98 -90 135 -142l6 2v1192l-6 2q-37 -51 -135 -141l-234 -209l-112 123l579 516l580 -516l-113 -123l-247 223q-63 55 -121 127z" />
    <glyph glyph-name="uni2196" unicode="&#x2196;" 
d="M395 1040l760 -764l-125 -124l-758 763l-6 -2q8 -90 4 -196l-18 -404l-178 9l45 864l864 45l14 -170l-401 -17q-109 -4 -199 3z" />
    <glyph glyph-name="uni2197" unicode="&#x2197;" 
d="M74 276l760 764l-3 7q-82 -6 -198 -3l-402 17l15 170l864 -45l45 -864l-178 -9l-19 404q-2 86 5 196l-7 2l-757 -763z" />
    <glyph glyph-name="uni2198" unicode="&#x2198;" 
d="M834 272l-760 764l125 125l757 -764l7 2q-10 100 -5 197l19 403l178 -8l-45 -864l-864 -45l-15 170l402 16q109 4 198 -2z" />
    <glyph glyph-name="uni2199" unicode="&#x2199;" 
d="M1155 1036l-760 -764l2 -6q82 6 199 2l401 -16l-14 -170l-864 45l-45 864l178 8l18 -403q4 -104 -4 -197l6 -2l758 764z" />
    <glyph glyph-name="uni21E6" unicode="&#x21e6;" 
d="M1221 477v328h-785v227l-387 -391l387 -391v227h785zM1311 793v-304q0 -47 -29 -75t-74 -27h-680v-360l-610 614l610 614v-360h680q45 1 74 -27t29 -75z" />
    <glyph glyph-name="uni21E7" unicode="&#x21e7;" 
d="M442 66h344v1120h220l-392 387l-391 -387h219v-1120zM780 -25h-331q-47 0 -75 29t-28 74v1016h-346l614 610l615 -610h-346v-1016q0 -45 -28 -74t-75 -29z" />
    <glyph glyph-name="uni21E8" unicode="&#x21e8;" 
d="M8 805v-328h785v-227l387 391l-387 391v-227h-785zM-82 489v304q0 47 29 75t73 27h680v360l611 -614l-611 -614v360h-680q-46 -1 -74 27t-28 75z" />
    <glyph glyph-name="uni21E9" unicode="&#x21e9;" 
d="M786 1446h-344v-1120h-219l391 -387l392 387h-220v1120zM449 1536h331q47 0 75 -29t28 -73v-1016h346l-615 -611l-614 611h346v1016q0 46 28 74t75 28z" />
    <glyph glyph-name="uni21EA" unicode="&#x21ea;" 
d="M786 231h-344v-165h344v165zM442 608h344v578h220l-392 387l-391 -387h219v-578zM346 317h537v-239q0 -45 -28 -74t-75 -29h-331q-47 0 -75 29t-28 74v239zM883 522h-537v572h-346l614 610l615 -610h-346v-572z" />
    <glyph glyph-name="partialdiff" unicode="&#x2202;" 
d="M592 737q-98 0 -163 -78t-65 -221t66 -228t176 -85q254 0 258 393v51q-121 168 -272 168zM174 427q0 204 112 331t285 127q174 0 285 -154l2 2q-14 207 -162 350t-407 213l43 140q387 -102 555 -308t168 -596q0 -244 -121 -400q-120 -156 -314 -157q-194 0 -320 124
t-126 328z" />
    <glyph glyph-name="Delta" unicode="&#x2206;" 
d="M606 1235l-327 -1075h661l-326 1075h-8zM35 0l457 1411h245l457 -1411h-1159z" />
    <glyph glyph-name="product" unicode="&#x220f;" 
d="M817 1255h-401v-1669l-187 -22v1691h-174v156h1119v-156h-173v-1669l-184 -22v1691z" />
    <glyph glyph-name="summation" unicode="&#x2211;" 
d="M1026 160v-160h-825v160l454 545l-454 546v160h825v-160h-606l397 -479v-127l-397 -485h606z" />
    <glyph glyph-name="minus" unicode="&#x2212;" 
d="M999 557h-770v166h770v-166z" />
    <glyph glyph-name="uni2215" unicode="&#x2215;" 
d="M1194 899l-1094 -524l-65 114l1095 525z" />
    <glyph glyph-name="uni2219" unicode="&#x2219;" 
d="M428 692q0 78 53 131t132 53t132 -52q53 -54 53 -132t-52 -132q-54 -54 -133 -54t-132 54t-53 132z" />
    <glyph glyph-name="radical" unicode="&#x221a;" 
d="M1430 1618h-377l-451 -1618h-213l-342 936l166 55l272 -784h9l426 1569h510v-158z" />
    <glyph glyph-name="infinity" unicode="&#x221e;" 
d="M1061 645q0 256 -143 256q-83 0 -132 -81t-92 -195q66 -139 112 -187t112 -49q143 0 143 256zM295 1051q106 1 181 -63t136 -197q59 125 132 193t182 67q164 0 240 -112t75 -294q0 -182 -75 -293t-234 -110q-109 0 -185 64t-133 196q-57 -123 -130 -192t-183 -68
q-164 0 -240 112t-75 293q0 182 74 293q75 111 235 111zM166 647q0 -256 143 -256q83 0 132 82t91 195q-66 139 -112 187t-111 48q-143 0 -143 -256z" />
    <glyph glyph-name="intersection" unicode="&#x2229;" 
d="M301 713v-635h-160v635q1 197 139 335t334 138t335 -138q138 -138 138 -335v-635h-159v635q0 129 -92 221t-222 92t-221 -92q-92 -92 -92 -221z" />
    <glyph glyph-name="integral" unicode="&#x222b;" 
d="M842 1593q-86 0 -118 -39t-32 -118v-1577q0 -145 -79 -220t-210 -75t-253 55l59 137q86 -39 170 -39q131 0 131 142v1577q0 154 81 232t223 77q142 0 265 -55l-59 -138q-92 41 -178 41z" />
    <glyph glyph-name="approxequal" unicode="&#x2248;" 
d="M768 317q-70 0 -131 29q-61 30 -109 58t-79 28q-78 0 -138 -104l-125 65q96 188 275 189q70 0 131 -29t108 -59t80 -29q78 0 138 104l124 -65q-96 -187 -274 -187zM768 705q-70 1 -131 29t-109 57t-79 28q-78 0 -138 -104l-125 65q96 188 275 189q70 0 131 -30
q61 -31 108 -59t80 -28q78 0 138 104l124 -65q-96 -186 -274 -186z" />
    <glyph glyph-name="notequal" unicode="&#x2260;" 
d="M1020 360h-504l-180 -307l-105 60l148 247h-170v160h266l137 234h-403v159h500l182 308l102 -56l-149 -252h176v-159h-270l-140 -234h410v-160z" />
    <glyph glyph-name="equivalence" unicode="&#x2261;" 
d="M1020 952h-811v160h811v-160zM1020 559h-811v160h811v-160zM1020 166h-811v160h811v-160z" />
    <glyph glyph-name="lessequal" unicode="&#x2264;" 
d="M942 299l-731 317v195l731 332l74 -150l-656 -280l656 -258zM981 0h-770v162h770v-162z" />
    <glyph glyph-name="greaterequal" unicode="&#x2265;" 
d="M285 1143l731 -332v-195l-731 -317l-74 150l655 264l-655 276zM1016 0h-770v162h770v-162z" />
    <glyph glyph-name="house" unicode="&#x2302;" 
d="M225 133h779v434l-392 351l-387 -351v-434zM1147 0h-1065v631l530 473l535 -473v-631z" />
    <glyph glyph-name="revlogicalnot" unicode="&#x2310;" 
d="M229 268v451h770v-158h-600v-293h-170z" />
    <glyph glyph-name="integraltp" unicode="&#x2320;" 
d="M842 1593q-86 0 -118 -39t-32 -118v-2460h-182v2460q0 154 81 232t223 77q142 0 265 -55l-59 -138q-92 41 -178 41z" />
    <glyph glyph-name="integralbt" unicode="&#x2321;" 
d="M379 -283q131 0 131 142v2189h182v-2189q0 -145 -79 -220t-210 -75t-253 55l59 137q86 -39 170 -39z" />
    <glyph glyph-name="uni2326" unicode="&#x2326;" 
d="M313 727l-274 -274l137 -138l275 275l274 -275l137 138l-274 274l274 272l-137 142l-274 -277l-275 277l-137 -142zM-164 1276q0 22 14 55q10 16 21 25q8 4 18 11t41 11h889l697 -657l-697 -664h-889q-2 0 -32 6q-24 10 -48 39q-8 16 -10 27v2q-2 4 -2 6l-2 13v1126z" />
    <glyph glyph-name="uni2327" unicode="&#x2327;" 
d="M477 727l-274 -274l137 -138l274 275l275 -275l137 138l-274 274l274 272l-137 142l-275 -277l-274 277l-137 -142zM1290 57h-1351q-45 0 -74 29t-29 74v1116q0 47 29 75t74 27h1351q45 0 74 -28t29 -74v-1116q0 -45 -29 -74t-74 -29z" />
    <glyph glyph-name="uni2328" unicode="&#x2328;" 
d="M1096 457h-893q-17 -1 -29 -13t-12 -28v-152q0 -16 12 -28t29 -13h893q16 1 28 13t13 28v152q-1 16 -13 28t-28 13zM948 795h-151q-17 -1 -29 -13t-12 -28v-152q0 -16 12 -28t29 -13h151q16 0 29 12q12 12 12 29v152q-1 16 -13 28t-28 13zM596 795h-152q-16 -1 -28 -13
t-13 -28v-152q1 -16 13 -28t28 -13h152q16 0 29 12q12 12 12 29v152q-1 16 -13 28t-28 13zM244 795h-152q-16 -1 -28 -13t-13 -28v-152q0 -16 12 -28t29 -13h152q16 0 28 12t13 29v152q-1 16 -13 28t-28 13zM866 1143h-151q-17 -1 -29 -13t-12 -28v-152q0 -16 12 -28t29 -13
h151q16 1 28 13t13 28v152q-1 16 -13 28t-28 13zM514 1143h-152q-16 -1 -28 -13t-12 -28v-152q0 -16 12 -28t28 -13h152q16 1 28 13t13 28v152q-1 16 -13 28t-28 13zM162 1143h-152q-16 -1 -28 -13t-13 -28v-152q1 -16 13 -28t28 -13h152q16 1 28 13t13 28v152q-1 16 -13 28
t-28 13zM1126 868v-266q0 -16 12 -28t29 -13h111q16 0 29 12q12 12 12 29v500q0 16 -12 28t-29 13h-193q-16 -1 -28 -13t-13 -28v-152q0 -16 12 -28t29 -12q16 0 29 -13q12 -13 12 -29zM1341 78h-1392q-47 0 -75 28t-28 74v1014q0 47 28 75t75 27h1392q47 0 75 -28t28 -74
v-1014q0 -46 -28 -74t-75 -28z" />
    <glyph glyph-name="uni232B" unicode="&#x232b;" 
d="M1290 57h-880l-697 664l697 657h880q45 0 74 -28t29 -74v-1116q0 -45 -29 -74t-74 -29zM1190 453l-275 274l275 272l-137 142l-275 -277l-274 277l-137 -142l274 -272l-274 -274l137 -138l274 275l275 -275z" />
    <glyph glyph-name="uni23CE" unicode="&#x23ce;" 
d="M1196 477v969h-344v-641h-395v227l-387 -391l387 -391v227h739zM760 897v537q0 46 28 74t74 28h326q45 0 74 -29t28 -73v-945q0 -47 -28 -75t-74 -27h-639v-356l-610 610l610 612v-356h211z" />
    <glyph glyph-name="SF100000" unicode="&#x2500;" 
d="M-10 635v164h1249v-164h-1249z" />
    <glyph glyph-name="uni2501" unicode="&#x2501;" 
d="M-10 471v492h1249v-492h-1249z" />
    <glyph glyph-name="SF110000" unicode="&#x2502;" 
d="M532 -1024v3072h164v-3072h-164z" />
    <glyph glyph-name="uni2503" unicode="&#x2503;" 
d="M369 -1024v3072h491v-3072h-491z" />
    <glyph glyph-name="SF010000" unicode="&#x250c;" 
d="M532 -1024v1823h707v-164h-543v-1659h-164z" />
    <glyph glyph-name="uni250D" unicode="&#x250d;" 
d="M532 -1024v1987h707v-492h-543v-1495h-164z" />
    <glyph glyph-name="uni250E" unicode="&#x250e;" 
d="M369 -1024v1823h870v-164h-379v-1659h-491z" />
    <glyph glyph-name="uni250F" unicode="&#x250f;" 
d="M369 -1024v1987h870v-492h-379v-1495h-491z" />
    <glyph glyph-name="SF030000" unicode="&#x2510;" 
d="M-10 635v164h706v-1823h-164v1659h-542z" />
    <glyph glyph-name="uni2511" unicode="&#x2511;" 
d="M-10 471v492h706v-1987h-164v1495h-542z" />
    <glyph glyph-name="uni2512" unicode="&#x2512;" 
d="M-10 635v164h870v-1823h-491v1659h-379z" />
    <glyph glyph-name="uni2513" unicode="&#x2513;" 
d="M-10 471v492h870v-1987h-491v1495h-379z" />
    <glyph glyph-name="SF020000" unicode="&#x2514;" 
d="M532 635v1413h164v-1249h543v-164h-707z" />
    <glyph glyph-name="uni2515" unicode="&#x2515;" 
d="M532 471v1577h164v-1085h543v-492h-707z" />
    <glyph glyph-name="uni2516" unicode="&#x2516;" 
d="M369 635v1413h491v-1249h379v-164h-870z" />
    <glyph glyph-name="uni2517" unicode="&#x2517;" 
d="M369 471v1577h491v-1085h379v-492h-870z" />
    <glyph glyph-name="SF040000" unicode="&#x2518;" 
d="M-10 635v164h542v1249h164v-1413h-706z" />
    <glyph glyph-name="uni2519" unicode="&#x2519;" 
d="M-10 471v492h542v1085h164v-1577h-706z" />
    <glyph glyph-name="uni251A" unicode="&#x251a;" 
d="M-10 635v164h379v1249h491v-1413h-870z" />
    <glyph glyph-name="uni251B" unicode="&#x251b;" 
d="M-10 471v492h379v1085h491v-1577h-870z" />
    <glyph glyph-name="SF080000" unicode="&#x251c;" 
d="M532 -1024v3072h164v-1249h543v-164h-543v-1659h-164z" />
    <glyph glyph-name="uni251D" unicode="&#x251d;" 
d="M532 -1024v3072h164v-1085h543v-492h-543v-1495h-164z" />
    <glyph glyph-name="uni251E" unicode="&#x251e;" 
d="M369 635v1413h491v-1249h379v-164h-543v-1659h-164v1659h-163z" />
    <glyph glyph-name="uni251F" unicode="&#x251f;" 
d="M369 -1024v1823h163v1249h164v-1249h543v-164h-379v-1659h-491z" />
    <glyph glyph-name="uni2520" unicode="&#x2520;" 
d="M369 -1024v3072h491v-1249h379v-164h-379v-1659h-491z" />
    <glyph glyph-name="uni2521" unicode="&#x2521;" 
d="M369 471v1577h491v-1085h379v-492h-543v-1495h-164v1495h-163z" />
    <glyph glyph-name="uni2522" unicode="&#x2522;" 
d="M369 -1024v1987h163v1085h164v-1085h543v-492h-379v-1495h-491z" />
    <glyph glyph-name="uni2523" unicode="&#x2523;" 
d="M369 -1024v3072h491v-1085h379v-492h-379v-1495h-491z" />
    <glyph glyph-name="SF090000" unicode="&#x2524;" 
d="M-10 635v164h542v1249h164v-3072h-164v1659h-542z" />
    <glyph glyph-name="uni2525" unicode="&#x2525;" 
d="M-10 471v492h542v1085h164v-3072h-164v1495h-542z" />
    <glyph glyph-name="uni2526" unicode="&#x2526;" 
d="M-10 635v164h379v1249h491v-1413h-164v-1659h-164v1659h-542z" />
    <glyph glyph-name="uni2527" unicode="&#x2527;" 
d="M-10 635v164h542v1249h164v-1249h164v-1823h-491v1659h-379z" />
    <glyph glyph-name="uni2528" unicode="&#x2528;" 
d="M-10 635v164h379v1249h491v-3072h-491v1659h-379z" />
    <glyph glyph-name="uni2529" unicode="&#x2529;" 
d="M-10 471v492h379v1085h491v-1577h-164v-1495h-164v1495h-542z" />
    <glyph glyph-name="uni252A" unicode="&#x252a;" 
d="M-10 471v492h542v1085h164v-1085h164v-1987h-491v1495h-379z" />
    <glyph glyph-name="uni252B" unicode="&#x252b;" 
d="M-10 471v492h379v1085h491v-3072h-491v1495h-379z" />
    <glyph glyph-name="SF060000" unicode="&#x252c;" 
d="M-10 635v164h1249v-164h-543v-1659h-164v1659h-542z" />
    <glyph glyph-name="uni252D" unicode="&#x252d;" 
d="M-10 471v492h706v-164h543v-164h-543v-1659h-164v1495h-542z" />
    <glyph glyph-name="uni252E" unicode="&#x252e;" 
d="M-10 635v164h542v164h707v-492h-543v-1495h-164v1659h-542z" />
    <glyph glyph-name="uni252F" unicode="&#x252f;" 
d="M-10 471v492h1249v-492h-543v-1495h-164v1495h-542z" />
    <glyph glyph-name="uni2530" unicode="&#x2530;" 
d="M-10 635v164h1249v-164h-379v-1659h-491v1659h-379z" />
    <glyph glyph-name="uni2531" unicode="&#x2531;" 
d="M-10 471v492h870v-164h379v-164h-379v-1659h-491v1495h-379z" />
    <glyph glyph-name="uni2532" unicode="&#x2532;" 
d="M-10 635v164h379v164h870v-492h-379v-1495h-491v1659h-379z" />
    <glyph glyph-name="uni2533" unicode="&#x2533;" 
d="M-10 471v492h1249v-492h-379v-1495h-491v1495h-379z" />
    <glyph glyph-name="SF070000" unicode="&#x2534;" 
d="M-10 635v164h542v1249h164v-1249h543v-164h-1249z" />
    <glyph glyph-name="uni2535" unicode="&#x2535;" 
d="M-10 471v492h542v1085h164v-1249h543v-164h-543v-164h-706z" />
    <glyph glyph-name="uni2536" unicode="&#x2536;" 
d="M-10 635v164h542v1249h164v-1085h543v-492h-707v164h-542z" />
    <glyph glyph-name="uni2537" unicode="&#x2537;" 
d="M-10 471v492h542v1085h164v-1085h543v-492h-1249z" />
    <glyph glyph-name="uni2538" unicode="&#x2538;" 
d="M-10 635v164h379v1249h491v-1249h379v-164h-1249z" />
    <glyph glyph-name="uni2539" unicode="&#x2539;" 
d="M-10 471v492h379v1085h491v-1249h379v-164h-379v-164h-870z" />
    <glyph glyph-name="uni253A" unicode="&#x253a;" 
d="M-10 635v164h379v1249h491v-1085h379v-492h-870v164h-379z" />
    <glyph glyph-name="uni253B" unicode="&#x253b;" 
d="M-10 471v492h379v1085h491v-1085h379v-492h-1249z" />
    <glyph glyph-name="SF050000" unicode="&#x253c;" 
d="M-10 635v164h542v1249h164v-1249h543v-164h-543v-1659h-164v1659h-542z" />
    <glyph glyph-name="uni253D" unicode="&#x253d;" 
d="M-10 471v492h542v1085h164v-1249h543v-164h-543v-1659h-164v1495h-542z" />
    <glyph glyph-name="uni253E" unicode="&#x253e;" 
d="M-10 635v164h542v1249h164v-1085h543v-492h-543v-1495h-164v1659h-542z" />
    <glyph glyph-name="uni253F" unicode="&#x253f;" 
d="M-10 471v492h542v1085h164v-1085h543v-492h-543v-1495h-164v1495h-542z" />
    <glyph glyph-name="uni2540" unicode="&#x2540;" 
d="M-10 635v164h379v1249h491v-1249h379v-164h-543v-1659h-164v1659h-542z" />
    <glyph glyph-name="uni2541" unicode="&#x2541;" 
d="M-10 635v164h542v1249h164v-1249h543v-164h-379v-1659h-491v1659h-379z" />
    <glyph glyph-name="uni2542" unicode="&#x2542;" 
d="M-10 635v164h379v1249h491v-1249h379v-164h-379v-1659h-491v1659h-379z" />
    <glyph glyph-name="uni2543" unicode="&#x2543;" 
d="M-10 471v492h379v1085h491v-1249h379v-164h-379v-164h-164v-1495h-164v1495h-542z" />
    <glyph glyph-name="uni2544" unicode="&#x2544;" 
d="M-10 635v164h379v1249h491v-1085h379v-492h-543v-1495h-164v1495h-163v164h-379z" />
    <glyph glyph-name="uni2545" unicode="&#x2545;" 
d="M-10 471v492h542v1085h164v-1085h164v-164h379v-164h-379v-1659h-491v1495h-379z" />
    <glyph glyph-name="uni2546" unicode="&#x2546;" 
d="M-10 635v164h379v164h163v1085h164v-1085h543v-492h-379v-1495h-491v1659h-379z" />
    <glyph glyph-name="uni2547" unicode="&#x2547;" 
d="M-10 471v492h379v1085h491v-1085h379v-492h-543v-1495h-164v1495h-542z" />
    <glyph glyph-name="uni2548" unicode="&#x2548;" 
d="M-10 471v492h542v1085h164v-1085h543v-492h-379v-1495h-491v1495h-379z" />
    <glyph glyph-name="uni2549" unicode="&#x2549;" 
d="M-10 471v492h379v1085h491v-1249h379v-164h-379v-1659h-491v1495h-379z" />
    <glyph glyph-name="uni254A" unicode="&#x254a;" 
d="M-10 635v164h379v1249h491v-1085h379v-492h-379v-1495h-491v1659h-379z" />
    <glyph glyph-name="uni254B" unicode="&#x254b;" 
d="M-10 471v492h379v1085h491v-1085h379v-492h-379v-1495h-491v1495h-379z" />
    <glyph glyph-name="uni254C" unicode="&#x254c;" 
d="M-10 635v164h542v-164h-542zM1239 635h-543v164h543v-164z" />
    <glyph glyph-name="uni254D" unicode="&#x254d;" 
d="M-10 471v492h379v-492h-379zM1239 471h-379v492h379v-492z" />
    <glyph glyph-name="uni254E" unicode="&#x254e;" 
d="M696 2048v-1249h-164v1249h164zM532 -1024v1659h164v-1659h-164z" />
    <glyph glyph-name="uni254F" unicode="&#x254f;" 
d="M860 2048v-1085h-491v1085h491zM369 -1024v1495h491v-1495h-491z" />
    <glyph glyph-name="SF430000" unicode="&#x2550;" 
d="M1239 963v-164h-1249v164h1249zM-10 471v164h1249v-164h-1249z" />
    <glyph glyph-name="SF240000" unicode="&#x2551;" 
d="M369 -1024v3072h163v-3072h-163zM860 -1024h-164v3072h164v-3072z" />
    <glyph glyph-name="SF510000" unicode="&#x2552;" 
d="M1239 963v-164h-543v-164h543v-164h-543v-1495h-164v1987h707z" />
    <glyph glyph-name="SF520000" unicode="&#x2553;" 
d="M860 -1024h-164v1659h-164v-1659h-163v1823h870v-164h-379v-1659z" />
    <glyph glyph-name="SF390000" unicode="&#x2554;" 
d="M860 -1024h-164v1659h543v-164h-379v-1495zM369 -1024v1987h870v-164h-707v-1823h-163z" />
    <glyph glyph-name="SF220000" unicode="&#x2555;" 
d="M-10 471v164h542v164h-542v164h706v-1987h-164v1495h-542z" />
    <glyph glyph-name="SF210000" unicode="&#x2556;" 
d="M-10 635v164h870v-1823h-164v1659h-164v-1659h-163v1659h-379z" />
    <glyph glyph-name="SF250000" unicode="&#x2557;" 
d="M-10 471v164h542v-1659h-163v1495h-379zM860 -1024h-164v1823h-706v164h870v-1987z" />
    <glyph glyph-name="SF500000" unicode="&#x2558;" 
d="M1239 963v-164h-543v-164h543v-164h-707v1577h164v-1085h543z" />
    <glyph glyph-name="SF490000" unicode="&#x2559;" 
d="M369 635v1413h163v-1249h164v1249h164v-1249h379v-164h-870z" />
    <glyph glyph-name="SF380000" unicode="&#x255a;" 
d="M1239 963v-164h-543v1249h164v-1085h379zM532 635h707v-164h-870v1577h163v-1413z" />
    <glyph glyph-name="SF280000" unicode="&#x255b;" 
d="M-10 471v164h542v164h-542v164h542v1085h164v-1577h-706z" />
    <glyph glyph-name="SF270000" unicode="&#x255c;" 
d="M-10 635v164h379v1249h163v-1249h164v1249h164v-1413h-870z" />
    <glyph glyph-name="SF260000" unicode="&#x255d;" 
d="M369 963v1085h163v-1249h-542v164h379zM-10 471v164h706v1413h164v-1577h-870z" />
    <glyph glyph-name="SF360000" unicode="&#x255e;" 
d="M1239 963v-164h-543v-164h543v-164h-543v-1495h-164v3072h164v-1085h543z" />
    <glyph glyph-name="SF370000" unicode="&#x255f;" 
d="M369 -1024v3072h163v-3072h-163zM860 -1024h-164v3072h164v-1249h379v-164h-379v-1659z" />
    <glyph glyph-name="SF420000" unicode="&#x2560;" 
d="M1239 963v-164h-543v1249h164v-1085h379zM860 -1024h-164v1659h543v-164h-379v-1495zM369 -1024v3072h163v-3072h-163z" />
    <glyph glyph-name="SF190000" unicode="&#x2561;" 
d="M-10 471v164h542v164h-542v164h542v1085h164v-3072h-164v1495h-542z" />
    <glyph glyph-name="SF200000" unicode="&#x2562;" 
d="M860 -1024h-164v3072h164v-3072zM532 -1024h-163v1659h-379v164h379v1249h163v-3072z" />
    <glyph glyph-name="SF230000" unicode="&#x2563;" 
d="M369 963v1085h163v-1249h-542v164h379zM-10 471v164h542v-1659h-163v1495h-379zM860 -1024h-164v3072h164v-3072z" />
    <glyph glyph-name="SF470000" unicode="&#x2564;" 
d="M1239 963v-164h-1249v164h1249zM-10 471v164h1249v-164h-543v-1495h-164v1495h-542z" />
    <glyph glyph-name="SF480000" unicode="&#x2565;" 
d="M-10 635v164h1249v-164h-379v-1659h-164v1659h-164v-1659h-163v1659h-379z" />
    <glyph glyph-name="SF410000" unicode="&#x2566;" 
d="M1239 963v-164h-1249v164h1249zM860 -1024h-164v1659h543v-164h-379v-1495zM-10 471v164h542v-1659h-163v1495h-379z" />
    <glyph glyph-name="SF450000" unicode="&#x2567;" 
d="M-10 471v164h1249v-164h-1249zM1239 963v-164h-1249v164h542v1085h164v-1085h543z" />
    <glyph glyph-name="SF460000" unicode="&#x2568;" 
d="M-10 635v164h379v1249h163v-1249h164v1249h164v-1249h379v-164h-1249z" />
    <glyph glyph-name="SF400000" unicode="&#x2569;" 
d="M-10 471v164h1249v-164h-1249zM369 963v1085h163v-1249h-542v164h379zM1239 963v-164h-543v1249h164v-1085h379z" />
    <glyph glyph-name="SF540000" unicode="&#x256a;" 
d="M1239 963v-164h-543v-164h543v-164h-543v-1495h-164v1495h-542v164h542v164h-542v164h542v1085h164v-1085h543z" />
    <glyph glyph-name="SF530000" unicode="&#x256b;" 
d="M-10 635v164h379v1249h163v-1249h164v1249h164v-1249h379v-164h-379v-1659h-164v1659h-164v-1659h-163v1659h-379z" />
    <glyph glyph-name="SF440000" unicode="&#x256c;" 
d="M369 963v1085h163v-1249h-542v164h379zM1239 963v-164h-543v1249h164v-1085h379zM860 -1024h-164v1659h543v-164h-379v-1495zM-10 471v164h542v-1659h-163v1495h-379z" />
    <glyph glyph-name="uni2571" unicode="&#x2571;" 
d="M231 217l-116 117l882 883l117 -117z" />
    <glyph glyph-name="uni2572" unicode="&#x2572;" 
d="M115 1100l116 117l883 -883l-117 -117z" />
    <glyph glyph-name="uni2573" unicode="&#x2573;" 
d="M115 1100l116 117l383 -383l383 383l117 -117l-383 -383l383 -383l-117 -117l-383 383l-383 -383l-116 117l383 383z" />
    <glyph glyph-name="uni2574" unicode="&#x2574;" 
d="M-10 635v164h706v-164h-706z" />
    <glyph glyph-name="uni2575" unicode="&#x2575;" 
d="M532 -1024v1823h164v-1823h-164z" />
    <glyph glyph-name="uni2576" unicode="&#x2576;" 
d="M532 635v164h707v-164h-707z" />
    <glyph glyph-name="uni2577" unicode="&#x2577;" 
d="M532 635v1413h164v-1413h-164z" />
    <glyph glyph-name="uni2578" unicode="&#x2578;" 
d="M-10 471v492h706v-492h-706z" />
    <glyph glyph-name="uni2579" unicode="&#x2579;" 
d="M369 635v1413h491v-1413h-491z" />
    <glyph glyph-name="uni257A" unicode="&#x257a;" 
d="M532 471v492h707v-492h-707z" />
    <glyph glyph-name="uni257B" unicode="&#x257b;" 
d="M369 -1024v1823h491v-1823h-491z" />
    <glyph glyph-name="uni257C" unicode="&#x257c;" 
d="M-10 635v164h542v164h707v-492h-707v164h-542z" />
    <glyph glyph-name="uni257D" unicode="&#x257d;" 
d="M369 -1024v1823h163v1249h164v-1249h164v-1823h-491z" />
    <glyph glyph-name="uni257E" unicode="&#x257e;" 
d="M-10 471v492h706v-164h543v-164h-543v-164h-706z" />
    <glyph glyph-name="uni257F" unicode="&#x257f;" 
d="M369 635v1413h491v-1413h-164v-1659h-164v1659h-163z" />
    <glyph glyph-name="upblock" unicode="&#x2580;" 
d="M1229 2048v-1536h-1229v1536h1229z" />
    <glyph glyph-name="uni2581" unicode="&#x2581;" 
d="M0 -1024v385h1229v-385h-1229z" />
    <glyph glyph-name="uni2582" unicode="&#x2582;" 
d="M0 -1024v768h1229v-768h-1229z" />
    <glyph glyph-name="uni2583" unicode="&#x2583;" 
d="M0 127h1229v-1151h-1229v1151z" />
    <glyph glyph-name="dnblock" unicode="&#x2584;" 
d="M0 -1024v1536h1229v-1536h-1229z" />
    <glyph glyph-name="uni2585" unicode="&#x2585;" 
d="M0 895h1229v-1919h-1229v1919z" />
    <glyph glyph-name="uni2586" unicode="&#x2586;" 
d="M0 -1024v2304h1229v-2304h-1229z" />
    <glyph glyph-name="uni2587" unicode="&#x2587;" 
d="M0 -1024v2687h1229v-2687h-1229z" />
    <glyph glyph-name="block" unicode="&#x2588;" 
d="M0 -1024v3072h1229v-3072h-1229z" />
    <glyph glyph-name="uni2589" unicode="&#x2589;" 
d="M0 -1024v3072h1075v-3072h-1075z" />
    <glyph glyph-name="uni258A" unicode="&#x258a;" 
d="M0 -1024v3072h922v-3072h-922z" />
    <glyph glyph-name="uni258B" unicode="&#x258b;" 
d="M768 -1024h-768v3072h768v-3072z" />
    <glyph glyph-name="lfblock" unicode="&#x258c;" 
d="M0 -1024v3072h614v-3072h-614z" />
    <glyph glyph-name="uni258D" unicode="&#x258d;" 
d="M461 -1024h-461v3072h461v-3072z" />
    <glyph glyph-name="uni258E" unicode="&#x258e;" 
d="M0 -1024v3072h307v-3072h-307z" />
    <glyph glyph-name="uni258F" unicode="&#x258f;" 
d="M0 -1024v3072h154v-3072h-154z" />
    <glyph glyph-name="rtblock" unicode="&#x2590;" 
d="M1229 -1024h-615v3072h615v-3072z" />
    <glyph glyph-name="ltshade" unicode="&#x2591;" 
d="M1024 -1024h-102v154h102v-154zM819 -870v-154h-102v154h102zM614 -1024h-102v154h102v-154zM410 -870v-154h-103v154h103zM205 -870v-154h-103v154h103zM1126 1894h103v-153h-103v153zM1126 1587h103v-153h-103v153zM1126 1280h103v-154h-103v154zM1126 973h103v-154
h-103v154zM1126 666h103v-154h-103v154zM1126 358h103v-153h-103v153zM1126 51h103v-153h-103v153zM1126 -256h103v-154h-103v154zM1126 -563h103v-154h-103v154zM922 -563h102v-154h-102v154zM922 -256h102v-154h-102v154zM922 51h102v-153h-102v153zM922 358h102v-153
h-102v153zM922 666h102v-154h-102v154zM922 973h102v-154h-102v154zM922 1280h102v-154h-102v154zM922 1587h102v-153h-102v153zM922 1894h102v-153h-102v153zM512 -563h102v-154h-102v154zM512 -256h102v-154h-102v154zM512 51h102v-153h-102v153zM512 358h102v-153h-102
v153zM512 666h102v-154h-102v154zM512 973h102v-154h-102v154zM512 1280h102v-154h-102v154zM512 1587h102v-153h-102v153zM512 1894h102v-153h-102v153zM102 -563h103v-154h-103v154zM102 -256h103v-154h-103v154zM102 51h103v-153h-103v153zM102 358h103v-153h-103v153z
M102 666h103v-154h-103v154zM102 973h103v-154h-103v154zM102 1280h103v-154h-103v154zM102 1587h103v-153h-103v153zM102 1894h103v-153h-103v153zM307 1894h103v-153h-103v153zM307 1587h103v-153h-103v153zM307 1280h103v-154h-103v154zM307 973h103v-154h-103v154z
M307 666h103v-154h-103v154zM307 358h103v-153h-103v153zM307 51h103v-153h-103v153zM307 -256h103v-154h-103v154zM307 -563h103v-154h-103v154zM717 1894h102v-153h-102v153zM717 1587h102v-153h-102v153zM717 1280h102v-154h-102v154zM717 973h102v-154h-102v154z
M717 666h102v-154h-102v154zM717 358h102v-153h-102v153zM717 51h102v-153h-102v153zM717 -256h102v-154h-102v154zM717 -563h102v-154h-102v154zM1229 -1024h-103v154h103v-154z" />
    <glyph glyph-name="shade" unicode="&#x2592;" 
d="M922 -410v-151h100v151h-100zM922 1434v-152h100v152h-100zM307 -717v-151h101v151h-101zM1024 -563v-152h100v152h-100zM614 -563v-152h101v152h-101zM717 512v-152h100v152h-100zM717 1126v-151h100v151h-100zM205 51v-151h100v151h-100zM717 819v-151h100v151h-100z
M614 1894v-151h101v151h-101zM717 205v-152h100v152h-100zM512 205v-152h100v152h-100zM307 1126v-151h101v151h-101zM819 1280v-152h101v152h-101zM102 819v-151h101v151h-101zM102 1434v-152h101v152h-101zM410 1587v-151h100v151h-100zM410 358v-151h100v151h-100z
M819 1587v-151h101v151h-101zM307 205v-152h101v152h-101zM922 1126v-151h100v151h-100zM819 51v-151h101v151h-101zM410 1894v-151h100v151h-100zM102 -410v-151h101v151h-101zM614 358v-151h101v151h-101zM819 -256v-152h101v152h-101zM512 -102v-152h100v152h-100z
M512 -410v-151h100v151h-100zM410 -563v-152h100v152h-100zM614 -256v-152h101v152h-101zM410 51v-151h100v151h-100zM819 666v-152h101v152h-101zM614 666v-152h101v152h-101zM512 512v-152h100v152h-100zM512 1434v-152h100v152h-100zM614 51v-151h101v151h-101zM205 1280
v-152h100v152h-100zM102 1126v-151h101v151h-101zM614 973v-152h101v152h-101zM614 1280v-152h101v152h-101zM512 1126v-151h100v151h-100zM922 1741v-152h100v152h-100zM819 973v-152h101v152h-101zM1024 1280v-152h100v152h-100zM102 512v-152h101v152h-101zM717 1434
v-152h100v152h-100zM1024 358v-151h100v151h-100zM102 205v-152h101v152h-101zM205 358v-151h100v151h-100zM205 1587v-151h100v151h-100zM307 512v-152h101v152h-101zM922 512v-152h100v152h-100zM512 819v-151h100v151h-100zM205 666v-152h100v152h-100zM410 1280v-152
h100v152h-100zM410 973v-152h100v152h-100zM307 819v-151h101v151h-101zM1024 1587v-151h100v151h-100zM1024 973v-152h100v152h-100zM819 1894v-151h101v151h-101zM205 973v-152h100v152h-100zM717 -717v-151h100v151h-100zM205 -563v-152h100v152h-100zM922 -102v-152h100
v152h-100zM102 -102v-152h101v152h-101zM307 -410v-151h101v151h-101zM1024 -256v-152h100v152h-100zM717 -410v-151h100v151h-100zM205 -256v-152h100v152h-100zM922 205v-152h100v152h-100zM410 666v-152h100v152h-100zM307 -102v-152h101v152h-101zM410 -256v-152h100
v152h-100zM922 819v-151h100v151h-100zM819 358v-151h101v151h-101zM1024 666v-152h100v152h-100zM307 1434v-152h101v152h-101zM614 1587v-151h101v151h-101zM102 1741v-152h101v152h-101zM307 1741v-152h101v152h-101zM1024 51v-151h100v151h-100zM205 1894v-151h100v151
h-100zM717 -102v-152h100v152h-100zM717 1741v-152h100v152h-100zM512 1741v-152h100v152h-100zM1024 1894v-151h100v151h-100zM819 -563v-152h101v152h-101zM102 -717v-151h101v151h-101zM512 -717v-151h100v151h-100zM922 -717v-151h100v151h-100zM1124 -1024v154h-100
v-154h-104v154h-101v-154h-104v154h-101v-154h-104v154h-100v-154h-105v154h-100v-154h-105v154h-100v155h100v152h-100v155h100v152h-100v156h100v151h-100v156h100v151h-100v156h100v152h-100v155h100v152h-100v155h100v152h-100v156h100v151h-100v156h100v151h-100v154
h102v-152h101v152h104v-152h101v152h104v-152h100v152h105v-152h100v152h105v-152h100v152h104v-152h103v-155h-103v-152h103v-155h-103v-152h103v-156h-103v-151h103v-156h-103v-151h103v-156h-103v-152h103v-155h-103v-152h103v-155h-103v-152h103v-156h-103v-151h103
v-156h-103v-151h103v-156h-105z" />
    <glyph glyph-name="dkshade" unicode="&#x2593;" 
d="M922 -563v-154h102v154h-102zM922 -256v-154h102v154h-102zM922 51v-153h102v153h-102zM922 358v-153h102v153h-102zM922 666v-154h102v154h-102zM922 973v-154h102v154h-102zM922 1280v-154h102v154h-102zM922 1587v-153h102v153h-102zM922 1894v-153h102v153h-102z
M512 -563v-154h102v154h-102zM512 -256v-154h102v154h-102zM512 51v-153h102v153h-102zM512 358v-153h102v153h-102zM512 666v-154h102v154h-102zM512 973v-154h102v154h-102zM512 1280v-154h102v154h-102zM512 1587v-153h102v153h-102zM512 1894v-153h102v153h-102z
M102 -563v-154h103v154h-103zM102 -256v-154h103v154h-103zM102 51v-153h103v153h-103zM102 358v-153h103v153h-103zM102 666v-154h103v154h-103zM102 973v-154h103v154h-103zM102 1280v-154h103v154h-103zM102 1587v-153h103v153h-103zM102 1894v-153h103v153h-103z
M307 1894v-153h103v153h-103zM307 1587v-153h103v153h-103zM307 1280v-154h103v154h-103zM307 973v-154h103v154h-103zM307 666v-154h103v154h-103zM307 358v-153h103v153h-103zM307 51v-153h103v153h-103zM307 -256v-154h103v154h-103zM307 -563v-154h103v154h-103z
M717 1894v-153h102v153h-102zM717 1587v-153h102v153h-102zM717 1280v-154h102v154h-102zM717 973v-154h102v154h-102zM717 666v-154h102v154h-102zM717 358v-153h102v153h-102zM717 51v-153h102v153h-102zM717 -256v-154h102v154h-102zM717 -563v-154h102v154h-102z
M1024 -1024v154h-102v-154h-103v154h-102v-154h-103v154h-102v-154h-102v154h-103v-154h-102v154h-103v-154h-102v3072h1229v-154h-103v-153h103v-154h-103v-153h103v-154h-103v-154h103v-153h-103v-154h103v-153h-103v-154h103v-154h-103v-153h103v-154h-103v-153h103v-154
h-103v-154h103v-153h-103v-154h103v-153h-103v-154h-102z" />
    <glyph glyph-name="uni2594" unicode="&#x2594;" 
d="M1229 2048v-385h-1229v385h1229z" />
    <glyph glyph-name="uni2595" unicode="&#x2595;" 
d="M1229 -1024h-154v3072h154v-3072z" />
    <glyph glyph-name="uni2596" unicode="&#x2596;" 
d="M0 -1024v1536h614v-1536h-614z" />
    <glyph glyph-name="uni2597" unicode="&#x2597;" 
d="M1229 -1024h-615v1536h615v-1536z" />
    <glyph glyph-name="uni2598" unicode="&#x2598;" 
d="M614 2048v-1536h-614v1536h614z" />
    <glyph glyph-name="uni2599" unicode="&#x2599;" 
d="M0 -1024v3072h614v-1536h615v-1536h-1229z" />
    <glyph glyph-name="uni259A" unicode="&#x259a;" 
d="M1229 -1024h-615v1536h-614v1536h614v-1534h615v-1538z" />
    <glyph glyph-name="uni259B" unicode="&#x259b;" 
d="M0 -1024v3072h1229v-1536h-615v-1536h-614z" />
    <glyph glyph-name="uni259C" unicode="&#x259c;" 
d="M1229 -1024h-615v1536h-614v1536h1229v-3072z" />
    <glyph glyph-name="uni259D" unicode="&#x259d;" 
d="M1229 2048v-1536h-615v1536h615z" />
    <glyph glyph-name="uni259E" unicode="&#x259e;" 
d="M0 -1024v1536h614v-1536h-614zM1229 2048v-1534h-615v1534h615z" />
    <glyph glyph-name="uni259F" unicode="&#x259f;" 
d="M0 -1024v1536h614v1536h615v-3072h-1229z" />
    <glyph glyph-name="filledbox" unicode="&#x25a0;" 
d="M61 0v1106h1106v-1106h-1106z" />
    <glyph glyph-name="H22073" unicode="&#x25a1;" 
d="M225 164h779v778h-779v-778zM61 0v1106h1106v-1106h-1106z" />
    <glyph glyph-name="uni25A2" unicode="&#x25a2;" 
d="M614 942q-248 0 -318 -70t-71 -320q0 -249 70 -319q71 -69 319 -69t319 70t71 319t-71 319t-319 70zM61 582q1 154 19 256t83 167t165 83t285 18t287 -18t166 -84q65 -64 83 -165t18 -287t-18 -286t-83 -165t-166 -83t-256 -18q-156 0 -236 7q-170 15 -248 93t-92 248
q-7 80 -7 234z" />
    <glyph glyph-name="uni25A3" unicode="&#x25a3;" 
d="M389 328v450h451v-450h-451zM225 164h779v778h-779v-778zM61 0v1106h1106v-1106h-1106z" />
    <glyph glyph-name="H18543" unicode="&#x25aa;" 
d="M291 0v553h583v-553h-583z" />
    <glyph glyph-name="H18551" unicode="&#x25ab;" 
d="M455 164h256v225h-256v-225zM291 0v553h583v-553h-583z" />
    <glyph glyph-name="filledrect" unicode="&#x25ac;" 
d="M61 0v553h1106v-553h-1106z" />
    <glyph glyph-name="uni25AD" unicode="&#x25ad;" 
d="M225 164h779v225h-779v-225zM61 0v553h1106v-553h-1106z" />
    <glyph glyph-name="uni25AE" unicode="&#x25ae;" 
d="M291 0v1106h583v-1106h-583z" />
    <glyph glyph-name="uni25AF" unicode="&#x25af;" 
d="M455 164h256v778h-256v-778zM291 0v1106h583v-1106h-583z" />
    <glyph glyph-name="triagup" unicode="&#x25b2;" 
d="M61 0l553 1106l553 -1106h-1106z" />
    <glyph glyph-name="triagrt" unicode="&#x25ba;" 
d="M1167 553l-1106 -553v1106z" />
    <glyph glyph-name="triagdn" unicode="&#x25bc;" 
d="M614 0l-553 1106h1106z" />
    <glyph glyph-name="triaglf" unicode="&#x25c4;" 
d="M1167 0l-1106 553l1106 553v-1106z" />
    <glyph glyph-name="uni25C6" unicode="&#x25c6;" 
d="M61 553l553 553l553 -553l-553 -553z" />
    <glyph glyph-name="uni25C7" unicode="&#x25c7;" 
d="M293 553l321 -322l320 322l-320 319zM61 553l553 553l553 -553l-553 -553z" />
    <glyph glyph-name="uni25C9" unicode="&#x25c9;" 
d="M389 552q0 93 66 160q67 66 159 66t159 -66t67 -160q0 -93 -67 -159q-67 -65 -160 -65t-159 66t-65 158zM1004 552q0 160 -115 276q-115 114 -276 114t-275 -114t-113 -276q0 -160 114 -274q115 -114 275 -114t275 114t115 274zM61 553q0 229 162 391t391 162
q230 0 392 -162t162 -391t-162 -391t-392 -162t-391 162q-162 162 -162 391z" />
    <glyph glyph-name="lozenge" unicode="&#x25ca;" 
d="M723 0h-217l-375 705l375 706h217l375 -704zM610 145h8l283 560l-283 561h-8l-282 -561z" />
    <glyph glyph-name="circle" unicode="&#x25cb;" 
d="M1004 552q0 160 -115 276q-115 114 -276 114t-275 -114t-113 -276q0 -160 114 -274q115 -114 275 -114t275 114t115 274zM61 553q0 229 162 391t391 162q230 0 392 -162t162 -391t-162 -391t-392 -162t-391 162q-162 162 -162 391z" />
    <glyph glyph-name="uni25CE" unicode="&#x25ce;" 
d="M553 552q0 -26 17 -43t43 -17t44 17q19 17 19 43t-18 44t-45 18q-26 0 -43 -18t-17 -44zM389 552q0 93 66 160q67 66 159 66t159 -66t67 -160q0 -93 -67 -159q-67 -65 -160 -65t-159 66t-65 158zM1004 552q0 160 -115 276q-115 114 -276 114t-275 -114t-113 -276
q0 -160 114 -274q115 -114 275 -114t275 114t115 274zM61 553q0 229 162 391t391 162q230 0 392 -162t162 -391t-162 -391t-392 -162t-391 162q-162 162 -162 391z" />
    <glyph glyph-name="H18533" unicode="&#x25cf;" 
d="M61 553q0 229 162 391t391 162q230 0 392 -162t162 -391t-162 -391t-392 -162t-391 162q-162 162 -162 391z" />
    <glyph glyph-name="uni25D0" unicode="&#x25d0;" 
d="M614 164q160 0 275 114t115 274q0 162 -115 276t-275 114v-778zM1167 553q1 -229 -161 -391t-392 -162t-391 162q-162 162 -162 391t162 391t391 162t391 -162t162 -391z" />
    <glyph glyph-name="uni25D1" unicode="&#x25d1;" 
d="M614 942q-162 0 -276 -115t-113 -275q0 -160 114 -274t275 -114v778zM614 1106q229 0 391 -162t162 -389q1 -227 -153 -386t-377 -169h-23q-229 0 -391 162t-162 391t162 391t391 162z" />
    <glyph glyph-name="uni25D2" unicode="&#x25d2;" 
d="M225 553h779q0 161 -115 275t-276 114t-275 -114t-113 -275zM61 553q0 229 162 391t391 162q230 0 392 -162t162 -391t-162 -391t-392 -162t-391 162q-162 162 -162 391z" />
    <glyph glyph-name="uni25D3" unicode="&#x25d3;" 
d="M225 553q-1 -161 113 -275t275 -114t276 114t115 275h-779zM61 553q0 229 162 391t391 162q230 0 392 -162t162 -391t-162 -391t-392 -162t-391 162q-162 162 -162 391z" />
    <glyph glyph-name="uni25D5" unicode="&#x25d5;" 
d="M225 553h389v389q-162 0 -276 -114t-113 -275zM61 553q0 229 162 391t391 162q230 0 392 -162t162 -391t-162 -391t-392 -162t-391 162q-162 162 -162 391z" />
    <glyph glyph-name="uni25D6" unicode="&#x25d6;" 
d="M614 0q-229 0 -391 162t-162 391t162 391t391 162v-1106z" />
    <glyph glyph-name="uni25D7" unicode="&#x25d7;" 
d="M1167 553q1 -229 -161 -391t-392 -162v1106q229 0 391 -162t162 -391z" />
    <glyph glyph-name="invcircle" unicode="&#x25d9;" 
d="M307 553q0 127 90 217t217 90t217 -90q91 -90 91 -217t-90 -217t-218 -90q-127 0 -217 90t-90 217zM143 553q1 -195 139 -333t332 -138t333 138q138 138 138 332t-139 333t-333 139t-332 -138t-138 -333zM61 0v1106h1106v-1106h-1106z" />
    <glyph glyph-name="uni25DA" unicode="&#x25da;" 
d="M307 553q0 127 90 217t217 90t217 -90t91 -217h-615zM143 553h-82v553h1106v-553h-82q0 193 -139 332t-333 139t-332 -138t-138 -333z" />
    <glyph glyph-name="uni25DB" unicode="&#x25db;" 
d="M307 553h615q0 -127 -90 -217t-218 -90q-127 0 -217 90t-90 217zM61 0v553h82q1 -195 139 -333t332 -138t333 138q138 138 138 333h82v-553h-1106z" />
    <glyph glyph-name="uni25DC" unicode="&#x25dc;" 
d="M225 553h-164q0 229 162 391t391 162v-164q-162 0 -276 -114t-113 -275z" />
    <glyph glyph-name="uni25DD" unicode="&#x25dd;" 
d="M1004 553q0 161 -115 275t-275 114v164q230 0 392 -162t161 -391h-163z" />
    <glyph glyph-name="uni25DE" unicode="&#x25de;" 
d="M614 0q-229 0 -391 162t-162 391h164q0 -161 114 -275t275 -114v-164z" />
    <glyph glyph-name="uni25DF" unicode="&#x25df;" 
d="M1167 553q1 -229 -161 -391t-392 -162v164q160 0 275 114t115 275h163z" />
    <glyph glyph-name="uni25E0" unicode="&#x25e0;" 
d="M225 553h-164q0 229 162 391t391 162q230 0 392 -162t161 -391h-163q0 161 -115 275t-276 114t-275 -114t-113 -275z" />
    <glyph glyph-name="uni25E1" unicode="&#x25e1;" 
d="M61 553h164q0 -161 114 -275q115 -114 275 -114t275 114t115 275h163q1 -229 -161 -391t-392 -162t-391 162q-162 162 -162 391z" />
    <glyph glyph-name="uni25E2" unicode="&#x25e2;" 
d="M1167 0h-1106l1106 1106v-1106z" />
    <glyph glyph-name="uni25E3" unicode="&#x25e3;" 
d="M61 0v1106l1106 -1106h-1106z" />
    <glyph glyph-name="uni25E4" unicode="&#x25e4;" 
d="M61 1106h1106l-1106 -1106v1106z" />
    <glyph glyph-name="uni25E5" unicode="&#x25e5;" 
d="M1167 1106v-1106l-1106 1106h1106z" />
    <glyph glyph-name="uni25E7" unicode="&#x25e7;" 
d="M1004 942h-390v-778h390v778zM61 0v1106h1106v-1106h-1106z" />
    <glyph glyph-name="uni25E8" unicode="&#x25e8;" 
d="M225 164h389v778h-389v-778zM61 0v1106h1106v-1106h-1106z" />
    <glyph glyph-name="uni25E9" unicode="&#x25e9;" 
d="M1004 164v778l-779 -778h779zM61 0v1106h1106v-1106h-1106z" />
    <glyph glyph-name="uni25EA" unicode="&#x25ea;" 
d="M225 942v-778l779 778h-779zM61 0v1106h1106v-1106h-1106z" />
    <glyph glyph-name="uni25EB" unicode="&#x25eb;" 
d="M1004 942h-308v-778h308v778zM225 164h307v778h-307v-778zM61 0v1106h1106v-1106h-1106z" />
    <glyph glyph-name="uni25EF" unicode="&#x25ef;" 
d="M1004 552q0 160 -115 276q-115 114 -276 114t-275 -114t-113 -276q0 -160 114 -274q115 -114 275 -114t275 114t115 274zM61 553q0 229 162 391t391 162q230 0 392 -162t162 -391t-162 -391t-392 -162t-391 162q-162 162 -162 391z" />
    <glyph glyph-name="uni25F0" unicode="&#x25f0;" 
d="M225 942v-307h307v307h-307zM225 471v-307h779v778h-308v-471h-471zM61 0v1106h1106v-1106h-1106z" />
    <glyph glyph-name="uni25F1" unicode="&#x25f1;" 
d="M225 164h307v307h-307v-307zM696 635v-471h308v778h-779v-307h471zM61 0v1106h1106v-1106h-1106z" />
    <glyph glyph-name="uni25F2" unicode="&#x25f2;" 
d="M1004 471h-308v-307h308v307zM225 942v-778h307v471h472v307h-779zM61 0v1106h1106v-1106h-1106z" />
    <glyph glyph-name="uni25F3" unicode="&#x25f3;" 
d="M696 942v-307h308v307h-308zM532 471v471h-307v-778h779v307h-472zM61 0v1106h1106v-1106h-1106z" />
    <glyph glyph-name="uni25F4" unicode="&#x25f4;" 
d="M532 635v299q-114 -25 -194 -107t-105 -192h299zM624 164q150 0 265 114t115 263t-88 255t-220 136v-461h-463q29 -133 135 -220t256 -87zM61 553q0 229 162 391t391 162q230 0 392 -162t162 -391t-162 -391t-392 -162t-391 162q-162 162 -162 391z" />
    <glyph glyph-name="uni25F5" unicode="&#x25f5;" 
d="M532 471h-299q25 -113 106 -195t193 -104v299zM626 942q-148 0 -256 -87t-137 -220h463v-463q133 28 220 136q88 108 88 256t-115 264q-115 114 -263 114zM61 553q0 229 162 391t391 162q230 0 392 -162t162 -391t-162 -391t-392 -162t-391 162q-162 162 -162 391z" />
    <glyph glyph-name="uni25F6" unicode="&#x25f6;" 
d="M696 471v-299q111 23 192 104q80 82 105 195h-297zM532 635h461q-29 131 -135 219t-256 88t-264 -115t-113 -264q0 -149 87 -255t220 -136v463zM61 553q0 229 162 391t391 162q230 0 392 -162t162 -391t-162 -391t-392 -162t-391 162q-162 162 -162 391z" />
    <glyph glyph-name="uni25F7" unicode="&#x25f7;" 
d="M696 635h299q-25 111 -107 191t-192 106v-297zM532 471v461q-133 -29 -220 -135t-87 -256q0 -149 114 -263t263 -114t256 87q106 87 135 220h-461zM61 553q0 229 162 391t391 162q230 0 392 -162t162 -391t-162 -391t-392 -162t-391 162q-162 162 -162 391z" />
    <glyph glyph-name="uni2620" unicode="&#x2620;" 
d="M285 799q0 127 94 216t236 89q143 0 237 -89t94 -215t-57 -218v-107l-53 -37l-88 -153h-265l-88 153l-51 37v107q-59 90 -59 217zM1134 305q58 0 58 -52q0 -24 -20 -41t-50 -17l-28 -50q12 -25 12 -45t-15 -37q-15 -16 -40 -16q-53 0 -70 131l-141 88l53 86l145 -80
q68 33 96 33zM1229 537q-1 -21 -17 -33t-46 -12t-93 38l-104 -34v104l57 33q23 119 82 119q20 0 32 -16t13 -39q0 -24 -16 -42l26 -55q66 -10 66 -63zM616 436l70 -14v59q-12 33 -32 63t-38 30q-16 0 -38 -30t-33 -63v-59zM684 659q0 -35 24 -59t58 -25q34 0 58 26
q24 25 24 59t-25 58t-59 24t-56 -24q-24 -24 -24 -59zM547 659q0 35 -24 59q-23 24 -57 24t-58 -24t-23 -59q0 -35 24 -59q23 -24 57 -25q34 1 58 25t23 59zM78 696q0 24 12 40t33 16q57 0 80 -119l57 -33v-113l-104 43q-60 -38 -108 -38t-48 45q0 53 68 63l26 55
q-16 17 -16 41zM97 305q28 0 96 -33l147 80l53 -86l-143 -88q-16 -131 -70 -131q-25 0 -39 16q-14 15 -14 35t10 47l-26 50q-29 0 -51 17t-22 41t16 38q15 14 43 14z" />
    <glyph glyph-name="smileface" unicode="&#x263a;" 
d="M614 217q-118 0 -198 79t-94 196h90q44 -182 202 -182t203 182h90q-14 -117 -94 -196t-199 -79zM774 801q42 -1 70 -27t28 -66t-28 -68t-70 -28q-43 0 -71 28q-27 28 -27 68t28 66t70 27zM446 612q-42 0 -70 28t-28 68t28 66t70 27q42 -1 71 -27q28 -26 28 -66t-28 -68
t-71 -28zM182 551q0 -184 125 -314q125 -131 306 -131t307 132t127 314q0 183 -126 314q-125 131 -307 131t-307 -131t-125 -315zM61 553q0 229 162 390t391 161q230 0 392 -161t162 -390t-162 -391t-392 -162t-391 162q-162 162 -162 391z" />
    <glyph glyph-name="invsmileface" unicode="&#x263b;" 
d="M614 209q119 0 203 79t98 193h-88q-20 -84 -74 -133q-55 -49 -139 -49t-138 49t-75 133h-88q14 -115 98 -193t203 -79zM883 718q0 40 -28 66t-71 27q-42 0 -70 -27q-28 -26 -28 -66t28 -68t70 -28t71 28q28 28 28 68zM535 718q0 40 -28 66t-71 27q-42 0 -70 -27
q-28 -26 -28 -66t28 -68t70 -28t71 28q28 28 28 68zM61 553q0 229 162 390t391 161q230 0 392 -161t162 -390t-162 -391t-392 -162t-391 162q-162 162 -162 391z" />
    <glyph glyph-name="sun" unicode="&#x263c;" 
d="M391 541q1 -98 63 -163t160 -65t162 65q63 65 64 163q0 98 -64 164q-64 65 -162 65t-160 -66t-63 -163zM565 1079h99v-219q74 -8 139 -55l166 168l73 -74l-165 -164q51 -63 63 -147h227v-96h-227q-12 -82 -59 -142l161 -160l-73 -73l-162 164q-66 -43 -143 -56v-225h-99
v225q-82 12 -143 56l-162 -164l-74 73l162 160q-49 70 -59 142h-228v96h228q12 82 61 147l-164 164l74 74l164 -168q68 47 141 55v219z" />
    <glyph glyph-name="female" unicode="&#x2640;" 
d="M389 780q1 -98 63 -163t160 -65t162 65q63 65 64 163q0 98 -64 164t-162 66t-160 -66t-63 -164zM285 787q0 129 95 223t232 94q138 0 234 -94t96 -224t-79 -216q-79 -87 -199 -103v-170h196v-82h-196v-215h-99v215h-196v82h196v168q-121 16 -201 104t-79 218z" />
    <glyph glyph-name="male" unicode="&#x2642;" 
d="M227 317q1 -99 63 -163t160 -64t162 65t64 163t-64 163q-64 66 -161 66q-98 0 -161 -66t-63 -164zM123 318q0 136 95 230t233 93q92 0 178 -51l311 309l-2 4q-45 -2 -96 0l-205 8l8 86l438 -22l23 -438l-90 -5l-10 203q-2 49 6 99l-4 2l-303 -310q75 -92 75 -218
t-96 -217t-233 -91t-233 91q-95 91 -95 227z" />
    <glyph glyph-name="spade" unicode="&#x2660;" 
d="M1085 0h-942l82 133h320l33 277q-82 -135 -234 -136q-92 0 -146 58t-54 152q0 93 77 221q50 78 229 245q46 43 164 154q209 -195 287 -275q78 -81 107 -125q79 -121 78 -217t-55 -154t-146 -59q-152 0 -234 136l33 -277h320z" />
    <glyph glyph-name="club" unicode="&#x2663;" 
d="M614 1104q115 0 181 -49q65 -49 65 -147t-55 -156q-20 -23 -55 -52q68 29 150 29t134 -62q51 -62 51 -167t-60 -165t-153 -61q-141 0 -221 136l33 -277h320l81 -133h-942l82 133h320l33 277q-82 -135 -222 -136q-92 0 -152 60t-60 166q0 104 50 166q52 62 135 63
q83 0 150 -29q-35 29 -55 52q-55 63 -55 158q0 94 65 144t180 50z" />
    <glyph glyph-name="heart" unicode="&#x2665;" 
d="M102 859q0 97 65 171t169 74t166 -51t112 -158q50 105 112 157t167 52t169 -74q113 -130 30 -359q-57 -150 -272 -422q-69 -87 -206 -249q-233 275 -337 425q-105 151 -140 244t-35 190z" />
    <glyph glyph-name="diamond" unicode="&#x2666;" 
d="M1016 545l-402 -570l-401 570l401 559z" />
    <glyph glyph-name="musicalnote" unicode="&#x266a;" 
d="M459 303q86 0 135 -27v803h98l96 -63q92 -60 130 -116t36 -137q0 -81 -36 -159l-60 25q0 121 -24 179q-25 58 -95 103l-47 31v-782q0 -66 -74 -125t-177 -59t-160 36q-57 37 -57 111t74 127q75 53 161 53z" />
    <glyph glyph-name="musicalnotedbl" unicode="&#x266b;" 
d="M847 78q-218 0 -218 148q0 74 74 126q75 54 161 54t135 -27v637l-481 -121v-735q0 -66 -74 -125t-177 -59q-218 -1 -218 147q0 74 75 127t161 53t135 -27v730l678 176v-920q0 -66 -74 -125t-177 -59z" />
    <glyph glyph-name="uni27A1" unicode="&#x27a1;" 
d="M-82 489v304q0 47 29 75t73 27h680v360l611 -614l-611 -614v360h-680q-46 -1 -74 27t-28 75z" />
    <glyph glyph-name="uni2B05" unicode="&#x2b05;" 
d="M1311 793v-304q0 -47 -29 -75t-74 -27h-680v-360l-610 614l610 614v-360h680q45 1 74 -27t29 -75z" />
    <glyph glyph-name="uni2B06" unicode="&#x2b06;" 
d="M780 -25h-331q-47 0 -75 29t-28 74v1016h-346l614 610l615 -610h-346v-1016q0 -45 -28 -74t-75 -29z" />
    <glyph glyph-name="uni2B07" unicode="&#x2b07;" 
d="M449 1536h331q47 0 75 -29t28 -73v-1016h346l-615 -611l-614 611h346v1016q0 46 28 74t75 28z" />
    </font>
</defs>
</svg>
